<svg width="1854" height="1236" viewBox="0 0 1854 1236" fill="none" xmlns="http://www.w3.org/2000/svg">
<rect width="1854" height="1236" fill="#F6F4EE"/>
<mask id="path-1-inside-1_8877_8842" fill="white">
<path d="M704.906 962.973L144 962.973L144 701.819L704.906 701.819L704.906 962.973Z"/>
</mask>
<path d="M704.906 962.973L144 962.973L144 701.819L704.906 701.819L704.906 962.973Z" fill="#D13C0F"/>
<path d="M145 962.973L145 701.819L143 701.819L143 962.973L145 962.973ZM703.906 701.819L703.906 962.973L705.906 962.973L705.906 701.819L703.906 701.819Z" fill="black" mask="url(#path-1-inside-1_8877_8842)"/>
<rect x="704.406" y="443.158" width="559.907" height="258.658" transform="rotate(-180 704.406 443.158)" fill="#776B2F" stroke="black"/>
<mask id="path-4-inside-2_8877_8842" fill="white">
<path d="M704.906 701.819L144 701.819L144 443.658L704.906 443.658L704.906 701.819Z"/>
</mask>
<path d="M704.906 701.819L144 701.819L144 443.658L704.906 443.658L704.906 701.819Z" fill="#F6F4EE"/>
<path d="M704.906 701.819L704.906 702.819L705.906 702.819L705.906 701.819L704.906 701.819ZM144 701.819L143 701.819L143 702.819L144 702.819L144 701.819ZM704.906 700.819L144 700.819L144 702.819L704.906 702.819L704.906 700.819ZM145 701.819L145 443.658L143 443.658L143 701.819L145 701.819ZM703.906 443.658L703.906 701.819L705.906 701.819L705.906 443.658L703.906 443.658Z" fill="black" mask="url(#path-4-inside-2_8877_8842)"/>
<mask id="path-6-inside-3_8877_8842" fill="white">
<path d="M705 1118L144 1118L144 962.626L705 962.626L705 1118Z"/>
</mask>
<path d="M705 1118L144 1118L144 962.626L705 962.626L705 1118Z" fill="#F3B119"/>
<path d="M705 1118L705 1119L706 1119L706 1118L705 1118ZM144 1118L143 1118L143 1119L144 1119L144 1118ZM144 962.626L144 961.626L143 961.626L143 962.626L144 962.626ZM705 962.626L706 962.626L706 961.626L705 961.626L705 962.626ZM705 1117L144 1117L144 1119L705 1119L705 1117ZM145 1118L145 962.626L143 962.626L143 1118L145 1118ZM144 963.626L705 963.626L705 961.626L144 961.626L144 963.626ZM704 962.626L704 1118L706 1118L706 962.626L704 962.626Z" fill="black" mask="url(#path-6-inside-3_8877_8842)"/>
<path d="M168.461 221.914V221.012C168.461 218.27 169.098 216.184 170.371 214.754C171.645 213.324 173.293 212.609 175.316 212.609C177.332 212.609 178.977 213.324 180.25 214.754C181.531 216.184 182.172 218.27 182.172 221.012V221.914C182.172 224.672 181.531 226.766 180.25 228.195C178.977 229.617 177.332 230.328 175.316 230.328C173.301 230.328 171.652 229.617 170.371 228.195C169.098 226.766 168.461 224.672 168.461 221.914ZM170.137 221.938C170.137 224.219 170.609 225.945 171.555 227.117C172.5 228.289 173.75 228.875 175.305 228.875C176.867 228.875 178.121 228.289 179.066 227.117C180.012 225.945 180.484 224.215 180.484 221.926V220.988C180.484 218.723 180.012 217.004 179.066 215.832C178.121 214.652 176.871 214.062 175.316 214.062C173.754 214.062 172.5 214.652 171.555 215.832C170.609 217.004 170.137 218.723 170.137 220.988V221.938ZM185.195 230V212.211H186.801V230H185.195ZM190.316 230V218.035H191.934V230H190.316ZM190.047 214.145C190.047 213.848 190.141 213.602 190.328 213.406C190.516 213.203 190.781 213.102 191.125 213.102C191.477 213.102 191.742 213.203 191.922 213.406C192.109 213.602 192.203 213.848 192.203 214.145C192.203 214.449 192.109 214.703 191.922 214.906C191.734 215.102 191.469 215.199 191.125 215.199C190.781 215.199 190.516 215.098 190.328 214.895C190.141 214.691 190.047 214.441 190.047 214.145ZM193.703 218.035H195.332L198.555 226.742C198.656 227.039 198.746 227.309 198.824 227.551C198.902 227.793 198.961 228 199 228.172H199.07C199.117 228 199.176 227.793 199.246 227.551C199.324 227.301 199.418 227.031 199.527 226.742L202.738 218.035H204.332L199.691 230H198.344L193.703 218.035ZM205.117 224.188V223.836C205.117 222.023 205.602 220.551 206.57 219.418C207.539 218.277 208.828 217.707 210.438 217.707C212.039 217.707 213.266 218.23 214.117 219.277C214.969 220.316 215.395 221.742 215.395 223.555V224.258H206.066V222.934H213.777V222.77C213.777 221.691 213.504 220.805 212.957 220.109C212.418 219.414 211.59 219.066 210.473 219.066C209.246 219.066 208.316 219.52 207.684 220.426C207.059 221.324 206.746 222.457 206.746 223.824V224.199C206.746 225.566 207.074 226.703 207.73 227.609C208.387 228.516 209.395 228.969 210.754 228.969C211.566 228.969 212.258 228.805 212.828 228.477C213.406 228.148 213.875 227.742 214.234 227.258L215.301 228.148C214.926 228.688 214.355 229.188 213.59 229.648C212.824 230.102 211.879 230.328 210.754 230.328C208.941 230.328 207.547 229.762 206.57 228.629C205.602 227.488 205.117 226.008 205.117 224.188ZM222.906 221.914V221.012C222.906 218.309 223.539 216.234 224.805 214.789C226.07 213.336 227.707 212.609 229.715 212.609C231.613 212.609 233.074 213.109 234.098 214.109C235.129 215.102 235.703 216.32 235.82 217.766V217.941H234.156V217.777C234.109 216.809 233.719 215.949 232.984 215.199C232.25 214.441 231.156 214.062 229.703 214.062C228.172 214.062 226.934 214.664 225.988 215.867C225.051 217.062 224.582 218.77 224.582 220.988V221.938C224.582 224.141 225.055 225.852 226 227.07C226.953 228.281 228.289 228.887 230.008 228.887C230.93 228.887 231.723 228.777 232.387 228.559C233.059 228.34 233.672 228.02 234.227 227.598V223.086H229.762V221.68H235.82V228.207C235.336 228.707 234.602 229.188 233.617 229.648C232.633 230.102 231.43 230.328 230.008 230.328C227.82 230.328 226.09 229.598 224.816 228.137C223.543 226.676 222.906 224.602 222.906 221.914ZM238.668 230V218.035H240.133L240.191 219.699H240.227C240.57 219.16 241.012 218.695 241.551 218.305C242.098 217.906 242.754 217.707 243.52 217.707C243.699 217.707 243.887 217.727 244.082 217.766C244.285 217.805 244.43 217.84 244.516 217.871V219.371C244.352 219.34 244.176 219.316 243.988 219.301C243.809 219.277 243.609 219.266 243.391 219.266C242.672 219.266 242.043 219.465 241.504 219.863C240.965 220.254 240.555 220.75 240.273 221.352V230H238.668ZM245.477 224.188V223.836C245.477 222.023 245.961 220.551 246.93 219.418C247.898 218.277 249.188 217.707 250.797 217.707C252.398 217.707 253.625 218.23 254.477 219.277C255.328 220.316 255.754 221.742 255.754 223.555V224.258H246.426V222.934H254.137V222.77C254.137 221.691 253.863 220.805 253.316 220.109C252.777 219.414 251.949 219.066 250.832 219.066C249.605 219.066 248.676 219.52 248.043 220.426C247.418 221.324 247.105 222.457 247.105 223.824V224.199C247.105 225.566 247.434 226.703 248.09 227.609C248.746 228.516 249.754 228.969 251.113 228.969C251.926 228.969 252.617 228.805 253.188 228.477C253.766 228.148 254.234 227.742 254.594 227.258L255.66 228.148C255.285 228.688 254.715 229.188 253.949 229.648C253.184 230.102 252.238 230.328 251.113 230.328C249.301 230.328 247.906 229.762 246.93 228.629C245.961 227.488 245.477 226.008 245.477 224.188ZM257.453 224.188V223.836C257.453 222.023 257.938 220.551 258.906 219.418C259.875 218.277 261.164 217.707 262.773 217.707C264.375 217.707 265.602 218.23 266.453 219.277C267.305 220.316 267.73 221.742 267.73 223.555V224.258H258.402V222.934H266.113V222.77C266.113 221.691 265.84 220.805 265.293 220.109C264.754 219.414 263.926 219.066 262.809 219.066C261.582 219.066 260.652 219.52 260.02 220.426C259.395 221.324 259.082 222.457 259.082 223.824V224.199C259.082 225.566 259.41 226.703 260.066 227.609C260.723 228.516 261.73 228.969 263.09 228.969C263.902 228.969 264.594 228.805 265.164 228.477C265.742 228.148 266.211 227.742 266.57 227.258L267.637 228.148C267.262 228.688 266.691 229.188 265.926 229.648C265.16 230.102 264.215 230.328 263.09 230.328C261.277 230.328 259.883 229.762 258.906 228.629C257.938 227.488 257.453 226.008 257.453 224.188ZM270.191 230V218.035H271.656L271.715 219.746H271.75C272.195 219.137 272.75 218.66 273.414 218.316C274.086 217.973 274.836 217.801 275.664 217.801C276.867 217.801 277.82 218.137 278.523 218.809C279.234 219.473 279.59 220.586 279.59 222.148V230H277.973V222.148C277.973 221.094 277.73 220.34 277.246 219.887C276.762 219.426 276.07 219.195 275.172 219.195C274.406 219.195 273.734 219.398 273.156 219.805C272.578 220.211 272.125 220.727 271.797 221.352V230H270.191Z" fill="#FFFADE"/>
<path d="M168.461 478.323V477.421C168.461 474.679 169.098 472.593 170.371 471.163C171.645 469.734 173.262 469.019 175.223 469.019C177.152 469.019 178.641 469.55 179.688 470.613C180.734 471.675 181.297 473.019 181.375 474.644V474.831H179.711L179.699 474.656C179.652 473.46 179.266 472.464 178.539 471.667C177.82 470.87 176.711 470.472 175.211 470.472C173.703 470.472 172.48 471.05 171.543 472.206C170.605 473.363 170.137 475.093 170.137 477.398V478.347C170.137 480.605 170.605 482.327 171.543 483.515C172.488 484.695 173.715 485.284 175.223 485.284C176.684 485.284 177.773 484.886 178.492 484.089C179.211 483.284 179.613 482.288 179.699 481.101L179.711 480.925H181.375L181.363 481.124C181.238 482.726 180.668 484.062 179.652 485.132C178.637 486.202 177.156 486.738 175.211 486.738C173.234 486.738 171.613 486.027 170.348 484.605C169.09 483.175 168.461 481.081 168.461 478.323ZM183.988 486.409V468.62H185.594V476.097C186.031 475.519 186.582 475.062 187.246 474.726C187.918 474.382 188.672 474.21 189.508 474.21C190.672 474.21 191.609 474.546 192.32 475.218C193.031 475.882 193.387 476.995 193.387 478.558V486.409H191.77V478.558C191.77 477.495 191.523 476.738 191.031 476.284C190.547 475.831 189.859 475.605 188.969 475.605C188.203 475.605 187.531 475.808 186.953 476.214C186.375 476.613 185.922 477.124 185.594 477.749V486.409H183.988ZM195.941 482.988C195.941 481.792 196.41 480.863 197.348 480.198C198.285 479.534 199.5 479.202 200.992 479.202H203.992V478.171C203.992 477.335 203.777 476.675 203.348 476.191C202.926 475.698 202.203 475.452 201.18 475.452C200.148 475.452 199.398 475.663 198.93 476.085C198.469 476.499 198.238 477.011 198.238 477.62V477.749H196.645V477.597C196.645 476.636 197.055 475.816 197.875 475.136C198.703 474.456 199.82 474.116 201.227 474.116C202.617 474.116 203.695 474.452 204.461 475.124C205.227 475.788 205.609 476.8 205.609 478.159V483.597C205.609 484.113 205.648 484.597 205.727 485.05C205.805 485.503 205.918 485.898 206.066 486.234V486.409H204.531C204.406 486.198 204.297 485.925 204.203 485.589C204.117 485.253 204.059 484.917 204.027 484.581C203.738 485.113 203.254 485.585 202.574 485.999C201.902 486.413 201.035 486.62 199.973 486.62C198.816 486.62 197.855 486.316 197.09 485.706C196.324 485.089 195.941 484.183 195.941 482.988ZM197.547 482.906C197.547 483.679 197.777 484.273 198.238 484.687C198.699 485.093 199.398 485.296 200.336 485.296C201.289 485.296 202.137 484.988 202.879 484.37C203.621 483.753 203.992 483.081 203.992 482.355V480.398H201.203C200 480.398 199.09 480.624 198.473 481.077C197.855 481.523 197.547 482.132 197.547 482.906ZM208.984 486.409V468.62H210.59V486.409H208.984ZM214.035 486.409V468.62H215.641V480.433L221.312 474.445H223.234L215.641 482.39V486.409H214.035ZM221.852 486.409L217.012 479.917L218.078 478.804L223.785 486.409H221.852ZM230.383 478.323V477.421C230.383 474.718 231.016 472.644 232.281 471.198C233.547 469.745 235.184 469.019 237.191 469.019C239.09 469.019 240.551 469.519 241.574 470.519C242.605 471.511 243.18 472.73 243.297 474.175V474.351H241.633V474.187C241.586 473.218 241.195 472.359 240.461 471.609C239.727 470.851 238.633 470.472 237.18 470.472C235.648 470.472 234.41 471.073 233.465 472.277C232.527 473.472 232.059 475.179 232.059 477.398V478.347C232.059 480.55 232.531 482.261 233.477 483.48C234.43 484.691 235.766 485.296 237.484 485.296C238.406 485.296 239.199 485.187 239.863 484.968C240.535 484.749 241.148 484.429 241.703 484.007V479.495H237.238V478.089H243.297V484.616C242.812 485.116 242.078 485.597 241.094 486.058C240.109 486.511 238.906 486.738 237.484 486.738C235.297 486.738 233.566 486.007 232.293 484.546C231.02 483.085 230.383 481.011 230.383 478.323ZM246.145 486.409V474.445H247.609L247.668 476.109H247.703C248.047 475.57 248.488 475.105 249.027 474.714C249.574 474.316 250.23 474.116 250.996 474.116C251.176 474.116 251.363 474.136 251.559 474.175C251.762 474.214 251.906 474.249 251.992 474.281V475.781C251.828 475.749 251.652 475.726 251.465 475.71C251.285 475.687 251.086 475.675 250.867 475.675C250.148 475.675 249.52 475.874 248.98 476.273C248.441 476.663 248.031 477.159 247.75 477.761V486.409H246.145ZM252.953 480.597V480.245C252.953 478.433 253.438 476.96 254.406 475.827C255.375 474.687 256.664 474.116 258.273 474.116C259.875 474.116 261.102 474.64 261.953 475.687C262.805 476.726 263.23 478.152 263.23 479.964V480.667H253.902V479.343H261.613V479.179C261.613 478.101 261.34 477.214 260.793 476.519C260.254 475.823 259.426 475.476 258.309 475.476C257.082 475.476 256.152 475.929 255.52 476.835C254.895 477.734 254.582 478.866 254.582 480.234V480.609C254.582 481.976 254.91 483.113 255.566 484.019C256.223 484.925 257.23 485.378 258.59 485.378C259.402 485.378 260.094 485.214 260.664 484.886C261.242 484.558 261.711 484.152 262.07 483.667L263.137 484.558C262.762 485.097 262.191 485.597 261.426 486.058C260.66 486.511 259.715 486.738 258.59 486.738C256.777 486.738 255.383 486.171 254.406 485.038C253.438 483.898 252.953 482.417 252.953 480.597ZM264.461 491.296V489.902C264.664 489.964 264.887 490.015 265.129 490.054C265.379 490.093 265.617 490.113 265.844 490.113C266.367 490.113 266.82 489.89 267.203 489.445C267.594 489.007 268.082 487.988 268.668 486.386V486.374L264.051 474.445H265.68L268.879 483.058C268.98 483.331 269.07 483.589 269.148 483.831C269.227 484.066 269.301 484.304 269.371 484.546H269.441C269.512 484.304 269.586 484.066 269.664 483.831C269.742 483.589 269.828 483.327 269.922 483.046L272.98 474.445H274.551L269.629 487.745C269.145 489.042 268.621 489.995 268.059 490.605C267.496 491.214 266.789 491.519 265.938 491.519C265.633 491.519 265.363 491.499 265.129 491.46C264.895 491.421 264.672 491.366 264.461 491.296Z" fill="#1D1D1D"/>
<path d="M169.094 745V727.938H174.32C176.117 727.938 177.48 728.402 178.41 729.332C179.34 730.254 179.805 731.477 179.805 733C179.805 734.523 179.34 735.754 178.41 736.691C177.48 737.629 176.117 738.098 174.32 738.098H170.746V745H169.094ZM170.746 736.691H174.309C175.723 736.691 176.715 736.34 177.285 735.637C177.855 734.934 178.141 734.055 178.141 733C178.141 731.953 177.855 731.082 177.285 730.387C176.715 729.691 175.727 729.344 174.32 729.344H170.746V736.691ZM181.223 741.578C181.223 740.383 181.691 739.453 182.629 738.789C183.566 738.125 184.781 737.793 186.273 737.793H189.273V736.762C189.273 735.926 189.059 735.266 188.629 734.781C188.207 734.289 187.484 734.043 186.461 734.043C185.43 734.043 184.68 734.254 184.211 734.676C183.75 735.09 183.52 735.602 183.52 736.211V736.34H181.926V736.188C181.926 735.227 182.336 734.406 183.156 733.727C183.984 733.047 185.102 732.707 186.508 732.707C187.898 732.707 188.977 733.043 189.742 733.715C190.508 734.379 190.891 735.391 190.891 736.75V742.188C190.891 742.703 190.93 743.188 191.008 743.641C191.086 744.094 191.199 744.488 191.348 744.824V745H189.812C189.688 744.789 189.578 744.516 189.484 744.18C189.398 743.844 189.34 743.508 189.309 743.172C189.02 743.703 188.535 744.176 187.855 744.59C187.184 745.004 186.316 745.211 185.254 745.211C184.098 745.211 183.137 744.906 182.371 744.297C181.605 743.68 181.223 742.773 181.223 741.578ZM182.828 741.496C182.828 742.27 183.059 742.863 183.52 743.277C183.98 743.684 184.68 743.887 185.617 743.887C186.57 743.887 187.418 743.578 188.16 742.961C188.902 742.344 189.273 741.672 189.273 740.945V738.988H186.484C185.281 738.988 184.371 739.215 183.754 739.668C183.137 740.113 182.828 740.723 182.828 741.496ZM193.469 741.438H195.086V741.543C195.086 742.363 195.367 742.973 195.93 743.371C196.5 743.77 197.262 743.969 198.215 743.969C199.176 743.969 199.922 743.777 200.453 743.395C200.992 743.004 201.262 742.488 201.262 741.848C201.262 741.215 201.035 740.746 200.582 740.441C200.137 740.129 199.25 739.812 197.922 739.492C196.602 739.18 195.59 738.758 194.887 738.227C194.184 737.688 193.832 736.945 193.832 736C193.832 735.031 194.223 734.242 195.004 733.633C195.793 733.016 196.852 732.707 198.18 732.707C199.5 732.707 200.562 733.027 201.367 733.668C202.172 734.309 202.574 735.176 202.574 736.27V736.363H200.98V736.258C200.98 735.562 200.742 735.023 200.266 734.641C199.797 734.258 199.102 734.066 198.18 734.066C197.258 734.066 196.57 734.234 196.117 734.57C195.664 734.898 195.438 735.344 195.438 735.906C195.438 736.445 195.664 736.871 196.117 737.184C196.578 737.496 197.465 737.809 198.777 738.121C200.105 738.441 201.117 738.871 201.812 739.41C202.516 739.949 202.867 740.73 202.867 741.754C202.867 742.793 202.48 743.648 201.707 744.32C200.934 744.992 199.77 745.328 198.215 745.328C196.668 745.328 195.488 744.988 194.676 744.309C193.871 743.629 193.469 742.707 193.469 741.543V741.438ZM204.766 741.438H206.383V741.543C206.383 742.363 206.664 742.973 207.227 743.371C207.797 743.77 208.559 743.969 209.512 743.969C210.473 743.969 211.219 743.777 211.75 743.395C212.289 743.004 212.559 742.488 212.559 741.848C212.559 741.215 212.332 740.746 211.879 740.441C211.434 740.129 210.547 739.812 209.219 739.492C207.898 739.18 206.887 738.758 206.184 738.227C205.48 737.688 205.129 736.945 205.129 736C205.129 735.031 205.52 734.242 206.301 733.633C207.09 733.016 208.148 732.707 209.477 732.707C210.797 732.707 211.859 733.027 212.664 733.668C213.469 734.309 213.871 735.176 213.871 736.27V736.363H212.277V736.258C212.277 735.562 212.039 735.023 211.562 734.641C211.094 734.258 210.398 734.066 209.477 734.066C208.555 734.066 207.867 734.234 207.414 734.57C206.961 734.898 206.734 735.344 206.734 735.906C206.734 736.445 206.961 736.871 207.414 737.184C207.875 737.496 208.762 737.809 210.074 738.121C211.402 738.441 212.414 738.871 213.109 739.41C213.812 739.949 214.164 740.73 214.164 741.754C214.164 742.793 213.777 743.648 213.004 744.32C212.23 744.992 211.066 745.328 209.512 745.328C207.965 745.328 206.785 744.988 205.973 744.309C205.168 743.629 204.766 742.707 204.766 741.543V741.438ZM216.871 745V733.035H218.488V745H216.871ZM216.602 729.145C216.602 728.848 216.695 728.602 216.883 728.406C217.07 728.203 217.336 728.102 217.68 728.102C218.031 728.102 218.297 728.203 218.477 728.406C218.664 728.602 218.758 728.848 218.758 729.145C218.758 729.449 218.664 729.703 218.477 729.906C218.289 730.102 218.023 730.199 217.68 730.199C217.336 730.199 217.07 730.098 216.883 729.895C216.695 729.691 216.602 729.441 216.602 729.145ZM221.172 739.188V738.836C221.172 737.023 221.676 735.551 222.684 734.418C223.691 733.277 225.043 732.707 226.738 732.707C228.434 732.707 229.785 733.277 230.793 734.418C231.801 735.551 232.305 737.023 232.305 738.836V739.188C232.305 741.008 231.797 742.488 230.781 743.629C229.773 744.762 228.426 745.328 226.738 745.328C225.043 745.328 223.691 744.762 222.684 743.629C221.676 742.488 221.172 741.008 221.172 739.188ZM222.812 738.824V739.211C222.812 740.562 223.145 741.691 223.809 742.598C224.473 743.504 225.449 743.957 226.738 743.957C228.02 743.957 228.992 743.508 229.656 742.609C230.32 741.703 230.652 740.566 230.652 739.199V738.824C230.652 737.465 230.32 736.336 229.656 735.438C229 734.531 228.027 734.078 226.738 734.078C225.449 734.078 224.473 734.531 223.809 735.438C223.145 736.336 222.812 737.465 222.812 738.824ZM234.918 745V733.035H236.383L236.441 734.746H236.477C236.922 734.137 237.477 733.66 238.141 733.316C238.812 732.973 239.562 732.801 240.391 732.801C241.594 732.801 242.547 733.137 243.25 733.809C243.961 734.473 244.316 735.586 244.316 737.148V745H242.699V737.148C242.699 736.094 242.457 735.34 241.973 734.887C241.488 734.426 240.797 734.195 239.898 734.195C239.133 734.195 238.461 734.398 237.883 734.805C237.305 735.211 236.852 735.727 236.523 736.352V745H234.918ZM253.258 745V727.938H258.402C260.145 727.938 261.473 728.383 262.387 729.273C263.309 730.164 263.77 731.355 263.77 732.848C263.77 734.34 263.309 735.539 262.387 736.445C261.473 737.352 260.145 737.805 258.402 737.805H254.91V745H253.258ZM254.91 736.422H258.402C259.77 736.422 260.727 736.086 261.273 735.414C261.828 734.734 262.105 733.879 262.105 732.848C262.105 731.816 261.828 730.973 261.273 730.316C260.727 729.66 259.77 729.332 258.402 729.332H254.91V736.422ZM262.691 745L258.555 737.113L260.266 736.926L264.578 745H262.691ZM265.961 739.188V738.836C265.961 737.023 266.445 735.551 267.414 734.418C268.383 733.277 269.672 732.707 271.281 732.707C272.883 732.707 274.109 733.23 274.961 734.277C275.812 735.316 276.238 736.742 276.238 738.555V739.258H266.91V737.934H274.621V737.77C274.621 736.691 274.348 735.805 273.801 735.109C273.262 734.414 272.434 734.066 271.316 734.066C270.09 734.066 269.16 734.52 268.527 735.426C267.902 736.324 267.59 737.457 267.59 738.824V739.199C267.59 740.566 267.918 741.703 268.574 742.609C269.23 743.516 270.238 743.969 271.598 743.969C272.41 743.969 273.102 743.805 273.672 743.477C274.25 743.148 274.719 742.742 275.078 742.258L276.145 743.148C275.77 743.688 275.199 744.188 274.434 744.648C273.668 745.102 272.723 745.328 271.598 745.328C269.785 745.328 268.391 744.762 267.414 743.629C266.445 742.488 265.961 741.008 265.961 739.188ZM277.938 739.188V738.824C277.938 737.074 278.387 735.633 279.285 734.5C280.191 733.367 281.406 732.801 282.93 732.801C283.828 732.801 284.594 732.961 285.227 733.281C285.867 733.602 286.371 734.016 286.738 734.523V727.211H288.355V745H286.891L286.832 743.324H286.785C286.449 743.84 285.945 744.285 285.273 744.66C284.609 745.035 283.832 745.223 282.941 745.223C281.402 745.223 280.184 744.656 279.285 743.523C278.387 742.391 277.938 740.945 277.938 739.188ZM279.578 739.199C279.578 740.543 279.879 741.656 280.48 742.539C281.09 743.422 282.027 743.863 283.293 743.863C284.145 743.863 284.867 743.645 285.461 743.207C286.055 742.77 286.48 742.27 286.738 741.707V736.293C286.48 735.73 286.051 735.238 285.449 734.816C284.855 734.387 284.137 734.172 283.293 734.172C282.027 734.164 281.09 734.602 280.48 735.484C279.879 736.367 279.578 737.48 279.578 738.824V739.199Z" fill="#FFFADE"/>
<path d="M168.191 1001.42V1001.11H169.844V1001.41C169.844 1002.55 170.211 1003.41 170.945 1004C171.688 1004.58 172.715 1004.88 174.027 1004.88C175.348 1004.88 176.359 1004.58 177.062 1003.98C177.766 1003.38 178.117 1002.61 178.117 1001.66C178.117 1000.8 177.809 1000.1 177.191 999.578C176.574 999.047 175.363 998.512 173.559 997.973C171.738 997.418 170.445 996.793 169.68 996.098C168.914 995.395 168.531 994.395 168.531 993.098C168.531 991.801 169.004 990.73 169.949 989.887C170.902 989.035 172.227 988.609 173.922 988.609C175.625 988.609 176.969 989.066 177.953 989.98C178.938 990.895 179.43 992.039 179.43 993.414V993.672H177.766V993.414C177.766 992.43 177.445 991.625 176.805 991C176.164 990.375 175.203 990.062 173.922 990.062C172.641 990.062 171.695 990.332 171.086 990.871C170.477 991.41 170.172 992.145 170.172 993.074C170.172 993.887 170.477 994.543 171.086 995.043C171.695 995.535 172.902 996.051 174.707 996.59C176.52 997.129 177.812 997.773 178.586 998.523C179.367 999.273 179.758 1000.32 179.758 1001.65C179.758 1003.03 179.242 1004.15 178.211 1005.03C177.188 1005.89 175.793 1006.33 174.027 1006.33C172.262 1006.33 170.848 1005.89 169.785 1005.02C168.723 1004.14 168.191 1002.94 168.191 1001.42ZM182.23 1001.89V994.035H183.836V1001.91C183.836 1002.96 184.078 1003.72 184.562 1004.17C185.055 1004.62 185.746 1004.84 186.637 1004.84C187.402 1004.84 188.074 1004.64 188.652 1004.24C189.23 1003.84 189.688 1003.32 190.023 1002.68V994.035H191.629V1006H190.164L190.105 1004.29H190.059C189.613 1004.89 189.055 1005.37 188.383 1005.72C187.719 1006.06 186.973 1006.23 186.145 1006.23C184.949 1006.23 183.996 1005.9 183.285 1005.24C182.582 1004.57 182.23 1003.45 182.23 1001.89ZM195.004 1006V994.035H196.469L196.527 995.746H196.562C197.008 995.137 197.562 994.66 198.227 994.316C198.898 993.973 199.648 993.801 200.477 993.801C201.68 993.801 202.633 994.137 203.336 994.809C204.047 995.473 204.402 996.586 204.402 998.148V1006H202.785V998.148C202.785 997.094 202.543 996.34 202.059 995.887C201.574 995.426 200.883 995.195 199.984 995.195C199.219 995.195 198.547 995.398 197.969 995.805C197.391 996.211 196.938 996.727 196.609 997.352V1006H195.004ZM208.328 1006V992.184C208.328 990.801 208.672 989.754 209.359 989.043C210.055 988.324 211.004 987.965 212.207 987.965C212.457 987.965 212.707 987.984 212.957 988.023C213.215 988.055 213.453 988.098 213.672 988.152L213.555 989.488C213.391 989.457 213.203 989.426 212.992 989.395C212.781 989.363 212.57 989.348 212.359 989.348C211.586 989.348 210.988 989.582 210.566 990.051C210.152 990.512 209.945 991.227 209.945 992.195V994.562V994.75V1006H208.328ZM206.195 995.324V994.035H208.926H209.336H212.723V995.324H206.195ZM214.363 1006V988.211H215.969V1006H214.363ZM218.617 1000.19V999.836C218.617 998.023 219.121 996.551 220.129 995.418C221.137 994.277 222.488 993.707 224.184 993.707C225.879 993.707 227.23 994.277 228.238 995.418C229.246 996.551 229.75 998.023 229.75 999.836V1000.19C229.75 1002.01 229.242 1003.49 228.227 1004.63C227.219 1005.76 225.871 1006.33 224.184 1006.33C222.488 1006.33 221.137 1005.76 220.129 1004.63C219.121 1003.49 218.617 1002.01 218.617 1000.19ZM220.258 999.824V1000.21C220.258 1001.56 220.59 1002.69 221.254 1003.6C221.918 1004.5 222.895 1004.96 224.184 1004.96C225.465 1004.96 226.438 1004.51 227.102 1003.61C227.766 1002.7 228.098 1001.57 228.098 1000.2V999.824C228.098 998.465 227.766 997.336 227.102 996.438C226.445 995.531 225.473 995.078 224.184 995.078C222.895 995.078 221.918 995.531 221.254 996.438C220.59 997.336 220.258 998.465 220.258 999.824ZM230.945 994.035H232.551L235.035 1002.53C235.121 1002.82 235.191 1003.09 235.246 1003.33C235.309 1003.56 235.371 1003.82 235.434 1004.09H235.504C235.559 1003.82 235.617 1003.56 235.68 1003.33C235.742 1003.09 235.82 1002.82 235.914 1002.53L238.68 994.035H240.156L242.934 1002.53C243.035 1002.82 243.117 1003.09 243.18 1003.33C243.242 1003.57 243.301 1003.82 243.355 1004.08H243.426C243.48 1003.81 243.539 1003.56 243.602 1003.32C243.664 1003.07 243.738 1002.81 243.824 1002.53L246.273 994.035H247.797L244.07 1006H242.652L239.898 997.516C239.812 997.242 239.727 996.961 239.641 996.672C239.562 996.383 239.488 996.102 239.418 995.828H239.348C239.27 996.102 239.188 996.383 239.102 996.672C239.023 996.961 238.941 997.242 238.855 997.516L236.09 1006H234.672L230.945 994.035ZM248.992 1000.19V999.836C248.992 998.023 249.477 996.551 250.445 995.418C251.414 994.277 252.703 993.707 254.312 993.707C255.914 993.707 257.141 994.23 257.992 995.277C258.844 996.316 259.27 997.742 259.27 999.555V1000.26H249.941V998.934H257.652V998.77C257.652 997.691 257.379 996.805 256.832 996.109C256.293 995.414 255.465 995.066 254.348 995.066C253.121 995.066 252.191 995.52 251.559 996.426C250.934 997.324 250.621 998.457 250.621 999.824V1000.2C250.621 1001.57 250.949 1002.7 251.605 1003.61C252.262 1004.52 253.27 1004.97 254.629 1004.97C255.441 1004.97 256.133 1004.8 256.703 1004.48C257.281 1004.15 257.75 1003.74 258.109 1003.26L259.176 1004.15C258.801 1004.69 258.23 1005.19 257.465 1005.65C256.699 1006.1 255.754 1006.33 254.629 1006.33C252.816 1006.33 251.422 1005.76 250.445 1004.63C249.477 1003.49 248.992 1002.01 248.992 1000.19ZM261.73 1006V994.035H263.195L263.254 995.699H263.289C263.633 995.16 264.074 994.695 264.613 994.305C265.16 993.906 265.816 993.707 266.582 993.707C266.762 993.707 266.949 993.727 267.145 993.766C267.348 993.805 267.492 993.84 267.578 993.871V995.371C267.414 995.34 267.238 995.316 267.051 995.301C266.871 995.277 266.672 995.266 266.453 995.266C265.734 995.266 265.105 995.465 264.566 995.863C264.027 996.254 263.617 996.75 263.336 997.352V1006H261.73ZM279.297 1006V999.391L273.496 988.938H275.383L279.461 996.566C279.586 996.793 279.699 997.008 279.801 997.211C279.91 997.406 280.012 997.613 280.105 997.832H280.188C280.281 997.613 280.379 997.406 280.48 997.211C280.582 997.008 280.695 996.793 280.82 996.566L284.934 988.938H286.75L280.949 999.391V1006H279.297ZM286.797 1000.19V999.836C286.797 998.023 287.281 996.551 288.25 995.418C289.219 994.277 290.508 993.707 292.117 993.707C293.719 993.707 294.945 994.23 295.797 995.277C296.648 996.316 297.074 997.742 297.074 999.555V1000.26H287.746V998.934H295.457V998.77C295.457 997.691 295.184 996.805 294.637 996.109C294.098 995.414 293.27 995.066 292.152 995.066C290.926 995.066 289.996 995.52 289.363 996.426C288.738 997.324 288.426 998.457 288.426 999.824V1000.2C288.426 1001.57 288.754 1002.7 289.41 1003.61C290.066 1004.52 291.074 1004.97 292.434 1004.97C293.246 1004.97 293.938 1004.8 294.508 1004.48C295.086 1004.15 295.555 1003.74 295.914 1003.26L296.98 1004.15C296.605 1004.69 296.035 1005.19 295.27 1005.65C294.504 1006.1 293.559 1006.33 292.434 1006.33C290.621 1006.33 289.227 1005.76 288.25 1004.63C287.281 1003.49 286.797 1002.01 286.797 1000.19ZM299.594 1006V988.211H301.199V1006H299.594ZM304.703 1006V988.211H306.309V1006H304.703ZM308.992 1000.19V999.836C308.992 998.023 309.496 996.551 310.504 995.418C311.512 994.277 312.863 993.707 314.559 993.707C316.254 993.707 317.605 994.277 318.613 995.418C319.621 996.551 320.125 998.023 320.125 999.836V1000.19C320.125 1002.01 319.617 1003.49 318.602 1004.63C317.594 1005.76 316.246 1006.33 314.559 1006.33C312.863 1006.33 311.512 1005.76 310.504 1004.63C309.496 1003.49 308.992 1002.01 308.992 1000.19ZM310.633 999.824V1000.21C310.633 1001.56 310.965 1002.69 311.629 1003.6C312.293 1004.5 313.27 1004.96 314.559 1004.96C315.84 1004.96 316.812 1004.51 317.477 1003.61C318.141 1002.7 318.473 1001.57 318.473 1000.2V999.824C318.473 998.465 318.141 997.336 317.477 996.438C316.82 995.531 315.848 995.078 314.559 995.078C313.27 995.078 312.293 995.531 311.629 996.438C310.965 997.336 310.633 998.465 310.633 999.824ZM321.32 994.035H322.926L325.41 1002.53C325.496 1002.82 325.566 1003.09 325.621 1003.33C325.684 1003.56 325.746 1003.82 325.809 1004.09H325.879C325.934 1003.82 325.992 1003.56 326.055 1003.33C326.117 1003.09 326.195 1002.82 326.289 1002.53L329.055 994.035H330.531L333.309 1002.53C333.41 1002.82 333.492 1003.09 333.555 1003.33C333.617 1003.57 333.676 1003.82 333.73 1004.08H333.801C333.855 1003.81 333.914 1003.56 333.977 1003.32C334.039 1003.07 334.113 1002.81 334.199 1002.53L336.648 994.035H338.172L334.445 1006H333.027L330.273 997.516C330.188 997.242 330.102 996.961 330.016 996.672C329.938 996.383 329.863 996.102 329.793 995.828H329.723C329.645 996.102 329.562 996.383 329.477 996.672C329.398 996.961 329.316 997.242 329.23 997.516L326.465 1006H325.047L321.32 994.035Z" fill="#1D1D1D"/>
<mask id="path-12-inside-4_8877_8842" fill="white">
<path d="M704 964L898 964L898 1118L704 1118L704 964Z"/>
</mask>
<path d="M704 964L898 964L898 1118L704 1118L704 964Z" fill="#1D1D1D"/>
<path d="M704 964L704 963L703 963L703 964L704 964ZM898 964L899 964L899 963L898 963L898 964ZM898 1118L898 1119L899 1119L899 1118L898 1118ZM704 1118L703 1118L703 1119L704 1119L704 1118ZM704 965L898 965L898 963L704 963L704 965ZM897 964L897 1118L899 1118L899 964L897 964ZM898 1117L704 1117L704 1119L898 1119L898 1117ZM705 1118L705 964L703 964L703 1118L705 1118Z" fill="black" mask="url(#path-12-inside-4_8877_8842)"/>
<mask id="path-14-inside-5_8877_8842" fill="white">
<path d="M704 700L898 700L898 964L704 964L704 700Z"/>
</mask>
<path d="M704 700L898 700L898 964L704 964L704 700Z" fill="white"/>
<path d="M704 700L704 699L703 699L703 700L704 700ZM898 700L899 700L899 699L898 699L898 700ZM898 964L898 965L899 965L899 964L898 964ZM704 964L703 964L703 965L704 965L704 964ZM704 701L898 701L898 699L704 699L704 701ZM897 700L897 964L899 964L899 700L897 700ZM898 963L704 963L704 965L898 965L898 963ZM705 964L705 700L703 700L703 964L705 964Z" fill="black" mask="url(#path-14-inside-5_8877_8842)"/>
<mask id="path-16-inside-6_8877_8842" fill="white">
<path d="M704 184L898 184L898 702L704 702L704 184Z"/>
</mask>
<path d="M704 184L898 184L898 702L704 702L704 184Z" fill="#FFFADE"/>
<path d="M704 184L704 183L703 183L703 184L704 184ZM898 184L899 184L899 183L898 183L898 184ZM898 702L898 703L899 703L899 702L898 702ZM704 702L703 702L703 703L704 703L704 702ZM704 185L898 185L898 183L704 183L704 185ZM897 184L897 702L899 702L899 184L897 184ZM898 701L704 701L704 703L898 703L898 701ZM705 702L705 184L703 184L703 702L705 702Z" fill="black" mask="url(#path-16-inside-6_8877_8842)"/>
<path d="M727.941 230V212.938H733.168C734.965 212.938 736.328 213.402 737.258 214.332C738.188 215.254 738.652 216.477 738.652 218C738.652 219.523 738.188 220.754 737.258 221.691C736.328 222.629 734.965 223.098 733.168 223.098H729.594V230H727.941ZM729.594 221.691H733.156C734.57 221.691 735.562 221.34 736.133 220.637C736.703 219.934 736.988 219.055 736.988 218C736.988 216.953 736.703 216.082 736.133 215.387C735.562 214.691 734.574 214.344 733.168 214.344H729.594V221.691ZM739.988 224.188V223.836C739.988 222.023 740.473 220.551 741.441 219.418C742.41 218.277 743.699 217.707 745.309 217.707C746.91 217.707 748.137 218.23 748.988 219.277C749.84 220.316 750.266 221.742 750.266 223.555V224.258H740.938V222.934H748.648V222.77C748.648 221.691 748.375 220.805 747.828 220.109C747.289 219.414 746.461 219.066 745.344 219.066C744.117 219.066 743.188 219.52 742.555 220.426C741.93 221.324 741.617 222.457 741.617 223.824V224.199C741.617 225.566 741.945 226.703 742.602 227.609C743.258 228.516 744.266 228.969 745.625 228.969C746.438 228.969 747.129 228.805 747.699 228.477C748.277 228.148 748.746 227.742 749.105 227.258L750.172 228.148C749.797 228.688 749.227 229.188 748.461 229.648C747.695 230.102 746.75 230.328 745.625 230.328C743.812 230.328 742.418 229.762 741.441 228.629C740.473 227.488 739.988 226.008 739.988 224.188ZM752.023 226.578C752.023 225.383 752.492 224.453 753.43 223.789C754.367 223.125 755.582 222.793 757.074 222.793H760.074V221.762C760.074 220.926 759.859 220.266 759.43 219.781C759.008 219.289 758.285 219.043 757.262 219.043C756.23 219.043 755.48 219.254 755.012 219.676C754.551 220.09 754.32 220.602 754.32 221.211V221.34H752.727V221.188C752.727 220.227 753.137 219.406 753.957 218.727C754.785 218.047 755.902 217.707 757.309 217.707C758.699 217.707 759.777 218.043 760.543 218.715C761.309 219.379 761.691 220.391 761.691 221.75V227.188C761.691 227.703 761.73 228.188 761.809 228.641C761.887 229.094 762 229.488 762.148 229.824V230H760.613C760.488 229.789 760.379 229.516 760.285 229.18C760.199 228.844 760.141 228.508 760.109 228.172C759.82 228.703 759.336 229.176 758.656 229.59C757.984 230.004 757.117 230.211 756.055 230.211C754.898 230.211 753.938 229.906 753.172 229.297C752.406 228.68 752.023 227.773 752.023 226.578ZM753.629 226.496C753.629 227.27 753.859 227.863 754.32 228.277C754.781 228.684 755.48 228.887 756.418 228.887C757.371 228.887 758.219 228.578 758.961 227.961C759.703 227.344 760.074 226.672 760.074 225.945V223.988H757.285C756.082 223.988 755.172 224.215 754.555 224.668C753.938 225.113 753.629 225.723 753.629 226.496ZM765.008 230V218.035H766.473L766.531 219.699H766.566C766.91 219.16 767.352 218.695 767.891 218.305C768.438 217.906 769.094 217.707 769.859 217.707C770.039 217.707 770.227 217.727 770.422 217.766C770.625 217.805 770.77 217.84 770.855 217.871V219.371C770.691 219.34 770.516 219.316 770.328 219.301C770.148 219.277 769.949 219.266 769.73 219.266C769.012 219.266 768.383 219.465 767.844 219.863C767.305 220.254 766.895 220.75 766.613 221.352V230H765.008ZM772.871 230V212.211H774.477V230H772.871Z" fill="#1D1D1D"/>
<path d="M730.715 745.105L726.578 727.938H728.266L731.336 741.461C731.391 741.703 731.438 741.914 731.477 742.094C731.516 742.273 731.555 742.496 731.594 742.762H731.688C731.719 742.496 731.754 742.273 731.793 742.094C731.832 741.914 731.883 741.703 731.945 741.461L735.414 727.938H737.195L740.734 741.461C740.797 741.703 740.844 741.914 740.875 742.094C740.914 742.273 740.953 742.496 740.992 742.762H741.086C741.125 742.496 741.16 742.273 741.191 742.094C741.23 741.914 741.277 741.703 741.332 741.461L744.344 727.938H745.973L741.848 745.105H740.184L736.609 731.5C736.555 731.266 736.5 731.023 736.445 730.773C736.391 730.523 736.344 730.277 736.305 730.035H736.223C736.184 730.277 736.137 730.523 736.082 730.773C736.035 731.023 735.98 731.266 735.918 731.5L732.367 745.105H730.715ZM748.223 745V727.211H749.828V734.688C750.266 734.109 750.816 733.652 751.48 733.316C752.152 732.973 752.906 732.801 753.742 732.801C754.906 732.801 755.844 733.137 756.555 733.809C757.266 734.473 757.621 735.586 757.621 737.148V745H756.004V737.148C756.004 736.086 755.758 735.328 755.266 734.875C754.781 734.422 754.094 734.195 753.203 734.195C752.438 734.195 751.766 734.398 751.188 734.805C750.609 735.203 750.156 735.715 749.828 736.34V745H748.223ZM760.949 745V733.035H762.566V745H760.949ZM760.68 729.145C760.68 728.848 760.773 728.602 760.961 728.406C761.148 728.203 761.414 728.102 761.758 728.102C762.109 728.102 762.375 728.203 762.555 728.406C762.742 728.602 762.836 728.848 762.836 729.145C762.836 729.449 762.742 729.703 762.555 729.906C762.367 730.102 762.102 730.199 761.758 730.199C761.414 730.199 761.148 730.098 760.961 729.895C760.773 729.691 760.68 729.441 760.68 729.145ZM764.336 734.324V733.035H771.121V734.324H764.336ZM766.609 741.965V733.785V733.527V729.73H768.227V741.988C768.227 742.699 768.352 743.199 768.602 743.488C768.859 743.77 769.254 743.91 769.785 743.91C770.012 743.91 770.227 743.891 770.43 743.852C770.641 743.805 770.844 743.742 771.039 743.664V745.035C770.859 745.113 770.625 745.18 770.336 745.234C770.047 745.297 769.723 745.328 769.363 745.328C768.527 745.328 767.859 745.066 767.359 744.543C766.859 744.012 766.609 743.152 766.609 741.965ZM772.562 739.188V738.836C772.562 737.023 773.047 735.551 774.016 734.418C774.984 733.277 776.273 732.707 777.883 732.707C779.484 732.707 780.711 733.23 781.562 734.277C782.414 735.316 782.84 736.742 782.84 738.555V739.258H773.512V737.934H781.223V737.77C781.223 736.691 780.949 735.805 780.402 735.109C779.863 734.414 779.035 734.066 777.918 734.066C776.691 734.066 775.762 734.52 775.129 735.426C774.504 736.324 774.191 737.457 774.191 738.824V739.199C774.191 740.566 774.52 741.703 775.176 742.609C775.832 743.516 776.84 743.969 778.199 743.969C779.012 743.969 779.703 743.805 780.273 743.477C780.852 743.148 781.32 742.742 781.68 742.258L782.746 743.148C782.371 743.688 781.801 744.188 781.035 744.648C780.27 745.102 779.324 745.328 778.199 745.328C776.387 745.328 774.992 744.762 774.016 743.629C773.047 742.488 772.562 741.008 772.562 739.188Z" fill="#1D1D1D"/>
<path d="M727.938 1006V988.938H733.164C734.789 988.938 736.059 989.289 736.973 989.992C737.895 990.688 738.355 991.805 738.355 993.344C738.355 994.32 738.117 995.121 737.641 995.746C737.172 996.363 736.574 996.785 735.848 997.012V997.059C736.73 997.277 737.445 997.738 737.992 998.441C738.547 999.145 738.824 1000.07 738.824 1001.21C738.824 1002.74 738.348 1003.92 737.395 1004.76C736.441 1005.59 735.156 1006 733.539 1006H727.938ZM729.566 1004.59H733.539C734.789 1004.59 735.707 1004.29 736.293 1003.69C736.879 1003.09 737.172 1002.26 737.172 1001.21C737.172 1000.16 736.879 999.332 736.293 998.723C735.707 998.113 734.789 997.809 733.539 997.809H729.566V1004.59ZM729.566 996.426H733.188C734.438 996.426 735.336 996.152 735.883 995.605C736.438 995.059 736.715 994.305 736.715 993.344C736.715 992.352 736.434 991.605 735.871 991.105C735.309 990.598 734.406 990.344 733.164 990.344H729.566V996.426ZM741.672 1006V988.211H743.277V1006H741.672ZM746.02 1002.58C746.02 1001.38 746.488 1000.45 747.426 999.789C748.363 999.125 749.578 998.793 751.07 998.793H754.07V997.762C754.07 996.926 753.855 996.266 753.426 995.781C753.004 995.289 752.281 995.043 751.258 995.043C750.227 995.043 749.477 995.254 749.008 995.676C748.547 996.09 748.316 996.602 748.316 997.211V997.34H746.723V997.188C746.723 996.227 747.133 995.406 747.953 994.727C748.781 994.047 749.898 993.707 751.305 993.707C752.695 993.707 753.773 994.043 754.539 994.715C755.305 995.379 755.688 996.391 755.688 997.75V1003.19C755.688 1003.7 755.727 1004.19 755.805 1004.64C755.883 1005.09 755.996 1005.49 756.145 1005.82V1006H754.609C754.484 1005.79 754.375 1005.52 754.281 1005.18C754.195 1004.84 754.137 1004.51 754.105 1004.17C753.816 1004.7 753.332 1005.18 752.652 1005.59C751.98 1006 751.113 1006.21 750.051 1006.21C748.895 1006.21 747.934 1005.91 747.168 1005.3C746.402 1004.68 746.02 1003.77 746.02 1002.58ZM747.625 1002.5C747.625 1003.27 747.855 1003.86 748.316 1004.28C748.777 1004.68 749.477 1004.89 750.414 1004.89C751.367 1004.89 752.215 1004.58 752.957 1003.96C753.699 1003.34 754.07 1002.67 754.07 1001.95V999.988H751.281C750.078 999.988 749.168 1000.21 748.551 1000.67C747.934 1001.11 747.625 1001.72 747.625 1002.5ZM758.242 1000.19V999.836C758.242 998.008 758.723 996.531 759.684 995.406C760.652 994.273 761.977 993.707 763.656 993.707C765.234 993.707 766.426 994.129 767.23 994.973C768.035 995.816 768.438 996.793 768.438 997.902V997.984H766.867V997.902C766.867 997.113 766.609 996.445 766.094 995.898C765.586 995.352 764.777 995.078 763.668 995.078C762.395 995.078 761.445 995.523 760.82 996.414C760.195 997.305 759.883 998.441 759.883 999.824V1000.21C759.883 1001.58 760.195 1002.71 760.82 1003.61C761.445 1004.51 762.395 1004.96 763.668 1004.96C764.777 1004.96 765.59 1004.68 766.105 1004.14C766.621 1003.58 766.879 1002.91 766.879 1002.12V1002.03H768.449V1002.12C768.449 1003.22 768.043 1004.2 767.23 1005.05C766.426 1005.9 765.238 1006.33 763.668 1006.33C761.98 1006.33 760.652 1005.76 759.684 1004.63C758.723 1003.5 758.242 1002.02 758.242 1000.19ZM770.91 1006V988.211H772.516V1000.02L778.188 994.035H780.109L772.516 1001.98V1006H770.91ZM778.727 1006L773.887 999.508L774.953 998.395L780.66 1006H778.727Z" fill="#FFFADE"/>
<rect x="0.5" y="-0.5" width="110" height="102.75" transform="matrix(1 -5.3022e-09 -2.58049e-07 -1 1021 804.75)" fill="#AF4408" stroke="black"/>
<mask id="path-22-inside-7_8877_8842" fill="white">
<path d="M1021 909.5L1132 909.5L1132 805.75L1021 805.75L1021 909.5Z"/>
</mask>
<path d="M1021 909.5L1132 909.5L1132 805.75L1021 805.75L1021 909.5Z" fill="#F07C3A"/>
<path d="M1021 909.5L1021 910.5L1020 910.5L1020 909.5L1021 909.5ZM1132 909.5L1133 909.5L1133 910.5L1132 910.5L1132 909.5ZM1021 908.5L1132 908.5L1132 910.5L1021 910.5L1021 908.5ZM1131 909.5L1131 805.75L1133 805.75L1133 909.5L1131 909.5ZM1022 805.75L1022 909.5L1020 909.5L1020 805.75L1022 805.75Z" fill="black" mask="url(#path-22-inside-7_8877_8842)"/>
<mask id="path-24-inside-8_8877_8842" fill="white">
<path d="M1021 1013.25L1132 1013.25L1132 909.5L1021 909.5L1021 1013.25Z"/>
</mask>
<path d="M1021 1013.25L1132 1013.25L1132 909.5L1021 909.5L1021 1013.25Z" fill="#FBD5B3"/>
<path d="M1021 1013.25L1021 1014.25L1020 1014.25L1020 1013.25L1021 1013.25ZM1132 1013.25L1133 1013.25L1133 1014.25L1132 1014.25L1132 1013.25ZM1021 1012.25L1132 1012.25L1132 1014.25L1021 1014.25L1021 1012.25ZM1131 1013.25L1131 909.5L1133 909.5L1133 1013.25L1131 1013.25ZM1022 909.5L1022 1013.25L1020 1013.25L1020 909.5L1022 909.5Z" fill="black" mask="url(#path-24-inside-8_8877_8842)"/>
<mask id="path-26-inside-9_8877_8842" fill="white">
<path d="M1021 1117L1132 1117L1132 1013.25L1021 1013.25L1021 1117Z"/>
</mask>
<path d="M1021 1117L1132 1117L1132 1013.25L1021 1013.25L1021 1117Z" fill="#FFF1E4"/>
<path d="M1021 1117L1021 1118L1020 1118L1020 1117L1021 1117ZM1132 1117L1133 1117L1133 1118L1132 1118L1132 1117ZM1021 1116L1132 1116L1132 1118L1021 1118L1021 1116ZM1131 1117L1131 1013.25L1133 1013.25L1133 1117L1131 1117ZM1022 1013.25L1022 1117L1020 1117L1020 1013.25L1022 1013.25Z" fill="black" mask="url(#path-26-inside-9_8877_8842)"/>
<rect x="0.5" y="-0.5" width="109" height="102.75" transform="matrix(1 -5.3022e-09 -2.58049e-07 -1 1131 804.75)" fill="#BF880A" stroke="black"/>
<mask id="path-29-inside-10_8877_8842" fill="white">
<path d="M1131 909.5L1241 909.5L1241 805.75L1131 805.75L1131 909.5Z"/>
</mask>
<path d="M1131 909.5L1241 909.5L1241 805.75L1131 805.75L1131 909.5Z" fill="#F3B119"/>
<path d="M1131 909.5L1131 910.5L1130 910.5L1130 909.5L1131 909.5ZM1241 909.5L1242 909.5L1242 910.5L1241 910.5L1241 909.5ZM1131 908.5L1241 908.5L1241 910.5L1131 910.5L1131 908.5ZM1240 909.5L1240 805.75L1242 805.75L1242 909.5L1240 909.5ZM1132 805.75L1132 909.5L1130 909.5L1130 805.75L1132 805.75Z" fill="black" mask="url(#path-29-inside-10_8877_8842)"/>
<mask id="path-31-inside-11_8877_8842" fill="white">
<path d="M1131 1013.25L1241 1013.25L1241 909.5L1131 909.5L1131 1013.25Z"/>
</mask>
<path d="M1131 1013.25L1241 1013.25L1241 909.5L1131 909.5L1131 1013.25Z" fill="#FBE6B6"/>
<path d="M1131 1013.25L1131 1014.25L1130 1014.25L1130 1013.25L1131 1013.25ZM1241 1013.25L1242 1013.25L1242 1014.25L1241 1014.25L1241 1013.25ZM1131 1012.25L1241 1012.25L1241 1014.25L1131 1014.25L1131 1012.25ZM1240 1013.25L1240 909.5L1242 909.5L1242 1013.25L1240 1013.25ZM1132 909.5L1132 1013.25L1130 1013.25L1130 909.5L1132 909.5Z" fill="black" mask="url(#path-31-inside-11_8877_8842)"/>
<mask id="path-33-inside-12_8877_8842" fill="white">
<path d="M1131 1117L1241 1117L1241 1013.25L1131 1013.25L1131 1117Z"/>
</mask>
<path d="M1131 1117L1241 1117L1241 1013.25L1131 1013.25L1131 1117Z" fill="#FFF5DF"/>
<path d="M1131 1117L1131 1118L1130 1118L1130 1117L1131 1117ZM1241 1117L1242 1117L1242 1118L1241 1118L1241 1117ZM1131 1116L1241 1116L1241 1118L1131 1118L1131 1116ZM1240 1117L1240 1013.25L1242 1013.25L1242 1117L1240 1117ZM1132 1013.25L1132 1117L1130 1117L1130 1013.25L1132 1013.25Z" fill="black" mask="url(#path-33-inside-12_8877_8842)"/>
<rect x="0.5" y="-0.5" width="109" height="102.75" transform="matrix(1 -5.3022e-09 -2.58049e-07 -1 1240 804.75)" fill="#4A431D" stroke="black"/>
<mask id="path-36-inside-13_8877_8842" fill="white">
<path d="M1240 909.5L1350 909.5L1350 805.75L1240 805.75L1240 909.5Z"/>
</mask>
<path d="M1240 909.5L1350 909.5L1350 805.75L1240 805.75L1240 909.5Z" fill="#BEAD5B"/>
<path d="M1240 909.5L1240 910.5L1239 910.5L1239 909.5L1240 909.5ZM1350 909.5L1351 909.5L1351 910.5L1350 910.5L1350 909.5ZM1240 908.5L1350 908.5L1350 910.5L1240 910.5L1240 908.5ZM1349 909.5L1349 805.75L1351 805.75L1351 909.5L1349 909.5ZM1241 805.75L1241 909.5L1239 909.5L1239 805.75L1241 805.75Z" fill="black" mask="url(#path-36-inside-13_8877_8842)"/>
<mask id="path-38-inside-14_8877_8842" fill="white">
<path d="M1240 1013.25L1350 1013.25L1350 909.5L1240 909.5L1240 1013.25Z"/>
</mask>
<path d="M1240 1013.25L1350 1013.25L1350 909.5L1240 909.5L1240 1013.25Z" fill="#E2D699"/>
<path d="M1240 1013.25L1240 1014.25L1239 1014.25L1239 1013.25L1240 1013.25ZM1350 1013.25L1351 1013.25L1351 1014.25L1350 1014.25L1350 1013.25ZM1240 1012.25L1350 1012.25L1350 1014.25L1240 1014.25L1240 1012.25ZM1349 1013.25L1349 909.5L1351 909.5L1351 1013.25L1349 1013.25ZM1241 909.5L1241 1013.25L1239 1013.25L1239 909.5L1241 909.5Z" fill="black" mask="url(#path-38-inside-14_8877_8842)"/>
<mask id="path-40-inside-15_8877_8842" fill="white">
<path d="M1240 1117L1350 1117L1350 1013.25L1240 1013.25L1240 1117Z"/>
</mask>
<path d="M1240 1117L1350 1117L1350 1013.25L1240 1013.25L1240 1117Z" fill="#F8F4DF"/>
<path d="M1240 1117L1240 1118L1239 1118L1239 1117L1240 1117ZM1350 1117L1351 1117L1351 1118L1350 1118L1350 1117ZM1240 1116L1350 1116L1350 1118L1240 1118L1240 1116ZM1349 1117L1349 1013.25L1351 1013.25L1351 1117L1349 1117ZM1241 1013.25L1241 1117L1239 1117L1239 1013.25L1241 1013.25Z" fill="black" mask="url(#path-40-inside-15_8877_8842)"/>
<rect x="0.5" y="-0.5" width="110" height="102.75" transform="matrix(1 -1.5553e-08 -2.49677e-07 -1 1349 804.75)" fill="#594C2A" stroke="black"/>
<mask id="path-43-inside-16_8877_8842" fill="white">
<path d="M1349 909.5L1460 909.5L1460 805.75L1349 805.75L1349 909.5Z"/>
</mask>
<path d="M1349 909.5L1460 909.5L1460 805.75L1349 805.75L1349 909.5Z" fill="#857856"/>
<path d="M1349 909.5L1349 910.5L1348 910.5L1348 909.5L1349 909.5ZM1460 909.5L1461 909.5L1461 910.5L1460 910.5L1460 909.5ZM1349 908.5L1460 908.5L1460 910.5L1349 910.5L1349 908.5ZM1459 909.5L1459 805.75L1461 805.75L1461 909.5L1459 909.5ZM1350 805.75L1350 909.5L1348 909.5L1348 805.75L1350 805.75Z" fill="black" mask="url(#path-43-inside-16_8877_8842)"/>
<mask id="path-45-inside-17_8877_8842" fill="white">
<path d="M1349 1013.25L1460 1013.25L1460 909.5L1349 909.5L1349 1013.25Z"/>
</mask>
<path d="M1349 1013.25L1460 1013.25L1460 909.5L1349 909.5L1349 1013.25Z" fill="#DAD1BA"/>
<path d="M1349 1013.25L1349 1014.25L1348 1014.25L1348 1013.25L1349 1013.25ZM1460 1013.25L1461 1013.25L1461 1014.25L1460 1014.25L1460 1013.25ZM1349 1012.25L1460 1012.25L1460 1014.25L1349 1014.25L1349 1012.25ZM1459 1013.25L1459 909.5L1461 909.5L1461 1013.25L1459 1013.25ZM1350 909.5L1350 1013.25L1348 1013.25L1348 909.5L1350 909.5Z" fill="black" mask="url(#path-45-inside-17_8877_8842)"/>
<mask id="path-47-inside-18_8877_8842" fill="white">
<path d="M1349 1117L1460 1117L1460 1013.25L1349 1013.25L1349 1117Z"/>
</mask>
<path d="M1349 1117L1460 1117L1460 1013.25L1349 1013.25L1349 1117Z" fill="#F0EBDF"/>
<path d="M1349 1117L1349 1118L1348 1118L1348 1117L1349 1117ZM1460 1117L1461 1117L1461 1118L1460 1118L1460 1117ZM1349 1116L1460 1116L1460 1118L1349 1118L1349 1116ZM1459 1117L1459 1013.25L1461 1013.25L1461 1117L1459 1117ZM1350 1013.25L1350 1117L1348 1117L1348 1013.25L1350 1013.25Z" fill="black" mask="url(#path-47-inside-18_8877_8842)"/>
<path d="M152.296 107.184C157.16 107.184 159.88 110.256 159.88 114.928C159.88 119.28 157.512 122.576 152.392 122.576C150.952 122.576 150.408 122.256 150.408 122.896V126.896C150.408 129.072 152.2 128.304 152.2 129.52C152.2 129.808 151.976 130.096 151.528 130.096C150.984 130.096 150.12 130 149 130C148.008 130 147.336 130.096 146.824 130.096C146.376 130.096 146.184 129.808 146.184 129.52C146.184 128.4 147.592 129.072 147.592 126.928V110.416C147.592 108.272 146.184 108.976 146.184 107.856C146.184 107.536 146.44 107.248 146.856 107.248C147.4 107.248 148.008 107.344 149 107.344C149.992 107.344 151.176 107.184 152.296 107.184ZM152.104 120.912C155.336 120.912 156.744 118.32 156.744 114.96C156.744 111.28 155.08 108.88 152.264 108.88C150.408 108.88 150.408 109.936 150.408 110.768V119.568C150.408 120.528 150.888 120.912 152.104 120.912ZM170.099 113.904C171.123 113.904 171.923 114.416 171.923 115.184C171.923 115.664 171.699 116.56 171.347 117.776C171.187 118.288 170.995 118.608 170.611 118.608C170.259 118.608 170.067 118.352 169.875 117.712C169.587 116.656 169.267 116.432 168.787 116.432C167.507 116.432 165.683 118.96 165.683 123.536V126.64C165.683 129.264 167.443 128.368 167.443 129.456C167.443 129.744 167.219 130.096 166.803 130.096C166.227 130.096 165.427 130 164.371 130C163.443 130 162.771 130.096 162.259 130.096C161.811 130.096 161.651 129.744 161.651 129.456C161.651 128.464 163.091 129.264 163.091 126.64V118.544C163.091 116.624 161.459 117.584 161.459 116.464C161.459 115.984 161.907 115.696 163.315 114.864C164.691 114.096 164.883 114.032 165.139 114.032C165.619 114.032 165.683 114.544 165.683 115.088V118.224C166.483 115.696 168.147 113.904 170.099 113.904ZM175.577 110.416C174.745 110.416 174.009 109.904 174.009 108.88C174.009 107.632 175.097 106.416 176.313 106.416C177.145 106.416 177.849 106.992 177.849 107.984C177.849 109.264 176.729 110.416 175.577 110.416ZM174.009 130.096C173.561 130.096 173.401 129.744 173.401 129.456C173.401 128.336 174.873 129.264 174.873 126.64V118.512C174.873 116.56 173.209 117.616 173.209 116.464C173.209 115.952 173.657 115.696 174.969 114.928C176.409 114.128 176.633 114.032 176.889 114.032C177.273 114.032 177.433 114.352 177.433 114.8V126.64C177.433 129.264 178.937 128.336 178.937 129.456C178.937 129.712 178.745 130.096 178.329 130.096C177.785 130.096 177.113 130 176.153 130C175.193 130 174.553 130.096 174.009 130.096ZM200.229 126.32C200.549 129.36 201.925 128.432 201.925 129.456C201.925 129.904 201.605 130.096 201.221 130.096C200.581 130.096 200.101 130 199.045 130C197.989 130 197.541 130.096 196.901 130.096C196.453 130.096 196.165 129.84 196.165 129.424C196.165 128.496 197.637 129.136 197.637 127.12C197.637 126.992 197.637 126.512 197.605 126.224L196.997 120.56C196.773 118.224 196.485 116.208 194.853 116.208C193.285 116.208 192.453 118.032 192.453 121.008V126.64C192.453 129.264 193.957 128.464 193.957 129.456C193.957 129.744 193.765 130.096 193.381 130.096C192.837 130.096 192.165 130 191.173 130C190.213 130 189.605 130.096 189.093 130.096C188.677 130.096 188.453 129.744 188.453 129.456C188.453 128.464 189.861 129.264 189.861 126.64V120.56C189.861 118.512 189.573 116.208 187.717 116.208C186.405 116.208 184.965 117.712 184.965 120.944V126.64C184.965 129.264 186.437 128.464 186.437 129.456C186.437 129.712 186.277 130.096 185.861 130.096C185.317 130.096 184.645 130 183.685 130C182.725 130 182.085 130.096 181.541 130.096C181.125 130.096 180.933 129.744 180.933 129.456C180.933 128.464 182.405 129.264 182.405 126.64V118.544C182.405 116.624 180.741 117.584 180.741 116.464C180.741 116.016 181.189 115.696 182.629 114.864C184.005 114.096 184.197 114.032 184.421 114.032C184.901 114.032 184.965 114.512 184.965 115.088V116.88C185.605 115.312 186.981 113.936 188.805 113.936C190.597 113.936 191.557 115.28 192.037 116.976H192.069C192.837 115.12 193.989 113.936 195.812 113.936C198.628 113.936 199.333 117.04 199.525 119.216L200.229 126.32ZM215.948 128.336C216.236 128.4 216.364 128.592 216.364 128.848C216.364 129.392 215.404 130.256 214.124 130.256C213.228 130.256 212.172 129.552 211.756 128.048C210.988 129.36 209.356 130.352 207.468 130.352C204.876 130.352 202.988 128.304 202.988 125.616C202.988 122.832 204.972 120.624 208.236 120.624C209.26 120.624 210.092 120.848 210.956 121.264L210.892 120.784C210.732 119.056 210.38 116.016 207.98 116.016C206.956 116.016 206.124 116.592 205.132 117.648C204.812 118 204.556 118.096 204.364 118.096C204.044 118.096 203.788 117.872 203.788 117.488C203.788 117.2 203.916 116.88 204.172 116.496C205.324 114.8 207.02 113.936 208.844 113.936C212.3 113.936 213.068 117.072 213.388 119.92L213.964 125.392C214.188 127.248 214.316 127.92 215.948 128.336ZM208.236 128.56C209.708 128.56 210.988 127.536 211.468 126.224L211.116 122.96C210.316 122.384 209.388 122.192 208.62 122.192C206.86 122.192 205.644 123.28 205.644 125.296C205.644 127.152 206.7 128.56 208.236 128.56ZM225.943 113.904C226.967 113.904 227.767 114.416 227.767 115.184C227.767 115.664 227.543 116.56 227.191 117.776C227.031 118.288 226.839 118.608 226.455 118.608C226.103 118.608 225.911 118.352 225.719 117.712C225.431 116.656 225.111 116.432 224.631 116.432C223.351 116.432 221.527 118.96 221.527 123.536V126.64C221.527 129.264 223.287 128.368 223.287 129.456C223.287 129.744 223.063 130.096 222.647 130.096C222.071 130.096 221.271 130 220.215 130C219.287 130 218.615 130.096 218.103 130.096C217.655 130.096 217.495 129.744 217.495 129.456C217.495 128.464 218.935 129.264 218.935 126.64V118.544C218.935 116.624 217.303 117.584 217.303 116.464C217.303 115.984 217.751 115.696 219.159 114.864C220.535 114.096 220.727 114.032 220.983 114.032C221.463 114.032 221.527 114.544 221.527 115.088V118.224C222.327 115.696 223.991 113.904 225.943 113.904ZM241.435 114.16C241.787 114.16 242.043 114.32 242.043 114.704C242.043 115.664 240.795 115.376 240.283 117.136L235.899 131.376C234.971 134.416 233.723 136.112 231.611 136.112C230.619 136.112 229.915 135.792 229.627 135.376C229.339 134.896 228.859 132.944 228.859 132.08C228.859 131.568 229.083 131.248 229.499 131.248C229.851 131.248 230.043 131.504 230.235 131.888C230.971 133.296 231.451 134 232.219 134C233.019 134 233.819 132.88 234.459 130.544L234.587 130.096L230.267 117.424C229.563 115.408 228.411 115.664 228.411 114.704C228.411 114.32 228.731 114.16 229.051 114.16C229.627 114.16 230.331 114.256 231.419 114.256C232.379 114.256 233.051 114.16 233.595 114.16C234.043 114.16 234.299 114.352 234.299 114.768C234.299 115.792 232.955 115.408 232.955 116.848C232.955 117.264 233.083 117.872 233.307 118.576L235.899 126.256L238.107 118.576C238.331 117.808 238.459 117.328 238.459 116.752C238.459 115.44 237.179 115.792 237.179 114.768C237.179 114.352 237.435 114.16 237.883 114.16C238.363 114.16 238.971 114.256 239.611 114.256C240.251 114.256 240.891 114.16 241.435 114.16ZM257.125 113.84C260.165 113.84 262.405 117.2 262.405 121.936C262.405 127.152 259.749 130.416 256.517 130.416C254.693 130.416 253.541 129.648 252.805 128.784V132.368C252.805 134.96 254.533 134.064 254.533 135.184C254.533 135.44 254.341 135.792 253.925 135.792C253.317 135.792 252.581 135.696 251.525 135.696C250.565 135.696 249.924 135.792 249.413 135.792C248.965 135.792 248.805 135.472 248.805 135.184C248.805 134.128 250.213 134.96 250.213 132.368V118.544C250.213 116.624 248.581 117.584 248.581 116.464C248.581 116.016 249.029 115.696 250.469 114.864C251.812 114.096 252.005 114.032 252.261 114.032C252.741 114.032 252.805 114.512 252.805 115.088V116.592C253.669 114.928 255.141 113.84 257.125 113.84ZM256.293 128.816C258.181 128.816 259.653 126.736 259.653 122.768C259.653 118.832 258.181 115.856 256.036 115.856C254.373 115.856 252.805 117.712 252.805 121.072V123.696C252.805 126.992 254.309 128.816 256.293 128.816ZM277.261 128.336C277.549 128.4 277.677 128.592 277.677 128.848C277.677 129.392 276.717 130.256 275.437 130.256C274.541 130.256 273.485 129.552 273.069 128.048C272.301 129.36 270.669 130.352 268.781 130.352C266.189 130.352 264.301 128.304 264.301 125.616C264.301 122.832 266.285 120.624 269.549 120.624C270.573 120.624 271.405 120.848 272.269 121.264L272.205 120.784C272.045 119.056 271.693 116.016 269.293 116.016C268.269 116.016 267.437 116.592 266.445 117.648C266.125 118 265.869 118.096 265.677 118.096C265.357 118.096 265.101 117.872 265.101 117.488C265.101 117.2 265.229 116.88 265.485 116.496C266.637 114.8 268.333 113.936 270.157 113.936C273.613 113.936 274.381 117.072 274.701 119.92L275.277 125.392C275.501 127.248 275.629 127.92 277.261 128.336ZM269.549 128.56C271.021 128.56 272.301 127.536 272.781 126.224L272.429 122.96C271.629 122.384 270.701 122.192 269.933 122.192C268.173 122.192 266.957 123.28 266.957 125.296C266.957 127.152 268.013 128.56 269.549 128.56ZM279.192 130.096C278.743 130.096 278.584 129.744 278.584 129.456C278.584 128.336 280.024 129.264 280.024 126.64V110.288C280.024 108.336 278.392 109.36 278.392 108.208C278.392 107.792 278.68 107.536 280.152 106.704C281.56 105.904 281.816 105.808 282.072 105.808C282.424 105.808 282.616 106.064 282.616 106.576V126.64C282.616 129.264 284.088 128.336 284.088 129.456C284.088 129.712 283.928 130.096 283.48 130.096C282.968 130.096 282.264 130 281.336 130C280.376 130 279.704 130.096 279.192 130.096ZM296.969 126.128C297.257 126.128 297.513 126.32 297.513 126.736C297.513 126.992 297.481 127.248 297.289 127.568C296.489 129.328 294.537 130.576 292.393 130.576C288.905 130.576 285.993 127.6 285.993 121.648C285.993 117.232 288.297 113.68 292.009 113.68C294.793 113.68 297.097 116.304 297.097 120.144C297.097 120.624 296.937 121.04 296.457 121.168L288.905 123.248C289.481 126.512 291.081 128.528 293.193 128.528C294.409 128.528 295.497 127.728 296.297 126.544C296.553 126.192 296.681 126.128 296.969 126.128ZM291.593 115.408C289.417 115.408 288.649 117.712 288.649 120.336C288.649 120.816 288.681 121.296 288.713 121.744L293.577 120.368C294.185 120.176 294.441 120.016 294.441 119.408C294.441 117.104 293.033 115.408 291.593 115.408ZM307.593 126.832C307.945 126.832 308.169 127.088 308.169 127.472C308.169 127.792 308.009 128.176 307.689 128.624C306.793 129.84 305.513 130.352 304.169 130.352C302.345 130.352 300.777 129.232 300.777 127.6C300.777 126.576 300.809 124.784 300.809 122.416V115.888H299.368C298.921 115.888 298.633 115.6 298.633 115.216C298.633 114.864 298.825 114.64 299.273 114.384C300.713 113.488 301.417 112.464 301.993 109.328C302.121 108.624 302.312 108.24 302.793 108.24C303.209 108.24 303.401 108.528 303.401 109.296V114.288H307.273C307.593 114.288 307.753 114.448 307.753 114.672C307.753 114.896 307.72 115.216 307.689 115.376C307.625 115.792 307.433 115.888 307.177 115.888H303.401V125.968C303.401 127.824 304.137 128.464 305.001 128.464C305.897 128.464 306.505 127.664 306.921 127.248C307.113 126.992 307.369 126.832 307.593 126.832ZM317.561 126.832C317.913 126.832 318.137 127.088 318.137 127.472C318.137 127.792 317.977 128.176 317.657 128.624C316.761 129.84 315.481 130.352 314.137 130.352C312.313 130.352 310.745 129.232 310.745 127.6C310.745 126.576 310.777 124.784 310.777 122.416V115.888H309.337C308.889 115.888 308.601 115.6 308.601 115.216C308.601 114.864 308.793 114.64 309.241 114.384C310.681 113.488 311.385 112.464 311.961 109.328C312.089 108.624 312.281 108.24 312.761 108.24C313.177 108.24 313.369 108.528 313.369 109.296V114.288H317.241C317.561 114.288 317.721 114.448 317.721 114.672C317.721 114.896 317.689 115.216 317.657 115.376C317.593 115.792 317.401 115.888 317.145 115.888H313.369V125.968C313.369 127.824 314.105 128.464 314.969 128.464C315.865 128.464 316.473 127.664 316.889 127.248C317.081 126.992 317.337 126.832 317.561 126.832ZM330.094 126.128C330.382 126.128 330.638 126.32 330.638 126.736C330.638 126.992 330.606 127.248 330.414 127.568C329.614 129.328 327.662 130.576 325.518 130.576C322.03 130.576 319.118 127.6 319.118 121.648C319.118 117.232 321.422 113.68 325.134 113.68C327.918 113.68 330.222 116.304 330.222 120.144C330.222 120.624 330.062 121.04 329.582 121.168L322.03 123.248C322.606 126.512 324.206 128.528 326.318 128.528C327.534 128.528 328.622 127.728 329.422 126.544C329.678 126.192 329.806 126.128 330.094 126.128ZM324.718 115.408C322.542 115.408 321.774 117.712 321.774 120.336C321.774 120.816 321.806 121.296 321.838 121.744L326.702 120.368C327.31 120.176 327.566 120.016 327.566 119.408C327.566 117.104 326.158 115.408 324.718 115.408Z" fill="#1D1D1D"/>
<line x1="145" y1="144.5" x2="898" y2="144.5" stroke="black"/>
<path d="M1035.53 638.792C1035.88 638.792 1036.07 639.048 1036.07 639.4C1036.07 639.88 1035.91 640.488 1035.46 641.768L1034.54 644.424C1034.28 645.128 1034.06 645.672 1033.61 645.672C1032.97 645.672 1032.9 645 1032.1 645H1025C1024.01 645 1023.27 645.096 1022.89 645.096C1022.38 645.096 1022.18 644.84 1022.18 644.488C1022.18 643.4 1023.59 644.072 1023.59 641.928V625.416C1023.59 623.272 1022.18 623.976 1022.18 622.888C1022.18 622.536 1022.41 622.248 1022.89 622.248C1023.27 622.248 1024.01 622.344 1025 622.344H1031.4C1032.1 622.344 1032.17 621.672 1032.78 621.672C1033.26 621.672 1033.35 621.992 1033.8 623.24L1034.6 625.544C1035.02 626.664 1035.24 627.304 1035.24 627.688C1035.24 628.072 1034.92 628.296 1034.63 628.296C1034.28 628.296 1034.09 628.04 1033.8 627.592C1031.69 624.168 1030.89 623.976 1029.64 623.976H1028.04C1026.92 623.976 1026.41 624.136 1026.41 625.544V632.008C1026.41 632.584 1026.66 632.68 1027.05 632.68H1028.9C1030.22 632.68 1030.06 630.28 1030.95 630.28C1031.34 630.28 1031.53 630.536 1031.53 631.144C1031.53 631.88 1031.46 632.68 1031.46 633.48C1031.46 634.312 1031.53 635.144 1031.53 635.848C1031.53 636.488 1031.34 636.744 1030.95 636.744C1030.06 636.744 1030.25 634.28 1028.9 634.28H1027.05C1026.66 634.28 1026.41 634.408 1026.41 634.984V641.832C1026.41 642.888 1026.54 643.4 1028.04 643.4H1030.31C1032.07 643.4 1033.1 642.088 1034.6 639.56C1034.92 639.048 1035.18 638.792 1035.53 638.792ZM1047.86 642.152C1048.88 643.88 1049.97 643.752 1049.97 644.52C1049.97 644.872 1049.68 645.096 1049.36 645.096C1048.72 645.096 1048.15 645 1047.16 645C1046.16 645 1045.46 645.096 1044.92 645.096C1044.47 645.096 1044.21 644.904 1044.21 644.456C1044.21 643.72 1045.27 643.976 1045.27 642.888C1045.27 642.472 1045.14 642.184 1044.76 641.544L1042.93 638.472L1040.95 641.672C1040.63 642.216 1040.44 642.6 1040.44 642.984C1040.44 643.944 1041.59 643.688 1041.59 644.456C1041.59 644.904 1041.27 645.096 1040.85 645.096C1040.37 645.096 1039.7 645 1039.06 645C1038.39 645 1037.81 645.096 1037.27 645.096C1036.92 645.096 1036.63 644.904 1036.63 644.552C1036.63 643.688 1037.81 643.88 1038.74 642.376L1042.04 637.064L1039.16 632.104C1038.16 630.376 1037.08 630.504 1037.08 629.736C1037.08 629.352 1037.36 629.16 1037.68 629.16C1038.32 629.16 1038.9 629.256 1039.89 629.256C1040.92 629.256 1041.59 629.16 1042.1 629.16C1042.52 629.16 1042.8 629.32 1042.8 629.768C1042.8 630.536 1041.81 630.28 1041.81 631.304C1041.81 631.688 1042.07 632.264 1042.36 632.744L1043.76 635.24L1045.46 632.584C1045.75 632.136 1045.97 631.688 1045.97 631.24C1045.97 630.376 1044.85 630.568 1044.85 629.768C1044.85 629.352 1045.14 629.16 1045.52 629.16C1046.07 629.16 1046.64 629.256 1047.25 629.256C1047.89 629.256 1048.53 629.16 1049.11 629.16C1049.43 629.16 1049.75 629.32 1049.75 629.704C1049.75 630.568 1048.6 630.344 1047.67 631.816L1044.66 636.648L1047.86 642.152ZM1059.44 641.832C1059.79 641.832 1060.01 642.088 1060.01 642.472C1060.01 642.792 1059.85 643.176 1059.53 643.624C1058.64 644.84 1057.36 645.352 1056.01 645.352C1054.19 645.352 1052.62 644.232 1052.62 642.6C1052.62 641.576 1052.65 639.784 1052.65 637.416V630.888H1051.21C1050.76 630.888 1050.48 630.6 1050.48 630.216C1050.48 629.864 1050.67 629.64 1051.12 629.384C1052.56 628.488 1053.26 627.464 1053.84 624.328C1053.96 623.624 1054.16 623.24 1054.64 623.24C1055.05 623.24 1055.24 623.528 1055.24 624.296V629.288H1059.12C1059.44 629.288 1059.6 629.448 1059.6 629.672C1059.6 629.896 1059.56 630.216 1059.53 630.376C1059.47 630.792 1059.28 630.888 1059.02 630.888H1055.24V640.968C1055.24 642.824 1055.98 643.464 1056.84 643.464C1057.74 643.464 1058.35 642.664 1058.76 642.248C1058.96 641.992 1059.21 641.832 1059.44 641.832ZM1071.97 641.128C1072.26 641.128 1072.51 641.32 1072.51 641.736C1072.51 641.992 1072.48 642.248 1072.29 642.568C1071.49 644.328 1069.54 645.576 1067.39 645.576C1063.9 645.576 1060.99 642.6 1060.99 636.648C1060.99 632.232 1063.3 628.68 1067.01 628.68C1069.79 628.68 1072.1 631.304 1072.1 635.144C1072.1 635.624 1071.94 636.04 1071.46 636.168L1063.9 638.248C1064.48 641.512 1066.08 643.528 1068.19 643.528C1069.41 643.528 1070.5 642.728 1071.3 641.544C1071.55 641.192 1071.68 641.128 1071.97 641.128ZM1066.59 630.408C1064.42 630.408 1063.65 632.712 1063.65 635.336C1063.65 635.816 1063.68 636.296 1063.71 636.744L1068.58 635.368C1069.18 635.176 1069.44 635.016 1069.44 634.408C1069.44 632.104 1068.03 630.408 1066.59 630.408ZM1086.69 641.32C1087.01 644.36 1088.38 643.432 1088.38 644.456C1088.38 644.904 1088.06 645.096 1087.68 645.096C1087.04 645.096 1086.56 645 1085.5 645C1084.45 645 1084 645.096 1083.36 645.096C1082.91 645.096 1082.62 644.84 1082.62 644.424C1082.62 643.496 1084.1 644.136 1084.1 642.12C1084.1 641.992 1084.1 641.512 1084.06 641.224L1083.49 635.56C1083.23 633.224 1082.91 631.208 1081.28 631.208C1079.68 631.208 1078.46 633 1078.46 635.976V641.64C1078.46 644.264 1079.97 643.464 1079.97 644.456C1079.97 644.712 1079.78 645.096 1079.36 645.096C1078.82 645.096 1078.14 645 1077.18 645C1076.22 645 1075.58 645.096 1075.04 645.096C1074.59 645.096 1074.43 644.744 1074.43 644.456C1074.43 643.464 1075.9 644.264 1075.9 641.64V633.544C1075.9 631.624 1074.24 632.584 1074.24 631.464C1074.24 631.016 1074.69 630.696 1076.13 629.864C1077.5 629.096 1077.7 629.032 1077.92 629.032C1078.4 629.032 1078.46 629.512 1078.46 630.088V631.848C1079.26 630.056 1080.54 628.936 1082.27 628.936C1085.12 628.936 1085.79 632.04 1086.02 634.216L1086.69 641.32ZM1101.87 640.872C1101.87 642.792 1103.6 642.216 1103.6 643.24C1103.6 643.752 1103.12 644.072 1101.65 644.712C1100.4 645.224 1100.11 645.352 1099.79 645.352C1099.31 645.352 1099.28 644.68 1099.28 644.264V642.728C1098.42 644.296 1096.98 645.416 1094.99 645.416C1092.15 645.416 1089.65 642.408 1089.65 637.384C1089.65 632.36 1092.24 628.84 1095.67 628.84C1097.2 628.84 1098.42 629.544 1099.28 630.568V625.256C1099.28 623.304 1097.36 624.36 1097.36 623.144C1097.36 622.696 1097.81 622.44 1099.41 621.64C1100.85 620.904 1101.04 620.808 1101.33 620.808C1101.71 620.808 1101.87 621.192 1101.87 621.576V640.872ZM1096.11 643.368C1097.68 643.368 1099.28 641.704 1099.28 638.44V636.2C1099.28 632.52 1097.39 630.376 1095.73 630.376C1093.59 630.376 1092.4 633.128 1092.4 636.488C1092.4 640.84 1094.26 643.368 1096.11 643.368ZM1116.28 641.128C1116.57 641.128 1116.83 641.32 1116.83 641.736C1116.83 641.992 1116.79 642.248 1116.6 642.568C1115.8 644.328 1113.85 645.576 1111.71 645.576C1108.22 645.576 1105.31 642.6 1105.31 636.648C1105.31 632.232 1107.61 628.68 1111.32 628.68C1114.11 628.68 1116.41 631.304 1116.41 635.144C1116.41 635.624 1116.25 636.04 1115.77 636.168L1108.22 638.248C1108.79 641.512 1110.39 643.528 1112.51 643.528C1113.72 643.528 1114.81 642.728 1115.61 641.544C1115.87 641.192 1115.99 641.128 1116.28 641.128ZM1110.91 630.408C1108.73 630.408 1107.96 632.712 1107.96 635.336C1107.96 635.816 1107.99 636.296 1108.03 636.744L1112.89 635.368C1113.5 635.176 1113.75 635.016 1113.75 634.408C1113.75 632.104 1112.35 630.408 1110.91 630.408ZM1130.91 640.872C1130.91 642.792 1132.63 642.216 1132.63 643.24C1132.63 643.752 1132.15 644.072 1130.68 644.712C1129.43 645.224 1129.15 645.352 1128.83 645.352C1128.35 645.352 1128.31 644.68 1128.31 644.264V642.728C1127.45 644.296 1126.01 645.416 1124.03 645.416C1121.18 645.416 1118.68 642.408 1118.68 637.384C1118.68 632.36 1121.27 628.84 1124.7 628.84C1126.23 628.84 1127.45 629.544 1128.31 630.568V625.256C1128.31 623.304 1126.39 624.36 1126.39 623.144C1126.39 622.696 1126.84 622.44 1128.44 621.64C1129.88 620.904 1130.07 620.808 1130.36 620.808C1130.75 620.808 1130.91 621.192 1130.91 621.576V640.872ZM1125.15 643.368C1126.71 643.368 1128.31 641.704 1128.31 638.44V636.2C1128.31 632.52 1126.43 630.376 1124.76 630.376C1122.62 630.376 1121.43 633.128 1121.43 636.488C1121.43 640.84 1123.29 643.368 1125.15 643.368ZM1148.69 628.84C1151.73 628.84 1153.97 632.2 1153.97 636.936C1153.97 642.152 1151.31 645.416 1148.08 645.416C1146.26 645.416 1145.1 644.648 1144.37 643.784V647.368C1144.37 649.96 1146.1 649.064 1146.1 650.184C1146.1 650.44 1145.9 650.792 1145.49 650.792C1144.88 650.792 1144.14 650.696 1143.09 650.696C1142.13 650.696 1141.49 650.792 1140.98 650.792C1140.53 650.792 1140.37 650.472 1140.37 650.184C1140.37 649.128 1141.78 649.96 1141.78 647.368V633.544C1141.78 631.624 1140.14 632.584 1140.14 631.464C1140.14 631.016 1140.59 630.696 1142.03 629.864C1143.38 629.096 1143.57 629.032 1143.82 629.032C1144.3 629.032 1144.37 629.512 1144.37 630.088V631.592C1145.23 629.928 1146.7 628.84 1148.69 628.84ZM1147.86 643.816C1149.74 643.816 1151.22 641.736 1151.22 637.768C1151.22 633.832 1149.74 630.856 1147.6 630.856C1145.94 630.856 1144.37 632.712 1144.37 636.072V638.696C1144.37 641.992 1145.87 643.816 1147.86 643.816ZM1168.82 643.336C1169.11 643.4 1169.24 643.592 1169.24 643.848C1169.24 644.392 1168.28 645.256 1167 645.256C1166.1 645.256 1165.05 644.552 1164.63 643.048C1163.86 644.36 1162.23 645.352 1160.34 645.352C1157.75 645.352 1155.86 643.304 1155.86 640.616C1155.86 637.832 1157.85 635.624 1161.11 635.624C1162.14 635.624 1162.97 635.848 1163.83 636.264L1163.77 635.784C1163.61 634.056 1163.26 631.016 1160.86 631.016C1159.83 631.016 1159 631.592 1158.01 632.648C1157.69 633 1157.43 633.096 1157.24 633.096C1156.92 633.096 1156.66 632.872 1156.66 632.488C1156.66 632.2 1156.79 631.88 1157.05 631.496C1158.2 629.8 1159.9 628.936 1161.72 628.936C1165.18 628.936 1165.94 632.072 1166.26 634.92L1166.84 640.392C1167.06 642.248 1167.19 642.92 1168.82 643.336ZM1161.11 643.56C1162.58 643.56 1163.86 642.536 1164.34 641.224L1163.99 637.96C1163.19 637.384 1162.26 637.192 1161.5 637.192C1159.74 637.192 1158.52 638.28 1158.52 640.296C1158.52 642.152 1159.58 643.56 1161.11 643.56ZM1170.75 645.096C1170.31 645.096 1170.15 644.744 1170.15 644.456C1170.15 643.336 1171.59 644.264 1171.59 641.64V625.288C1171.59 623.336 1169.95 624.36 1169.95 623.208C1169.95 622.792 1170.24 622.536 1171.71 621.704C1173.12 620.904 1173.38 620.808 1173.63 620.808C1173.99 620.808 1174.18 621.064 1174.18 621.576V641.64C1174.18 644.264 1175.65 643.336 1175.65 644.456C1175.65 644.712 1175.49 645.096 1175.04 645.096C1174.53 645.096 1173.83 645 1172.9 645C1171.94 645 1171.27 645.096 1170.75 645.096ZM1188.53 641.128C1188.82 641.128 1189.08 641.32 1189.08 641.736C1189.08 641.992 1189.04 642.248 1188.85 642.568C1188.05 644.328 1186.1 645.576 1183.96 645.576C1180.47 645.576 1177.56 642.6 1177.56 636.648C1177.56 632.232 1179.86 628.68 1183.57 628.68C1186.36 628.68 1188.66 631.304 1188.66 635.144C1188.66 635.624 1188.5 636.04 1188.02 636.168L1180.47 638.248C1181.04 641.512 1182.64 643.528 1184.76 643.528C1185.97 643.528 1187.06 642.728 1187.86 641.544C1188.12 641.192 1188.24 641.128 1188.53 641.128ZM1183.16 630.408C1180.98 630.408 1180.21 632.712 1180.21 635.336C1180.21 635.816 1180.24 636.296 1180.28 636.744L1185.14 635.368C1185.75 635.176 1186 635.016 1186 634.408C1186 632.104 1184.6 630.408 1183.16 630.408ZM1199.16 641.832C1199.51 641.832 1199.73 642.088 1199.73 642.472C1199.73 642.792 1199.57 643.176 1199.25 643.624C1198.36 644.84 1197.08 645.352 1195.73 645.352C1193.91 645.352 1192.34 644.232 1192.34 642.6C1192.34 641.576 1192.37 639.784 1192.37 637.416V630.888H1190.93C1190.48 630.888 1190.2 630.6 1190.2 630.216C1190.2 629.864 1190.39 629.64 1190.84 629.384C1192.28 628.488 1192.98 627.464 1193.56 624.328C1193.68 623.624 1193.88 623.24 1194.36 623.24C1194.77 623.24 1194.96 623.528 1194.96 624.296V629.288H1198.84C1199.16 629.288 1199.32 629.448 1199.32 629.672C1199.32 629.896 1199.28 630.216 1199.25 630.376C1199.19 630.792 1199 630.888 1198.74 630.888H1194.96V640.968C1194.96 642.824 1195.7 643.464 1196.56 643.464C1197.46 643.464 1198.07 642.664 1198.48 642.248C1198.68 641.992 1198.93 641.832 1199.16 641.832ZM1209.12 641.832C1209.48 641.832 1209.7 642.088 1209.7 642.472C1209.7 642.792 1209.54 643.176 1209.22 643.624C1208.32 644.84 1207.04 645.352 1205.7 645.352C1203.88 645.352 1202.31 644.232 1202.31 642.6C1202.31 641.576 1202.34 639.784 1202.34 637.416V630.888H1200.9C1200.45 630.888 1200.16 630.6 1200.16 630.216C1200.16 629.864 1200.36 629.64 1200.8 629.384C1202.24 628.488 1202.95 627.464 1203.52 624.328C1203.65 623.624 1203.84 623.24 1204.32 623.24C1204.74 623.24 1204.93 623.528 1204.93 624.296V629.288H1208.8C1209.12 629.288 1209.28 629.448 1209.28 629.672C1209.28 629.896 1209.25 630.216 1209.22 630.376C1209.16 630.792 1208.96 630.888 1208.71 630.888H1204.93V640.968C1204.93 642.824 1205.67 643.464 1206.53 643.464C1207.43 643.464 1208.04 642.664 1208.45 642.248C1208.64 641.992 1208.9 641.832 1209.12 641.832ZM1221.66 641.128C1221.94 641.128 1222.2 641.32 1222.2 641.736C1222.2 641.992 1222.17 642.248 1221.98 642.568C1221.18 644.328 1219.22 645.576 1217.08 645.576C1213.59 645.576 1210.68 642.6 1210.68 636.648C1210.68 632.232 1212.98 628.68 1216.7 628.68C1219.48 628.68 1221.78 631.304 1221.78 635.144C1221.78 635.624 1221.62 636.04 1221.14 636.168L1213.59 638.248C1214.17 641.512 1215.77 643.528 1217.88 643.528C1219.1 643.528 1220.18 642.728 1220.98 641.544C1221.24 641.192 1221.37 641.128 1221.66 641.128ZM1216.28 630.408C1214.1 630.408 1213.34 632.712 1213.34 635.336C1213.34 635.816 1213.37 636.296 1213.4 636.744L1218.26 635.368C1218.87 635.176 1219.13 635.016 1219.13 634.408C1219.13 632.104 1217.72 630.408 1216.28 630.408Z" fill="#1D1D1D"/>
<line x1="1021" y1="659.5" x2="1460" y2="659.5" stroke="black"/>
</svg>
