<svg width="1854" height="1236" viewBox="0 0 1854 1236" fill="none" xmlns="http://www.w3.org/2000/svg">
<g clip-path="url(#clip0_1_10537)">
<rect width="1854" height="1236" fill="#E0BA41" style="fill:#E0BA41;fill:color(display-p3 0.8784 0.7294 0.2549);fill-opacity:1;"/>
<path d="M989.074 1127.57L1193.77 457.644H1382.66L1587.36 1127.57H1457.09L1274.72 536.733H1298.92L1119.34 1127.57H989.074ZM1111.89 988.004V869.836H1465.47V988.004H1111.89ZM1763.79 1141.53C1727.81 1141.53 1697.26 1134.71 1672.14 1121.06C1647.33 1107.1 1628.41 1088.65 1615.38 1065.7C1602.66 1042.44 1596.31 1016.85 1596.31 988.934C1596.31 965.673 1599.87 944.427 1607.01 925.198C1614.14 905.969 1625.62 889.065 1641.43 874.488C1657.56 859.601 1679.12 847.195 1706.1 837.27C1724.71 830.447 1746.88 824.399 1772.63 819.126C1798.37 813.853 1827.52 808.891 1860.09 804.239C1892.66 799.276 1928.48 793.849 1967.56 787.956L1921.97 813.078C1921.97 783.303 1914.83 761.438 1900.56 747.481C1886.3 733.524 1862.42 726.546 1828.92 726.546C1810.31 726.546 1790.93 731.043 1770.77 740.037C1750.61 749.032 1736.49 765.004 1728.43 787.956L1613.98 751.668C1626.7 710.108 1650.58 676.301 1685.63 650.248C1720.68 624.195 1768.44 611.169 1828.92 611.169C1873.27 611.169 1912.66 617.992 1947.09 631.639C1981.51 645.286 2007.57 668.857 2025.25 702.354C2035.17 720.963 2041.06 739.572 2042.92 758.181C2044.79 776.79 2045.72 797.57 2045.72 820.522V1127.57H1934.99V1024.29L1950.81 1045.69C1926.31 1079.5 1899.79 1104 1871.26 1119.2C1843.03 1134.09 1807.21 1141.53 1763.79 1141.53ZM1790.77 1041.97C1814.03 1041.97 1833.57 1037.94 1849.39 1029.87C1865.52 1021.5 1878.23 1012.04 1887.54 1001.5C1897.15 990.95 1903.67 982.111 1907.08 974.977C1913.59 961.331 1917.31 945.513 1918.24 927.524C1919.48 909.225 1920.1 894.028 1920.1 881.932L1957.32 891.236C1919.79 897.439 1889.4 902.712 1866.14 907.054C1842.88 911.086 1824.11 914.808 1809.85 918.22C1795.58 921.631 1783.02 925.353 1772.16 929.385C1759.76 934.348 1749.68 939.775 1741.92 945.668C1734.48 951.251 1728.9 957.454 1725.17 964.277C1721.76 971.101 1720.06 978.699 1720.06 987.073C1720.06 998.549 1722.85 1008.47 1728.43 1016.85C1734.32 1024.91 1742.54 1031.11 1753.09 1035.46C1763.63 1039.8 1776.19 1041.97 1790.77 1041.97Z" fill="black" style="fill:black;fill-opacity:1;"/>
<path d="M109.36 680.115V594.124H123.931L152.356 651.212L180.781 594.124H195.351V680.115H180.183V628.759L155.222 680.115H149.489L124.528 628.759V680.115H109.36ZM218.085 680.115L244.36 594.124H268.605L294.88 680.115H278.16L254.751 604.275H257.856L234.806 680.115H218.085ZM233.85 662.2V647.032H279.235V662.2H233.85ZM317.527 680.115V594.124H334.008L371.39 651.451V594.124H387.872V680.115H371.39L334.008 622.787V680.115H317.527ZM416.478 680.115V594.124H452.785C453.621 594.124 454.736 594.163 456.129 594.243C457.562 594.283 458.836 594.402 459.951 594.601C465.087 595.398 469.287 597.09 472.551 599.677C475.855 602.265 478.284 605.529 479.837 609.471C481.389 613.372 482.165 617.731 482.165 622.549C482.165 629.754 480.374 635.925 476.791 641.06C473.208 646.156 467.595 649.301 459.951 650.496L452.785 650.973H432.721V680.115H416.478ZM464.967 680.115L448.008 645.121L464.728 641.896L483.36 680.115H464.967ZM432.721 635.805H452.069C452.905 635.805 453.82 635.766 454.816 635.686C455.811 635.606 456.726 635.447 457.562 635.208C459.752 634.611 461.444 633.616 462.638 632.222C463.833 630.789 464.649 629.217 465.087 627.505C465.564 625.753 465.803 624.101 465.803 622.549C465.803 620.996 465.564 619.364 465.087 617.652C464.649 615.9 463.833 614.328 462.638 612.934C461.444 611.501 459.752 610.486 457.562 609.889C456.726 609.65 455.811 609.491 454.816 609.411C453.82 609.331 452.905 609.292 452.069 609.292H432.721V635.805ZM545.336 681.906C536.737 681.906 529.312 680.035 523.062 676.293C516.851 672.551 512.054 667.316 508.67 660.588C505.326 653.86 503.654 646.037 503.654 637.119C503.654 628.202 505.326 620.379 508.67 613.651C512.054 606.923 516.851 601.688 523.062 597.946C529.312 594.203 536.737 592.332 545.336 592.332C553.935 592.332 561.34 594.203 567.55 597.946C573.8 601.688 578.597 606.923 581.942 613.651C585.325 620.379 587.017 628.202 587.017 637.119C587.017 646.037 585.325 653.86 581.942 660.588C578.597 667.316 573.8 672.551 567.55 676.293C561.34 680.035 553.935 681.906 545.336 681.906ZM545.336 666.619C550.79 666.699 555.328 665.524 558.951 663.096C562.574 660.667 565.281 657.224 567.072 652.765C568.904 648.306 569.819 643.091 569.819 637.119C569.819 631.148 568.904 625.972 567.072 621.593C565.281 617.214 562.574 613.81 558.951 611.382C555.328 608.953 550.79 607.699 545.336 607.619C539.882 607.54 535.343 608.714 531.72 611.143C528.098 613.571 525.371 617.015 523.539 621.474C521.748 625.932 520.852 631.148 520.852 637.119C520.852 643.091 521.748 648.266 523.539 652.645C525.371 657.025 528.098 660.428 531.72 662.857C535.343 665.285 539.882 666.539 545.336 666.619ZM610.881 680.115V594.124H647.189C648.025 594.124 649.14 594.163 650.533 594.243C651.966 594.283 653.24 594.402 654.355 594.601C659.49 595.398 663.69 597.09 666.955 599.677C670.259 602.265 672.688 605.529 674.24 609.471C675.793 613.372 676.569 617.731 676.569 622.549C676.569 627.366 675.773 631.745 674.18 635.686C672.628 639.587 670.199 642.832 666.895 645.42C663.631 648.007 659.451 649.699 654.355 650.496C653.24 650.655 651.966 650.774 650.533 650.854C649.1 650.934 647.985 650.973 647.189 650.973H627.124V680.115H610.881ZM627.124 635.805H646.472C647.308 635.805 648.224 635.766 649.219 635.686C650.214 635.606 651.13 635.447 651.966 635.208C654.156 634.611 655.848 633.616 657.042 632.222C658.236 630.789 659.052 629.217 659.49 627.505C659.968 625.753 660.207 624.101 660.207 622.549C660.207 620.996 659.968 619.364 659.49 617.652C659.052 615.9 658.236 614.328 657.042 612.934C655.848 611.501 654.156 610.486 651.966 609.889C651.13 609.65 650.214 609.491 649.219 609.411C648.224 609.331 647.308 609.292 646.472 609.292H627.124V635.805ZM700.502 680.115V594.124H756.635V609.292H716.745V627.684H749.469V642.852H716.745V664.947H756.635V680.115H700.502Z" fill="black" style="fill:black;fill-opacity:1;"/>
<path d="M109.36 827.016V741.025H165.493V756.193H125.603V774.586H158.327V789.754H125.603V811.848H165.493V827.016H109.36ZM184.584 827.016L213.486 783.543L185.42 741.025H205.365L223.638 769.689L241.672 741.025H261.737L233.67 783.543L262.453 827.016H242.508L223.638 797.397L204.648 827.016H184.584ZM308.663 827.016V756.193H281.552V741.025H352.017V756.193H324.906V827.016H308.663ZM373.557 827.016V741.025H409.864C410.7 741.025 411.815 741.065 413.208 741.145C414.642 741.185 415.916 741.304 417.03 741.503C422.166 742.299 426.366 743.991 429.63 746.579C432.935 749.167 435.363 752.431 436.916 756.372C438.468 760.274 439.245 764.633 439.245 769.45C439.245 776.656 437.453 782.827 433.87 787.962C430.287 793.058 424.674 796.203 417.03 797.397L409.864 797.875H389.8V827.016H373.557ZM422.046 827.016L405.087 792.023L421.808 788.798L440.439 827.016H422.046ZM389.8 782.707H409.148C409.984 782.707 410.899 782.667 411.895 782.588C412.89 782.508 413.806 782.349 414.642 782.11C416.831 781.513 418.523 780.517 419.717 779.124C420.912 777.691 421.728 776.118 422.166 774.407C422.644 772.655 422.882 771.003 422.882 769.45C422.882 767.898 422.644 766.265 422.166 764.553C421.728 762.802 420.912 761.229 419.717 759.836C418.523 758.403 416.831 757.387 414.642 756.79C413.806 756.551 412.89 756.392 411.895 756.313C410.899 756.233 409.984 756.193 409.148 756.193H389.8V782.707ZM459.539 827.016L485.814 741.025H510.058L536.333 827.016H519.613L496.204 751.177H499.31L476.259 827.016H459.539ZM475.304 809.102V793.934H520.688V809.102H475.304ZM594.833 827.016V741.025H629.229C635.36 741.025 640.316 742.259 644.098 744.728C647.881 747.156 650.647 750.222 652.399 753.924C654.151 757.626 655.027 761.369 655.027 765.151C655.027 769.968 653.932 773.969 651.742 777.153C649.592 780.338 646.626 782.468 642.844 783.543V780.557C648.219 781.672 652.24 784.16 654.907 788.022C657.614 791.883 658.968 796.203 658.968 800.98C658.968 806.116 658.012 810.634 656.101 814.536C654.23 818.437 651.364 821.503 647.502 823.732C643.641 825.922 638.784 827.016 632.932 827.016H594.833ZM611.314 811.729H631.26C633.449 811.729 635.4 811.271 637.112 810.356C638.824 809.4 640.157 808.086 641.113 806.414C642.108 804.702 642.606 802.692 642.606 800.383C642.606 798.353 642.188 796.541 641.352 794.949C640.516 793.356 639.242 792.102 637.53 791.187C635.858 790.231 633.768 789.754 631.26 789.754H611.314V811.729ZM611.314 774.586H628.99C630.822 774.586 632.454 774.267 633.887 773.63C635.32 772.993 636.455 772.018 637.291 770.704C638.127 769.351 638.545 767.619 638.545 765.509C638.545 762.881 637.729 760.672 636.097 758.88C634.464 757.089 632.096 756.193 628.99 756.193H611.314V774.586ZM719.725 828.808C711.126 828.808 703.701 826.937 697.451 823.195C691.241 819.452 686.443 814.217 683.059 807.489C679.715 800.761 678.043 792.938 678.043 784.021C678.043 775.103 679.715 767.28 683.059 760.552C686.443 753.824 691.241 748.589 697.451 744.847C703.701 741.105 711.126 739.234 719.725 739.234C728.324 739.234 735.729 741.105 741.939 744.847C748.19 748.589 752.987 753.824 756.331 760.552C759.715 767.28 761.407 775.103 761.407 784.021C761.407 792.938 759.715 800.761 756.331 807.489C752.987 814.217 748.19 819.452 741.939 823.195C735.729 826.937 728.324 828.808 719.725 828.808ZM719.725 813.521C725.179 813.6 729.718 812.426 733.34 809.997C736.963 807.569 739.67 804.125 741.462 799.666C743.293 795.208 744.209 789.992 744.209 784.021C744.209 778.049 743.293 772.874 741.462 768.495C739.67 764.115 736.963 760.712 733.34 758.283C729.718 755.855 725.179 754.601 719.725 754.521C714.271 754.441 709.733 755.616 706.11 758.044C702.487 760.473 699.76 763.916 697.929 768.375C696.137 772.834 695.242 778.049 695.242 784.021C695.242 789.992 696.137 795.168 697.929 799.547C699.76 803.926 702.487 807.33 706.11 809.758C709.733 812.187 714.271 813.441 719.725 813.521ZM786.465 827.016V741.025H802.708V811.848H839.732V827.016H786.465ZM861.829 827.016V741.025H889.656C890.333 741.025 891.727 741.045 893.836 741.085C895.946 741.125 897.977 741.264 899.928 741.503C906.855 742.339 912.727 744.748 917.544 748.729C922.361 752.71 926.023 757.766 928.531 763.897C931.04 770.027 932.294 776.735 932.294 784.021C932.294 791.306 931.04 798.014 928.531 804.145C926.023 810.276 922.361 815.332 917.544 819.313C912.727 823.294 906.855 825.703 899.928 826.539C897.977 826.777 895.946 826.917 893.836 826.957C891.727 826.996 890.333 827.016 889.656 827.016H861.829ZM878.31 811.729H889.656C890.731 811.729 892.184 811.709 894.016 811.669C895.847 811.59 897.499 811.411 898.972 811.132C902.714 810.375 905.76 808.624 908.109 805.877C910.497 803.13 912.249 799.826 913.364 795.964C914.518 792.102 915.095 788.121 915.095 784.021C915.095 779.721 914.498 775.641 913.304 771.779C912.149 767.917 910.378 764.653 907.989 761.986C905.601 759.318 902.595 757.626 898.972 756.91C897.499 756.591 895.847 756.412 894.016 756.372C892.184 756.332 890.731 756.313 889.656 756.313H878.31V811.729Z" fill="black" style="fill:black;fill-opacity:1;"/>
<path d="M102.413 925.112L117.959 874.235H132.304L147.849 925.112H137.957L124.107 880.241H125.944L112.306 925.112H102.413ZM111.741 914.513V905.538H138.593V914.513H111.741ZM154.182 925.112V874.235H174.533C178.16 874.235 181.093 874.965 183.331 876.425C185.568 877.862 187.205 879.676 188.242 881.866C189.278 884.057 189.796 886.271 189.796 888.509C189.796 891.359 189.148 893.726 187.853 895.61C186.581 897.495 184.826 898.755 182.589 899.391V897.624C185.768 898.284 188.147 899.756 189.726 902.041C191.327 904.325 192.128 906.881 192.128 909.708C192.128 912.746 191.563 915.419 190.432 917.728C189.325 920.036 187.629 921.85 185.344 923.169C183.06 924.464 180.186 925.112 176.724 925.112H154.182ZM163.934 916.067H175.734C177.03 916.067 178.184 915.796 179.197 915.255C180.21 914.689 180.999 913.912 181.564 912.923C182.153 911.91 182.447 910.72 182.447 909.354C182.447 908.153 182.2 907.081 181.705 906.139C181.211 905.197 180.457 904.455 179.444 903.913C178.455 903.348 177.218 903.065 175.734 903.065H163.934V916.067ZM163.934 894.091H174.392C175.475 894.091 176.441 893.903 177.289 893.526C178.137 893.149 178.808 892.572 179.303 891.795C179.797 890.994 180.045 889.969 180.045 888.721C180.045 887.166 179.562 885.859 178.596 884.799C177.63 883.739 176.229 883.209 174.392 883.209H163.934V894.091ZM221.009 926.172C215.922 926.172 211.529 925.065 207.831 922.851C204.156 920.637 201.318 917.539 199.316 913.559C197.337 909.578 196.348 904.95 196.348 899.673C196.348 894.397 197.337 889.769 199.316 885.788C201.318 881.807 204.156 878.71 207.831 876.496C211.529 874.282 215.922 873.175 221.009 873.175C226.851 873.175 231.75 874.623 235.707 877.521C239.688 880.418 242.491 884.34 244.116 889.286L234.435 891.971C233.493 888.886 231.903 886.495 229.666 884.799C227.428 883.079 224.542 882.22 221.009 882.22C217.782 882.22 215.085 882.938 212.918 884.375C210.775 885.812 209.161 887.837 208.078 890.452C206.995 893.066 206.453 896.14 206.453 899.673C206.453 903.207 206.995 906.28 208.078 908.895C209.161 911.509 210.775 913.535 212.918 914.972C215.085 916.409 217.782 917.127 221.009 917.127C224.542 917.127 227.428 916.267 229.666 914.548C231.903 912.828 233.493 910.438 234.435 907.376L244.116 910.061C242.491 915.007 239.688 918.929 235.707 921.826C231.75 924.723 226.851 926.172 221.009 926.172ZM302.063 925.112V874.235H335.275V883.209H311.674V894.091H331.035V903.065H311.674V916.138H335.275V925.112H302.063ZM343.744 925.112V874.235H374.835V883.845H353.354V894.868H370.595V904.478H353.354V925.112H343.744ZM402.413 926.172C399.21 926.172 396.159 925.607 393.262 924.476C390.365 923.322 387.798 921.626 385.56 919.388C383.346 917.151 381.591 914.383 380.296 911.085C379.024 907.788 378.388 903.984 378.388 899.673C378.388 894.044 379.459 889.262 381.603 885.329C383.77 881.372 386.667 878.357 390.294 876.284C393.945 874.211 397.985 873.175 402.413 873.175C408.961 873.175 414.108 874.694 417.853 877.733C421.598 880.771 424.107 885.07 425.378 890.629L415.556 892.042C414.638 889.074 413.13 886.707 411.034 884.94C408.961 883.15 406.3 882.243 403.049 882.22C399.822 882.173 397.137 882.867 394.993 884.304C392.85 885.741 391.237 887.779 390.153 890.417C389.093 893.055 388.563 896.14 388.563 899.673C388.563 903.207 389.093 906.269 390.153 908.86C391.237 911.451 392.85 913.464 394.993 914.901C397.137 916.338 399.822 917.08 403.049 917.127C405.24 917.174 407.218 916.797 408.985 915.997C410.775 915.196 412.282 913.936 413.507 912.216C414.732 910.497 415.603 908.294 416.122 905.609H408.066V898.19H426.368C426.415 898.496 426.45 899.037 426.474 899.815C426.497 900.592 426.509 901.04 426.509 901.157C426.509 906.033 425.52 910.355 423.541 914.124C421.563 917.893 418.772 920.849 415.168 922.992C411.564 925.112 407.312 926.172 402.413 926.172ZM433.59 925.112V874.235H443.2V895.151H465.954V874.235H475.564V925.112H465.954V904.125H443.2V925.112H433.59ZM486.19 925.112V874.235H495.8V925.112H486.19ZM517.062 926.172C513.011 926.172 509.666 925.136 507.028 923.063C504.414 920.99 502.553 918.187 501.446 914.654L510.915 912.393C511.127 913.688 511.81 914.819 512.964 915.785C514.118 916.727 515.343 917.198 516.639 917.198C517.534 917.198 518.488 916.95 519.5 916.456C520.537 915.961 521.279 915.172 521.726 914.089C522.009 913.406 522.174 912.569 522.221 911.58C522.268 910.591 522.292 909.448 522.292 908.153V874.235H532.043V908.153C532.043 909.778 532.031 911.191 532.008 912.393C532.008 913.594 531.89 914.725 531.654 915.785C531.442 916.821 531.007 917.904 530.347 919.035C528.91 921.532 527.038 923.345 524.729 924.476C522.421 925.607 519.865 926.172 517.062 926.172ZM542.621 925.112V874.235H552.231V897.695L571.593 874.235H583.323L562.053 899.32L584.665 925.112H572.511L552.231 901.935V925.112H542.621ZM590.321 925.112V874.235H599.931V916.138H621.837V925.112H590.321ZM627.844 925.112V874.235H636.465L653.283 908.012L670.101 874.235H678.722V925.112H669.747V894.727L654.979 925.112H651.587L636.818 894.727V925.112H627.844ZM761.953 926.172C756.865 926.172 752.472 925.065 748.774 922.851C745.1 920.637 742.262 917.539 740.259 913.559C738.281 909.578 737.292 904.95 737.292 899.673C737.292 894.397 738.281 889.769 740.259 885.788C742.262 881.807 745.1 878.71 748.774 876.496C752.472 874.282 756.865 873.175 761.953 873.175C767.041 873.175 771.422 874.282 775.096 876.496C778.794 878.71 781.633 881.807 783.611 885.788C785.613 889.769 786.614 894.397 786.614 899.673C786.614 904.95 785.613 909.578 783.611 913.559C781.633 917.539 778.794 920.637 775.096 922.851C771.422 925.065 767.041 926.172 761.953 926.172ZM761.953 917.127C765.18 917.174 767.865 916.479 770.009 915.043C772.152 913.606 773.754 911.568 774.814 908.93C775.897 906.292 776.439 903.207 776.439 899.673C776.439 896.14 775.897 893.078 774.814 890.487C773.754 887.896 772.152 885.882 770.009 884.446C767.865 883.009 765.18 882.267 761.953 882.22C758.726 882.173 756.041 882.867 753.897 884.304C751.754 885.741 750.141 887.779 749.057 890.417C747.997 893.055 747.467 896.14 747.467 899.673C747.467 903.207 747.997 906.269 749.057 908.86C750.141 911.451 751.754 913.464 753.897 914.901C756.041 916.338 758.726 917.08 761.953 917.127ZM105.946 1017.11V966.235H127.428C127.923 966.235 128.582 966.258 129.406 966.305C130.254 966.329 131.008 966.4 131.668 966.517C134.706 966.989 137.191 967.99 139.123 969.521C141.078 971.052 142.514 972.983 143.433 975.315C144.352 977.623 144.811 980.202 144.811 983.053C144.811 985.903 144.34 988.494 143.398 990.825C142.479 993.134 141.042 995.053 139.087 996.584C137.156 998.116 134.683 999.117 131.668 999.588C131.008 999.682 130.254 999.753 129.406 999.8C128.559 999.847 127.899 999.87 127.428 999.87H115.557V1017.11H105.946ZM115.557 990.896H127.004C127.499 990.896 128.04 990.873 128.629 990.825C129.218 990.778 129.76 990.684 130.254 990.543C131.55 990.19 132.551 989.601 133.258 988.776C133.964 987.928 134.447 986.998 134.706 985.985C134.989 984.949 135.13 983.971 135.13 983.053C135.13 982.134 134.989 981.168 134.706 980.155C134.447 979.119 133.964 978.189 133.258 977.364C132.551 976.516 131.55 975.916 130.254 975.562C129.76 975.421 129.218 975.327 128.629 975.28C128.04 975.233 127.499 975.209 127.004 975.209H115.557V990.896ZM191.688 1018.17L176.849 1003.4L182.785 997.468L197.553 1012.24L191.688 1018.17ZM173.74 1018.17C168.652 1018.17 164.259 1017.06 160.561 1014.85C156.887 1012.64 154.048 1009.54 152.046 1005.56C150.068 1001.58 149.078 996.95 149.078 991.673C149.078 986.397 150.068 981.769 152.046 977.788C154.048 973.807 156.887 970.71 160.561 968.496C164.259 966.282 168.652 965.175 173.74 965.175C178.827 965.175 183.209 966.282 186.883 968.496C190.581 970.71 193.419 973.807 195.398 977.788C197.4 981.769 198.401 986.397 198.401 991.673C198.401 996.95 197.4 1001.58 195.398 1005.56C193.419 1009.54 190.581 1012.64 186.883 1014.85C183.209 1017.06 178.827 1018.17 173.74 1018.17ZM173.74 1009.13C176.967 1009.17 179.652 1008.48 181.795 1007.04C183.939 1005.61 185.54 1003.57 186.6 1000.93C187.684 998.292 188.226 995.207 188.226 991.673C188.226 988.14 187.684 985.078 186.6 982.487C185.54 979.896 183.939 977.882 181.795 976.446C179.652 975.009 176.967 974.267 173.74 974.22C170.513 974.173 167.828 974.867 165.684 976.304C163.541 977.741 161.927 979.779 160.844 982.417C159.784 985.055 159.254 988.14 159.254 991.673C159.254 995.207 159.784 998.269 160.844 1000.86C161.927 1003.45 163.541 1005.46 165.684 1006.9C167.828 1008.34 170.513 1009.08 173.74 1009.13ZM205.454 1017.11V966.235H226.936C227.43 966.235 228.09 966.258 228.914 966.305C229.762 966.329 230.516 966.4 231.175 966.517C234.214 966.989 236.699 967.99 238.63 969.521C240.585 971.052 242.022 972.983 242.941 975.315C243.859 977.623 244.319 980.202 244.319 983.053C244.319 987.316 243.259 990.967 241.139 994.005C239.019 997.02 235.698 998.881 231.175 999.588L226.936 999.87H215.064V1017.11H205.454ZM234.143 1017.11L224.109 996.408L234.002 994.5L245.025 1017.11H234.143ZM215.064 990.896H226.512C227.006 990.896 227.548 990.873 228.137 990.825C228.726 990.778 229.267 990.684 229.762 990.543C231.058 990.19 232.059 989.601 232.765 988.776C233.472 987.928 233.955 986.998 234.214 985.985C234.497 984.949 234.638 983.971 234.638 983.053C234.638 982.134 234.497 981.168 234.214 980.155C233.955 979.119 233.472 978.189 232.765 977.364C232.059 976.516 231.058 975.916 229.762 975.562C229.267 975.421 228.726 975.327 228.137 975.28C227.548 975.233 227.006 975.209 226.512 975.209H215.064V990.896ZM272.013 1018.17C268.244 1018.17 264.841 1017.51 261.802 1016.19C258.787 1014.85 256.302 1012.94 254.347 1010.47C252.416 1007.97 251.191 1005.01 250.673 1001.57L260.707 1000.08C261.414 1003 262.874 1005.25 265.088 1006.83C267.302 1008.41 269.822 1009.2 272.649 1009.2C274.227 1009.2 275.758 1008.95 277.242 1008.46C278.726 1007.96 279.939 1007.23 280.881 1006.27C281.847 1005.3 282.33 1004.11 282.33 1002.7C282.33 1002.18 282.247 1001.68 282.082 1001.21C281.941 1000.72 281.694 1000.26 281.341 999.835C280.987 999.411 280.481 999.011 279.821 998.634C279.185 998.257 278.373 997.915 277.383 997.609L264.169 993.723C263.18 993.44 262.026 993.04 260.707 992.521C259.411 992.003 258.151 991.261 256.926 990.295C255.702 989.33 254.677 988.058 253.853 986.48C253.052 984.878 252.651 982.864 252.651 980.438C252.651 977.023 253.511 974.184 255.231 971.923C256.95 969.662 259.247 967.978 262.12 966.871C264.994 965.764 268.174 965.222 271.66 965.246C275.169 965.293 278.302 965.893 281.058 967.047C283.814 968.202 286.122 969.886 287.983 972.1C289.844 974.29 291.186 976.976 292.011 980.155L281.623 981.922C281.246 980.273 280.551 978.883 279.539 977.753C278.526 976.622 277.313 975.762 275.899 975.174C274.51 974.585 273.049 974.267 271.518 974.22C270.011 974.173 268.586 974.385 267.243 974.856C265.924 975.303 264.841 975.963 263.993 976.834C263.168 977.706 262.756 978.742 262.756 979.943C262.756 981.05 263.098 981.957 263.781 982.664C264.464 983.347 265.324 983.901 266.36 984.324C267.396 984.748 268.456 985.102 269.54 985.384L278.373 987.787C279.692 988.14 281.152 988.611 282.754 989.2C284.355 989.766 285.886 990.566 287.347 991.603C288.831 992.616 290.044 993.958 290.986 995.631C291.952 997.303 292.435 999.423 292.435 1001.99C292.435 1004.72 291.857 1007.11 290.703 1009.16C289.573 1011.19 288.042 1012.87 286.11 1014.21C284.179 1015.53 281.988 1016.52 279.539 1017.18C277.113 1017.84 274.604 1018.17 272.013 1018.17ZM312.001 1017.11V975.209H295.961V966.235H337.652V975.209H321.611V1017.11H312.001ZM364.034 1018.17C359.935 1018.17 356.331 1017.35 353.222 1015.7C350.113 1014.03 347.687 1011.68 345.944 1008.67C344.201 1005.65 343.33 1002.11 343.33 998.033V966.305L353.081 966.235V997.962C353.081 999.635 353.364 1001.15 353.929 1002.52C354.494 1003.89 355.272 1005.06 356.261 1006.05C357.274 1007.04 358.44 1007.81 359.759 1008.35C361.101 1008.87 362.526 1009.13 364.034 1009.13C365.588 1009.13 367.025 1008.86 368.344 1008.31C369.687 1007.77 370.853 1007.01 371.842 1006.02C372.831 1005.03 373.597 1003.85 374.139 1002.48C374.704 1001.12 374.986 999.611 374.986 997.962V966.235H384.738V998.033C384.738 1002.11 383.866 1005.65 382.123 1008.67C380.38 1011.68 377.954 1014.03 374.845 1015.7C371.736 1017.35 368.132 1018.17 364.034 1018.17ZM405.554 1017.11L390.008 966.235H399.901L412.621 1008.07L425.552 966.235H435.445L419.899 1017.11H405.554ZM451.437 1017.11L436.527 966.235H446.632L456.171 1001.21L465.711 966.305L475.816 966.235L485.355 1001.21L494.895 966.235H505L490.09 1017.11H480.621L470.763 982.77L460.906 1017.11H451.437ZM570.584 1017.11V996.408L553.201 966.235H564.436L575.46 985.384L586.483 966.235H597.719L580.336 996.408V1017.11H570.584ZM601.244 1017.11V1015.91L625.41 975.209H603.363V966.235H642.228V967.436L618.203 1008.07H641.521V1017.11H601.244ZM669.906 962.348C668.163 962.348 666.561 961.924 665.101 961.076C663.664 960.205 662.51 959.051 661.638 957.614C660.79 956.154 660.366 954.552 660.366 952.809C660.366 951.042 660.79 949.441 661.638 948.004C662.51 946.567 663.664 945.425 665.101 944.577C666.561 943.705 668.163 943.269 669.906 943.269C671.672 943.269 673.274 943.705 674.711 944.577C676.148 945.425 677.29 946.567 678.138 948.004C679.009 949.441 679.445 951.042 679.445 952.809C679.445 954.552 679.009 956.154 678.138 957.614C677.29 959.051 676.148 960.205 674.711 961.076C673.274 961.924 671.672 962.348 669.906 962.348ZM669.906 956.695C670.989 956.695 671.908 956.318 672.662 955.565C673.415 954.787 673.792 953.869 673.792 952.809C673.792 951.725 673.415 950.807 672.662 950.053C671.908 949.299 670.989 948.922 669.906 948.922C668.846 948.922 667.927 949.299 667.15 950.053C666.396 950.807 666.019 951.725 666.019 952.809C666.019 953.869 666.396 954.787 667.15 955.565C667.927 956.318 668.846 956.695 669.906 956.695ZM647.152 1017.11L662.698 966.235H677.043L692.589 1017.11H682.696L668.846 972.241H670.683L657.045 1017.11H647.152ZM656.48 1006.51V997.538H683.332V1006.51H656.48ZM723.531 960.864V952.385H732.011V960.864H723.531ZM708.551 960.864V952.385H717.03V960.864H708.551ZM697.527 1017.11L713.073 966.235H727.418L742.963 1017.11H733.071L719.221 972.241H721.058L707.42 1017.11H697.527ZM706.855 1006.51V997.538H733.707V1006.51H706.855ZM773.001 960.864V952.385H781.481V960.864H773.001ZM758.021 960.864V952.385H766.5V960.864H758.021ZM769.751 1018.17C764.663 1018.17 760.27 1017.06 756.572 1014.85C752.898 1012.64 750.059 1009.54 748.057 1005.56C746.079 1001.58 745.089 996.95 745.089 991.673C745.089 986.397 746.079 981.769 748.057 977.788C750.059 973.807 752.898 970.71 756.572 968.496C760.27 966.282 764.663 965.175 769.751 965.175C774.838 965.175 779.22 966.282 782.894 968.496C786.592 970.71 789.43 973.807 791.409 977.788C793.411 981.769 794.412 986.397 794.412 991.673C794.412 996.95 793.411 1001.58 791.409 1005.56C789.43 1009.54 786.592 1012.64 782.894 1014.85C779.22 1017.06 774.838 1018.17 769.751 1018.17ZM769.751 1009.13C772.978 1009.17 775.663 1008.48 777.806 1007.04C779.95 1005.61 781.551 1003.57 782.611 1000.93C783.695 998.292 784.237 995.207 784.237 991.673C784.237 988.14 783.695 985.078 782.611 982.487C781.551 979.896 779.95 977.882 777.806 976.446C775.663 975.009 772.978 974.267 769.751 974.22C766.524 974.173 763.839 974.867 761.695 976.304C759.552 977.741 757.938 979.779 756.855 982.417C755.795 985.055 755.265 988.14 755.265 991.673C755.265 995.207 755.795 998.269 756.855 1000.86C757.938 1003.45 759.552 1005.46 761.695 1006.9C763.839 1008.34 766.524 1009.08 769.751 1009.13ZM124.813 1110.17C121.045 1110.17 117.747 1109.38 114.921 1107.8C112.094 1106.23 109.892 1104.02 108.314 1101.2C106.735 1098.37 105.946 1095.07 105.946 1091.31V1076.04C105.946 1072.27 106.735 1068.98 108.314 1066.15C109.892 1063.32 112.094 1061.12 114.921 1059.54C117.747 1057.96 121.045 1057.17 124.813 1057.17C128.582 1057.17 131.88 1057.96 134.706 1059.54C137.533 1061.12 139.735 1063.32 141.313 1066.15C142.891 1068.98 143.68 1072.27 143.68 1076.04V1091.31C143.68 1095.07 142.891 1098.37 141.313 1101.2C139.735 1104.02 137.533 1106.23 134.706 1107.8C131.88 1109.38 128.582 1110.17 124.813 1110.17ZM124.813 1101.06C126.509 1101.06 128.04 1100.66 129.406 1099.86C130.773 1099.05 131.856 1097.97 132.657 1096.6C133.458 1095.24 133.858 1093.71 133.858 1092.01V1075.26C133.858 1073.57 133.458 1072.04 132.657 1070.67C131.856 1069.31 130.773 1068.22 129.406 1067.42C128.04 1066.62 126.509 1066.22 124.813 1066.22C123.117 1066.22 121.586 1066.62 120.22 1067.42C118.854 1068.22 117.771 1069.31 116.97 1070.67C116.169 1072.04 115.769 1073.57 115.769 1075.26V1092.01C115.769 1093.71 116.169 1095.24 116.97 1096.6C117.771 1097.97 118.854 1099.05 120.22 1099.86C121.586 1100.66 123.117 1101.06 124.813 1101.06ZM162.394 1109.11V1068.69L152.854 1074.56V1063.96L162.394 1058.23H172.216V1109.11H162.394ZM243.135 1110.03C240.591 1110.03 238.165 1109.52 235.856 1108.51C233.548 1107.48 231.534 1106.03 229.815 1104.17C228.119 1102.3 226.906 1100.11 226.175 1097.59L235.503 1095.12C235.998 1096.98 236.963 1098.43 238.4 1099.47C239.86 1100.48 241.439 1100.99 243.135 1100.99C244.595 1100.99 245.926 1100.63 247.127 1099.93C248.352 1099.22 249.318 1098.27 250.024 1097.06C250.754 1095.86 251.119 1094.53 251.119 1093.07C251.119 1090.88 250.366 1089.01 248.858 1087.45C247.374 1085.88 245.466 1085.09 243.135 1085.09C242.428 1085.09 241.745 1085.19 241.085 1085.4C240.426 1085.59 239.79 1085.86 239.177 1086.22L234.867 1078.66L251.049 1065.23L251.755 1067.28H228.154V1058.23H259.952V1067.28L247.374 1079.43L247.304 1076.75C250.224 1077.2 252.686 1078.22 254.688 1079.82C256.714 1081.4 258.245 1083.36 259.281 1085.69C260.341 1088 260.871 1090.46 260.871 1093.07C260.871 1096.27 260.058 1099.16 258.433 1101.73C256.808 1104.27 254.653 1106.3 251.967 1107.8C249.282 1109.29 246.338 1110.03 243.135 1110.03ZM290.749 1109.11V1101.2H268.631V1092.22L284.672 1058.23H295.695L279.655 1092.22H290.749V1079.5H300.5V1092.22H305.023V1101.2H300.5V1109.11H290.749ZM328.64 1110.17C326.073 1110.17 323.659 1109.64 321.398 1108.58C319.16 1107.52 317.228 1106.05 315.603 1104.17C313.978 1102.28 312.812 1100.09 312.105 1097.59L321.362 1095.12C321.668 1096.32 322.21 1097.36 322.987 1098.23C323.788 1099.1 324.707 1099.78 325.743 1100.28C326.803 1100.75 327.887 1100.99 328.994 1100.99C330.454 1100.99 331.785 1100.63 332.986 1099.93C334.211 1099.22 335.177 1098.27 335.883 1097.06C336.614 1095.86 336.979 1094.53 336.979 1093.07C336.979 1091.61 336.614 1090.28 335.883 1089.08C335.177 1087.88 334.211 1086.92 332.986 1086.22C331.785 1085.51 330.454 1085.16 328.994 1085.16C327.204 1085.16 325.743 1085.46 324.613 1086.08C323.482 1086.66 322.634 1087.23 322.069 1087.77L313.943 1085.3L315.497 1058.23H343.268V1067.21H320.797L324.189 1064.03L323.129 1081.48L321.504 1079.5C322.775 1078.47 324.224 1077.71 325.849 1077.24C327.475 1076.77 328.994 1076.54 330.407 1076.54C333.61 1076.54 336.425 1077.25 338.851 1078.69C341.301 1080.1 343.209 1082.06 344.575 1084.56C345.965 1087.03 346.659 1089.87 346.659 1093.07C346.659 1096.27 345.823 1099.17 344.151 1101.76C342.479 1104.33 340.276 1106.38 337.544 1107.91C334.812 1109.42 331.844 1110.17 328.64 1110.17ZM372.866 1110.17C369.498 1110.17 366.471 1109.38 363.786 1107.8C361.124 1106.23 359.016 1104.04 357.462 1101.23C355.907 1098.41 355.13 1095.14 355.13 1091.45V1076.68C355.13 1072.67 355.907 1069.22 357.462 1066.33C359.016 1063.4 361.207 1061.17 364.033 1059.61C366.86 1058.03 370.181 1057.25 373.997 1057.25C376.47 1057.25 378.825 1057.61 381.063 1058.34C383.301 1059.07 385.35 1060.31 387.211 1062.05L380.356 1068.9C379.508 1068.06 378.531 1067.4 377.424 1066.93C376.317 1066.46 375.174 1066.22 373.997 1066.22C372.159 1066.22 370.558 1066.66 369.192 1067.53C367.849 1068.37 366.801 1069.49 366.047 1070.88C365.317 1072.25 364.952 1073.71 364.952 1075.26V1082.83L363.327 1081.06C364.787 1079.57 366.471 1078.44 368.379 1077.67C370.31 1076.87 372.301 1076.47 374.35 1076.47C377.553 1076.47 380.368 1077.18 382.794 1078.62C385.244 1080.06 387.152 1082.02 388.518 1084.52C389.908 1087.02 390.602 1089.87 390.602 1093.07C390.602 1096.27 389.79 1099.17 388.165 1101.76C386.539 1104.33 384.384 1106.38 381.699 1107.91C379.014 1109.42 376.069 1110.17 372.866 1110.17ZM372.866 1100.99C374.326 1100.99 375.657 1100.63 376.858 1099.93C378.083 1099.22 379.049 1098.27 379.756 1097.06C380.486 1095.86 380.851 1094.53 380.851 1093.07C380.851 1091.61 380.498 1090.28 379.791 1089.08C379.084 1087.85 378.13 1086.89 376.929 1086.18C375.728 1085.45 374.397 1085.09 372.937 1085.09C371.476 1085.09 370.134 1085.45 368.909 1086.18C367.708 1086.89 366.742 1087.85 366.012 1089.08C365.305 1090.28 364.952 1091.61 364.952 1093.07C364.952 1094.48 365.305 1095.79 366.012 1096.99C366.718 1098.19 367.672 1099.16 368.874 1099.89C370.075 1100.62 371.406 1100.99 372.866 1100.99ZM401.631 1109.11L418.731 1067.28H396.967V1058.23H429.048V1067.28L412.018 1109.11H401.631ZM454.553 1110.17C451.115 1110.17 448.052 1109.48 445.367 1108.09C442.706 1106.67 440.609 1104.74 439.078 1102.29C437.571 1099.82 436.817 1097.01 436.817 1093.85C436.817 1091.16 437.418 1088.63 438.619 1086.25C439.844 1083.87 441.599 1081.93 443.883 1080.42L443.671 1083.39C441.952 1081.72 440.598 1079.95 439.608 1078.09C438.643 1076.23 438.16 1074.13 438.16 1071.8C438.16 1068.86 438.854 1066.29 440.244 1064.1C441.657 1061.91 443.589 1060.21 446.039 1059.01C448.512 1057.79 451.35 1057.17 454.553 1057.17C457.757 1057.17 460.583 1057.79 463.033 1059.01C465.506 1060.21 467.438 1061.91 468.827 1064.1C470.241 1066.29 470.947 1068.86 470.947 1071.8C470.947 1074.13 470.488 1076.23 469.569 1078.09C468.651 1079.93 467.249 1081.72 465.365 1083.46V1080.49C467.603 1081.91 469.322 1083.81 470.523 1086.22C471.748 1088.62 472.36 1091.16 472.36 1093.85C472.36 1097.01 471.595 1099.82 470.064 1102.29C468.533 1104.74 466.425 1106.67 463.74 1108.09C461.054 1109.48 457.992 1110.17 454.553 1110.17ZM454.553 1101.13C456.815 1101.13 458.652 1100.51 460.065 1099.29C461.478 1098.07 462.185 1096.25 462.185 1093.85C462.185 1091.47 461.478 1089.66 460.065 1088.41C458.652 1087.14 456.815 1086.5 454.553 1086.5C452.292 1086.5 450.467 1087.14 449.077 1088.41C447.687 1089.66 446.992 1091.47 446.992 1093.85C446.992 1096.25 447.687 1098.07 449.077 1099.29C450.467 1100.51 452.292 1101.13 454.553 1101.13ZM454.553 1077.38C456.391 1077.38 457.886 1076.94 459.041 1076.04C460.195 1075.12 460.772 1073.71 460.772 1071.8C460.772 1069.89 460.195 1068.48 459.041 1067.56C457.886 1066.62 456.391 1066.15 454.553 1066.15C452.716 1066.15 451.22 1066.62 450.066 1067.56C448.912 1068.48 448.335 1069.89 448.335 1071.8C448.335 1073.71 448.912 1075.12 450.066 1076.04C451.22 1076.94 452.716 1077.38 454.553 1077.38ZM497.873 1057.25C501.241 1057.25 504.256 1058.03 506.918 1059.61C509.603 1061.19 511.723 1063.39 513.278 1066.22C514.832 1069.02 515.609 1072.27 515.609 1075.97V1090.74C515.609 1094.74 514.832 1098.21 513.278 1101.13C511.723 1104.02 509.532 1106.26 506.706 1107.84C503.879 1109.39 500.558 1110.17 496.742 1110.17C494.269 1110.17 491.914 1109.81 489.676 1109.08C487.462 1108.32 485.413 1107.09 483.529 1105.37L490.383 1098.51C491.231 1099.36 492.208 1100.02 493.315 1100.49C494.446 1100.96 495.588 1101.2 496.742 1101.2C498.58 1101.2 500.17 1100.77 501.512 1099.93C502.878 1099.05 503.927 1097.94 504.657 1096.57C505.41 1095.18 505.787 1093.71 505.787 1092.15V1084.59L507.413 1086.36C505.976 1087.84 504.292 1088.98 502.36 1089.79C500.429 1090.56 498.438 1090.95 496.389 1090.95C493.186 1090.95 490.359 1090.23 487.91 1088.8C485.484 1087.36 483.576 1085.39 482.186 1082.9C480.82 1080.4 480.137 1077.55 480.137 1074.35C480.137 1071.14 480.949 1068.26 482.575 1065.69C484.2 1063.1 486.355 1061.05 489.04 1059.54C491.725 1058.01 494.67 1057.25 497.873 1057.25ZM497.873 1066.43C496.413 1066.43 495.07 1066.78 493.845 1067.49C492.644 1068.2 491.678 1069.15 490.948 1070.35C490.242 1071.55 489.888 1072.89 489.888 1074.35C489.888 1075.81 490.242 1077.15 490.948 1078.37C491.655 1079.57 492.609 1080.54 493.81 1081.27C495.011 1081.98 496.342 1082.33 497.802 1082.33C499.263 1082.33 500.594 1081.98 501.795 1081.27C503.02 1080.54 503.985 1079.57 504.692 1078.37C505.422 1077.15 505.787 1075.81 505.787 1074.35C505.787 1072.93 505.434 1071.63 504.727 1070.42C504.021 1069.22 503.067 1068.26 501.866 1067.53C500.664 1066.8 499.333 1066.43 497.873 1066.43ZM527.062 1109.11V1099.5H536.672V1109.11H527.062ZM551.675 1109.11V1100.63H561.285V1109.11H551.675ZM551.675 1096.39V1058.23H561.285V1096.39H551.675ZM583.683 1095.33C583.683 1093.78 583.86 1092.22 584.213 1090.67C584.59 1089.11 585.144 1087.7 585.874 1086.43C586.463 1085.23 587.099 1084.29 587.782 1083.6C588.488 1082.9 589.289 1082.18 590.184 1081.45C591.103 1080.72 592.186 1079.69 593.435 1078.37C594.4 1077.31 595.036 1076.28 595.343 1075.26C595.672 1074.23 595.837 1073.1 595.837 1071.87C595.837 1071.24 595.767 1070.62 595.625 1070.04C595.507 1069.45 595.272 1068.93 594.919 1068.48C594.353 1067.7 593.6 1067.15 592.657 1066.82C591.739 1066.47 590.75 1066.29 589.69 1066.29C588.889 1066.29 588.1 1066.38 587.322 1066.57C586.569 1066.76 585.921 1067.07 585.379 1067.49C584.72 1067.99 584.225 1068.61 583.895 1069.36C583.589 1070.12 583.448 1070.95 583.471 1071.87H573.296C573.578 1069.35 574.297 1067.04 575.451 1064.95C576.605 1062.85 578.101 1061.2 579.938 1060C581.281 1059.11 582.765 1058.42 584.39 1057.95C586.015 1057.48 587.64 1057.25 589.266 1057.25C591.951 1057.25 594.483 1057.67 596.862 1058.52C599.241 1059.34 601.208 1060.71 602.762 1062.62C603.799 1063.82 604.599 1065.22 605.165 1066.82C605.73 1068.4 606.013 1069.99 606.013 1071.59C606.013 1074.16 605.436 1076.49 604.281 1078.59C603.127 1080.68 601.702 1082.64 600.006 1084.45C599.276 1085.23 598.617 1085.91 598.028 1086.5C597.462 1087.07 596.944 1087.61 596.473 1088.13C596.026 1088.62 595.625 1089.14 595.272 1089.68C594.612 1090.76 594.212 1091.65 594.071 1092.33C593.929 1093.01 593.859 1094.01 593.859 1095.33H583.683ZM583.754 1109.11V1098.94H593.859V1109.11H583.754ZM631.556 1110.17C628.729 1110.17 626.044 1109.75 623.5 1108.9C620.956 1108.05 618.836 1106.71 617.14 1104.87C615.774 1103.34 614.773 1101.69 614.137 1099.93C613.525 1098.16 613.183 1096.25 613.113 1094.2C613.113 1092.18 613.407 1090.25 613.996 1088.41C614.585 1086.55 615.492 1084.9 616.716 1083.46C617.117 1082.99 617.541 1082.57 617.988 1082.19C618.436 1081.79 618.883 1081.41 619.331 1081.06C618.059 1079.6 617.105 1078.16 616.469 1076.75C615.833 1075.31 615.515 1073.66 615.515 1071.8C615.515 1068.72 616.351 1065.96 618.024 1063.53C619.72 1061.11 622.016 1059.39 624.913 1058.38C626.115 1057.95 627.328 1057.67 628.552 1057.53C629.777 1057.39 630.967 1057.32 632.121 1057.32C634.453 1057.32 636.679 1057.68 638.799 1058.41C640.918 1059.12 642.72 1060.28 644.204 1061.91C645.123 1062.85 645.877 1063.9 646.466 1065.05C647.078 1066.21 647.525 1067.37 647.808 1068.55L638.269 1070.46C637.986 1069.47 637.491 1068.62 636.785 1067.92C636.125 1067.23 635.348 1066.8 634.453 1066.61C633.558 1066.4 632.686 1066.29 631.838 1066.29C630.496 1066.29 629.318 1066.53 628.305 1067C627.245 1067.49 626.456 1068.14 625.938 1068.94C625.443 1069.74 625.196 1070.74 625.196 1071.94C625.196 1073.03 625.408 1073.89 625.832 1074.52C626.256 1075.16 626.751 1075.78 627.316 1076.4C627.716 1076.82 628.211 1077.31 628.8 1077.88C629.412 1078.44 630.048 1079.03 630.708 1079.65L642.367 1090.46C642.367 1090.06 642.367 1089.59 642.367 1089.04C642.367 1088.5 642.367 1088.01 642.367 1087.56V1081.77H650.705V1091.45C650.705 1092.53 650.682 1093.67 650.635 1094.87C650.588 1096.05 650.47 1097.03 650.281 1097.81L656.5 1103.53L650.352 1110.1L645.688 1105.65C644.346 1106.8 642.909 1107.72 641.378 1108.41C639.87 1109.09 638.339 1109.56 636.785 1109.82C635.795 1109.96 634.889 1110.05 634.064 1110.1C633.24 1110.15 632.404 1110.17 631.556 1110.17ZM631.98 1101.06C632.521 1101.06 633.04 1101.03 633.534 1100.99C634.029 1100.94 634.523 1100.87 635.018 1100.77C635.772 1100.63 636.455 1100.43 637.067 1100.17C637.703 1099.89 638.269 1099.57 638.763 1099.22L626.327 1087.77C625.832 1087.98 625.384 1088.24 624.984 1088.55C624.607 1088.86 624.277 1089.19 623.995 1089.54C623.618 1090.06 623.323 1090.66 623.111 1091.34C622.899 1092.02 622.793 1092.79 622.793 1093.64C622.793 1094.65 622.947 1095.53 623.253 1096.29C623.583 1097.02 623.971 1097.69 624.419 1098.3C625.196 1099.29 626.327 1100 627.811 1100.42C629.294 1100.84 630.684 1101.06 631.98 1101.06Z" fill="black" style="fill:black;fill-opacity:1;"/>
<path d="M251.896 925.112V874.235H268.36C268.76 874.235 269.585 874.247 270.833 874.27C272.082 874.294 273.283 874.376 274.437 874.517C278.536 875.012 282.01 876.437 284.86 878.793C287.71 881.148 289.877 884.139 291.361 887.767C292.845 891.394 293.587 895.363 293.587 899.673C293.587 903.984 292.845 907.953 291.361 911.58C289.877 915.207 287.71 918.199 284.86 920.554C282.01 922.91 278.536 924.335 274.437 924.829C273.283 924.971 272.082 925.053 270.833 925.077C269.585 925.1 268.76 925.112 268.36 925.112H251.896ZM261.647 916.067H268.36C268.996 916.067 269.856 916.055 270.939 916.032C272.023 915.985 273 915.879 273.872 915.714C276.086 915.266 277.888 914.23 279.277 912.605C280.691 910.979 281.727 909.024 282.387 906.74C283.07 904.455 283.411 902.1 283.411 899.673C283.411 897.13 283.058 894.715 282.351 892.43C281.668 890.146 280.62 888.214 279.207 886.636C277.794 885.058 276.015 884.057 273.872 883.633C273 883.445 272.023 883.339 270.939 883.315C269.856 883.291 268.996 883.28 268.36 883.28H261.647V916.067ZM688.639 925.112V874.235H698.391L720.508 908.153V874.235H730.26V925.112H720.508L698.391 891.194V925.112H688.639ZM506.431 1017.11L523.531 991.391L506.926 966.235H518.726L529.538 983.194L540.208 966.235H552.079L535.473 991.391L552.503 1017.11H540.703L529.538 999.588L518.302 1017.11H506.431ZM184.236 1109.04V1100.7L205.576 1081.77C207.178 1080.35 208.308 1079.02 208.968 1077.77C209.627 1076.52 209.957 1075.36 209.957 1074.28C209.957 1072.72 209.639 1071.34 209.003 1070.14C208.367 1068.92 207.472 1067.96 206.318 1067.28C205.164 1066.57 203.81 1066.22 202.255 1066.22C200.63 1066.22 199.193 1066.6 197.945 1067.35C196.72 1068.08 195.766 1069.06 195.083 1070.28C194.4 1071.48 194.082 1072.79 194.129 1074.2H184.236C184.236 1070.72 185.001 1067.7 186.532 1065.16C188.063 1062.62 190.195 1060.65 192.927 1059.26C195.66 1057.87 198.84 1057.17 202.467 1057.17C205.788 1057.17 208.756 1057.91 211.37 1059.37C214.009 1060.8 216.081 1062.82 217.589 1065.41C219.096 1068 219.85 1071 219.85 1074.42C219.85 1076.94 219.497 1079.03 218.79 1080.71C218.083 1082.35 217.035 1083.89 215.646 1085.3C214.256 1086.69 212.548 1088.27 210.522 1090.03L196.743 1102.12L195.966 1100H219.85V1109.04H184.236Z" fill="#E0BA41" style="fill:#E0BA41;fill:color(display-p3 0.8784 0.7294 0.2549);fill-opacity:1;"/>
</g>
<defs>
<clipPath id="clip0_1_10537">
<rect width="1854" height="1236" fill="white" style="fill:white;fill-opacity:1;"/>
</clipPath>
</defs>
</svg>
