<svg width="1854" height="1236" viewBox="0 0 1854 1236" fill="none" xmlns="http://www.w3.org/2000/svg">
<g clip-path="url(#clip0_1_10504)">
<rect width="1854" height="1236" fill="white" style="fill:white;fill-opacity:1;"/>
<rect x="1235" width="619" height="928" fill="#B6C1D1" style="fill:#B6C1D1;fill:color(display-p3 0.7148 0.7572 0.8208);fill-opacity:1;"/>
<rect width="619" height="924" fill="#A04120" style="fill:#A04120;fill:color(display-p3 0.6275 0.2549 0.1255);fill-opacity:1;"/>
<rect x="619" width="618" height="925" fill="#E0BA41" style="fill:#E0BA41;fill:color(display-p3 0.8784 0.7294 0.2549);fill-opacity:1;"/>
<mask id="path-4-inside-1_1_10504" fill="white">
<path d="M0 923H927V1236H0V923Z"/>
</mask>
<path d="M0 923H927V1236H0V923Z" fill="white" style="fill:white;fill-opacity:1;"/>
<path d="M0 1236H-1V1237H0V1236ZM927 1235H0V1237H927V1235ZM1 1236V923H-1V1236H1Z" fill="black" style="fill:black;fill-opacity:1;" mask="url(#path-4-inside-1_1_10504)"/>
<rect x="927" y="923" width="927" height="313" fill="black" style="fill:black;fill-opacity:1;"/>
<path d="M46.7433 734V705.783H58.6572C58.9315 705.783 59.2973 705.796 59.7545 705.822C60.2248 705.835 60.6428 705.874 61.0086 705.94C62.6937 706.201 64.0719 706.756 65.1431 707.605C66.2274 708.454 67.0243 709.526 67.5337 710.819C68.0432 712.099 68.298 713.53 68.298 715.11C68.298 717.475 67.7101 719.5 66.5344 721.185C65.3587 722.857 63.5167 723.889 61.0086 724.281L58.6572 724.438H52.0732V734H46.7433ZM62.6546 734L57.0895 722.517L62.5762 721.459L68.6899 734H62.6546ZM52.0732 719.46H58.422C58.6963 719.46 58.9968 719.447 59.3234 719.421C59.65 719.395 59.9504 719.343 60.2248 719.264C60.9432 719.069 61.4984 718.742 61.8903 718.285C62.2822 717.814 62.55 717.298 62.6937 716.737C62.8505 716.162 62.9289 715.62 62.9289 715.11C62.9289 714.601 62.8505 714.065 62.6937 713.504C62.55 712.929 62.2822 712.413 61.8903 711.955C61.4984 711.485 60.9432 711.152 60.2248 710.956C59.9504 710.878 59.65 710.826 59.3234 710.799C58.9968 710.773 58.6963 710.76 58.422 710.76H52.0732V719.46ZM86.9103 702.805V698.102H91.6131V702.805H86.9103ZM78.6019 702.805V698.102H83.3048V702.805H78.6019ZM85.1075 734.588C82.2858 734.588 79.8495 733.974 77.7985 732.746C75.7606 731.518 74.1865 729.8 73.0761 727.592C71.9788 725.385 71.4301 722.818 71.4301 719.892C71.4301 716.965 71.9788 714.398 73.0761 712.191C74.1865 709.983 75.7606 708.265 77.7985 707.037C79.8495 705.809 82.2858 705.195 85.1075 705.195C87.9292 705.195 90.359 705.809 92.3969 707.037C94.4478 708.265 96.022 709.983 97.1193 712.191C98.2297 714.398 98.7849 716.965 98.7849 719.892C98.7849 722.818 98.2297 725.385 97.1193 727.592C96.022 729.8 94.4478 731.518 92.3969 732.746C90.359 733.974 87.9292 734.588 85.1075 734.588ZM85.1075 729.572C86.8972 729.598 88.3864 729.212 89.5752 728.415C90.764 727.619 91.6523 726.489 92.2401 725.025C92.841 723.562 93.1415 721.851 93.1415 719.892C93.1415 717.932 92.841 716.234 92.2401 714.797C91.6523 713.36 90.764 712.243 89.5752 711.446C88.3864 710.649 86.8972 710.238 85.1075 710.212C83.3178 710.185 81.8286 710.571 80.6398 711.368C79.451 712.165 78.5562 713.294 77.9553 714.758C77.3674 716.221 77.0735 717.932 77.0735 719.892C77.0735 721.851 77.3674 723.549 77.9553 724.986C78.5562 726.423 79.451 727.54 80.6398 728.337C81.8286 729.134 83.3178 729.545 85.1075 729.572ZM102.697 734V705.783H111.828C112.05 705.783 112.507 705.79 113.2 705.803C113.892 705.816 114.558 705.861 115.198 705.94C117.471 706.214 119.398 707.004 120.979 708.311C122.559 709.617 123.761 711.276 124.584 713.288C125.407 715.3 125.819 717.501 125.819 719.892C125.819 722.282 125.407 724.483 124.584 726.495C123.761 728.507 122.559 730.166 120.979 731.472C119.398 732.779 117.471 733.569 115.198 733.843C114.558 733.922 113.892 733.967 113.2 733.98C112.507 733.993 112.05 734 111.828 734H102.697ZM108.105 728.984H111.828C112.181 728.984 112.657 728.977 113.258 728.964C113.859 728.938 114.401 728.879 114.885 728.788C116.113 728.539 117.112 727.965 117.883 727.063C118.667 726.162 119.241 725.078 119.607 723.811C119.986 722.543 120.175 721.237 120.175 719.892C120.175 718.481 119.979 717.142 119.588 715.875C119.209 714.607 118.627 713.536 117.844 712.661C117.06 711.786 116.074 711.23 114.885 710.995C114.401 710.891 113.859 710.832 113.258 710.819C112.657 710.806 112.181 710.799 111.828 710.799H108.105V728.984Z" fill="#222222" style="fill:#222222;fill:color(display-p3 0.1333 0.1333 0.1333);fill-opacity:1;"/>
<path d="M46.1555 784V763.173H55.897C59.6201 763.173 62.1395 765.469 62.1395 768.912C62.1395 771.459 61.1037 773.251 58.3324 774.118V774.202C60.6839 774.902 61.3557 776.302 61.5516 779.297C61.8036 782.572 62.0835 783.58 62.5034 783.86V784H59.4522C58.9763 783.608 58.9203 782.656 58.6963 779.325C58.5004 776.386 57.2687 775.322 54.5534 775.322H49.0108V784H46.1555ZM49.0108 765.637V773.027H54.9733C57.8006 773.027 59.2002 771.599 59.2002 769.332C59.2002 766.896 58.0525 765.637 55.1132 765.637H49.0108ZM82.02 784L81.2642 781.061H81.1802C79.6966 783.328 77.4571 784.448 74.7418 784.448C71.8305 784.448 69.3952 783.328 67.6876 781.425C65.952 779.521 64.9723 776.834 64.9723 773.671C64.9723 770.535 65.896 767.764 67.6316 765.805C69.3112 763.901 71.7746 762.753 74.9938 762.753C79.8925 762.753 82.7198 765.385 83.5036 769.22H80.5364C79.9205 766.868 78.157 765.217 74.9658 765.217C70.095 765.217 67.8835 768.884 67.8835 773.671C67.8835 778.625 70.7668 781.957 74.8818 781.957C79.0248 781.957 80.9843 779.157 81.0123 775.854V775.406H74.9658V772.971H83.8396V784H82.02ZM87.6256 784V763.173H96.5834C98.7389 763.173 100.39 763.761 101.566 764.937C102.434 765.833 102.966 767.036 102.966 768.548C102.966 770.815 101.678 772.271 99.4387 772.915V772.999C101.986 773.587 103.806 775.266 103.806 778.009C103.806 779.661 103.218 781.061 102.21 782.068C101.034 783.3 99.2427 784 97.0033 784H87.6256ZM90.4809 772.047H96.1915C98.6269 772.047 100.083 770.843 100.083 768.744C100.083 766.784 98.7668 765.637 96.5274 765.637H90.4809V772.047ZM90.4809 781.481H96.8353C98.263 781.481 99.2987 781.117 99.9705 780.445C100.558 779.885 100.894 779.073 100.894 778.093C100.894 775.602 99.1308 774.37 96.6674 774.37H90.4809V781.481ZM106.694 775.154V772.075H109.717V775.154H106.694ZM106.694 784V780.921H109.717V784H106.694ZM124.562 784V769.64H119.943V767.848C122.462 767.792 124.814 766.84 125.178 763.929H127.277V784H124.562ZM139.106 784.448C136.866 784.448 135.215 783.72 134.011 782.544C131.939 780.641 131.24 777.926 131.24 773.923C131.24 770.815 131.911 768.212 133.227 766.392C134.543 764.601 136.474 763.593 139.05 763.593C143.053 763.593 145.04 766.252 145.404 768.716H142.745C142.549 767.344 141.345 765.805 139.106 765.805C135.355 765.805 133.927 768.828 133.787 774.006H133.843C135.159 771.823 136.922 770.871 139.33 770.871C142.997 770.871 145.936 773.867 145.964 777.59C145.992 781.369 142.941 784.448 139.106 784.448ZM139.05 782.292C141.569 782.292 143.445 780.417 143.445 777.674C143.445 774.93 141.513 773.055 138.966 773.055C136.194 773.055 134.291 774.874 134.291 777.646C134.291 780.389 136.362 782.292 139.05 782.292ZM156.601 784.448C151.674 784.448 148.763 780.361 148.763 774.006C148.763 767.568 151.87 763.593 156.629 763.593C161.415 763.593 164.467 767.512 164.467 774.006C164.467 780.361 161.611 784.448 156.601 784.448ZM156.629 782.152C160.1 782.152 161.667 779.045 161.667 774.006C161.667 769.052 160.016 765.861 156.629 765.861C153.214 765.861 151.534 768.996 151.534 774.006C151.534 778.961 153.214 782.152 156.629 782.152ZM166.779 788.339V786.883C167.563 786.603 168.151 786.043 168.151 784.28V784H166.751V780.921H169.774V784.28C169.774 786.743 168.767 788.087 166.779 788.339ZM188.066 784.448C185.827 784.448 184.175 783.72 182.971 782.544C180.9 780.641 180.2 777.926 180.2 773.923C180.2 770.815 180.872 768.212 182.188 766.392C183.503 764.601 185.435 763.593 188.01 763.593C192.013 763.593 194.001 766.252 194.365 768.716H191.705C191.509 767.344 190.306 765.805 188.066 765.805C184.315 765.805 182.887 768.828 182.747 774.006H182.803C184.119 771.823 185.883 770.871 188.29 770.871C191.957 770.871 194.896 773.867 194.924 777.59C194.952 781.369 191.901 784.448 188.066 784.448ZM188.01 782.292C190.53 782.292 192.405 780.417 192.405 777.674C192.405 774.93 190.474 773.055 187.926 773.055C185.155 773.055 183.251 774.874 183.251 777.646C183.251 780.389 185.323 782.292 188.01 782.292ZM204.385 784.42C200.187 784.42 197.387 781.873 197.135 778.653H199.795C200.214 780.669 201.614 782.096 204.329 782.096C207.101 782.096 208.864 780.249 208.864 777.422C208.864 774.538 206.933 772.831 204.553 772.831C202.342 772.831 200.942 773.727 200.187 774.678H197.611L199.767 764.069H210.404V766.42H201.67L200.382 772.355H200.438C201.558 771.207 203.014 770.563 205.057 770.563C208.416 770.563 211.608 773.083 211.608 777.478C211.608 781.761 208.528 784.42 204.385 784.42ZM214.291 788.339V786.883C215.074 786.603 215.662 786.043 215.662 784.28V784H214.263V780.921H217.286V784.28C217.286 786.743 216.278 788.087 214.291 788.339ZM234.99 784.448C232.75 784.448 230.791 783.832 229.363 782.656C227.908 781.481 227.04 779.745 227.012 777.534H229.643C229.727 780.473 231.687 782.236 234.906 782.236C237.565 782.236 239.441 780.893 239.441 778.177C239.441 775.742 237.621 774.454 234.402 774.454H233.142V772.383H234.374C237.341 772.383 238.881 771.123 238.881 769.052C238.881 766.952 237.033 765.693 234.71 765.693C231.911 765.693 230.287 767.512 230.259 770.003H227.656C227.684 766.252 230.343 763.593 234.794 763.593C238.545 763.593 241.512 765.637 241.512 769.08C241.512 771.319 240.169 772.607 238.209 773.251V773.335C240.98 774.062 242.212 775.826 242.212 778.401C242.212 782.292 239.049 784.448 234.99 784.448ZM244.515 784C244.627 781.593 245.439 779.885 246.643 778.513C248.155 776.834 250.226 775.686 252.13 774.538C254.621 773.111 256.077 772.103 256.077 769.808C256.077 767.456 254.481 765.861 251.934 765.861C250.59 765.861 249.61 766.28 248.882 767.092C248.099 767.904 247.763 768.996 247.763 770.675H244.991C244.991 768.436 245.635 766.84 246.839 765.609C248.071 764.293 249.974 763.621 252.158 763.621C256.245 763.621 258.876 766.224 258.876 769.752C258.876 773.447 256.44 774.734 253.445 776.442C251.374 777.702 248.658 779.213 247.875 781.285L247.819 781.509H258.512V784H244.515ZM55.1692 828.42C49.2347 828.42 45.3717 823.885 45.3717 817.587C45.3717 811.456 49.0667 806.725 55.2532 806.725C57.6886 806.725 59.6481 807.425 61.0478 808.573C62.5314 809.777 63.4272 811.484 63.7071 813.472H60.8518C60.3759 810.924 58.3884 809.217 55.1972 809.217C50.7743 809.217 48.2829 812.8 48.2829 817.587C48.2829 822.569 51.0263 825.929 55.2252 825.929C59.0043 825.929 60.8238 823.381 61.0758 820.414H63.931C63.9031 822.485 62.9233 824.781 61.4397 826.208C59.984 827.664 57.8566 828.42 55.1692 828.42ZM67.3143 828V807.173H71.0093L75.3483 818.482C76.1881 820.75 77.4477 825.005 77.4477 825.005H77.5037C77.5037 825.005 78.7914 820.778 79.6312 818.482L83.8861 807.173H87.6932V828H84.9499V815.403C84.9499 813.556 85.1178 810.056 85.1178 810.056H85.0619C85.0619 810.056 84.2221 813.192 83.6062 814.815L78.5395 828H76.3L71.2333 814.815C70.6454 813.192 69.7777 810.056 69.7777 810.056H69.7217C69.7217 810.056 69.8896 813.556 69.8896 815.403V828H67.3143ZM97.8227 828V819.266L90.3206 807.173H93.5118L97.2629 813.444C98.1307 814.927 99.3064 817.335 99.3064 817.335H99.3624C99.3624 817.335 100.566 814.927 101.434 813.444L105.213 807.173H108.264L100.678 819.406V828H97.8227ZM110.944 828V807.173H113.799V813.612C113.799 815.011 113.743 816.439 113.687 817.447L123.737 807.145H127.32L118.95 815.515L127.992 828H124.661L116.963 817.363L113.799 820.47V828H110.944ZM129.575 819.154V816.075H132.598V819.154H129.575ZM129.575 828V824.921H132.598V828H129.575ZM150.942 828.448C146.015 828.448 143.104 824.361 143.104 818.006C143.104 811.568 146.211 807.593 150.97 807.593C155.757 807.593 158.808 811.512 158.808 818.006C158.808 824.361 155.953 828.448 150.942 828.448ZM150.97 826.152C154.441 826.152 156.009 823.045 156.009 818.006C156.009 813.052 154.357 809.861 150.97 809.861C147.555 809.861 145.875 812.996 145.875 818.006C145.875 822.961 147.555 826.152 150.97 826.152ZM161.12 832.339V830.883C161.904 830.603 162.492 830.043 162.492 828.28V828H161.092V824.921H164.115V828.28C164.115 830.743 163.108 832.087 161.12 832.339ZM181.82 828.448C179.58 828.448 177.621 827.832 176.193 826.656C174.737 825.481 173.87 823.745 173.842 821.534H176.473C176.557 824.473 178.516 826.236 181.736 826.236C184.395 826.236 186.27 824.893 186.27 822.177C186.27 819.742 184.451 818.454 181.232 818.454H179.972V816.383H181.204C184.171 816.383 185.711 815.123 185.711 813.052C185.711 810.952 183.863 809.693 181.54 809.693C178.74 809.693 177.117 811.512 177.089 814.003H174.485C174.513 810.252 177.173 807.593 181.624 807.593C185.375 807.593 188.342 809.637 188.342 813.08C188.342 815.319 186.998 816.607 185.039 817.251V817.335C187.81 818.062 189.042 819.826 189.042 822.401C189.042 826.292 185.879 828.448 181.82 828.448ZM193.538 828C193.958 821.002 197.625 814.031 202.132 810.392V810.336C202.132 810.336 200.565 810.448 198.465 810.448H190.711V808.069H204.736V810.224C200.705 813.808 196.786 820.19 196.394 828H193.538ZM205.215 832.339V830.883C205.999 830.603 206.586 830.043 206.586 828.28V828H205.187V824.921H208.21V828.28C208.21 830.743 207.202 832.087 205.215 832.339ZM225.298 828.42C221.099 828.42 218.3 825.873 218.048 822.653H220.707C221.127 824.669 222.527 826.096 225.242 826.096C228.014 826.096 229.777 824.249 229.777 821.422C229.777 818.538 227.846 816.831 225.466 816.831C223.255 816.831 221.855 817.727 221.099 818.678H218.524L220.679 808.069H231.317V810.42H222.583L221.295 816.355H221.351C222.471 815.207 223.927 814.563 225.97 814.563C229.329 814.563 232.52 817.083 232.52 821.478C232.52 825.761 229.441 828.42 225.298 828.42ZM242.985 828.448C238.059 828.448 235.147 824.361 235.147 818.006C235.147 811.568 238.255 807.593 243.013 807.593C247.8 807.593 250.851 811.512 250.851 818.006C250.851 824.361 247.996 828.448 242.985 828.448ZM243.013 826.152C246.485 826.152 248.052 823.045 248.052 818.006C248.052 813.052 246.401 809.861 243.013 809.861C239.598 809.861 237.919 812.996 237.919 818.006C237.919 822.961 239.598 826.152 243.013 826.152ZM253.164 832.339V830.883C253.948 830.603 254.535 830.043 254.535 828.28V828H253.136V824.921H256.159V828.28C256.159 830.743 255.151 832.087 253.164 832.339ZM273.863 828.448C271.624 828.448 269.664 827.832 268.236 826.656C266.781 825.481 265.913 823.745 265.885 821.534H268.516C268.6 824.473 270.56 826.236 273.779 826.236C276.438 826.236 278.314 824.893 278.314 822.177C278.314 819.742 276.494 818.454 273.275 818.454H272.016V816.383H273.247C276.214 816.383 277.754 815.123 277.754 813.052C277.754 810.952 275.907 809.693 273.583 809.693C270.784 809.693 269.16 811.512 269.132 814.003H266.529C266.557 810.252 269.216 807.593 273.667 807.593C277.418 807.593 280.385 809.637 280.385 813.08C280.385 815.319 279.042 816.607 277.082 817.251V817.335C279.854 818.062 281.085 819.826 281.085 822.401C281.085 826.292 277.922 828.448 273.863 828.448ZM285.582 828C286.002 821.002 289.669 814.031 294.176 810.392V810.336C294.176 810.336 292.608 810.448 290.509 810.448H282.755V808.069H296.779V810.224C292.748 813.808 288.829 820.19 288.437 828H285.582ZM46.1555 872V851.173H49.0108V859.935H59.7601V851.173H62.6434V872H59.7601V862.258H49.0108V872H46.1555ZM66.9589 872V851.173H81.7672V853.693H69.8142V859.991H80.6195V862.37H69.8142V869.397H82.0751V872H66.9589ZM84.0911 872L91.2573 861.307L84.6229 851.173H87.9261L91.0333 856.184C91.8451 857.5 92.9369 859.599 92.9369 859.599H92.9928C92.9928 859.599 94.1126 857.5 94.9524 856.184L98.0876 851.173H101.223L94.4765 861.335L101.475 872H98.0596L94.7564 866.569C93.9446 865.226 92.8529 863.098 92.8529 863.098H92.7969C92.7969 863.098 91.6212 865.226 90.7534 866.569L87.3383 872H84.0911ZM103.714 863.154V860.075H106.737V863.154H103.714ZM103.714 872V868.921H106.737V872H103.714ZM117.859 859.711L118.195 857.472H121.078L121.862 852.041H123.933L123.15 857.472H127.013L127.797 852.041H129.896L129.112 857.472H132.051L131.688 859.711H128.804L128.188 864.05H131.072L130.708 866.317H127.88L127.069 872H124.969L125.781 866.317H121.918L121.134 872H119.035L119.846 866.317H116.879L117.243 864.05H120.154L120.77 859.711H117.859ZM122.842 859.711L122.254 864.05H126.089L126.705 859.711H122.842ZM133.705 872L141.319 851.173H144.51L152.18 872H149.045L146.974 865.926H138.772L136.644 872H133.705ZM141.599 857.864L139.556 863.686H146.218L144.23 857.864C143.531 855.848 142.971 853.441 142.971 853.441H142.887C142.887 853.441 142.271 855.932 141.599 857.864ZM162.041 872.448C157.114 872.448 154.203 868.361 154.203 862.006C154.203 855.568 157.31 851.593 162.069 851.593C166.856 851.593 169.907 855.512 169.907 862.006C169.907 868.361 167.051 872.448 162.041 872.448ZM162.069 870.152C165.54 870.152 167.107 867.045 167.107 862.006C167.107 857.052 165.456 853.861 162.069 853.861C158.654 853.861 156.974 856.996 156.974 862.006C156.974 866.961 158.654 870.152 162.069 870.152ZM182.223 872V867.157H172.566V864.75L182.643 851.845H184.855V865.058H188.102V867.157H184.855V872H182.223ZM174.749 865.17C174.749 865.17 176.569 865.058 177.717 865.058H182.223V858.283C182.223 857.22 182.363 855.344 182.363 855.344H182.307C182.307 855.344 181.384 856.912 180.572 857.947L176.877 862.65C176.093 863.63 174.749 865.114 174.749 865.114V865.17ZM193.806 872V857.64H189.187V855.848C191.707 855.792 194.058 854.84 194.422 851.929H196.522V872H193.806ZM200.12 872C200.232 869.593 201.044 867.885 202.248 866.513C203.759 864.834 205.831 863.686 207.734 862.538C210.226 861.111 211.681 860.103 211.681 857.808C211.681 855.456 210.086 853.861 207.538 853.861C206.195 853.861 205.215 854.28 204.487 855.092C203.703 855.904 203.367 856.996 203.367 858.675H200.596C200.596 856.436 201.24 854.84 202.444 853.609C203.675 852.293 205.579 851.621 207.762 851.621C211.849 851.621 214.481 854.224 214.481 857.752C214.481 861.447 212.045 862.734 209.05 864.442C206.979 865.702 204.263 867.213 203.479 869.285L203.423 869.509H214.117V872H200.12ZM225.052 872.448C220.126 872.448 217.214 868.361 217.214 862.006C217.214 855.568 220.322 851.593 225.08 851.593C229.867 851.593 232.918 855.512 232.918 862.006C232.918 868.361 230.063 872.448 225.052 872.448ZM225.08 870.152C228.552 870.152 230.119 867.045 230.119 862.006C230.119 857.052 228.468 853.861 225.08 853.861C221.665 853.861 219.986 856.996 219.986 862.006C219.986 866.961 221.665 870.152 225.08 870.152Z" fill="#222222" style="fill:#222222;fill:color(display-p3 0.1333 0.1333 0.1333);fill-opacity:1;"/>
<path d="M672.5 734.588C670.724 734.588 669.032 734.274 667.425 733.647C665.818 733.007 664.395 732.067 663.154 730.826C661.926 729.585 660.952 728.05 660.234 726.221C659.528 724.392 659.176 722.282 659.176 719.892C659.176 716.769 659.77 714.117 660.959 711.936C662.161 709.741 663.767 708.069 665.779 706.92C667.804 705.77 670.044 705.195 672.5 705.195C676.132 705.195 678.986 706.038 681.063 707.723C683.141 709.408 684.532 711.792 685.237 714.875L679.79 715.659C679.28 714.013 678.444 712.7 677.282 711.72C676.132 710.728 674.656 710.225 672.853 710.212C671.063 710.185 669.574 710.571 668.385 711.368C667.197 712.165 666.302 713.294 665.701 714.758C665.113 716.221 664.819 717.932 664.819 719.892C664.819 721.851 665.113 723.549 665.701 724.986C666.302 726.423 667.197 727.54 668.385 728.337C669.574 729.134 671.063 729.545 672.853 729.572C674.068 729.598 675.165 729.389 676.145 728.944C677.138 728.5 677.974 727.801 678.653 726.848C679.333 725.894 679.816 724.673 680.103 723.183H675.636V719.069H685.786C685.812 719.238 685.832 719.539 685.845 719.97C685.858 720.401 685.864 720.649 685.864 720.715C685.864 723.419 685.316 725.816 684.218 727.906C683.121 729.996 681.573 731.636 679.574 732.824C677.576 734 675.218 734.588 672.5 734.588ZM701.274 734.588C699.001 734.588 697.003 734.131 695.278 733.216C693.554 732.289 692.208 730.989 691.242 729.317C690.275 727.645 689.792 725.679 689.792 723.419V705.822L695.2 705.783V723.379C695.2 724.307 695.357 725.15 695.67 725.907C695.984 726.665 696.415 727.318 696.963 727.867C697.525 728.415 698.172 728.84 698.903 729.14C699.648 729.428 700.438 729.572 701.274 729.572C702.136 729.572 702.933 729.421 703.665 729.121C704.41 728.82 705.056 728.396 705.605 727.847C706.153 727.298 706.578 726.645 706.879 725.888C707.192 725.13 707.349 724.294 707.349 723.379V705.783H712.757V723.419C712.757 725.679 712.274 727.645 711.307 729.317C710.34 730.989 708.995 732.289 707.27 733.216C705.546 734.131 703.547 734.588 701.274 734.588ZM718.619 734V705.783H723.949V729.023H736.098V734H718.619Z" fill="black" style="fill:black;fill-opacity:1;"/>
<path d="M660.155 784V763.173H669.897C673.62 763.173 676.139 765.469 676.139 768.912C676.139 771.459 675.104 773.251 672.332 774.118V774.202C674.684 774.902 675.356 776.302 675.552 779.297C675.804 782.572 676.084 783.58 676.503 783.86V784H673.452C672.976 783.608 672.92 782.656 672.696 779.325C672.5 776.386 671.269 775.322 668.553 775.322H663.011V784H660.155ZM663.011 765.637V773.027H668.973C671.801 773.027 673.2 771.599 673.2 769.332C673.2 766.896 672.053 765.637 669.113 765.637H663.011ZM696.02 784L695.264 781.061H695.18C693.697 783.328 691.457 784.448 688.742 784.448C685.831 784.448 683.395 783.328 681.688 781.425C679.952 779.521 678.972 776.834 678.972 773.671C678.972 770.535 679.896 767.764 681.632 765.805C683.311 763.901 685.775 762.753 688.994 762.753C693.893 762.753 696.72 765.385 697.504 769.22H694.536C693.921 766.868 692.157 765.217 688.966 765.217C684.095 765.217 681.884 768.884 681.884 773.671C681.884 778.625 684.767 781.957 688.882 781.957C693.025 781.957 694.984 779.157 695.012 775.854V775.406H688.966V772.971H697.84V784H696.02ZM701.626 784V763.173H710.583C712.739 763.173 714.39 763.761 715.566 764.937C716.434 765.833 716.966 767.036 716.966 768.548C716.966 770.815 715.678 772.271 713.439 772.915V772.999C715.986 773.587 717.806 775.266 717.806 778.009C717.806 779.661 717.218 781.061 716.21 782.068C715.034 783.3 713.243 784 711.003 784H701.626ZM704.481 772.047H710.191C712.627 772.047 714.083 770.843 714.083 768.744C714.083 766.784 712.767 765.637 710.527 765.637H704.481V772.047ZM704.481 781.481H710.835C712.263 781.481 713.299 781.117 713.971 780.445C714.558 779.885 714.894 779.073 714.894 778.093C714.894 775.602 713.131 774.37 710.667 774.37H704.481V781.481ZM720.694 775.154V772.075H723.717V775.154H720.694ZM720.694 784V780.921H723.717V784H720.694ZM733.859 784C733.971 781.593 734.783 779.885 735.986 778.513C737.498 776.834 739.57 775.686 741.473 774.538C743.964 773.111 745.42 772.103 745.42 769.808C745.42 767.456 743.824 765.861 741.277 765.861C739.933 765.861 738.954 766.28 738.226 767.092C737.442 767.904 737.106 768.996 737.106 770.675H734.335C734.335 768.436 734.979 766.84 736.182 765.609C737.414 764.293 739.318 763.621 741.501 763.621C745.588 763.621 748.219 766.224 748.219 769.752C748.219 773.447 745.784 774.734 742.789 776.442C740.717 777.702 738.002 779.213 737.218 781.285L737.162 781.509H747.855V784H733.859ZM750.589 784C750.701 781.593 751.513 779.885 752.717 778.513C754.228 776.834 756.3 775.686 758.203 774.538C760.695 773.111 762.15 772.103 762.15 769.808C762.15 767.456 760.555 765.861 758.007 765.861C756.664 765.861 755.684 766.28 754.956 767.092C754.172 767.904 753.836 768.996 753.836 770.675H751.065C751.065 768.436 751.709 766.84 752.913 765.609C754.144 764.293 756.048 763.621 758.231 763.621C762.318 763.621 764.95 766.224 764.95 769.752C764.95 773.447 762.514 774.734 759.519 776.442C757.447 777.702 754.732 779.213 753.948 781.285L753.892 781.509H764.586V784H750.589ZM776.322 784V779.157H766.665V776.75L776.742 763.845H778.954V777.058H782.201V779.157H778.954V784H776.322ZM768.848 777.17C768.848 777.17 770.668 777.058 771.815 777.058H776.322V770.283C776.322 769.22 776.462 767.344 776.462 767.344H776.406C776.406 767.344 775.482 768.912 774.671 769.947L770.976 774.65C770.192 775.63 768.848 777.114 768.848 777.114V777.17ZM784.469 788.339V786.883C785.253 786.603 785.841 786.043 785.841 784.28V784H784.441V780.921H787.465V784.28C787.465 786.743 786.457 788.087 784.469 788.339ZM802.23 784V769.64H797.611V767.848C800.13 767.792 802.481 766.84 802.845 763.929H804.945V784H802.23ZM816.298 784.448C812.491 784.448 808.571 782.712 808.571 778.289C808.571 775.462 810.391 773.811 812.938 773.111V773.027C810.783 772.383 809.579 770.871 809.579 768.828C809.579 765.637 812.463 763.565 816.214 763.565C819.993 763.565 822.876 765.609 822.876 768.8C822.876 770.843 821.672 772.355 819.545 773.027V773.111C822.092 773.755 823.828 775.602 823.828 778.289C823.828 782.74 820.105 784.448 816.298 784.448ZM816.214 772.103C818.705 772.103 820.245 770.899 820.245 768.912C820.245 766.924 818.705 765.749 816.214 765.749C813.722 765.749 812.183 766.924 812.183 768.912C812.183 770.899 813.722 772.103 816.214 772.103ZM816.298 782.236C819.293 782.236 821.14 780.753 821.14 778.261C821.14 775.742 819.293 774.146 816.214 774.146C813.162 774.146 811.343 775.742 811.343 778.261C811.343 780.781 813.19 782.236 816.298 782.236ZM834.078 784.448C831.838 784.448 830.187 783.72 828.983 782.544C826.912 780.641 826.212 777.926 826.212 773.923C826.212 770.815 826.884 768.212 828.199 766.392C829.515 764.601 831.446 763.593 834.022 763.593C838.025 763.593 840.012 766.252 840.376 768.716H837.717C837.521 767.344 836.317 765.805 834.078 765.805C830.327 765.805 828.899 768.828 828.759 774.006H828.815C830.131 771.823 831.894 770.871 834.302 770.871C837.969 770.871 840.908 773.867 840.936 777.59C840.964 781.369 837.913 784.448 834.078 784.448ZM834.022 782.292C836.541 782.292 838.417 780.417 838.417 777.674C838.417 774.93 836.485 773.055 833.938 773.055C831.166 773.055 829.263 774.874 829.263 777.646C829.263 780.389 831.334 782.292 834.022 782.292ZM843.517 788.339V786.883C844.301 786.603 844.889 786.043 844.889 784.28V784H843.489V780.921H846.513V784.28C846.513 786.743 845.505 788.087 843.517 788.339ZM864.804 784.448C862.565 784.448 860.913 783.72 859.71 782.544C857.638 780.641 856.938 777.926 856.938 773.923C856.938 770.815 857.61 768.212 858.926 766.392C860.242 764.601 862.173 763.593 864.748 763.593C868.751 763.593 870.739 766.252 871.103 768.716H868.444C868.248 767.344 867.044 765.805 864.804 765.805C861.053 765.805 859.626 768.828 859.486 774.006H859.542C860.857 771.823 862.621 770.871 865.028 770.871C868.696 770.871 871.635 773.867 871.663 777.59C871.691 781.369 868.64 784.448 864.804 784.448ZM864.748 782.292C867.268 782.292 869.143 780.417 869.143 777.674C869.143 774.93 867.212 773.055 864.665 773.055C861.893 773.055 859.99 774.874 859.99 777.646C859.99 780.389 862.061 782.292 864.748 782.292ZM881.124 784.42C876.925 784.42 874.125 781.873 873.874 778.653H876.533C876.953 780.669 878.352 782.096 881.068 782.096C883.839 782.096 885.603 780.249 885.603 777.422C885.603 774.538 883.671 772.831 881.292 772.831C879.08 772.831 877.681 773.727 876.925 774.678H874.349L876.505 764.069H887.142V766.42H878.408L877.121 772.355H877.177C878.296 771.207 879.752 770.563 881.796 770.563C885.155 770.563 888.346 773.083 888.346 777.478C888.346 781.761 885.267 784.42 881.124 784.42ZM669.169 828.42C663.235 828.42 659.372 823.885 659.372 817.587C659.372 811.456 663.067 806.725 669.253 806.725C671.689 806.725 673.648 807.425 675.048 808.573C676.531 809.777 677.427 811.484 677.707 813.472H674.852C674.376 810.924 672.388 809.217 669.197 809.217C664.774 809.217 662.283 812.8 662.283 817.587C662.283 822.569 665.026 825.929 669.225 825.929C673.004 825.929 674.824 823.381 675.076 820.414H677.931C677.903 822.485 676.923 824.781 675.44 826.208C673.984 827.664 671.857 828.42 669.169 828.42ZM681.314 828V807.173H685.009L689.348 818.482C690.188 820.75 691.448 825.005 691.448 825.005H691.504C691.504 825.005 692.791 820.778 693.631 818.482L697.886 807.173H701.693V828H698.95V815.403C698.95 813.556 699.118 810.056 699.118 810.056H699.062C699.062 810.056 698.222 813.192 697.606 814.815L692.539 828H690.3L685.233 814.815C684.645 813.192 683.778 810.056 683.778 810.056H683.722C683.722 810.056 683.89 813.556 683.89 815.403V828H681.314ZM711.823 828V819.266L704.321 807.173H707.512L711.263 813.444C712.131 814.927 713.306 817.335 713.306 817.335H713.362C713.362 817.335 714.566 814.927 715.434 813.444L719.213 807.173H722.264L714.678 819.406V828H711.823ZM724.944 828V807.173H727.799V813.612C727.799 815.011 727.743 816.439 727.687 817.447L737.737 807.145H741.32L732.95 815.515L741.992 828H738.661L730.963 817.363L727.799 820.47V828H724.944ZM743.575 819.154V816.075H746.598V819.154H743.575ZM743.575 828V824.921H746.598V828H743.575ZM764.942 828.448C760.015 828.448 757.104 824.361 757.104 818.006C757.104 811.568 760.211 807.593 764.97 807.593C769.757 807.593 772.808 811.512 772.808 818.006C772.808 824.361 769.953 828.448 764.942 828.448ZM764.97 826.152C768.441 826.152 770.009 823.045 770.009 818.006C770.009 813.052 768.357 809.861 764.97 809.861C761.555 809.861 759.875 812.996 759.875 818.006C759.875 822.961 761.555 826.152 764.97 826.152ZM775.12 832.339V830.883C775.904 830.603 776.492 830.043 776.492 828.28V828H775.092V824.921H778.115V828.28C778.115 830.743 777.108 832.087 775.12 832.339ZM792.88 828V813.64H788.261V811.848C790.781 811.792 793.132 810.84 793.496 807.929H795.596V828H792.88ZM806.221 828.42C802.022 828.42 799.222 825.873 798.97 822.653H801.63C802.05 824.669 803.449 826.096 806.165 826.096C808.936 826.096 810.699 824.249 810.699 821.422C810.699 818.538 808.768 816.831 806.388 816.831C804.177 816.831 802.777 817.727 802.022 818.678H799.446L801.602 808.069H812.239V810.42H803.505L802.218 816.355H802.273C803.393 815.207 804.849 814.563 806.892 814.563C810.252 814.563 813.443 817.083 813.443 821.478C813.443 825.761 810.363 828.42 806.221 828.42ZM816.126 832.339V830.883C816.909 830.603 817.497 830.043 817.497 828.28V828H816.098V824.921H819.121V828.28C819.121 830.743 818.113 832.087 816.126 832.339ZM837.413 828.448C835.173 828.448 833.522 827.72 832.318 826.544C830.247 824.641 829.547 821.926 829.547 817.923C829.547 814.815 830.219 812.212 831.534 810.392C832.85 808.601 834.782 807.593 837.357 807.593C841.36 807.593 843.347 810.252 843.711 812.716H841.052C840.856 811.344 839.652 809.805 837.413 809.805C833.662 809.805 832.234 812.828 832.094 818.006H832.15C833.466 815.823 835.229 814.871 837.637 814.871C841.304 814.871 844.243 817.867 844.271 821.59C844.299 825.369 841.248 828.448 837.413 828.448ZM837.357 826.292C839.876 826.292 841.752 824.417 841.752 821.674C841.752 818.93 839.82 817.055 837.273 817.055C834.502 817.055 832.598 818.874 832.598 821.646C832.598 824.389 834.67 826.292 837.357 826.292ZM846.433 828C846.544 825.593 847.356 823.885 848.56 822.513C850.072 820.834 852.143 819.686 854.047 818.538C856.538 817.111 857.994 816.103 857.994 813.808C857.994 811.456 856.398 809.861 853.851 809.861C852.507 809.861 851.527 810.28 850.799 811.092C850.016 811.904 849.68 812.996 849.68 814.675H846.908C846.908 812.436 847.552 810.84 848.756 809.609C849.988 808.293 851.891 807.621 854.075 807.621C858.162 807.621 860.793 810.224 860.793 813.752C860.793 817.447 858.358 818.734 855.362 820.442C853.291 821.702 850.575 823.213 849.792 825.285L849.736 825.509H860.429V828H846.433ZM863.583 832.339V830.883C864.366 830.603 864.954 830.043 864.954 828.28V828H863.555V824.921H866.578V828.28C866.578 830.743 865.57 832.087 863.583 832.339ZM881.343 828V813.64H876.724V811.848C879.243 811.792 881.595 810.84 881.959 807.929H884.058V828H881.343ZM887.657 828C887.769 825.593 888.58 823.885 889.784 822.513C891.296 820.834 893.367 819.686 895.271 818.538C897.762 817.111 899.218 816.103 899.218 813.808C899.218 811.456 897.622 809.861 895.075 809.861C893.731 809.861 892.751 810.28 892.024 811.092C891.24 811.904 890.904 812.996 890.904 814.675H888.133C888.133 812.436 888.776 810.84 889.98 809.609C891.212 808.293 893.115 807.621 895.299 807.621C899.386 807.621 902.017 810.224 902.017 813.752C902.017 817.447 899.582 818.734 896.586 820.442C894.515 821.702 891.8 823.213 891.016 825.285L890.96 825.509H901.653V828H887.657ZM660.155 872V851.173H663.011V859.935H673.76V851.173H676.643V872H673.76V862.258H663.011V872H660.155ZM680.959 872V851.173H695.767V853.693H683.814V859.991H694.619V862.37H683.814V869.397H696.075V872H680.959ZM698.091 872L705.257 861.307L698.623 851.173H701.926L705.033 856.184C705.845 857.5 706.937 859.599 706.937 859.599H706.993C706.993 859.599 708.113 857.5 708.952 856.184L712.088 851.173H715.223L708.476 861.335L715.475 872H712.06L708.756 866.569C707.945 865.226 706.853 863.098 706.853 863.098H706.797C706.797 863.098 705.621 865.226 704.753 866.569L701.338 872H698.091ZM717.714 863.154V860.075H720.737V863.154H717.714ZM717.714 872V868.921H720.737V872H717.714ZM731.859 859.711L732.195 857.472H735.078L735.862 852.041H737.933L737.15 857.472H741.013L741.797 852.041H743.896L743.112 857.472H746.051L745.688 859.711H742.804L742.188 864.05H745.072L744.708 866.317H741.88L741.069 872H738.969L739.781 866.317H735.918L735.134 872H733.035L733.846 866.317H730.879L731.243 864.05H734.154L734.77 859.711H731.859ZM736.842 859.711L736.254 864.05H740.089L740.705 859.711H736.842ZM749.329 872V851.173H764.137V853.693H752.184V859.991H762.989V862.37H752.184V869.397H764.445V872H749.329ZM775.139 872.448C770.212 872.448 767.301 868.361 767.301 862.006C767.301 855.568 770.408 851.593 775.167 851.593C779.953 851.593 783.005 855.512 783.005 862.006C783.005 868.361 780.149 872.448 775.139 872.448ZM775.167 870.152C778.638 870.152 780.205 867.045 780.205 862.006C780.205 857.052 778.554 853.861 775.167 853.861C771.751 853.861 770.072 856.996 770.072 862.006C770.072 866.961 771.751 870.152 775.167 870.152ZM786.644 872V851.173H795.601C797.757 851.173 799.408 851.761 800.584 852.937C801.452 853.833 801.984 855.036 801.984 856.548C801.984 858.815 800.696 860.271 798.457 860.915V860.999C801.004 861.587 802.824 863.266 802.824 866.009C802.824 867.661 802.236 869.061 801.228 870.068C800.052 871.3 798.261 872 796.021 872H786.644ZM789.499 860.047H795.209C797.645 860.047 799.1 858.843 799.1 856.744C799.1 854.784 797.785 853.637 795.545 853.637H789.499V860.047ZM789.499 869.481H795.853C797.281 869.481 798.317 869.117 798.988 868.445C799.576 867.885 799.912 867.073 799.912 866.093C799.912 863.602 798.149 862.37 795.685 862.37H789.499V869.481ZM804.375 872L811.989 851.173H815.18L822.85 872H819.715L817.643 865.926H809.441L807.314 872H804.375ZM812.269 857.864L810.225 863.686H816.887L814.9 857.864C814.2 855.848 813.64 853.441 813.64 853.441H813.556C813.556 853.441 812.94 855.932 812.269 857.864ZM834.222 872V867.157H824.564V864.75L834.642 851.845H836.853V865.058H840.1V867.157H836.853V872H834.222ZM826.748 865.17C826.748 865.17 828.567 865.058 829.715 865.058H834.222V858.283C834.222 857.22 834.362 855.344 834.362 855.344H834.306C834.306 855.344 833.382 856.912 832.57 857.947L828.875 862.65C828.091 863.63 826.748 865.114 826.748 865.114V865.17ZM845.805 872V857.64H841.186V855.848C843.705 855.792 846.057 854.84 846.42 851.929H848.52V872H845.805Z" fill="black" style="fill:black;fill-opacity:1;"/>
<path d="M53.8178 1044L45.196 1015.78H50.6826L57.7368 1038.98L64.9086 1015.78H70.3953L61.7734 1044H53.8178ZM73.739 1044V1015.78H79.0689V1044H73.739ZM91.4882 1044V1020.76H82.592V1015.78H105.714V1020.76H96.8181V1044H91.4882Z" fill="black" style="fill:black;fill-opacity:1;"/>
<path d="M47.1555 1094V1073.17H56.897C60.6201 1073.17 63.1395 1075.47 63.1395 1078.91C63.1395 1081.46 62.1037 1083.25 59.3324 1084.12V1084.2C61.6839 1084.9 62.3557 1086.3 62.5516 1089.3C62.8036 1092.57 63.0835 1093.58 63.5034 1093.86V1094H60.4522C59.9763 1093.61 59.9203 1092.66 59.6963 1089.33C59.5004 1086.39 58.2687 1085.32 55.5534 1085.32H50.0108V1094H47.1555ZM50.0108 1075.64V1083.03H55.9733C58.8006 1083.03 60.2002 1081.6 60.2002 1079.33C60.2002 1076.9 59.0525 1075.64 56.1132 1075.64H50.0108ZM83.02 1094L82.2642 1091.06H82.1802C80.6966 1093.33 78.4571 1094.45 75.7418 1094.45C72.8305 1094.45 70.3952 1093.33 68.6876 1091.42C66.952 1089.52 65.9723 1086.83 65.9723 1083.67C65.9723 1080.54 66.896 1077.76 68.6316 1075.8C70.3112 1073.9 72.7746 1072.75 75.9938 1072.75C80.8925 1072.75 83.7198 1075.38 84.5036 1079.22H81.5364C80.9205 1076.87 79.157 1075.22 75.9658 1075.22C71.095 1075.22 68.8835 1078.88 68.8835 1083.67C68.8835 1088.63 71.7668 1091.96 75.8818 1091.96C80.0248 1091.96 81.9843 1089.16 82.0123 1085.85V1085.41H75.9658V1082.97H84.8396V1094H83.02ZM88.6256 1094V1073.17H97.5834C99.7389 1073.17 101.39 1073.76 102.566 1074.94C103.434 1075.83 103.966 1077.04 103.966 1078.55C103.966 1080.82 102.678 1082.27 100.439 1082.91V1083C102.986 1083.59 104.806 1085.27 104.806 1088.01C104.806 1089.66 104.218 1091.06 103.21 1092.07C102.034 1093.3 100.243 1094 98.0033 1094H88.6256ZM91.4809 1082.05H97.1915C99.6269 1082.05 101.083 1080.84 101.083 1078.74C101.083 1076.78 99.7668 1075.64 97.5274 1075.64H91.4809V1082.05ZM91.4809 1091.48H97.8353C99.263 1091.48 100.299 1091.12 100.971 1090.44C101.558 1089.89 101.894 1089.07 101.894 1088.09C101.894 1085.6 100.131 1084.37 97.6674 1084.37H91.4809V1091.48ZM107.694 1085.15V1082.07H110.717V1085.15H107.694ZM107.694 1094V1090.92H110.717V1094H107.694ZM120.859 1094C120.971 1091.59 121.783 1089.89 122.986 1088.51C124.498 1086.83 126.57 1085.69 128.473 1084.54C130.964 1083.11 132.42 1082.1 132.42 1079.81C132.42 1077.46 130.824 1075.86 128.277 1075.86C126.933 1075.86 125.954 1076.28 125.226 1077.09C124.442 1077.9 124.106 1079 124.106 1080.68H121.335C121.335 1078.44 121.979 1076.84 123.182 1075.61C124.414 1074.29 126.318 1073.62 128.501 1073.62C132.588 1073.62 135.219 1076.22 135.219 1079.75C135.219 1083.45 132.784 1084.73 129.789 1086.44C127.717 1087.7 125.002 1089.21 124.218 1091.28L124.162 1091.51H134.855V1094H120.859ZM144.615 1094.42C140.416 1094.42 137.617 1091.87 137.365 1088.65H140.025C140.444 1090.67 141.844 1092.1 144.559 1092.1C147.331 1092.1 149.094 1090.25 149.094 1087.42C149.094 1084.54 147.163 1082.83 144.783 1082.83C142.572 1082.83 141.172 1083.73 140.416 1084.68H137.841L139.997 1074.07H150.634V1076.42H141.9L140.612 1082.35H140.668C141.788 1081.21 143.244 1080.56 145.287 1080.56C148.646 1080.56 151.838 1083.08 151.838 1087.48C151.838 1091.76 148.758 1094.42 144.615 1094.42ZM161.127 1094.42C156.928 1094.42 154.129 1091.87 153.877 1088.65H156.536C156.956 1090.67 158.356 1092.1 161.071 1092.1C163.842 1092.1 165.606 1090.25 165.606 1087.42C165.606 1084.54 163.674 1082.83 161.295 1082.83C159.083 1082.83 157.684 1083.73 156.928 1084.68H154.353L156.508 1074.07H167.145V1076.42H158.412L157.124 1082.35H157.18C158.3 1081.21 159.755 1080.56 161.799 1080.56C165.158 1080.56 168.349 1083.08 168.349 1087.48C168.349 1091.76 165.27 1094.42 161.127 1094.42ZM171.032 1098.34V1096.88C171.816 1096.6 172.404 1096.04 172.404 1094.28V1094H171.004V1090.92H174.027V1094.28C174.027 1096.74 173.02 1098.09 171.032 1098.34ZM184.089 1094C184.201 1091.59 185.013 1089.89 186.217 1088.51C187.728 1086.83 189.8 1085.69 191.703 1084.54C194.195 1083.11 195.65 1082.1 195.65 1079.81C195.65 1077.46 194.055 1075.86 191.507 1075.86C190.164 1075.86 189.184 1076.28 188.456 1077.09C187.672 1077.9 187.337 1079 187.337 1080.68H184.565C184.565 1078.44 185.209 1076.84 186.413 1075.61C187.644 1074.29 189.548 1073.62 191.731 1073.62C195.818 1073.62 198.45 1076.22 198.45 1079.75C198.45 1083.45 196.014 1084.73 193.019 1086.44C190.948 1087.7 188.232 1089.21 187.448 1091.28L187.392 1091.51H198.086V1094H184.089ZM207.846 1094.42C203.647 1094.42 200.848 1091.87 200.596 1088.65H203.255C203.675 1090.67 205.074 1092.1 207.79 1092.1C210.561 1092.1 212.325 1090.25 212.325 1087.42C212.325 1084.54 210.393 1082.83 208.014 1082.83C205.802 1082.83 204.403 1083.73 203.647 1084.68H201.071L203.227 1074.07H213.864V1076.42H205.13L203.843 1082.35H203.899C205.018 1081.21 206.474 1080.56 208.518 1080.56C211.877 1080.56 215.068 1083.08 215.068 1087.48C215.068 1091.76 211.989 1094.42 207.846 1094.42ZM224.357 1094.42C220.158 1094.42 217.359 1091.87 217.107 1088.65H219.766C220.186 1090.67 221.586 1092.1 224.301 1092.1C227.073 1092.1 228.836 1090.25 228.836 1087.42C228.836 1084.54 226.905 1082.83 224.525 1082.83C222.314 1082.83 220.914 1083.73 220.158 1084.68H217.583L219.738 1074.07H230.376V1076.42H221.642L220.354 1082.35H220.41C221.53 1081.21 222.986 1080.56 225.029 1080.56C228.388 1080.56 231.58 1083.08 231.58 1087.48C231.58 1091.76 228.5 1094.42 224.357 1094.42ZM234.262 1098.34V1096.88C235.046 1096.6 235.634 1096.04 235.634 1094.28V1094H234.234V1090.92H237.258V1094.28C237.258 1096.74 236.25 1098.09 234.262 1098.34ZM247.32 1094C247.432 1091.59 248.243 1089.89 249.447 1088.51C250.959 1086.83 253.03 1085.69 254.934 1084.54C257.425 1083.11 258.881 1082.1 258.881 1079.81C258.881 1077.46 257.285 1075.86 254.738 1075.86C253.394 1075.86 252.414 1076.28 251.687 1077.09C250.903 1077.9 250.567 1079 250.567 1080.68H247.796C247.796 1078.44 248.439 1076.84 249.643 1075.61C250.875 1074.29 252.778 1073.62 254.962 1073.62C259.049 1073.62 261.68 1076.22 261.68 1079.75C261.68 1083.45 259.245 1084.73 256.249 1086.44C254.178 1087.7 251.463 1089.21 250.679 1091.28L250.623 1091.51H261.316V1094H247.32ZM271.076 1094.42C266.877 1094.42 264.078 1091.87 263.826 1088.65H266.485C266.905 1090.67 268.305 1092.1 271.02 1092.1C273.791 1092.1 275.555 1090.25 275.555 1087.42C275.555 1084.54 273.624 1082.83 271.244 1082.83C269.033 1082.83 267.633 1083.73 266.877 1084.68H264.302L266.457 1074.07H277.095V1076.42H268.361L267.073 1082.35H267.129C268.249 1081.21 269.704 1080.56 271.748 1080.56C275.107 1080.56 278.298 1083.08 278.298 1087.48C278.298 1091.76 275.219 1094.42 271.076 1094.42ZM287.588 1094.42C283.389 1094.42 280.589 1091.87 280.337 1088.65H282.997C283.417 1090.67 284.816 1092.1 287.532 1092.1C290.303 1092.1 292.067 1090.25 292.067 1087.42C292.067 1084.54 290.135 1082.83 287.756 1082.83C285.544 1082.83 284.145 1083.73 283.389 1084.68H280.813L282.969 1074.07H293.606V1076.42H284.872L283.585 1082.35H283.641C284.76 1081.21 286.216 1080.56 288.26 1080.56C291.619 1080.56 294.81 1083.08 294.81 1087.48C294.81 1091.76 291.731 1094.42 287.588 1094.42ZM56.1692 1138.42C50.2347 1138.42 46.3717 1133.89 46.3717 1127.59C46.3717 1121.46 50.0667 1116.73 56.2532 1116.73C58.6886 1116.73 60.6481 1117.43 62.0478 1118.57C63.5314 1119.78 64.4272 1121.48 64.7071 1123.47H61.8518C61.3759 1120.92 59.3884 1119.22 56.1972 1119.22C51.7743 1119.22 49.2829 1122.8 49.2829 1127.59C49.2829 1132.57 52.0263 1135.93 56.2252 1135.93C60.0043 1135.93 61.8238 1133.38 62.0758 1130.41H64.931C64.9031 1132.49 63.9233 1134.78 62.4397 1136.21C60.984 1137.66 58.8566 1138.42 56.1692 1138.42ZM68.3143 1138V1117.17H72.0093L76.3483 1128.48C77.1881 1130.75 78.4477 1135 78.4477 1135H78.5037C78.5037 1135 79.7914 1130.78 80.6312 1128.48L84.8861 1117.17H88.6932V1138H85.9499V1125.4C85.9499 1123.56 86.1178 1120.06 86.1178 1120.06H86.0619C86.0619 1120.06 85.2221 1123.19 84.6062 1124.82L79.5395 1138H77.3L72.2333 1124.82C71.6454 1123.19 70.7777 1120.06 70.7777 1120.06H70.7217C70.7217 1120.06 70.8896 1123.56 70.8896 1125.4V1138H68.3143ZM98.8227 1138V1129.27L91.3206 1117.17H94.5118L98.2629 1123.44C99.1307 1124.93 100.306 1127.33 100.306 1127.33H100.362C100.362 1127.33 101.566 1124.93 102.434 1123.44L106.213 1117.17H109.264L101.678 1129.41V1138H98.8227ZM111.944 1138V1117.17H114.799V1123.61C114.799 1125.01 114.743 1126.44 114.687 1127.45L124.737 1117.15H128.32L119.95 1125.52L128.992 1138H125.661L117.963 1127.36L114.799 1130.47V1138H111.944ZM130.575 1129.15V1126.07H133.598V1129.15H130.575ZM130.575 1138V1134.92H133.598V1138H130.575ZM151.942 1138.45C147.015 1138.45 144.104 1134.36 144.104 1128.01C144.104 1121.57 147.211 1117.59 151.97 1117.59C156.757 1117.59 159.808 1121.51 159.808 1128.01C159.808 1134.36 156.953 1138.45 151.942 1138.45ZM151.97 1136.15C155.441 1136.15 157.009 1133.05 157.009 1128.01C157.009 1123.05 155.357 1119.86 151.97 1119.86C148.555 1119.86 146.875 1123 146.875 1128.01C146.875 1132.96 148.555 1136.15 151.97 1136.15ZM162.12 1142.34V1140.88C162.904 1140.6 163.492 1140.04 163.492 1138.28V1138H162.092V1134.92H165.115V1138.28C165.115 1140.74 164.108 1142.09 162.12 1142.34ZM183.379 1138.45C178.453 1138.45 175.541 1134.36 175.541 1128.01C175.541 1121.57 178.649 1117.59 183.407 1117.59C188.194 1117.59 191.245 1121.51 191.245 1128.01C191.245 1134.36 188.39 1138.45 183.379 1138.45ZM183.407 1136.15C186.879 1136.15 188.446 1133.05 188.446 1128.01C188.446 1123.05 186.795 1119.86 183.407 1119.86C179.992 1119.86 178.313 1123 178.313 1128.01C178.313 1132.96 179.992 1136.15 183.407 1136.15ZM193.558 1142.34V1140.88C194.342 1140.6 194.929 1140.04 194.929 1138.28V1138H193.53V1134.92H196.553V1138.28C196.553 1140.74 195.545 1142.09 193.558 1142.34ZM214.817 1138.45C209.89 1138.45 206.979 1134.36 206.979 1128.01C206.979 1121.57 210.086 1117.59 214.845 1117.59C219.632 1117.59 222.683 1121.51 222.683 1128.01C222.683 1134.36 219.828 1138.45 214.817 1138.45ZM214.845 1136.15C218.316 1136.15 219.884 1133.05 219.884 1128.01C219.884 1123.05 218.232 1119.86 214.845 1119.86C211.43 1119.86 209.75 1123 209.75 1128.01C209.75 1132.96 211.43 1136.15 214.845 1136.15ZM224.995 1142.34V1140.88C225.779 1140.6 226.367 1140.04 226.367 1138.28V1138H224.967V1134.92H227.99V1138.28C227.99 1140.74 226.983 1142.09 224.995 1142.34ZM246.254 1138.45C241.328 1138.45 238.416 1134.36 238.416 1128.01C238.416 1121.57 241.524 1117.59 246.282 1117.59C251.069 1117.59 254.12 1121.51 254.12 1128.01C254.12 1134.36 251.265 1138.45 246.254 1138.45ZM246.282 1136.15C249.754 1136.15 251.321 1133.05 251.321 1128.01C251.321 1123.05 249.67 1119.86 246.282 1119.86C242.867 1119.86 241.188 1123 241.188 1128.01C241.188 1132.96 242.867 1136.15 246.282 1136.15ZM47.1555 1182V1161.17H50.0108V1169.93H60.7601V1161.17H63.6434V1182H60.7601V1172.26H50.0108V1182H47.1555ZM67.9589 1182V1161.17H82.7672V1163.69H70.8142V1169.99H81.6195V1172.37H70.8142V1179.4H83.0751V1182H67.9589ZM85.0911 1182L92.2573 1171.31L85.6229 1161.17H88.9261L92.0333 1166.18C92.8451 1167.5 93.9369 1169.6 93.9369 1169.6H93.9928C93.9928 1169.6 95.1126 1167.5 95.9524 1166.18L99.0876 1161.17H102.223L95.4765 1171.33L102.475 1182H99.0596L95.7564 1176.57C94.9446 1175.23 93.8529 1173.1 93.8529 1173.1H93.7969C93.7969 1173.1 92.6212 1175.23 91.7534 1176.57L88.3383 1182H85.0911ZM104.714 1173.15V1170.07H107.737V1173.15H104.714ZM104.714 1182V1178.92H107.737V1182H104.714ZM118.859 1169.71L119.195 1167.47H122.078L122.862 1162.04H124.933L124.15 1167.47H128.013L128.797 1162.04H130.896L130.112 1167.47H133.051L132.688 1169.71H129.804L129.188 1174.05H132.072L131.708 1176.32H128.88L128.069 1182H125.969L126.781 1176.32H122.918L122.134 1182H120.035L120.846 1176.32H117.879L118.243 1174.05H121.154L121.77 1169.71H118.859ZM123.842 1169.71L123.254 1174.05H127.089L127.705 1169.71H123.842ZM136.329 1182V1161.17H150.577V1163.69H139.184V1169.93H148.674V1172.37H139.184V1182H136.329ZM153.742 1182V1161.17H167.991V1163.69H156.598V1169.93H166.087V1172.37H156.598V1182H153.742ZM171.156 1182V1161.17H185.404V1163.69H174.011V1169.93H183.501V1172.37H174.011V1182H171.156ZM188.57 1182V1161.17H202.818V1163.69H191.425V1169.93H200.914V1172.37H191.425V1182H188.57ZM205.983 1182V1161.17H220.232V1163.69H208.838V1169.93H218.328V1172.37H208.838V1182H205.983ZM223.397 1182V1161.17H237.645V1163.69H226.252V1169.93H235.742V1172.37H226.252V1182H223.397Z" fill="black" style="fill:black;fill-opacity:1;"/>
<path d="M989.403 1045.59C987.313 1045.59 985.425 1045.22 983.74 1044.49C982.068 1043.75 980.69 1042.69 979.606 1041.32C978.534 1039.93 977.855 1038.29 977.568 1036.38L983.133 1035.56C983.525 1037.18 984.334 1038.42 985.562 1039.3C986.79 1040.17 988.188 1040.61 989.756 1040.61C990.631 1040.61 991.48 1040.47 992.303 1040.2C993.126 1039.92 993.799 1039.52 994.321 1038.98C994.857 1038.45 995.125 1037.79 995.125 1037.01C995.125 1036.72 995.079 1036.44 994.988 1036.18C994.909 1035.91 994.772 1035.65 994.576 1035.42C994.38 1035.18 994.099 1034.96 993.734 1034.75C993.381 1034.54 992.93 1034.35 992.382 1034.18L985.053 1032.03C984.504 1031.87 983.864 1031.65 983.133 1031.36C982.414 1031.07 981.715 1030.66 981.036 1030.13C980.357 1029.59 979.788 1028.89 979.331 1028.01C978.887 1027.12 978.665 1026.01 978.665 1024.66C978.665 1022.77 979.142 1021.19 980.095 1019.94C981.049 1018.68 982.323 1017.75 983.916 1017.14C985.51 1016.52 987.274 1016.22 989.207 1016.23C991.154 1016.26 992.891 1016.59 994.419 1017.23C995.948 1017.87 997.228 1018.81 998.26 1020.04C999.292 1021.25 1000.04 1022.74 1000.49 1024.5L994.733 1025.48C994.524 1024.57 994.139 1023.8 993.577 1023.17C993.015 1022.54 992.342 1022.07 991.559 1021.74C990.788 1021.41 989.978 1021.24 989.129 1021.21C988.293 1021.19 987.502 1021.3 986.758 1021.56C986.026 1021.81 985.425 1022.18 984.955 1022.66C984.498 1023.14 984.269 1023.72 984.269 1024.39C984.269 1025 984.459 1025.5 984.837 1025.89C985.216 1026.27 985.693 1026.58 986.268 1026.82C986.843 1027.05 987.43 1027.25 988.031 1027.4L992.93 1028.74C993.662 1028.93 994.472 1029.19 995.36 1029.52C996.248 1029.83 997.097 1030.28 997.907 1030.85C998.73 1031.41 999.403 1032.16 999.926 1033.09C1000.46 1034.01 1000.73 1035.19 1000.73 1036.61C1000.73 1038.13 1000.41 1039.45 999.769 1040.59C999.142 1041.71 998.293 1042.65 997.222 1043.39C996.15 1044.12 994.935 1044.67 993.577 1045.04C992.231 1045.4 990.84 1045.59 989.403 1045.59ZM1010.35 1045L1001.72 1016.78H1007.21L1014.26 1039.98L1021.44 1016.78H1026.92L1018.3 1045H1010.35ZM1025.16 1045L1033.78 1016.78H1041.74L1050.36 1045H1044.87L1037.19 1020.11H1038.21L1030.65 1045H1025.16ZM1030.33 1039.12V1034.14H1045.22V1039.12H1030.33ZM1053.87 1045V1016.78H1065.78C1066.06 1016.78 1066.42 1016.8 1066.88 1016.82C1067.35 1016.84 1067.77 1016.87 1068.14 1016.94C1069.82 1017.2 1071.2 1017.76 1072.27 1018.61C1073.35 1019.45 1074.15 1020.53 1074.66 1021.82C1075.17 1023.1 1075.43 1024.53 1075.43 1026.11C1075.43 1028.47 1074.84 1030.5 1073.66 1032.18C1072.49 1033.86 1070.64 1034.89 1068.14 1035.28L1065.78 1035.44H1059.2V1045H1053.87ZM1069.78 1045L1064.22 1033.52L1069.7 1032.46L1075.82 1045H1069.78ZM1059.2 1030.46H1065.55C1065.82 1030.46 1066.12 1030.45 1066.45 1030.42C1066.78 1030.4 1067.08 1030.34 1067.35 1030.26C1068.07 1030.07 1068.63 1029.74 1069.02 1029.28C1069.41 1028.81 1069.68 1028.3 1069.82 1027.74C1069.98 1027.16 1070.06 1026.62 1070.06 1026.11C1070.06 1025.6 1069.98 1025.07 1069.82 1024.5C1069.68 1023.93 1069.41 1023.41 1069.02 1022.96C1068.63 1022.49 1068.07 1022.15 1067.35 1021.96C1067.08 1021.88 1066.78 1021.83 1066.45 1021.8C1066.12 1021.77 1065.82 1021.76 1065.55 1021.76H1059.2V1030.46ZM1086.67 1045V1021.76H1077.77V1016.78H1100.9V1021.76H1092V1045H1086.67Z" fill="white" style="fill:white;fill-opacity:1;"/>
<path d="M978.155 1095V1074.17H987.897C991.62 1074.17 994.139 1076.47 994.139 1079.91C994.139 1082.46 993.104 1084.25 990.332 1085.12V1085.2C992.684 1085.9 993.356 1087.3 993.552 1090.3C993.804 1093.57 994.084 1094.58 994.503 1094.86V1095H991.452C990.976 1094.61 990.92 1093.66 990.696 1090.33C990.5 1087.39 989.269 1086.32 986.553 1086.32H981.011V1095H978.155ZM981.011 1076.64V1084.03H986.973C989.801 1084.03 991.2 1082.6 991.2 1080.33C991.2 1077.9 990.053 1076.64 987.113 1076.64H981.011ZM1014.02 1095L1013.26 1092.06H1013.18C1011.7 1094.33 1009.46 1095.45 1006.74 1095.45C1003.83 1095.45 1001.4 1094.33 999.688 1092.42C997.952 1090.52 996.972 1087.83 996.972 1084.67C996.972 1081.54 997.896 1078.76 999.632 1076.8C1001.31 1074.9 1003.77 1073.75 1006.99 1073.75C1011.89 1073.75 1014.72 1076.38 1015.5 1080.22H1012.54C1011.92 1077.87 1010.16 1076.22 1006.97 1076.22C1002.09 1076.22 999.884 1079.88 999.884 1084.67C999.884 1089.63 1002.77 1092.96 1006.88 1092.96C1011.02 1092.96 1012.98 1090.16 1013.01 1086.85V1086.41H1006.97V1083.97H1015.84V1095H1014.02ZM1019.63 1095V1074.17H1028.58C1030.74 1074.17 1032.39 1074.76 1033.57 1075.94C1034.43 1076.83 1034.97 1078.04 1034.97 1079.55C1034.97 1081.82 1033.68 1083.27 1031.44 1083.91V1084C1033.99 1084.59 1035.81 1086.27 1035.81 1089.01C1035.81 1090.66 1035.22 1092.06 1034.21 1093.07C1033.03 1094.3 1031.24 1095 1029 1095H1019.63ZM1022.48 1083.05H1028.19C1030.63 1083.05 1032.08 1081.84 1032.08 1079.74C1032.08 1077.78 1030.77 1076.64 1028.53 1076.64H1022.48V1083.05ZM1022.48 1092.48H1028.84C1030.26 1092.48 1031.3 1092.12 1031.97 1091.44C1032.56 1090.89 1032.89 1090.07 1032.89 1089.09C1032.89 1086.6 1031.13 1085.37 1028.67 1085.37H1022.48V1092.48ZM1038.69 1086.15V1083.07H1041.72V1086.15H1038.69ZM1038.69 1095V1091.92H1041.72V1095H1038.69ZM1056.56 1095V1080.64H1051.94V1078.85C1054.46 1078.79 1056.81 1077.84 1057.18 1074.93H1059.28V1095H1056.56ZM1065.48 1095C1065.9 1088 1069.57 1081.03 1074.07 1077.39V1077.34C1074.07 1077.34 1072.51 1077.45 1070.41 1077.45H1062.65V1075.07H1076.68V1077.22C1072.65 1080.81 1068.73 1087.19 1068.33 1095H1065.48ZM1085.88 1095.45C1082.08 1095.45 1078.16 1093.71 1078.16 1089.29C1078.16 1086.46 1079.98 1084.81 1082.52 1084.11V1084.03C1080.37 1083.38 1079.17 1081.87 1079.17 1079.83C1079.17 1076.64 1082.05 1074.57 1085.8 1074.57C1089.58 1074.57 1092.46 1076.61 1092.46 1079.8C1092.46 1081.84 1091.26 1083.35 1089.13 1084.03V1084.11C1091.68 1084.75 1093.41 1086.6 1093.41 1089.29C1093.41 1093.74 1089.69 1095.45 1085.88 1095.45ZM1085.8 1083.1C1088.29 1083.1 1089.83 1081.9 1089.83 1079.91C1089.83 1077.92 1088.29 1076.75 1085.8 1076.75C1083.31 1076.75 1081.77 1077.92 1081.77 1079.91C1081.77 1081.9 1083.31 1083.1 1085.8 1083.1ZM1085.88 1093.24C1088.88 1093.24 1090.73 1091.75 1090.73 1089.26C1090.73 1086.74 1088.88 1085.15 1085.8 1085.15C1082.75 1085.15 1080.93 1086.74 1080.93 1089.26C1080.93 1091.78 1082.78 1093.24 1085.88 1093.24ZM1096.13 1099.34V1097.88C1096.91 1097.6 1097.5 1097.04 1097.5 1095.28V1095H1096.1V1091.92H1099.12V1095.28C1099.12 1097.74 1098.11 1099.09 1096.13 1099.34ZM1113.89 1095V1080.64H1109.27V1078.85C1111.79 1078.79 1114.14 1077.84 1114.5 1074.93H1116.6V1095H1113.89ZM1127.62 1095.45C1123.67 1095.45 1120.96 1093.01 1120.71 1090.07H1123.42C1123.67 1091.72 1125.02 1093.24 1127.56 1093.24C1129.05 1093.24 1130.11 1092.79 1130.89 1091.89C1132.04 1090.63 1132.55 1088.51 1132.66 1085.37H1132.6C1131.31 1087.13 1129.47 1088.2 1127.12 1088.2C1123.42 1088.2 1120.45 1085.17 1120.43 1081.42C1120.4 1077.64 1123.42 1074.59 1127.51 1074.59C1129.5 1074.59 1131.03 1075.24 1132.21 1076.13C1134.48 1077.87 1135.21 1080.72 1135.21 1085.09C1135.21 1089.07 1134.39 1092 1132.46 1093.74C1131.26 1094.86 1129.61 1095.45 1127.62 1095.45ZM1127.48 1086.01C1130.39 1086.01 1132.24 1084.11 1132.24 1081.37C1132.24 1078.62 1130.14 1076.75 1127.51 1076.75C1124.82 1076.75 1122.94 1078.62 1122.94 1081.37C1122.94 1084.08 1124.96 1086.01 1127.48 1086.01ZM1139.92 1095C1140.34 1088 1144 1081.03 1148.51 1077.39V1077.34C1148.51 1077.34 1146.94 1077.45 1144.84 1077.45H1137.09V1075.07H1151.11V1077.22C1147.08 1080.81 1143.16 1087.19 1142.77 1095H1139.92ZM1151.59 1099.34V1097.88C1152.38 1097.6 1152.97 1097.04 1152.97 1095.28V1095H1151.57V1091.92H1154.59V1095.28C1154.59 1097.74 1153.58 1099.09 1151.59 1099.34ZM1169.35 1095V1080.64H1164.74V1078.85C1167.25 1078.79 1169.61 1077.84 1169.97 1074.93H1172.07V1095H1169.35ZM1183.09 1095.45C1179.14 1095.45 1176.42 1093.01 1176.17 1090.07H1178.89C1179.14 1091.72 1180.48 1093.24 1183.03 1093.24C1184.51 1093.24 1185.58 1092.79 1186.36 1091.89C1187.51 1090.63 1188.01 1088.51 1188.12 1085.37H1188.07C1186.78 1087.13 1184.93 1088.2 1182.58 1088.2C1178.89 1088.2 1175.92 1085.17 1175.89 1081.42C1175.86 1077.64 1178.89 1074.59 1182.97 1074.59C1184.96 1074.59 1186.5 1075.24 1187.68 1076.13C1189.94 1077.87 1190.67 1080.72 1190.67 1085.09C1190.67 1089.07 1189.86 1092 1187.93 1093.74C1186.73 1094.86 1185.07 1095.45 1183.09 1095.45ZM1182.95 1086.01C1185.86 1086.01 1187.71 1084.11 1187.71 1081.37C1187.71 1078.62 1185.61 1076.75 1182.97 1076.75C1180.29 1076.75 1178.41 1078.62 1178.41 1081.37C1178.41 1084.08 1180.43 1086.01 1182.95 1086.01ZM1195.38 1095C1195.8 1088 1199.47 1081.03 1203.98 1077.39V1077.34C1203.98 1077.34 1202.41 1077.45 1200.31 1077.45H1192.56V1075.07H1206.58V1077.22C1202.55 1080.81 1198.63 1087.19 1198.24 1095H1195.38ZM987.169 1139.42C981.235 1139.42 977.372 1134.89 977.372 1128.59C977.372 1122.46 981.067 1117.73 987.253 1117.73C989.689 1117.73 991.648 1118.43 993.048 1119.57C994.531 1120.78 995.427 1122.48 995.707 1124.47H992.852C992.376 1121.92 990.388 1120.22 987.197 1120.22C982.774 1120.22 980.283 1123.8 980.283 1128.59C980.283 1133.57 983.026 1136.93 987.225 1136.93C991.004 1136.93 992.824 1134.38 993.076 1131.41H995.931C995.903 1133.49 994.923 1135.78 993.44 1137.21C991.984 1138.66 989.857 1139.42 987.169 1139.42ZM999.314 1139V1118.17H1003.01L1007.35 1129.48C1008.19 1131.75 1009.45 1136 1009.45 1136H1009.5C1009.5 1136 1010.79 1131.78 1011.63 1129.48L1015.89 1118.17H1019.69V1139H1016.95V1126.4C1016.95 1124.56 1017.12 1121.06 1017.12 1121.06H1017.06C1017.06 1121.06 1016.22 1124.19 1015.61 1125.82L1010.54 1139H1008.3L1003.23 1125.82C1002.65 1124.19 1001.78 1121.06 1001.78 1121.06H1001.72C1001.72 1121.06 1001.89 1124.56 1001.89 1126.4V1139H999.314ZM1029.82 1139V1130.27L1022.32 1118.17H1025.51L1029.26 1124.44C1030.13 1125.93 1031.31 1128.33 1031.31 1128.33H1031.36C1031.36 1128.33 1032.57 1125.93 1033.43 1124.44L1037.21 1118.17H1040.26L1032.68 1130.41V1139H1029.82ZM1042.94 1139V1118.17H1045.8V1124.61C1045.8 1126.01 1045.74 1127.44 1045.69 1128.45L1055.74 1118.15H1059.32L1050.95 1126.52L1059.99 1139H1056.66L1048.96 1128.36L1045.8 1131.47V1139H1042.94ZM1061.57 1130.15V1127.07H1064.6V1130.15H1061.57ZM1061.57 1139V1135.92H1064.6V1139H1061.57ZM1082.94 1139.45C1078.02 1139.45 1075.1 1135.36 1075.1 1129.01C1075.1 1122.57 1078.21 1118.59 1082.97 1118.59C1087.76 1118.59 1090.81 1122.51 1090.81 1129.01C1090.81 1135.36 1087.95 1139.45 1082.94 1139.45ZM1082.97 1137.15C1086.44 1137.15 1088.01 1134.05 1088.01 1129.01C1088.01 1124.05 1086.36 1120.86 1082.97 1120.86C1079.55 1120.86 1077.88 1124 1077.88 1129.01C1077.88 1133.96 1079.55 1137.15 1082.97 1137.15ZM1093.12 1143.34V1141.88C1093.9 1141.6 1094.49 1141.04 1094.49 1139.28V1139H1093.09V1135.92H1096.12V1139.28C1096.12 1141.74 1095.11 1143.09 1093.12 1143.34ZM1114.38 1139.45C1109.45 1139.45 1106.54 1135.36 1106.54 1129.01C1106.54 1122.57 1109.65 1118.59 1114.41 1118.59C1119.19 1118.59 1122.25 1122.51 1122.25 1129.01C1122.25 1135.36 1119.39 1139.45 1114.38 1139.45ZM1114.41 1137.15C1117.88 1137.15 1119.45 1134.05 1119.45 1129.01C1119.45 1124.05 1117.79 1120.86 1114.41 1120.86C1110.99 1120.86 1109.31 1124 1109.31 1129.01C1109.31 1133.96 1110.99 1137.15 1114.41 1137.15ZM1124.56 1143.34V1141.88C1125.34 1141.6 1125.93 1141.04 1125.93 1139.28V1139H1124.53V1135.92H1127.55V1139.28C1127.55 1141.74 1126.55 1143.09 1124.56 1143.34ZM1145.82 1139.45C1140.89 1139.45 1137.98 1135.36 1137.98 1129.01C1137.98 1122.57 1141.09 1118.59 1145.84 1118.59C1150.63 1118.59 1153.68 1122.51 1153.68 1129.01C1153.68 1135.36 1150.83 1139.45 1145.82 1139.45ZM1145.84 1137.15C1149.32 1137.15 1150.88 1134.05 1150.88 1129.01C1150.88 1124.05 1149.23 1120.86 1145.84 1120.86C1142.43 1120.86 1140.75 1124 1140.75 1129.01C1140.75 1133.96 1142.43 1137.15 1145.84 1137.15ZM1156 1143.34V1141.88C1156.78 1141.6 1157.37 1141.04 1157.37 1139.28V1139H1155.97V1135.92H1158.99V1139.28C1158.99 1141.74 1157.98 1143.09 1156 1143.34ZM1173.76 1139V1124.64H1169.14V1122.85C1171.66 1122.79 1174.01 1121.84 1174.37 1118.93H1176.47V1139H1173.76ZM1188.27 1139.45C1183.34 1139.45 1180.43 1135.36 1180.43 1129.01C1180.43 1122.57 1183.54 1118.59 1188.3 1118.59C1193.09 1118.59 1196.14 1122.51 1196.14 1129.01C1196.14 1135.36 1193.28 1139.45 1188.27 1139.45ZM1188.3 1137.15C1191.77 1137.15 1193.34 1134.05 1193.34 1129.01C1193.34 1124.05 1191.69 1120.86 1188.3 1120.86C1184.88 1120.86 1183.2 1124 1183.2 1129.01C1183.2 1133.96 1184.88 1137.15 1188.3 1137.15ZM1206.94 1139.45C1202.02 1139.45 1199.1 1135.36 1199.1 1129.01C1199.1 1122.57 1202.21 1118.59 1206.97 1118.59C1211.76 1118.59 1214.81 1122.51 1214.81 1129.01C1214.81 1135.36 1211.95 1139.45 1206.94 1139.45ZM1206.97 1137.15C1210.44 1137.15 1212.01 1134.05 1212.01 1129.01C1212.01 1124.05 1210.36 1120.86 1206.97 1120.86C1203.56 1120.86 1201.88 1124 1201.88 1129.01C1201.88 1133.96 1203.56 1137.15 1206.97 1137.15ZM978.155 1183V1162.17H981.011V1170.93H991.76V1162.17H994.643V1183H991.76V1173.26H981.011V1183H978.155ZM998.959 1183V1162.17H1013.77V1164.69H1001.81V1170.99H1012.62V1173.37H1001.81V1180.4H1014.08V1183H998.959ZM1016.09 1183L1023.26 1172.31L1016.62 1162.17H1019.93L1023.03 1167.18C1023.85 1168.5 1024.94 1170.6 1024.94 1170.6H1024.99C1024.99 1170.6 1026.11 1168.5 1026.95 1167.18L1030.09 1162.17H1033.22L1026.48 1172.33L1033.47 1183H1030.06L1026.76 1177.57C1025.94 1176.23 1024.85 1174.1 1024.85 1174.1H1024.8C1024.8 1174.1 1023.62 1176.23 1022.75 1177.57L1019.34 1183H1016.09ZM1035.71 1174.15V1171.07H1038.74V1174.15H1035.71ZM1035.71 1183V1179.92H1038.74V1183H1035.71ZM1049.86 1170.71L1050.19 1168.47H1053.08L1053.86 1163.04H1055.93L1055.15 1168.47H1059.01L1059.8 1163.04H1061.9L1061.11 1168.47H1064.05L1063.69 1170.71H1060.8L1060.19 1175.05H1063.07L1062.71 1177.32H1059.88L1059.07 1183H1056.97L1057.78 1177.32H1053.92L1053.13 1183H1051.03L1051.85 1177.32H1048.88L1049.24 1175.05H1052.15L1052.77 1170.71H1049.86ZM1054.84 1170.71L1054.25 1175.05H1058.09L1058.7 1170.71H1054.84ZM1074.49 1183.45C1069.57 1183.45 1066.66 1179.36 1066.66 1173.01C1066.66 1166.57 1069.76 1162.59 1074.52 1162.59C1079.31 1162.59 1082.36 1166.51 1082.36 1173.01C1082.36 1179.36 1079.51 1183.45 1074.49 1183.45ZM1074.52 1181.15C1077.99 1181.15 1079.56 1178.05 1079.56 1173.01C1079.56 1168.05 1077.91 1164.86 1074.52 1164.86C1071.11 1164.86 1069.43 1168 1069.43 1173.01C1069.43 1177.96 1071.11 1181.15 1074.52 1181.15ZM1093.17 1183.45C1088.24 1183.45 1085.33 1179.36 1085.33 1173.01C1085.33 1166.57 1088.44 1162.59 1093.19 1162.59C1097.98 1162.59 1101.03 1166.51 1101.03 1173.01C1101.03 1179.36 1098.18 1183.45 1093.17 1183.45ZM1093.19 1181.15C1096.67 1181.15 1098.23 1178.05 1098.23 1173.01C1098.23 1168.05 1096.58 1164.86 1093.19 1164.86C1089.78 1164.86 1088.1 1168 1088.1 1173.01C1088.1 1177.96 1089.78 1181.15 1093.19 1181.15ZM1111.84 1183.45C1106.91 1183.45 1104 1179.36 1104 1173.01C1104 1166.57 1107.11 1162.59 1111.87 1162.59C1116.65 1162.59 1119.7 1166.51 1119.7 1173.01C1119.7 1179.36 1116.85 1183.45 1111.84 1183.45ZM1111.87 1181.15C1115.34 1181.15 1116.9 1178.05 1116.9 1173.01C1116.9 1168.05 1115.25 1164.86 1111.87 1164.86C1108.45 1164.86 1106.77 1168 1106.77 1173.01C1106.77 1177.96 1108.45 1181.15 1111.87 1181.15ZM1130.51 1183.45C1125.58 1183.45 1122.67 1179.36 1122.67 1173.01C1122.67 1166.57 1125.78 1162.59 1130.54 1162.59C1135.32 1162.59 1138.37 1166.51 1138.37 1173.01C1138.37 1179.36 1135.52 1183.45 1130.51 1183.45ZM1130.54 1181.15C1134.01 1181.15 1135.57 1178.05 1135.57 1173.01C1135.57 1168.05 1133.92 1164.86 1130.54 1164.86C1127.12 1164.86 1125.44 1168 1125.44 1173.01C1125.44 1177.96 1127.12 1181.15 1130.54 1181.15ZM1149.18 1183.45C1144.25 1183.45 1141.34 1179.36 1141.34 1173.01C1141.34 1166.57 1144.45 1162.59 1149.21 1162.59C1153.99 1162.59 1157.05 1166.51 1157.05 1173.01C1157.05 1179.36 1154.19 1183.45 1149.18 1183.45ZM1149.21 1181.15C1152.68 1181.15 1154.25 1178.05 1154.25 1173.01C1154.25 1168.05 1152.59 1164.86 1149.21 1164.86C1145.79 1164.86 1144.11 1168 1144.11 1173.01C1144.11 1177.96 1145.79 1181.15 1149.21 1181.15ZM1167.85 1183.45C1162.92 1183.45 1160.01 1179.36 1160.01 1173.01C1160.01 1166.57 1163.12 1162.59 1167.88 1162.59C1172.67 1162.59 1175.72 1166.51 1175.72 1173.01C1175.72 1179.36 1172.86 1183.45 1167.85 1183.45ZM1167.88 1181.15C1171.35 1181.15 1172.92 1178.05 1172.92 1173.01C1172.92 1168.05 1171.27 1164.86 1167.88 1164.86C1164.46 1164.86 1162.78 1168 1162.78 1173.01C1162.78 1177.96 1164.46 1181.15 1167.88 1181.15Z" fill="white" style="fill:white;fill-opacity:1;"/>
<path d="M1277.74 733V704.783H1289.03C1291.04 704.783 1292.67 705.188 1293.91 705.998C1295.15 706.795 1296.06 707.801 1296.63 709.016C1297.21 710.23 1297.5 711.458 1297.5 712.699C1297.5 714.28 1297.14 715.593 1296.42 716.638C1295.71 717.683 1294.74 718.382 1293.5 718.735V717.755C1295.26 718.121 1296.58 718.937 1297.46 720.204C1298.34 721.472 1298.79 722.889 1298.79 724.457C1298.79 726.142 1298.47 727.624 1297.85 728.905C1297.23 730.185 1296.29 731.191 1295.03 731.922C1293.76 732.641 1292.17 733 1290.25 733H1277.74ZM1283.15 727.984H1289.7C1290.41 727.984 1291.05 727.833 1291.62 727.533C1292.18 727.219 1292.62 726.788 1292.93 726.24C1293.26 725.678 1293.42 725.018 1293.42 724.261C1293.42 723.594 1293.28 723 1293.01 722.477C1292.73 721.955 1292.32 721.543 1291.75 721.243C1291.21 720.929 1290.52 720.773 1289.7 720.773H1283.15V727.984ZM1283.15 715.795H1288.95C1289.55 715.795 1290.09 715.691 1290.56 715.482C1291.03 715.273 1291.4 714.953 1291.68 714.522C1291.95 714.078 1292.09 713.509 1292.09 712.817C1292.09 711.955 1291.82 711.23 1291.28 710.642C1290.75 710.054 1289.97 709.76 1288.95 709.76H1283.15V715.795ZM1303.09 733V704.783H1308.42V728.023H1320.57V733H1303.09ZM1334.56 702.628C1333.59 702.628 1332.7 702.392 1331.89 701.922C1331.1 701.439 1330.46 700.799 1329.97 700.002C1329.5 699.192 1329.27 698.304 1329.27 697.337C1329.27 696.357 1329.5 695.469 1329.97 694.672C1330.46 693.875 1331.1 693.241 1331.89 692.771C1332.7 692.288 1333.59 692.046 1334.56 692.046C1335.54 692.046 1336.43 692.288 1337.22 692.771C1338.02 693.241 1338.65 693.875 1339.12 694.672C1339.61 695.469 1339.85 696.357 1339.85 697.337C1339.85 698.304 1339.61 699.192 1339.12 700.002C1338.65 700.799 1338.02 701.439 1337.22 701.922C1336.43 702.392 1335.54 702.628 1334.56 702.628ZM1334.56 699.492C1335.16 699.492 1335.67 699.283 1336.09 698.865C1336.51 698.434 1336.71 697.925 1336.71 697.337C1336.71 696.736 1336.51 696.226 1336.09 695.808C1335.67 695.39 1335.16 695.181 1334.56 695.181C1333.97 695.181 1333.46 695.39 1333.03 695.808C1332.61 696.226 1332.4 696.736 1332.4 697.337C1332.4 697.925 1332.61 698.434 1333.03 698.865C1333.46 699.283 1333.97 699.492 1334.56 699.492ZM1321.94 733L1330.56 704.783H1338.52L1347.14 733H1341.65L1333.97 708.114H1334.99L1327.43 733H1321.94ZM1327.11 727.121V722.144H1342V727.121H1327.11Z" fill="black" style="fill:black;fill-opacity:1;"/>
<path d="M1277.16 783V762.173H1286.9C1290.62 762.173 1293.14 764.469 1293.14 767.912C1293.14 770.459 1292.1 772.251 1289.33 773.118V773.202C1291.68 773.902 1292.36 775.302 1292.55 778.297C1292.8 781.572 1293.08 782.58 1293.5 782.86V783H1290.45C1289.98 782.608 1289.92 781.656 1289.7 778.325C1289.5 775.386 1288.27 774.322 1285.55 774.322H1280.01V783H1277.16ZM1280.01 764.637V772.027H1285.97C1288.8 772.027 1290.2 770.599 1290.2 768.332C1290.2 765.896 1289.05 764.637 1286.11 764.637H1280.01ZM1313.02 783L1312.26 780.061H1312.18C1310.7 782.328 1308.46 783.448 1305.74 783.448C1302.83 783.448 1300.4 782.328 1298.69 780.425C1296.95 778.521 1295.97 775.834 1295.97 772.671C1295.97 769.535 1296.9 766.764 1298.63 764.805C1300.31 762.901 1302.77 761.753 1305.99 761.753C1310.89 761.753 1313.72 764.385 1314.5 768.22H1311.54C1310.92 765.868 1309.16 764.217 1305.97 764.217C1301.09 764.217 1298.88 767.884 1298.88 772.671C1298.88 777.625 1301.77 780.957 1305.88 780.957C1310.02 780.957 1311.98 778.157 1312.01 774.854V774.406H1305.97V771.971H1314.84V783H1313.02ZM1318.63 783V762.173H1327.58C1329.74 762.173 1331.39 762.761 1332.57 763.937C1333.43 764.833 1333.97 766.036 1333.97 767.548C1333.97 769.815 1332.68 771.271 1330.44 771.915V771.999C1332.99 772.587 1334.81 774.266 1334.81 777.009C1334.81 778.661 1334.22 780.061 1333.21 781.068C1332.03 782.3 1330.24 783 1328 783H1318.63ZM1321.48 771.047H1327.19C1329.63 771.047 1331.08 769.843 1331.08 767.744C1331.08 765.784 1329.77 764.637 1327.53 764.637H1321.48V771.047ZM1321.48 780.481H1327.84C1329.26 780.481 1330.3 780.117 1330.97 779.445C1331.56 778.885 1331.89 778.073 1331.89 777.093C1331.89 774.602 1330.13 773.37 1327.67 773.37H1321.48V780.481ZM1337.69 774.154V771.075H1340.72V774.154H1337.69ZM1337.69 783V779.921H1340.72V783H1337.69ZM1355.56 783V768.64H1350.94V766.848C1353.46 766.792 1355.81 765.84 1356.18 762.929H1358.28V783H1355.56ZM1369.63 783.448C1365.82 783.448 1361.9 781.712 1361.9 777.289C1361.9 774.462 1363.72 772.811 1366.27 772.111V772.027C1364.12 771.383 1362.91 769.871 1362.91 767.828C1362.91 764.637 1365.79 762.565 1369.55 762.565C1373.32 762.565 1376.21 764.609 1376.21 767.8C1376.21 769.843 1375 771.355 1372.88 772.027V772.111C1375.42 772.755 1377.16 774.602 1377.16 777.289C1377.16 781.74 1373.44 783.448 1369.63 783.448ZM1369.55 771.103C1372.04 771.103 1373.58 769.899 1373.58 767.912C1373.58 765.924 1372.04 764.749 1369.55 764.749C1367.05 764.749 1365.51 765.924 1365.51 767.912C1365.51 769.899 1367.05 771.103 1369.55 771.103ZM1369.63 781.236C1372.63 781.236 1374.47 779.753 1374.47 777.261C1374.47 774.742 1372.63 773.146 1369.55 773.146C1366.49 773.146 1364.68 774.742 1364.68 777.261C1364.68 779.781 1366.52 781.236 1369.63 781.236ZM1379.45 783C1379.57 780.593 1380.38 778.885 1381.58 777.513C1383.09 775.834 1385.16 774.686 1387.07 773.538C1389.56 772.111 1391.01 771.103 1391.01 768.808C1391.01 766.456 1389.42 764.861 1386.87 764.861C1385.53 764.861 1384.55 765.28 1383.82 766.092C1383.04 766.904 1382.7 767.996 1382.7 769.675H1379.93C1379.93 767.436 1380.57 765.84 1381.78 764.609C1383.01 763.293 1384.91 762.621 1387.1 762.621C1391.18 762.621 1393.81 765.224 1393.81 768.752C1393.81 772.447 1391.38 773.734 1388.38 775.442C1386.31 776.702 1383.6 778.213 1382.81 780.285L1382.76 780.509H1393.45V783H1379.45ZM1396.6 787.339V785.883C1397.39 785.603 1397.98 785.043 1397.98 783.28V783H1396.58V779.921H1399.6V783.28C1399.6 785.743 1398.59 787.087 1396.6 787.339ZM1414.36 783V768.64H1409.74V766.848C1412.26 766.792 1414.62 765.84 1414.98 762.929H1417.08V783H1414.36ZM1428.1 783.448C1424.15 783.448 1421.43 781.012 1421.18 778.073H1423.9C1424.15 779.725 1425.49 781.236 1428.04 781.236C1429.52 781.236 1430.59 780.789 1431.37 779.893C1432.52 778.633 1433.02 776.506 1433.13 773.37H1433.08C1431.79 775.134 1429.94 776.198 1427.59 776.198C1423.9 776.198 1420.93 773.174 1420.9 769.423C1420.87 765.644 1423.9 762.593 1427.98 762.593C1429.97 762.593 1431.51 763.237 1432.69 764.133C1434.95 765.868 1435.68 768.724 1435.68 773.09C1435.68 777.065 1434.87 780.005 1432.94 781.74C1431.73 782.86 1430.08 783.448 1428.1 783.448ZM1427.96 774.014C1430.87 774.014 1432.71 772.111 1432.71 769.367C1432.71 766.624 1430.62 764.749 1427.98 764.749C1425.3 764.749 1423.42 766.624 1423.42 769.367C1423.42 772.083 1425.44 774.014 1427.96 774.014ZM1445.84 783.448C1443.6 783.448 1441.64 782.832 1440.22 781.656C1438.76 780.481 1437.89 778.745 1437.86 776.534H1440.5C1440.58 779.473 1442.54 781.236 1445.76 781.236C1448.42 781.236 1450.29 779.893 1450.29 777.177C1450.29 774.742 1448.47 773.454 1445.25 773.454H1444V771.383H1445.23C1448.19 771.383 1449.73 770.123 1449.73 768.052C1449.73 765.952 1447.89 764.693 1445.56 764.693C1442.76 764.693 1441.14 766.512 1441.11 769.003H1438.51C1438.54 765.252 1441.2 762.593 1445.65 762.593C1449.4 762.593 1452.36 764.637 1452.36 768.08C1452.36 770.319 1451.02 771.607 1449.06 772.251V772.335C1451.83 773.062 1453.06 774.826 1453.06 777.401C1453.06 781.292 1449.9 783.448 1445.84 783.448ZM1455.79 787.339V785.883C1456.57 785.603 1457.16 785.043 1457.16 783.28V783H1455.76V779.921H1458.78V783.28C1458.78 785.743 1457.78 787.087 1455.79 787.339ZM1468.85 783C1468.96 780.593 1469.77 778.885 1470.97 777.513C1472.48 775.834 1474.56 774.686 1476.46 773.538C1478.95 772.111 1480.41 771.103 1480.41 768.808C1480.41 766.456 1478.81 764.861 1476.26 764.861C1474.92 764.861 1473.94 765.28 1473.21 766.092C1472.43 766.904 1472.09 767.996 1472.09 769.675H1469.32C1469.32 767.436 1469.96 765.84 1471.17 764.609C1472.4 763.293 1474.3 762.621 1476.49 762.621C1480.57 762.621 1483.21 765.224 1483.21 768.752C1483.21 772.447 1480.77 773.734 1477.78 775.442C1475.7 776.702 1472.99 778.213 1472.2 780.285L1472.15 780.509H1482.84V783H1468.85ZM1493.78 783.448C1488.85 783.448 1485.94 779.361 1485.94 773.006C1485.94 766.568 1489.05 762.593 1493.81 762.593C1498.59 762.593 1501.64 766.512 1501.64 773.006C1501.64 779.361 1498.79 783.448 1493.78 783.448ZM1493.81 781.152C1497.28 781.152 1498.84 778.045 1498.84 773.006C1498.84 768.052 1497.19 764.861 1493.81 764.861C1490.39 764.861 1488.71 767.996 1488.71 773.006C1488.71 777.961 1490.39 781.152 1493.81 781.152ZM1511.53 783.448C1507.58 783.448 1504.87 781.012 1504.61 778.073H1507.33C1507.58 779.725 1508.92 781.236 1511.47 781.236C1512.96 781.236 1514.02 780.789 1514.8 779.893C1515.95 778.633 1516.45 776.506 1516.57 773.37H1516.51C1515.22 775.134 1513.38 776.198 1511.02 776.198C1507.33 776.198 1504.36 773.174 1504.33 769.423C1504.31 765.644 1507.33 762.593 1511.42 762.593C1513.4 762.593 1514.94 763.237 1516.12 764.133C1518.39 765.868 1519.11 768.724 1519.11 773.09C1519.11 777.065 1518.3 780.005 1516.37 781.74C1515.17 782.86 1513.52 783.448 1511.53 783.448ZM1511.39 774.014C1514.3 774.014 1516.15 772.111 1516.15 769.367C1516.15 766.624 1514.05 764.749 1511.42 764.749C1508.73 764.749 1506.85 766.624 1506.85 769.367C1506.85 772.083 1508.87 774.014 1511.39 774.014ZM1286.17 827.42C1280.23 827.42 1276.37 822.885 1276.37 816.587C1276.37 810.456 1280.07 805.725 1286.25 805.725C1288.69 805.725 1290.65 806.425 1292.05 807.573C1293.53 808.777 1294.43 810.484 1294.71 812.472H1291.85C1291.38 809.924 1289.39 808.217 1286.2 808.217C1281.77 808.217 1279.28 811.8 1279.28 816.587C1279.28 821.569 1282.03 824.929 1286.23 824.929C1290 824.929 1291.82 822.381 1292.08 819.414H1294.93C1294.9 821.485 1293.92 823.781 1292.44 825.208C1290.98 826.664 1288.86 827.42 1286.17 827.42ZM1298.31 827V806.173H1302.01L1306.35 817.482C1307.19 819.75 1308.45 824.005 1308.45 824.005H1308.5C1308.5 824.005 1309.79 819.778 1310.63 817.482L1314.89 806.173H1318.69V827H1315.95V814.403C1315.95 812.556 1316.12 809.056 1316.12 809.056H1316.06C1316.06 809.056 1315.22 812.192 1314.61 813.815L1309.54 827H1307.3L1302.23 813.815C1301.65 812.192 1300.78 809.056 1300.78 809.056H1300.72C1300.72 809.056 1300.89 812.556 1300.89 814.403V827H1298.31ZM1328.82 827V818.266L1321.32 806.173H1324.51L1328.26 812.444C1329.13 813.927 1330.31 816.335 1330.31 816.335H1330.36C1330.36 816.335 1331.57 813.927 1332.43 812.444L1336.21 806.173H1339.26L1331.68 818.406V827H1328.82ZM1341.94 827V806.173H1344.8V812.612C1344.8 814.011 1344.74 815.439 1344.69 816.447L1354.74 806.145H1358.32L1349.95 814.515L1358.99 827H1355.66L1347.96 816.363L1344.8 819.47V827H1341.94ZM1360.57 818.154V815.075H1363.6V818.154H1360.57ZM1360.57 827V823.921H1363.6V827H1360.57ZM1378.44 827V812.64H1373.82V810.848C1376.34 810.792 1378.69 809.84 1379.06 806.929H1381.16V827H1378.44ZM1389.46 827V812.64H1384.84V810.848C1387.36 810.792 1389.71 809.84 1390.08 806.929H1392.17V827H1389.46ZM1396.19 831.339V829.883C1396.98 829.603 1397.57 829.043 1397.57 827.28V827H1396.17V823.921H1399.19V827.28C1399.19 829.743 1398.18 831.087 1396.19 831.339ZM1417.48 827.448C1415.24 827.448 1413.59 826.72 1412.39 825.544C1410.31 823.641 1409.61 820.926 1409.61 816.923C1409.61 813.815 1410.29 811.212 1411.6 809.392C1412.92 807.601 1414.85 806.593 1417.42 806.593C1421.43 806.593 1423.42 809.252 1423.78 811.716H1421.12C1420.92 810.344 1419.72 808.805 1417.48 808.805C1413.73 808.805 1412.3 811.828 1412.16 817.006H1412.22C1413.53 814.823 1415.3 813.871 1417.7 813.871C1421.37 813.871 1424.31 816.867 1424.34 820.59C1424.37 824.369 1421.32 827.448 1417.48 827.448ZM1417.42 825.292C1419.94 825.292 1421.82 823.417 1421.82 820.674C1421.82 817.93 1419.89 816.055 1417.34 816.055C1414.57 816.055 1412.67 817.874 1412.67 820.646C1412.67 823.389 1414.74 825.292 1417.42 825.292ZM1426.92 831.339V829.883C1427.7 829.603 1428.29 829.043 1428.29 827.28V827H1426.89V823.921H1429.92V827.28C1429.92 829.743 1428.91 831.087 1426.92 831.339ZM1448.18 827.448C1443.25 827.448 1440.34 823.361 1440.34 817.006C1440.34 810.568 1443.45 806.593 1448.21 806.593C1452.99 806.593 1456.05 810.512 1456.05 817.006C1456.05 823.361 1453.19 827.448 1448.18 827.448ZM1448.21 825.152C1451.68 825.152 1453.25 822.045 1453.25 817.006C1453.25 812.052 1451.59 808.861 1448.21 808.861C1444.79 808.861 1443.11 811.996 1443.11 817.006C1443.11 821.961 1444.79 825.152 1448.21 825.152ZM1458.36 831.339V829.883C1459.14 829.603 1459.73 829.043 1459.73 827.28V827H1458.33V823.921H1461.35V827.28C1461.35 829.743 1460.35 831.087 1458.36 831.339ZM1476.12 827V812.64H1471.5V810.848C1474.02 810.792 1476.37 809.84 1476.73 806.929H1478.83V827H1476.12ZM1490.19 827.448C1486.38 827.448 1482.46 825.712 1482.46 821.289C1482.46 818.462 1484.28 816.811 1486.83 816.111V816.027C1484.67 815.383 1483.47 813.871 1483.47 811.828C1483.47 808.637 1486.35 806.565 1490.1 806.565C1493.88 806.565 1496.76 808.609 1496.76 811.8C1496.76 813.843 1495.56 815.355 1493.43 816.027V816.111C1495.98 816.755 1497.72 818.602 1497.72 821.289C1497.72 825.74 1493.99 827.448 1490.19 827.448ZM1490.1 815.103C1492.59 815.103 1494.13 813.899 1494.13 811.912C1494.13 809.924 1492.59 808.749 1490.1 808.749C1487.61 808.749 1486.07 809.924 1486.07 811.912C1486.07 813.899 1487.61 815.103 1490.1 815.103ZM1490.19 825.236C1493.18 825.236 1495.03 823.753 1495.03 821.261C1495.03 818.742 1493.18 817.146 1490.1 817.146C1487.05 817.146 1485.23 818.742 1485.23 821.261C1485.23 823.781 1487.08 825.236 1490.19 825.236ZM1277.16 871V850.173H1280.01V858.935H1290.76V850.173H1293.64V871H1290.76V861.258H1280.01V871H1277.16ZM1297.96 871V850.173H1312.77V852.693H1300.81V858.991H1311.62V861.37H1300.81V868.397H1313.08V871H1297.96ZM1315.09 871L1322.26 860.307L1315.62 850.173H1318.93L1322.03 855.184C1322.85 856.5 1323.94 858.599 1323.94 858.599H1323.99C1323.99 858.599 1325.11 856.5 1325.95 855.184L1329.09 850.173H1332.22L1325.48 860.335L1332.47 871H1329.06L1325.76 865.569C1324.94 864.226 1323.85 862.098 1323.85 862.098H1323.8C1323.8 862.098 1322.62 864.226 1321.75 865.569L1318.34 871H1315.09ZM1334.71 862.154V859.075H1337.74V862.154H1334.71ZM1334.71 871V867.921H1337.74V871H1334.71ZM1348.86 858.711L1349.19 856.472H1352.08L1352.86 851.041H1354.93L1354.15 856.472H1358.01L1358.8 851.041H1360.9L1360.11 856.472H1363.05L1362.69 858.711H1359.8L1359.19 863.05H1362.07L1361.71 865.317H1358.88L1358.07 871H1355.97L1356.78 865.317H1352.92L1352.13 871H1350.03L1350.85 865.317H1347.88L1348.24 863.05H1351.15L1351.77 858.711H1348.86ZM1353.84 858.711L1353.25 863.05H1357.09L1357.7 858.711H1353.84ZM1366.33 871V850.173H1375.29C1377.44 850.173 1379.09 850.761 1380.27 851.937C1381.14 852.833 1381.67 854.036 1381.67 855.548C1381.67 857.815 1380.38 859.271 1378.14 859.915V859.999C1380.69 860.587 1382.51 862.266 1382.51 865.009C1382.51 866.661 1381.92 868.061 1380.91 869.068C1379.74 870.3 1377.95 871 1375.71 871H1366.33ZM1369.18 859.047H1374.89C1377.33 859.047 1378.79 857.843 1378.79 855.744C1378.79 853.784 1377.47 852.637 1375.23 852.637H1369.18V859.047ZM1369.18 868.481H1375.54C1376.97 868.481 1378 868.117 1378.67 867.445C1379.26 866.885 1379.6 866.073 1379.6 865.093C1379.6 862.602 1377.83 861.37 1375.37 861.37H1369.18V868.481ZM1392.88 871.448C1390.64 871.448 1388.99 870.72 1387.78 869.544C1385.71 867.641 1385.01 864.926 1385.01 860.923C1385.01 857.815 1385.68 855.212 1387 853.392C1388.31 851.601 1390.25 850.593 1392.82 850.593C1396.82 850.593 1398.81 853.252 1399.18 855.716H1396.52C1396.32 854.344 1395.12 852.805 1392.88 852.805C1389.13 852.805 1387.7 855.828 1387.56 861.006H1387.61C1388.93 858.823 1390.69 857.871 1393.1 857.871C1396.77 857.871 1399.71 860.867 1399.74 864.59C1399.76 868.369 1396.71 871.448 1392.88 871.448ZM1392.82 869.292C1395.34 869.292 1397.22 867.417 1397.22 864.674C1397.22 861.93 1395.28 860.055 1392.74 860.055C1389.97 860.055 1388.06 861.874 1388.06 864.646C1388.06 867.389 1390.13 869.292 1392.82 869.292ZM1412.22 871.42C1406.29 871.42 1402.42 866.885 1402.42 860.587C1402.42 854.456 1406.12 849.725 1412.3 849.725C1414.74 849.725 1416.7 850.425 1418.1 851.573C1419.58 852.777 1420.48 854.484 1420.76 856.472H1417.9C1417.43 853.924 1415.44 852.217 1412.25 852.217C1407.82 852.217 1405.33 855.8 1405.33 860.587C1405.33 865.569 1408.08 868.929 1412.28 868.929C1416.05 868.929 1417.87 866.381 1418.13 863.414H1420.98C1420.95 865.485 1419.97 867.781 1418.49 869.208C1417.03 870.664 1414.91 871.42 1412.22 871.42ZM1428.03 871V856.64H1423.41V854.848C1425.93 854.792 1428.28 853.84 1428.65 850.929H1430.75V871H1428.03ZM1435.38 871V850.173H1443.08C1449.29 850.173 1452.37 854.428 1452.37 860.671C1452.37 866.885 1449.13 871 1442.88 871H1435.38ZM1438.27 868.509H1442.77C1447.47 868.509 1449.41 865.457 1449.41 860.671C1449.41 855.884 1447.67 852.665 1442.94 852.665H1438.27V868.509ZM1459.55 871V856.64H1454.93V854.848C1457.45 854.792 1459.8 853.84 1460.17 850.929H1462.27V871H1459.55Z" fill="black" style="fill:black;fill-opacity:1;"/>
</g>
<defs>
<clipPath id="clip0_1_10504">
<rect width="1854" height="1236" fill="white" style="fill:white;fill-opacity:1;"/>
</clipPath>
</defs>
</svg>
