<svg width="917" height="1236" viewBox="0 0 917 1236" fill="none" xmlns="http://www.w3.org/2000/svg">
<g clip-path="url(#clip0_2690_22759)">
<rect width="917" height="1236" fill="white" style="fill:white;fill-opacity:1;"/>
<rect y="41" width="917" height="1153" fill="#EEEAE7" style="fill:#EEEAE7;fill:color(display-p3 0.9333 0.9176 0.9059);fill-opacity:1;"/>
<path d="M267.477 306.953C264.796 312.201 263.163 317.92 262.667 323.791C262.331 327.529 262.542 338.302 262.44 348.184L224.997 356.757L167.508 367.299L138.375 372.535C137.538 372.626 136.691 372.509 135.91 372.192C135.13 371.875 134.441 371.37 133.904 370.721C133.904 370.721 129.745 344.443 128.575 342.611C127.404 340.779 131.656 337.157 131.656 337.157C131.656 337.157 148.534 333.726 162.24 330.638C169.85 328.966 176.427 327.437 178.784 326.549C183.576 324.781 243.767 312.126 247.922 310.458C249.693 310.852 257.778 309.144 267.477 306.953Z" fill="#223B80" style="fill:#223B80;fill:color(display-p3 0.1333 0.2314 0.5020);fill-opacity:1;"/>
<path d="M703.466 283.1C703.466 283.1 662.414 302.964 570.405 325.322L461.48 350.637L399.195 362.083L367.631 271.9C367.631 271.9 532.245 250.872 552.809 249.263C575.027 247.487 597.333 247.05 619.604 247.954C629.207 248.555 638.723 250.144 648 252.698C648 252.698 687.798 268.667 703.466 283.1Z" fill="#9D9D9C" style="fill:#9D9D9C;fill:color(display-p3 0.6157 0.6157 0.6118);fill-opacity:1;"/>
<path d="M389.024 334.283C385.828 346.718 378.938 357.894 369.261 366.338C364.866 368.063 356.138 347.188 356.127 337.69C356.322 335.51 355.809 332.482 355.486 329.078C354.363 318.335 352.512 307.68 349.946 297.187C349.229 295.788 348.176 294.588 346.883 293.694C342.573 290.251 337.956 287.209 333.091 284.609L336.093 295.787L345.567 331.092L345.986 332.543C346.743 333.808 347.164 335.246 347.21 336.719C347.257 338.193 346.927 339.654 346.251 340.964C338.996 349.7 330.073 356.904 320.003 362.156L309.426 365.368C312.01 361.712 313.586 357.441 313.994 352.984C314.133 351.427 312.59 345.873 310.861 338.89C307.936 326.854 303.59 310.532 301.52 302.105L300.274 296.735C299.781 293.473 298.555 286.142 298.555 286.142C296.404 288.225 296.733 296.81 296.733 296.81C296.733 296.81 296.984 299.265 297.449 302.839L298.844 315.286C300.124 323.745 301.862 332.127 304.05 340.398L304.627 342.726C306.204 350.998 305.436 359.547 302.411 367.407C290.963 370.697 276.061 374.855 263.53 377.969C266.242 375.732 268.014 372.557 268.491 369.074C268.672 367.05 268.711 357.871 268.771 348.458C268.812 341.005 268.867 333.397 269.024 329.016C269.549 323.176 270.367 314.067 271.315 307.873C271.686 303.746 272.412 300.908 272.412 300.908C271.741 302.26 270.023 304.775 268.285 308.386C265.604 313.633 263.971 319.351 263.475 325.222C263.139 328.959 263.35 339.73 263.249 349.611C263.41 355.511 263.09 361.414 262.292 367.263C260.755 371.793 258.49 376.044 255.586 379.847V379.847C250.786 381.065 245.904 381.938 240.98 382.461C227.079 383.334 173.336 378.357 170.598 373.873C169.525 372.463 168.761 370.844 168.354 369.12C168.354 369.12 168.354 369.12 168.354 369.12L183.965 364.948L213.138 349.669C216.436 347.924 211.069 336.847 208.226 333.531C204.896 331.672 201.211 330.535 197.412 330.194C193.613 329.854 189.785 330.317 186.177 331.554C178.678 333.38 170.933 333.984 163.242 333.343C152.392 333.485 141.613 331.587 131.466 327.746L67.7433 296.602L-48.7861 273.673L-41.8438 172.734C-41.8438 172.734 51.693 203.334 63.0146 207.567C74.3363 211.801 113.532 209.979 113.532 209.979C113.532 209.979 265.45 203.51 271.76 204.076C282.015 204.426 291.989 207.515 300.643 213.023C309.191 219.284 360.847 256.253 376.387 270.361C378.099 271.7 379.574 273.318 380.747 275.147C382.335 280.392 383.534 285.746 384.335 291.166C385.954 300.259 387.617 311.475 388.463 320.419C389.032 325.017 389.22 329.654 389.024 334.283Z" fill="#B98C62" style="fill:#B98C62;fill:color(display-p3 0.7250 0.5482 0.3836);fill-opacity:1;"/>
<path d="M551.368 260.113L551.464 260.053L553.511 256.295C555.514 252.608 557.441 248.915 559.293 245.215C559.51 244.838 559.706 244.449 559.878 244.049C559.995 243.85 560.098 243.642 560.187 243.429C560.388 243.064 560.538 242.703 560.727 242.319L561.024 241.679C561.326 241.09 561.636 240.47 561.914 239.843C562.025 239.659 562.12 239.466 562.197 239.266L562.494 238.626L562.879 237.826L563.094 237.398C565.51 232.341 567.736 227.322 569.783 222.36C571.107 219.158 572.092 216.701 572.448 215.811C579.153 198.864 574.563 212.678 579.126 193.187L580.262 188.177L580.335 187.865C582.286 179.007 584.617 167.105 586.39 154.134C587.772 143.759 588.493 133.954 588.925 122.351C588.925 122.351 589.185 115.159 589.142 115.132C589.395 105.993 589.508 95.6845 589.654 83.1907C589.805 71.0939 589.828 54.533 588.795 33.7365C587.764 20.1799 585.876 6.70206 583.143 -6.61619L581.477 -14.4557L573.241 -1.04744L573.363 0.0525043C573.868 4.39011 576.503 26.3022 578.861 31.3854C579.993 33.809 580.427 40.5699 580.366 51.0064L580.408 53.6536C580.408 54.4285 580.402 55.2347 580.376 56.0528L580.366 57.1548C580.385 58.1318 580.346 59.1448 580.351 60.1844C580.356 61.224 580.325 61.9916 580.297 62.8915C580.068 74.0472 579.696 87.7244 579.131 103.714L578.904 110.057L578.867 111.202C577.757 140.762 576.709 149.353 576.371 152.851C576.297 153.592 574.407 169.256 570.531 187.358L570.227 188.803L569.898 190.21L569.339 192.75L568.989 194.251L568.634 195.701C563.259 217.755 566.352 206.048 559.048 224.009L558.658 224.973L557.383 228.038L556.4 230.413C553.424 237.449 550.543 243.865 547.926 249.502L547.737 249.887L547.512 255.373L547.437 257.531L547.124 267.991L551.368 260.113Z" fill="#009253" style="fill:#009253;fill:color(display-p3 0.0000 0.5725 0.3255);fill-opacity:1;"/>
<path d="M597.171 248.207C597.171 248.207 605.967 242.149 613.464 241.525C614.636 241.409 615.816 241.381 616.993 241.442C613.807 247.431 611.431 253.817 609.927 260.432L608.926 265.358L611.939 261.347C612.093 261.251 622.897 246.726 632.813 234.171C632.635 243.183 634.996 252.063 639.625 259.796C640.824 261.725 646.839 270.629 647.098 271.003L648.02 272.487C645.836 275.894 643.361 279.106 640.623 282.086L634.732 287.915L641.964 283.899C645.243 281.965 648.306 279.684 651.099 277.096L651.33 276.952C654.369 274.18 657.08 271.068 659.41 267.678C665.246 259.05 666.286 252.468 666.195 247.419C669.138 255.293 671.301 262.128 672.932 267.289C675.63 275.931 678.319 278.322 678.319 278.322C678.319 278.322 680.401 277.027 678.835 265.65C676.994 253.772 672.818 242.376 666.549 232.121L666.334 231.773C665.77 230.867 665.219 229.98 664.808 229.06C670.923 230.886 676.671 233.773 681.788 237.589C684.761 239.777 687.4 242.387 689.622 245.336L692.666 250.233L691.63 244.568C690.443 239.21 687.636 234.347 683.589 230.641C681.426 228.647 678.885 227.107 676.118 226.11C673.35 225.113 670.411 224.68 667.474 224.836C666.73 224.844 664.49 224.98 662.594 225.197C655.812 212.866 653.081 207.052 651.108 202.932C649.264 198.817 647.109 194.848 644.665 191.059C644.329 190.519 643.982 189.96 643.598 189.343C643.418 189.054 643.227 188.745 643.023 188.418C642.921 188.232 642.809 188.051 642.687 187.878C642.316 187.28 641.956 186.702 641.609 186.143C636.876 179.087 633.475 174.732 630.654 171.14C626.771 166.47 623.36 161.428 620.47 156.086C620.039 155.392 619.583 154.659 619.246 153.773C619.15 153.618 619.054 153.464 618.947 153.291L618.324 152.074C615.164 145.74 611.593 139.62 607.633 133.753C606.746 132.326 605.803 131.068 604.897 129.867C608.176 131.918 612.216 134.592 616.981 138.045C630.881 148.506 643.069 161.067 653.109 175.276L657.678 182.112L655.118 174.294C654.89 173.927 651.645 163.675 650.825 161.538C648.837 156.295 645.85 151.488 642.029 147.385C644.453 148.603 646.719 150.111 648.777 151.878C651.306 153.838 653.352 156.351 654.759 159.225L655.822 162.655L656.956 159.276C657.647 156.905 657.716 154.397 657.157 151.991C656.598 149.586 655.43 147.365 653.765 145.541C648.687 140.251 641.497 139.348 635.779 139.135L632.839 139.092C631.614 138.196 630.346 137.273 628.965 136.341C619.876 130.378 609.886 125.92 599.379 123.139C597.039 120.561 594.431 118.24 591.6 116.213C590.572 115.463 589.554 114.813 588.418 114.102L588.22 121.31L591.498 122.8C592.429 123.825 593.334 124.893 594.226 125.942C600.085 133.105 605.021 140.975 608.918 149.368C610.518 152.544 612.189 155.835 614.197 159.452C615.299 161.44 616.176 162.98 617.074 164.426C615.061 172.28 612.124 179.867 608.325 187.029C607.989 187.693 607.622 188.349 607.243 188.986L606.112 190.865C603.257 195.733 599.897 200.286 596.088 204.45L590.215 210.267L597.448 206.251C601.978 203.56 606.107 200.245 609.715 196.404C610.722 199.953 611.076 203.655 610.76 207.33C610.604 209.575 610.003 211.766 608.993 213.776L606.682 217.11L610.381 215.451C612.009 214.665 613.438 213.521 614.561 212.104C615.685 210.688 616.474 209.037 616.871 207.273C617.209 205.068 617.101 202.818 616.552 200.656C616.002 198.495 615.024 196.466 613.674 194.69C613.495 194.401 613.123 193.804 612.68 193.09C613.493 192.077 614.282 191.024 615.036 189.914C619.043 184.513 621.405 178.069 621.836 171.357C622.942 172.835 624.033 174.161 625.216 175.591C630.43 181.844 635.211 188.446 639.527 195.35C635.844 208.932 629.897 221.794 621.935 233.397C620.887 234.85 619.922 236.306 619.085 237.842C617.079 236.356 614.644 235.563 612.147 235.58C609.559 235.614 607.033 236.379 604.859 237.786C603.279 238.799 601.826 239.998 600.532 241.359C599.712 242.189 595.72 246.516 595.72 246.516L588.727 254.1L597.171 248.207ZM659.809 226.393L659.579 226.323C659.579 226.323 659.728 226.391 659.809 226.393V226.393ZM641.798 218.613C643.35 214.016 644.055 209.176 643.877 204.327C643.866 203.88 643.847 203.117 643.789 202.164C647.755 208.546 652.291 216.231 656.836 225.436L657.681 227.182C658.627 229.134 659.577 231.136 660.505 233.232C661.216 234.849 661.915 236.446 662.57 238.017C660.26 248.753 656.234 259.047 650.648 268.501L649.283 270.606L649.075 270.014C643.967 253.386 641.496 236.061 641.752 218.668L641.798 218.613Z" fill="#009253" style="fill:#009253;fill:color(display-p3 0.0000 0.5725 0.3255);fill-opacity:1;"/>
<path d="M570.572 178.532L564.268 170.37C564.268 170.37 560.705 165.715 559.959 164.816C558.786 163.344 557.44 162.018 555.952 160.865C553.904 159.273 551.443 158.299 548.86 158.057C546.413 157.843 543.963 158.428 541.877 159.725C541.12 158.164 540.305 156.638 539.378 155.104C532.514 142.866 527.75 129.566 525.284 115.754C530.165 109.216 535.502 103.031 541.256 97.2461C542.552 95.9331 543.763 94.6993 544.991 93.3212C544.821 100.042 546.601 106.669 550.117 112.399C550.824 113.537 551.519 114.655 552.214 115.773L551.003 117.221C549.5 118.869 548.343 120.802 547.603 122.906C546.863 125.01 546.554 127.241 546.695 129.467C546.937 131.259 547.579 132.974 548.573 134.484C549.568 135.994 550.889 137.261 552.44 138.191L555.987 140.156L553.988 136.641C553.141 134.558 552.726 132.324 552.767 130.076C552.786 126.389 553.465 122.735 554.774 119.287C558.039 123.426 561.859 127.096 566.125 130.193L572.99 134.827L567.641 128.502C564.219 124.021 561.279 119.192 558.87 114.095C558.486 113.478 558.207 112.77 557.864 112.048C557.522 111.325 557.208 110.691 556.916 109.964C553.766 102.496 551.517 94.6788 550.217 86.6784C551.243 85.3191 552.313 83.7721 553.511 81.9584C555.87 78.4873 557.822 75.3496 559.694 72.3416C564.293 64.325 569.881 56.9184 576.328 50.2961C577.31 49.3385 578.299 48.3495 579.324 47.4184L582.731 46.2356L583.175 39.0377C582.023 39.5931 580.907 40.2064 579.816 40.8582C576.808 42.6239 574 44.7098 571.441 47.0794C560.71 48.8934 550.344 52.4303 540.743 57.5536C539.335 58.4284 538.005 59.2554 536.641 59.9427L533.694 59.7165C527.977 59.4212 520.766 59.7334 515.261 64.465C513.443 66.1391 512.085 68.2517 511.318 70.6007C510.55 72.9496 510.399 75.4562 510.878 77.8805L511.673 81.3953L513.038 78.088C514.709 75.3541 516.975 73.0322 519.668 71.2947C521.873 69.7233 524.257 68.4204 526.771 67.4139C522.625 71.1831 519.244 75.7164 516.815 80.7655C515.804 82.8371 511.579 92.6799 511.414 93.103L508.111 100.689L513.267 94.2768C524.525 81.0224 537.779 69.6013 552.552 60.4238C557.565 57.308 561.875 55.083 565.313 53.3469C564.314 54.4488 563.305 55.6639 562.224 56.9775C557.763 62.4683 553.667 68.2463 549.963 74.2742L549.214 75.4346L548.922 75.9103L547.581 78.0533C544.231 83.0959 540.395 87.7988 536.129 92.0943C533.011 95.4216 529.236 99.4524 523.885 106.066C523.484 106.582 523.052 107.091 522.637 107.67L522.224 108.167C521.987 108.474 521.789 108.758 521.548 109.015L520.319 110.607C517.546 114.164 515.053 117.93 512.861 121.871C510.578 125.723 507.313 131.307 499.476 142.994C497.54 142.674 495.327 142.339 494.586 142.265C491.674 141.854 488.709 142.028 485.865 142.777C483.021 143.526 480.355 144.834 478.023 146.626C473.657 149.951 470.425 154.545 468.773 159.779L467.229 165.336L470.782 160.775C473.244 158.032 476.1 155.671 479.258 153.77C484.69 150.413 490.673 148.043 496.931 146.767L495.18 149.326L494.936 149.664C487.772 159.321 482.599 170.305 479.715 181.978C477.154 193.165 479.104 194.625 479.104 194.625C479.104 194.625 481.983 192.462 485.461 184.126C487.535 179.121 490.297 172.514 493.927 164.938C493.436 169.867 493.892 176.533 498.938 185.638C500.964 189.214 503.387 192.55 506.163 195.581C506.2 195.664 506.248 195.742 506.307 195.812C508.873 198.666 511.747 201.227 514.877 203.448L521.722 208.094L516.373 201.77C513.893 198.551 511.698 195.121 509.814 191.521L510.921 190.164C511.216 189.821 518 181.514 519.321 179.597C524.625 172.309 527.76 163.671 528.367 154.678C537.085 167.968 546.635 183.414 546.755 183.607L549.404 187.868L548.935 182.814C548.003 176.095 546.194 169.528 543.553 163.28C544.753 163.335 545.947 163.486 547.123 163.734C554.522 165.015 562.782 171.721 562.818 171.779L570.572 178.532ZM502.365 144.673L502.172 144.793C502.172 144.793 502.321 144.646 502.365 144.673V144.673ZM520.823 138.546C519.544 155.887 515.548 172.919 508.98 189.019L508.728 189.603C508.309 188.928 507.974 188.174 507.576 187.406C502.853 177.501 499.755 166.9 498.401 156.01L500.89 151.416C502 149.417 503.046 147.403 504.23 145.652L505.228 143.989C510.543 135.34 515.773 127.973 520.292 121.957C520.155 122.897 520.062 123.65 520.022 124.102C519.406 128.915 519.68 133.8 520.83 138.514L520.823 138.546Z" fill="#009253" style="fill:#009253;fill:color(display-p3 0.0000 0.5725 0.3255);fill-opacity:1;"/>
<path d="M433.081 284.976C433.081 284.976 441.392 291.678 444.123 298.693C444.559 299.789 444.919 300.913 445.2 302.059C438.553 300.697 431.754 300.231 424.983 300.672L419.928 301.141L424.648 302.885C424.816 302.941 441.778 309.237 456.579 315.112C447.891 317.513 440.051 322.302 433.949 328.935C432.357 330.673 425.618 338.923 425.335 339.286L424.216 340.623C420.317 339.487 416.523 338.018 412.876 336.231L405.632 332.234L411.534 338.028C414.322 340.662 417.4 342.973 420.708 344.914C420.777 344.982 420.862 345.03 420.956 345.054C424.478 347.19 428.238 348.908 432.158 350.172C442.114 353.286 448.694 352.431 453.465 350.989C446.745 356.047 440.796 360.065 436.315 363.09C428.782 368.173 427.275 371.381 427.275 371.381C427.275 371.381 429.052 372.949 439.57 368.283C450.428 363.136 460.162 355.896 468.215 346.981L468.543 346.777L470.731 344.535C470.7 350.92 469.563 357.251 467.37 363.248C466.12 366.717 464.369 369.984 462.172 372.945L458.398 377.322L463.539 374.714C468.341 372.061 472.205 367.989 474.602 363.056C475.903 360.415 476.661 357.541 476.831 354.603C477.001 351.665 476.581 348.722 475.594 345.949C475.365 345.237 474.619 343.135 473.908 341.304C483.751 331.339 488.64 326.991 491.973 324.011C495.398 321.072 498.595 317.879 501.539 314.459L502.854 312.919L503.554 312.11L503.967 311.613L505.289 310.043C510.72 303.515 513.912 299.018 516.564 295.286C519.929 290.262 523.777 285.579 528.053 281.304L529.932 279.468L530.414 279.169L531.408 278.23C536.563 273.41 541.395 268.255 545.873 262.8C546.935 261.498 547.925 260.296 548.878 259.035C547.839 262.781 546.432 267.397 544.46 272.952C538.395 289.234 529.833 304.473 519.081 318.122L513.815 324.442L520.591 319.776C520.977 319.537 529.771 313.43 531.598 312.027C536.041 308.661 539.787 304.463 542.627 299.668C542.118 302.253 541.304 304.768 540.202 307.161C539.039 310.141 537.208 312.815 534.85 314.977L531.804 316.871L535.411 316.954C537.881 316.941 540.307 316.294 542.456 315.075C544.605 313.857 546.405 312.107 547.685 309.994C551.315 303.623 550.131 296.474 548.708 290.918C548.579 290.41 548.278 289.367 547.915 288.096C548.415 286.663 548.94 285.187 549.445 283.591C552.566 273.165 553.982 262.304 553.638 251.427C555.445 248.454 556.933 245.299 558.076 242.013C558.505 240.811 558.872 239.595 559.195 238.352L552.307 240.173L551.83 243.704C551.112 244.872 550.344 246.044 549.595 247.204C544.397 254.856 538.257 261.823 531.32 267.942C528.722 270.385 526.039 272.907 523.096 275.912C521.579 277.47 520.276 278.814 519.151 280.101C511.046 280.394 502.934 279.73 494.984 278.123C494.257 277.986 493.519 277.83 492.807 277.631C492.095 277.432 491.388 277.284 490.676 277.085C485.198 275.734 479.879 273.808 474.806 271.34L467.555 267.374L473.476 273.155C477.338 276.74 481.69 279.759 486.402 282.12C483.277 284.089 479.825 285.483 476.209 286.236C474.015 286.708 471.749 286.745 469.54 286.345L465.7 285.07L468.342 288.158C469.558 289.493 471.059 290.537 472.733 291.212C474.408 291.888 476.213 292.179 478.015 292.062C480.225 291.759 482.352 291.014 484.269 289.873C486.187 288.732 487.855 287.218 489.176 285.42L490.364 283.934C491.563 284.444 492.809 284.9 494.069 285.292C500.387 287.612 507.243 288.049 513.805 286.551C512.699 288.04 511.74 289.464 510.709 290.987C506.162 297.761 501.153 304.214 495.717 310.299C481.653 310.631 467.634 308.581 454.254 304.237C452.558 303.66 450.899 303.141 449.218 302.716C450.076 300.373 450.146 297.815 449.418 295.429C448.653 292.957 447.2 290.755 445.229 289.079C443.817 287.843 442.26 286.782 440.592 285.921C439.551 285.365 434.284 282.785 434.284 282.785L425.042 278.239L433.081 284.976ZM471.878 338.771C471.884 338.693 471.881 338.614 471.867 338.537C471.889 338.604 471.885 338.677 471.855 338.741C471.825 338.804 471.771 338.854 471.705 338.879L471.878 338.771ZM474.212 319.308C479.063 319.476 483.905 318.775 488.51 317.237C488.876 317.009 489.649 316.876 490.555 316.527C485.55 322.15 479.455 328.771 471.946 335.655L470.518 336.97C468.909 338.424 467.262 339.902 465.514 341.39L461.52 344.727C450.568 345.565 439.553 344.631 428.898 341.963L426.519 341.276L427.059 340.94C441.553 331.33 457.46 324.042 474.204 319.339L474.212 319.308Z" fill="#009253" style="fill:#009253;fill:color(display-p3 0.0000 0.5725 0.3255);fill-opacity:1;"/>
<path d="M537.503 393.158L538.303 398.632C536.18 397.07 533.785 395.249 532.994 394.727C529.835 392.31 527.19 389.286 525.216 385.832C523.242 382.378 521.979 378.564 521.501 374.615C520.588 367.25 521.964 359.783 525.442 353.227L529.346 346.488L528.182 354.199C527.882 359.183 528.309 364.184 529.45 369.044C531.415 377.43 532.84 381.684 536.085 389.517L537.503 393.158Z" fill="#009253" style="fill:#009253;fill:color(display-p3 0.0000 0.5725 0.3255);fill-opacity:1;"/>
<path d="M563.028 400.068L561.243 403.813C563.111 403.163 565.23 402.388 565.912 402.188C568.711 401.155 571.276 399.572 573.455 397.533C575.633 395.494 577.383 393.041 578.599 390.316C580.884 385.24 581.55 379.584 580.508 374.117L579.202 368.425L578.329 374.208C577.441 377.846 576.029 381.336 574.135 384.567C570.872 390.142 568.909 392.876 564.85 397.772L563.028 400.068Z" fill="#009253" style="fill:#009253;fill:color(display-p3 0.0000 0.5725 0.3255);fill-opacity:1;"/>
<path d="M550.332 416.811L552.116 413.066C550.249 413.715 548.129 414.491 547.447 414.69C544.648 415.724 542.084 417.307 539.905 419.345C537.726 421.384 535.977 423.838 534.76 426.563C532.476 431.639 531.809 437.295 532.851 442.762L534.158 448.454L535.03 442.671C535.918 439.033 537.331 435.543 539.224 432.312C542.488 426.737 544.451 424.003 548.51 419.107L550.332 416.811Z" fill="#009253" style="fill:#009253;fill:color(display-p3 0.0000 0.5725 0.3255);fill-opacity:1;"/>
<path d="M571.414 468.056L572.395 472.087C573.432 470.405 574.585 468.467 574.987 467.882C576.504 465.314 577.492 462.469 577.894 459.513C578.295 456.557 578.102 453.551 577.326 450.67C575.893 445.293 572.84 440.486 568.583 436.904L563.979 433.313L566.952 438.349C568.56 441.73 569.667 445.328 570.239 449.028C571.229 455.411 571.432 458.769 571.377 465.126L571.414 468.056Z" fill="#009253" style="fill:#009253;fill:color(display-p3 0.0000 0.5725 0.3255);fill-opacity:1;"/>
<path d="M543.078 476.025L541.924 479.034C543.66 478.312 545.623 477.463 546.263 477.227C548.855 476.1 551.127 474.595 552.945 472.801C554.763 471.007 556.091 468.961 556.85 466.782C558.281 462.721 558.025 458.439 556.115 454.516L553.908 450.46L553.982 454.864C553.695 457.678 552.866 460.45 551.522 463.091C549.206 467.649 547.712 469.93 544.503 474.087L543.078 476.025Z" fill="#009253" style="fill:#009253;fill:color(display-p3 0.0000 0.5725 0.3255);fill-opacity:1;"/>
<path d="M752.047 1115.33C756.55 1122.73 753.701 1131.97 751.642 1137.76C751.036 1139.46 749.435 1143.69 744.22 1151.98C739.712 1159.14 734.66 1165.93 729.107 1172.32C723.515 1169.99 722.116 1168.88 723.016 1167.28L742.555 1140.28C743.8 1138.32 744.728 1136.18 745.304 1133.93C745.837 1131.83 747.129 1126.43 744.464 1120.7C742.362 1116.19 738.873 1113.77 737.209 1112.78L712.908 1095.03L724.064 1093.53C732.62 1099.24 739.252 1104.8 745.818 1108.57C748.168 1109.91 750.128 1112.16 752.047 1115.33Z" fill="#E73E11" style="fill:#E73E11;fill:color(display-p3 0.9059 0.2431 0.0667);fill-opacity:1;"/>
<path d="M720.601 1128.76C725.103 1136.17 722.84 1145.26 720.776 1151.04C720.169 1152.74 718.569 1156.97 713.354 1165.26C710.038 1170.54 701.576 1188.24 698.239 1185.6C694.902 1182.95 692.149 1180.56 692.149 1180.56L711.688 1153.56C712.933 1151.6 713.861 1149.46 714.437 1147.21C714.971 1145.11 716.263 1139.71 713.599 1133.98C711.496 1129.47 708.006 1127.05 706.342 1126.06L678.839 1103.38L677.625 1102.37C681.231 1102.6 683.838 1102.34 686.499 1102.35C687.009 1102.35 687.521 1102.37 688.038 1102.39C699.685 1109.35 706.818 1116.63 714.6 1122.07C716.962 1123.43 718.687 1125.61 720.601 1128.76Z" fill="#E73E11" style="fill:#E73E11;fill:color(display-p3 0.9059 0.2431 0.0667);fill-opacity:1;"/>
<path d="M667.256 1104.93C674.191 1114.71 678.77 1124.26 683.975 1130.85C685.677 1133 686.228 1136.73 686.83 1140.38C688.241 1148.94 683.045 1154.97 678.982 1159.57C677.792 1160.92 674.729 1164.26 666.809 1170.03C659.965 1175 652.75 1179.44 645.228 1183.3C639.909 1185.59 640.822 1181.81 641.455 1176.36L669.62 1158.53C671.503 1157.18 673.161 1155.53 674.53 1153.66C675.806 1151.91 679.014 1147.37 678.675 1141.05C678.408 1136.08 676.072 1132.53 674.9 1130.98L659.217 1106L667.256 1104.93Z" fill="#E73E11" style="fill:#E73E11;fill:color(display-p3 0.9059 0.2431 0.0667);fill-opacity:1;"/>
<path d="M647.548 1107.56C647.121 1117.81 645.72 1130.74 644.728 1136.37C642.499 1148.97 640.596 1155.57 635.1 1163.89C630.145 1171.39 623.296 1174.93 619.504 1178.93L600.057 1196.26C597.225 1195.34 596.309 1193.19 595.79 1186.76C604.987 1180.43 613.565 1173.24 621.408 1165.28C629.854 1156.7 632.553 1152.12 634.241 1147.62C635.508 1144.24 635.876 1141.78 637.292 1131.73C638.303 1124.54 638.871 1114.99 639.61 1108.63L647.548 1107.56Z" fill="#E73E11" style="fill:#E73E11;fill:color(display-p3 0.9059 0.2431 0.0667);fill-opacity:1;"/>
<path d="M736.865 960.936C737.772 952.878 731.748 946.186 727.739 942.11C726.562 940.914 723.55 937.966 715.89 933.014C709.274 928.741 702.336 924.987 695.138 921.784C691.317 925.965 690.57 927.469 691.952 928.458L719.064 943.576C720.885 944.741 722.509 946.187 723.876 947.861C725.149 949.425 728.352 953.48 728.343 959.389C728.33 964.046 726.327 967.48 725.305 968.978L711.674 993.643L721.702 990.486C726.71 982.265 730.149 974.923 734.233 969.134C735.701 967.057 736.479 964.375 736.865 960.936Z" fill="#E73E11" style="fill:#E73E11;fill:color(display-p3 0.9059 0.2431 0.0667);fill-opacity:1;"/>
<path d="M701.597 966.766C702.504 958.708 697.036 951.914 693.023 947.841C691.845 946.644 688.835 943.698 681.172 938.743C676.301 935.593 662.205 923.961 660.416 927.519C658.627 931.077 657.232 934.194 657.232 934.194L684.344 949.311C686.164 950.475 687.788 951.92 689.154 953.594C690.428 955.159 693.637 959.22 693.624 965.125C693.611 969.779 691.608 973.215 690.583 974.713L676.179 1004.81L683.066 1002.65C683.497 1002.44 683.926 1002.23 684.357 1002C691.492 991.485 694.682 982.496 699.139 974.801C700.605 972.726 701.211 970.205 701.597 966.766Z" fill="#E73E11" style="fill:#E73E11;fill:color(display-p3 0.9059 0.2431 0.0667);fill-opacity:1;"/>
<path d="M665.77 1008.1C667.812 997.066 667.951 987.17 669.776 979.518C670.372 977.024 669.385 973.654 668.464 970.323C666.308 962.516 659.549 959.471 654.308 957.185C652.768 956.512 648.872 954.901 639.906 953.156C632.166 951.659 624.321 950.762 616.439 950.473C611.035 950.648 613.294 953.483 615.963 957.847L646.784 961.771C648.914 962.174 650.965 962.913 652.861 963.96C654.624 964.931 659.118 967.505 661.303 972.986C663.026 977.307 662.438 981.234 662.049 983.007L658.547 1010.38L665.77 1008.1Z" fill="#E73E11" style="fill:#E73E11;fill:color(display-p3 0.9059 0.2431 0.0667);fill-opacity:1;"/>
<path d="M601.236 969.191L603.678 972.044C603.608 972.367 603.544 972.685 603.486 972.997C603.333 973.72 603.181 974.407 603.028 975.057C601.48 981.655 599.92 984.806 598.344 988.587C597.896 989.663 597.361 990.702 596.746 991.692L596.738 991.7C594.391 995.478 591.137 998.161 587.978 1000.31C582.888 1003.78 578.043 1005.87 577.588 1008.95C577.291 1008.62 576.987 1008.29 576.68 1007.95C574.437 1005.48 572.634 1003.49 571.199 1001.86C572.035 1002.13 572.902 1002.3 573.78 1002.37C576.536 1002.6 579.214 1001.81 581.353 1000.52C583.794 999.04 586.783 996.758 589.645 993.701C592.942 990.184 596.069 985.641 597.998 980.12C598.73 978.025 599.284 976.436 599.722 975.094C599.85 974.707 599.966 974.339 600.074 973.985C600.452 972.78 600.769 971.556 601.024 970.319C601.048 970.206 601.067 970.085 601.094 969.973C601.136 969.72 601.186 969.462 601.236 969.191Z" fill="white" style="fill:white;fill-opacity:1;"/>
<path d="M565.464 1078.63C565.493 1080.2 565.079 1081.18 562.377 1082.5C561.765 1082.71 561.115 1082.8 560.469 1082.75C559.823 1082.69 559.195 1082.51 558.626 1082.2C557.898 1081.65 557.36 1080.89 557.087 1080.02C556.814 1079.15 556.819 1078.22 557.103 1077.35C557.542 1075.51 559.429 1074.87 561.764 1074.52C564.099 1074.17 565.438 1077.06 565.464 1078.63Z" fill="#E73E11" style="fill:#E73E11;fill:color(display-p3 0.9059 0.2431 0.0667);fill-opacity:1;"/>
<path d="M565.879 1066.99C565.906 1068.54 565.496 1069.51 562.821 1070.81C562.214 1071.03 561.57 1071.11 560.93 1071.06C560.29 1071.01 559.668 1070.83 559.105 1070.52C558.382 1069.98 557.848 1069.22 557.577 1068.36C557.305 1067.5 557.31 1066.58 557.591 1065.72C558.027 1063.89 559.896 1063.26 562.209 1062.91C564.523 1062.56 565.853 1065.43 565.879 1066.99Z" fill="#E73E11" style="fill:#E73E11;fill:color(display-p3 0.9059 0.2431 0.0667);fill-opacity:1;"/>
<path d="M774.008 975.2L774.131 975.145C769.23 977.055 760.877 980.216 746.783 985.552C742.521 987.164 739.077 988.461 736.17 989.553L730.607 991.641C725.326 993.624 721.86 994.934 716.725 996.96C708.764 1000.1 689.93 1008.66 685.919 1009.8C677.586 1012.19 675.935 1011.72 664.045 1014.21C661.077 1014.83 653.663 1016.44 628.473 1024.1C625.525 1024.99 622.762 1025.84 620.184 1026.65C620.312 1024.33 620.06 1021.37 619.465 1017.15C617.497 1003.04 616.325 994.684 610.84 984.288C609.35 981.468 607.685 978.744 605.856 976.132C605.037 974.967 604.238 973.909 603.49 972.993C603.338 973.716 603.185 974.402 603.032 975.053C601.484 981.65 599.924 984.802 598.348 988.582C597.9 989.659 597.366 990.697 596.75 991.688L596.742 991.695C595.3 994.367 593.616 996.522 591.081 998.397C590.101 999.117 589.065 999.757 587.982 1000.31V1000.31C582.892 1003.78 578.047 1005.87 577.592 1008.94C596.574 1029.77 596.076 1028.25 598.2 1031.7C598.569 1032.3 598.907 1032.87 599.223 1033.42C592.812 1035.6 588.208 1037.3 584.272 1038.81C583.395 1039.14 567.146 1045.45 555.948 1054.69C555.948 1054.69 549.226 1060.24 545.232 1069.12C544.702 1070.01 542.443 1069.71 542.227 1070.52C541.916 1071.69 541.736 1073.78 541.736 1073.78C541.736 1073.78 543.768 1074.58 544.397 1076.1C546.269 1085.48 567.504 1092.3 567.504 1092.3C580.155 1096.37 591.702 1098.32 599.388 1099.25C591.219 1109.29 589.162 1108.35 579.885 1120.04C578.217 1122.15 576.625 1124.27 575.171 1126.31C583.503 1126.58 580.677 1126.04 585.138 1127.09C587.745 1127.7 590.256 1128.65 592.604 1129.93V1129.93C594.352 1130.46 595.989 1131.3 597.438 1132.4C599.036 1133.62 600.371 1135.15 601.364 1136.9C604.043 1139.74 606.027 1142.44 607.834 1143.98C614.12 1131.4 617.593 1121.91 619.126 1117.65C622.728 1107.66 623.839 1103.75 623.772 1100.79C637.867 1101.3 651.891 1101.15 669.551 1098.71C684.309 1096.67 749.667 1072.62 757.215 1067.49C758.946 1066.31 760.586 1065.16 762.146 1064.03C765.311 1061.75 768.132 1059.6 770.679 1057.64C775.289 1054.11 781.044 1048.59 788.919 1040.32C813.487 995.808 810.13 983.723 774.008 975.2ZM565.467 1078.63C565.495 1080.2 565.081 1081.18 562.38 1082.5C561.768 1082.71 561.118 1082.8 560.472 1082.75C559.825 1082.7 559.198 1082.51 558.629 1082.2C557.901 1081.65 557.363 1080.89 557.089 1080.02C556.816 1079.15 556.822 1078.22 557.106 1077.35C557.544 1075.51 559.432 1074.87 561.767 1074.52C564.102 1074.17 565.441 1077.06 565.467 1078.63ZM565.881 1066.98C565.909 1068.54 565.499 1069.51 562.823 1070.81C562.217 1071.03 561.573 1071.11 560.932 1071.06C560.292 1071.01 559.67 1070.82 559.107 1070.52C558.385 1069.98 557.851 1069.22 557.579 1068.36C557.308 1067.5 557.313 1066.58 557.594 1065.72C558.029 1063.89 559.898 1063.26 562.212 1062.91C564.525 1062.56 565.856 1065.43 565.881 1066.98Z" fill="#E73E11" style="fill:#E73E11;fill:color(display-p3 0.9059 0.2431 0.0667);fill-opacity:1;"/>
<path d="M339.851 953.952C331.937 957.229 324.484 961.783 317.665 967.502C309.577 974.737 292.181 990.745 305.302 1016.43C305.302 1016.43 316.635 1046.46 344.071 1053.49C371.506 1060.52 385.803 1066.79 414.996 1065.45C444.19 1064.11 490.388 1059.82 501.709 1060.05C513.03 1060.28 533.495 1063.66 535.444 1064.76C536.651 1065.45 538.228 1066.95 537.264 1068.39C536.3 1069.82 529.128 1067.44 524.636 1066.39C512.185 1063.33 485.118 1065.13 475.272 1066.09C465.426 1067.05 414.68 1070 407.202 1070.78C399.723 1071.56 362.111 1066.88 357.482 1065.56C352.852 1064.25 326.341 1055.03 318.805 1048.47C311.27 1041.91 297.636 1027.15 292.959 1013.59C289.532 1002.59 289.376 990.772 292.52 980.394C294.329 975.259 308.204 957.663 317.87 951.923C327.536 946.184 339.363 941.198 342.533 939.749C345.474 938.569 348.496 937.602 351.575 936.854C351.575 936.854 352.026 938.618 349.722 941.21C347.433 944.179 345.355 947.305 343.504 950.564C343.504 950.564 343.881 953.181 339.851 953.952Z" fill="#E73E11" style="fill:#E73E11;fill:color(display-p3 0.9059 0.2431 0.0667);fill-opacity:1;"/>
<path d="M357.251 1204.77C348.854 1202.65 340.806 1199.35 333.346 1194.96C324.302 1189.29 304.784 1176.68 314.1 1151.63C314.1 1151.63 321.02 1122.82 347.176 1113.18C373.333 1103.53 386.589 1096.11 415.682 1093.92C444.776 1091.72 491.128 1090.23 502.303 1088.7C513.477 1087.16 533.254 1081.67 535.03 1080.44C536.125 1079.66 537.473 1078.11 536.313 1076.91C535.153 1075.7 528.392 1078.73 524.096 1080.21C512.208 1084.47 485.153 1085.99 475.267 1086.27C465.381 1086.55 414.721 1089.79 407.204 1089.95C399.686 1090.12 363.125 1098.8 358.727 1100.55C354.328 1102.31 329.401 1113.85 322.881 1120.73C316.362 1127.62 304.975 1142.72 302.288 1155.68C300.471 1166.15 302.009 1176.98 306.609 1186.11C309.134 1190.6 325.39 1205.08 335.782 1209.2C346.173 1213.32 358.596 1216.5 361.94 1217.45C365.023 1218.19 368.151 1218.72 371.305 1219.05C371.305 1219.05 371.499 1217.38 368.847 1215.28C366.17 1212.84 363.665 1210.23 361.351 1207.44C361.351 1207.44 361.351 1205 357.251 1204.77Z" fill="#E73E11" style="fill:#E73E11;fill:color(display-p3 0.9059 0.2431 0.0667);fill-opacity:1;"/>
<path d="M599.597 1141.92C601.623 1144.3 603.207 1149.09 602.834 1152.82C602.608 1153.35 602.314 1153.98 601.925 1154.75C601.318 1155.94 600.484 1157.46 599.323 1159.44C592.264 1171.51 590.827 1170.57 580.123 1185.22C579.493 1186.08 578.875 1186.94 578.273 1187.7C575.702 1184.28 575.936 1171.8 567.705 1163.85C566.524 1162.71 565.714 1161.92 564.716 1161.08C563.23 1159.28 561.531 1157.91 559.519 1157.31C559.018 1156.98 558.473 1156.61 557.881 1156.22C559.755 1153.81 561.098 1151.32 563.694 1146.53C567.505 1139.5 566.741 1139.47 568.297 1137.46C569.305 1135.25 571.188 1132.11 573.586 1128.59C576.078 1128.56 575.442 1128.53 576.839 1128.83C578.294 1129.14 579.721 1129.43 581.083 1129.84C584.262 1130.81 587.304 1132.18 590.133 1133.93C591.657 1134.86 593.119 1135.89 594.512 1137.01C596.356 1138.49 598.058 1140.13 599.597 1141.92V1141.92Z" fill="#E73E11" style="fill:#E73E11;fill:color(display-p3 0.9059 0.2431 0.0667);fill-opacity:1;"/>
<path d="M601.353 1136.92C599.053 1134.48 596.243 1131.94 592.594 1129.95C594.341 1130.47 595.979 1131.31 597.428 1132.42C599.025 1133.64 600.36 1135.17 601.353 1136.92V1136.92Z" fill="#E73E11" style="fill:#E73E11;fill:color(display-p3 0.9059 0.2431 0.0667);fill-opacity:1;"/>
<path d="M578.271 1187.7L578.293 1187.72C578.506 1188 575.576 1190.17 575.68 1190.07C575.06 1187.28 572.355 1182.6 571.876 1180.14C570.911 1175.19 567.622 1167.27 560.544 1161.14C558.459 1159.33 557.007 1158.97 555.478 1158.69C554.187 1158.45 553.353 1158.45 551.91 1158.37L553.868 1157.66L557.877 1156.23C557.877 1156.23 558.884 1156.45 559.388 1156.8C561.415 1157.41 566.695 1162.44 567.893 1163.6C576.249 1171.67 575.656 1184.23 578.271 1187.7Z" fill="white" style="fill:white;fill-opacity:1;"/>
<path d="M594.504 1137.02C593.111 1135.9 591.649 1134.87 590.125 1133.94C591.724 1134.75 593.199 1135.79 594.504 1137.02V1137.02Z" fill="#E73E11" style="fill:#E73E11;fill:color(display-p3 0.9059 0.2431 0.0667);fill-opacity:1;"/>
<path d="M601.353 1136.92C599.053 1134.48 596.243 1131.94 592.594 1129.95C594.341 1130.47 595.979 1131.31 597.428 1132.42C599.025 1133.64 600.36 1135.17 601.353 1136.92V1136.92Z" fill="#E73E11" style="fill:#E73E11;fill:color(display-p3 0.9059 0.2431 0.0667);fill-opacity:1;"/>
<path d="M571.974 1180.26C572.43 1182.69 575.084 1187.32 575.677 1190.08L575.366 1190.39C570.731 1195.12 565.647 1199.37 560.186 1203.11C538.509 1217.91 516.432 1220.49 497.924 1222.44C487.055 1223.59 475.472 1224.72 460.439 1222.09C450.574 1220.36 440.134 1218.41 429.17 1210.72C417.028 1202.19 411.356 1191.6 409.937 1188.81C406.97 1182.96 404.999 1176.65 404.105 1170.15C408.419 1173.17 413.05 1175.72 417.916 1177.74C431.928 1183.56 446.433 1189.66 461.977 1189.17C473.137 1188.82 491.011 1183.75 491.821 1180.22C492.584 1176.9 468.867 1163.51 460.076 1168.21C431.393 1183.56 428.735 1161.28 412.612 1165.48C411.378 1162.46 421.236 1155.27 428.562 1151.45C435.528 1147.82 442.453 1146.05 453.949 1144.75C460.755 1143.98 472.512 1142.99 492.805 1143.95C517.941 1145.13 530.509 1145.72 535.68 1149.82C538.69 1152.21 552.481 1157.81 552.481 1157.81C553.912 1157.88 554.573 1158.38 555.849 1158.61C557.359 1158.88 558.937 1159.56 560.991 1161.34C567.976 1167.37 571.05 1175.35 571.974 1180.26Z" fill="#E73E11" style="fill:#E73E11;fill:color(display-p3 0.9059 0.2431 0.0667);fill-opacity:1;"/>
<path d="M634.396 990.403C637.438 994.772 643.689 1005.16 648.058 1013.67L640.921 1015.92C637.805 1010.82 633.587 1002.96 629.918 997.28C624.782 989.327 623.508 987.391 621.112 985.033C618.192 982.156 614.524 979.563 605.857 976.134C605.037 974.97 604.238 973.911 603.491 972.995C603.556 972.686 603.62 972.368 603.683 972.041L601.241 969.189C601.191 969.459 601.143 969.72 601.092 969.975C601.07 970.092 601.048 970.21 601.022 970.322C600.767 971.559 600.45 972.782 600.072 973.988C599.962 974.34 599.846 974.707 599.72 975.096C599.282 976.438 598.726 978.03 597.996 980.122C596.064 985.64 592.94 990.186 589.643 993.703C586.781 996.76 583.792 999.042 581.351 1000.52C579.212 1001.82 576.534 1002.6 573.778 1002.38C572.9 1002.31 572.033 1002.13 571.197 1001.86C569.305 999.715 568.058 998.201 567.288 997.084C566.633 996.494 566.083 995.797 565.661 995.023C563.369 990.866 560.682 986.942 557.636 983.302C557.652 983.287 557.664 983.238 557.699 983.169C559.826 978.96 569.319 975.695 575.351 967.512C576.654 965.754 577.724 963.834 578.534 961.802C578.902 960.869 579.223 960.077 579.513 959.318C580.565 956.571 581.229 954.278 582.57 947.499C582.928 947.942 583.295 948.416 583.67 948.922C588.329 955.23 593.684 961.536 596.021 964.198C596.048 964.226 596.074 964.252 596.1 964.279L596.387 964.365C601.166 966.254 608.353 966.531 615.479 970.916C623.383 975.788 627.575 980.614 634.396 990.403Z" fill="#E73E11" style="fill:#E73E11;fill:color(display-p3 0.9059 0.2431 0.0667);fill-opacity:1;"/>
<path d="M596.735 991.707C595.293 994.378 593.609 996.533 591.074 998.408C590.094 999.129 589.058 999.768 587.976 1000.32C591.134 998.168 594.388 995.485 596.735 991.707Z" fill="#E73E11" style="fill:#E73E11;fill:color(display-p3 0.9059 0.2431 0.0667);fill-opacity:1;"/>
<path d="M557.268 982.873C557.344 982.953 557.414 983.038 557.479 983.126L557.268 982.873Z" fill="#E73E11" style="fill:#E73E11;fill:color(display-p3 0.9059 0.2431 0.0667);fill-opacity:1;"/>
<path d="M596.735 991.707C595.293 994.378 593.609 996.533 591.074 998.408C590.094 999.129 589.058 999.768 587.976 1000.32C591.134 998.168 594.388 995.485 596.735 991.707Z" fill="#E73E11" style="fill:#E73E11;fill:color(display-p3 0.9059 0.2431 0.0667);fill-opacity:1;"/>
<path d="M554.977 980.172L555.057 980.271L554.975 980.174L554.977 980.172Z" fill="#E73E11" style="fill:#E73E11;fill:color(display-p3 0.9059 0.2431 0.0667);fill-opacity:1;"/>
<path d="M581.91 946.711L578.102 942.789C579.446 944.022 580.717 945.331 581.91 946.711V946.711Z" fill="#E73E11" style="fill:#E73E11;fill:color(display-p3 0.9059 0.2431 0.0667);fill-opacity:1;"/>
<path d="M576.722 941.596C576.733 941.628 576.745 941.66 576.759 941.691C578.007 944.978 580.069 947.973 578.266 953.351C577.695 955.055 577.003 956.716 576.196 958.323C575.101 960.5 573.812 962.573 572.343 964.517C569.077 968.852 565.381 971.996 562.51 973.874C559.843 975.613 557.725 978.73 554.967 980.16L554.978 980.171C539.953 988.986 541.229 990.498 530.215 996.359C517.559 1003.09 507.55 1005.53 489.789 1009.83C472.262 1014.09 461.464 1016.72 446.557 1016.14C430.063 1015.51 413.228 1011.13 413.404 1008.52C413.487 1007.27 417.47 1006.94 426.101 1005.17C430.771 1004.21 447.489 1000.01 458.715 995.406C476.38 1004.99 485.315 980.409 483.773 976.211C482.702 973.301 474.144 974.036 465.921 974.74C456.02 975.589 442.961 976.708 429.868 985.058C417.167 993.158 411.742 1003.41 408.803 1001.79C406.512 1000.53 408.199 993.432 408.882 990.559C414.98 964.898 436.132 949.5 438.832 947.591C447.617 941.375 455.305 938.444 461.196 936.242C471.329 932.456 479.26 931.057 523.271 928.948C548.219 927.754 558.721 927.578 569.018 934.38C572.771 936.868 575.18 939.412 576.722 941.596Z" fill="#E73E11" style="fill:#E73E11;fill:color(display-p3 0.9059 0.2431 0.0667);fill-opacity:1;"/>
<path d="M576.724 941.597L576.784 941.683L576.761 941.692C576.748 941.661 576.735 941.628 576.724 941.597Z" fill="#E73E11" style="fill:#E73E11;fill:color(display-p3 0.9059 0.2431 0.0667);fill-opacity:1;"/>
<path d="M571.193 1001.87C572.629 1003.5 574.432 1005.49 576.675 1007.96C576.982 1008.29 577.286 1008.63 577.583 1008.95L577.577 1008.99C577.577 1008.99 577.531 1008.84 576.572 1007.95L571.076 1001.83C571.114 1001.84 571.153 1001.85 571.193 1001.87Z" fill="white" style="fill:white;fill-opacity:1;"/>
<path d="M557.491 983.124C557.542 983.177 557.586 983.238 557.634 983.297C557.606 983.335 557.596 983.278 557.491 983.124Z" fill="white" style="fill:white;fill-opacity:1;"/>
<path d="M557.266 982.87C557.136 982.731 556.997 982.601 556.85 982.479L555.054 980.271C555.713 981.051 556.456 981.905 557.266 982.87Z" fill="white" style="fill:white;fill-opacity:1;"/>
<path d="M578.095 942.79L581.904 946.712C582.118 946.962 582.335 947.224 582.555 947.498C581.215 954.276 580.549 956.568 579.498 959.316C579.208 960.075 578.889 960.866 578.519 961.8C577.709 963.832 576.639 965.752 575.336 967.511C569.304 975.693 559.812 978.958 557.684 983.167C557.648 983.238 557.632 983.284 557.621 983.3C557.574 983.241 557.526 983.184 557.478 983.127C557.413 983.038 557.343 982.954 557.267 982.874C557.267 982.873 557.266 982.871 557.265 982.87C557.264 982.869 557.263 982.869 557.261 982.868C556.451 981.903 555.708 981.049 555.049 980.269L554.969 980.171L554.958 980.16C557.719 978.727 559.839 975.612 562.501 973.874C565.379 971.998 569.072 968.856 572.334 964.518C573.803 962.573 575.093 960.5 576.187 958.323C576.994 956.717 577.686 955.055 578.258 953.351C580.06 947.973 577.999 944.979 576.75 941.691L576.773 941.682C576.825 941.66 576.878 941.641 576.933 941.627C577.3 942.034 577.688 942.423 578.095 942.79Z" fill="white" style="fill:white;fill-opacity:1;"/>
<path d="M576.595 941.238L578.102 942.79C577.697 942.423 577.311 942.036 576.946 941.629C576.891 941.643 576.838 941.662 576.786 941.684L576.763 941.694C576.749 941.662 576.737 941.63 576.726 941.599C576.682 941.476 576.639 941.357 576.595 941.238Z" fill="white" style="fill:white;fill-opacity:1;"/>
<path d="M582.56 947.496C582.341 947.222 582.124 946.96 581.909 946.71L582.579 947.4L582.56 947.496Z" fill="white" style="fill:white;fill-opacity:1;"/>
<path d="M601.358 1136.92C604.038 1139.76 606.022 1142.46 607.829 1143.99C607.852 1144.02 607.876 1144.04 607.905 1144.06C608.19 1144.3 607.971 1143.93 607.429 1145.1L605.506 1148.54L604.904 1149.68C604.341 1150.74 603.098 1153.07 601.932 1154.75C602.323 1153.99 602.615 1153.36 602.841 1152.83C603.214 1149.09 601.63 1144.31 599.604 1141.93C598.062 1140.14 596.356 1138.5 594.51 1137.03C593.205 1135.8 591.73 1134.76 590.131 1133.94C587.302 1132.2 584.261 1130.82 581.081 1129.85C579.69 1129.43 578.272 1129.09 576.837 1128.85C575.761 1128.68 574.674 1128.6 573.585 1128.6L575.165 1126.33C583.497 1126.6 580.671 1126.06 585.131 1127.11C587.738 1127.72 590.25 1128.68 592.598 1129.96V1129.96C596.249 1131.95 599.059 1134.49 601.358 1136.92Z" fill="white" style="fill:white;fill-opacity:1;"/>
<path d="M594.504 1137.02C593.111 1135.9 591.649 1134.87 590.125 1133.94C591.724 1134.75 593.199 1135.79 594.504 1137.02V1137.02Z" fill="white" style="fill:white;fill-opacity:1;"/>
<path d="M829.419 995.193L829.263 995.41C826.631 999.075 825.076 1000.8 825.076 1000.8C810.811 1016.61 799.935 1028.64 791.4 1037.7L794.868 1033.9C819.784 989.307 810.975 984.707 779.079 973.193C784.293 971.181 798.293 965.97 811.601 962.695L811.68 962.675C833.575 964.162 832.515 967.328 829.419 995.193Z" fill="#E73E11" style="fill:#E73E11;fill:color(display-p3 0.9059 0.2431 0.0667);fill-opacity:1;"/>
<path d="M829.267 995.409L829.423 995.192L829.396 995.435C829.351 995.426 829.306 995.421 829.267 995.409Z" fill="#E73E11" style="fill:#E73E11;fill:color(display-p3 0.9059 0.2431 0.0667);fill-opacity:1;"/>
<path d="M811.681 962.672L811.602 962.691L811.622 962.671L811.681 962.672Z" fill="#E73E11" style="fill:#E73E11;fill:color(display-p3 0.9059 0.2431 0.0667);fill-opacity:1;"/>
<path d="M850.912 940.042C851.115 940.348 852.748 939.832 859.757 937.472C863.358 936.259 865.743 935.449 869.521 935.848C873.419 936.26 874.902 937.543 875.392 938.004C878.015 940.468 879.059 944.578 879.05 947.13C879.045 948.749 878.611 950.24 875.222 953.678C871.2 957.762 867.96 959.58 868.342 960.177C868.644 960.65 870.686 959.457 874.623 959.547C876.377 959.586 879.993 959.72 884.489 962.328C886.314 963.389 889.976 965.511 891.089 968.403C891.45 969.339 891.76 970.915 890.372 973.066C888.084 976.613 883.678 978.416 880.031 979.306C883.667 979.419 887.226 980.373 890.427 982.094C892.987 983.455 894.39 984.774 895.264 986.212C897.387 989.708 896.215 993.671 894.865 995.582C892.317 999.187 887.139 998.293 881.97 997.447C859.829 998.856 868.781 998.016 857.533 998.493C848.949 998.394 840.392 997.54 831.963 995.94C832.257 993.944 832.527 992.06 832.775 990.286C835.842 967.91 834.926 962.185 821.509 960.644C819.247 960.384 816.631 960.243 813.619 960.161L813.065 960.711C817.873 954.162 823.586 946.116 827.906 940.028C834.447 930.112 837.301 922.749 845.226 918.802C848.665 917.088 852.449 916.322 856.836 918.85C858.002 919.521 861.027 921.003 862.213 923.494C863.846 926.922 861.039 930.089 857.674 933.759C853.949 937.809 850.602 939.578 850.912 940.042Z" fill="#E73E11" style="fill:#E73E11;fill:color(display-p3 0.9059 0.2431 0.0667);fill-opacity:1;"/>
<path d="M565.464 1078.63C565.493 1080.2 565.079 1081.18 562.377 1082.5C561.765 1082.71 561.115 1082.8 560.469 1082.75C559.823 1082.69 559.195 1082.51 558.626 1082.2C557.898 1081.65 557.36 1080.89 557.087 1080.02C556.814 1079.15 556.819 1078.22 557.103 1077.35C557.542 1075.51 559.429 1074.87 561.764 1074.52C564.099 1074.17 565.438 1077.06 565.464 1078.63Z" fill="#1D1D1B" style="fill:#1D1D1B;fill:color(display-p3 0.1137 0.1137 0.1059);fill-opacity:1;"/>
<path d="M565.879 1066.99C565.906 1068.54 565.496 1069.51 562.821 1070.81C562.214 1071.03 561.57 1071.11 560.93 1071.06C560.29 1071.01 559.668 1070.83 559.105 1070.52C558.382 1069.98 557.848 1069.22 557.577 1068.36C557.305 1067.5 557.31 1066.58 557.591 1065.72C558.027 1063.89 559.896 1063.26 562.209 1062.91C564.523 1062.56 565.853 1065.43 565.879 1066.99Z" fill="#1D1D1B" style="fill:#1D1D1B;fill:color(display-p3 0.1137 0.1137 0.1059);fill-opacity:1;"/>
<path d="M713.956 1085.12C713.931 1085.13 709.788 1086.68 709.788 1086.68C729.461 1041.05 724.175 1026.9 685.292 1010.78C685.025 1010.67 684.754 1010.56 684.482 1010.45L689.873 1008.28C690.005 1008.34 690.13 1008.4 690.257 1008.46C727.773 1025.88 736.138 1037.75 713.956 1085.12Z" fill="white" style="fill:white;fill-opacity:1;"/>
<path d="M730.555 991.618C771.39 1009.6 778.486 1022.81 757.127 1067.68L762.052 1064.23C784.312 1016.69 773.812 1006.93 735.946 989.449L730.555 991.618Z" fill="white" style="fill:white;fill-opacity:1;"/>
<path d="M794.866 1033.9L791.399 1037.71L791.359 1037.74C790.521 1038.64 789.705 1039.5 788.911 1040.33C813.482 995.809 810.12 983.719 774.003 975.201L774.126 975.147L778.77 973.086C778.872 973.124 778.974 973.159 779.072 973.199C810.974 984.711 819.783 989.311 794.866 1033.9Z" fill="white" style="fill:white;fill-opacity:1;"/>
<path d="M791.366 1037.74L788.781 1040.58L788.919 1040.33C789.713 1039.5 790.528 1038.63 791.366 1037.74Z" fill="white" style="fill:white;fill-opacity:1;"/>
<path d="M832.779 990.285C832.534 992.056 832.268 993.938 831.98 995.931L831.96 996.072L829.387 995.599L829.405 995.434L829.432 995.191C832.528 967.326 833.588 964.16 811.691 962.669L811.629 962.664C812.099 962.03 812.58 961.376 813.07 960.707L813.625 960.157C816.637 960.239 819.253 960.379 821.515 960.64C834.924 962.182 835.843 967.905 832.779 990.285Z" fill="white" style="fill:white;fill-opacity:1;"/>
<path d="M813.056 960.712C812.565 961.38 812.086 962.037 811.614 962.67L811.117 962.641L813.056 960.712Z" fill="white" style="fill:white;fill-opacity:1;"/>
</g>
<defs>
<clipPath id="clip0_2690_22759">
<rect width="917" height="1236" fill="white" style="fill:white;fill-opacity:1;"/>
</clipPath>
</defs>
</svg>
