<svg width="1877" height="1191" viewBox="0 0 1877 1191" fill="none" xmlns="http://www.w3.org/2000/svg">
<g clip-path="url(#clip0_2690_22982)">
<rect width="1877" height="1190.77" fill="white" style="fill:white;fill-opacity:1;"/>
<rect y="55.6484" width="1877" height="1059" fill="#EEEAE7" style="fill:#EEEAE7;fill:color(display-p3 0.9333 0.9176 0.9059);fill-opacity:1;"/>
<path d="M1417.8 1065.49L1250.4 1024.35C1229.5 1019.22 1207.31 1013.77 1186.17 1008.57L1183.19 1007.84C1188.7 979.183 1194.55 954.747 1203.04 925.005L1218.12 862.05C1226.84 819.961 1236.61 779.194 1248.11 736.849C1248.86 733.713 1249.53 730.932 1250.31 727.678L1299.91 520.588L1359.96 496.811C1361.93 496.044 1386.08 486.626 1392.16 477.221C1402.69 480.497 1423.47 486.919 1443.51 492.844C1445.81 493.814 1448.17 494.645 1450.58 495.333C1451.78 495.562 1452.97 495.855 1454.14 496.208L1472.9 501.507L1476.63 507.624L1527.37 589.007C1527.37 589.007 1527.08 590.19 1526.53 592.498C1525.98 594.806 1525.2 598.06 1524.16 602.379C1501.01 710.15 1479.08 814.088 1455.12 920.033L1452.28 931.867C1441.16 976.247 1430.63 1064.57 1417.8 1065.49Z" fill="white" style="fill:white;fill-opacity:1;"/>
<path d="M1401.11 1010.54L1393.05 1008.56C1364.6 1004.26 1336.6 997.38 1309.38 987.996L1303.01 986.432C1284.98 980.905 1266.65 976.402 1248.13 972.946L1230.61 968.642L1279.13 766.108C1288.96 722.225 1300.68 673.293 1311.94 629.133L1323.28 581.799C1323.28 581.799 1434.07 606.829 1476.2 619.373L1483.56 621.181C1490.09 622.788 1493.95 623.735 1493.44 626.116C1491.64 633.631 1491.74 633.216 1487.93 649.133L1485.45 659.487C1478.55 686.737 1401.11 1010.54 1401.11 1010.54Z" fill="#3267B0" style="fill:#3267B0;fill:color(display-p3 0.1961 0.4039 0.6902);fill-opacity:1;"/>
<path d="M1484.81 484.417L1481.97 496.251L1476.22 494.461C1471.59 492.885 1459.63 489.132 1458.36 488.757C1457.09 488.382 1407.35 473.781 1400.18 471.706L1397.85 471.132L1393.35 470.027L1403.98 425.651C1406.35 414.205 1409.4 401.483 1412.48 390.15L1415.52 377.488L1429.59 380.946C1452.52 383.823 1473.74 391.231 1496.09 397.287L1505.44 399.582L1503.2 408.931C1501.51 415.972 1499.47 424.492 1497.81 431.415L1496.31 437.687C1492.33 452.748 1491.67 469.69 1484.81 484.417Z" fill="#3267B0" style="fill:#3267B0;fill:color(display-p3 0.1961 0.4039 0.6902);fill-opacity:1;"/>
<path d="M1379.67 871.104C1364.5 916.37 1366.19 911.647 1389.4 932.449C1365.39 951.611 1345.01 928.81 1327.18 921.171C1256.28 944.85 1266.46 848.424 1334.55 865.906C1361.8 869.845 1351.99 807.541 1326.99 829.59C1321.05 843.292 1310.54 850.234 1295.39 846.887C1278 794.812 1421.3 803.646 1379.67 871.104ZM1338.64 891.659C1351.56 860.94 1295.14 885.858 1316.32 907.413C1328.93 920.598 1336.97 903.278 1338.64 891.659V891.659Z" fill="white" style="fill:white;fill-opacity:1;"/>
<path d="M1335.23 753.777C1355.12 764.178 1371.6 798.613 1342.67 806.603C1367.59 790.299 1303.31 779.139 1335.23 753.777ZM1337.03 765.622C1332.75 779.356 1352.73 781.132 1352.67 794.526C1354.1 781.846 1340.5 776.938 1337.03 765.622Z" fill="white" style="fill:white;fill-opacity:1;"/>
<path d="M1396.54 767.252C1390.83 784.644 1377.87 788.414 1364.03 795.852C1367.52 783.866 1375.73 754.998 1396.54 767.252Z" fill="white" style="fill:white;fill-opacity:1;"/>
<path d="M913.522 647.055C920.743 636.887 927.964 626.719 935.164 616.407C936.102 615.208 936.918 613.969 937.815 612.687L945.75 601.59L947.871 598.448C947.612 598.342 947.346 598.252 947.075 598.18C940.321 598.037 933.566 597.893 926.811 597.75L924.078 601.511C923.221 602.875 922.242 604.197 921.324 605.541L918.448 609.529C912.26 619.567 905.532 629.253 898.296 638.544C896.338 640.156 909.462 649.68 909.462 649.68C911.1 649.368 912.555 648.428 913.522 647.055V647.055Z" fill="#3C519F" style="fill:#3C519F;fill:color(display-p3 0.2353 0.3176 0.6235);fill-opacity:1;"/>
<path d="M941.293 661.729C945.962 650.012 950.652 638.233 955.484 626.434L956.911 622.094C960.051 614.407 963.191 606.306 966.433 598.103C960.576 597.918 954.638 597.774 948.822 597.672C948.563 597.565 948.297 597.475 948.026 597.403C947.7 598.395 947.353 599.449 946.966 600.627L943.173 609.885L941.379 614.307L939.544 618.853L937.974 623.627C934.16 634.952 929.756 646.064 924.782 656.918C923.212 659.005 937.968 665.222 937.968 665.222C939.478 664.533 940.668 663.283 941.293 661.729Z" fill="#3C519F" style="fill:#3C519F;fill:color(display-p3 0.2353 0.3176 0.6235);fill-opacity:1;"/>
<path d="M963.787 672.584L974.938 635.987C975.427 634.499 975.916 633.012 976.406 631.524L982.847 610.074L985.945 599.411C985.381 599.445 984.815 599.439 984.251 599.391C981.803 599.391 979.456 599.288 977.109 599.185C974.762 599.083 973.395 599.103 971.579 599.042C969.763 598.98 969.293 598.96 968.13 598.98L961.505 620.781L960.017 625.307L958.447 630.081C957.937 631.63 957.407 633.242 956.877 634.854C954.12 646.519 950.745 658.025 946.767 669.322C945.401 671.616 960.442 676.552 960.442 676.552C961.253 676.18 961.973 675.631 962.552 674.946C963.13 674.26 963.552 673.453 963.787 672.584V672.584Z" fill="#3C519F" style="fill:#3C519F;fill:color(display-p3 0.2353 0.3176 0.6235);fill-opacity:1;"/>
<path d="M987.9 682.398C988.591 681.878 989.163 681.215 989.578 680.452C989.994 679.689 990.242 678.844 990.307 677.975C992.18 664.833 993.747 652.414 995.6 639.54L996.231 634.932L999.671 608.545L1000.85 599.163L999.586 599.081C994.79 598.978 990.178 598.938 985.546 598.753C984.982 598.787 984.416 598.78 983.852 598.733L982.448 609.416C981.613 615.264 980.778 621.111 980.066 626.794C979.577 628.282 979.557 629.997 979.394 631.526C979.231 633.055 978.864 634.791 978.702 636.527L977.928 641.569C977.061 653.686 975.526 665.745 973.328 677.689C972.411 680.065 987.9 682.398 987.9 682.398Z" fill="#3C519F" style="fill:#3C519F;fill:color(display-p3 0.2353 0.3176 0.6235);fill-opacity:1;"/>
<path d="M1016.2 685.081C1017.39 683.695 1017.98 681.889 1017.85 680.06C1017.62 667.104 1017.42 654.086 1017.11 640.965L1016.94 636.295C1016.77 624.393 1016.59 611.52 1016.25 599.081C1011.13 598.937 1005.93 598.835 1000.79 598.753L999.521 598.671L999.606 608.134L999.94 630.699L999.921 635.513L1000.04 640.514L1000.05 645.68C1000.21 658.821 1002.08 676.943 1000.9 682.398C1000.67 685.146 1016.2 685.081 1016.2 685.081Z" fill="#3C519F" style="fill:#3C519F;fill:color(display-p3 0.2353 0.3176 0.6235);fill-opacity:1;"/>
<path d="M1041.38 684.954C1041.92 684.234 1042.3 683.408 1042.51 682.53C1042.72 681.651 1042.74 680.739 1042.58 679.85L1038.9 640.797L1038.35 636.065L1036.85 621.374C1036.2 614.266 1035.32 607.426 1034.68 600.463L1030.09 600.36C1026.05 600.237 1021.99 600.176 1017.74 600.053L1020.83 632.018L1021.31 636.791L1021.8 641.916L1022.27 647.102C1024.22 659.241 1025.54 671.477 1026.2 683.758C1025.87 686.403 1041.38 684.954 1041.38 684.954Z" fill="#3C519F" style="fill:#3C519F;fill:color(display-p3 0.2353 0.3176 0.6235);fill-opacity:1;"/>
<path d="M1071.44 677.058C1072.13 675.357 1072.17 673.458 1071.56 671.726C1067.49 659.267 1063.45 646.746 1059.4 634.018L1057.89 629.514L1050.97 609.203C1050.13 606.372 1049.17 603.5 1048.27 600.649C1047.72 600.463 1047.05 600.649 1046.45 600.587C1045.86 600.525 1043.41 600.526 1041.78 600.526C1040.15 600.526 1037.72 600.465 1035.68 600.259C1035.68 600.259 1035.68 600.259 1035.37 600.155L1030.78 600.053C1033.07 606.954 1035.34 614.124 1037.48 621.046L1040.14 629.31C1040.65 630.86 1041.18 632.348 1041.61 633.939C1042.04 635.53 1042.71 637.203 1043.26 638.836C1043.81 640.468 1044.26 642.203 1044.84 643.774C1048.82 656.481 1056.05 673.382 1056.48 679.106C1056.91 682.143 1071.44 677.058 1071.44 677.058Z" fill="#3C519F" style="fill:#3C519F;fill:color(display-p3 0.2353 0.3176 0.6235);fill-opacity:1;"/>
<path d="M1099.2 665.029C1099.55 663.172 1099.19 661.247 1098.17 659.657L1079.02 625.029L1076.67 620.793C1073.22 614.533 1069.51 607.839 1065.75 601.268L1054.69 601.188C1052.44 601.188 1050.42 601.127 1047.97 600.92C1047.42 600.734 1046.75 600.921 1046.16 600.859L1050.79 609.309C1053.69 614.35 1056.55 619.516 1059.39 624.537C1060.21 625.983 1060.88 627.45 1061.7 628.896L1064.25 633.338L1066.72 638.028C1073.38 648.5 1079.5 659.321 1085.03 670.446C1086.14 673.09 1099.2 665.029 1099.2 665.029Z" fill="#3C519F" style="fill:#3C519F;fill:color(display-p3 0.2353 0.3176 0.6235);fill-opacity:1;"/>
<path d="M1119.37 650.958C1119.58 649.081 1119.05 647.195 1117.9 645.709C1110.43 634.925 1102.89 624.119 1095.42 613.128C1094.54 611.867 1093.54 610.566 1092.64 609.161C1090.89 606.64 1089.09 604.037 1087.21 601.475C1081.07 601.331 1073.68 601.25 1066.81 601.479L1076.34 615.301L1079.08 619.392C1080.06 620.755 1081.1 622.139 1082.04 623.627C1082.98 625.115 1084.02 626.499 1085 627.862C1092.65 638.916 1104.31 652.903 1106.54 658.337C1107.27 660.238 1119.37 650.958 1119.37 650.958Z" fill="#3C519F" style="fill:#3C519F;fill:color(display-p3 0.2353 0.3176 0.6235);fill-opacity:1;"/>
<path d="M1087.31 593.522C1088.58 585.753 1088.59 573.293 1089.45 556.638C1132.68 524.044 1177.01 489.342 1220.42 456.191L1234.81 445.34L1382.08 332.347C1387.23 328.296 1392.47 324.348 1397.51 320.4L1413.85 307.937L1430.46 295.288C1472.65 262.963 1527.42 214.705 1547.81 204.018C1557.33 199.036 1511.05 135.422 1511.05 135.422C1503.93 135.973 1497.16 138.804 1491.73 143.505C1454.39 172.234 1129.41 456.827 1062.13 515.812C1055.49 515.297 1049.19 515.029 1042.66 514.617C1040.94 514.452 1039.25 514.432 1037.46 514.308C989.784 511.59 926.83 515.01 926.83 515.01L924.488 589.357C926.733 589.357 929.957 589.48 933.814 589.542C937.671 589.603 944.283 589.767 950.67 589.993C951.466 590.262 952.303 589.993 953.119 589.993C957.588 590.054 962.445 590.177 967.424 590.341C967.919 590.389 968.417 590.396 968.914 590.362C973.403 590.499 977.913 590.574 982.443 590.587C983.178 590.835 983.994 590.628 984.79 590.69C988.423 590.813 992.137 590.895 995.871 590.915C996.519 590.9 997.167 590.934 997.81 591.018C1002.22 591.058 1006.65 591.243 1010.95 591.387C1010.95 591.387 1011.56 591.594 1011.81 591.676C1015.2 591.717 1018.54 591.882 1021.73 591.923C1023.5 591.902 1025.32 591.963 1026.99 592.046L1034.22 592.21C1034.22 592.21 1036.64 592.271 1037.71 592.354C1038.77 592.436 1039.05 592.395 1039.66 592.395C1043.85 592.497 1047.95 592.641 1051.99 592.764C1052.13 592.833 1052.27 592.882 1052.42 592.909C1058.72 593.176 1064.93 593.341 1071.15 593.443L1084.6 593.916C1085.85 593.44 1086.62 593.564 1087.31 593.522Z" fill="#A6573B" style="fill:#A6573B;fill:color(display-p3 0.6510 0.3412 0.2314);fill-opacity:1;"/>
<path d="M1022.74 756.368C1011.32 750.997 1007.74 736.43 1006.27 723.743L1004.98 712.771L1018.94 722.439C1028.23 731.22 1040.86 733.346 1042.49 742.85L1038.25 758.018L1022.74 756.368Z" fill="#009253" style="fill:#009253;fill:color(display-p3 0.0000 0.5725 0.3255);fill-opacity:1;"/>
<path d="M1020.8 794.008C1021.54 799.009 1036.66 799.357 1036.66 799.357C1036.66 799.357 1040.9 784.396 1036.12 781.545C1029.77 777.078 1023.72 772.185 1018.02 766.898C1018.49 775.977 1019.42 785.025 1020.8 794.008V794.008Z" fill="#009253" style="fill:#009253;fill:color(display-p3 0.0000 0.5725 0.3255);fill-opacity:1;"/>
<path d="M1071.03 775.264C1068.83 772.297 1067.28 768.884 1066.5 765.257C1065.72 761.63 1065.73 757.875 1066.52 754.25C1066.39 747 1065.87 739.764 1064.94 732.574C1073.69 741.26 1081.9 750.492 1089.52 760.217C1090.92 766.557 1091.08 773.116 1089.97 779.517C1088.46 782.038 1073.81 778.611 1071.03 775.264Z" fill="#009253" style="fill:#009253;fill:color(display-p3 0.0000 0.5725 0.3255);fill-opacity:1;"/>
<path d="M977.046 779.264C975.249 776.04 969.044 771.537 969.552 764.201C971.555 756.803 972.038 749.067 970.973 741.471C970.808 737.835 973.26 744.86 994.325 763.122C997.612 765.953 991.249 778.476 992.452 775.851C993.655 773.227 988.7 784.985 988.7 784.985L977.046 779.264Z" fill="#009253" style="fill:#009253;fill:color(display-p3 0.0000 0.5725 0.3255);fill-opacity:1;"/>
<path d="M465.245 605.296C458.116 599.653 449.724 595.832 440.797 594.165C431.869 592.498 422.676 593.035 414.014 595.729C387.043 605.126 374.645 616.07 356.102 616.376C337.558 616.683 213.28 611.401 213.28 611.401C182.134 612.829 151.462 619.471 122.537 631.052C77.533 653.132 38.4085 685.558 8.35312 725.687C-20.7099 764.739 -42.3422 808.822 -55.4664 855.741C-66.0848 897.575 -74.0898 940.036 -79.4351 982.879C-80.245 990.216 -90.9246 1031.07 -98.0907 1040.09C-105.257 1049.12 -126.378 1072.78 -126.378 1072.78C-126.378 1072.78 -146.026 1104.88 -133.132 1133.96C-123.639 1155.96 -109.351 1176.2 -78.7453 1178.41C-48.1399 1180.62 -1.27355 1166.26 19.0683 1161.03C46.6337 1155.98 74.4882 1152.63 102.474 1151.01C111.183 1150.74 238.399 1155.94 282.47 1148.89C326.541 1141.85 435.747 1086.62 456.139 1034.52C481.008 972.716 494.036 906.752 494.545 840.065C493.89 768.316 471.745 718.828 477.357 702.094C482.149 683.778 485.842 665.188 488.417 646.425C488.417 646.425 485.058 616.224 465.245 605.296Z" fill="#FFD400" style="fill:#FFD400;fill:color(display-p3 1.0000 0.8314 0.0000);fill-opacity:1;"/>
<path d="M513.667 531.368C513.667 531.368 512.443 343.515 513.104 337.521C514.176 318.369 516.281 299.291 519.413 280.373C529.547 213.194 571.403 152.327 606.27 126.35C641.137 100.372 737.272 25.2477 737.272 25.2477C737.272 25.2477 756.102 7.18546 758.083 35.661C760.586 72.671 774.344 195.291 774.344 195.291C774.944 233.671 769.56 271.894 758.387 308.582C740.521 362.434 718.864 390.953 676.581 430.112C634.298 469.271 544.167 547.796 529.979 558.85C528.887 560.06 527.508 560.977 525.969 561.515C524.43 562.054 522.78 562.197 521.169 561.933C516.394 560.66 515.336 556.983 514.609 551.25C513.883 545.518 513.667 531.368 513.667 531.368Z" fill="#005F40" style="fill:#005F40;fill:color(display-p3 0.0000 0.3725 0.2510);fill-opacity:1;"/>
<path d="M489.087 527.635C489.087 527.635 458.872 402.524 416.601 354.419C374.329 306.315 296.937 246.699 249.009 233.739C249.009 233.739 234.958 224.614 248.664 250.127C262.37 275.641 312.532 387.733 339.746 414.985C366.959 442.237 403.777 486.69 433.063 506.538L488.719 544.23C488.719 544.23 492.227 539.919 489.087 527.635Z" fill="#005F40" style="fill:#005F40;fill:color(display-p3 0.0000 0.3725 0.2510);fill-opacity:1;"/>
<path d="M418.65 989.468C416.322 989.406 414.009 989.847 411.87 990.76C409.73 991.673 407.813 993.038 406.249 994.761C405.255 995.922 404.584 997.325 404.303 998.829C404.022 1000.33 404.142 1001.89 404.649 1003.33C405.157 1004.78 406.035 1006.07 407.196 1007.07C408.356 1008.07 409.758 1008.75 411.262 1009.04C417.287 1011.29 425.585 1012.85 429.174 1008.76C432.763 1004.67 436.075 998.347 429.417 994.245C426.146 992.011 422.498 990.393 418.65 989.468V989.468Z" fill="#00A13A" style="fill:#00A13A;fill:color(display-p3 0.0000 0.6314 0.2275);fill-opacity:1;"/>
<path d="M245.84 1045.87C242.65 1046.34 235.626 1043.66 230.926 1052.13C226.227 1060.6 220.529 1068.64 226.682 1072.58C229.831 1075.33 233.608 1077.28 237.679 1078.23C241.75 1079.18 245.991 1079.12 250.026 1078.05C259.066 1074.78 272.291 1065.81 270.542 1057.98C268.793 1050.14 264.049 1042.91 245.84 1045.87Z" fill="#00A13A" style="fill:#00A13A;fill:color(display-p3 0.0000 0.6314 0.2275);fill-opacity:1;"/>
<path d="M394.097 916.373C391.803 917.264 382.255 917.544 380.471 926.131C378.686 934.718 373.91 947.675 384.305 946.341C394.701 945.007 413.047 940.806 418.561 933.478C424.076 926.15 425.332 915.724 417.744 912.459C409.639 911.146 401.335 912.52 394.097 916.373V916.373Z" fill="#00A13A" style="fill:#00A13A;fill:color(display-p3 0.0000 0.6314 0.2275);fill-opacity:1;"/>
<path d="M148.981 1083.97C146.147 1085.01 138.15 1087.35 135.607 1094.28C133.065 1101.21 130.89 1110.49 138.396 1111.65C145.901 1112.82 165.937 1114.14 168.285 1106.14C170.632 1098.14 171.51 1089.24 161.89 1084.49C152.271 1079.74 148.981 1083.97 148.981 1083.97Z" fill="#00A13A" style="fill:#00A13A;fill:color(display-p3 0.0000 0.6314 0.2275);fill-opacity:1;"/>
<path d="M290.541 953.522C290.541 953.522 278.01 954.3 276.822 961.281C275.633 968.261 276.82 976.453 282.949 978.716C291.609 981.394 300.952 980.695 309.1 976.759C311.593 974.544 313.175 971.48 313.542 968.159C313.909 964.839 313.033 961.497 311.084 958.778C306.284 953.002 302.976 947.919 290.541 953.522Z" fill="#00A13A" style="fill:#00A13A;fill:color(display-p3 0.0000 0.6314 0.2275);fill-opacity:1;"/>
<path d="M344.33 1011.93C342.495 1012.45 337.71 1013.17 338.012 1018.96C338.314 1024.75 341.796 1032.05 350.298 1030.81C358.8 1029.58 368.447 1024.6 364.129 1018.25C359.81 1011.9 361.895 1007.22 344.33 1011.93Z" fill="#00A13A" style="fill:#00A13A;fill:color(display-p3 0.0000 0.6314 0.2275);fill-opacity:1;"/>
<path d="M453.828 857.436C453.828 857.436 441.793 861.305 446.08 870.789C450.366 880.273 453.489 883.242 462.289 881.204C471.089 879.166 480.369 872.788 474.568 864.702C468.768 856.616 466.86 851.169 453.828 857.436Z" fill="#00A13A" style="fill:#00A13A;fill:color(display-p3 0.0000 0.6314 0.2275);fill-opacity:1;"/>
<path d="M341.156 1075.71C341.156 1075.71 330.406 1078.36 333.555 1085.83C336.704 1093.3 340.965 1100.17 350.167 1097.34C359.368 1094.51 364.641 1086.53 359.567 1083.23C354.493 1079.94 351.906 1073.05 341.156 1075.71Z" fill="#00A13A" style="fill:#00A13A;fill:color(display-p3 0.0000 0.6314 0.2275);fill-opacity:1;"/>
<path d="M432.438 768.9C431.368 768.664 430.257 768.695 429.203 768.992C428.15 769.289 427.186 769.842 426.399 770.601C425.611 771.361 425.024 772.304 424.689 773.347C424.354 774.39 424.282 775.5 424.479 776.579C425.277 785.458 430.205 794.806 436.425 794.359C442.644 793.912 455.723 790.998 454.778 783.462C454.421 780.962 453.534 778.565 452.176 776.433C450.817 774.302 449.019 772.485 446.902 771.106C444.786 769.726 442.4 768.815 439.905 768.435C437.41 768.054 434.864 768.213 432.438 768.9V768.9Z" fill="#00A13A" style="fill:#00A13A;fill:color(display-p3 0.0000 0.6314 0.2275);fill-opacity:1;"/>
</g>
<defs>
<clipPath id="clip0_2690_22982">
<rect width="1877" height="1190.77" fill="white" style="fill:white;fill-opacity:1;"/>
</clipPath>
</defs>
</svg>
