<svg width="1877" height="1174" viewBox="0 0 1877 1174" fill="none" xmlns="http://www.w3.org/2000/svg">
<g clip-path="url(#clip0_2690_22900)">
<rect width="1877" height="1173.12" fill="white" style="fill:white;fill-opacity:1;"/>
<rect y="83.7734" width="1877" height="1014" fill="#EEEAE7" style="fill:#EEEAE7;fill:color(display-p3 0.9333 0.9176 0.9059);fill-opacity:1;"/>
<path d="M683.586 908.261C683.264 910.164 682.842 912.049 682.323 913.909C681.687 916.125 680.911 918.298 679.999 920.415C678.659 924.562 676.297 928.307 673.127 931.303C669.958 934.3 666.085 936.452 661.863 937.562C645.345 940.876 628.209 939.118 612.711 932.519C599.324 926.114 520.569 895.047 520.569 895.047V889.298V886.473V882.59V879.766V872.705V869.175V862.467V858.735V849.91V846.581V838.108V834.88L520.266 824.794C520.266 824.794 592.05 791.559 605.487 787.726C605.487 787.726 637.363 776.277 647.568 776.883C647.568 776.883 667.774 776.883 671.209 790.903C671.209 790.903 671.815 792.517 672.775 795.946C673.348 797.728 673.954 799.947 674.594 802.603C675.301 805.529 676.109 809.059 676.917 813.144C677.22 814.405 677.473 815.716 677.726 817.128C678.989 823.684 680.251 831.501 681.363 840.68C681.363 842.698 681.868 844.765 682.07 846.884C682.777 853.289 683.383 860.248 683.889 867.813C683.889 870.637 684.242 873.563 684.444 876.538C684.444 881.279 684.849 886.272 685 891.668C685 893.282 685 894.946 685 896.711C683.535 900.191 683.586 904.175 683.586 908.261Z" fill="#005F40" style="fill:#005F40;fill:color(display-p3 0.0000 0.3725 0.2510);fill-opacity:1;"/>
<path d="M466.108 912.195C466.108 912.195 454.742 922.886 435.343 942.454L427.362 950.625L425.998 952.037C413.712 965.459 402.16 979.533 391.394 994.199C390.08 996.014 388.717 997.779 387.353 999.595C376.845 1013.62 366.338 1028.04 357.497 1039.94L352.446 1046.95C347.394 1053.51 343.302 1059.01 340.12 1062.84C330.192 1072.88 319.464 1082.11 308.041 1090.42L303.445 1094.01C291.22 1103.39 277.631 1113.37 265.052 1122.5L258.838 1126.99C237.167 1142.57 219.789 1154.58 219.789 1154.58L217.213 1155.53C215.445 1156.24 212.768 1157.15 209.282 1158.26C198.787 1161.54 188.11 1164.22 177.305 1166.28L173.365 1167.03C163.615 1168.8 152.602 1170.36 140.428 1171.37H138.003C127.395 1172.18 115.928 1172.53 103.854 1172.28H101.227C87.1702 1171.9 73.15 1170.65 59.2476 1168.55L56.419 1168.14C47.5786 1166.73 38.5362 1164.96 29.3422 1162.75L22.3204 1160.98L20.9058 1160.58C5.79321 1156.71 -8.98739 1151.65 -23.2962 1145.45L-26.2259 1144.19C-39.9256 1138.04 -53.0452 1130.68 -65.4268 1122.2L-68.4071 1120.13C-81.7809 1110.63 -93.9742 1099.58 -104.729 1087.2V1087.2C-106.952 1084.62 -108.821 1082.15 -110.387 1080.29C-113.923 1075.75 -115.944 1072.77 -116.802 1072.12C-118.873 1070.5 -140.09 1041.86 -161.56 1012.35L-166.258 1005.95C-187.677 976.648 -207.883 948.658 -207.883 948.658C-207.883 948.658 -214.248 937.008 -209.247 939.227C-195.939 947.337 -183.058 956.124 -170.652 965.553C-167.369 967.973 -164.086 970.596 -160.954 972.866C-152.252 979.281 -144.122 986.436 -136.655 994.249C-134.382 996.72 -132.26 999.04 -129.987 1001.31C-124.935 1006.61 -119.884 1011.4 -115.438 1015.88C-105.06 1025.96 -93.9315 1035.23 -82.1481 1043.62C-78.915 1045.89 -75.7829 1048.01 -72.6509 1049.93C-60.3918 1057.58 -47.6899 1064.5 -34.6118 1070.65L-23.6495 1076.05L-21.5788 1077.06C-12.802 1081.22 -3.6732 1084.6 5.70023 1087.15C10.3478 1088.46 15.1973 1089.67 20.1479 1090.78C30.2512 1093.15 41.4156 1095.01 52.5797 1096.53C56.9746 1097.13 61.4201 1097.69 65.8656 1098.14C75.9689 1099.25 86.0722 1100.11 96.1755 1100.66C100.772 1100.97 105.319 1101.22 109.815 1101.37C119.918 1101.77 130.021 1101.97 139.013 1101.97H139.317C143.409 1101.97 147.298 1101.97 151.087 1101.62C160.116 1101.08 169.086 1099.82 177.911 1097.84C181.347 1097.08 184.731 1096.22 188.015 1095.27C199.162 1091.99 210.039 1087.86 220.547 1082.91C223.376 1081.65 226.155 1080.34 228.933 1078.98C236.258 1075.55 243.532 1072.02 251.009 1068.89C254.141 1067.48 257.778 1065.51 261.87 1063.19C265.962 1060.87 270.154 1058.15 274.802 1054.97C283.642 1049.07 293.644 1041.96 304.253 1034.04L314.862 1025.97C326.177 1017.4 337.948 1008.12 349.566 998.738L357.801 992.08C368.864 983.154 379.674 974.227 389.727 965.906L398.921 958.19C406.246 952.087 412.965 946.388 419.128 941.294C424.179 937.008 428.675 933.326 432.716 930.149C436.758 926.972 439.89 924.551 442.82 922.433C464.542 906.597 466.108 912.195 466.108 912.195Z" fill="#005F40" style="fill:#005F40;fill:color(display-p3 0.0000 0.3725 0.2510);fill-opacity:1;"/>
<path d="M455.201 798.982C453.938 798.074 431.812 781.431 408.423 762.014C404.331 758.585 400.189 755.155 396.147 751.676C382.453 740.434 369.79 727.995 358.311 714.506C347.636 700.514 335.569 687.638 322.292 676.077V676.077C319.362 673.555 316.28 671.033 313.098 668.512C303.267 660.686 292.712 653.813 281.576 647.985C277.062 645.591 272.425 643.436 267.684 641.53C257.12 637.122 246.061 634.006 234.747 632.25L230.1 631.595C227.018 631.09 223.937 630.636 220.754 630.233C209.944 628.72 198.729 627.358 187.463 626.148L177.36 625.19C168.318 624.332 159.326 623.576 150.536 623.021C146.545 622.769 142.655 622.517 138.816 622.365C128.359 621.811 118.609 621.508 109.163 621.559C104.414 621.559 99.9186 621.659 95.6752 621.861C87.7186 622.077 79.7935 622.955 71.9827 624.484L65.4159 625.997C61.3746 626.904 56.9798 627.963 52.2817 629.174C42.532 631.645 31.6199 634.621 20.1527 638.151C15.4041 639.563 10.6052 641.126 5.80617 642.74C-4.54971 646.17 -15.1078 650.053 -25.3122 654.239C-29.0504 655.752 -32.7377 657.366 -36.3244 658.98C-44.0534 662.46 -51.4793 666.141 -58.3495 670.075L-74.3635 679.103L-83.6078 684.398L-116.292 702.957L-129.982 710.774C-143.066 718.239 -154.432 724.795 -161.908 729.182C-166.455 731.855 -169.587 733.721 -170.799 734.528C-172.012 735.335 -171.961 735.234 -172.668 735.638C-181.827 739.948 -191.281 743.605 -200.958 746.582C-201.412 746.582 -198.634 742.295 -198.634 742.295C-198.634 742.295 -179.488 719.449 -156.605 693.123L-150.643 686.314C-136.246 669.823 -120.889 652.575 -108.31 639.21L-104.976 635.73C-98.7216 628.886 -91.9676 622.514 -84.7696 616.667C-81.1324 613.994 -75.3737 610.161 -67.8972 605.672L-66.3821 604.764C-55.7736 598.511 -41.9826 591.047 -25.9689 583.683L-24.4532 582.977C-9.76059 576.193 5.3002 570.232 20.6583 565.124L22.2746 564.62C33.5943 560.849 45.1122 557.701 56.7772 555.189L59.2025 554.684C73.2824 551.632 87.596 549.776 101.99 549.137H103.505C106.839 549.137 110.123 549.137 113.608 549.137C121.994 549.137 130.077 549.54 137.907 550.045H139.271C151.142 550.751 162.357 551.86 172.865 553.222L175.895 553.676C186.757 555.088 196.809 556.802 206.205 558.719L211.257 559.677C228.382 563.157 242.224 566.839 252.175 569.512L258.237 571.176C261.686 572.198 265.196 573.007 268.745 573.597C279.808 574.706 331.183 604.109 354.623 631.645L355.33 632.402C355.97 633.141 356.626 633.948 357.3 634.822C370.812 652.631 383.358 671.149 394.884 690.299C394.884 690.299 394.884 690.299 394.884 690.299C396.349 692.669 397.814 694.939 399.279 697.359C416.899 725.629 433.052 754.784 447.674 784.709C450.604 786.424 454.847 797.721 455.201 798.982Z" fill="#005F40" style="fill:#005F40;fill:color(display-p3 0.0000 0.3725 0.2510);fill-opacity:1;"/>
<path d="M503.191 896.96C479.943 893.209 456.103 896.493 434.741 906.391C422.808 913.204 411.544 921.123 401.097 930.044C397.157 933.222 393.116 936.55 388.973 940.131C350.833 972.206 306.632 1014.72 300.216 1019.51C275.991 1039.35 249.236 1055.88 220.652 1068.68L217.975 1069.84C208.264 1073.96 198.29 1077.43 188.119 1080.23C184.735 1081.19 181.35 1082.1 178.016 1082.86C169.299 1084.87 160.455 1086.28 151.546 1087.09C147.302 1087.5 143.059 1087.75 138.715 1087.8H135.077C126.994 1087.8 118.862 1087.8 110.728 1087.24C105.929 1086.99 101.13 1086.74 96.3314 1086.39C86.8343 1085.73 77.3872 1084.77 68.0922 1083.61C63.0405 1083.06 57.9889 1082.35 52.9372 1081.6C42.0594 1079.98 31.5188 1078.07 21.3145 1075.85C16.2628 1074.84 11.5643 1073.68 6.91677 1072.52C-29.3036 1063.44 -59.1588 1050.83 -75.1726 1035.95C-108.21 1005.34 -214.446 915.772 -214.446 915.772C-214.446 915.772 -278.198 878.098 -292.343 868.667C-300.577 863.12 -309.384 858.47 -318.611 854.798C-318.611 854.798 -331.241 848.292 -320.986 844.107C-311.574 840.849 -301.909 838.37 -292.09 836.693C-292.09 836.693 -284.159 831.095 -292.545 827.363C-300.931 823.631 -312.095 818.083 -312.095 818.083C-312.095 818.083 -318.157 816.217 -310.731 812.485C-304.669 809.459 -304.063 809.56 -304.063 809.711C-302.8 809.106 -261.224 788.378 -235.714 779.149C-210.203 769.92 -143.622 731.994 -112.959 713.132C-74.7759 690.043 -34.6079 670.398 7.06847 654.428C11.817 652.663 16.5659 650.999 21.3145 649.385C31.8724 645.905 42.4808 642.829 52.7862 640.458C57.8378 639.298 62.4853 638.29 67.2338 637.483C76.7208 635.778 86.338 634.9 95.9774 634.86C99.5031 634.847 103.027 635.016 106.536 635.364L110.325 635.717C119.519 636.575 128.914 637.23 138.513 637.735C142.756 638.037 147.05 638.239 151.344 638.491C160.134 638.996 168.974 639.449 177.764 640.055L187.867 640.811C198.627 641.669 209.336 642.728 219.692 644.241C222.622 644.644 225.502 645.098 228.382 645.602C260.46 651.049 289.304 661.287 309.511 682.519C354.319 729.624 410.999 786.209 429.842 795.64C448.684 805.071 470.255 826.253 500.565 826.253L503.191 896.96Z" fill="#005F40" style="fill:#005F40;fill:color(display-p3 0.0000 0.3725 0.2510);fill-opacity:1;"/>
<path d="M672.928 802.564C664.896 801.656 638.223 799.84 598.467 810.28C571.285 817.483 544.7 826.773 518.953 838.068V834.841C535.927 827.175 629.786 786.022 671.159 795.906C671.698 797.688 672.288 799.907 672.928 802.564Z" fill="white" style="fill:white;fill-opacity:1;"/>
<path d="M676.108 817.091C664.944 818.453 633.472 822.386 622.712 824.505C611.093 826.825 536.834 845.535 519.305 849.721V846.392C530.519 842.963 587.755 825.715 599.626 823.799C612.811 821.731 653.931 812.249 669.187 812.754H675.401C675.603 814.368 675.856 815.679 676.108 817.091Z" fill="white" style="fill:white;fill-opacity:1;"/>
<path d="M682.32 913.908C681.684 916.124 680.908 918.296 679.996 920.414C671.218 922.295 662.247 923.124 653.273 922.885C640.037 922.885 604.777 913.958 593.209 912.344C583.105 910.983 533.498 893.785 520.414 889.246V886.422C530.838 890.161 541.443 893.376 552.189 896.055C555.877 896.055 603.312 910.781 608.566 911.184C613.819 911.588 645.493 918.447 655.495 917.539C662.618 916.934 675.197 914.967 682.32 913.908Z" fill="white" style="fill:white;fill-opacity:1;"/>
<path d="M682.826 876.486C676.006 876.486 660.952 876.486 648.02 877.091C629.076 878.251 593.008 877.847 588.158 877.545C584.117 877.545 536.076 873.813 519.961 872.501V868.971C536.783 867.862 569.417 869.778 569.417 869.778C569.417 869.778 620.236 870.686 644.939 869.072C662.872 867.862 676.663 867.66 682.372 867.609C682.473 870.585 682.624 873.51 682.826 876.486Z" fill="white" style="fill:white;fill-opacity:1;"/>
<path d="M680.451 846.84C666.306 848.05 612.051 852.539 604.271 853.447C596.492 854.354 536.579 860.658 519.656 862.424V858.692L605.534 849.21L679.946 840.637C679.996 842.654 680.249 844.722 680.451 846.84Z" fill="white" style="fill:white;fill-opacity:1;"/>
<path d="M683.488 896.355C671.87 897.061 638.933 899.179 631.153 899.179C621.656 899.179 595.337 895.498 582.152 894.136C570.988 892.825 532.04 885.058 520.219 882.738V879.914C534.616 882.335 599.479 893.178 614.937 894.136C637.818 894.715 660.713 893.873 683.488 891.615C683.438 893.027 683.438 894.792 683.488 896.355Z" fill="white" style="fill:white;fill-opacity:1;"/>
<path d="M354.777 779.16C328.61 779.16 328.559 819.759 354.777 819.759C380.995 819.759 380.945 779.16 354.777 779.16Z" fill="#F6B5C1" style="fill:#F6B5C1;fill:color(display-p3 0.9647 0.7098 0.7569);fill-opacity:1;"/>
<path d="M90.1723 1000C90.0358 997.081 89.1296 994.246 87.5453 991.784C85.565 988.786 83.2048 986.057 80.5235 983.664C76.2856 979.579 70.6521 977.254 64.7623 977.158C61.7799 977.022 58.8149 977.684 56.1742 979.074C53.4321 979.973 50.964 981.552 49.0012 983.664C44.8476 987.854 42.5073 993.504 42.4844 999.399C42.6102 1005.27 44.9353 1010.89 49.0012 1015.13C51.3975 1017.8 54.1316 1020.14 57.1343 1022.09L62.1859 1024.36C65.0456 1025.27 68.0954 1025.41 71.0263 1024.77C72.9984 1024.78 74.9367 1024.26 76.6336 1023.25C79.3815 1022.37 81.8531 1020.79 83.8072 1018.66C86.3743 1015.84 88.319 1012.5 89.5156 1008.88C90.5132 1006.03 90.7398 1002.97 90.1723 1000V1000Z" fill="#F6B5C1" style="fill:#F6B5C1;fill:color(display-p3 0.9647 0.7098 0.7569);fill-opacity:1;"/>
<path d="M152.607 801.195C147.823 796.458 141.361 793.795 134.623 793.781L127.854 794.689C124.625 795.416 121.645 796.982 119.216 799.228C116.45 800.978 114.2 803.433 112.699 806.339C112.346 807.045 112.042 807.802 111.739 808.508C110.957 809.489 110.389 810.623 110.072 811.836C108.864 814.078 108.288 816.606 108.406 819.149C108.544 822.516 109.441 825.809 111.032 828.782C111.032 829.236 111.588 829.689 111.891 830.143C112.194 830.597 112.396 831.354 112.699 831.959L116.64 837.002C118.895 839.349 121.711 841.085 124.823 842.046C129.453 843.946 134.531 844.481 139.455 843.587C144.38 842.693 148.944 840.408 152.607 837.002C154.958 834.751 156.697 831.939 157.659 828.832C159.261 825.829 160.011 822.446 159.831 819.048C159.883 812.377 157.286 805.958 152.607 801.195V801.195Z" fill="#F6B5C1" style="fill:#F6B5C1;fill:color(display-p3 0.9647 0.7098 0.7569);fill-opacity:1;"/>
<path d="M250.961 708.651C250.14 707.072 249.084 705.626 247.829 704.364C245.27 702.001 242.189 700.273 238.837 699.321C235.442 698.416 231.857 698.526 228.525 699.638C225.194 700.75 222.262 702.814 220.095 705.575L221.105 704.263L219.741 706.029L219.388 706.432C217.748 707.883 216.349 709.585 215.245 711.475C214.772 712.427 214.25 713.353 213.679 714.249L215.145 712.383C213.519 714.497 212.256 716.866 211.406 719.393C210.007 721.558 209.085 723.995 208.702 726.543C208.319 729.091 208.482 731.691 209.183 734.17C210.301 738.031 212.633 741.43 215.835 743.864C219.038 746.298 222.94 747.638 226.965 747.686L229.693 747.434C233.868 747.765 238.054 746.954 241.801 745.088C245.548 743.222 248.715 740.372 250.961 736.843C253.846 732.707 255.393 727.788 255.393 722.747C255.393 717.707 253.846 712.787 250.961 708.651V708.651Z" fill="#F6B5C1" style="fill:#F6B5C1;fill:color(display-p3 0.9647 0.7098 0.7569);fill-opacity:1;"/>
<path d="M166.248 920.011C165.275 916.343 163.34 913 160.641 910.328C158.853 907.899 156.517 905.924 153.823 904.563C151.129 903.201 148.152 902.492 145.132 902.492C142.113 902.492 139.136 903.201 136.442 904.563C133.748 905.924 131.412 907.899 129.624 910.328C126.907 912.994 124.954 916.337 123.966 920.011C123.025 922.826 122.886 925.846 123.562 928.736C124.116 933.168 126.02 937.322 129.018 940.638C130.482 943.651 132.765 946.193 135.604 947.976C138.444 949.759 141.728 950.711 145.082 950.724C148.459 950.64 151.748 949.631 154.59 947.808C157.432 945.985 159.717 943.417 161.197 940.386C164.167 937.078 166.052 932.942 166.602 928.534C167.257 925.713 167.135 922.768 166.248 920.011V920.011Z" fill="#F6B5C1" style="fill:#F6B5C1;fill:color(display-p3 0.9647 0.7098 0.7569);fill-opacity:1;"/>
<path d="M105.723 701.385L105.167 697.149C104.827 695.932 104.334 694.763 103.702 693.669C102.626 690.615 100.903 687.829 98.6507 685.499C96.6947 683.343 94.2028 681.743 91.4272 680.859C88.7546 679.452 85.757 678.773 82.7379 678.892L76.7773 679.699C73.9164 680.372 71.274 681.76 69.0987 683.734C66.6704 685.309 64.6875 687.479 63.3397 690.038C61.7184 692.523 60.7937 695.396 60.6622 698.359C59.9877 701.334 60.1277 704.434 61.0667 707.336L63.3397 712.682C64.6875 715.241 66.6704 717.412 69.0987 718.986C71.274 720.96 73.9164 722.348 76.7773 723.021C79.6729 723.8 82.6942 724 85.6676 723.611C88.641 723.221 91.5077 722.25 94.1041 720.752C98.8814 717.899 102.469 713.423 104.207 708.143C105.281 706.056 105.803 703.73 105.723 701.385V701.385Z" fill="#F6B5C1" style="fill:#F6B5C1;fill:color(display-p3 0.9647 0.7098 0.7569);fill-opacity:1;"/>
<path d="M46.6731 818.852C44.7 816.946 42.2748 815.571 39.6241 814.857C36.9734 814.142 34.184 814.111 31.5181 814.767C29.7832 815.198 28.092 815.789 26.4665 816.532L22.9811 817.339C19.504 818.295 16.3388 820.145 13.8022 822.705C11.2657 825.265 9.44648 828.444 8.5261 831.926C7.60572 835.407 7.61664 839.069 8.55755 842.545C9.49846 846.021 11.3363 849.189 13.8879 851.734C16.4369 854.281 19.611 856.117 23.0928 857.056C26.5745 857.995 30.2422 858.006 33.7295 857.087C37.2167 856.168 40.4012 854.352 42.9651 851.82C45.5291 849.287 47.3827 846.128 48.3405 842.656C48.3405 841.496 48.7947 840.286 49.1483 839.126C49.9109 837.515 50.4876 835.823 50.8664 834.083C51.5334 831.398 51.4982 828.587 50.764 825.92C50.0298 823.253 48.6208 820.819 46.6731 818.852V818.852Z" fill="#F6B5C1" style="fill:#F6B5C1;fill:color(display-p3 0.9647 0.7098 0.7569);fill-opacity:1;"/>
<path d="M387.004 868.864C382.696 864.679 376.949 862.297 370.94 862.207C364.94 862.274 359.2 864.66 354.926 868.864C350.882 873.24 348.52 878.904 348.258 884.851C348.263 890.868 350.661 896.637 354.926 900.889C357.029 902.998 359.528 904.671 362.281 905.813C365.033 906.955 367.984 907.543 370.965 907.543C373.946 907.543 376.897 906.955 379.649 905.813C382.402 904.671 384.901 902.998 387.004 900.889C389.18 898.9 390.799 896.38 391.702 893.576C393.124 890.896 393.787 887.88 393.622 884.851C393.605 878.861 391.228 873.118 387.004 868.864Z" fill="#F6B5C1" style="fill:#F6B5C1;fill:color(display-p3 0.9647 0.7098 0.7569);fill-opacity:1;"/>
<path d="M274.048 965.755C270.266 963.391 265.968 961.972 261.52 961.62C260.072 961.216 258.556 960.863 256.973 960.561C253.671 959.71 250.205 959.728 246.912 960.612C243.619 961.495 240.611 963.215 238.181 965.604C234.63 969.28 232.608 974.165 232.523 979.271C232.57 984.371 234.598 989.253 238.181 992.888C240.635 995.24 243.644 996.935 246.929 997.817C250.214 998.698 253.669 998.738 256.973 997.931C258.539 997.629 260.004 997.276 261.52 996.872C265.975 996.552 270.28 995.131 274.048 992.737C276.382 991.352 278.316 989.385 279.659 987.028C281.002 984.672 281.709 982.008 281.709 979.296C281.709 976.585 281.002 973.921 279.659 971.565C278.316 969.208 276.382 967.241 274.048 965.856V965.755Z" fill="#F6B5C1" style="fill:#F6B5C1;fill:color(display-p3 0.9647 0.7098 0.7569);fill-opacity:1;"/>
<path d="M279.455 840.592C275.493 836.684 270.147 834.492 264.577 834.492C259.008 834.492 253.662 836.684 249.701 840.592C247.714 842.451 246.221 844.773 245.356 847.35C244.037 849.846 243.426 852.653 243.588 855.47C243.601 861.021 245.796 866.346 249.701 870.297C251.653 872.251 253.972 873.801 256.524 874.858C259.077 875.915 261.814 876.46 264.577 876.46C267.341 876.46 270.078 875.915 272.631 874.858C275.184 873.801 277.503 872.251 279.455 870.297C283.192 866.233 285.375 860.983 285.618 855.47C285.599 849.895 283.386 844.552 279.455 840.592V840.592Z" fill="#F6B5C1" style="fill:#F6B5C1;fill:color(display-p3 0.9647 0.7098 0.7569);fill-opacity:1;"/>
<path d="M20.2552 637.843C15.5066 639.256 10.7077 640.819 5.90868 642.433C2.87594 615.669 7.96198 588.612 20.508 564.766L22.1243 564.262C18.5539 588.626 17.9264 613.33 20.2552 637.843V637.843Z" fill="white" style="fill:white;fill-opacity:1;"/>
<path d="M65.5171 625.683C61.4758 626.591 57.0803 627.65 52.3823 628.86C51.0184 588.514 54.2014 565.516 56.6261 554.825L59.0508 554.32C59.6255 578.224 61.7858 602.064 65.5171 625.683Z" fill="white" style="fill:white;fill-opacity:1;"/>
<path d="M230.047 631.292C226.966 630.788 223.884 630.334 220.702 629.93C220.905 615.149 219.208 600.403 215.65 586.053C212.759 576.592 209.387 567.283 205.547 558.164L210.599 559.122C225.208 580.227 232.077 605.718 230.047 631.292Z" fill="white" style="fill:white;fill-opacity:1;"/>
<path d="M187.413 625.835L177.309 624.877C176.552 604.099 175.137 573.385 172.258 552.758L175.289 553.212C182.219 576.85 186.29 601.231 187.413 625.835Z" fill="white" style="fill:white;fill-opacity:1;"/>
<path d="M109.265 621.246C104.517 621.246 100.021 621.346 95.7779 621.548C95.0933 597.141 97.1262 572.733 101.84 548.773H103.355L109.265 621.246Z" fill="white" style="fill:white;fill-opacity:1;"/>
<path d="M138.258 559.38L137.602 549.293H138.966C141.845 557.362 147.958 578.847 150.635 622.421C146.644 622.169 142.754 621.916 138.915 621.765C139.117 600.835 139.117 571.736 138.258 559.38Z" fill="white" style="fill:white;fill-opacity:1;"/>
<path d="M323.757 676.585L322.292 675.829C319.362 673.307 316.28 670.786 313.097 668.264C315.294 647.695 315.294 626.951 313.097 606.383L312.391 596.75C312.391 596.75 315.472 596.75 317.139 605.878C318.806 615.007 327.596 645.014 323.757 676.585Z" fill="white" style="fill:white;fill-opacity:1;"/>
<path d="M356.943 634.356C356.303 633.516 355.646 632.709 354.973 631.935L354.266 631.179C354.266 630.372 354.266 629.565 354.266 628.809L355.984 629.868C356.383 631.346 356.703 632.844 356.943 634.356V634.356Z" fill="white" style="fill:white;fill-opacity:1;"/>
<path d="M360.786 696.448C360.786 697.305 359.725 716.117 359.725 716.117L351.188 705.324C354.605 680.769 355.637 655.941 354.269 631.188L354.976 631.944C355.616 632.684 356.273 633.49 356.946 634.365C358.816 642.636 361.847 661.498 360.786 696.448Z" fill="white" style="fill:white;fill-opacity:1;"/>
<path d="M396.149 751.419C397.156 730.9 396.65 710.335 394.633 689.891C396.098 692.261 397.563 694.53 399.028 696.951C404.233 718.203 407.381 739.905 408.424 761.758C404.333 758.328 400.19 754.899 396.149 751.419Z" fill="white" style="fill:white;fill-opacity:1;"/>
<path d="M281.522 647.663C277.009 645.269 272.371 643.114 267.63 641.208C268.186 591.431 256.113 573.829 251.516 568.938L257.577 570.602L269.752 591.784C277.377 609.438 281.379 628.439 281.522 647.663Z" fill="white" style="fill:white;fill-opacity:1;"/>
<path d="M22.1731 1161.44L20.7584 1161.04C8.77359 1138.48 3.51443 1112.96 5.60349 1087.51C10.251 1088.82 15.1011 1090.03 20.0518 1091.14C18.0165 1114.57 18.7281 1138.17 22.1731 1161.44V1161.44Z" fill="white" style="fill:white;fill-opacity:1;"/>
<path d="M65.6676 1098.5C61.9914 1121.88 59.7984 1145.46 59.1008 1169.11L56.2716 1168.71C53.8973 1157.36 51.2199 1135.02 52.3817 1096.99C56.7767 1097.49 61.2221 1098.05 65.6676 1098.5Z" fill="white" style="fill:white;fill-opacity:1;"/>
<path d="M217.064 1155.84C215.296 1156.54 212.618 1157.45 209.133 1158.56C212.972 1148.47 215.65 1139.29 215.65 1139.29C220.244 1120.99 221.746 1102.06 220.095 1083.26C222.924 1082 225.702 1080.69 228.48 1079.33C233.321 1105.39 229.303 1132.32 217.064 1155.84V1155.84Z" fill="white" style="fill:white;fill-opacity:1;"/>
<path d="M177.509 1098.19C180.944 1097.43 184.329 1096.58 187.612 1095.62C186.783 1119.58 183.293 1143.38 177.206 1166.58L173.266 1167.33C175.64 1146.15 176.903 1117.31 177.509 1098.19Z" fill="white" style="fill:white;fill-opacity:1;"/>
<path d="M95.7723 1101.01C100.369 1101.31 104.916 1101.56 109.411 1101.71L103.754 1172.77H101.127C96.8456 1149.1 95.0512 1125.05 95.7723 1101.01Z" fill="white" style="fill:white;fill-opacity:1;"/>
<path d="M139.115 1102.34C143.207 1102.34 147.097 1102.34 150.885 1101.98C148.562 1140.01 143.662 1161.34 140.479 1171.68H138.055L138.459 1165.78C139.368 1153.48 139.115 1123.67 139.115 1102.34Z" fill="white" style="fill:white;fill-opacity:1;"/>
<path d="M307.894 1090.73L303.297 1094.31V1092.35C305.279 1073 305.397 1053.51 303.65 1034.15L314.259 1026.08C315.513 1047.83 313.365 1069.64 307.894 1090.73V1090.73Z" fill="white" style="fill:white;fill-opacity:1;"/>
<path d="M357.5 1040.25L352.448 1047.26C352.289 1031.08 351.227 1014.91 349.266 998.845L357.5 992.188C357.853 996.928 358.207 1002.83 358.157 1003.33C358.46 1018.51 358.157 1030.67 357.5 1040.25Z" fill="white" style="fill:white;fill-opacity:1;"/>
<path d="M389.279 966.013L398.473 958.297C396.923 970.477 394.56 982.541 391.4 994.407C390.087 996.223 388.723 997.988 387.359 999.803C388.218 992.188 389.077 980.79 389.279 966.013Z" fill="white" style="fill:white;fill-opacity:1;"/>
<path d="M442.215 922.551C440.598 927.846 438.274 935.008 435.294 942.724L427.312 950.894C429.325 944.069 430.927 937.131 432.111 930.116C435.85 927.241 439.234 924.669 442.215 922.551Z" fill="white" style="fill:white;fill-opacity:1;"/>
<path d="M268.942 1113.57L264.901 1122.8L258.688 1127.29C262.426 1116.24 265.507 1096.57 261.415 1063.29C265.355 1060.92 269.7 1058.24 274.347 1055.07C276.627 1074.73 274.786 1094.65 268.942 1113.57Z" fill="white" style="fill:white;fill-opacity:1;"/>
<path d="M1613.14 352.621L1455.17 327.883L1471.6 355.401C1472.09 357.068 1488.62 380.243 1529.94 373.572C1560.41 368.673 1613.14 352.621 1613.14 352.621Z" fill="#1D71B8" style="fill:#1D71B8;fill:color(display-p3 0.1137 0.4431 0.7216);fill-opacity:1;"/>
<path d="M1681.67 55.4755L1541.25 93.1041L1448.92 128.579C1445.13 128.752 1452.01 124.93 1452.01 124.93L1467.84 115.202C1518.75 85.2518 1578.56 58.8109 1578.56 58.8109L1680.72 15.3799C1748.02 -9.32371 1779.01 2.69803 1779.01 2.69803L1815.73 18.1248L1867.86 42.4461C1867.86 42.4461 1869.66 44.7393 1863.55 44.8088C1857.44 44.8783 1805.87 39.875 1793.65 40.4309C1781.44 40.9868 1759.57 41.2995 1759.57 41.2995C1759.57 41.2995 1719.69 46.7893 1681.67 55.4755Z" fill="#1D71B8" style="fill:#1D71B8;fill:color(display-p3 0.1137 0.4431 0.7216);fill-opacity:1;"/>
<path d="M2230.5 120.655C2226.99 119.543 2094.01 72.3945 2047.29 66.6963C2000.56 60.9982 1865.34 54.1882 1835.75 52.3815C1806.15 50.5747 1731.87 55.856 1700.87 62.5965C1669.87 69.337 1595.56 86.3272 1551.64 102.762C1507.72 119.196 1332.87 193.515 1313.35 199.422C1299.41 204.012 1285.91 209.826 1273.01 216.794C1273.01 216.794 1218.92 189.241 1206.98 184.898C1195.04 180.555 1120.55 157.103 1111.85 153.42C1103.14 149.737 1081.23 138.931 1082.6 142.996C1083.97 147.061 1101.84 159.535 1101.84 159.535C1101.84 159.535 1192.06 222.284 1209.89 246.918C1209.89 246.918 1161.98 290.94 1131.75 307.304C1101.52 323.669 1074.25 337.671 1068 338.193C1068 338.193 1073.83 345.142 1087.24 341.945C1100.65 338.749 1202.52 323.774 1255.99 295.873L1287.58 285.728C1295 284.58 1302.58 285.042 1309.8 287.083C1319.53 290.557 1492.77 325.094 1576.6 335.135C1576.6 335.135 1738.68 349.311 1827.5 342.084C1827.5 342.084 1987.08 312.759 2064 275.409C2140.91 238.058 2237.7 173.502 2237.7 173.502C2237.7 173.502 2250.05 170.34 2232.89 166.553C2215.72 162.766 2192.34 149.771 2192.34 149.771L2217.51 132.677L2227.38 125.728C2227.38 125.728 2234.57 121.941 2230.5 120.655Z" fill="#36A9E1" style="fill:#36A9E1;fill:color(display-p3 0.2118 0.6627 0.8824);fill-opacity:1;"/>
<path d="M1856.21 84.4207C1858.04 84.2469 1864.64 81.3979 1868.71 86.6096C1872.78 91.8213 1880.22 99.0482 1872.68 101.55C1865.13 104.051 1851.23 107.04 1845.01 103.843C1838.8 100.646 1834.48 94.0798 1838.84 89.5629C1843.19 85.0461 1852.6 84.7334 1856.21 84.4207Z" fill="#F4AACC" style="fill:#F4AACC;fill:color(display-p3 0.9569 0.6667 0.8000);fill-opacity:1;"/>
<path d="M1853.64 159.537C1855.01 159.537 1863.89 156.375 1866.24 162.664C1868.6 168.953 1870.81 179.828 1863.72 182.295C1856.63 184.762 1846.41 188.34 1842.13 185.769C1837.85 183.198 1833.04 174.964 1837.14 169.543C1841.25 164.123 1845.43 159.294 1853.64 159.537Z" fill="#F4AACC" style="fill:#F4AACC;fill:color(display-p3 0.9569 0.6667 0.8000);fill-opacity:1;"/>
<path d="M1813.84 225.271C1816.09 225.097 1822.4 224.124 1826.37 227.946C1830.34 231.768 1834.9 237.397 1830.13 240.558C1825.35 243.72 1812.12 251.225 1807.94 246.535C1803.76 241.844 1800.11 236.111 1805.06 229.718C1810.01 223.325 1813.84 225.271 1813.84 225.271Z" fill="#F4AACC" style="fill:#F4AACC;fill:color(display-p3 0.9569 0.6667 0.8000);fill-opacity:1;"/>
<path d="M1763.57 140.261C1763.57 140.261 1772.42 136.787 1775.51 141.095C1778.6 145.404 1780.42 151.31 1777.09 154.993C1773.75 158.676 1762.69 163.575 1758.48 161.942C1756.06 161.273 1753.97 159.737 1752.62 157.633C1751.27 155.528 1750.76 153.003 1751.18 150.546C1752.51 144.813 1753.53 140.157 1763.57 140.261Z" fill="#F4AACC" style="fill:#F4AACC;fill:color(display-p3 0.9569 0.6667 0.8000);fill-opacity:1;"/>
<path d="M1734.81 78.7939C1735.43 78.5322 1736.09 78.3939 1736.75 78.387C1737.42 78.3801 1738.08 78.5048 1738.7 78.7539C1739.32 79.0029 1739.88 79.3714 1740.35 79.8376C1740.82 80.3039 1741.2 80.8585 1741.45 81.4693C1743.13 85.4997 1743.17 91.5105 1736.92 93.4215C1730.67 95.3325 1722.46 95.0893 1723.37 89.4606C1724.28 83.832 1721.33 81.3651 1734.81 78.7939Z" fill="#F4AACC" style="fill:#F4AACC;fill:color(display-p3 0.9569 0.6667 0.8000);fill-opacity:1;"/>
<path d="M1641.72 129.135C1641.72 129.135 1649.3 127.12 1652.99 132.818C1656.67 138.516 1660.01 146.125 1656.5 148.731C1652.99 151.337 1638.07 152.206 1633.89 145.535C1629.71 138.864 1629.64 132.019 1641.72 129.135Z" fill="#F4AACC" style="fill:#F4AACC;fill:color(display-p3 0.9569 0.6667 0.8000);fill-opacity:1;"/>
<path d="M1688.31 196.928C1688.31 196.928 1697.78 195.678 1697.96 203.53C1698.14 211.382 1697.01 214.231 1690.31 215.725C1683.6 217.219 1675.25 216.073 1676.48 208.568C1677.7 201.063 1677.35 196.928 1688.31 196.928Z" fill="#F4AACC" style="fill:#F4AACC;fill:color(display-p3 0.9569 0.6667 0.8000);fill-opacity:1;"/>
<path d="M1633.79 255.979C1633.79 255.979 1641.86 254.381 1642.36 260.357C1642.85 266.333 1641.97 272.414 1634.77 273.456C1627.58 274.498 1621.33 270.885 1623.75 266.993C1626.17 263.102 1625.72 257.647 1633.79 255.979Z" fill="#F4AACC" style="fill:#F4AACC;fill:color(display-p3 0.9569 0.6667 0.8000);fill-opacity:1;"/>
<path d="M1579.06 189.418C1579.06 189.418 1585.55 190.703 1587.24 194.734C1588.92 198.764 1592.19 204.949 1585.59 208.284C1578.99 211.62 1566.7 211.759 1566.77 206.617C1566.84 201.474 1567.54 194.074 1572.81 191.329C1573.41 190.283 1574.39 189.503 1575.55 189.148C1576.71 188.793 1577.97 188.889 1579.06 189.418Z" fill="#F4AACC" style="fill:#F4AACC;fill:color(display-p3 0.9569 0.6667 0.8000);fill-opacity:1;"/>
<path d="M1543.53 139.661C1544.9 139.661 1547.75 146.263 1544.24 147.931C1540.72 149.599 1525.21 155.54 1520.75 151.405C1516.29 147.271 1514.4 140.391 1521 137.507C1527.6 134.623 1532.4 131.948 1537.57 133.824C1538.97 134.23 1540.25 134.976 1541.3 135.995C1542.34 137.014 1543.11 138.274 1543.53 139.661Z" fill="#F4AACC" style="fill:#F4AACC;fill:color(display-p3 0.9569 0.6667 0.8000);fill-opacity:1;"/>
<path d="M1484.91 237.961C1487.05 236.49 1489.51 235.53 1492.09 235.157C1494.68 234.783 1497.31 235.006 1499.79 235.807C1509.13 238.274 1514.57 243.346 1512.11 246.786C1509.66 250.226 1506.04 256.549 1500.11 256.584C1494.18 256.619 1482.06 253.457 1479.89 249.01C1479.28 247.987 1478.93 246.835 1478.87 245.651C1478.81 244.467 1479.03 243.286 1479.52 242.204C1480.01 241.123 1480.76 240.174 1481.69 239.436C1482.63 238.698 1483.73 238.192 1484.91 237.961V237.961Z" fill="#F4AACC" style="fill:#F4AACC;fill:color(display-p3 0.9569 0.6667 0.8000);fill-opacity:1;"/>
<path d="M1443.94 172.016C1445.31 172.016 1453.56 172.016 1453.94 177.193C1454.33 182.37 1457.21 194.982 1451 196.858C1444.78 198.735 1434.64 197.796 1432.5 193.801C1431.18 190.703 1430.85 187.28 1431.56 183.994C1432.27 180.708 1433.98 177.715 1436.46 175.421C1436.46 175.421 1437.55 172.085 1443.94 172.016Z" fill="#F4AACC" style="fill:#F4AACC;fill:color(display-p3 0.9569 0.6667 0.8000);fill-opacity:1;"/>
<path d="M1343.86 221.246C1344.51 220.734 1345.28 220.389 1346.09 220.243C1346.91 220.097 1347.75 220.154 1348.54 220.409C1349.33 220.664 1350.05 221.108 1350.62 221.703C1351.19 222.298 1351.61 223.025 1351.83 223.818C1354.18 230.106 1353.9 237.993 1349.47 239.731C1345.05 241.468 1335.19 243.726 1333.4 238.306C1331.61 232.886 1332.8 224.721 1343.86 221.246Z" fill="#F4AACC" style="fill:#F4AACC;fill:color(display-p3 0.9569 0.6667 0.8000);fill-opacity:1;"/>
</g>
<defs>
<clipPath id="clip0_2690_22900">
<rect width="1877" height="1173.12" fill="white" style="fill:white;fill-opacity:1;"/>
</clipPath>
</defs>
</svg>
