<svg width="917" height="1236" viewBox="0 0 917 1236" fill="none" xmlns="http://www.w3.org/2000/svg">
<g clip-path="url(#clip0_2690_22778)">
<rect width="917" height="1236" fill="white" style="fill:white;fill-opacity:1;"/>
<rect x="-72" y="41" width="1061" height="1153" fill="#EEEAE7" style="fill:#EEEAE7;fill:color(display-p3 0.9333 0.9176 0.9059);fill-opacity:1;"/>
<path d="M501.481 643.881C507.703 654.09 515.734 663.079 525.178 670.404C528.024 672.544 531.022 674.473 534.149 676.174C536.879 677.66 539.709 678.954 542.618 680.045C551.858 683.627 561.413 686.33 571.154 688.118C573.961 688.594 576.609 688.928 579.091 689.149C586.68 689.902 594.34 689.244 601.682 687.207C605.081 686.237 610.338 684.672 616.065 682.938L623.533 680.728C635.594 677.004 647.271 673.276 647.271 673.276L699.57 656.764C699.57 656.764 713.688 653.307 715.657 646.377C715.657 646.377 711.807 634.636 689.231 640.17C689.231 640.17 706.46 632.487 711.363 627.131C716.266 621.776 713.6 613.89 703.972 614.888L679.247 620.548C679.247 620.548 705.334 608.525 704.566 603.405C703.799 598.285 694.488 595.221 683.32 600.315C672.151 605.409 631.345 633.482 620.584 644.974L620.255 645.178L619.457 645.358C616.02 646.111 602.373 648.702 596.295 645.059C595.153 644.372 593.529 643.526 591.606 642.504C590.877 642.138 590.127 641.736 589.31 641.305C584.558 638.851 579.991 636.054 575.645 632.934C574.932 632.438 574.243 631.903 573.571 631.357C570.043 628.641 566.989 625.358 564.534 621.642C564.137 620.999 563.751 620.373 563.364 619.748C562.237 617.606 561.479 615.29 561.122 612.897C560.915 612.094 560.801 611.271 560.78 610.443C560.748 609.707 560.772 608.969 560.854 608.237C561.259 604.241 563.374 598.206 571.136 592.286L571.638 591.975L574.257 589.975C579.721 585.761 585.886 580.587 591.797 575.353L594.649 572.8C602.348 565.886 609.247 559.226 613.317 554.769C621.484 545.862 646.71 511.082 655.779 484.403C658.426 478.315 660.243 471.896 661.182 465.318C661.182 465.318 659.7 457.373 656.881 458.081C656.881 458.081 629.769 476.932 620.867 481.898C611.966 486.865 568.098 513.274 568.098 513.274L562.431 516.773C559.329 518.688 555.203 521.115 551.016 523.676C544.084 527.955 536.84 532.427 533.096 534.738C531.185 536.115 529.375 537.626 527.678 539.26C525.366 541.407 522.656 544.113 519.783 547.135C511.755 555.53 504.393 564.538 497.761 574.078C495.196 577.564 493.26 581.473 492.04 585.63L491.805 586.879C489.907 599.311 490.977 623.067 494.051 630.101C494.251 630.426 494.435 630.84 494.603 631.345C496.633 635.662 498.93 639.849 501.481 643.881V643.881Z" fill="#F4AACC" style="fill:#F4AACC;fill:color(display-p3 0.9569 0.6667 0.8000);fill-opacity:1;"/>
<path d="M572.628 558.541C578.724 564.55 585.171 570.19 591.935 575.432L594.787 572.88L584.05 565.102C566.334 548.501 563.04 527.462 562.58 516.87C559.478 518.785 555.352 521.212 551.164 523.773C556.542 536.011 567.039 552.628 572.628 558.541Z" fill="white" style="fill:white;fill-opacity:1;"/>
<path d="M519.883 547.149C526.113 555.826 533.07 563.957 540.679 571.453C549.834 579.829 560.131 586.86 571.257 592.334L571.76 592.024L574.379 590.023C563.552 584.582 555.102 577.602 541.811 562.47C537.708 557.801 531.695 546.819 527.811 539.326C525.466 541.421 522.756 544.127 519.883 547.149Z" fill="white" style="fill:white;fill-opacity:1;"/>
<path d="M491.901 586.89C499.22 590.991 516.26 600.255 526.402 604.006C536.544 607.756 553.055 609.688 560.796 610.479C560.763 609.743 560.788 609.005 560.87 608.273C553.809 606.606 543.895 603.458 543.895 603.458C526.12 597.073 506.175 581.127 497.734 574.045C495.169 577.531 493.233 581.44 492.012 585.597L491.901 586.89Z" fill="white" style="fill:white;fill-opacity:1;"/>
<path d="M501.476 643.885C511.181 643.44 530.584 637.92 540.963 633.914C549.16 630.53 557.056 626.459 564.565 621.744C564.168 621.101 563.782 620.475 563.396 619.849L544.575 626.931C528.562 632.512 511.407 634.029 494.644 631.345C496.659 635.663 498.941 639.851 501.476 643.885V643.885Z" fill="white" style="fill:white;fill-opacity:1;"/>
<path d="M525.178 670.401C528.024 672.541 531.022 674.47 534.149 676.171C540.08 672.053 549.817 665.106 558.205 658.223C566.049 651.42 572.063 642.755 575.699 633.018C574.986 632.522 574.297 631.987 573.625 631.441C567.92 643.83 558.183 653.904 546.005 660.016C536.023 665.171 529.404 668.368 525.178 670.401Z" fill="white" style="fill:white;fill-opacity:1;"/>
<path d="M571.148 688.12C573.955 688.596 576.602 688.93 579.084 689.151C583.587 681.401 589.315 670.83 591.273 663.067C593.222 656.423 593.365 649.373 591.685 642.645C590.957 642.278 590.206 641.877 589.389 641.445C589.296 649.068 588.107 656.635 585.859 663.913C583.187 672.069 576.798 681.415 571.148 688.12Z" fill="white" style="fill:white;fill-opacity:1;"/>
<path d="M616.08 682.976L623.548 680.767C626.079 672.266 628.162 658.232 620.671 645.089L620.341 645.293L619.543 645.473C620.167 647.801 621.072 653.725 620.289 667.269C620.257 672.783 618.807 678.193 616.08 682.976V682.976Z" fill="white" style="fill:white;fill-opacity:1;"/>
<path d="M586.699 593.358C586.699 593.358 599.716 590.677 603.188 592.231C606.66 593.784 615.896 601.456 615.896 601.456C615.896 601.456 621.524 605.184 619.813 607.801C618.102 610.418 617.892 609.923 613.541 607.567C609.191 605.211 602.989 599.508 598.769 599.689C594.548 599.869 579.34 603.111 579.34 603.111C579.34 603.111 575.166 604.104 574.887 603.652C574.608 603.2 574.35 602.782 576.018 601.297C577.686 599.811 583.986 594.817 583.986 594.817C584.84 594.243 585.749 593.754 586.699 593.358V593.358Z" fill="#F4AACC" style="fill:#F4AACC;fill:color(display-p3 0.9569 0.6667 0.8000);fill-opacity:1;"/>
<path d="M573.927 613.52C577.47 612.234 581.096 611.191 584.781 610.397C587.608 610.092 592.555 609.343 595.469 611.001C598.384 612.659 610.579 621.481 610.579 621.481C610.579 621.481 613.642 624.272 612.363 625.494C611.083 626.716 611.851 627.922 608.443 627.169C605.034 626.417 593.606 618.994 591.342 618.855C587.999 619.247 584.705 619.977 581.511 621.035C580.464 620.961 579.472 620.531 578.7 619.817C577.668 618.726 573.777 614.981 573.777 614.981C573.777 614.981 572.238 614.467 573.927 613.52Z" fill="#F4AACC" style="fill:#F4AACC;fill:color(display-p3 0.9569 0.6667 0.8000);fill-opacity:1;"/>
<path d="M565.764 467.084C576.925 457.793 611.082 439.107 611.082 439.107C619.626 435.377 628.509 432.473 637.61 430.437C649.391 428.855 659.315 427.29 670.349 433.611C681.384 439.932 672.468 455.304 672.468 455.304C672.011 456.031 671.833 456.9 671.967 457.75C671.902 458.806 671.9 459.865 671.963 460.922C672.047 462.958 670.9 464.939 671.977 465.907C673.053 466.875 677.911 460.011 677.911 460.011C686.833 447.828 684.335 441.183 684.335 441.183C682.638 433.395 674.675 427.435 664.057 424.194C653.44 420.953 634.415 425.183 621.329 429.42C608.243 433.657 581.558 451.571 569.557 460.085C557.555 468.598 525.003 496.473 514.21 503.376C514.21 503.376 491.795 516.925 482.702 521.194C473.945 525.073 464.992 528.493 455.877 531.44C453.405 532.126 452.071 532.757 451.747 534.326C451.423 535.894 450.197 535.691 453.183 535.72C456.169 535.75 464.396 532.831 468.441 531.63C472.487 530.43 507.463 512.919 517.938 504.724C528.413 496.529 551.354 477.9 551.53 477.72C551.706 477.539 565.764 467.084 565.764 467.084Z" fill="#F4AACC" style="fill:#F4AACC;fill:color(display-p3 0.9569 0.6667 0.8000);fill-opacity:1;"/>
<path d="M669.819 478.737C676.034 473.341 681.543 467.181 686.217 460.403C691.652 452.03 703.235 433.691 685.549 419.736C685.549 419.736 668.417 401.909 642.504 407.079C616.59 412.248 602.467 413.02 576.981 425.008C551.496 436.995 511.681 457.565 501.621 461.662C491.561 465.76 472.672 470.987 470.689 470.914C469.458 470.858 467.71 470.353 468.221 468.933C468.733 467.513 475.638 466.563 479.855 465.64C491.585 463.201 515.081 451.673 523.556 447.257C532.031 442.841 576.181 421.54 582.608 418.149C589.035 414.757 623.383 404.021 627.788 403.246C632.192 402.472 657.808 399.263 666.024 401.25C674.239 403.237 689.786 408.957 697.131 417.172C702.767 423.977 705.706 432.616 705.386 441.439C705.004 445.9 696.911 464.077 689.728 471.944C682.546 479.812 673.273 487.937 670.816 490.198C668.488 492.182 666.05 494.032 663.513 495.739C663.513 495.739 662.697 494.61 664.119 491.835C665.42 488.838 666.515 485.755 667.399 482.608C667.399 482.608 666.44 480.823 669.819 478.737Z" fill="#F4AACC" style="fill:#F4AACC;fill:color(display-p3 0.9569 0.6667 0.8000);fill-opacity:1;"/>
<path d="M598.208 584C598.208 584 604.047 582.796 606.558 583.647C609.07 584.497 619.419 590.329 621.54 591.204C623.66 592.08 626.928 592.488 626.668 590.439C626.409 588.391 617.023 581.988 616.302 581.401C615.58 580.814 609.036 576.571 606.235 577.268C604.135 577.934 602.18 578.986 600.468 580.372C599.281 581.248 598.473 582.546 598.208 584V584Z" fill="#F4AACC" style="fill:#F4AACC;fill:color(display-p3 0.9569 0.6667 0.8000);fill-opacity:1;"/>
<path d="M633.385 497.795C629.725 500.319 628.205 500.105 626.181 498.881C624.157 497.658 621.323 493.765 623.379 491.007C625.434 488.25 627.676 486.338 630.493 487.024C631.778 487.322 632.948 487.995 633.853 488.957C634.758 489.92 635.359 491.129 635.579 492.431C635.63 493.433 635.46 494.433 635.081 495.36C634.701 496.287 634.123 497.119 633.385 497.795V497.795Z" fill="#1D1D1B" style="fill:#1D1D1B;fill:color(display-p3 0.1137 0.1137 0.1059);fill-opacity:1;"/>
<path d="M498.06 366.007C500.227 375.338 500.675 384.986 499.381 394.474C498.954 397.295 498.32 400.08 497.485 402.807C496.758 405.189 495.864 407.517 494.811 409.773C491.535 417.006 487.585 423.912 483.015 430.399C481.676 432.246 480.349 433.923 479.053 435.441C475.133 440.13 470.382 444.05 465.038 447.003C462.55 448.355 458.664 450.409 454.415 452.629L448.903 455.554C439.913 460.189 431.142 464.607 431.142 464.607L391.958 484.498C391.958 484.498 381.942 490.44 376.928 487.58C376.928 487.58 372.544 478.703 388.565 469.205C388.565 469.205 374.398 474.474 368.588 474.161C362.779 473.847 359.88 467.84 365.948 463.01L383.269 452.378C383.269 452.378 361.6 460.134 359.167 456.774C356.734 453.414 360.342 446.438 369.589 443.087C378.836 439.737 417.93 432.906 430.533 433.445L430.836 433.377L431.393 433.032C433.782 431.535 443.043 425.362 444.477 419.868C444.745 418.834 445.199 417.439 445.726 415.776C445.938 415.157 446.142 414.507 446.367 413.802C447.709 409.733 448.753 405.57 449.489 401.347C449.618 400.663 449.713 399.971 449.791 399.282C450.286 395.749 450.191 392.158 449.512 388.654C449.378 388.064 449.248 387.489 449.118 386.914C448.561 385.056 447.696 383.306 446.558 381.737C446.226 381.162 445.83 380.626 445.377 380.141C444.982 379.702 444.554 379.293 444.097 378.92C441.624 376.862 437.028 374.595 429.267 375.562L428.805 375.667L426.185 375.991C420.695 376.645 414.265 377.143 407.947 377.465L404.883 377.604C396.6 377.968 388.918 378.028 384.089 377.761C374.419 377.246 340.477 371.499 320.323 361.323C315.393 359.325 310.752 356.672 306.526 353.435C306.526 353.435 302.917 348.059 304.926 346.882C304.926 346.882 331.012 342.458 338.891 340.306C346.77 338.154 386.682 328.655 386.682 328.655L391.887 327.477C394.736 326.833 398.458 325.907 402.29 325.023C408.656 323.583 415.309 322.078 418.747 321.3C420.613 321.015 422.496 320.864 424.384 320.847C426.911 320.779 429.979 320.806 433.318 320.924C442.62 321.224 451.886 322.247 461.031 323.985C464.454 324.54 467.755 325.69 470.785 327.384L471.619 327.967C479.68 334.015 492.394 348.207 494.581 353.955C494.648 354.253 494.776 354.593 494.963 354.976C496.223 358.585 497.258 362.269 498.06 366.007V366.007Z" fill="#F4AACC" style="fill:#F4AACC;fill:color(display-p3 0.9569 0.6667 0.8000);fill-opacity:1;"/>
<path d="M409.485 357.096C409.368 363.954 408.844 370.797 407.915 377.591L404.851 377.73L406.631 367.258C407.454 347.822 397.537 333.937 391.858 327.619C394.707 326.975 398.429 326.049 402.261 325.165C406.05 335.183 409.366 350.578 409.485 357.096Z" fill="white" style="fill:white;fill-opacity:1;"/>
<path d="M433.266 320.989C434.569 329.448 435.15 338.003 435.002 346.559C434.463 356.487 432.516 366.286 429.222 375.66L428.76 375.764L426.14 376.088C429.281 366.902 430.2 358.169 429.315 342.056C429.043 337.083 426.324 327.427 424.342 320.96C426.859 320.844 429.927 320.872 433.266 320.989Z" fill="white" style="fill:white;fill-opacity:1;"/>
<path d="M471.569 328.03C469.683 334.482 465.131 349.341 461.432 357.176C457.734 365.011 449.371 375.379 445.387 380.174C444.992 379.734 444.564 379.326 444.107 378.953C447.211 374.038 451.117 366.676 451.117 366.676C457.705 353.052 460.17 332.741 461.027 323.954C464.45 324.509 467.75 325.659 470.78 327.353L471.569 328.03Z" fill="white" style="fill:white;fill-opacity:1;"/>
<path d="M498.057 366.01C492.254 371.2 478.057 378.926 469.872 382.456C463.284 385.119 456.483 387.219 449.542 388.734C449.408 388.143 449.278 387.569 449.148 386.994L463.888 380.487C476.18 374.698 486.846 365.943 494.931 355.003C496.2 358.604 497.244 362.28 498.057 366.01V366.01Z" fill="white" style="fill:white;fill-opacity:1;"/>
<path d="M499.382 394.474C498.955 397.295 498.321 400.08 497.486 402.808C491.783 403.779 482.316 405.266 473.655 406.034C465.352 406.542 457.05 404.959 449.508 401.427C449.638 400.743 449.732 400.051 449.81 399.362C460.024 403.249 471.245 403.551 481.642 400.216C490.244 397.565 495.824 395.682 499.382 394.474Z" fill="white" style="fill:white;fill-opacity:1;"/>
<path d="M483.013 430.4C481.674 432.247 480.347 433.924 479.051 435.442C472.127 433.534 462.92 430.7 457.446 427.357C452.603 424.649 448.566 420.696 445.753 415.904C445.965 415.286 446.169 414.636 446.394 413.93C450.723 418.239 455.648 421.901 461.017 424.803C467.121 427.97 476.019 429.734 483.013 430.4Z" fill="white" style="fill:white;fill-opacity:1;"/>
<path d="M454.419 452.664L448.907 455.589C442.69 452.145 433.626 445.284 430.539 433.563L430.842 433.495L431.399 433.15C432.349 434.832 435.154 438.729 443.199 446.038C446.311 449.175 450.175 451.457 454.419 452.664V452.664Z" fill="white" style="fill:white;fill-opacity:1;"/>
<path d="M420.961 384.911C420.961 384.911 412.01 390.679 410.895 393.516C409.78 396.352 408.799 405.922 408.799 405.922C408.799 405.922 407.671 411.212 410.118 411.75C412.565 412.287 412.407 411.886 413.575 408.098C414.742 404.309 415.09 397.568 417.607 395.303C420.123 393.039 430.642 386.363 430.642 386.363C430.642 386.363 433.586 384.589 433.493 384.174C433.399 383.759 433.312 383.376 431.524 383.461C429.737 383.547 423.332 384.224 423.332 384.224C422.521 384.374 421.726 384.605 420.961 384.911V384.911Z" fill="#F4AACC" style="fill:#F4AACC;fill:color(display-p3 0.9569 0.6667 0.8000);fill-opacity:1;"/>
<path d="M439.581 389.276C436.833 390.528 434.174 391.965 431.62 393.578C429.831 394.99 426.581 397.336 425.844 399.92C425.107 402.503 423.078 414.391 423.078 414.391C423.078 414.391 422.891 417.706 424.309 417.688C425.727 417.669 425.964 418.79 427.492 416.447C429.019 414.105 431.393 403.447 432.611 402.098C434.743 400.447 437.038 399.017 439.458 397.83C440.016 397.2 440.342 396.398 440.383 395.556C440.362 394.353 440.487 390.028 440.487 390.028C440.487 390.028 441.079 388.87 439.581 389.276Z" fill="#F4AACC" style="fill:#F4AACC;fill:color(display-p3 0.9569 0.6667 0.8000);fill-opacity:1;"/>
<path d="M362.107 300.922C350.509 301.867 320.486 310.338 320.486 310.338C313.505 312.997 306.794 316.319 300.445 320.259C292.818 325.962 286.262 330.634 283.495 340.44C280.728 350.247 294.452 354.04 294.452 354.04C295.121 354.199 295.71 354.596 296.11 355.158C296.74 355.725 297.335 356.331 297.892 356.97C298.986 358.183 300.753 358.672 300.681 359.83C300.608 360.988 293.978 359.786 293.978 359.786C282.04 357.821 279.741 352.618 279.741 352.618C276.343 347.211 277.556 339.334 281.812 331.523C286.068 323.713 299.326 315.461 309.189 310.544C319.052 305.627 344.369 300.907 356.01 299.045C367.652 297.183 401.912 294.87 411.96 292.765C411.96 292.765 432.385 287.943 439.981 285.284C447.167 282.591 454.208 279.525 461.075 276.098C462.875 275.103 463.992 274.717 465.057 275.432C466.123 276.148 466.71 275.343 465.018 277.035C463.326 278.727 456.983 281.673 453.994 283.255C451.006 284.837 421.173 294.44 410.583 295.627C399.993 296.815 376.418 299.027 376.216 299.022C376.014 299.017 362.107 300.922 362.107 300.922Z" fill="#F4AACC" style="fill:#F4AACC;fill:color(display-p3 0.9569 0.6667 0.8000);fill-opacity:1;"/>
<path d="M309.109 365.961C302.527 366.36 295.919 365.926 289.443 364.67C281.637 362.929 264.722 358.935 267.012 341.03C267.012 341.03 266.814 321.22 284.539 309.641C302.264 298.062 310.777 290.581 332.083 283.143C353.388 275.705 387.705 265.138 395.759 261.839C403.813 258.54 417.552 250.934 418.646 249.78C419.319 249.058 420.036 247.788 418.946 247.262C417.857 246.737 413.374 250.067 410.443 251.905C402.364 257.089 382.455 263.674 375.129 265.902C367.803 268.13 330.596 280.71 325.016 282.375C319.437 284.04 293.763 297.166 290.808 299.194C287.854 301.221 271.399 313.755 267.813 319.501C264.228 325.246 258.542 337.24 258.948 346.06C259.541 353.114 262.706 359.706 267.838 364.574C270.559 366.912 285.386 372.771 293.909 373.243C302.431 373.715 312.294 373.162 314.969 373.077C317.413 372.906 319.845 372.597 322.254 372.15C322.254 372.15 322.088 371.047 319.718 370.257C317.293 369.272 314.936 368.123 312.666 366.818C312.666 366.818 312.213 365.259 309.109 365.961Z" fill="#F4AACC" style="fill:#F4AACC;fill:color(display-p3 0.9569 0.6667 0.8000);fill-opacity:1;"/>
<path d="M409.124 386.011C409.124 386.011 405.109 388.598 404.149 390.494C403.189 392.389 400.539 401.531 399.817 403.222C399.095 404.912 397.455 406.978 396.454 405.661C395.453 404.343 397.231 395.415 397.315 394.675C397.398 393.934 398.762 387.835 400.756 386.663C402.33 385.866 404.04 385.371 405.796 385.204C406.967 385.039 408.157 385.328 409.124 386.011V386.011Z" fill="#F4AACC" style="fill:#F4AACC;fill:color(display-p3 0.9569 0.6667 0.8000);fill-opacity:1;"/>
<path d="M340.647 356.426C344.156 355.816 344.906 354.841 345.378 353.006C345.849 351.17 345.287 347.354 342.564 346.929C339.841 346.505 337.486 346.668 336.259 348.641C335.691 349.532 335.399 350.573 335.422 351.632C335.444 352.69 335.778 353.719 336.383 354.587C336.916 355.189 337.574 355.666 338.311 355.984C339.048 356.302 339.846 356.452 340.647 356.426V356.426Z" fill="#1D1D1B" style="fill:#1D1D1B;fill:color(display-p3 0.1137 0.1137 0.1059);fill-opacity:1;"/>
<path d="M89.2894 274.544C92.2891 274.781 95.3011 274.282 98.0642 273.091C100.827 271.9 103.258 270.053 105.145 267.709C110.837 260.135 112.235 254.828 117.281 251.316C122.326 247.803 157.492 226.284 157.492 226.284C165.799 220.133 173.016 212.634 178.844 204.096C187.164 189.694 191.962 173.529 192.848 156.918C193.659 140.788 191.5 124.645 186.478 109.294C181.703 95.8072 176.093 82.6304 169.681 69.8401C168.554 67.6691 163.975 54.4407 164.287 50.63C164.598 46.8194 166.056 36.3964 166.056 36.3964C166.056 36.3964 165.556 23.9229 156.657 18.2948C149.997 13.9887 142.341 11.0536 133.514 16.1026C124.687 21.1516 114.435 33.7724 109.8 38.9737C103.145 45.4607 96.0969 51.5316 88.6954 57.1518C86.3487 58.8361 50.3903 80.9217 39.5604 91.0089C28.7305 101.096 8.84504 136.498 12.8207 154.62C17.3498 176.243 25.9021 196.823 38.0321 215.288C51.4136 234.932 66.6119 244.471 68.1468 250.118C70.1986 256.049 72.6027 261.853 75.3464 267.498C75.3464 267.498 81.8273 275.197 89.2894 274.544Z" fill="#FFD400" style="fill:#FFD400;fill:color(display-p3 1.0000 0.8314 0.0000);fill-opacity:1;"/>
<path d="M89.5729 303.865C89.5729 303.865 124.473 355.387 125.394 357.161C128.623 362.635 131.554 368.279 134.173 374.07C143.745 394.45 143.428 418.954 138.614 432.556C133.801 446.158 121.172 484.624 121.172 484.624C121.172 484.624 119.315 493.081 113.53 485.603C106.032 475.87 79.6855 444.635 79.6855 444.635C72.459 434.173 66.9075 422.648 63.2312 410.476C58.2385 392.338 58.95 380.478 63.3788 361.875C67.8077 343.271 78.1585 304.978 80.0281 299.31C80.106 298.774 80.3167 298.267 80.6411 297.834C80.9655 297.401 81.3932 297.057 81.8851 296.832C83.4329 296.3 84.4007 297.117 85.6554 298.562C86.9101 300.007 89.5729 303.865 89.5729 303.865Z" fill="#005F40" style="fill:#005F40;fill:color(display-p3 0.0000 0.3725 0.2510);fill-opacity:1;"/>
<path d="M97.0205 300.345C97.0205 300.345 128.353 329.225 148.835 334.662C169.316 340.1 201.579 342.215 217.15 336.926C217.15 336.926 222.695 336.842 214.23 332.347C205.765 327.853 171.339 306.247 158.837 303.77C146.335 301.294 128.026 295.854 116.316 295.801L94.0683 295.706C94.0683 295.706 93.8962 297.542 97.0205 300.345Z" fill="#005F40" style="fill:#005F40;fill:color(display-p3 0.0000 0.3725 0.2510);fill-opacity:1;"/>
<path d="M31.4291 160.102C32.081 159.689 32.6363 159.14 33.057 158.493C33.4778 157.846 33.7542 157.116 33.8674 156.352C33.9273 155.848 33.8538 155.338 33.6542 154.872C33.4546 154.405 33.1361 153.999 32.7303 153.695C32.3246 153.391 31.8461 153.198 31.3426 153.137C30.8392 153.076 30.3285 153.148 29.8618 153.346C27.7895 153.84 25.2182 154.942 24.9838 156.733C24.7493 158.524 25.0012 160.878 27.5879 160.777C28.8987 160.788 30.2004 160.559 31.4291 160.102V160.102Z" fill="#00A13A" style="fill:#00A13A;fill:color(display-p3 0.0000 0.6314 0.2275);fill-opacity:1;"/>
<path d="M68.5983 112.623C69.3884 111.902 71.814 111.341 71.5491 108.14C71.2843 104.939 71.3728 101.671 68.9548 101.723C67.581 101.546 66.1847 101.709 64.8891 102.199C63.5935 102.689 62.4385 103.49 61.5259 104.532C59.6396 107.103 57.6506 112.018 59.5737 113.853C61.4969 115.689 64.133 116.804 68.5983 112.623Z" fill="#00A13A" style="fill:#00A13A;fill:color(display-p3 0.0000 0.6314 0.2275);fill-opacity:1;"/>
<path d="M51.633 175.697C52.1003 175.027 54.6758 173.186 53.5868 170.49C52.4978 167.795 51.428 163.342 48.8133 165.632C46.1985 167.921 41.9238 172.47 41.7547 175.508C41.5856 178.546 43.1584 181.65 45.8468 181.147C48.3185 180.01 50.3505 178.096 51.633 175.697V175.697Z" fill="#00A13A" style="fill:#00A13A;fill:color(display-p3 0.0000 0.6314 0.2275);fill-opacity:1;"/>
<path d="M88.2297 84.2187C88.8181 83.4086 90.5881 81.2862 90.0124 78.9065C89.4366 76.5269 88.3282 73.5698 86.049 74.6367C83.7699 75.7036 78.0129 79.0419 78.8391 81.6797C79.6653 84.3175 81.0612 86.9313 84.582 86.462C88.1029 85.9926 88.2297 84.2187 88.2297 84.2187Z" fill="#00A13A" style="fill:#00A13A;fill:color(display-p3 0.0000 0.6314 0.2275);fill-opacity:1;"/>
<path d="M73.2821 146.325C73.2821 146.325 76.5864 143.794 75.6291 141.651C74.6719 139.508 72.838 137.471 70.7352 137.981C67.8598 138.844 65.4179 140.764 63.9002 143.354C63.6219 144.425 63.7502 145.562 64.2603 146.545C64.7704 147.527 65.6262 148.286 66.6626 148.675C69.0459 149.378 70.8914 150.167 73.2821 146.325Z" fill="#00A13A" style="fill:#00A13A;fill:color(display-p3 0.0000 0.6314 0.2275);fill-opacity:1;"/>
<path d="M47.7456 140.176C48.1541 139.692 49.3392 138.611 48.1909 137.072C47.0427 135.533 44.7416 134.166 42.6294 136.078C40.5173 137.99 38.7786 141.144 41.1349 142.094C43.4913 143.045 43.7789 144.72 47.7456 140.176Z" fill="#00A13A" style="fill:#00A13A;fill:color(display-p3 0.0000 0.6314 0.2275);fill-opacity:1;"/>
<path d="M46.0432 202.977C46.0432 202.977 48.6426 199.687 45.7182 197.866C42.7939 196.046 41.3883 195.806 39.342 197.994C37.2957 200.182 35.9162 203.654 38.9998 204.81C42.0834 205.965 43.6108 207.113 46.0432 202.977Z" fill="#00A13A" style="fill:#00A13A;fill:color(display-p3 0.0000 0.6314 0.2275);fill-opacity:1;"/>
<path d="M36.8797 122.023C36.8797 122.023 39.3492 119.305 37.1081 117.829C34.8669 116.353 32.4312 115.249 30.4202 117.73C28.4092 120.21 28.4272 123.384 30.4295 123.354C32.4319 123.323 34.4102 124.742 36.8797 122.023Z" fill="#00A13A" style="fill:#00A13A;fill:color(display-p3 0.0000 0.6314 0.2275);fill-opacity:1;"/>
<path d="M68.2164 223.415C68.5543 223.282 68.8542 223.068 69.0895 222.791C69.3247 222.515 69.4881 222.184 69.5649 221.83C69.6418 221.475 69.6298 221.106 69.5301 220.757C69.4304 220.408 69.246 220.089 68.9933 219.828C67.1401 217.529 64.0641 215.866 62.4352 217.138C60.8062 218.411 57.7436 221.632 59.3904 223.533C59.9486 224.156 60.6337 224.652 61.3996 224.988C62.1655 225.324 62.9945 225.492 63.8307 225.481C64.667 225.47 65.491 225.28 66.2475 224.923C67.004 224.567 67.6754 224.052 68.2164 223.415V223.415Z" fill="#00A13A" style="fill:#00A13A;fill:color(display-p3 0.0000 0.6314 0.2275);fill-opacity:1;"/>
<path d="M851.954 947.364C840.5 938.576 812.729 924.554 795.887 915.838C779.046 907.121 710.052 892.64 675.764 905.209C652.303 914.052 605.861 945.991 597.159 954.266C588.456 962.541 577.403 974.684 564.733 982.19C553.909 988.522 544.83 995.261 544.747 1011.21C544.663 1027.16 568.228 1038.59 568.228 1038.59C575.319 1043.8 582.124 1049.39 588.611 1055.34C598.839 1064.79 628.665 1101.98 657.473 1117.06C687.928 1132.65 721.909 1140.08 756.094 1138.61C789.023 1136.96 828.609 1116.89 840.882 1100.59C847.208 1092.35 876.534 1053.34 885.892 1045.85C885.892 1045.85 908.193 1030.91 907.365 1017.24C906.538 1003.57 889.553 976.075 851.954 947.364Z" fill="#FFD400" style="fill:#FFD400;fill:color(display-p3 1.0000 0.8314 0.0000);fill-opacity:1;"/>
<path d="M584.316 1089.85C584.316 1089.85 580.299 1161.66 518.691 1196.99C518.691 1196.99 475.466 1217.99 430.103 1210.35C430.103 1210.35 455.743 1179.35 459.291 1172.7C462.839 1166.06 492.889 1119.37 514.383 1109.26C535.877 1099.16 543.562 1090.16 584.316 1089.85Z" fill="#005F40" style="fill:#005F40;fill:color(display-p3 0.0000 0.3725 0.2510);fill-opacity:1;"/>
<path d="M605.833 1037.07C606.212 1040.13 550.968 1042.79 521.99 1019.6C493.011 996.403 469.584 975.602 444.374 925.209C444.374 925.209 429.975 900.619 432.244 875.095C432.244 875.095 431.58 869.29 441.192 874.299C459.383 883.715 532.08 911.484 557.275 936.709C585.117 963.152 602.379 998.828 605.833 1037.07Z" fill="#005F40" style="fill:#005F40;fill:color(display-p3 0.0000 0.3725 0.2510);fill-opacity:1;"/>
<path d="M699.341 967.35C700.234 967.346 705.984 969.818 707.736 965.719C709.487 961.619 711.422 954.472 706.941 952.451C702.46 950.43 695.749 947.788 692.831 949.221C689.913 950.655 686.455 956.091 688.961 959.829C689.87 961.89 691.31 963.672 693.134 964.994C694.958 966.315 697.1 967.128 699.341 967.35V967.35Z" fill="#00A13A" style="fill:#00A13A;fill:color(display-p3 0.0000 0.6314 0.2275);fill-opacity:1;"/>
<path d="M635.997 962.954C635.997 962.954 641.104 964.718 643.708 961.03C646.312 957.342 648.79 952.485 646.728 950.457C644.666 948.429 634.713 947.499 631.72 951.738C628.726 955.977 628.184 960.613 635.997 962.954Z" fill="#00A13A" style="fill:#00A13A;fill:color(display-p3 0.0000 0.6314 0.2275);fill-opacity:1;"/>
<path d="M833.255 968.272C834.44 968.663 836.152 970.826 839.26 968.764C842.368 966.702 845.895 965.127 844.596 962.558C844.048 961.03 843.129 959.662 841.922 958.577C840.714 957.491 839.257 956.723 837.679 956.34C834.038 955.738 827.846 956.32 826.988 959.335C826.129 962.35 826.492 965.973 833.255 968.272Z" fill="#00A13A" style="fill:#00A13A;fill:color(display-p3 0.0000 0.6314 0.2275);fill-opacity:1;"/>
<path d="M677.857 929.24C679.306 929.437 683.443 930.326 686.2 927.952C688.956 925.579 692.176 922.008 689.171 919.696C686.167 917.383 677.704 911.915 674.788 914.875C671.872 917.834 669.225 921.492 672.319 925.837C675.413 930.182 677.857 929.24 677.857 929.24Z" fill="#00A13A" style="fill:#00A13A;fill:color(display-p3 0.0000 0.6314 0.2275);fill-opacity:1;"/>
<path d="M646.085 1006.16C646.085 1006.16 651.758 1008.83 653.963 1006.07C656.168 1003.3 657.583 999.41 655.489 996.978C652.36 993.705 648.092 991.76 643.57 991.546C641.943 991.915 640.511 992.872 639.549 994.234C638.588 995.596 638.164 997.266 638.361 998.922C638.797 1002.53 639.442 1005.85 646.085 1006.16Z" fill="#00A13A" style="fill:#00A13A;fill:color(display-p3 0.0000 0.6314 0.2275);fill-opacity:1;"/>
<path d="M775.475 965.261C775.475 965.261 781.677 966.465 782.119 961.25C782.562 956.036 781.894 954.103 777.507 952.848C773.121 951.592 767.562 952.177 768.15 957.103C768.737 962.028 768.258 964.866 775.475 965.261Z" fill="#00A13A" style="fill:#00A13A;fill:color(display-p3 0.0000 0.6314 0.2275);fill-opacity:1;"/>
<path d="M749.098 930.374C749.098 930.374 752.743 932.948 754.405 928.976C756.066 925.003 756.327 919.597 753.497 918.297C750.666 916.997 744.238 915.125 742.833 918.644C742.376 919.821 742.18 921.083 742.256 922.343C742.332 923.603 742.679 924.832 743.274 925.946C743.869 927.06 744.697 928.032 745.702 928.796C746.707 929.56 747.865 930.098 749.098 930.374V930.374Z" fill="#00A13A" style="fill:#00A13A;fill:color(display-p3 0.0000 0.6314 0.2275);fill-opacity:1;"/>
<path d="M236.253 742.304C221.208 716.922 188.53 676.054 189.113 656.822C189.696 637.589 197.646 607.177 210.891 635.345C224.135 663.513 234.565 690.145 234.565 690.145C234.565 690.145 231.618 609.381 246.824 627.532C255.066 636.909 260.412 648.477 262.213 660.834C264.015 673.19 262.195 685.805 256.973 697.15C251.572 712.847 244.631 727.972 236.253 742.304V742.304Z" fill="#00A13A" style="fill:#00A13A;fill:color(display-p3 0.0000 0.6314 0.2275);fill-opacity:1;"/>
<path d="M232.894 725.034C234.044 734.383 233.621 802.247 232.84 823.75C232.059 845.253 230.402 939.687 235.083 957.102C239.764 974.516 247.16 1021.34 250.21 1025.56C253.26 1029.79 265.266 1049.4 265.266 1049.4L258.756 1023.47L243.958 943.369L242.579 875.892L242.354 813.393L238.881 760.503L232.894 725.034Z" fill="#00A13A" style="fill:#00A13A;fill:color(display-p3 0.0000 0.6314 0.2275);fill-opacity:1;"/>
<path d="M240.074 803.601L241.529 799.603C246.811 785.101 265.201 735.478 269.703 728.512C274.204 721.547 283.338 709.815 284.488 719.164C285.518 728.654 284.163 738.252 280.545 747.087C276.554 757.627 295.079 724.598 301.438 725.886C307.798 727.175 319.395 731.707 308.943 752.461C298.492 773.216 260.916 799.718 252.367 808.582C248.71 813.048 243.959 816.49 238.576 818.574" fill="#00A13A" style="fill:#00A13A;fill:color(display-p3 0.0000 0.6314 0.2275);fill-opacity:1;"/>
<path d="M233.233 812.016C233.233 812.016 179.66 775.984 174.136 771.003C168.611 766.022 153.005 754.384 159.017 749.664C165.028 744.944 170.809 747.128 175.595 748.669C180.381 750.21 166.991 737.324 172.078 732.289C177.166 727.253 179.604 723.045 189.044 733.096C198.484 743.147 219.027 778.571 224.26 786.185C228.376 794.362 231.393 803.048 233.233 812.016V812.016Z" fill="#00A13A" style="fill:#00A13A;fill:color(display-p3 0.0000 0.6314 0.2275);fill-opacity:1;"/>
<path d="M241.649 864.015C241.649 864.015 275.343 816.242 282.705 809.432C290.068 802.622 309.289 781.609 318.089 785.886C326.889 790.163 325.794 801.023 324.152 805.745C315.02 817.841 305.165 829.374 294.641 840.281L331.019 817.378C331.019 817.378 345.891 821.206 345.34 831.006C344.559 836.642 342.553 842.039 339.465 846.819C336.376 851.598 332.279 855.643 327.461 858.67C318.109 864.194 260.596 874.849 253.781 876.229C247.574 876.553 241.373 875.486 235.633 873.105L241.649 864.015Z" fill="#00A13A" style="fill:#00A13A;fill:color(display-p3 0.0000 0.6314 0.2275);fill-opacity:1;"/>
<path d="M234.131 862.114C234.131 862.114 193.259 811.012 187.091 807.026C180.924 803.04 166.251 787.774 161.621 794.939C156.99 802.104 161.672 819.519 164.048 822.606C166.425 825.694 145.801 819.419 141.813 825.588C137.826 831.758 130.915 840.27 145.144 845.093C159.374 849.916 215.331 868.727 223.493 869.628C227.664 869.894 231.732 871.034 235.434 872.972L234.131 862.114Z" fill="#00A13A" style="fill:#00A13A;fill:color(display-p3 0.0000 0.6314 0.2275);fill-opacity:1;"/>
<path d="M244.169 967.916C244.169 967.916 162.304 871.137 152.425 874.204C142.545 877.271 116.495 891.613 130.663 903.731C143.412 915.721 155.42 928.475 166.621 941.924C166.621 941.924 129.63 926.059 119.806 935.369C109.982 944.679 109.014 966.907 122.675 968.682C136.335 970.457 207.262 971.997 207.262 971.997L244.169 967.916Z" fill="#00A13A" style="fill:#00A13A;fill:color(display-p3 0.0000 0.6314 0.2275);fill-opacity:1;"/>
<path d="M242.969 966.719C242.969 966.719 273.698 920.697 279.836 910.98C285.975 901.263 306.59 885.949 315.296 888.189C324.002 890.43 343.198 895.641 337.06 905.358C326.873 917.807 315.817 929.519 303.974 940.405C303.974 940.405 343.016 922.327 350.33 926.066C352.955 927.447 355.184 929.476 356.804 931.961C358.425 934.445 359.383 937.303 359.59 940.262C359.796 943.222 359.243 946.186 357.983 948.872C356.723 951.558 354.798 953.878 352.39 955.612C339.068 966.188 261.156 965.635 242.969 966.719Z" fill="#00A13A" style="fill:#00A13A;fill:color(display-p3 0.0000 0.6314 0.2275);fill-opacity:1;"/>
<path d="M719.216 274.632C741.202 281.145 781.42 287.165 791.251 298.433C801.082 309.7 812.624 331.231 790.191 322.179C767.758 313.127 747.742 303.462 747.742 303.462C747.742 303.462 792.1 347.928 773.844 345.62C764.191 344.632 755.032 340.865 747.476 334.776C739.92 328.687 734.291 320.536 731.27 311.312C726.053 299.513 722.015 287.227 719.216 274.632V274.632Z" fill="#00A13A" style="fill:#00A13A;fill:color(display-p3 0.0000 0.6314 0.2275);fill-opacity:1;"/>
<path d="M730.256 282.695C724.66 277.976 689.038 239.08 678.12 226.415C667.202 213.749 618.243 159.06 606.372 151.611C594.502 144.161 565.546 121.39 561.574 120.592C557.601 119.794 540.397 114.965 540.397 114.965L557.811 126.302L608.572 164.126L645.016 201.848L678.171 237.344L708.1 265.647L730.256 282.695Z" fill="#00A13A" style="fill:#00A13A;fill:color(display-p3 0.0000 0.6314 0.2275);fill-opacity:1;"/>
<path d="M684.645 241.723L685.928 244.77C690.582 255.825 706.326 293.82 707.441 300.169C708.557 306.517 709.552 318.028 703.956 313.309C698.354 308.445 694.054 302.26 691.447 295.314C688.152 287.198 695.05 315.809 690.745 318.436C686.44 321.062 677.437 324.608 672.425 307.258C667.413 289.908 674.82 254.949 675.007 245.38C674.731 240.903 675.619 236.431 677.585 232.399" fill="#00A13A" style="fill:#00A13A;fill:color(display-p3 0.0000 0.6314 0.2275);fill-opacity:1;"/>
<path d="M684.1 233.312C684.1 233.312 733.669 225.535 739.449 225.454C745.23 225.372 760.273 223.757 759.342 229.624C758.41 235.49 753.962 237.3 750.42 238.951C746.879 240.602 761.318 240.869 761.08 246.427C760.842 251.985 761.677 255.671 750.986 254.933C740.295 254.194 709.869 244.863 702.864 243.29C696.197 240.805 689.888 237.451 684.1 233.312V233.312Z" fill="#00A13A" style="fill:#00A13A;fill:color(display-p3 0.0000 0.6314 0.2275);fill-opacity:1;"/>
<path d="M651.821 208.133C651.821 208.133 657.867 253.162 657.27 260.933C656.673 268.704 656.824 290.835 649.55 293.048C642.275 295.262 637.16 288.495 635.6 284.936C634.412 273.217 633.933 261.437 634.166 249.661L625.54 281.936C625.54 281.936 615.042 287.614 610.177 281.738C607.644 278.113 605.935 273.978 605.169 269.623C604.404 265.267 604.6 260.797 605.746 256.526C608.156 248.436 635.299 211.972 638.453 207.584C641.819 204.119 645.916 201.45 650.445 199.773L651.821 208.133Z" fill="#00A13A" style="fill:#00A13A;fill:color(display-p3 0.0000 0.6314 0.2275);fill-opacity:1;"/>
<path d="M657.11 205.239C657.11 205.239 707.405 212.76 713.026 211.772C718.647 210.785 735.076 211.73 733.928 205.2C732.78 198.671 720.91 191.221 717.924 190.717C714.938 190.214 730.007 182.891 729.018 177.268C728.03 171.645 727.47 163.142 716.813 167.914C706.156 172.685 664.328 191.536 659.202 195.336C656.684 197.388 653.764 198.889 650.63 199.741L657.11 205.239Z" fill="#00A13A" style="fill:#00A13A;fill:color(display-p3 0.0000 0.6314 0.2275);fill-opacity:1;"/>
<path d="M595.476 150.254C595.476 150.254 693.268 162.141 697.277 155.173C701.286 148.204 708.552 126.266 694.074 126.847C680.473 126.752 666.891 125.83 653.401 124.086C653.401 124.086 682.864 113.578 683.542 103.081C684.221 92.5846 673.026 79.4067 664.303 85.6143C655.581 91.822 614.35 128.425 614.35 128.425L595.476 150.254Z" fill="#00A13A" style="fill:#00A13A;fill:color(display-p3 0.0000 0.6314 0.2275);fill-opacity:1;"/>
<path d="M596.797 150.301C596.797 150.301 603.606 192.764 605.243 201.545C606.88 210.326 603.226 229.948 597.081 233.271C590.936 236.595 577.243 243.77 575.607 234.989C574.833 222.512 574.944 209.995 575.939 197.534C575.939 197.534 563.245 228.467 557.101 230.201C554.875 230.801 552.533 230.823 550.297 230.263C548.06 229.704 546.004 228.582 544.323 227.005C542.641 225.427 541.39 223.446 540.688 221.25C539.987 219.053 539.858 216.714 540.314 214.454C542.316 201.387 587.006 160.529 596.797 150.301Z" fill="#00A13A" style="fill:#00A13A;fill:color(display-p3 0.0000 0.6314 0.2275);fill-opacity:1;"/>
</g>
<defs>
<clipPath id="clip0_2690_22778">
<rect width="917" height="1236" fill="white" style="fill:white;fill-opacity:1;"/>
</clipPath>
</defs>
</svg>
