<svg width="918" height="1236" viewBox="0 0 918 1236" fill="none" xmlns="http://www.w3.org/2000/svg">
<g clip-path="url(#clip0_1459_113)">
<rect width="917" height="1236" transform="translate(0.5)" fill="#F6F4EE" style="fill:#F6F4EE;fill:color(display-p3 0.9647 0.9569 0.9333);fill-opacity:1;"/>
<path d="M79.8711 87.3242L73.543 105.957H85.8477L79.8711 87.3242ZM83.5273 79.9766L96.3594 117.699C97.2031 120.207 98.0938 122.27 99.0312 123.887C99.9688 125.504 101.047 126.875 102.266 128H89.3633C90.1133 127.062 90.6641 126.254 91.0156 125.574C91.3672 124.895 91.543 124.309 91.543 123.816C91.543 123.535 91.4727 123.125 91.332 122.586C91.1914 122.047 90.9922 121.402 90.7344 120.652L86.8672 108.98H72.3828L68.1289 121.391C67.9414 121.906 67.8008 122.375 67.707 122.797C67.6133 123.219 67.5664 123.629 67.5664 124.027C67.5664 124.613 67.7305 125.223 68.0586 125.855C68.3867 126.488 68.9375 127.203 69.7109 128H58.7773C59.8789 126.922 60.8984 125.574 61.8359 123.957C62.7734 122.34 63.7695 120.184 64.8242 117.488L78.6406 81.6992L83.5273 79.9766ZM113.234 93.9336V97.9062C116.398 96.3828 118.73 95.3867 120.23 94.918C121.754 94.4492 123.172 94.2148 124.484 94.2148C125.844 94.2148 127.109 94.543 128.281 95.1992C129.453 95.832 130.414 96.7109 131.164 97.8359C134.375 96.3828 136.801 95.4219 138.441 94.9531C140.082 94.4609 141.594 94.2148 142.977 94.2148C146.211 94.2148 148.543 95.1641 149.973 97.0625C151.402 98.9609 152.117 102.078 152.117 106.414V118.051C152.117 120.254 152.316 122.082 152.715 123.535C153.137 124.988 153.805 126.477 154.719 128H143.469C144.383 126.453 145.039 124.941 145.438 123.465C145.859 121.965 146.07 120.02 146.07 117.629V108.418C146.07 104.621 145.344 102.02 143.891 100.613C142.461 99.1836 139.801 98.4688 135.91 98.4688C135.301 98.4688 134.621 98.4922 133.871 98.5391C133.145 98.5625 132.371 98.6211 131.551 98.7148C131.949 99.3242 132.23 100.203 132.395 101.352C132.582 102.5 132.676 104.188 132.676 106.414V117.629C132.676 120.02 132.887 121.965 133.309 123.465C133.73 124.941 134.41 126.453 135.348 128H124.027C124.965 126.406 125.645 124.859 126.066 123.359C126.488 121.836 126.699 119.926 126.699 117.629V108.418C126.699 104.738 125.984 102.16 124.555 100.684C123.148 99.207 120.723 98.4688 117.277 98.4688C116.715 98.4688 116.105 98.4922 115.449 98.5391C114.793 98.5625 114.055 98.6211 113.234 98.7148V117.629C113.234 120.02 113.445 121.965 113.867 123.465C114.289 124.941 114.969 126.453 115.906 128H104.586C105.523 126.406 106.203 124.859 106.625 123.359C107.047 121.836 107.258 119.926 107.258 117.629V103.883C107.258 102.594 107.023 101.305 106.555 100.016C106.086 98.7031 105.359 97.332 104.375 95.9023L113.234 93.9336ZM189.207 109.859H167.129V110.07C167.129 115.062 168.324 118.742 170.715 121.109C173.105 123.453 176.855 124.625 181.965 124.625C183.066 124.625 184.25 124.555 185.516 124.414C186.781 124.25 188.117 124.027 189.523 123.746C187.602 125.457 185.504 126.734 183.23 127.578C180.98 128.398 178.508 128.809 175.812 128.809C171.219 128.809 167.551 127.297 164.809 124.273C162.066 121.227 160.695 117.16 160.695 112.074C160.695 109.59 161.047 107.305 161.75 105.219C162.477 103.109 163.543 101.223 164.949 99.5586C166.379 97.8945 168.066 96.5938 170.012 95.6562C171.98 94.6953 173.996 94.2148 176.059 94.2148C180.207 94.2148 183.395 95.5508 185.621 98.2227C187.871 100.895 189.066 104.773 189.207 109.859ZM181.93 106.098C181.906 103.027 181.344 100.73 180.242 99.207C179.164 97.6602 177.547 96.8867 175.391 96.8867C172.93 96.8867 170.984 97.8477 169.555 99.7695C168.125 101.691 167.34 104.41 167.199 107.926L181.93 106.098ZM204.289 93.9336V98.7852C206.328 97.1445 208.062 95.9727 209.492 95.2695C210.922 94.5664 212.281 94.2148 213.57 94.2148C213.922 94.2148 214.332 94.2734 214.801 94.3906C215.293 94.4844 215.844 94.625 216.453 94.8125V102.02C215.281 101.105 213.98 100.414 212.551 99.9453C211.145 99.4531 209.668 99.207 208.121 99.207C207.418 99.207 206.75 99.2305 206.117 99.2773C205.484 99.3242 204.875 99.3945 204.289 99.4883V117.629C204.289 120.02 204.5 121.965 204.922 123.465C205.344 124.941 206.023 126.453 206.961 128H195.641C196.578 126.406 197.258 124.859 197.68 123.359C198.102 121.836 198.312 119.926 198.312 117.629V103.883C198.312 102.594 198.078 101.305 197.609 100.016C197.141 98.7031 196.414 97.332 195.43 95.9023L204.289 93.9336ZM229.812 93.9336V117.629C229.812 120.02 230.023 121.965 230.445 123.465C230.891 124.941 231.57 126.453 232.484 128H221.164C222.102 126.406 222.781 124.859 223.203 123.359C223.625 121.836 223.836 119.926 223.836 117.629V103.883C223.836 102.594 223.602 101.305 223.133 100.016C222.664 98.7031 221.938 97.332 220.953 95.9023L229.812 93.9336ZM226.648 77.9023C227.773 77.9023 228.688 78.2656 229.391 78.9922C230.117 79.6953 230.48 80.6211 230.48 81.7695C230.48 83.0352 230.152 84.0078 229.496 84.6875C228.84 85.3438 227.891 85.6719 226.648 85.6719C225.477 85.6719 224.562 85.332 223.906 84.6523C223.25 83.9727 222.922 83.0117 222.922 81.7695C222.922 80.6211 223.262 79.6953 223.941 78.9922C224.645 78.2656 225.547 77.9023 226.648 77.9023ZM246.16 127.578C245.34 128.562 244.707 129.547 244.262 130.531C243.84 131.516 243.629 132.43 243.629 133.273C243.629 135.172 244.473 136.695 246.16 137.844C247.848 139.016 250.098 139.602 252.91 139.602C256.051 139.602 258.711 138.863 260.891 137.387C263.07 135.91 264.16 134.152 264.16 132.113C264.16 130.613 263.68 129.547 262.719 128.914C261.781 128.305 260.07 128 257.586 128H250.836C249.688 128 248.773 127.965 248.094 127.895C247.414 127.824 246.77 127.719 246.16 127.578ZM252.207 96.6758C250.379 96.6758 248.938 97.3438 247.883 98.6797C246.828 99.9922 246.301 101.797 246.301 104.094C246.301 106.766 246.934 108.98 248.199 110.738C249.465 112.496 251.035 113.375 252.91 113.375C254.621 113.375 256.004 112.719 257.059 111.406C258.137 110.07 258.676 108.324 258.676 106.168C258.676 103.355 258.066 101.07 256.848 99.3125C255.652 97.5547 254.105 96.6758 252.207 96.6758ZM270.559 94.2148V99.418L260.926 97.168C262.168 98.2461 263.105 99.4531 263.738 100.789C264.395 102.125 264.723 103.543 264.723 105.043C264.723 108.207 263.621 110.785 261.418 112.777C259.238 114.77 256.402 115.766 252.91 115.766C252.465 115.766 251.973 115.754 251.434 115.73C250.895 115.684 250.285 115.625 249.605 115.555C249.324 116.094 249.113 116.633 248.973 117.172C248.832 117.688 248.762 118.156 248.762 118.578C248.762 119.82 249.148 120.711 249.922 121.25C250.695 121.766 252.055 122.023 254 122.023H260.258C263.328 122.023 265.508 122.574 266.797 123.676C268.109 124.754 268.766 126.535 268.766 129.02C268.766 130.895 268.367 132.652 267.57 134.293C266.773 135.957 265.637 137.363 264.16 138.512C262.402 139.918 260.434 140.984 258.254 141.711C256.074 142.461 253.789 142.836 251.398 142.836C247.531 142.836 244.285 142.074 241.66 140.551C239.035 139.027 237.723 137.223 237.723 135.137C237.723 133.988 238.203 132.863 239.164 131.762C240.148 130.684 242.211 129.113 245.352 127.051C244.414 126.699 243.676 126.16 243.137 125.434C242.598 124.707 242.328 123.887 242.328 122.973C242.328 121.824 242.844 120.664 243.875 119.492C244.906 118.32 246.605 116.984 248.973 115.484C246.16 114.969 243.98 113.832 242.434 112.074C240.887 110.316 240.113 108.09 240.113 105.395C240.113 102.137 241.273 99.4648 243.594 97.3789C245.914 95.2695 248.902 94.2148 252.559 94.2148C253.941 94.2148 255.23 94.4141 256.426 94.8125C257.645 95.1875 258.828 95.7617 259.977 96.5352L270.559 94.2148ZM291.371 96.8867C288.605 96.8867 286.449 98.0938 284.902 100.508C283.355 102.922 282.582 106.297 282.582 110.633C282.582 115.531 283.414 119.387 285.078 122.199C286.742 125.012 289.004 126.418 291.863 126.418C294.629 126.418 296.785 125.211 298.332 122.797C299.879 120.383 300.652 117.008 300.652 112.672C300.652 107.797 299.809 103.953 298.121 101.141C296.457 98.3047 294.207 96.8867 291.371 96.8867ZM275.586 111.652C275.586 106.613 277.121 102.453 280.191 99.1719C283.285 95.8672 287.176 94.2148 291.863 94.2148C296.434 94.2148 300.207 95.8672 303.184 99.1719C306.16 102.453 307.648 106.637 307.648 111.723C307.648 116.762 306.113 120.922 303.043 124.203C299.973 127.461 296.082 129.09 291.371 129.09C286.801 129.09 283.027 127.461 280.051 124.203C277.074 120.922 275.586 116.738 275.586 111.652ZM342.559 105.324V125.328H347.094C350.539 125.328 353.164 124.496 354.969 122.832C356.773 121.145 357.676 118.695 357.676 115.484C357.676 112.133 356.75 109.602 354.898 107.891C353.047 106.18 350.305 105.324 346.672 105.324H342.559ZM342.559 83.4922V102.652H346.426C349.098 102.652 351.266 101.738 352.93 99.9102C354.594 98.0586 355.426 95.6562 355.426 92.7031C355.426 89.7734 354.664 87.5117 353.141 85.918C351.641 84.3008 349.508 83.4922 346.742 83.4922H342.559ZM333.488 80.8555H348.008C352.812 80.8555 356.41 81.7695 358.801 83.5977C361.215 85.4023 362.422 88.1328 362.422 91.7891C362.422 95.0469 361.402 97.7188 359.363 99.8047C357.348 101.867 354.477 103.156 350.75 103.672C355.109 103.836 358.555 105.008 361.086 107.188C363.617 109.344 364.883 112.18 364.883 115.695C364.883 119.633 363.465 122.668 360.629 124.801C357.793 126.934 353.762 128 348.535 128H333.488C334.402 126.406 335.07 124.859 335.492 123.359C335.938 121.836 336.16 119.926 336.16 117.629V91.1914C336.16 88.918 335.938 87.0312 335.492 85.5312C335.07 84.0078 334.402 82.4492 333.488 80.8555ZM368.574 80.8555H406.016V89.9961L399.441 85.0039C399.066 84.7227 398.574 84.4883 397.965 84.3008C397.379 84.1133 396.793 84.0195 396.207 84.0195H390.441V117.629C390.441 120.02 390.652 121.965 391.074 123.465C391.496 124.941 392.176 126.453 393.113 128H381.512C382.426 126.453 383.082 124.941 383.48 123.465C383.902 121.965 384.113 120.02 384.113 117.629V84.0195H378.348C377.855 84.0195 377.328 84.1133 376.766 84.3008C376.203 84.4648 375.723 84.6758 375.324 84.9336L368.574 89.9961V80.8555Z" fill="#222222" style="fill:#222222;fill:color(display-p3 0.1333 0.1333 0.1333);fill-opacity:1;"/>
<path d="M60.8809 681.878H84.1768C82.9072 683.317 81.9551 684.671 81.3203 685.94C80.6855 687.21 80.3682 688.395 80.3682 689.495C80.3682 689.961 80.4316 690.532 80.5586 691.209C80.6855 691.844 80.9395 692.944 81.3203 694.51L96.4912 750.115L116.423 681.878H124.611L144.987 750.115L161.237 692.225C161.407 691.548 161.534 690.934 161.618 690.384C161.703 689.834 161.745 689.368 161.745 688.987C161.745 687.972 161.47 686.893 160.92 685.75C160.412 684.607 159.566 683.317 158.381 681.878H177.106C174.906 684.163 173.086 686.512 171.647 688.924C170.251 691.294 169.087 693.96 168.156 696.922L145.749 767H138.259L117.946 699.271L98.332 767H90.0166L69.7041 696.033C68.8577 693.071 67.7363 690.49 66.3398 688.289C64.9434 686.089 63.1237 683.951 60.8809 681.878ZM223.952 734.246H184.089V734.627C184.089 743.641 186.247 750.285 190.563 754.559C194.88 758.79 201.651 760.906 210.876 760.906C212.865 760.906 215.002 760.779 217.287 760.525C219.572 760.229 221.984 759.827 224.523 759.319C221.053 762.409 217.266 764.715 213.161 766.238C209.099 767.719 204.634 768.46 199.768 768.46C191.473 768.46 184.851 765.73 179.899 760.271C174.948 754.77 172.473 747.428 172.473 738.245C172.473 733.759 173.107 729.633 174.377 725.867C175.689 722.059 177.614 718.652 180.153 715.647C182.735 712.643 185.782 710.294 189.294 708.602C192.849 706.867 196.488 705.999 200.212 705.999C207.702 705.999 213.457 708.411 217.478 713.235C221.54 718.06 223.698 725.063 223.952 734.246ZM210.812 727.454C210.77 721.91 209.755 717.763 207.766 715.013C205.819 712.22 202.899 710.823 199.006 710.823C194.562 710.823 191.05 712.558 188.469 716.028C185.887 719.498 184.47 724.407 184.216 730.755L210.812 727.454ZM283.938 760.081C285.926 760.8 287.683 761.329 289.206 761.668C290.772 762.007 292.168 762.176 293.396 762.176C299.743 762.176 304.779 759.996 308.503 755.638C312.227 751.237 314.089 745.27 314.089 737.737C314.089 730.035 312.142 724.153 308.249 720.091C304.356 715.986 298.728 713.934 291.364 713.934C290.052 713.934 287.852 714.082 284.763 714.378C284.424 714.42 284.149 714.463 283.938 714.505V760.081ZM283.938 674.959V713.426C288.508 710.464 292.062 708.496 294.602 707.522C297.183 706.507 299.743 705.999 302.282 705.999C308.926 705.999 314.406 708.686 318.723 714.061C323.081 719.393 325.261 726.248 325.261 734.627C325.261 744.106 322.574 752.02 317.199 758.367C311.867 764.715 305.287 767.889 297.458 767.889C294.75 767.889 292.232 767.55 289.904 766.873C287.619 766.154 285.546 765.117 283.684 763.763L273.02 768.968V696.668C273.02 693.579 272.575 690.638 271.687 687.845C270.84 685.009 269.38 681.878 267.307 678.45L283.938 674.959ZM388.483 734.246H348.62V734.627C348.62 743.641 350.778 750.285 355.095 754.559C359.411 758.79 366.182 760.906 375.407 760.906C377.396 760.906 379.533 760.779 381.818 760.525C384.104 760.229 386.516 759.827 389.055 759.319C385.585 762.409 381.797 764.715 377.692 766.238C373.63 767.719 369.165 768.46 364.299 768.46C356.005 768.46 349.382 765.73 344.431 760.271C339.479 754.77 337.004 747.428 337.004 738.245C337.004 733.759 337.639 729.633 338.908 725.867C340.22 722.059 342.146 718.652 344.685 715.647C347.266 712.643 350.313 710.294 353.825 708.602C357.38 706.867 361.019 705.999 364.743 705.999C372.233 705.999 377.989 708.411 382.009 713.235C386.071 718.06 388.229 725.063 388.483 734.246ZM375.344 727.454C375.301 721.91 374.286 717.763 372.297 715.013C370.35 712.22 367.43 710.823 363.537 710.823C359.094 710.823 355.581 712.558 353 716.028C350.419 719.498 349.001 724.407 348.747 730.755L375.344 727.454ZM414.953 674.959V748.274C414.953 752.591 415.334 756.103 416.096 758.812C416.857 761.478 418.085 764.207 419.777 767H399.338C401.031 764.122 402.258 761.329 403.02 758.621C403.781 755.87 404.162 752.422 404.162 748.274V692.923C404.162 690.595 403.739 688.247 402.893 685.877C402.046 683.507 400.734 681.032 398.957 678.45L414.953 674.959ZM447.834 705.491V748.274C447.834 752.591 448.215 756.103 448.977 758.812C449.781 761.478 451.008 764.207 452.658 767H432.219C433.911 764.122 435.139 761.329 435.9 758.621C436.662 755.87 437.043 752.422 437.043 748.274V723.455C437.043 721.128 436.62 718.8 435.773 716.473C434.927 714.103 433.615 711.627 431.838 709.046L447.834 705.491ZM442.121 676.546C444.152 676.546 445.803 677.202 447.072 678.514C448.384 679.783 449.04 681.455 449.04 683.528C449.04 685.813 448.448 687.57 447.263 688.797C446.078 689.982 444.364 690.574 442.121 690.574C440.005 690.574 438.355 689.961 437.17 688.733C435.985 687.506 435.393 685.771 435.393 683.528C435.393 681.455 436.006 679.783 437.233 678.514C438.503 677.202 440.132 676.546 442.121 676.546ZM516.706 734.246H476.843V734.627C476.843 743.641 479.001 750.285 483.317 754.559C487.634 758.79 494.405 760.906 503.63 760.906C505.619 760.906 507.756 760.779 510.041 760.525C512.326 760.229 514.738 759.827 517.277 759.319C513.807 762.409 510.02 764.715 505.915 766.238C501.853 767.719 497.388 768.46 492.521 768.46C484.227 768.46 477.604 765.73 472.653 760.271C467.702 754.77 465.227 747.428 465.227 738.245C465.227 733.759 465.861 729.633 467.131 725.867C468.443 722.059 470.368 718.652 472.907 715.647C475.489 712.643 478.535 710.294 482.048 708.602C485.603 706.867 489.242 705.999 492.966 705.999C500.456 705.999 506.211 708.411 510.231 713.235C514.294 718.06 516.452 725.063 516.706 734.246ZM503.566 727.454C503.524 721.91 502.508 717.763 500.52 715.013C498.573 712.22 495.653 710.823 491.76 710.823C487.316 710.823 483.804 712.558 481.223 716.028C478.641 719.498 477.224 724.407 476.97 730.755L503.566 727.454ZM519.372 706.824H542.604L542.224 707.459C540.15 710.506 539.113 712.706 539.113 714.061C539.113 714.653 539.198 715.394 539.367 716.282C539.579 717.129 539.854 718.081 540.192 719.139L552.888 757.225L564.25 719.139C564.589 717.954 564.864 716.832 565.075 715.774C565.287 714.716 565.393 713.891 565.393 713.299C565.393 712.537 565.139 711.648 564.631 710.633C564.123 709.575 563.298 708.305 562.155 706.824H580.373C578.469 708.559 576.649 710.823 574.914 713.616C573.179 716.409 571.656 719.562 570.344 723.074L553.459 767.635H545.905L530.417 725.232L530.29 724.852C527.328 716.896 523.688 710.887 519.372 706.824ZM636.296 734.246H596.433V734.627C596.433 743.641 598.591 750.285 602.907 754.559C607.224 758.79 613.994 760.906 623.22 760.906C625.209 760.906 627.346 760.779 629.631 760.525C631.916 760.229 634.328 759.827 636.867 759.319C633.397 762.409 629.61 764.715 625.505 766.238C621.442 767.719 616.978 768.46 612.111 768.46C603.817 768.46 597.194 765.73 592.243 760.271C587.292 754.77 584.816 747.428 584.816 738.245C584.816 733.759 585.451 729.633 586.721 725.867C588.033 722.059 589.958 718.652 592.497 715.647C595.078 712.643 598.125 710.294 601.638 708.602C605.192 706.867 608.832 705.999 612.556 705.999C620.046 705.999 625.801 708.411 629.821 713.235C633.884 718.06 636.042 725.063 636.296 734.246ZM623.156 727.454C623.114 721.91 622.098 717.763 620.109 715.013C618.163 712.22 615.243 710.823 611.35 710.823C606.906 710.823 603.394 712.558 600.812 716.028C598.231 719.498 596.813 724.407 596.56 730.755L623.156 727.454ZM697.043 705.491V748.274C697.043 752.591 697.424 756.103 698.186 758.812C698.99 761.478 700.217 764.207 701.867 767H681.428C683.12 764.122 684.348 761.329 685.109 758.621C685.871 755.87 686.252 752.422 686.252 748.274V723.455C686.252 721.128 685.829 718.8 684.982 716.473C684.136 714.103 682.824 711.627 681.047 709.046L697.043 705.491ZM691.33 676.546C693.361 676.546 695.012 677.202 696.281 678.514C697.593 679.783 698.249 681.455 698.249 683.528C698.249 685.813 697.657 687.57 696.472 688.797C695.287 689.982 693.573 690.574 691.33 690.574C689.214 690.574 687.564 689.961 686.379 688.733C685.194 687.506 684.602 685.771 684.602 683.528C684.602 681.455 685.215 679.783 686.442 678.514C687.712 677.202 689.341 676.546 691.33 676.546ZM729.67 705.491V712.664C736.018 709.956 740.694 708.178 743.698 707.332C746.703 706.443 749.348 705.999 751.633 705.999C756.626 705.999 760.35 707.819 762.805 711.458C765.259 715.097 766.486 720.62 766.486 728.025V748.274C766.486 752.591 766.867 756.103 767.629 758.812C768.391 761.478 769.597 764.207 771.247 767H750.871C752.521 764.122 753.728 761.329 754.489 758.621C755.293 755.87 755.695 752.422 755.695 748.274V731.644C755.695 724.83 754.383 720.133 751.76 717.552C749.136 714.97 744.375 713.68 737.478 713.68C736.208 713.68 734.917 713.722 733.605 713.807C732.294 713.849 730.982 713.955 729.67 714.124V749.036C729.67 753.014 730.03 756.315 730.749 758.938C731.511 761.562 732.717 764.249 734.367 767H714.055C715.705 764.207 716.89 761.478 717.609 758.812C718.371 756.103 718.752 752.591 718.752 748.274V723.455C718.752 720.916 718.35 718.525 717.546 716.282C716.784 714.039 715.493 711.627 713.674 709.046L729.67 705.491ZM830.979 689.622V706.824H850.847V712.537H830.979V747.894C830.979 753.395 831.91 756.95 833.771 758.558C835.676 760.123 839.379 760.906 844.88 760.906C846.149 760.906 847.546 760.843 849.069 760.716C850.635 760.547 852.243 760.335 853.894 760.081C850.635 762.747 847.271 764.821 843.801 766.302C840.331 767.741 837.009 768.46 833.835 768.46C828.757 768.46 825.181 767.127 823.107 764.461C821.076 761.795 820.061 756.801 820.061 749.48V712.537H809.65C814.263 708.644 818.347 704.793 821.901 700.984C825.498 697.133 828.524 693.346 830.979 689.622ZM875.158 705.491V748.274C875.158 752.591 875.539 756.103 876.301 758.812C877.105 761.478 878.332 764.207 879.982 767H859.543C861.236 764.122 862.463 761.329 863.225 758.621C863.986 755.87 864.367 752.422 864.367 748.274V723.455C864.367 721.128 863.944 718.8 863.098 716.473C862.251 714.103 860.939 711.627 859.162 709.046L875.158 705.491ZM869.445 676.546C871.477 676.546 873.127 677.202 874.396 678.514C875.708 679.783 876.364 681.455 876.364 683.528C876.364 685.813 875.772 687.57 874.587 688.797C873.402 689.982 871.688 690.574 869.445 690.574C867.329 690.574 865.679 689.961 864.494 688.733C863.309 687.506 862.717 685.771 862.717 683.528C862.717 681.455 863.33 679.783 864.558 678.514C865.827 677.202 867.456 676.546 869.445 676.546ZM908.293 705.491V712.664C914.006 709.913 918.216 708.115 920.925 707.269C923.675 706.422 926.236 705.999 928.605 705.999C931.06 705.999 933.345 706.591 935.461 707.776C937.577 708.919 939.312 710.506 940.666 712.537C946.464 709.913 950.843 708.178 953.806 707.332C956.768 706.443 959.497 705.999 961.994 705.999C967.834 705.999 972.045 707.713 974.626 711.141C977.207 714.568 978.498 720.197 978.498 728.025V749.036C978.498 753.014 978.858 756.315 979.577 758.938C980.339 761.562 981.545 764.249 983.195 767H962.883C964.533 764.207 965.718 761.478 966.438 758.812C967.199 756.103 967.58 752.591 967.58 748.274V731.644C967.58 724.788 966.268 720.091 963.645 717.552C961.063 714.97 956.26 713.68 949.235 713.68C948.135 713.68 946.908 713.722 945.554 713.807C944.242 713.849 942.845 713.955 941.364 714.124C942.084 715.224 942.591 716.811 942.888 718.885C943.226 720.958 943.396 724.005 943.396 728.025V748.274C943.396 752.591 943.776 756.103 944.538 758.812C945.3 761.478 946.527 764.207 948.22 767H927.78C929.473 764.122 930.7 761.329 931.462 758.621C932.224 755.87 932.604 752.422 932.604 748.274V731.644C932.604 725 931.314 720.345 928.732 717.679C926.193 715.013 921.813 713.68 915.593 713.68C914.577 713.68 913.477 713.722 912.292 713.807C911.107 713.849 909.774 713.955 908.293 714.124V748.274C908.293 752.591 908.674 756.103 909.436 758.812C910.197 761.478 911.424 764.207 913.117 767H892.678C894.37 764.122 895.598 761.329 896.359 758.621C897.121 755.87 897.502 752.422 897.502 748.274V723.455C897.502 721.128 897.079 718.8 896.232 716.473C895.386 714.103 894.074 711.627 892.297 709.046L908.293 705.491ZM1045.47 734.246H1005.6V734.627C1005.6 743.641 1007.76 750.285 1012.08 754.559C1016.39 758.79 1023.16 760.906 1032.39 760.906C1034.38 760.906 1036.52 760.779 1038.8 760.525C1041.09 760.229 1043.5 759.827 1046.04 759.319C1042.57 762.409 1038.78 764.715 1034.67 766.238C1030.61 767.719 1026.15 768.46 1021.28 768.46C1012.99 768.46 1006.36 765.73 1001.41 760.271C996.462 754.77 993.986 747.428 993.986 738.245C993.986 733.759 994.621 729.633 995.891 725.867C997.202 722.059 999.128 718.652 1001.67 715.647C1004.25 712.643 1007.3 710.294 1010.81 708.602C1014.36 706.867 1018 705.999 1021.73 705.999C1029.22 705.999 1034.97 708.411 1038.99 713.235C1043.05 718.06 1045.21 725.063 1045.47 734.246ZM1032.33 727.454C1032.28 721.91 1031.27 717.763 1029.28 715.013C1027.33 712.22 1024.41 710.823 1020.52 710.823C1016.08 710.823 1012.56 712.558 1009.98 716.028C1007.4 719.498 1005.98 724.407 1005.73 730.755L1032.33 727.454ZM1071.94 674.959V748.274C1071.94 752.591 1072.32 756.103 1073.08 758.812C1073.84 761.478 1075.07 764.207 1076.76 767H1056.32C1058.01 764.122 1059.24 761.329 1060 758.621C1060.76 755.87 1061.14 752.422 1061.14 748.274V692.923C1061.14 690.595 1060.72 688.247 1059.88 685.877C1059.03 683.507 1057.72 681.032 1055.94 678.45L1071.94 674.959ZM1140.3 734.246H1100.44V734.627C1100.44 743.641 1102.59 750.285 1106.91 754.559C1111.23 758.79 1118 760.906 1127.22 760.906C1129.21 760.906 1131.35 760.779 1133.63 760.525C1135.92 760.229 1138.33 759.827 1140.87 759.319C1137.4 762.409 1133.61 764.715 1129.51 766.238C1125.45 767.719 1120.98 768.46 1116.12 768.46C1107.82 768.46 1101.2 765.73 1096.25 760.271C1091.3 754.77 1088.82 747.428 1088.82 738.245C1088.82 733.759 1089.46 729.633 1090.72 725.867C1092.04 722.059 1093.96 718.652 1096.5 715.647C1099.08 712.643 1102.13 710.294 1105.64 708.602C1109.2 706.867 1112.84 705.999 1116.56 705.999C1124.05 705.999 1129.81 708.411 1133.83 713.235C1137.89 718.06 1140.05 725.063 1140.3 734.246ZM1127.16 727.454C1127.12 721.91 1126.1 717.763 1124.11 715.013C1122.17 712.22 1119.25 710.823 1115.35 710.823C1110.91 710.823 1107.4 712.558 1104.82 716.028C1102.24 719.498 1100.82 724.407 1100.56 730.755L1127.16 727.454ZM1189.62 708.094V721.995C1183.32 717.213 1179.02 714.166 1176.74 712.854C1174.45 711.5 1172.65 710.823 1171.34 710.823C1169.01 710.823 1167 711.67 1165.31 713.362C1163.66 715.055 1162.83 717.107 1162.83 719.52C1162.83 721.466 1163.51 723.243 1164.87 724.852C1166.26 726.417 1168.46 727.983 1171.47 729.549L1180.16 734.119C1184.56 736.447 1187.63 738.774 1189.37 741.102C1191.1 743.387 1191.97 746.222 1191.97 749.607C1191.97 755.617 1190 760.293 1186.07 763.636C1182.13 766.937 1176.57 768.587 1169.37 768.587C1167 768.587 1164.36 768.333 1161.44 767.825C1158.56 767.36 1155.47 766.661 1152.17 765.73V751.131C1158.73 756.505 1163.24 759.954 1165.69 761.478C1168.14 763.001 1170.15 763.763 1171.72 763.763C1174.34 763.763 1176.59 762.811 1178.45 760.906C1180.35 759.002 1181.31 756.696 1181.31 753.987C1181.31 751.787 1180.71 749.946 1179.53 748.465C1178.39 746.941 1176.25 745.397 1173.12 743.831L1166.39 740.467C1161.73 738.139 1158.33 735.621 1156.17 732.913C1154.05 730.162 1153 727.01 1153 723.455C1153 718.25 1154.9 714.039 1158.71 710.823C1162.52 707.607 1167.53 705.999 1173.75 705.999C1176.04 705.999 1178.53 706.189 1181.24 706.57C1183.95 706.909 1186.74 707.417 1189.62 708.094ZM1241.42 708.094V721.995C1235.11 717.213 1230.82 714.166 1228.53 712.854C1226.25 711.5 1224.45 710.823 1223.14 710.823C1220.81 710.823 1218.8 711.67 1217.11 713.362C1215.46 715.055 1214.63 717.107 1214.63 719.52C1214.63 721.466 1215.31 723.243 1216.66 724.852C1218.06 726.417 1220.26 727.983 1223.26 729.549L1231.96 734.119C1236.36 736.447 1239.43 738.774 1241.16 741.102C1242.9 743.387 1243.77 746.222 1243.77 749.607C1243.77 755.617 1241.8 760.293 1237.86 763.636C1233.93 766.937 1228.36 768.587 1221.17 768.587C1218.8 768.587 1216.15 768.333 1213.23 767.825C1210.36 767.36 1207.27 766.661 1203.97 765.73V751.131C1210.53 756.505 1215.03 759.954 1217.49 761.478C1219.94 763.001 1221.95 763.763 1223.52 763.763C1226.14 763.763 1228.38 762.811 1230.25 760.906C1232.15 759.002 1233.1 756.696 1233.1 753.987C1233.1 751.787 1232.51 749.946 1231.33 748.465C1230.18 746.941 1228.05 745.397 1224.91 743.831L1218.19 740.467C1213.53 738.139 1210.12 735.621 1207.97 732.913C1205.85 730.162 1204.79 727.01 1204.79 723.455C1204.79 718.25 1206.7 714.039 1210.5 710.823C1214.31 707.607 1219.33 705.999 1225.55 705.999C1227.83 705.999 1230.33 706.189 1233.04 706.57C1235.75 706.909 1238.54 707.417 1241.42 708.094ZM118.327 864.246H78.4639V864.627C78.4639 873.641 80.6221 880.285 84.9385 884.559C89.2549 888.79 96.0257 890.906 105.251 890.906C107.24 890.906 109.377 890.779 111.662 890.525C113.947 890.229 116.359 889.827 118.898 889.319C115.428 892.409 111.641 894.715 107.536 896.238C103.474 897.719 99.0091 898.46 94.1426 898.46C85.8483 898.46 79.2256 895.73 74.2744 890.271C69.3232 884.77 66.8477 877.428 66.8477 868.245C66.8477 863.759 67.4824 859.633 68.752 855.867C70.0638 852.059 71.9893 848.652 74.5283 845.647C77.1097 842.643 80.1566 840.294 83.6689 838.602C87.2236 836.867 90.863 835.999 94.5869 835.999C102.077 835.999 107.832 838.411 111.853 843.235C115.915 848.06 118.073 855.063 118.327 864.246ZM105.188 857.454C105.145 851.91 104.13 847.763 102.141 845.013C100.194 842.22 97.2741 840.823 93.3809 840.823C88.9375 840.823 85.4251 842.558 82.8438 846.028C80.2624 849.498 78.8447 854.407 78.5908 860.755L105.188 857.454ZM144.797 804.959V878.274C144.797 882.591 145.178 886.103 145.939 888.812C146.701 891.478 147.928 894.207 149.621 897H129.182C130.874 894.122 132.102 891.329 132.863 888.621C133.625 885.87 134.006 882.422 134.006 878.274V822.923C134.006 820.595 133.583 818.247 132.736 815.877C131.89 813.507 130.578 811.032 128.801 808.45L144.797 804.959ZM213.161 864.246H173.298V864.627C173.298 873.641 175.456 880.285 179.772 884.559C184.089 888.79 190.86 890.906 200.085 890.906C202.074 890.906 204.211 890.779 206.496 890.525C208.781 890.229 211.193 889.827 213.732 889.319C210.262 892.409 206.475 894.715 202.37 896.238C198.308 897.719 193.843 898.46 188.977 898.46C180.682 898.46 174.06 895.73 169.108 890.271C164.157 884.77 161.682 877.428 161.682 868.245C161.682 863.759 162.316 859.633 163.586 855.867C164.898 852.059 166.823 848.652 169.362 845.647C171.944 842.643 174.991 840.294 178.503 838.602C182.058 836.867 185.697 835.999 189.421 835.999C196.911 835.999 202.666 838.411 206.687 843.235C210.749 848.06 212.907 855.063 213.161 864.246ZM200.021 857.454C199.979 851.91 198.964 847.763 196.975 845.013C195.028 842.22 192.108 840.823 188.215 840.823C183.771 840.823 180.259 842.558 177.678 846.028C175.096 849.498 173.679 854.407 173.425 860.755L200.021 857.454ZM236.774 896.238C235.293 898.016 234.151 899.793 233.347 901.57C232.585 903.348 232.204 904.998 232.204 906.521C232.204 909.949 233.728 912.7 236.774 914.773C239.821 916.889 243.884 917.947 248.962 917.947C254.632 917.947 259.436 916.614 263.371 913.948C267.307 911.282 269.274 908.108 269.274 904.427C269.274 901.718 268.407 899.793 266.672 898.65C264.979 897.55 261.89 897 257.404 897H245.217C243.143 897 241.493 896.937 240.266 896.81C239.038 896.683 237.875 896.492 236.774 896.238ZM247.692 840.442C244.392 840.442 241.789 841.648 239.885 844.061C237.98 846.43 237.028 849.689 237.028 853.836C237.028 858.66 238.171 862.659 240.456 865.833C242.741 869.007 245.576 870.594 248.962 870.594C252.051 870.594 254.548 869.409 256.452 867.039C258.399 864.627 259.372 861.474 259.372 857.581C259.372 852.503 258.272 848.377 256.071 845.203C253.913 842.029 251.12 840.442 247.692 840.442ZM280.827 835.999V845.394L263.435 841.331C265.677 843.278 267.37 845.457 268.513 847.869C269.698 850.281 270.29 852.841 270.29 855.55C270.29 861.263 268.301 865.918 264.323 869.515C260.388 873.112 255.267 874.91 248.962 874.91C248.158 874.91 247.269 874.889 246.296 874.847C245.323 874.762 244.222 874.656 242.995 874.529C242.487 875.503 242.106 876.476 241.853 877.449C241.599 878.38 241.472 879.227 241.472 879.988C241.472 882.231 242.17 883.839 243.566 884.812C244.963 885.743 247.417 886.209 250.93 886.209H262.229C267.772 886.209 271.708 887.203 274.035 889.192C276.405 891.139 277.59 894.355 277.59 898.841C277.59 902.226 276.87 905.4 275.432 908.362C273.993 911.367 271.94 913.906 269.274 915.979C266.101 918.519 262.546 920.444 258.61 921.756C254.675 923.11 250.549 923.787 246.232 923.787C239.25 923.787 233.389 922.412 228.649 919.661C223.91 916.91 221.54 913.652 221.54 909.886C221.54 907.812 222.408 905.781 224.143 903.792C225.92 901.845 229.644 899.01 235.314 895.286C233.622 894.651 232.289 893.678 231.315 892.366C230.342 891.054 229.855 889.573 229.855 887.923C229.855 885.849 230.786 883.755 232.648 881.639C234.51 879.523 237.578 877.111 241.853 874.402C236.774 873.471 232.839 871.419 230.046 868.245C227.253 865.071 225.856 861.051 225.856 856.185C225.856 850.302 227.951 845.478 232.141 841.712C236.33 837.903 241.726 835.999 248.327 835.999C250.824 835.999 253.151 836.359 255.31 837.078C257.51 837.755 259.647 838.792 261.721 840.188L280.827 835.999ZM323.039 867.864C314.702 868.541 308.947 869.747 305.773 871.482C302.642 873.217 301.076 875.926 301.076 879.607C301.076 883.077 302.325 885.786 304.821 887.732C307.36 889.679 310.894 890.652 315.422 890.652C316.226 890.652 317.242 890.631 318.469 890.589C319.696 890.504 321.219 890.377 323.039 890.208V867.864ZM333.83 854.725V877.386C333.83 881.914 334.232 885.384 335.036 887.796C335.882 890.208 337.258 892.578 339.162 894.905L325.959 898.46C325.24 897.19 324.668 895.963 324.245 894.778C323.822 893.593 323.505 892.43 323.293 891.287L323.166 891.351C314.152 896.175 308.186 898.587 305.266 898.587C300.822 898.587 297.035 896.937 293.903 893.636C290.814 890.293 289.27 886.251 289.27 881.512C289.27 875.587 291.449 871.229 295.808 868.436C300.166 865.643 307.001 864.246 316.311 864.246C317.072 864.246 317.897 864.267 318.786 864.31C319.675 864.31 321.092 864.373 323.039 864.5V852.693C323.039 848.969 322.214 846.092 320.563 844.061C318.913 841.987 316.586 840.95 313.581 840.95C311.211 840.95 305.583 844.611 296.696 851.932L294.855 853.455V839.808C299.214 838.538 303.298 837.586 307.106 836.951C310.915 836.316 314.364 835.999 317.453 835.999C323.801 835.999 328.117 837.163 330.402 839.49C332.688 841.818 333.83 846.896 333.83 854.725ZM364.807 835.491V842.664C371.154 839.956 375.83 838.178 378.835 837.332C381.84 836.443 384.484 835.999 386.77 835.999C391.763 835.999 395.487 837.819 397.941 841.458C400.396 845.097 401.623 850.62 401.623 858.025V878.274C401.623 882.591 402.004 886.103 402.766 888.812C403.527 891.478 404.733 894.207 406.384 897H386.008C387.658 894.122 388.864 891.329 389.626 888.621C390.43 885.87 390.832 882.422 390.832 878.274V861.644C390.832 854.83 389.52 850.133 386.896 847.552C384.273 844.97 379.512 843.68 372.614 843.68C371.345 843.68 370.054 843.722 368.742 843.807C367.43 843.849 366.118 843.955 364.807 844.124V879.036C364.807 883.014 365.166 886.315 365.886 888.938C366.647 891.562 367.854 894.249 369.504 897H349.191C350.842 894.207 352.027 891.478 352.746 888.812C353.508 886.103 353.889 882.591 353.889 878.274V853.455C353.889 850.916 353.487 848.525 352.683 846.282C351.921 844.039 350.63 841.627 348.811 839.046L364.807 835.491ZM463.957 838.221V852.249L450.944 843.299C449.844 842.537 448.828 841.987 447.897 841.648C447.009 841.268 446.162 841.077 445.358 841.077C440.788 841.077 436.916 843.468 433.742 848.25C430.568 853.032 428.981 859.062 428.981 866.341C428.981 874.508 431.013 880.665 435.075 884.812C439.18 888.96 445.295 891.033 453.42 891.033C455.874 891.033 458.286 890.949 460.656 890.779C463.068 890.61 465.417 890.335 467.702 889.954C464.105 892.916 460.381 895.117 456.53 896.556C452.679 897.994 448.553 898.714 444.152 898.714C436.239 898.714 429.722 896.069 424.602 890.779C419.523 885.447 416.984 878.634 416.984 870.34C416.984 860.099 419.904 851.826 425.744 845.521C431.584 839.173 439.201 835.999 448.596 835.999C450.923 835.999 453.335 836.189 455.832 836.57C458.329 836.909 461.037 837.459 463.957 838.221ZM524.577 864.246H484.714V864.627C484.714 873.641 486.872 880.285 491.188 884.559C495.505 888.79 502.276 890.906 511.501 890.906C513.49 890.906 515.627 890.779 517.912 890.525C520.197 890.229 522.609 889.827 525.148 889.319C521.678 892.409 517.891 894.715 513.786 896.238C509.724 897.719 505.259 898.46 500.393 898.46C492.098 898.46 485.476 895.73 480.524 890.271C475.573 884.77 473.098 877.428 473.098 868.245C473.098 863.759 473.732 859.633 475.002 855.867C476.314 852.059 478.239 848.652 480.778 845.647C483.36 842.643 486.407 840.294 489.919 838.602C493.474 836.867 497.113 835.999 500.837 835.999C508.327 835.999 514.082 838.411 518.103 843.235C522.165 848.06 524.323 855.063 524.577 864.246ZM511.438 857.454C511.395 851.91 510.38 847.763 508.391 845.013C506.444 842.22 503.524 840.823 499.631 840.823C495.188 840.823 491.675 842.558 489.094 846.028C486.512 849.498 485.095 854.407 484.841 860.755L511.438 857.454ZM542.351 914.71C544.086 912.34 545.397 909.738 546.286 906.902C547.217 904.067 547.704 901.02 547.746 897.762C545.63 897.762 543.959 897.148 542.731 895.921C541.504 894.694 540.891 893.022 540.891 890.906C540.891 888.367 541.525 886.463 542.795 885.193C544.064 883.882 545.905 883.226 548.317 883.226C550.983 883.226 552.951 884.093 554.221 885.828C555.49 887.563 556.125 890.25 556.125 893.89C556.125 898.714 554.813 903.094 552.189 907.029C549.608 910.965 546.328 913.525 542.351 914.71ZM643.977 844.251C642.411 843.532 640.803 843.003 639.152 842.664C637.544 842.326 635.809 842.156 633.947 842.156C627.727 842.156 622.797 844.378 619.157 848.821C615.56 853.265 613.762 859.316 613.762 866.976C613.762 874.762 615.708 880.708 619.602 884.812C623.495 888.875 629.144 890.906 636.55 890.906C637.523 890.906 638.581 890.843 639.724 890.716C640.909 890.547 642.326 890.293 643.977 889.954V844.251ZM654.768 804.832V876.434C654.768 881.512 655.148 885.363 655.91 887.986C656.714 890.568 658.005 893.043 659.782 895.413L643.977 898.841V891.16C640.464 893.615 637.1 895.498 633.884 896.81C630.71 898.079 627.832 898.714 625.251 898.714C618.607 898.714 613.063 895.942 608.62 890.398C604.177 884.855 601.955 877.872 601.955 869.451C601.955 860.268 604.685 852.439 610.144 845.965C615.645 839.448 622.141 836.189 629.631 836.189C632.255 836.189 634.73 836.528 637.058 837.205C639.427 837.882 641.734 838.919 643.977 840.315V826.414C643.977 823.494 643.532 820.765 642.644 818.226C641.797 815.644 640.189 812.47 637.819 808.704L654.768 804.832ZM687.521 835.491V844.251C691.203 841.289 694.335 839.173 696.916 837.903C699.497 836.634 701.952 835.999 704.279 835.999C704.914 835.999 705.655 836.105 706.501 836.316C707.39 836.486 708.384 836.74 709.484 837.078V850.091C707.368 848.44 705.02 847.192 702.438 846.346C699.899 845.457 697.233 845.013 694.44 845.013C693.171 845.013 691.965 845.055 690.822 845.14C689.68 845.224 688.579 845.351 687.521 845.521V878.274C687.521 882.591 687.902 886.103 688.664 888.812C689.426 891.478 690.653 894.207 692.346 897H671.906C673.599 894.122 674.826 891.329 675.588 888.621C676.35 885.87 676.73 882.422 676.73 878.274V853.455C676.73 851.128 676.307 848.8 675.461 846.473C674.615 844.103 673.303 841.627 671.525 839.046L687.521 835.491ZM750.363 867.864C742.027 868.541 736.271 869.747 733.098 871.482C729.966 873.217 728.4 875.926 728.4 879.607C728.4 883.077 729.649 885.786 732.146 887.732C734.685 889.679 738.218 890.652 742.746 890.652C743.55 890.652 744.566 890.631 745.793 890.589C747.02 890.504 748.544 890.377 750.363 890.208V867.864ZM761.154 854.725V877.386C761.154 881.914 761.556 885.384 762.36 887.796C763.207 890.208 764.582 892.578 766.486 894.905L753.283 898.46C752.564 897.19 751.993 895.963 751.569 894.778C751.146 893.593 750.829 892.43 750.617 891.287L750.49 891.351C741.477 896.175 735.51 898.587 732.59 898.587C728.146 898.587 724.359 896.937 721.228 893.636C718.138 890.293 716.594 886.251 716.594 881.512C716.594 875.587 718.773 871.229 723.132 868.436C727.491 865.643 734.325 864.246 743.635 864.246C744.396 864.246 745.222 864.267 746.11 864.31C746.999 864.31 748.417 864.373 750.363 864.5V852.693C750.363 848.969 749.538 846.092 747.888 844.061C746.237 841.987 743.91 840.95 740.905 840.95C738.535 840.95 732.907 844.611 724.021 851.932L722.18 853.455V839.808C726.538 838.538 730.622 837.586 734.431 836.951C738.239 836.316 741.688 835.999 744.777 835.999C751.125 835.999 755.441 837.163 757.727 839.49C760.012 841.818 761.154 846.896 761.154 854.725ZM768.454 836.824H791.75C790.396 838.686 789.423 840.252 788.83 841.521C788.238 842.749 787.941 843.785 787.941 844.632C787.941 844.928 788.005 845.351 788.132 845.901C788.259 846.409 788.513 847.277 788.894 848.504L800.192 884.368L816.062 836.824H821.394L837.644 885.193L848.181 848.377C848.477 847.277 848.71 846.282 848.879 845.394C849.09 844.505 849.196 843.807 849.196 843.299C849.196 842.537 848.942 841.648 848.435 840.633C847.927 839.575 847.102 838.305 845.959 836.824H863.605C860.178 840.506 857.025 846.198 854.147 853.899V853.963L837.644 897.889H830.979L816.188 854.217L801.335 897.889H794.099L777.15 849.964V849.9C775.5 845.161 772.601 840.802 768.454 836.824ZM884.68 835.491V878.274C884.68 882.591 885.061 886.103 885.822 888.812C886.626 891.478 887.854 894.207 889.504 897H869.064C870.757 894.122 871.984 891.329 872.746 888.621C873.508 885.87 873.889 882.422 873.889 878.274V853.455C873.889 851.128 873.465 848.8 872.619 846.473C871.773 844.103 870.461 841.627 868.684 839.046L884.68 835.491ZM878.967 806.546C880.998 806.546 882.648 807.202 883.918 808.514C885.23 809.783 885.886 811.455 885.886 813.528C885.886 815.813 885.293 817.57 884.108 818.797C882.924 819.982 881.21 820.574 878.967 820.574C876.851 820.574 875.201 819.961 874.016 818.733C872.831 817.506 872.238 815.771 872.238 813.528C872.238 811.455 872.852 809.783 874.079 808.514C875.349 807.202 876.978 806.546 878.967 806.546ZM917.307 835.491V842.664C923.654 839.956 928.33 838.178 931.335 837.332C934.34 836.443 936.984 835.999 939.27 835.999C944.263 835.999 947.987 837.819 950.441 841.458C952.896 845.097 954.123 850.62 954.123 858.025V878.274C954.123 882.591 954.504 886.103 955.266 888.812C956.027 891.478 957.233 894.207 958.884 897H938.508C940.158 894.122 941.364 891.329 942.126 888.621C942.93 885.87 943.332 882.422 943.332 878.274V861.644C943.332 854.83 942.02 850.133 939.396 847.552C936.773 844.97 932.012 843.68 925.114 843.68C923.845 843.68 922.554 843.722 921.242 843.807C919.93 843.849 918.618 843.955 917.307 844.124V879.036C917.307 883.014 917.666 886.315 918.386 888.938C919.147 891.562 920.354 894.249 922.004 897H901.691C903.342 894.207 904.527 891.478 905.246 888.812C906.008 886.103 906.389 882.591 906.389 878.274V853.455C906.389 850.916 905.987 848.525 905.183 846.282C904.421 844.039 903.13 841.627 901.311 839.046L917.307 835.491ZM981.989 896.238C980.508 898.016 979.366 899.793 978.562 901.57C977.8 903.348 977.419 904.998 977.419 906.521C977.419 909.949 978.942 912.7 981.989 914.773C985.036 916.889 989.099 917.947 994.177 917.947C999.847 917.947 1004.65 916.614 1008.59 913.948C1012.52 911.282 1014.49 908.108 1014.49 904.427C1014.49 901.718 1013.62 899.793 1011.89 898.65C1010.19 897.55 1007.1 897 1002.62 897H990.432C988.358 897 986.708 896.937 985.48 896.81C984.253 896.683 983.09 896.492 981.989 896.238ZM992.907 840.442C989.606 840.442 987.004 841.648 985.1 844.061C983.195 846.43 982.243 849.689 982.243 853.836C982.243 858.66 983.386 862.659 985.671 865.833C987.956 869.007 990.791 870.594 994.177 870.594C997.266 870.594 999.763 869.409 1001.67 867.039C1003.61 864.627 1004.59 861.474 1004.59 857.581C1004.59 852.503 1003.49 848.377 1001.29 845.203C999.128 842.029 996.335 840.442 992.907 840.442ZM1026.04 835.999V845.394L1008.65 841.331C1010.89 843.278 1012.58 845.457 1013.73 847.869C1014.91 850.281 1015.5 852.841 1015.5 855.55C1015.5 861.263 1013.52 865.918 1009.54 869.515C1005.6 873.112 1000.48 874.91 994.177 874.91C993.373 874.91 992.484 874.889 991.511 874.847C990.537 874.762 989.437 874.656 988.21 874.529C987.702 875.503 987.321 876.476 987.067 877.449C986.813 878.38 986.687 879.227 986.687 879.988C986.687 882.231 987.385 883.839 988.781 884.812C990.178 885.743 992.632 886.209 996.145 886.209H1007.44C1012.99 886.209 1016.92 887.203 1019.25 889.192C1021.62 891.139 1022.8 894.355 1022.8 898.841C1022.8 902.226 1022.09 905.4 1020.65 908.362C1019.21 911.367 1017.16 913.906 1014.49 915.979C1011.32 918.519 1007.76 920.444 1003.83 921.756C999.89 923.11 995.764 923.787 991.447 923.787C984.465 923.787 978.604 922.412 973.864 919.661C969.125 916.91 966.755 913.652 966.755 909.886C966.755 907.812 967.622 905.781 969.357 903.792C971.135 901.845 974.859 899.01 980.529 895.286C978.837 894.651 977.504 893.678 976.53 892.366C975.557 891.054 975.07 889.573 975.07 887.923C975.07 885.849 976.001 883.755 977.863 881.639C979.725 879.523 982.793 877.111 987.067 874.402C981.989 873.471 978.054 871.419 975.261 868.245C972.468 865.071 971.071 861.051 971.071 856.185C971.071 850.302 973.166 845.478 977.355 841.712C981.545 837.903 986.94 835.999 993.542 835.999C996.039 835.999 998.366 836.359 1000.52 837.078C1002.72 837.755 1004.86 838.792 1006.94 840.188L1026.04 835.999ZM82.8438 965.491V1008.27C82.8438 1012.59 83.2246 1016.1 83.9863 1018.81C84.7904 1021.48 86.0176 1024.21 87.668 1027H67.2285C68.9212 1024.12 70.1484 1021.33 70.9102 1018.62C71.6719 1015.87 72.0527 1012.42 72.0527 1008.27V983.455C72.0527 981.128 71.6296 978.8 70.7832 976.473C69.9368 974.103 68.625 971.627 66.8477 969.046L82.8438 965.491ZM77.1309 936.546C79.1621 936.546 80.8125 937.202 82.082 938.514C83.3939 939.783 84.0498 941.455 84.0498 943.528C84.0498 945.813 83.4574 947.57 82.2725 948.797C81.0876 949.982 79.3737 950.574 77.1309 950.574C75.015 950.574 73.3646 949.961 72.1797 948.733C70.9948 947.506 70.4023 945.771 70.4023 943.528C70.4023 941.455 71.016 939.783 72.2432 938.514C73.5127 937.202 75.1419 936.546 77.1309 936.546ZM115.471 965.491V972.664C121.818 969.956 126.494 968.178 129.499 967.332C132.504 966.443 135.148 965.999 137.434 965.999C142.427 965.999 146.151 967.819 148.605 971.458C151.06 975.097 152.287 980.62 152.287 988.025V1008.27C152.287 1012.59 152.668 1016.1 153.43 1018.81C154.191 1021.48 155.397 1024.21 157.048 1027H136.672C138.322 1024.12 139.528 1021.33 140.29 1018.62C141.094 1015.87 141.496 1012.42 141.496 1008.27V991.644C141.496 984.83 140.184 980.133 137.561 977.552C134.937 974.97 130.176 973.68 123.278 973.68C122.009 973.68 120.718 973.722 119.406 973.807C118.094 973.849 116.783 973.955 115.471 974.124V1009.04C115.471 1013.01 115.83 1016.31 116.55 1018.94C117.312 1021.56 118.518 1024.25 120.168 1027H99.8555C101.506 1024.21 102.691 1021.48 103.41 1018.81C104.172 1016.1 104.553 1012.59 104.553 1008.27V983.455C104.553 980.916 104.151 978.525 103.347 976.282C102.585 974.039 101.294 971.627 99.4746 969.046L115.471 965.491ZM205.861 968.094V981.995C199.556 977.213 195.261 974.166 192.976 972.854C190.69 971.5 188.892 970.823 187.58 970.823C185.253 970.823 183.243 971.67 181.55 973.362C179.899 975.055 179.074 977.107 179.074 979.52C179.074 981.466 179.751 983.243 181.105 984.852C182.502 986.417 184.702 987.983 187.707 989.549L196.403 994.119C200.804 996.447 203.872 998.774 205.607 1001.1C207.342 1003.39 208.21 1006.22 208.21 1009.61C208.21 1015.62 206.242 1020.29 202.307 1023.64C198.371 1026.94 192.806 1028.59 185.612 1028.59C183.243 1028.59 180.598 1028.33 177.678 1027.83C174.8 1027.36 171.711 1026.66 168.41 1025.73V1011.13C174.969 1016.51 179.476 1019.95 181.931 1021.48C184.385 1023 186.395 1023.76 187.961 1023.76C190.585 1023.76 192.827 1022.81 194.689 1020.91C196.594 1019 197.546 1016.7 197.546 1013.99C197.546 1011.79 196.953 1009.95 195.769 1008.46C194.626 1006.94 192.489 1005.4 189.357 1003.83L182.629 1000.47C177.974 998.139 174.567 995.621 172.409 992.913C170.293 990.162 169.235 987.01 169.235 983.455C169.235 978.25 171.14 974.039 174.948 970.823C178.757 967.607 183.771 965.999 189.992 965.999C192.277 965.999 194.774 966.189 197.482 966.57C200.191 966.909 202.984 967.417 205.861 968.094ZM235.061 1019.95C236.626 1020.67 238.192 1021.2 239.758 1021.54C241.366 1021.88 243.101 1022.05 244.963 1022.05C251.099 1022.05 255.987 1019.81 259.626 1015.32C263.265 1010.83 265.085 1004.76 265.085 997.103C265.085 989.274 263.181 983.349 259.372 979.329C255.563 975.309 249.935 973.299 242.487 973.299C241.514 973.299 240.435 973.383 239.25 973.553C238.065 973.68 236.669 973.912 235.061 974.251V1019.95ZM235.061 965.491V973.045C238.488 970.59 241.789 968.729 244.963 967.459C248.179 966.147 251.078 965.491 253.659 965.491C260.303 965.491 265.847 968.284 270.29 973.87C274.776 979.414 277.019 986.375 277.019 994.754C277.019 1003.89 274.268 1011.72 268.767 1018.24C263.265 1024.76 256.748 1028.02 249.216 1028.02C246.719 1028.02 244.286 1027.68 241.916 1027C239.546 1026.28 237.261 1025.2 235.061 1023.76V1035.82C235.061 1039.8 235.42 1043.1 236.14 1045.73C236.901 1048.35 238.107 1051.04 239.758 1053.79H219.445C221.096 1050.95 222.281 1048.2 223 1045.54C223.762 1042.87 224.143 1039.38 224.143 1035.06V983.455C224.143 981.043 223.719 978.673 222.873 976.346C222.069 974.018 220.799 971.585 219.064 969.046L235.061 965.491ZM305.012 965.491V1008.27C305.012 1012.59 305.393 1016.1 306.154 1018.81C306.958 1021.48 308.186 1024.21 309.836 1027H289.396C291.089 1024.12 292.316 1021.33 293.078 1018.62C293.84 1015.87 294.221 1012.42 294.221 1008.27V983.455C294.221 981.128 293.798 978.8 292.951 976.473C292.105 974.103 290.793 971.627 289.016 969.046L305.012 965.491ZM299.299 936.546C301.33 936.546 302.98 937.202 304.25 938.514C305.562 939.783 306.218 941.455 306.218 943.528C306.218 945.813 305.625 947.57 304.44 948.797C303.256 949.982 301.542 950.574 299.299 950.574C297.183 950.574 295.533 949.961 294.348 948.733C293.163 947.506 292.57 945.771 292.57 943.528C292.57 941.455 293.184 939.783 294.411 938.514C295.681 937.202 297.31 936.546 299.299 936.546ZM338.146 965.491V974.251C341.828 971.289 344.96 969.173 347.541 967.903C350.122 966.634 352.577 965.999 354.904 965.999C355.539 965.999 356.28 966.105 357.126 966.316C358.015 966.486 359.009 966.74 360.109 967.078V980.091C357.993 978.44 355.645 977.192 353.063 976.346C350.524 975.457 347.858 975.013 345.065 975.013C343.796 975.013 342.59 975.055 341.447 975.14C340.305 975.224 339.204 975.351 338.146 975.521V1008.27C338.146 1012.59 338.527 1016.1 339.289 1018.81C340.051 1021.48 341.278 1024.21 342.971 1027H322.531C324.224 1024.12 325.451 1021.33 326.213 1018.62C326.975 1015.87 327.355 1012.42 327.355 1008.27V983.455C327.355 981.128 326.932 978.8 326.086 976.473C325.24 974.103 323.928 971.627 322.15 969.046L338.146 965.491ZM400.988 997.864C392.652 998.541 386.896 999.747 383.723 1001.48C380.591 1003.22 379.025 1005.93 379.025 1009.61C379.025 1013.08 380.274 1015.79 382.771 1017.73C385.31 1019.68 388.843 1020.65 393.371 1020.65C394.175 1020.65 395.191 1020.63 396.418 1020.59C397.645 1020.5 399.169 1020.38 400.988 1020.21V997.864ZM411.779 984.725V1007.39C411.779 1011.91 412.181 1015.38 412.985 1017.8C413.832 1020.21 415.207 1022.58 417.111 1024.91L403.908 1028.46C403.189 1027.19 402.618 1025.96 402.194 1024.78C401.771 1023.59 401.454 1022.43 401.242 1021.29L401.115 1021.35C392.102 1026.17 386.135 1028.59 383.215 1028.59C378.771 1028.59 374.984 1026.94 371.853 1023.64C368.763 1020.29 367.219 1016.25 367.219 1011.51C367.219 1005.59 369.398 1001.23 373.757 998.436C378.116 995.643 384.95 994.246 394.26 994.246C395.021 994.246 395.847 994.267 396.735 994.31C397.624 994.31 399.042 994.373 400.988 994.5V982.693C400.988 978.969 400.163 976.092 398.513 974.061C396.862 971.987 394.535 970.95 391.53 970.95C389.16 970.95 383.532 974.611 374.646 981.932L372.805 983.455V969.808C377.163 968.538 381.247 967.586 385.056 966.951C388.864 966.316 392.313 965.999 395.402 965.999C401.75 965.999 406.066 967.163 408.352 969.49C410.637 971.818 411.779 976.896 411.779 984.725ZM443.01 949.622V966.824H462.878V972.537H443.01V1007.89C443.01 1013.39 443.941 1016.95 445.803 1018.56C447.707 1020.12 451.41 1020.91 456.911 1020.91C458.181 1020.91 459.577 1020.84 461.101 1020.72C462.666 1020.55 464.274 1020.33 465.925 1020.08C462.666 1022.75 459.302 1024.82 455.832 1026.3C452.362 1027.74 449.04 1028.46 445.866 1028.46C440.788 1028.46 437.212 1027.13 435.139 1024.46C433.107 1021.79 432.092 1016.8 432.092 1009.48V972.537H421.682C426.294 968.644 430.378 964.793 433.933 960.984C437.53 957.133 440.555 953.346 443.01 949.622ZM487.189 965.491V1008.27C487.189 1012.59 487.57 1016.1 488.332 1018.81C489.136 1021.48 490.363 1024.21 492.014 1027H471.574C473.267 1024.12 474.494 1021.33 475.256 1018.62C476.018 1015.87 476.398 1012.42 476.398 1008.27V983.455C476.398 981.128 475.975 978.8 475.129 976.473C474.283 974.103 472.971 971.627 471.193 969.046L487.189 965.491ZM481.477 936.546C483.508 936.546 485.158 937.202 486.428 938.514C487.74 939.783 488.396 941.455 488.396 943.528C488.396 945.813 487.803 947.57 486.618 948.797C485.433 949.982 483.719 950.574 481.477 950.574C479.361 950.574 477.71 949.961 476.525 948.733C475.34 947.506 474.748 945.771 474.748 943.528C474.748 941.455 475.362 939.783 476.589 938.514C477.858 937.202 479.488 936.546 481.477 936.546ZM532.702 970.823C527.709 970.823 523.815 973.003 521.022 977.361C518.229 981.72 516.833 987.814 516.833 995.643C516.833 1004.49 518.335 1011.45 521.34 1016.53C524.344 1021.6 528.428 1024.14 533.591 1024.14C538.584 1024.14 542.478 1021.96 545.271 1017.61C548.063 1013.25 549.46 1007.15 549.46 999.324C549.46 990.522 547.937 983.582 544.89 978.504C541.885 973.383 537.823 970.823 532.702 970.823ZM504.201 997.483C504.201 988.385 506.973 980.874 512.517 974.949C518.103 968.982 525.127 965.999 533.591 965.999C541.843 965.999 548.656 968.982 554.03 974.949C559.405 980.874 562.092 988.427 562.092 997.61C562.092 1006.71 559.32 1014.22 553.776 1020.14C548.233 1026.03 541.208 1028.97 532.702 1028.97C524.45 1028.97 517.637 1026.03 512.263 1020.14C506.888 1014.22 504.201 1006.67 504.201 997.483ZM589.641 965.491V972.664C595.988 969.956 600.664 968.178 603.669 967.332C606.674 966.443 609.318 965.999 611.604 965.999C616.597 965.999 620.321 967.819 622.775 971.458C625.23 975.097 626.457 980.62 626.457 988.025V1008.27C626.457 1012.59 626.838 1016.1 627.6 1018.81C628.361 1021.48 629.567 1024.21 631.218 1027H610.842C612.492 1024.12 613.698 1021.33 614.46 1018.62C615.264 1015.87 615.666 1012.42 615.666 1008.27V991.644C615.666 984.83 614.354 980.133 611.73 977.552C609.107 974.97 604.346 973.68 597.448 973.68C596.179 973.68 594.888 973.722 593.576 973.807C592.264 973.849 590.952 973.955 589.641 974.124V1009.04C589.641 1013.01 590 1016.31 590.72 1018.94C591.481 1021.56 592.688 1024.25 594.338 1027H574.025C575.676 1024.21 576.861 1021.48 577.58 1018.81C578.342 1016.1 578.723 1012.59 578.723 1008.27V983.455C578.723 980.916 578.321 978.525 577.517 976.282C576.755 974.039 575.464 971.627 573.645 969.046L589.641 965.491ZM719.704 937.054V950.193L709.421 942.386C708.363 941.539 707.432 940.968 706.628 940.672C705.866 940.333 705.062 940.164 704.216 940.164C700.026 940.164 696.895 941.645 694.821 944.607C692.748 947.57 691.711 952.076 691.711 958.128V966.824H706.691V972.537H691.711V1010.75C691.711 1014.22 692.113 1017.16 692.917 1019.57C693.721 1021.94 695.012 1024.42 696.789 1027H675.842C677.535 1024.25 678.783 1021.63 679.587 1019.13C680.391 1016.63 680.793 1013.92 680.793 1011V1009.61V972.537H672.604V966.824H680.793V959.651C680.793 951.78 683.099 945.75 687.712 941.561C692.325 937.329 698.947 935.213 707.58 935.213C709.4 935.213 711.304 935.361 713.293 935.657C715.324 935.953 717.461 936.419 719.704 937.054ZM728.781 965.491V974.251C732.463 971.289 735.594 969.173 738.176 967.903C740.757 966.634 743.212 965.999 745.539 965.999C746.174 965.999 746.914 966.105 747.761 966.316C748.649 966.486 749.644 966.74 750.744 967.078V980.091C748.628 978.44 746.28 977.192 743.698 976.346C741.159 975.457 738.493 975.013 735.7 975.013C734.431 975.013 733.225 975.055 732.082 975.14C730.939 975.224 729.839 975.351 728.781 975.521V1008.27C728.781 1012.59 729.162 1016.1 729.924 1018.81C730.686 1021.48 731.913 1024.21 733.605 1027H713.166C714.859 1024.12 716.086 1021.33 716.848 1018.62C717.609 1015.87 717.99 1012.42 717.99 1008.27V983.455C717.99 981.128 717.567 978.8 716.721 976.473C715.874 974.103 714.562 971.627 712.785 969.046L728.781 965.491ZM784.704 970.823C779.711 970.823 775.817 973.003 773.024 977.361C770.231 981.72 768.835 987.814 768.835 995.643C768.835 1004.49 770.337 1011.45 773.342 1016.53C776.346 1021.6 780.43 1024.14 785.593 1024.14C790.586 1024.14 794.479 1021.96 797.272 1017.61C800.065 1013.25 801.462 1007.15 801.462 999.324C801.462 990.522 799.938 983.582 796.892 978.504C793.887 973.383 789.825 970.823 784.704 970.823ZM756.203 997.483C756.203 988.385 758.975 980.874 764.519 974.949C770.104 968.982 777.129 965.999 785.593 965.999C793.845 965.999 800.658 968.982 806.032 974.949C811.407 980.874 814.094 988.427 814.094 997.61C814.094 1006.71 811.322 1014.22 805.778 1020.14C800.235 1026.03 793.21 1028.97 784.704 1028.97C776.452 1028.97 769.639 1026.03 764.265 1020.14C758.89 1014.22 756.203 1006.67 756.203 997.483ZM842.15 965.491V972.664C847.863 969.913 852.074 968.115 854.782 967.269C857.533 966.422 860.093 965.999 862.463 965.999C864.917 965.999 867.202 966.591 869.318 967.776C871.434 968.919 873.169 970.506 874.523 972.537C880.321 969.913 884.701 968.178 887.663 967.332C890.625 966.443 893.355 965.999 895.852 965.999C901.691 965.999 905.902 967.713 908.483 971.141C911.065 974.568 912.355 980.197 912.355 988.025V1009.04C912.355 1013.01 912.715 1016.31 913.435 1018.94C914.196 1021.56 915.402 1024.25 917.053 1027H896.74C898.391 1024.21 899.576 1021.48 900.295 1018.81C901.057 1016.1 901.438 1012.59 901.438 1008.27V991.644C901.438 984.788 900.126 980.091 897.502 977.552C894.921 974.97 890.118 973.68 883.093 973.68C881.993 973.68 880.765 973.722 879.411 973.807C878.099 973.849 876.703 973.955 875.222 974.124C875.941 975.224 876.449 976.811 876.745 978.885C877.084 980.958 877.253 984.005 877.253 988.025V1008.27C877.253 1012.59 877.634 1016.1 878.396 1018.81C879.157 1021.48 880.384 1024.21 882.077 1027H861.638C863.33 1024.12 864.558 1021.33 865.319 1018.62C866.081 1015.87 866.462 1012.42 866.462 1008.27V991.644C866.462 985 865.171 980.345 862.59 977.679C860.051 975.013 855.671 973.68 849.45 973.68C848.435 973.68 847.334 973.722 846.149 973.807C844.965 973.849 843.632 973.955 842.15 974.124V1008.27C842.15 1012.59 842.531 1016.1 843.293 1018.81C844.055 1021.48 845.282 1024.21 846.975 1027H826.535C828.228 1024.12 829.455 1021.33 830.217 1018.62C830.979 1015.87 831.359 1012.42 831.359 1008.27V983.455C831.359 981.128 830.936 978.8 830.09 976.473C829.243 974.103 827.932 971.627 826.154 969.046L842.15 965.491ZM1002.49 973.807C1000.76 973.172 999.086 972.706 997.478 972.41C995.912 972.072 994.41 971.902 992.971 971.902C986.665 971.902 981.63 974.103 977.863 978.504C974.139 982.863 972.277 988.808 972.277 996.341C972.277 1003.83 974.182 1009.65 977.99 1013.8C981.841 1017.9 987.237 1019.95 994.177 1019.95C995.658 1019.95 997.076 1019.93 998.43 1019.89C999.826 1019.81 1001.16 1019.7 1002.43 1019.57L1002.49 973.807ZM1013.41 965.11V1035.82C1013.41 1039.8 1013.77 1043.1 1014.49 1045.73C1015.25 1048.35 1016.44 1051.04 1018.04 1053.79H997.795C999.403 1050.95 1000.59 1048.2 1001.35 1045.54C1002.11 1042.87 1002.49 1039.38 1002.49 1035.06V1020.53C998.091 1023.4 994.579 1025.35 991.955 1026.37C989.331 1027.38 986.729 1027.89 984.147 1027.89C977.461 1027.89 971.939 1025.24 967.58 1019.95C963.264 1014.62 961.105 1007.79 961.105 999.451C961.105 989.93 963.793 981.974 969.167 975.584C974.541 969.194 981.143 965.999 988.972 965.999C991.595 965.999 994.05 966.38 996.335 967.142C998.662 967.861 1000.8 968.919 1002.75 970.315L1013.41 965.11ZM1043.31 965.491V1001.42C1043.31 1009.21 1044.43 1014.26 1046.67 1016.59C1048.96 1018.92 1053.25 1020.08 1059.56 1020.08C1060.78 1020.08 1062.12 1020.04 1063.56 1019.95C1065.04 1019.87 1066.92 1019.7 1069.21 1019.45V983.455C1069.21 981.128 1068.78 978.8 1067.94 976.473C1067.09 974.103 1065.78 971.627 1064 969.046L1080.12 965.491V1010.5C1080.12 1012.91 1080.53 1015.26 1081.33 1017.54C1082.18 1019.83 1083.51 1022.24 1085.33 1024.78L1069.21 1028.46V1020.53C1064.59 1023.11 1060.57 1024.99 1057.15 1026.17C1053.72 1027.32 1050.59 1027.89 1047.75 1027.89C1042.25 1027.89 1038.34 1026.39 1036.01 1023.38C1033.72 1020.38 1032.58 1015.17 1032.58 1007.77V983.455C1032.58 981.128 1032.14 978.8 1031.25 976.473C1030.4 974.103 1029.11 971.627 1027.38 969.046L1043.31 965.491ZM1113.2 965.491V1008.27C1113.2 1012.59 1113.58 1016.1 1114.34 1018.81C1115.14 1021.48 1116.37 1024.21 1118.02 1027H1097.58C1099.27 1024.12 1100.5 1021.33 1101.26 1018.62C1102.02 1015.87 1102.4 1012.42 1102.4 1008.27V983.455C1102.4 981.128 1101.98 978.8 1101.13 976.473C1100.29 974.103 1098.98 971.627 1097.2 969.046L1113.2 965.491ZM1107.48 936.546C1109.51 936.546 1111.16 937.202 1112.43 938.514C1113.75 939.783 1114.4 941.455 1114.4 943.528C1114.4 945.813 1113.81 947.57 1112.62 948.797C1111.44 949.982 1109.73 950.574 1107.48 950.574C1105.37 950.574 1103.72 949.961 1102.53 948.733C1101.35 947.506 1100.75 945.771 1100.75 943.528C1100.75 941.455 1101.37 939.783 1102.59 938.514C1103.86 937.202 1105.49 936.546 1107.48 936.546ZM1182.07 994.246H1142.2V994.627C1142.2 1003.64 1144.36 1010.28 1148.68 1014.56C1153 1018.79 1159.77 1020.91 1168.99 1020.91C1170.98 1020.91 1173.12 1020.78 1175.4 1020.53C1177.69 1020.23 1180.1 1019.83 1182.64 1019.32C1179.17 1022.41 1175.38 1024.71 1171.28 1026.24C1167.21 1027.72 1162.75 1028.46 1157.88 1028.46C1149.59 1028.46 1142.97 1025.73 1138.01 1020.27C1133.06 1014.77 1130.59 1007.43 1130.59 998.245C1130.59 993.759 1131.22 989.633 1132.49 985.867C1133.8 982.059 1135.73 978.652 1138.27 975.647C1140.85 972.643 1143.9 970.294 1147.41 968.602C1150.96 966.867 1154.6 965.999 1158.33 965.999C1165.82 965.999 1171.57 968.411 1175.59 973.235C1179.66 978.06 1181.81 985.063 1182.07 994.246ZM1168.93 987.454C1168.89 981.91 1167.87 977.763 1165.88 975.013C1163.93 972.22 1161.01 970.823 1157.12 970.823C1152.68 970.823 1149.17 972.558 1146.58 976.028C1144 979.498 1142.58 984.407 1142.33 990.755L1168.93 987.454ZM1209.04 949.622V966.824H1228.91V972.537H1209.04V1007.89C1209.04 1013.39 1209.98 1016.95 1211.84 1018.56C1213.74 1020.12 1217.44 1020.91 1222.95 1020.91C1224.22 1020.91 1225.61 1020.84 1227.14 1020.72C1228.7 1020.55 1230.31 1020.33 1231.96 1020.08C1228.7 1022.75 1225.34 1024.82 1221.87 1026.3C1218.4 1027.74 1215.08 1028.46 1211.9 1028.46C1206.82 1028.46 1203.25 1027.13 1201.17 1024.46C1199.14 1021.79 1198.13 1016.8 1198.13 1009.48V972.537H1187.72C1192.33 968.644 1196.41 964.793 1199.97 960.984C1203.56 957.133 1206.59 953.346 1209.04 949.622ZM1285.47 934.959V1008.27C1285.47 1012.59 1285.85 1016.1 1286.61 1018.81C1287.38 1021.48 1288.6 1024.21 1290.29 1027H1269.86C1271.55 1024.12 1272.78 1021.33 1273.54 1018.62C1274.3 1015.87 1274.68 1012.42 1274.68 1008.27V952.923C1274.68 950.595 1274.26 948.247 1273.41 945.877C1272.56 943.507 1271.25 941.032 1269.47 938.45L1285.47 934.959ZM1316.26 965.491V1001.42C1316.26 1009.21 1317.38 1014.26 1319.62 1016.59C1321.91 1018.92 1326.2 1020.08 1332.51 1020.08C1333.73 1020.08 1335.07 1020.04 1336.51 1019.95C1337.99 1019.87 1339.87 1019.7 1342.16 1019.45V983.455C1342.16 981.128 1341.73 978.8 1340.89 976.473C1340.04 974.103 1338.73 971.627 1336.95 969.046L1353.07 965.491V1010.5C1353.07 1012.91 1353.48 1015.26 1354.28 1017.54C1355.13 1019.83 1356.46 1022.24 1358.28 1024.78L1342.16 1028.46V1020.53C1337.54 1023.11 1333.52 1024.99 1330.09 1026.17C1326.67 1027.32 1323.54 1027.89 1320.7 1027.89C1315.2 1027.89 1311.28 1026.39 1308.96 1023.38C1306.67 1020.38 1305.53 1015.17 1305.53 1007.77V983.455C1305.53 981.128 1305.08 978.8 1304.2 976.473C1303.35 974.103 1302.06 971.627 1300.32 969.046L1316.26 965.491ZM1364.56 966.824H1386.02C1385.34 967.84 1384.81 968.75 1384.43 969.554C1384.09 970.315 1383.92 971.014 1383.92 971.648C1383.92 972.114 1384.03 972.643 1384.24 973.235C1384.49 973.785 1385 974.674 1385.76 975.901L1394.46 989.295L1403.09 975.457C1403.14 975.372 1403.24 975.203 1403.41 974.949C1404.21 973.637 1404.62 972.622 1404.62 971.902C1404.62 971.395 1404.45 970.781 1404.11 970.062C1403.77 969.342 1403.11 968.263 1402.14 966.824H1419.03C1416.91 968.729 1414.81 970.866 1412.74 973.235C1410.67 975.605 1408.62 978.187 1406.58 980.979L1397.32 993.738L1409.57 1011.89C1412.15 1015.87 1414.35 1018.94 1416.17 1021.1C1418.03 1023.21 1420.04 1025.18 1422.2 1027H1399.79C1400.68 1025.94 1401.32 1025.03 1401.7 1024.27C1402.08 1023.47 1402.27 1022.77 1402.27 1022.18C1402.27 1021.37 1401.63 1019.91 1400.36 1017.8L1400.17 1017.48L1390.59 1002.69L1380.43 1018.81L1380.37 1018.94C1379.65 1020.08 1379.29 1021.08 1379.29 1021.92C1379.29 1022.73 1379.48 1023.55 1379.86 1024.4C1380.28 1025.24 1380.92 1026.11 1381.76 1027H1364.82C1366.26 1025.73 1367.72 1024.25 1369.2 1022.56C1370.68 1020.82 1372.22 1018.88 1373.83 1016.72L1387.6 998.245L1374.72 978.377C1373.45 976.388 1371.95 974.42 1370.21 972.474C1368.52 970.527 1366.64 968.644 1364.56 966.824ZM1444.1 965.491V1001.42C1444.1 1009.21 1445.22 1014.26 1447.46 1016.59C1449.75 1018.92 1454.04 1020.08 1460.35 1020.08C1461.58 1020.08 1462.91 1020.04 1464.35 1019.95C1465.83 1019.87 1467.71 1019.7 1470 1019.45V983.455C1470 981.128 1469.57 978.8 1468.73 976.473C1467.88 974.103 1466.57 971.627 1464.79 969.046L1480.92 965.491V1010.5C1480.92 1012.91 1481.32 1015.26 1482.12 1017.54C1482.97 1019.83 1484.3 1022.24 1486.12 1024.78L1470 1028.46V1020.53C1465.38 1023.11 1461.36 1024.99 1457.94 1026.17C1454.51 1027.32 1451.38 1027.89 1448.54 1027.89C1443.04 1027.89 1439.13 1026.39 1436.8 1023.38C1434.51 1020.38 1433.37 1015.17 1433.37 1007.77V983.455C1433.37 981.128 1432.93 978.8 1432.04 976.473C1431.19 974.103 1429.9 971.627 1428.17 969.046L1444.1 965.491ZM1513.73 965.491V974.251C1517.41 971.289 1520.55 969.173 1523.13 967.903C1525.71 966.634 1528.16 965.999 1530.49 965.999C1531.12 965.999 1531.87 966.105 1532.71 966.316C1533.6 966.486 1534.6 966.74 1535.7 967.078V980.091C1533.58 978.44 1531.23 977.192 1528.65 976.346C1526.11 975.457 1523.44 975.013 1520.65 975.013C1519.38 975.013 1518.18 975.055 1517.03 975.14C1515.89 975.224 1514.79 975.351 1513.73 975.521V1008.27C1513.73 1012.59 1514.11 1016.1 1514.88 1018.81C1515.64 1021.48 1516.86 1024.21 1518.56 1027H1498.12C1499.81 1024.12 1501.04 1021.33 1501.8 1018.62C1502.56 1015.87 1502.94 1012.42 1502.94 1008.27V983.455C1502.94 981.128 1502.52 978.8 1501.67 976.473C1500.83 974.103 1499.51 971.627 1497.74 969.046L1513.73 965.491ZM1541.03 966.824H1564.13C1562.82 968.39 1561.85 969.786 1561.21 971.014C1560.58 972.241 1560.26 973.32 1560.26 974.251C1560.26 974.886 1560.51 975.965 1561.02 977.488C1561.15 977.869 1561.23 978.123 1561.28 978.25L1574.8 1015.19L1586.1 978.123C1586.39 977.192 1586.6 976.346 1586.73 975.584C1586.9 974.78 1587.01 974.103 1587.05 973.553C1587.05 972.749 1586.79 971.839 1586.29 970.823C1585.78 969.765 1584.93 968.432 1583.75 966.824H1601.58C1599.72 968.644 1598.09 970.675 1596.7 972.918C1595.3 975.161 1593.99 977.89 1592.76 981.106L1572.32 1036.33C1570.12 1042.34 1567.41 1046.76 1564.2 1049.6C1560.98 1052.48 1557.11 1053.91 1552.58 1053.91C1551.44 1053.91 1550.15 1053.83 1548.71 1053.66C1547.27 1053.53 1545.75 1053.3 1544.14 1052.96V1039.25L1552.07 1045.98C1552.75 1046.53 1553.45 1046.97 1554.17 1047.31C1554.93 1047.65 1555.56 1047.82 1556.07 1047.82C1558.27 1047.82 1560.47 1046.13 1562.67 1042.74C1564.92 1039.4 1567.1 1034.49 1569.21 1028.02L1549.98 980.599C1549.89 980.429 1549.77 980.133 1549.6 979.71C1547.35 974.251 1544.5 969.956 1541.03 966.824ZM99.6016 1127.86C91.265 1128.54 85.5098 1129.75 82.3359 1131.48C79.2044 1133.22 77.6387 1135.93 77.6387 1139.61C77.6387 1143.08 78.887 1145.79 81.3838 1147.73C83.9229 1149.68 87.4564 1150.65 91.9844 1150.65C92.7884 1150.65 93.804 1150.63 95.0312 1150.59C96.2585 1150.5 97.7819 1150.38 99.6016 1150.21V1127.86ZM110.393 1114.72V1137.39C110.393 1141.91 110.795 1145.38 111.599 1147.8C112.445 1150.21 113.82 1152.58 115.725 1154.91L102.521 1158.46C101.802 1157.19 101.231 1155.96 100.808 1154.78C100.384 1153.59 100.067 1152.43 99.8555 1151.29L99.7285 1151.35C90.7148 1156.17 84.748 1158.59 81.8281 1158.59C77.3848 1158.59 73.5973 1156.94 70.4658 1153.64C67.3766 1150.29 65.832 1146.25 65.832 1141.51C65.832 1135.59 68.0114 1131.23 72.3701 1128.44C76.7288 1125.64 83.5632 1124.25 92.873 1124.25C93.6348 1124.25 94.46 1124.27 95.3486 1124.31C96.2373 1124.31 97.6549 1124.37 99.6016 1124.5V1112.69C99.6016 1108.97 98.7764 1106.09 97.126 1104.06C95.4756 1101.99 93.1481 1100.95 90.1436 1100.95C87.7738 1100.95 82.1455 1104.61 73.2588 1111.93L71.418 1113.46V1099.81C75.7767 1098.54 79.8604 1097.59 83.6689 1096.95C87.4775 1096.32 90.9264 1096 94.0156 1096C100.363 1096 104.68 1097.16 106.965 1099.49C109.25 1101.82 110.393 1106.9 110.393 1114.72ZM141.369 1095.49V1102.66C147.717 1099.96 152.393 1098.18 155.397 1097.33C158.402 1096.44 161.047 1096 163.332 1096C168.326 1096 172.049 1097.82 174.504 1101.46C176.958 1105.1 178.186 1110.62 178.186 1118.03V1138.27C178.186 1142.59 178.566 1146.1 179.328 1148.81C180.09 1151.48 181.296 1154.21 182.946 1157H162.57C164.221 1154.12 165.427 1151.33 166.188 1148.62C166.993 1145.87 167.395 1142.42 167.395 1138.27V1121.64C167.395 1114.83 166.083 1110.13 163.459 1107.55C160.835 1104.97 156.075 1103.68 149.177 1103.68C147.907 1103.68 146.617 1103.72 145.305 1103.81C143.993 1103.85 142.681 1103.95 141.369 1104.12V1139.04C141.369 1143.01 141.729 1146.31 142.448 1148.94C143.21 1151.56 144.416 1154.25 146.066 1157H125.754C127.404 1154.21 128.589 1151.48 129.309 1148.81C130.07 1146.1 130.451 1142.59 130.451 1138.27V1113.46C130.451 1110.92 130.049 1108.53 129.245 1106.28C128.483 1104.04 127.193 1101.63 125.373 1099.05L141.369 1095.49ZM235.314 1104.25C233.749 1103.53 232.141 1103 230.49 1102.66C228.882 1102.33 227.147 1102.16 225.285 1102.16C219.064 1102.16 214.134 1104.38 210.495 1108.82C206.898 1113.26 205.1 1119.32 205.1 1126.98C205.1 1134.76 207.046 1140.71 210.939 1144.81C214.833 1148.88 220.482 1150.91 227.888 1150.91C228.861 1150.91 229.919 1150.84 231.062 1150.72C232.246 1150.55 233.664 1150.29 235.314 1149.95V1104.25ZM246.105 1064.83V1136.43C246.105 1141.51 246.486 1145.36 247.248 1147.99C248.052 1150.57 249.343 1153.04 251.12 1155.41L235.314 1158.84V1151.16C231.802 1153.61 228.438 1155.5 225.222 1156.81C222.048 1158.08 219.17 1158.71 216.589 1158.71C209.945 1158.71 204.401 1155.94 199.958 1150.4C195.515 1144.85 193.293 1137.87 193.293 1129.45C193.293 1120.27 196.022 1112.44 201.481 1105.96C206.983 1099.45 213.479 1096.19 220.969 1096.19C223.592 1096.19 226.068 1096.53 228.396 1097.21C230.765 1097.88 233.072 1098.92 235.314 1100.32V1086.41C235.314 1083.49 234.87 1080.76 233.981 1078.23C233.135 1075.64 231.527 1072.47 229.157 1068.7L246.105 1064.83ZM312.375 1095.49V1138.27C312.375 1142.59 312.756 1146.1 313.518 1148.81C314.322 1151.48 315.549 1154.21 317.199 1157H296.76C298.452 1154.12 299.68 1151.33 300.441 1148.62C301.203 1145.87 301.584 1142.42 301.584 1138.27V1113.46C301.584 1111.13 301.161 1108.8 300.314 1106.47C299.468 1104.1 298.156 1101.63 296.379 1099.05L312.375 1095.49ZM306.662 1066.55C308.693 1066.55 310.344 1067.2 311.613 1068.51C312.925 1069.78 313.581 1071.45 313.581 1073.53C313.581 1075.81 312.989 1077.57 311.804 1078.8C310.619 1079.98 308.905 1080.57 306.662 1080.57C304.546 1080.57 302.896 1079.96 301.711 1078.73C300.526 1077.51 299.934 1075.77 299.934 1073.53C299.934 1071.45 300.547 1069.78 301.774 1068.51C303.044 1067.2 304.673 1066.55 306.662 1066.55ZM345.002 1095.49V1102.66C351.35 1099.96 356.026 1098.18 359.03 1097.33C362.035 1096.44 364.68 1096 366.965 1096C371.958 1096 375.682 1097.82 378.137 1101.46C380.591 1105.1 381.818 1110.62 381.818 1118.03V1138.27C381.818 1142.59 382.199 1146.1 382.961 1148.81C383.723 1151.48 384.929 1154.21 386.579 1157H366.203C367.854 1154.12 369.06 1151.33 369.821 1148.62C370.625 1145.87 371.027 1142.42 371.027 1138.27V1121.64C371.027 1114.83 369.715 1110.13 367.092 1107.55C364.468 1104.97 359.707 1103.68 352.81 1103.68C351.54 1103.68 350.249 1103.72 348.938 1103.81C347.626 1103.85 346.314 1103.95 345.002 1104.12V1139.04C345.002 1143.01 345.362 1146.31 346.081 1148.94C346.843 1151.56 348.049 1154.25 349.699 1157H329.387C331.037 1154.21 332.222 1151.48 332.941 1148.81C333.703 1146.1 334.084 1142.59 334.084 1138.27V1113.46C334.084 1110.92 333.682 1108.53 332.878 1106.28C332.116 1104.04 330.826 1101.63 329.006 1099.05L345.002 1095.49ZM412.795 1095.49V1102.66C419.143 1099.96 423.819 1098.18 426.823 1097.33C429.828 1096.44 432.473 1096 434.758 1096C439.751 1096 443.475 1097.82 445.93 1101.46C448.384 1105.1 449.611 1110.62 449.611 1118.03V1138.27C449.611 1142.59 449.992 1146.1 450.754 1148.81C451.516 1151.48 452.722 1154.21 454.372 1157H433.996C435.646 1154.12 436.853 1151.33 437.614 1148.62C438.418 1145.87 438.82 1142.42 438.82 1138.27V1121.64C438.82 1114.83 437.508 1110.13 434.885 1107.55C432.261 1104.97 427.5 1103.68 420.603 1103.68C419.333 1103.68 418.042 1103.72 416.73 1103.81C415.419 1103.85 414.107 1103.95 412.795 1104.12V1139.04C412.795 1143.01 413.155 1146.31 413.874 1148.94C414.636 1151.56 415.842 1154.25 417.492 1157H397.18C398.83 1154.21 400.015 1151.48 400.734 1148.81C401.496 1146.1 401.877 1142.59 401.877 1138.27V1113.46C401.877 1110.92 401.475 1108.53 400.671 1106.28C399.909 1104.04 398.618 1101.63 396.799 1099.05L412.795 1095.49ZM493.474 1100.82C488.48 1100.82 484.587 1103 481.794 1107.36C479.001 1111.72 477.604 1117.81 477.604 1125.64C477.604 1134.49 479.107 1141.45 482.111 1146.53C485.116 1151.6 489.2 1154.14 494.362 1154.14C499.356 1154.14 503.249 1151.96 506.042 1147.61C508.835 1143.25 510.231 1137.15 510.231 1129.32C510.231 1120.52 508.708 1113.58 505.661 1108.5C502.657 1103.38 498.594 1100.82 493.474 1100.82ZM464.973 1127.48C464.973 1118.39 467.744 1110.87 473.288 1104.95C478.874 1098.98 485.899 1096 494.362 1096C502.614 1096 509.427 1098.98 514.802 1104.95C520.176 1110.87 522.863 1118.43 522.863 1127.61C522.863 1136.71 520.091 1144.22 514.548 1150.14C509.004 1156.03 501.979 1158.97 493.474 1158.97C485.222 1158.97 478.409 1156.03 473.034 1150.14C467.66 1144.22 464.973 1136.67 464.973 1127.48ZM526.354 1096.82H549.587L549.206 1097.46C547.132 1100.51 546.096 1102.71 546.096 1104.06C546.096 1104.65 546.18 1105.39 546.35 1106.28C546.561 1107.13 546.836 1108.08 547.175 1109.14L559.87 1147.22L571.232 1109.14C571.571 1107.95 571.846 1106.83 572.058 1105.77C572.269 1104.72 572.375 1103.89 572.375 1103.3C572.375 1102.54 572.121 1101.65 571.613 1100.63C571.105 1099.57 570.28 1098.31 569.138 1096.82H587.355C585.451 1098.56 583.632 1100.82 581.896 1103.62C580.161 1106.41 578.638 1109.56 577.326 1113.07L560.441 1157.63H552.888L537.399 1115.23L537.272 1114.85C534.31 1106.9 530.671 1100.89 526.354 1096.82ZM624.553 1127.86C616.216 1128.54 610.461 1129.75 607.287 1131.48C604.156 1133.22 602.59 1135.93 602.59 1139.61C602.59 1143.08 603.838 1145.79 606.335 1147.73C608.874 1149.68 612.408 1150.65 616.936 1150.65C617.74 1150.65 618.755 1150.63 619.982 1150.59C621.21 1150.5 622.733 1150.38 624.553 1150.21V1127.86ZM635.344 1114.72V1137.39C635.344 1141.91 635.746 1145.38 636.55 1147.8C637.396 1150.21 638.771 1152.58 640.676 1154.91L627.473 1158.46C626.753 1157.19 626.182 1155.96 625.759 1154.78C625.336 1153.59 625.018 1152.43 624.807 1151.29L624.68 1151.35C615.666 1156.17 609.699 1158.59 606.779 1158.59C602.336 1158.59 598.549 1156.94 595.417 1153.64C592.328 1150.29 590.783 1146.25 590.783 1141.51C590.783 1135.59 592.963 1131.23 597.321 1128.44C601.68 1125.64 608.514 1124.25 617.824 1124.25C618.586 1124.25 619.411 1124.27 620.3 1124.31C621.188 1124.31 622.606 1124.37 624.553 1124.5V1112.69C624.553 1108.97 623.728 1106.09 622.077 1104.06C620.427 1101.99 618.099 1100.95 615.095 1100.95C612.725 1100.95 607.097 1104.61 598.21 1111.93L596.369 1113.46V1099.81C600.728 1098.54 604.812 1097.59 608.62 1096.95C612.429 1096.32 615.878 1096 618.967 1096C625.314 1096 629.631 1097.16 631.916 1099.49C634.201 1101.82 635.344 1106.9 635.344 1114.72ZM666.574 1079.62V1096.82H686.442V1102.54H666.574V1137.89C666.574 1143.39 667.505 1146.95 669.367 1148.56C671.271 1150.12 674.974 1150.91 680.476 1150.91C681.745 1150.91 683.142 1150.84 684.665 1150.72C686.231 1150.55 687.839 1150.33 689.489 1150.08C686.231 1152.75 682.867 1154.82 679.396 1156.3C675.926 1157.74 672.604 1158.46 669.431 1158.46C664.353 1158.46 660.777 1157.13 658.703 1154.46C656.672 1151.79 655.656 1146.8 655.656 1139.48V1102.54H645.246C649.859 1098.64 653.942 1094.79 657.497 1090.98C661.094 1087.13 664.12 1083.35 666.574 1079.62ZM710.754 1095.49V1138.27C710.754 1142.59 711.135 1146.1 711.896 1148.81C712.701 1151.48 713.928 1154.21 715.578 1157H695.139C696.831 1154.12 698.059 1151.33 698.82 1148.62C699.582 1145.87 699.963 1142.42 699.963 1138.27V1113.46C699.963 1111.13 699.54 1108.8 698.693 1106.47C697.847 1104.1 696.535 1101.63 694.758 1099.05L710.754 1095.49ZM705.041 1066.55C707.072 1066.55 708.723 1067.2 709.992 1068.51C711.304 1069.78 711.96 1071.45 711.96 1073.53C711.96 1075.81 711.368 1077.57 710.183 1078.8C708.998 1079.98 707.284 1080.57 705.041 1080.57C702.925 1080.57 701.275 1079.96 700.09 1078.73C698.905 1077.51 698.312 1075.77 698.312 1073.53C698.312 1071.45 698.926 1069.78 700.153 1068.51C701.423 1067.2 703.052 1066.55 705.041 1066.55ZM719.323 1096.82H742.556L742.175 1097.46C740.101 1100.51 739.064 1102.71 739.064 1104.06C739.064 1104.65 739.149 1105.39 739.318 1106.28C739.53 1107.13 739.805 1108.08 740.144 1109.14L752.839 1147.22L764.201 1109.14C764.54 1107.95 764.815 1106.83 765.026 1105.77C765.238 1104.72 765.344 1103.89 765.344 1103.3C765.344 1102.54 765.09 1101.65 764.582 1100.63C764.074 1099.57 763.249 1098.31 762.106 1096.82H780.324C778.42 1098.56 776.6 1100.82 774.865 1103.62C773.13 1106.41 771.607 1109.56 770.295 1113.07L753.41 1157.63H745.856L730.368 1115.23L730.241 1114.85C727.279 1106.9 723.64 1100.89 719.323 1096.82ZM836.247 1124.25H796.384V1124.63C796.384 1133.64 798.542 1140.28 802.858 1144.56C807.175 1148.79 813.946 1150.91 823.171 1150.91C825.16 1150.91 827.297 1150.78 829.582 1150.53C831.867 1150.23 834.279 1149.83 836.818 1149.32C833.348 1152.41 829.561 1154.71 825.456 1156.24C821.394 1157.72 816.929 1158.46 812.062 1158.46C803.768 1158.46 797.146 1155.73 792.194 1150.27C787.243 1144.77 784.768 1137.43 784.768 1128.25C784.768 1123.76 785.402 1119.63 786.672 1115.87C787.984 1112.06 789.909 1108.65 792.448 1105.65C795.03 1102.64 798.076 1100.29 801.589 1098.6C805.144 1096.87 808.783 1096 812.507 1096C819.997 1096 825.752 1098.41 829.772 1103.24C833.835 1108.06 835.993 1115.06 836.247 1124.25ZM823.107 1117.45C823.065 1111.91 822.049 1107.76 820.061 1105.01C818.114 1102.22 815.194 1100.82 811.301 1100.82C806.857 1100.82 803.345 1102.56 800.764 1106.03C798.182 1109.5 796.765 1114.41 796.511 1120.75L823.107 1117.45ZM922.385 1104.25C920.819 1103.53 919.211 1103 917.561 1102.66C915.952 1102.33 914.217 1102.16 912.355 1102.16C906.135 1102.16 901.205 1104.38 897.565 1108.82C893.968 1113.26 892.17 1119.32 892.17 1126.98C892.17 1134.76 894.117 1140.71 898.01 1144.81C901.903 1148.88 907.552 1150.91 914.958 1150.91C915.931 1150.91 916.989 1150.84 918.132 1150.72C919.317 1150.55 920.734 1150.29 922.385 1149.95V1104.25ZM933.176 1064.83V1136.43C933.176 1141.51 933.557 1145.36 934.318 1147.99C935.122 1150.57 936.413 1153.04 938.19 1155.41L922.385 1158.84V1151.16C918.872 1153.61 915.508 1155.5 912.292 1156.81C909.118 1158.08 906.241 1158.71 903.659 1158.71C897.015 1158.71 891.472 1155.94 887.028 1150.4C882.585 1144.85 880.363 1137.87 880.363 1129.45C880.363 1120.27 883.093 1112.44 888.552 1105.96C894.053 1099.45 900.549 1096.19 908.039 1096.19C910.663 1096.19 913.138 1096.53 915.466 1097.21C917.836 1097.88 920.142 1098.92 922.385 1100.32V1086.41C922.385 1083.49 921.94 1080.76 921.052 1078.23C920.205 1075.64 918.597 1072.47 916.228 1068.7L933.176 1064.83ZM1001.67 1124.25H961.804V1124.63C961.804 1133.64 963.962 1140.28 968.278 1144.56C972.595 1148.79 979.366 1150.91 988.591 1150.91C990.58 1150.91 992.717 1150.78 995.002 1150.53C997.287 1150.23 999.699 1149.83 1002.24 1149.32C998.768 1152.41 994.981 1154.71 990.876 1156.24C986.813 1157.72 982.349 1158.46 977.482 1158.46C969.188 1158.46 962.565 1155.73 957.614 1150.27C952.663 1144.77 950.188 1137.43 950.188 1128.25C950.188 1123.76 950.822 1119.63 952.092 1115.87C953.404 1112.06 955.329 1108.65 957.868 1105.65C960.45 1102.64 963.496 1100.29 967.009 1098.6C970.563 1096.87 974.203 1096 977.927 1096C985.417 1096 991.172 1098.41 995.192 1103.24C999.255 1108.06 1001.41 1115.06 1001.67 1124.25ZM988.527 1117.45C988.485 1111.91 987.469 1107.76 985.48 1105.01C983.534 1102.22 980.614 1100.82 976.721 1100.82C972.277 1100.82 968.765 1102.56 966.184 1106.03C963.602 1109.5 962.185 1114.41 961.931 1120.75L988.527 1117.45ZM1050.99 1098.09V1112C1044.68 1107.21 1040.39 1104.17 1038.1 1102.85C1035.82 1101.5 1034.02 1100.82 1032.71 1100.82C1030.38 1100.82 1028.37 1101.67 1026.68 1103.36C1025.03 1105.06 1024.2 1107.11 1024.2 1109.52C1024.2 1111.47 1024.88 1113.24 1026.23 1114.85C1027.63 1116.42 1029.83 1117.98 1032.83 1119.55L1041.53 1124.12C1045.93 1126.45 1049 1128.77 1050.73 1131.1C1052.47 1133.39 1053.34 1136.22 1053.34 1139.61C1053.34 1145.62 1051.37 1150.29 1047.43 1153.64C1043.5 1156.94 1037.93 1158.59 1030.74 1158.59C1028.37 1158.59 1025.72 1158.33 1022.8 1157.83C1019.93 1157.36 1016.84 1156.66 1013.54 1155.73V1141.13C1020.1 1146.51 1024.6 1149.95 1027.06 1151.48C1029.51 1153 1031.52 1153.76 1033.09 1153.76C1035.71 1153.76 1037.95 1152.81 1039.82 1150.91C1041.72 1149 1042.67 1146.7 1042.67 1143.99C1042.67 1141.79 1042.08 1139.95 1040.9 1138.46C1039.75 1136.94 1037.62 1135.4 1034.48 1133.83L1027.76 1130.47C1023.1 1128.14 1019.69 1125.62 1017.54 1122.91C1015.42 1120.16 1014.36 1117.01 1014.36 1113.46C1014.36 1108.25 1016.27 1104.04 1020.08 1100.82C1023.88 1097.61 1028.9 1096 1035.12 1096C1037.4 1096 1039.9 1096.19 1042.61 1096.57C1045.32 1096.91 1048.11 1097.42 1050.99 1098.09ZM1080.95 1095.49V1138.27C1080.95 1142.59 1081.33 1146.1 1082.09 1148.81C1082.9 1151.48 1084.12 1154.21 1085.77 1157H1065.33C1067.03 1154.12 1068.25 1151.33 1069.02 1148.62C1069.78 1145.87 1070.16 1142.42 1070.16 1138.27V1113.46C1070.16 1111.13 1069.74 1108.8 1068.89 1106.47C1068.04 1104.1 1066.73 1101.63 1064.95 1099.05L1080.95 1095.49ZM1075.24 1066.55C1077.27 1066.55 1078.92 1067.2 1080.19 1068.51C1081.5 1069.78 1082.16 1071.45 1082.16 1073.53C1082.16 1075.81 1081.56 1077.57 1080.38 1078.8C1079.19 1079.98 1077.48 1080.57 1075.24 1080.57C1073.12 1080.57 1071.47 1079.96 1070.29 1078.73C1069.1 1077.51 1068.51 1075.77 1068.51 1073.53C1068.51 1071.45 1069.12 1069.78 1070.35 1068.51C1071.62 1067.2 1073.25 1066.55 1075.24 1066.55ZM1110.47 1156.24C1108.98 1158.02 1107.84 1159.79 1107.04 1161.57C1106.28 1163.35 1105.9 1165 1105.9 1166.52C1105.9 1169.95 1107.42 1172.7 1110.47 1174.77C1113.51 1176.89 1117.58 1177.95 1122.65 1177.95C1128.32 1177.95 1133.13 1176.61 1137.06 1173.95C1141 1171.28 1142.97 1168.11 1142.97 1164.43C1142.97 1161.72 1142.1 1159.79 1140.36 1158.65C1138.67 1157.55 1135.58 1157 1131.1 1157H1118.91C1116.83 1157 1115.18 1156.94 1113.96 1156.81C1112.73 1156.68 1111.57 1156.49 1110.47 1156.24ZM1121.38 1100.44C1118.08 1100.44 1115.48 1101.65 1113.58 1104.06C1111.67 1106.43 1110.72 1109.69 1110.72 1113.84C1110.72 1118.66 1111.86 1122.66 1114.15 1125.83C1116.43 1129.01 1119.27 1130.59 1122.65 1130.59C1125.74 1130.59 1128.24 1129.41 1130.14 1127.04C1132.09 1124.63 1133.06 1121.47 1133.06 1117.58C1133.06 1112.5 1131.96 1108.38 1129.76 1105.2C1127.6 1102.03 1124.81 1100.44 1121.38 1100.44ZM1154.52 1096V1105.39L1137.13 1101.33C1139.37 1103.28 1141.06 1105.46 1142.2 1107.87C1143.39 1110.28 1143.98 1112.84 1143.98 1115.55C1143.98 1121.26 1141.99 1125.92 1138.01 1129.51C1134.08 1133.11 1128.96 1134.91 1122.65 1134.91C1121.85 1134.91 1120.96 1134.89 1119.99 1134.85C1119.01 1134.76 1117.91 1134.66 1116.69 1134.53C1116.18 1135.5 1115.8 1136.48 1115.54 1137.45C1115.29 1138.38 1115.16 1139.23 1115.16 1139.99C1115.16 1142.23 1115.86 1143.84 1117.26 1144.81C1118.65 1145.74 1121.11 1146.21 1124.62 1146.21H1135.92C1141.46 1146.21 1145.4 1147.2 1147.73 1149.19C1150.1 1151.14 1151.28 1154.36 1151.28 1158.84C1151.28 1162.23 1150.56 1165.4 1149.12 1168.36C1147.68 1171.37 1145.63 1173.91 1142.97 1175.98C1139.79 1178.52 1136.24 1180.44 1132.3 1181.76C1128.37 1183.11 1124.24 1183.79 1119.92 1183.79C1112.94 1183.79 1107.08 1182.41 1102.34 1179.66C1097.6 1176.91 1095.23 1173.65 1095.23 1169.89C1095.23 1167.81 1096.1 1165.78 1097.83 1163.79C1099.61 1161.85 1103.34 1159.01 1109.01 1155.29C1107.31 1154.65 1105.98 1153.68 1105.01 1152.37C1104.03 1151.05 1103.55 1149.57 1103.55 1147.92C1103.55 1145.85 1104.48 1143.75 1106.34 1141.64C1108.2 1139.52 1111.27 1137.11 1115.54 1134.4C1110.47 1133.47 1106.53 1131.42 1103.74 1128.25C1100.94 1125.07 1099.55 1121.05 1099.55 1116.18C1099.55 1110.3 1101.64 1105.48 1105.83 1101.71C1110.02 1097.9 1115.42 1096 1122.02 1096C1124.52 1096 1126.84 1096.36 1129 1097.08C1131.2 1097.76 1133.34 1098.79 1135.41 1100.19L1154.52 1096ZM1179.21 1095.49V1102.66C1185.56 1099.96 1190.23 1098.18 1193.24 1097.33C1196.24 1096.44 1198.89 1096 1201.17 1096C1206.17 1096 1209.89 1097.82 1212.35 1101.46C1214.8 1105.1 1216.03 1110.62 1216.03 1118.03V1138.27C1216.03 1142.59 1216.41 1146.1 1217.17 1148.81C1217.93 1151.48 1219.14 1154.21 1220.79 1157H1200.41C1202.06 1154.12 1203.27 1151.33 1204.03 1148.62C1204.83 1145.87 1205.24 1142.42 1205.24 1138.27V1121.64C1205.24 1114.83 1203.92 1110.13 1201.3 1107.55C1198.68 1104.97 1193.92 1103.68 1187.02 1103.68C1185.75 1103.68 1184.46 1103.72 1183.15 1103.81C1181.83 1103.85 1180.52 1103.95 1179.21 1104.12V1139.04C1179.21 1143.01 1179.57 1146.31 1180.29 1148.94C1181.05 1151.56 1182.26 1154.25 1183.91 1157H1163.6C1165.25 1154.21 1166.43 1151.48 1167.15 1148.81C1167.91 1146.1 1168.29 1142.59 1168.29 1138.27V1113.46C1168.29 1110.92 1167.89 1108.53 1167.09 1106.28C1166.33 1104.04 1165.03 1101.63 1163.21 1099.05L1179.21 1095.49ZM1236.85 1150.4C1236.85 1147.73 1237.52 1145.64 1238.88 1144.11C1240.28 1142.55 1242.16 1141.77 1244.53 1141.77C1246.81 1141.77 1248.57 1142.53 1249.8 1144.05C1251.07 1145.53 1251.7 1147.65 1251.7 1150.4C1251.7 1152.85 1251.02 1154.74 1249.67 1156.05C1248.32 1157.36 1246.39 1158.02 1243.89 1158.02C1241.61 1158.02 1239.85 1157.38 1238.62 1156.11C1237.44 1154.8 1236.85 1152.9 1236.85 1150.4Z" fill="#222222" style="fill:#222222;fill:color(display-p3 0.1333 0.1333 0.1333);fill-opacity:1;"/>
</g>
<defs>
<clipPath id="clip0_1459_113">
<rect width="917" height="1236" fill="white" style="fill:white;fill-opacity:1;" transform="translate(0.5)"/>
</clipPath>
</defs>
</svg>
