<svg width="1000" height="1335" viewBox="0 0 1000 1335" fill="none" xmlns="http://www.w3.org/2000/svg">
<rect width="1000" height="1335" fill="#761414" style="fill:#761414;fill:color(display-p3 0.4642 0.0776 0.0776);fill-opacity:1;"/>
<path d="M54.5253 73.6836H50.1666V54.8132H29.6553V73.6836H25.2967V36.6095H29.6553V54.1979H50.1666V36.6095H54.5253V73.6836ZM69.1395 73.0683H72.4213C77.3953 73.0683 84.6256 72.8631 89.3432 70.6582L88.7791 73.6836H64.7809V36.6095H88.0612L88.215 39.3785C84.7281 37.3273 80.2669 37.2248 74.8314 37.2248H69.1395V53.9415H72.5752C75.7032 53.9415 81.1899 53.48 82.677 53.1723V55.2234C81.1899 54.967 75.7032 54.5568 72.5752 54.5568H69.1395V73.0683ZM110.235 36.6095L124.439 73.6836H119.875C119.363 72.094 116.799 65.0689 114.594 58.6591H101.466L99.6717 63.2741C98.7487 65.4791 97.1078 70.3505 96.3386 73.6836H94.39C95.7233 71.1197 98.6974 63.9407 101.518 56.5567L105.979 44.5063C106.902 42.0449 107.927 39.3272 109.004 36.6095H110.235ZM114.337 58.0437L107.979 41.1219L101.672 58.0437H114.337ZM132.132 73.6836V36.6095H134.952C137.823 36.6095 142.233 36.3531 145.156 36.3531C163.565 36.3531 165.206 49.3264 165.206 53.7877C165.206 60.4538 162.591 73.94 145.156 73.94C143.772 73.94 141.874 73.8374 140.08 73.7862C138.49 73.7349 136.952 73.6836 135.875 73.6836H132.132ZM160.437 54.2492C160.437 47.8907 157.617 36.9684 145.156 36.9684C142.592 36.9684 139.67 37.1222 136.49 37.6863V72.5555C138.388 72.9657 142.336 73.3246 145.002 73.3246C155.873 73.3246 160.437 64.4535 160.437 54.2492ZM178.078 73.0683H180.949C185.923 73.0683 193.205 72.8631 197.922 70.6582L197.358 73.6836H173.719V36.6095H178.078V73.0683ZM208.949 36.6095V73.6836H204.59V36.6095H208.949ZM245.902 48.0958C245.902 45.2755 245.8 39.5323 245.287 36.6095H247.338C246.774 39.1734 246.62 44.814 246.62 49.6341V74.4015H245.954L220.93 43.3269V61.1204C220.93 66.197 221.032 70.5556 221.596 73.6836H219.545C220.314 70.5043 220.161 63.5305 220.212 61.1204V42.4552C218.776 40.6092 216.981 38.4555 215.597 36.6095H221.032L245.902 67.7353V48.0958ZM261.928 73.0683H265.209C270.183 73.0683 277.414 72.8631 282.131 70.6582L281.567 73.6836H257.569V36.6095H280.849L281.003 39.3785C277.516 37.3273 273.055 37.2248 267.619 37.2248H261.928V53.9415H265.363C268.491 53.9415 273.978 53.48 275.465 53.1723V55.2234C273.978 54.967 268.491 54.5568 265.363 54.5568H261.928V73.0683ZM312.202 64.4022C312.202 69.6839 307.689 74.4015 299.792 74.4015C298.254 74.4015 293.075 74.1964 287.999 71.3761L288.306 68.5045C290.357 71.0684 294.049 73.7862 299.741 73.7862C305.946 73.7862 308.459 70.2992 308.459 66.6585C308.459 62.0947 303.895 58.7104 298.767 56.0952C293.229 53.121 288.204 50.1469 288.204 44.5576C288.204 39.9938 291.434 35.789 299.434 35.789C303.536 35.789 306.818 36.8658 309.433 38.3016L309.125 41.1732C307.228 38.5067 304.151 36.4043 299.434 36.4043C293.588 36.4043 291.896 39.3272 291.896 42.1988C291.896 47.1728 296.306 49.6854 301.331 52.2493C306.612 55.0696 312.202 58.3514 312.202 64.4022Z" fill="white" style="fill:white;fill-opacity:1;"/>
<path d="M46.4702 1196.87V1303.41H33.9443V1196.87H46.4702ZM86.7003 1216.76L60.7644 1240.78L117.204 1303.41H100.847L50.7437 1247.41L74.7639 1225.01C87.8792 1212.63 100.552 1199.37 102.615 1196.87H109.099C106.889 1198.64 91.2685 1212.63 86.7003 1216.76ZM212.569 1230.02C212.569 1218.38 212.569 1207.18 211.095 1196.87H216.4C214.779 1207.33 215.074 1218.23 214.632 1231.35V1256.84C214.632 1284.25 205.79 1304.88 175.433 1304.88C132.256 1304.88 132.698 1275.85 132.698 1266.27V1196.87H145.224V1268.78C145.224 1296.93 165.708 1302.53 175.581 1302.53C205.348 1302.53 212.569 1281.9 212.569 1256.84V1230.02ZM248.858 1303.41V1196.87H256.963C265.216 1196.87 277.889 1196.13 286.288 1196.13C339.192 1196.13 343.907 1233.41 343.907 1246.23C343.907 1265.39 336.392 1304.15 286.288 1304.15C282.31 1304.15 276.857 1303.85 271.7 1303.7C267.131 1303.56 262.71 1303.41 259.616 1303.41H248.858ZM330.203 1247.56C330.203 1229.29 322.098 1197.9 286.288 1197.9C278.92 1197.9 270.521 1198.34 261.384 1199.96V1300.17C266.837 1301.35 278.183 1302.38 285.846 1302.38C317.087 1302.38 330.203 1276.88 330.203 1247.56ZM453.4 1301.94C457.379 1301.94 459 1296.78 459.148 1292.95H460.916C460.769 1297.37 459.737 1305.47 448.243 1305.47C435.717 1305.47 428.643 1293.09 420.686 1274.53C414.054 1259.05 401.676 1247.71 385.319 1248.59V1303.41H372.793V1196.87H374.856C384.729 1197.01 396.813 1195.25 406.539 1195.25C440.727 1195.25 446.916 1210.13 446.916 1222.07C446.916 1240.49 428.496 1250.51 406.097 1250.65C422.159 1255.66 431.443 1265.83 437.19 1276.15C440.138 1281.31 443.085 1288.08 445.295 1292.95C446.916 1296.48 449.274 1301.94 453.4 1301.94ZM433.212 1222.8C433.212 1205.56 422.159 1197.01 404.918 1197.01C397.402 1197.01 389.74 1198.49 385.319 1199.52V1246.82L393.129 1247.56C397.108 1248 401.234 1248.44 405.213 1248.44C422.159 1248.44 433.212 1237.69 433.212 1222.8ZM520.503 1196.87L561.323 1303.41H548.208C546.734 1298.84 539.366 1278.65 533.029 1260.23H495.304L490.147 1273.5C487.494 1279.83 482.779 1293.83 480.568 1303.41H474.968C478.8 1296.04 487.347 1275.41 495.452 1254.19L508.272 1219.56C510.925 1212.49 513.872 1204.68 516.967 1196.87H520.503ZM532.293 1258.46L514.02 1209.83L495.894 1258.46H532.293ZM649.517 1276.74C649.517 1291.92 636.549 1305.47 613.856 1305.47C609.435 1305.47 594.551 1304.88 579.962 1296.78L580.846 1288.53C586.741 1295.89 597.351 1303.7 613.708 1303.7C631.539 1303.7 638.76 1293.68 638.76 1283.22C638.76 1270.11 625.645 1260.38 610.908 1252.86C594.993 1244.32 580.552 1235.77 580.552 1219.71C580.552 1206.59 589.835 1194.51 612.824 1194.51C624.613 1194.51 634.044 1197.6 641.56 1201.73L640.676 1209.98C635.223 1202.32 626.381 1196.28 612.824 1196.28C596.025 1196.28 591.162 1204.68 591.162 1212.93C591.162 1227.22 603.835 1234.44 618.276 1241.81C633.455 1249.92 649.517 1259.35 649.517 1276.74ZM761.244 1303.41H748.718V1249.18H689.773V1303.41H677.247V1196.87H689.773V1247.41H748.718V1196.87H761.244V1303.41ZM807.663 1301.64H817.095C831.389 1301.64 852.167 1301.05 865.724 1294.72L864.103 1303.41H795.137V1196.87H862.04L862.482 1204.82C852.462 1198.93 839.641 1198.64 824.021 1198.64H807.663V1246.68H817.537C826.526 1246.68 842.294 1245.35 846.567 1244.46V1250.36C842.294 1249.62 826.526 1248.44 817.537 1248.44H807.663V1301.64ZM936.079 1290.15C947.573 1263.03 955.825 1243.43 961.425 1229.29C969.677 1208.51 972.183 1201.14 973.361 1196.87H978.961C977.34 1199.81 971.593 1212.34 969.235 1217.5C964.962 1226.93 961.278 1236.8 931.952 1305.47H929.889L883.175 1196.87H896.438L936.079 1290.15Z" fill="white" style="fill:white;fill-opacity:1;"/>
</svg>
