<svg width="1500" height="1000" viewBox="0 0 1500 1000" fill="none" xmlns="http://www.w3.org/2000/svg">
<rect width="1500" height="1000" fill="#761414" style="fill:#761414;fill:color(display-p3 0.4642 0.0776 0.0776);fill-opacity:1;"/>
<path d="M252.5 449.03V469.676H255.535V460.308H263.816V461.695C263.816 463.343 264.678 464.018 265.615 464.018C267.526 464.018 270.111 461.17 270.111 459.259C270.111 458.36 269.511 457.648 267.825 457.648H266.851V449.03H271.572V446.37H248.641V449.03H252.5ZM255.535 449.03H263.816V457.648H255.535V449.03Z" fill="#FDFCFA" style="fill:#FDFCFA;fill:color(display-p3 0.9925 0.9895 0.9820);fill-opacity:1;"/>
<path d="M256.048 502.9V523.545H259.083V502.9H262.418V500.239H259.12C261.144 493.795 261.893 492.708 264.404 492.708C265.453 492.708 266.614 492.97 267.514 493.307L268.338 490.647C267.289 490.235 265.865 489.973 264.591 489.973C260.207 489.973 258.858 492.108 256.348 500.239H252.189V502.9H256.048Z" fill="#FDFCFA" style="fill:#FDFCFA;fill:color(display-p3 0.9925 0.9895 0.9820);fill-opacity:1;"/>
<path d="M259.47 559.457C265.24 559.457 269.249 556.197 269.249 550.764C269.249 545.481 265.839 542.558 258.833 542.558H257.484V538.811H270.973V536.151H249.353V538.811H254.486V545.181H258.233C263.217 545.181 266.252 546.717 266.252 550.914C266.252 553.987 264.49 556.122 261.231 556.759C261.755 555.71 262.017 554.661 262.017 553.574C262.017 550.652 260.069 548.741 256.584 548.741C253.025 548.741 251.376 551.026 251.376 553.649C251.376 557.096 254.411 559.457 259.47 559.457ZM259.32 553.987C259.32 554.998 259.057 555.897 258.495 556.872C255.91 556.722 254.186 555.56 254.186 553.612C254.186 552.151 255.048 551.251 256.622 551.251C258.308 551.251 259.32 552.225 259.32 553.987ZM262.317 564.478C262.317 563.279 261.381 562.305 260.256 562.305C259.095 562.305 258.196 563.279 258.196 564.478C258.196 565.714 259.095 566.651 260.256 566.651C261.381 566.651 262.317 565.714 262.317 564.478Z" fill="#FDFCFA" style="fill:#FDFCFA;fill:color(display-p3 0.9925 0.9895 0.9820);fill-opacity:1;"/>
<path d="M259.097 583.977V604.622H262.132V583.977H265.467V581.316H255.238V583.977H259.097Z" fill="#FDFCFA" style="fill:#FDFCFA;fill:color(display-p3 0.9925 0.9895 0.9820);fill-opacity:1;"/>
<path d="M624.052 527.73V508.799H625.806C627.273 508.799 628.975 508.668 630.493 508.668C635.364 508.668 637.013 510.475 637.013 512.701C637.013 515.005 635.311 516.785 632.3 517.309C635.311 517.728 637.825 519.404 637.825 522.232C637.825 525.845 635.049 527.861 630.991 527.861C629.839 527.861 628.948 527.809 628.006 527.783C627.089 527.757 626.225 527.73 625.204 527.73H624.052ZM635.39 522.127C635.39 520.556 634.683 517.44 629.472 517.44H626.304V527.207C627.875 527.547 629.106 527.547 630.048 527.547C632.091 527.547 635.39 526.447 635.39 522.127ZM634.735 513.146C634.735 509.454 631.069 508.982 629.734 508.982C628.608 508.982 627.325 509.087 626.304 509.323V517.126H630.048C630.781 517.126 634.735 516.995 634.735 513.146ZM656.466 527.469C657.173 527.469 657.461 526.552 657.487 525.871H657.801C657.775 526.657 657.592 528.097 655.549 528.097C653.324 528.097 652.067 525.898 650.653 522.598C649.474 519.849 647.275 517.833 644.368 517.99V527.73H642.143V508.799H642.509C644.264 508.825 646.411 508.511 648.139 508.511C654.214 508.511 655.314 511.156 655.314 513.277C655.314 516.55 652.041 518.33 648.06 518.356C650.915 519.247 652.564 521.053 653.585 522.886C654.109 523.803 654.633 525.007 655.026 525.871C655.314 526.5 655.733 527.469 656.466 527.469ZM652.878 513.408C652.878 510.344 650.915 508.825 647.851 508.825C646.516 508.825 645.154 509.087 644.368 509.27V517.676L645.756 517.807C646.463 517.885 647.196 517.964 647.903 517.964C650.915 517.964 652.878 516.052 652.878 513.408ZM663.047 508.799V527.73H660.822V508.799H663.047ZM668.275 527.73V508.799H669.715C671.182 508.799 673.434 508.668 674.926 508.668C684.326 508.668 685.164 515.293 685.164 517.571C685.164 520.975 683.829 527.861 674.926 527.861C674.219 527.861 673.25 527.809 672.334 527.783C671.522 527.757 670.736 527.73 670.187 527.73H668.275ZM682.729 517.807C682.729 514.56 681.289 508.982 674.926 508.982C673.617 508.982 672.124 509.061 670.501 509.349V527.154C671.47 527.364 673.486 527.547 674.847 527.547C680.399 527.547 682.729 523.017 682.729 517.807ZM705.719 518.644V525.505C703.965 527.023 701.163 528.097 698.388 528.097C691.318 528.097 688.621 523.227 688.621 518.383C688.621 512.648 692.784 508.38 698.571 508.38C700.064 508.38 702.263 508.668 704.515 509.768L704.358 511.234C703.337 510.004 701.294 508.694 698.466 508.694C694.224 508.694 691.056 512.229 691.056 518.409C691.056 525.505 695.167 527.783 698.362 527.783C701.53 527.783 703.022 526.317 703.494 525.898V518.644H705.719ZM712.922 508.799V527.73H710.696V508.799H712.922ZM731.792 514.664C731.792 513.224 731.739 510.292 731.477 508.799H732.525C732.237 510.108 732.158 512.989 732.158 515.45V528.097H731.818L719.04 512.229V521.315C719.04 523.908 719.092 526.133 719.38 527.73H718.333C718.726 526.107 718.647 522.546 718.673 521.315V511.784C717.94 510.841 717.024 509.742 716.317 508.799H719.092L731.792 524.693V514.664ZM753.957 518.644V525.505C752.203 527.023 749.401 528.097 746.626 528.097C739.556 528.097 736.859 523.227 736.859 518.383C736.859 512.648 741.022 508.38 746.809 508.38C748.301 508.38 750.501 508.668 752.753 509.768L752.596 511.234C751.575 510.004 749.532 508.694 746.704 508.694C742.462 508.694 739.294 512.229 739.294 518.409C739.294 525.505 743.405 527.783 746.599 527.783C749.768 527.783 751.26 526.317 751.732 525.898V518.644H753.957ZM772.776 527.73H770.55V509.113H768.796C765.392 509.113 764.161 509.768 763.376 510.213L763.454 508.799H779.872L779.951 510.213C779.165 509.768 777.961 509.113 774.557 509.113H772.776V527.73ZM798.176 527.73H795.95V518.095H785.477V527.73H783.251V508.799H785.477V517.78H795.95V508.799H798.176V527.73ZM805.639 527.416H807.314C809.854 527.416 813.546 527.312 815.955 526.186L815.667 527.73H803.413V508.799H815.301L815.379 510.213C813.599 509.166 811.321 509.113 808.545 509.113H805.639V517.649H807.393C808.99 517.649 811.792 517.414 812.551 517.257V518.304C811.792 518.173 808.99 517.964 807.393 517.964H805.639V527.416ZM842.429 518.644V525.505C840.675 527.023 837.873 528.097 835.098 528.097C828.028 528.097 825.331 523.227 825.331 518.383C825.331 512.648 829.494 508.38 835.281 508.38C836.773 508.38 838.973 508.668 841.225 509.768L841.068 511.234C840.047 510.004 838.004 508.694 835.176 508.694C830.934 508.694 827.766 512.229 827.766 518.409C827.766 525.505 831.877 527.783 835.071 527.783C838.24 527.783 839.732 526.317 840.204 525.898V518.644H842.429ZM853.523 508.799L860.776 527.73H858.446C858.184 526.919 856.875 523.331 855.749 520.058H849.045L848.129 522.415C847.658 523.541 846.82 526.028 846.427 527.73H845.432C846.113 526.421 847.631 522.755 849.072 518.985L851.35 512.831C851.821 511.575 852.345 510.187 852.895 508.799H853.523ZM855.618 519.744L852.371 511.103L849.15 519.744H855.618ZM877.508 514.115C877.508 517.257 874.864 520.137 870.072 520.137C869.129 520.137 868.03 520.085 866.93 519.823V527.73H864.704V508.799H864.94C866.589 508.773 868.737 508.511 870.334 508.511C875.885 508.511 877.508 511.496 877.508 514.115ZM875.073 514.115C875.073 510.658 873.162 508.825 869.915 508.825C868.946 508.825 867.899 508.982 866.93 509.218V519.535C868.03 519.797 869.077 519.823 869.967 519.823C873.005 519.823 875.073 517.833 875.073 514.115Z" fill="#FDFCFA" style="fill:#FDFCFA;fill:color(display-p3 0.9925 0.9895 0.9820);fill-opacity:1;"/>
<path d="M1318.32 518.114C1318.22 500.618 1306.39 483.106 1287.09 477.161C1311.1 475.958 1328.5 496.039 1328.68 518.122C1328.5 540.205 1311.1 560.284 1287.09 559.081C1306.39 553.136 1318.22 535.623 1318.32 518.128V518.117V518.114Z" fill="white" style="fill:white;fill-opacity:1;"/>
<path d="M1242.7 518.114V518.119V518.125C1242.8 535.62 1254.63 553.133 1273.93 559.078C1249.93 560.284 1232.52 540.202 1232.34 518.122C1232.52 496.039 1249.93 475.958 1273.93 477.161C1254.63 483.106 1242.8 500.618 1242.7 518.114Z" fill="white" style="fill:white;fill-opacity:1;"/>
<path d="M1263.77 496.543L1281.41 535.248L1297.4 496.543H1306.74V539.417H1299.61V496.543L1281.76 539.417H1275.57L1255.96 496.543V539.417H1254.09V496.543H1263.77Z" fill="white" style="fill:white;fill-opacity:1;"/>
</svg>
