<svg width="1460" height="903" viewBox="0 0 1460 903" fill="none" xmlns="http://www.w3.org/2000/svg">
<g clip-path="url(#clip0_6488_27265)">
<rect width="1460" height="902" transform="translate(0 0.21875)" fill="white"/>
<rect x="37" y="33.6611" width="1386" height="835" fill="#EEEAE7"/>
<path d="M194.358 506.013C188.33 509.24 182.791 513.283 177.9 518.025C173.606 524.393 170.4 531.413 168.409 538.804C166.136 545 165.457 551.656 166.434 558.175C168.08 564.236 170.713 580.252 172.414 584.581C174.275 589.931 177.574 594.681 181.96 598.325C187.476 603.662 193.762 608.165 200.613 611.69C205.076 613.445 209.766 614.574 214.547 615.045C217.565 616.073 246.751 616.722 250.152 616.722C254.557 616.458 258.9 615.565 263.045 614.071C272.542 610.463 281.582 605.778 289.982 600.111C294.275 597.166 297.625 593.074 299.637 588.315C301.009 582.904 306.77 561.855 304.74 553.197C302.71 544.539 304.081 527.062 291.847 517.376C279.613 507.691 273.908 501.143 249.823 496.652C241.547 494.954 233.016 494.844 224.697 496.328C214.335 498.743 204.189 501.982 194.358 506.013Z" fill="#E73E11"/>
<path d="M266.282 505.578C259.669 506.857 253.174 508.667 246.861 510.989C254.633 511.749 262.335 513.087 269.902 514.994C277.144 517.374 281.753 529.712 284.77 535.068C287.787 540.425 285.099 538.64 284.77 537.774C281.753 528.792 271.768 525.491 265.678 522.244C257.698 519.552 249.401 517.879 240.99 517.266C247.081 521.568 252.015 527.27 255.364 533.878C262.057 542.86 257.175 549.137 258.107 556.875C259.04 564.613 256.352 562.935 256.352 562.935C255.103 554.409 252.531 546.123 248.726 538.369C246.038 533.636 242.55 529.39 238.412 525.816C235.669 523.705 227.988 519.376 227.988 519.376C221.104 520.881 214.353 522.926 207.799 525.491C201.71 527.601 185.361 540.75 181.74 542.86C180.446 543.653 179.109 544.376 177.735 545.025C179.092 542.311 180.632 539.69 182.343 537.179C187.081 531.454 192.623 526.425 198.802 522.244C205.278 518.716 212.221 516.094 219.43 514.453C219.43 514.453 206.373 509.366 199.405 507.581C189.187 506.002 178.861 505.206 168.518 505.2C164.239 505.2 164.568 504.28 164.568 504.28C175.412 502.23 186.447 501.323 197.485 501.574C208.24 503.478 218.786 506.395 228.976 510.286C228.976 510.286 231.993 505.795 233.804 503.414C235.614 501.033 233.474 498.328 243.13 494.702C252.786 491.077 252.841 492.321 252.237 492.321C251.634 492.321 247.464 496.813 244.447 498.598C241.481 501.638 239.118 505.199 237.479 509.096C237.479 509.096 245.05 506.661 249.604 504.605C253.587 501.772 258.307 500.12 263.209 499.843C273.856 501.485 284.228 504.543 294.042 508.933C294.042 508.933 293.219 509.366 289.269 508.933C281.828 506.649 274.074 505.517 266.282 505.578V505.578Z" fill="white"/>
<path d="M267.159 499.681C260.527 500.954 254.013 502.764 247.683 505.092C247.683 505.092 265.293 512.181 272.59 514.561C279.886 516.942 282.575 523.814 285.647 529.225C288.719 534.636 285.647 532.797 285.647 531.877C282.575 522.949 272.59 519.648 266.555 516.347C258.555 513.668 250.24 512.014 241.813 511.423C247.94 515.699 252.897 521.407 256.241 528.035C262.879 536.963 258.052 543.24 258.929 551.031C259.807 558.823 257.229 557.038 257.229 557.038C255.931 548.516 253.342 540.235 249.548 532.472C246.843 527.75 243.357 523.507 239.234 519.918C236.546 517.862 228.865 513.533 228.865 513.533C221.956 515.011 215.185 517.056 208.621 519.648C202.587 521.704 186.238 534.907 182.562 536.963C178.886 539.019 178.612 539.181 178.612 539.181C179.926 536.439 181.448 533.798 183.166 531.281C187.921 525.572 193.46 520.546 199.624 516.347C206.094 512.847 213.015 510.226 220.197 508.555C220.197 508.555 207.195 503.523 200.227 501.683C189.991 500.103 179.647 499.307 169.286 499.302C165.061 499.302 165.336 498.436 165.336 498.436C176.176 496.359 187.213 495.452 198.253 495.731C209.021 497.628 219.583 500.527 229.798 504.389C229.798 504.389 232.815 499.897 234.626 497.517C236.436 495.136 236.436 493.35 246.147 489.725C255.857 486.099 255.857 487.344 255.254 487.344C251.797 488.942 248.444 490.749 245.214 492.755C242.252 495.777 239.888 499.319 238.246 503.198C242.363 501.905 246.409 500.406 250.371 498.707C257.507 496.727 264.905 495.815 272.316 496.002C280.246 496.969 287.927 499.372 294.973 503.09C294.973 503.09 294.15 503.523 290.2 503.09C282.744 500.786 274.972 499.636 267.159 499.681V499.681Z" fill="#00934A"/>
<path d="M77.9417 413.216C72.1975 420.504 67.4224 428.487 63.7326 436.97C61.2638 445.52 59.5083 453.745 59.5083 453.745C59.2012 457.181 59.5169 460.644 60.4409 463.971C62.6275 471.814 65.7974 479.358 69.8771 486.427C74.8174 492.105 80.9697 496.636 87.8934 499.695C94.8171 502.754 102.341 504.266 109.926 504.121L127.152 501.578C130.97 500.481 134.725 499.18 138.399 497.682C143.912 495.246 149.279 492.5 154.474 489.457C157.667 487.612 160.569 485.315 163.087 482.639C167.037 478.364 173.181 469.978 173.181 469.978C174.85 467.139 175.896 463.987 176.254 460.725C176.912 455.314 177.625 445.52 177.625 445.52C177.567 441.504 176.729 437.536 175.156 433.832C173.046 425.447 169.01 417.654 163.361 411.052C156.01 403.584 146.409 394.819 136.918 393.682C131.27 392.27 125.314 392.668 119.911 394.819C114.096 396.821 93.7418 399.147 77.9417 413.216Z" fill="#E73E11"/>
<path d="M100.217 407.423C91.0834 407.883 82.0117 409.169 73.1159 411.264C67.6317 412.44 62.309 414.257 57.2608 416.675C57.2608 416.675 56.6575 417.757 59.2359 417.271C61.8144 416.784 86.6666 409.966 94.9507 412.942L74.3776 422.303C70.7599 424.122 67.4328 426.456 64.5026 429.229C59.8203 433.453 55.4391 437.991 51.3906 442.811C51.3906 442.811 52.1588 443.135 55.1213 441.187C62.4079 436.225 69.9723 431.673 77.779 427.552C83.8138 424.954 98.8458 416.73 102.467 415.756L101.26 431.61C100.624 436.159 100.717 440.779 101.534 445.3L104.771 456.879C104.771 456.879 105.649 458.124 106.033 455.202C106.417 452.28 106.691 438.536 106.965 436.48C107.24 434.424 108.776 414.836 108.776 414.836H115.085C120.134 414.738 125.177 415.21 130.117 416.242C134.122 417.379 154.421 424.521 154.421 424.521C154.421 424.521 157.109 425.982 157.493 425.766C157.877 425.549 156.889 424.251 155.518 423.385C154.146 422.519 138.566 412.563 137.249 412.238C132.088 411.072 126.841 410.312 121.559 409.966C119.407 409.919 117.269 409.61 115.195 409.046C116.428 408.801 117.639 408.458 118.815 408.018C125.49 405.625 132.283 403.566 139.169 401.849C142.625 401.416 165.777 399.252 169.562 399.685C169.562 399.685 169.562 398.711 166.49 398.116C160.386 397.147 154.232 396.515 148.057 396.222C146.52 396.493 140.486 397.304 138.566 397.737C132.313 398.755 126.137 400.183 120.077 402.012C115.908 403.797 109.928 405.637 109.928 405.637C109.928 405.637 116.127 393.895 116.676 393.246C118.278 391.013 120.019 388.881 121.888 386.861C123.204 385.616 129.843 378.69 129.843 378.69C129.843 378.69 131.653 376.58 129.239 377.77C128.91 377.77 118.651 385.941 116.895 387.456C114.33 389.418 112.122 391.797 110.367 394.49C108.94 397.25 104.881 403.527 104.881 403.527L98.8458 397.358C97.4896 396.448 95.9872 395.771 94.402 395.356C92.1527 394.923 84.9658 393.192 84.9658 393.192C84.9658 393.192 83.6492 393.516 85.5694 394.598C87.4896 395.681 93.7986 400.009 93.7986 400.009C93.7986 400.009 97.4744 403.959 98.4619 405.42C99.4494 406.881 100.217 407.423 100.217 407.423Z" fill="white"/>
<path d="M97.8027 404.177C88.6687 404.637 79.5968 405.923 70.7011 408.019C65.2264 409.228 59.9076 411.043 54.846 413.43C54.846 413.43 54.2427 414.512 56.8211 414.025C59.3996 413.538 84.2518 406.72 92.5359 409.696L72.1823 419.219C68.5646 421.039 65.2375 423.372 62.3073 426.145C57.625 430.37 53.2438 434.908 49.1953 439.727C49.1953 439.727 49.9633 440.052 52.9259 438.104C60.2124 433.142 67.777 428.589 75.5837 424.468C81.6184 421.871 96.6505 413.646 100.271 412.672L99.0644 428.202C98.429 432.751 98.5217 437.371 99.3388 441.892L102.576 453.471C102.576 453.471 103.453 454.715 103.837 451.793C104.221 448.871 104.496 435.128 104.77 433.072C105.044 431.015 106.58 411.698 106.58 411.698H112.89C117.938 411.601 122.982 412.073 127.922 413.105C131.926 414.241 152.225 421.384 152.225 421.384C152.225 421.384 154.913 422.845 155.297 422.628C155.681 422.412 154.694 421.113 153.323 420.248C151.951 419.382 136.37 409.426 135.054 409.101C129.882 407.841 124.617 406.99 119.308 406.558C117.157 406.511 115.019 406.202 112.944 405.638C114.178 405.393 115.389 405.049 116.565 404.61C123.24 402.216 130.033 400.157 136.919 398.441C140.375 398.008 163.527 395.844 167.312 396.277C167.312 396.277 167.312 395.303 164.24 394.707C158.136 393.738 151.982 393.106 145.807 392.814C144.27 393.084 138.236 393.896 136.315 394.329C130.069 395.374 123.894 396.802 117.827 398.604C113.658 400.389 107.678 402.229 107.678 402.229C107.678 402.229 113.877 390.487 114.426 389.838C116.042 387.616 117.782 385.484 119.637 383.452C120.954 382.208 127.592 375.282 127.592 375.282C127.592 375.282 129.403 373.172 126.989 374.362C126.66 374.362 116.401 382.533 114.645 384.048C112.08 386.01 109.872 388.389 108.117 391.082C106.69 393.896 102.63 400.118 102.63 400.118L96.5957 393.95C95.2396 393.04 93.7371 392.363 92.152 391.948C89.9026 391.515 82.7158 389.784 82.7158 389.784C82.7158 389.784 81.399 390.108 83.3192 391.191C85.2393 392.273 91.5484 396.601 91.5484 396.601C91.5484 396.601 95.2242 400.552 96.2117 402.012C97.1992 403.473 97.8027 404.177 97.8027 404.177Z" fill="#00934A"/>
<path d="M445.895 375.553C443.317 376.744 418.794 379.666 404.969 389.892C391.144 400.119 378.525 410.508 375.673 417.976C368.944 430.539 366.831 445.012 369.693 458.937C374.027 480.581 414.624 599.623 414.624 599.623C418.492 613.012 426.324 624.957 437.117 633.929C454.015 646.59 464.055 655.14 478.154 652.488C488.413 650.594 533.29 638.203 539.654 636.255C546.018 634.307 603.183 613.8 621.452 609.2C639.721 604.601 704.458 588.801 713.62 585.662C722.781 582.524 773.418 570.62 779.014 569.429C784.61 568.239 842.599 551.681 842.599 551.681C854.714 548.314 866.333 543.402 877.162 537.072C877.162 537.072 902.343 527.278 904.318 508.339C906.475 490.216 904.121 471.848 897.46 454.824L889.889 419.22C889.889 419.22 890.493 415.378 898.503 413.809C906.512 412.24 1030.88 389.892 1030.88 389.892C1037.03 389.002 1043.03 387.366 1048.77 385.023C1052.54 384.049 1055.95 382.044 1058.61 379.238C1061.27 376.432 1063.07 372.941 1063.8 369.169C1067.09 355.425 1063.2 327.666 1059.25 323.067C1059.25 323.067 1056.72 315.112 1042.79 318.251C1028.85 321.389 971.469 342.763 971.469 342.763L881.276 372.685C876.613 373.659 876.723 370.575 876.723 370.575L862.184 330.804C862.184 330.804 850.938 304.453 837.771 295.741C837.771 295.741 812.699 279.508 799.368 279.833C786.037 280.158 784.555 281.186 769.633 285.244C769.633 285.244 734.741 297.202 720.642 300.828C706.542 304.453 669.895 317.061 663.531 318.738C657.167 320.415 603.622 337.893 590.949 341.572C578.276 345.252 505.859 362.621 498.782 365.11C491.705 367.599 445.895 375.553 445.895 375.553Z" fill="#FEC800"/>
<path d="M1040.15 349.204C1040.15 349.204 1034.67 342.656 1030.06 342.061C1027.56 341.557 1024.99 341.59 1022.51 342.16C1020.02 342.73 1017.7 343.822 1015.69 345.362C1014.17 346.943 1013.11 348.896 1012.62 351.018C1012.12 353.14 1012.22 355.354 1012.89 357.428C1014.42 362.839 1020.62 370.902 1027.32 370.902C1030.55 371.06 1033.74 370.12 1036.35 368.239C1038.97 366.359 1040.85 363.651 1041.69 360.567C1042.42 358.697 1042.66 356.677 1042.39 354.692C1042.12 352.706 1041.35 350.819 1040.15 349.204Z" fill="white"/>
<path d="M774.411 389.189C772.82 388.865 751.259 378.368 744.182 380.532C737.105 382.696 720.537 384.428 713.789 390.11C706.679 396.472 701.142 404.358 697.605 413.16C695.684 419.6 687.291 438.051 693.545 448.548C698.004 455.87 703.965 462.191 711.046 467.108C715.819 470.95 722.512 473.709 717.958 481.501C713.405 489.293 714.721 491.187 710.223 497.734C705.724 504.281 700.348 514.779 701.171 520.46C704.25 514.425 708.103 508.806 712.637 503.741C716.641 500.764 727.559 490.105 731.783 487.886C734.567 486.027 737.703 484.742 741.003 484.109C744.303 483.477 747.698 483.51 750.985 484.207C760.47 487.303 770.785 486.802 779.915 482.8C789.045 478.797 796.335 471.582 800.36 462.563C803.762 454.608 808.919 436.644 807.053 428.636C805.188 420.628 798.385 404.07 789.443 397.252C784.98 393.671 779.884 390.937 774.411 389.189V389.189Z" fill="#CF2B4A"/>
<path d="M763.437 400.175C765.631 398.877 764.425 377.449 771.008 367.71L794.159 334.215C794.159 334.215 800.633 326.423 798.329 320.58C798.329 320.58 797.67 314.249 792.843 313.059C791.795 312.656 790.664 312.51 789.546 312.632C788.428 312.755 787.357 313.142 786.424 313.762L782.035 315.439L800.853 292.984C803.468 290.751 805.373 287.819 806.339 284.543C806.715 280.418 806.475 276.261 805.625 272.205C804.39 270.211 802.427 268.759 800.139 268.147C798.76 267.641 797.291 267.414 795.821 267.479C794.351 267.544 792.909 267.9 791.581 268.526C787.96 270.636 782.748 273.233 782.748 273.233C782.748 273.233 785.82 262.899 786.424 261.546C788.49 255.875 789.799 249.964 790.319 243.96C790.136 242.648 789.65 241.395 788.898 240.298C788.147 239.2 787.15 238.287 785.985 237.629C783.036 235.498 779.645 234.038 776.055 233.354C772.346 232.483 768.443 232.984 765.083 234.761C765.083 234.761 759.213 237.304 758.774 239.198C757.623 241.517 757.35 244.166 758.006 246.666C758.938 251.59 760.036 262.249 760.036 262.249C760.036 262.249 760.639 269.987 760.42 271.015C760.42 271.015 759.981 271.772 755.921 267.877C751.861 263.981 751.367 263.115 748.679 262.466C747.537 262.037 746.317 261.846 745.096 261.907C743.875 261.967 742.681 262.277 741.587 262.816C740.494 263.355 739.527 264.112 738.745 265.039C737.964 265.966 737.386 267.043 737.049 268.201C735.842 271.177 734.635 274.694 734.635 274.694C734.317 275.392 734.152 276.148 734.152 276.913C734.152 277.678 734.317 278.434 734.635 279.132C735.677 281.188 746.54 297.096 748.46 300.018C750.995 304.887 752.841 310.076 753.946 315.439L745.442 312.517C744.561 312.122 743.589 311.964 742.625 312.059C741.662 312.154 740.741 312.499 739.956 313.059C738.914 313.978 735.293 318.794 735.293 318.794C734.565 320.353 734.209 322.056 734.251 323.772C734.837 327.561 736.08 331.222 737.926 334.594C739.463 336.163 748.24 350.34 751.477 354.507C755.352 359.247 758.073 364.8 759.432 370.74C760.2 376.151 762.175 399.472 762.175 399.472C762.175 399.472 762.285 400.771 763.437 400.175Z" fill="#005F40"/>
<path d="M761.406 398.172L763.106 396.333C763.106 396.333 771.665 387.946 774.079 384.645C777.288 381.024 780.291 377.23 783.076 373.282C784.393 370.63 787.465 362.46 787.465 362.46C787.465 362.46 790.647 352.125 790.921 349.473C791.248 347.434 792.206 345.544 793.664 344.062C795.82 342.86 798.078 341.846 800.412 341.032C802.113 340.329 805.075 342.601 805.898 343.359C806.721 344.117 809.684 348.77 810.013 348.121C810.342 347.471 813.579 339.409 813.689 338.868C813.798 338.327 816.322 329.02 816.925 327.667C817.62 325.732 818.6 323.909 819.833 322.256C821.834 320.58 824.23 319.427 826.8 318.901C829.63 318.556 832.5 319.066 835.03 320.362C837.06 321.715 837.224 325.449 836.895 327.18C836.748 328.646 836.84 330.126 837.169 331.563C837.169 331.563 841.01 328.641 841.887 327.884C845.235 324.666 848.79 321.665 852.531 318.901C853.708 318.141 855.039 317.642 856.431 317.436C857.823 317.231 859.243 317.324 860.595 317.711C864.316 318.899 867.486 321.354 869.538 324.637C870.254 325.511 870.748 326.543 870.977 327.645C871.206 328.746 871.164 329.886 870.854 330.968C869.332 333.191 867.483 335.179 865.368 336.866C862.4 338.739 859.323 340.437 856.151 341.952L847.209 346.93L851.653 348.986C852.826 349.415 853.865 350.141 854.664 351.09C855.464 352.04 855.995 353.181 856.206 354.397C856.59 356.724 854.78 359.105 851.653 362.676C850.406 363.969 848.883 364.971 847.193 365.607C845.503 366.244 843.69 366.5 841.887 366.356C838.431 366.789 823.344 365.111 823.015 365.328C826.562 367.361 829.512 370.27 831.574 373.769C833.274 377.124 831.08 379.505 828.117 382.318C825.216 384.829 821.439 386.129 817.584 385.944C811.368 385.327 805.195 384.352 799.095 383.022C795.674 382.424 792.198 382.188 788.727 382.318C784.612 382.318 770.513 395.088 768.483 396.711L765.356 399.255C765.027 399.579 763.381 401.257 762.338 401.04C761.296 400.824 761.406 398.172 761.406 398.172Z" fill="#005F40"/>
<path d="M1224.65 311.81C1223.02 310.827 1221.17 310.246 1219.26 310.114C1217.35 309.982 1215.44 310.304 1213.68 311.053C1208.19 313.65 1205.83 316.193 1201.88 316.464C1197.93 316.734 1171.38 318.791 1171.38 318.791C1164.76 319.799 1158.36 321.903 1152.45 325.013C1143.45 330.738 1135.93 338.466 1130.51 347.577C1125.26 356.465 1121.69 366.218 1119.98 376.363C1118.73 385.332 1118.04 394.367 1117.89 403.418C1117.59 407.665 1116.7 411.852 1115.26 415.864C1113.94 417.92 1109.77 423.385 1109.77 423.385C1108.87 425.433 1108.4 427.644 1108.4 429.878C1108.4 432.113 1108.87 434.324 1109.77 436.372C1110.81 438.81 1112.56 440.882 1114.82 442.312C1117.07 443.742 1119.71 444.463 1122.39 444.38C1129.44 443.348 1136.31 441.344 1142.8 438.428C1148.54 436.696 1154.38 435.34 1160.3 434.37C1173.18 433.503 1186 431.913 1198.7 429.608C1207.92 427.011 1229.86 412.942 1232.99 401.525C1236.86 387.969 1238.09 373.813 1236.61 359.806C1234.75 344.763 1228.93 334.915 1229.7 331.29C1230.28 327.346 1230.63 323.371 1230.74 319.386C1230.3 317.781 1229.54 316.282 1228.49 314.98C1227.44 313.677 1226.14 312.599 1224.65 311.81V311.81Z" fill="#FFD800"/>
<path d="M1233.21 295.148C1233.21 295.148 1228.55 255.756 1228.55 254.511C1228.31 250.457 1228.31 246.392 1228.55 242.337C1229.21 229.506 1234.48 217.326 1243.42 207.977C1250.22 201.7 1268.87 183.681 1268.87 183.681C1268.87 183.681 1272.49 179.461 1273.59 185.359C1274.96 193.042 1280.78 218.474 1280.78 218.474C1281.8 226.507 1281.56 234.647 1280.07 242.607C1277.98 252.948 1272.92 262.474 1265.47 270.041C1257.41 279.24 1240.07 297.854 1237.33 300.505C1237.12 300.785 1236.85 301.01 1236.53 301.161C1236.22 301.312 1235.87 301.384 1235.52 301.371C1234.48 301.371 1234.15 300.451 1233.87 299.26C1233.6 298.07 1233.21 295.148 1233.21 295.148Z" fill="#005F40"/>
<path d="M1227.89 294.985C1227.89 294.985 1218.51 269.445 1208.36 260.354C1198.21 251.264 1180.38 240.604 1169.96 239.035C1169.96 239.035 1166.78 237.412 1170.29 242.444C1173.8 247.476 1187.13 269.823 1193.55 274.91C1200.39 281.128 1207.73 286.792 1215.49 291.846L1228.28 298.448C1228.28 298.448 1228.82 297.474 1227.89 294.985Z" fill="#005F40"/>
<path d="M460.327 581.493C461.315 590.367 473.494 617.206 489.623 627.216C505.753 637.227 531.483 626.297 538.999 623.104C546.515 619.912 556.006 596.049 560.175 589.664C564.345 583.279 580.035 584.253 588.539 582.251C597.042 580.249 608.783 562.338 612.239 556.657C615.695 550.975 623.486 549.677 634.622 547.08C639.298 545.539 643.476 542.804 646.733 539.155C649.99 535.506 652.209 531.071 653.166 526.301C654.153 520.241 668.801 519.429 677.908 513.964C687.015 508.499 685.369 498.921 683.888 492.32C682.407 485.719 686.851 474.085 679.225 462.289C671.599 450.493 653.001 448.816 643.291 446.056C633.58 443.296 628.313 433.124 613.611 426.468C598.908 419.813 583.985 433.665 575.207 434.747C566.43 435.829 561.986 434.747 541.468 424.466C520.949 414.185 500.486 435.288 487.923 439.13C475.36 442.972 475.085 448.329 451.111 443.946C427.136 439.563 409.965 468.025 401.735 486.747C393.506 505.469 415.945 523.866 428.343 533.281C428.343 533.281 440.852 542.101 443.266 548.324L448.422 555.845C455.591 562.564 459.855 571.751 460.327 581.493V581.493Z" fill="#005F40"/>
<path d="M683.336 482.746C683.336 482.746 638.515 470.085 551.011 496.274C551.011 496.274 498.179 510.721 413.144 561.964C413.144 561.964 321.196 620.889 313.405 626.463C305.615 632.036 298.648 637.717 298.648 637.717C298.648 637.717 297.166 639.449 300.129 643.507C303.091 647.565 311.101 657.63 311.101 657.63C311.101 657.63 313.241 659.524 316.862 656.926C320.483 654.329 397.179 592.59 437.557 568.565C477.935 544.54 520.453 518.188 569.225 504.661C617.996 491.133 666.823 480.312 683.336 482.746Z" fill="#CF2B4A"/>
<path d="M451.547 544.054C451.547 544.054 463.671 498.926 465.262 494.381C466.853 489.836 483.477 441.407 483.477 441.407L477.003 443.518C477.003 443.518 468.39 467.38 467.183 472.358C465.976 477.336 449.737 533.015 449.737 533.015L445.293 547.896L451.547 544.054Z" fill="#CF2B4A"/>
<path d="M458.133 551.087C458.133 551.087 523.363 575.274 534.665 580.198C545.966 585.122 559.462 590.695 559.462 590.695L557.597 594.754C557.597 594.754 507.673 574.787 492.75 569.647L450.727 555.091L458.133 551.087Z" fill="#CF2B4A"/>
<path d="M505.587 525.438C505.587 525.438 561.107 554.44 568.184 558.336C575.262 562.232 597.645 573.704 597.645 573.704L595.231 576.139C595.231 576.139 547.392 551.897 537.297 546.703C527.203 541.508 496.48 529.171 496.48 529.171L505.587 525.438Z" fill="#CF2B4A"/>
<path d="M503.34 518.677C503.34 518.677 539.823 438.432 541.195 424.634L535.27 423.605C534.017 430.28 532.012 436.796 529.29 443.031L494.617 521.653L503.34 518.677Z" fill="#CF2B4A"/>
<path d="M549.474 509.964C549.474 509.964 591.773 538.101 595.503 540.266C599.234 542.43 615.747 552.603 615.747 552.603L612.401 556.661C612.401 556.661 549.694 515.97 539.051 511.912L549.474 509.964Z" fill="#CF2B4A"/>
<path d="M545.69 504.229C545.69 504.229 568.019 452.013 574.931 434.914H569.445C569.357 439.112 568.365 443.243 566.537 447.035C563.739 451.742 541.246 503.634 541.246 503.634L545.69 504.229Z" fill="#CF2B4A"/>
<path d="M589.852 496.004C589.852 496.004 617.722 518.676 623.756 524.033C629.791 529.39 643.89 541.943 643.89 541.943L640.434 544.649C640.434 544.649 607.956 516.728 597.587 508.341C592.404 504.029 586.903 500.105 581.129 496.599L589.852 496.004Z" fill="#CF2B4A"/>
<path d="M586.669 490.7C586.669 490.7 613.222 438.43 613.551 426.634L610.753 425.714C602.93 449.202 592.304 471.689 579.098 492.702L586.669 490.7Z" fill="#CF2B4A"/>
<path d="M622.329 485.126L642.793 446.329L639.775 445.085L617.008 484.477L622.329 485.126Z" fill="#CF2B4A"/>
<path d="M622.225 489.674C622.719 490.377 655.8 522.14 655.8 522.14L654.429 523.168C654.429 523.168 632.484 504.175 629.192 501.524L615.312 491.135L622.225 489.674Z" fill="#CF2B4A"/>
<path d="M650.364 484.315C650.364 484.315 675.709 508.827 678.507 511.37L676.477 512.453C676.477 512.453 648.718 486.588 645.371 484.857L650.364 484.315Z" fill="#CF2B4A"/>
<path d="M651.738 480.96L670.281 454.933L667.703 454.338L646.91 480.581L651.738 480.96Z" fill="#CF2B4A"/>
<path d="M363.658 335.728L353.18 315.058C351.04 315.761 300.513 329.234 300.513 329.234C300.513 329.234 264.194 339.245 261.341 340.652C258.489 342.058 217.452 354.504 214.051 356.019C209.662 358.075 181.792 366.245 181.792 366.245C181.792 366.245 178.885 368.41 179.982 370.196C181.079 371.981 185.468 389.242 185.468 389.242C185.883 389.656 186.397 389.962 186.962 390.132C187.527 390.302 188.126 390.331 188.705 390.216L248.23 373.496L323.17 349.471C336.957 345.77 350.482 341.179 363.658 335.728V335.728Z" fill="#E73F15"/>
<path d="M576.907 292.173C576.907 292.173 549.476 308.407 486.605 329.509L412.103 353.696L369.256 365.439L341.551 305.214C341.551 305.214 455.224 280.54 469.488 278.159C484.897 275.561 500.451 273.881 516.065 273.127C522.812 272.948 529.559 273.455 536.199 274.642C536.199 274.642 564.892 283.137 576.907 292.173Z" fill="#C6C6C6"/>
<path fill-rule="evenodd" clip-rule="evenodd" d="M49.3594 262.412C49.3594 262.412 116.62 277.725 124.739 279.944C132.859 282.162 160.234 278.483 160.234 278.483C160.234 278.483 265.953 264.631 270.396 264.631C277.582 264.238 284.743 265.751 291.134 269.014C292.033 269.55 293.576 270.457 295.595 271.644L295.597 271.646L295.598 271.646C310.081 280.165 349.062 303.092 350.988 306.891C355.579 319.913 358.796 333.367 360.589 347.04C359.136 355.811 355.023 363.941 348.794 370.362C345.831 371.823 338.425 357.97 337.821 351.369C336.309 342.071 334.016 332.912 330.964 323.989C329.482 321.067 318.345 316.197 318.345 316.197L330.415 348.663C331.027 349.487 331.415 350.452 331.54 351.466C331.665 352.48 331.523 353.509 331.128 354.453C326.608 360.924 320.826 366.442 314.121 370.686C308.964 372.851 269.793 388.164 260.192 389.625C250.591 391.086 212.682 390.978 210.488 388.056C208.293 385.134 208.677 384.647 208.677 384.647L219.32 380.805L238.741 368.468C240.936 367.007 236.492 359.756 234.297 357.646C231.855 356.57 229.21 356.014 226.535 356.014C223.859 356.014 221.214 356.57 218.772 357.646C206.25 361.155 193.022 361.416 180.369 358.403L133.901 340.872L51.0053 332.863L49.3594 262.412ZM294.264 319.28C294.264 319.28 295.58 324.204 296.129 326.477C296.343 327.362 298.285 332.763 300.613 339.238L300.614 339.24C304.268 349.401 308.872 362.206 309.241 364.354C309.235 367.452 308.403 370.494 306.827 373.174L302.109 375.068C303.728 369.443 303.728 363.485 302.109 357.861C302.109 357.861 297.555 345.199 296.623 339.301C295.69 333.403 293.989 326.693 293.989 326.693C293.989 326.693 292.892 320.849 294.264 319.28ZM276.378 350.662C275.994 343.952 276.981 331.074 276.981 331.074C274.07 336.427 272.455 342.372 272.263 348.444C272.301 350.034 272.615 353.488 272.979 357.504C273.669 365.1 274.54 374.704 274.074 377.501C273.292 380.731 271.956 383.805 270.124 386.591L275.336 385.076C277.24 383.31 278.38 380.887 278.518 378.312C278.518 377.025 278.048 371.463 277.541 365.466C277.068 359.873 276.563 353.9 276.378 350.662Z" fill="#EABF97"/>
<path d="M71.7971 254.35C71.7971 254.35 64.6651 292.227 64.0616 296.827C63.4582 301.426 57.4784 334.217 57.4784 334.217C57.4784 334.217 49.7428 352.614 47.9324 353.263C46.1219 353.913 -16.2227 354.259 -16.2227 354.259C-16.2227 354.259 -9.82544 314.325 -8.61849 302.259C-7.41154 290.192 -13.6879 241.259 -13.6879 241.259C-13.6879 241.259 19.2947 236.602 24.6711 238.496C30.0476 240.39 58.6853 244.827 58.6853 244.827C58.6853 244.827 70.5902 246.721 71.7971 254.35Z" fill="#36A9E1"/>
<path d="M405.793 400.285C411.937 388.164 419.563 365.546 427.244 361.001C434.924 356.455 448.695 351.964 441.014 364.031C433.334 376.097 425.708 386.703 425.708 386.703C425.708 386.703 456.32 365.546 453.138 375.881C451.579 381.368 448.436 386.289 444.092 390.045C439.748 393.802 434.39 396.231 428.67 397.038C421.172 398.863 413.509 399.951 405.793 400.285V400.285Z" fill="#009E6D"/>
<path d="M411.722 394.705C408.321 397.465 381.822 414.131 373.319 419.163C364.815 424.195 327.674 446.921 322.023 453.036C316.373 459.15 300.353 473.652 299.201 475.87C298.049 478.089 293.715 487.504 293.715 487.504L302.218 478.63L329.649 453.036L355.599 435.829L379.793 420.245L399.543 405.798L411.722 394.705Z" fill="#009E6D"/>
<path d="M382.969 416.947L384.834 416.514C391.802 414.945 415.721 409.696 419.562 409.696C423.402 409.696 430.534 410.237 426.913 413.051C423.488 415.809 419.412 417.671 415.063 418.462C410.016 419.544 427.462 418.462 428.614 421.222C429.766 423.981 430.863 429.555 420.165 430.691C409.467 431.827 389.717 423.981 384.066 422.899C381.428 422.599 378.914 421.629 376.77 420.085" fill="#009E6D"/>
<path d="M377.867 416.355C377.867 416.355 378.471 386.919 379.019 383.565C379.568 380.21 380.117 371.336 383.518 372.743C386.919 374.15 387.468 376.639 388.017 378.857C388.565 381.076 390.266 372.743 393.503 373.446C396.74 374.15 398.989 373.987 397.453 380.102C395.917 386.216 387.303 402.936 385.603 406.832C383.444 410.317 380.845 413.517 377.867 416.355V416.355Z" fill="#009E6D"/>
<path d="M359.821 432.478C359.821 432.478 386.922 433.614 391.421 434.696C395.92 435.778 408.867 438.051 409.47 442.488C410.074 446.925 405.52 449.198 403.271 449.739C396.252 449.222 389.271 448.283 382.369 446.925L400.418 455.312C400.418 455.312 402.667 461.968 398.717 464.186C396.339 465.283 393.745 465.852 391.119 465.852C388.493 465.852 385.899 465.283 383.521 464.186C379.022 461.968 360.424 442.542 358.175 440.269C356.476 437.949 355.315 435.289 354.773 432.478H359.821Z" fill="#009E6D"/>
<path d="M358.725 429.176C358.725 429.176 368.326 400.823 368.326 397.468C368.326 394.113 370.575 384.698 366.625 384.698C362.675 384.698 357.024 390.813 356.476 392.49C355.927 394.167 353.074 384.698 349.728 384.698C346.381 384.698 341.224 384.157 342.925 390.813C344.626 397.468 351.374 423.603 353.074 426.958C354.022 428.623 354.602 430.467 354.775 432.369L358.725 429.176Z" fill="#009E6D"/>
<path d="M320.1 459.204C320.1 459.204 337.162 403.85 333.431 400.82C329.701 397.79 317.686 391.351 316.534 399.738C315.052 407.615 313.111 415.402 310.719 423.059C310.719 423.059 307.537 404.932 301.502 403.471C295.467 402.01 286.47 407.151 289.268 412.833C292.066 418.514 309.183 446.11 309.183 446.11L320.1 459.204Z" fill="#009E6D"/>
<path d="M320.211 458.666C320.211 458.666 345.831 459.045 351.153 458.991C356.474 458.937 367.611 463.049 368.983 466.891C370.354 470.733 373.097 479.498 367.776 479.552C360.378 478.704 353.047 477.366 345.831 475.548C345.831 475.548 362.619 486.046 363.003 489.779C363.126 491.129 362.896 492.487 362.337 493.725C361.779 494.963 360.908 496.039 359.809 496.852C358.71 497.665 357.419 498.188 356.057 498.37C354.696 498.553 353.31 498.39 352.031 497.896C344.624 495.244 325.258 465.213 320.211 458.666Z" fill="#009E6D"/>
<path d="M509.479 370.199C506.681 366.141 499.714 354.778 500.975 349.583C502.237 344.389 504.596 342.982 508.107 347.203C510.119 349.651 511.952 352.236 513.594 354.94C513.594 354.94 518.202 346.823 519.08 345.579C519.957 344.334 523.633 341.737 525.334 342.062C527.035 342.387 527.583 352.884 526.651 354.886C525.718 356.888 517.269 375.773 515.678 379.344L509.479 370.199Z" fill="#009E6D"/>
<path d="M519.134 378.423C520.506 378.423 539.049 367.601 541.682 367.601C544.316 367.601 552.106 365.815 549.966 369.386C546.882 373.121 543.323 376.449 539.378 379.289C539.378 379.289 549.582 381.345 552.161 381.994C554.739 382.643 560.061 386.323 557.263 387.892C554.465 389.461 545.687 388.271 540.201 387.513C532.081 385.572 524.078 383.188 516.227 380.371L519.134 378.423Z" fill="#009E6D"/>
<path d="M533.348 358.186C533.348 358.186 537.902 341.953 539.877 336.055C541.852 330.157 544.759 322.852 547.009 326.099C548.589 330.298 549.262 334.776 548.984 339.247C548.984 339.247 556.171 334.107 559.407 335.081C562.644 336.055 563.303 339.572 559.407 343.738C551.296 349.919 542.814 355.611 534.007 360.783C532.69 361.703 533.348 358.186 533.348 358.186Z" fill="#009E6D"/>
<path d="M536.252 355.857C532.932 360.402 529.264 364.689 525.28 368.681C521.659 371.603 507.34 388.269 504.103 391.84C500.866 395.411 494.996 402.067 494.996 402.067L506.352 394.708L526.541 371.874L538.611 355.641L536.252 355.857Z" fill="#009E6D"/>
<path d="M680.049 592.645C677.593 591.534 674.887 591.069 672.195 591.297C669.503 591.524 666.917 592.436 664.688 593.943L660.738 596.54L669.461 598.705C673.446 599.683 677.662 599.081 681.202 597.028L684.768 594.971L680.049 592.645Z" fill="#1D1D1B"/>
<path d="M740.832 565.427C729.586 562.289 720.753 562.289 717.571 563.858C714.389 565.427 711.152 572.57 711.152 572.57C711.152 572.57 724.813 571.758 728.818 571.758C732.823 571.758 740.832 565.427 740.832 565.427Z" fill="#1D1D1B"/>
<path d="M682.626 578.899C686.043 577.635 689.596 576.764 693.214 576.302C694.696 576.302 699.249 580.36 699.249 580.36L690.965 585.23L681.09 583.39L682.626 578.899Z" fill="#1D1D1B"/>
<path d="M708.574 588.529C706.997 588.627 705.459 589.06 704.068 589.797C702.676 590.535 701.462 591.561 700.509 592.804C699.324 594.173 698.379 595.728 697.711 597.403C701.319 598.169 704.994 598.585 708.683 598.648C709.89 598.053 717.681 594.969 718.01 593.724C718.339 592.479 710.329 588.529 708.574 588.529Z" fill="#1D1D1B"/>
<path d="M731.783 578.251C727.077 578.493 722.399 579.108 717.793 580.091C715.324 581.335 714.062 585.502 714.062 585.502C718.762 586.476 723.531 587.092 728.327 587.342C731.346 586.422 734.119 584.851 736.446 582.742L731.783 578.251Z" fill="#1D1D1B"/>
<path d="M701.607 547.625C696.785 548.266 692.088 549.616 687.672 551.629C685.496 553.206 683.508 555.021 681.747 557.04L680.211 562.451C684.145 562.643 688.089 562.535 692.006 562.126C696.482 560.012 700.841 557.664 705.063 555.092L706.599 548.978L701.607 547.625Z" fill="#1D1D1B"/>
<path d="M735.18 546.431C729.977 547.455 724.887 548.977 719.983 550.976C718.392 552.545 715.32 556.387 715.32 556.387C718.731 556.69 722.156 556.799 725.579 556.712C728.867 555.599 731.986 554.052 734.851 552.112C736.003 551.301 735.18 546.431 735.18 546.431Z" fill="#1D1D1B"/>
<path d="M674.288 568.186C671.514 568.841 668.813 569.766 666.223 570.945C664.524 572.085 662.96 573.41 661.56 574.895C660.628 576.14 667.43 576.735 668.692 576.465C671.264 575.413 673.757 574.183 676.153 572.785C677.15 571.681 677.982 570.442 678.622 569.105L674.288 568.186Z" fill="#1D1D1B"/>
<path d="M673.024 552.551C669.971 552.872 666.957 553.488 664.027 554.391C660.795 555.788 657.769 557.608 655.029 559.802C653.493 561.046 653.164 564.726 653.164 564.726C653.164 564.726 661.229 563.806 663.423 563.156C666.432 561.853 669.33 560.315 672.091 558.557L673.024 552.551Z" fill="#1D1D1B"/>
<path d="M1159.64 556.067C1125.95 540.784 1090.04 530.815 1053.21 526.523C1053.21 526.523 1004.22 523.493 952.925 525.765C922.812 526.511 893.014 531.991 864.652 541.998C852.309 545.84 832.558 554.876 832.558 554.876L819.831 561.856C818.962 553.1 820.242 544.266 823.561 536.1C827.676 528.416 844.024 518.19 850.992 514.997C873.81 506.061 897.382 499.127 921.434 494.273C953.982 489.967 986.797 487.924 1019.64 488.159C1082.34 493.137 1115.86 505.149 1125.85 510.452C1135.83 515.755 1160.3 532.096 1164.25 543.676C1166.55 546.939 1167.51 550.942 1166.94 554.876C1166.94 554.876 1164.8 558.556 1159.64 556.067Z" fill="#9D9D9C"/>
<path d="M931.534 534.42C915.174 536.121 899.022 539.401 883.311 544.214C861.86 551.032 828.943 559.31 834.265 566.886C839.586 574.461 839.751 578.195 859.556 584.255C887.149 592.296 915.489 597.589 944.152 600.055C972.406 602.166 1070.83 597.079 1096.89 592.534C1122.95 587.989 1149.66 576.68 1153.5 570.619C1157.34 564.559 1152.74 557.038 1143.57 554.765C1134.41 552.493 1092.99 535.069 1055.52 531.39C1002.91 525.979 931.534 534.42 931.534 534.42Z" fill="#9D9D9C"/>
<path d="M1164.52 561.474C1164.52 558.065 1212.31 551.734 1231.73 551.085C1251.15 550.435 1303.93 549.028 1319.89 548.325C1335.86 547.622 1369.87 546.972 1380.24 551.085C1390.61 555.197 1396.2 559.959 1394.83 566.83C1393.46 573.702 1390.22 581.278 1382.82 583.063C1364.59 585.087 1346.2 585.196 1327.96 583.388C1314.08 581.332 1236.34 577.977 1222.46 575.813C1208.58 573.649 1175.28 570.402 1169.02 567.209C1167.69 566.972 1166.49 566.254 1165.65 565.195C1164.82 564.135 1164.42 562.809 1164.52 561.474Z" fill="#A2C617"/>
<path d="M819.559 568.295C819.559 568.295 842.82 588.424 857.962 592.212C881.737 598.179 905.895 602.553 930.269 605.306C948.319 606.28 1050.96 605.902 1083.88 599.895C1116.8 593.889 1137.7 587.45 1149.11 579.929C1160.52 572.407 1159.32 566.618 1162.44 563.046C1167.93 556.553 1169.36 567.267 1169.36 567.267L1164.36 595.296C1164.21 599.418 1163.19 603.464 1161.39 607.186C1159.59 610.908 1157.04 614.228 1153.88 616.94C1138.74 628.429 1121.01 636.167 1102.21 639.504C1076.53 644.915 1037.91 647.404 1018.87 649.298C999.833 651.192 941.79 650.542 928.733 648.053C915.676 645.564 884.844 642.642 870.47 637.231C856.096 631.82 831.299 621.431 825.593 606.443C822.119 593.994 820.094 581.196 819.559 568.295V568.295Z" fill="#A2C617"/>
<path d="M1168.21 574.137C1168.03 573.341 1168.07 572.513 1168.33 571.738C1168.58 570.963 1169.03 570.268 1169.64 569.72C1170.26 569.172 1171 568.792 1171.81 568.617C1172.61 568.443 1173.45 568.481 1174.24 568.726C1173.63 566.609 1172.8 564.56 1171.77 562.611C1171.33 562.611 1164.8 564.289 1164.8 564.289L1163.93 572.297L1168.21 574.137Z" fill="#A2C617"/>
<path d="M1131.34 450.28C1129.53 453.094 1120.36 467.325 1121.57 473.547C1122.78 479.77 1129.63 483.774 1131.94 480.365C1134.99 475.828 1136.59 470.495 1136.55 465.052C1135.63 460.28 1134.25 455.605 1132.43 451.092C1132.43 451.092 1131.94 449.36 1131.34 450.28Z" fill="#FFD800"/>
<path d="M986.504 558.5C975.258 555.362 966.48 555.362 963.243 556.931C960.006 558.5 956.824 565.643 956.824 565.643C956.824 565.643 970.485 564.831 974.49 564.831C978.495 564.831 986.504 558.5 986.504 558.5Z" fill="white"/>
<path d="M928.294 571.973C931.711 570.709 935.263 569.838 938.882 569.376C940.364 569.376 944.917 573.434 944.917 573.434L936.633 578.304L926.758 576.464L928.294 571.973Z" fill="white"/>
<path d="M954.136 581.767C952.559 581.864 951.022 582.297 949.63 583.035C948.238 583.773 947.024 584.798 946.071 586.041C944.91 587.427 943.967 588.978 943.273 590.641C946.881 591.406 950.556 591.823 954.246 591.885C955.453 591.29 963.243 588.206 963.572 586.961C963.901 585.717 956.001 581.767 954.136 581.767Z" fill="white"/>
<path d="M977.396 571.324C972.691 571.57 968.013 572.185 963.406 573.164C960.938 574.408 959.676 578.575 959.676 578.575C964.393 579.554 969.181 580.169 973.995 580.415C976.993 579.484 979.746 577.914 982.059 575.815L977.396 571.324Z" fill="white"/>
<path d="M947.275 540.698C942.453 541.339 937.756 542.689 933.34 544.703C931.164 546.279 929.176 548.095 927.415 550.114L925.879 555.525C929.813 555.717 933.757 555.608 937.674 555.2C942.15 553.086 946.509 550.737 950.731 548.165L952.267 542.051L947.275 540.698Z" fill="white"/>
<path d="M1011.68 557.416C1006.48 558.462 1001.39 560.002 996.487 562.015C994.951 563.584 991.824 567.426 991.824 567.426C995.235 567.73 998.66 567.838 1002.08 567.751C1005.39 566.648 1008.53 565.1 1011.41 563.152C1012.34 562.34 1011.68 557.416 1011.68 557.416Z" fill="white"/>
<path d="M919.959 561.475C917.186 562.13 914.484 563.055 911.895 564.234C910.195 565.374 908.631 566.699 907.231 568.184C906.299 569.429 913.157 570.024 914.363 569.699C916.944 568.688 919.439 567.475 921.825 566.074C922.821 564.97 923.653 563.731 924.293 562.394L919.959 561.475Z" fill="white"/>
<path d="M918.696 545.622C915.643 545.943 912.629 546.559 909.699 547.462C906.467 548.859 903.441 550.679 900.701 552.873C899.165 554.117 898.836 557.797 898.836 557.797C898.836 557.797 906.901 556.877 909.095 556.228C912.104 554.924 915.002 553.386 917.763 551.628L918.696 545.622Z" fill="white"/>
<path d="M1105 492.864C1102.51 497.022 1100.66 501.527 1099.52 506.229C1099.49 508.903 1099.76 511.571 1100.34 514.183L1103.58 518.566C1106.14 515.609 1108.47 512.461 1110.55 509.151C1111.37 507.095 1112.85 494.65 1112.85 494.65L1108.84 489.726L1105 492.864Z" fill="#FFD800"/>
<path d="M890.606 501.953C890.367 506.054 888.854 509.984 886.273 513.208C881.836 516.201 876.998 518.568 871.899 520.242C871.299 517.998 871.26 515.644 871.785 513.382C872.311 511.121 873.385 509.018 874.916 507.256C879.466 503.934 884.947 502.081 890.606 501.953V501.953Z" fill="#009E6D"/>
<path d="M897.574 489.945C897.574 489.945 892.088 497.304 891.43 497.142C890.771 496.979 881.719 496.546 881.719 496.546L874.094 492.218C874.094 492.218 881.61 486.806 882.871 486.265C886.191 485.233 889.65 484.704 893.131 484.696C895.106 485.021 897.574 489.945 897.574 489.945Z" fill="#009E6D"/>
<path d="M903.497 501.632C903.497 501.632 895.926 506.394 895.871 509.748C896.738 514.991 898.06 520.15 899.821 525.17C899.821 525.17 908.709 519.759 909.532 516.999C909.484 513.294 908.759 509.628 907.392 506.177L903.497 501.632Z" fill="#009E6D"/>
<path d="M911.563 477.874C911.563 477.874 905.473 483.285 903.059 483.285C899.624 482.155 896.344 480.611 893.294 478.686L888.137 473.275C892.42 471.571 896.869 470.302 901.413 469.487C904.211 469.487 909.533 474.411 909.533 474.411L911.563 477.874Z" fill="#009E6D"/>
<path d="M918.314 493.134C918.314 493.134 912.499 500.276 913.322 502.819C914.145 505.363 916.504 512.343 917.052 513.641C917.601 514.94 920.564 519.377 920.289 518.078C920.015 516.78 925.775 505.633 925.775 502.928C925.183 499.701 924.013 496.605 922.319 493.783L918.314 493.134Z" fill="#009E6D"/>
<path d="M931.311 466.515C927.822 468.77 924.014 470.502 920.01 471.655C915.181 470.024 910.471 468.071 905.91 465.811C905.91 465.811 912.219 461.266 914.414 460.4C918.164 459.507 922.042 459.251 925.88 459.643C928.019 459.697 931.311 466.515 931.311 466.515Z" fill="#009E6D"/>
<path d="M935.042 478.958C933.361 482.678 932.609 486.742 932.848 490.808C934.204 494.764 935.855 498.617 937.786 502.334C937.786 502.334 943.656 496.923 943.82 492.81C943.583 489.068 942.653 485.4 941.077 481.988L935.042 478.958Z" fill="#009E6D"/>
<path d="M887.971 505.853L897.846 496.925L941.077 469.437L961.157 460.888L958.414 458.994L948.758 462.944L932.574 471.331L907.118 488.159L887.148 503.31L887.971 505.853Z" fill="#009E6D"/>
<path d="M902.562 504.392C902.562 503.851 904.812 491.622 904.812 491.622L907.226 490.323L905.086 499.847L902.562 504.392Z" fill="#009E6D"/>
<path d="M893.789 492.105L904.761 490.753L907.998 488.913L896.148 489.562L893.789 492.105Z" fill="#009E6D"/>
<path d="M907.062 477.333L916.444 480.525L920.01 481.445L923.137 479.281L915.072 477.225L907.062 477.333Z" fill="#009E6D"/>
<path d="M918.859 495.188C918.859 494.539 919.353 481.715 919.353 481.715L922.096 480.146V484.366L920.395 495.188H918.859Z" fill="#009E6D"/>
<path d="M926.922 466.242C927.416 466.242 933.231 467.541 933.231 467.541L938.223 469.272L940.747 467.757L934.383 466.08L927.196 464.943L926.922 466.242Z" fill="#009E6D"/>
<path d="M935.486 483.127C935.157 482.315 934.828 475.01 934.828 475.01L936.529 469.924L940.095 468.733L937.297 475.605L935.486 483.127Z" fill="#009E6D"/>
<path d="M669.51 348.063C662.079 350.56 655.298 354.643 649.651 360.021C646.359 362.727 650.803 374.685 651.9 377.932C652.997 381.178 668.358 384.479 669.51 384.479C673.114 375.324 675.887 365.872 677.795 356.233C677.999 355.116 677.926 353.966 677.582 352.883C677.238 351.799 676.633 350.814 675.819 350.012C675.005 349.209 674.006 348.612 672.907 348.273C671.809 347.933 670.643 347.861 669.51 348.063V348.063Z" fill="#E73E11"/>
<path d="M634.239 310.026C624.089 307.537 613.885 314.896 610.538 315.978C607.885 317.191 605.47 318.858 603.406 320.902C603.406 320.902 606.149 329.019 607.795 332.32C610.315 335.785 613.503 338.727 617.177 340.977C619.536 342.763 626.558 335.025 628.149 332.861C631.277 327.125 633.849 321.11 635.829 314.896C636.433 312.191 636.433 310.568 634.239 310.026Z" fill="#E73E11"/>
<path d="M681.141 303.046C679.605 297.148 661.72 308.458 658.154 310.622C654.588 312.786 664.299 320.199 664.299 320.199L674.997 329.236C677.931 326.886 680.356 323.979 682.129 320.686C682.874 314.795 682.54 308.82 681.141 303.046V303.046Z" fill="#E73E11"/>
<path d="M590.242 355.856C591.778 355.856 612.68 361.917 615.752 365.434C612.257 371.73 608.335 377.786 604.012 383.561C601.356 386.482 598.456 389.179 595.344 391.623C592.877 385.045 590.825 378.322 589.199 371.494C589.199 368.518 590.242 355.856 590.242 355.856Z" fill="#E73E11"/>
<path d="M705.834 336.865C699.863 340.804 694.44 345.498 689.705 350.826C688.937 353.098 706.163 364.083 708.138 365.598C710.113 367.113 714.502 351.637 715.983 347.796C717.465 343.954 716.367 344.441 713.46 341.735C711.049 339.92 708.499 338.292 705.834 336.865Z" fill="#E73E11"/>
<path d="M638.734 389.786C638.734 388.271 624.964 389.786 622.276 390.165C619.588 390.544 615.363 396.55 615.363 399.959C615.363 403.368 616.131 411.701 616.131 411.701C618.245 412.371 620.441 412.753 622.66 412.837C628.202 412.835 633.725 412.199 639.118 410.943C641.038 409.969 638.734 392.816 638.734 389.786Z" fill="#E73E11"/>
<path d="M1086 467.028C1086.04 475.128 1084.61 483.167 1081.77 490.75C1080.89 492.996 1079.84 495.175 1078.65 497.268C1077.6 499.097 1076.43 500.85 1075.14 502.514C1071.08 507.867 1066.53 512.825 1061.54 517.322C1060.09 518.595 1058.68 519.73 1057.32 520.741C1053.21 523.876 1048.55 526.222 1043.59 527.66C1041.28 528.311 1037.69 529.28 1033.76 530.318L1028.66 531.702C1020.37 533.847 1012.3 535.854 1012.3 535.854L976.224 544.946C976.224 544.946 966.841 547.977 963.235 544.683C963.235 544.683 961.273 536.546 976.279 531.702C976.279 531.702 963.594 533.404 958.854 532.062C954.115 530.719 952.843 525.225 958.758 522.374L975.049 516.838C975.049 516.838 955.704 519.191 954.322 515.966C952.94 512.741 957.224 507.662 965.487 506.624C973.751 505.586 1007.32 507.247 1017.62 510.042H1017.89L1018.41 509.863C1020.66 509.074 1029.47 505.711 1031.68 501.448C1032.09 500.645 1032.73 499.58 1033.47 498.306C1033.76 497.836 1034.05 497.338 1034.37 496.798C1036.24 493.693 1037.88 490.455 1039.28 487.11C1039.51 486.57 1039.72 486.017 1039.91 485.463C1040.98 482.642 1041.57 479.663 1041.67 476.647C1041.67 476.135 1041.67 475.637 1041.67 475.139C1041.56 473.503 1041.17 471.898 1040.52 470.392C1040.35 469.855 1040.13 469.34 1039.84 468.855C1039.6 468.419 1039.32 468.003 1039.01 467.61C1037.36 465.451 1033.98 462.724 1027.39 462.074H1026.99L1024.77 461.852C1020.11 461.368 1014.71 460.579 1009.43 459.666L1006.87 459.209C999.964 457.963 993.607 456.579 989.669 455.458C981.779 453.23 954.819 442.158 940.075 430.007C936.377 427.44 933.04 424.386 930.154 420.928C930.154 420.928 928.178 415.821 930.057 415.226C930.057 415.226 952.429 416.444 959.338 416.14C966.247 415.835 1000.99 415.448 1000.99 415.448H1005.51C1007.98 415.448 1011.23 415.378 1014.56 415.365C1020.08 415.365 1025.86 415.365 1028.84 415.365C1030.44 415.478 1032.02 415.705 1033.58 416.043C1035.68 416.458 1038.21 417.053 1040.95 417.773C1048.58 419.756 1056.04 422.328 1063.27 425.468C1065.99 426.564 1068.5 428.128 1070.69 430.09L1071.27 430.727C1076.79 437.218 1084.64 451.293 1085.37 456.441C1085.37 456.699 1085.42 457.004 1085.5 457.354C1085.87 460.566 1086.03 463.797 1086 467.028V467.028Z" fill="#F4AACC"/>
<path d="M1014.5 443.155C1013.12 448.788 1011.41 454.334 1009.37 459.762L1006.82 459.306L1010.24 451.002C1014.56 435.128 1008.96 421.828 1005.45 415.558C1007.92 415.558 1011.17 415.489 1014.5 415.475C1015.76 424.443 1015.62 437.757 1014.5 443.155Z" fill="white"/>
<path d="M1040.89 417.816C1040.39 425.035 1039.27 432.198 1037.55 439.227C1035.25 447.313 1031.81 455.03 1027.34 462.145H1026.94L1024.71 461.924C1029.02 454.935 1031.41 447.904 1033.69 434.452C1034.4 430.3 1033.96 421.83 1033.53 416.128C1035.63 416.502 1038.16 417.097 1040.89 417.816Z" fill="white"/>
<path d="M1071.21 430.768C1068.44 435.736 1061.91 447.14 1057.39 452.911C1052.87 458.682 1044.03 465.671 1039.84 468.882C1039.6 468.446 1039.32 468.03 1039.01 467.637C1042.49 464.163 1047.1 458.821 1047.1 458.821C1055.08 448.815 1060.91 432.525 1063.26 425.439C1065.99 426.536 1068.5 428.1 1070.68 430.062L1071.21 430.768Z" fill="white"/>
<path d="M1086 467.028C1080.23 470.225 1067.06 473.948 1059.64 475.332C1053.71 476.299 1047.7 476.762 1041.68 476.716C1041.68 476.204 1041.68 475.706 1041.68 475.208L1055.07 472.592C1066.3 470.112 1076.75 464.881 1085.47 457.368C1085.85 460.574 1086.02 463.801 1086 467.028V467.028Z" fill="white"/>
<path d="M1081.77 490.747C1080.89 492.994 1079.84 495.173 1078.65 497.266C1073.75 497.003 1065.66 496.463 1058.36 495.481C1051.41 494.351 1044.85 491.496 1039.28 487.177C1039.51 486.637 1039.72 486.083 1039.91 485.53C1047.62 490.641 1056.83 492.983 1066.04 492.173C1073.64 491.592 1078.6 491.08 1081.77 490.747Z" fill="white"/>
<path d="M1061.54 517.322C1060.09 518.596 1058.68 519.73 1057.32 520.741C1051.96 517.876 1044.89 513.821 1040.99 510.043C1037.5 506.906 1034.9 502.893 1033.47 498.417C1033.76 497.947 1034.05 497.448 1034.37 496.909C1037.14 501.27 1040.52 505.208 1044.42 508.603C1048.87 512.354 1055.89 515.468 1061.54 517.322Z" fill="white"/>
<path d="M1033.76 530.346L1028.66 531.73C1024.17 527.73 1017.97 520.382 1017.61 510.14H1017.87L1018.4 509.96C1018.87 511.524 1020.46 515.261 1025.73 522.79C1027.72 525.957 1030.48 528.559 1033.76 530.346V530.346Z" fill="white"/>
<path d="M1018.78 468.233C1018.78 468.233 1010.31 471.319 1008.86 473.451C1007.41 475.582 1004.81 483.291 1004.81 483.291C1004.81 483.291 1002.89 487.443 1004.81 488.342C1006.73 489.242 1006.68 488.882 1008.35 485.976C1010.02 483.069 1011.57 477.575 1014.07 476.177C1016.57 474.779 1026.51 471.236 1026.51 471.236C1026.51 471.236 1029.27 470.323 1029.27 469.963C1029.27 469.603 1029.27 469.271 1027.78 469.008C1026.28 468.745 1020.87 468.108 1020.87 468.108C1020.17 468.081 1019.47 468.123 1018.78 468.233V468.233Z" fill="#F4AACC"/>
<path d="M1033.35 475.307C1030.84 475.827 1028.38 476.516 1025.97 477.369C1024.23 478.2 1021.1 479.528 1020.01 481.521C1018.92 483.514 1015.02 492.939 1015.02 492.939C1015.02 492.939 1014.25 495.638 1015.42 495.887C1016.6 496.136 1016.59 497.105 1018.28 495.458C1019.98 493.811 1023.94 485.466 1025.19 484.58C1027.26 483.616 1029.43 482.865 1031.65 482.338C1032.23 481.923 1032.64 481.322 1032.84 480.636C1033.04 479.639 1033.95 476.096 1033.95 476.096C1033.95 476.096 1034.66 475.252 1033.35 475.307Z" fill="#F4AACC"/>
<path d="M985.869 387.989C976.113 386.605 949.734 387.989 949.734 387.989C943.471 388.879 937.308 390.367 931.328 392.432C923.963 395.712 917.675 398.341 913.557 405.912C909.44 413.482 920.066 419.17 920.066 419.17C920.589 419.426 921.001 419.864 921.227 420.402C921.641 420.987 922.019 421.597 922.36 422.229C923.037 423.433 924.405 424.166 924.129 425.107C923.852 426.049 918.601 423.82 918.601 423.82C909.108 419.973 908.182 415.254 908.182 415.254C906.386 410.161 908.859 403.891 913.834 398.244C918.808 392.598 931.3 388.266 940.365 386.052C949.43 383.837 971.221 384.668 981.184 385.304C991.147 385.941 1019.88 390.425 1028.57 390.563C1028.57 390.563 1046.34 390.397 1053.11 389.622C1059.55 388.742 1065.93 387.527 1072.25 385.982C1073.92 385.498 1074.91 385.387 1075.66 386.176C1076.41 386.965 1077.04 386.411 1075.33 387.491C1073.62 388.57 1067.83 389.816 1065.06 390.563C1062.3 391.311 1035.86 393.664 1026.9 392.667C1017.93 391.671 998.043 389.096 997.877 389.055C997.711 389.013 985.869 387.989 985.869 387.989Z" fill="#F4AACC"/>
<path d="M929.945 431.738C924.434 430.839 919.058 429.249 913.943 427.005C907.822 424.112 894.598 417.663 899.835 403.325C899.835 403.325 903.372 386.952 920.175 380.711C936.978 374.469 945.408 369.888 964.394 367.729C983.38 365.57 1013.7 363.259 1020.97 362.041C1028.23 360.823 1041 357.114 1042.12 356.367C1042.81 355.896 1043.64 354.983 1042.84 354.346C1042.04 353.709 1037.71 355.619 1034.95 356.588C1027.31 359.356 1009.64 361.072 1003.17 361.543C996.701 362.013 963.62 365.445 958.701 365.778C953.782 366.11 930.125 372.144 927.306 373.265C924.487 374.386 908.554 381.652 904.519 385.721C900.484 389.79 893.547 398.619 892.235 405.968C891.406 411.897 892.788 417.923 896.118 422.894C897.928 425.33 909.079 432.928 916.03 434.907C922.981 436.886 931.23 438.27 933.455 438.699C935.505 439.014 937.572 439.213 939.645 439.294C939.645 439.294 939.714 438.353 937.904 437.26C936.085 435.995 934.354 434.608 932.722 433.108C932.722 433.108 932.639 431.738 929.945 431.738Z" fill="#F4AACC"/>
<path d="M1008.81 466.931C1008.81 466.931 1005.01 468.315 1003.86 469.699C1002.71 471.083 998.815 478.127 997.903 479.387C996.991 480.646 995.25 482.044 994.669 480.771C994.089 479.498 997.226 472.467 997.433 471.872C997.64 471.277 999.906 466.502 1001.77 465.907C1003.22 465.544 1004.73 465.455 1006.21 465.644C1007.21 465.727 1008.13 466.187 1008.81 466.931V466.931Z" fill="#F4AACC"/>
<path d="M957.774 429.758C960.786 429.91 961.588 429.246 962.32 427.821C963.053 426.395 963.301 423.143 961.132 422.285C958.962 421.427 956.986 421.122 955.604 422.52C954.969 423.149 954.533 423.953 954.354 424.83C954.174 425.707 954.258 426.618 954.596 427.447C954.923 428.043 955.378 428.559 955.927 428.958C956.476 429.358 957.107 429.631 957.774 429.758V429.758Z" fill="#1D1D1B"/>
</g>
<defs>
<clipPath id="clip0_6488_27265">
<rect width="1460" height="902" fill="white" transform="translate(0 0.21875)"/>
</clipPath>
</defs>
</svg>
