<svg width="1456" height="814" viewBox="0 0 1456 814" fill="none" xmlns="http://www.w3.org/2000/svg">
<g clip-path="url(#clip0_6488_27234)">
<rect width="1455.5" height="812.955" transform="translate(0.25 0.263916)" fill="white"/>
<rect x="35" y="32.2639" width="1386" height="749.803" fill="#EFEAE8"/>
<path d="M326.709 291.97C323.521 292.335 296.771 287.087 278.578 293.2C260.385 299.313 243.519 306.047 237.948 313.013C226.428 324.027 219.088 338.654 217.177 354.403C214.168 378.859 214.858 518.961 214.858 518.961C214.22 534.497 218.238 549.853 226.402 563.081C239.724 582.219 247.324 594.731 263.079 596.729C274.531 598.22 325.782 600.291 333.388 600.471C340.995 600.651 408.081 598.324 429.058 599.409C450.035 600.495 523.441 606.069 534.178 605.865C544.914 605.662 602.337 610.309 608.697 610.974C615.056 611.639 681.731 613.821 681.731 613.821C695.653 614.382 709.597 613.136 723.209 610.115C723.209 610.115 753.13 608.316 761.876 588.902C770.518 570.416 774.532 550.142 773.574 529.816L778.098 489.448C778.098 489.448 780.085 485.578 789.115 486.665C798.146 487.752 936.642 506.438 936.642 506.438C943.411 507.596 950.303 507.91 957.158 507.373C961.461 507.626 965.753 506.663 969.538 504.594C973.322 502.525 976.445 499.436 978.543 495.684C986.902 482.247 992.527 451.456 990.052 445.249C990.052 445.249 990.201 435.95 974.447 434.526C958.693 433.101 891.13 436.289 891.13 436.289L785.779 437.261C780.477 436.685 781.736 433.469 781.736 433.469L780.403 386.305C780.403 386.305 777.862 354.516 767.07 340.841C767.07 340.841 746.432 315.069 732.418 310.521C718.404 305.973 716.37 306.903 699.255 306.117C699.255 306.117 658.364 306.899 642.323 305.953C626.283 305.007 583.202 305.841 575.98 305.468C568.757 305.095 506.198 305.331 491.58 304.91C476.963 304.49 394.719 298.209 386.461 298.454C378.202 298.699 326.709 291.97 326.709 291.97Z" fill="#EABF97"/>
<path d="M960.744 467.658C960.744 467.658 957.285 458.849 952.653 456.647C950.212 455.255 947.493 454.408 944.684 454.166C941.876 453.924 939.046 454.292 936.391 455.246C934.228 456.39 932.413 458.092 931.138 460.172C929.863 462.251 929.175 464.632 929.146 467.063C928.856 473.321 932.53 483.979 939.562 486.26C942.909 487.535 946.599 487.631 950.018 486.533C953.437 485.435 956.38 483.209 958.358 480.225C959.767 478.484 960.723 476.426 961.139 474.234C961.556 472.041 961.42 469.782 960.744 467.658Z" fill="#EFEAE8"/>
<g clip-path="url(#clip1_6488_27234)">
<path d="M586.619 577.389C587.174 577.223 598.394 569.283 600.777 565.403C604.433 558.838 606.638 551.583 607.245 544.122C606.511 535.529 603.985 527.188 599.826 519.624C596.637 514.498 582.75 503.651 582.161 503.23L581.779 503.028C580.169 502.527 566.001 497.918 560.523 498.859C551.458 501.741 543.387 507.089 537.234 514.29C532.788 522.328 530.272 531.266 529.882 540.408C530.133 544.629 530.918 548.799 532.219 552.823C533.361 556.87 535.016 560.757 537.146 564.39C541.934 571.743 559.534 584.043 566.234 583.614C573.244 582.317 580.084 580.228 586.619 577.389ZM566.418 581.167C561.045 581.514 544.286 570.229 539.608 563.123C535.097 556.069 532.695 547.89 532.68 539.527C532.665 531.165 535.036 522.958 539.522 515.853C545.287 509.181 552.783 504.195 561.197 501.435C565.054 500.664 576.52 503.869 580.911 505.329C582.54 506.598 594.96 516.478 597.794 520.902C601.711 528.078 604.103 535.975 604.823 544.11C604.219 551.083 602.152 557.859 598.753 564.007C594.731 568.178 590.244 571.884 585.378 575.054C579.289 577.742 572.934 579.791 566.418 581.167V581.167Z" fill="#CF2B4A"/>
<path d="M566.419 581.169C561.045 581.516 544.286 570.23 539.609 563.125C535.097 556.071 532.696 547.892 532.68 539.529C532.665 531.166 535.037 522.96 539.522 515.855C545.287 509.183 552.784 504.196 561.197 501.437C565.055 500.666 576.52 503.87 580.911 505.33C582.541 506.599 594.96 516.48 597.794 520.904C601.711 528.079 604.103 535.977 604.823 544.112C604.22 551.084 602.152 557.861 598.753 564.008C594.732 568.18 590.245 571.886 585.379 575.055C579.29 577.744 572.935 579.793 566.419 581.169V581.169Z" fill="white"/>
</g>
<path d="M534.396 281.48C534.396 281.48 553.741 288.771 562.161 293.217C573.995 301.558 583.577 312.664 590.063 325.557C596.432 337.54 600.432 350.626 601.848 364.108C601.629 374.012 600.302 410.173 598.96 418.168C597.619 426.163 590.175 454.872 574.161 464.826C558.148 474.78 539.825 470.562 533.336 475.988C525.621 482.182 518.927 489.535 513.498 497.781C509.064 505.514 491.545 532.73 490.939 547.082C488.789 559.764 490.025 572.781 494.522 584.832C500.483 596.539 503.671 603.103 505.791 607.123C507.911 611.143 507.814 613.482 503.599 611.312C491.804 597.341 481.533 582.167 472.958 566.044C469.032 555.565 468.897 544.051 472.575 533.472C477.762 518.335 484.033 489.526 478.871 483.435C472.584 475.321 464.585 468.672 455.434 463.955C443.898 459.805 433.664 452.723 425.751 443.414C418.595 428.799 415.453 412.56 416.643 396.341C418.843 378.497 421.976 349.957 423.585 338.891C426.535 328.779 431.61 319.4 438.476 311.374C445.341 303.348 453.841 296.857 463.414 292.331C478.726 284.465 495.689 280.306 512.918 280.196C520.104 279.625 527.334 280.058 534.396 281.48V281.48Z" fill="#CF2B4A"/>
<path d="M521.359 303.468C528.949 296.203 534.915 287.434 538.866 277.731C541.443 272.366 542.59 266.435 542.195 260.508L541.663 251.817C541.576 250.383 541.783 248.947 542.27 247.594C542.758 246.241 543.516 244.999 544.499 243.945C547.898 240.71 553.166 234.538 557.615 236.515C559.608 237.439 561.391 238.755 562.856 240.383C564.322 242.012 565.439 243.919 566.14 245.989C567.257 238.772 569.462 231.762 572.683 225.195C574.511 221.667 577.031 218.538 580.096 215.992C583.161 213.446 586.708 211.536 590.528 210.373C600.987 207.522 605.557 208.122 609.306 211.962C612.519 214.399 615.38 217.263 617.808 220.473C617.808 220.473 633.085 210.451 636.327 209.018C644.279 205.624 652.907 204.09 661.546 204.533C666.791 204.602 671.857 206.421 675.928 209.699C677.657 212.586 679.012 215.677 679.963 218.9C680.857 223.404 680.451 228.069 678.79 232.356C676.526 237.267 673.291 241.676 669.276 245.321C662.927 248.915 656.26 251.923 649.36 254.31C645.649 254.956 632.234 255.956 632.234 255.956C632.234 255.956 628.124 256.249 628.551 258.74C628.979 261.231 631.255 269.643 631.255 269.643C631.495 273.054 630.433 276.432 628.28 279.104C622.614 283.009 616.124 285.575 609.309 286.608C602.494 287.641 595.533 287.113 588.959 285.064C584.953 283.403 581.135 281.327 577.568 278.87C577.568 278.87 581.746 285.201 581.329 287.514C580.912 289.827 578.669 295.828 575.766 297.077C570.768 300.022 565.061 301.568 559.253 301.55C549.533 301.454 539.817 302.059 530.182 303.361L521.949 305.333C521.949 305.333 520.422 304.35 521.359 303.468Z" fill="#005F40"/>
<path d="M519.842 300.316C522.367 274.039 523.162 247.629 522.224 221.254C520.659 205.114 516.291 189.368 509.313 174.717C504.652 167.815 492.714 158.164 491.633 154.552C490.552 150.94 488.429 139.559 493.267 135.808C496.994 134.218 501.184 134.078 505.006 135.414C512.562 137.44 520.998 139.221 520.998 139.221C520.998 139.221 502.998 119.029 497.551 113.767C493.663 109.587 490.692 104.65 488.827 99.2677C487.674 95.0906 487.424 90.7171 488.093 86.4347C488.763 82.1523 490.337 78.0578 492.711 74.4201C494.578 72.9138 496.756 71.8337 499.089 71.2568C501.422 70.6799 503.854 70.6203 506.211 71.082C513.275 73.7923 520.175 76.905 526.877 80.4049C528.81 81.6352 522.363 69.355 520.818 66.1306C517.418 59.1004 516.668 51.0888 518.706 43.5492C522.024 34.5407 526.708 26.0873 532.597 18.4816C535.187 15.738 538.38 13.6265 541.928 12.3128C545.475 10.999 549.279 10.5187 553.042 10.9094C556.805 11.3002 560.424 12.5514 563.617 14.5651C566.809 16.5787 569.487 19.2999 571.442 22.5156C576.014 29.8922 578.642 38.2957 579.084 46.9519C578.704 52.6895 577.156 58.2924 574.534 63.422L566.027 80.9443C566.027 80.9443 577.194 76.0221 580.406 74.907C587.468 73.1617 594.866 73.3092 601.847 75.3345C606.431 78.1761 614.559 84.7312 614.343 90.9004C614.493 94.5801 613.893 98.2529 612.577 101.698C611.262 105.143 609.259 108.29 606.689 110.948C600.263 116.912 574.843 146.124 574.843 146.124C574.843 146.124 587.184 143.755 589.302 142.868C591.42 141.98 603.349 140.643 606.451 145.706C609.554 150.769 611.057 155.697 608.352 159.628C603.993 168.175 597.475 175.453 589.436 180.75C578.084 187.79 551.493 210.717 546.836 224.724C538.104 244.883 530.942 265.675 525.413 286.919L521.572 303.876C521.572 303.876 520.122 304.5 519.842 300.316Z" fill="#005F40"/>
<path d="M521.481 302.326C518.787 297.774 516.543 292.974 514.779 287.993C512.198 280.265 511.3 272.077 512.145 263.974C514.373 258.312 516.242 252.518 517.741 246.626C518.083 242.707 517.409 239.342 513.838 238.399C510.266 237.457 505.187 235.32 500.954 238.27C498.689 239.76 496.65 241.564 494.899 243.627C494.899 243.627 501.075 225.795 502.112 221.294C503.882 211.246 504.232 201.004 503.153 190.863C502.309 188.508 500.932 186.377 499.128 184.633C497.324 182.89 495.141 181.58 492.747 180.806C489.547 180.535 479.069 178.688 475.472 182.972L468.894 190.633L461.497 179.336C460.392 177.215 451.883 166.358 447.746 166.968C443.417 165.517 438.702 165.687 434.486 167.447C429.493 169.826 424.956 173.054 421.082 176.984C420.386 177.566 418.537 180.29 418.558 187.442C420.15 192.877 422.728 197.977 426.165 202.491L429.798 206.427L420.685 208.644C417.35 209.708 414.271 211.446 411.643 213.748C409.326 216.709 408.164 220.401 408.373 224.142C408.658 229.502 411.399 231.335 415.435 234.344C429.546 243.224 444.311 251.037 459.605 257.715C454.139 257.284 448.647 257.248 443.174 257.606C441.723 257.979 440.409 258.752 439.383 259.837C438.356 260.921 437.659 262.271 437.374 263.731C437.285 265.981 437.67 268.224 438.506 270.316C439.341 272.408 440.608 274.303 442.225 275.88C447.026 279.97 452.823 282.742 459.04 283.918C469.805 283.979 480.515 285.423 490.903 288.214C497.899 291.794 509.639 296.415 511.555 297.858L519.58 304.406C519.58 304.406 522.567 304.658 521.481 302.326Z" fill="#005F40"/>
<path d="M299.916 535.63C301.878 534.384 324.478 508.874 335.052 507.752C345.626 506.63 368.348 500.09 380.404 504.038C393.272 508.587 404.909 516.01 414.418 525.733C420.558 533.201 441.79 553.143 439.048 570.208C437.259 582.34 432.874 593.958 426.188 604.279C422.034 612.003 414.571 619.151 425.024 627.177C435.476 635.204 434.69 638.238 444.338 644.762C453.986 651.286 466.79 662.003 468.804 669.939C461.425 663.59 453.238 658.228 444.451 653.991C437.479 652.275 417.289 644.047 410.394 643.373C405.701 642.438 400.865 642.45 396.173 643.407C391.481 644.365 387.03 646.248 383.083 648.946C372.331 658.253 358.473 663.251 344.222 662.963C329.97 662.674 316.35 657.12 306.028 647.388C297.168 638.716 280.336 617.827 278.758 606.292C277.18 594.758 276.638 568.977 284.699 555.111C288.497 547.73 293.659 541.122 299.916 535.63V535.63Z" fill="#CF2B4A"/>
<path d="M320.518 544.076C316.939 543.589 306.711 514.496 292.781 505.47C278.85 496.445 243.245 473.234 243.245 473.234C243.245 473.234 230.423 466.337 230.242 457.447C230.242 457.447 227.321 448.517 233.23 444.5C234.383 443.395 235.789 442.584 237.328 442.138C238.866 441.691 240.49 441.623 242.059 441.939L248.796 441.802L211.595 422.281C206.984 420.634 202.95 417.707 199.973 413.849C197.216 408.596 195.241 402.973 194.111 397.155C194.338 395.502 194.894 393.91 195.746 392.471C196.598 391.033 197.73 389.775 199.075 388.773C202.208 385.954 206.324 384.457 210.547 384.602C216.577 385.497 225.059 385.914 225.059 385.914C225.059 385.914 215.268 373.871 213.693 372.466C207.862 366.026 202.867 358.887 198.824 351.214C198.346 349.372 198.302 347.444 198.694 345.58C199.086 343.716 199.905 341.966 201.086 340.464C203.794 335.916 207.525 332.05 211.987 329.168C216.406 325.952 221.865 324.469 227.312 325.007C227.312 325.007 236.487 325.169 238.124 327.508C240.906 329.972 242.733 333.322 243.291 336.982C244.741 343.995 249.131 358.773 249.131 358.773C249.131 358.773 252.651 369.342 253.538 370.613C253.538 370.613 254.528 371.374 257.659 363.945C260.79 356.516 261.063 355.153 264.447 353.228C265.721 352.001 267.242 351.055 268.911 350.454C270.579 349.853 272.357 349.61 274.125 349.741C275.894 349.872 277.613 350.375 279.17 351.215C280.727 352.055 282.086 353.214 283.156 354.615C286.436 358.018 289.956 362 289.956 362C290.772 362.739 291.431 363.634 291.893 364.63C292.355 365.627 292.612 366.706 292.647 367.803C292.451 371.094 286.834 398.049 286.001 402.916C285.391 410.748 285.903 418.623 287.522 426.307L297.107 417.837C298.099 416.854 299.317 416.125 300.656 415.714C301.995 415.302 303.414 415.221 304.79 415.476C306.659 416.124 314.149 420.598 314.149 420.598C315.955 422.272 317.36 424.325 318.262 426.608C319.596 432.006 319.985 437.593 319.412 443.126C318.268 445.984 314.508 469.548 312.579 477.211C310.068 485.611 309.55 494.469 311.067 503.091C313.08 511.029 323.298 542.671 323.298 542.671C323.298 542.671 322.173 544.364 320.518 544.076Z" fill="#005F40"/>
<path d="M322.003 540.331L318.691 538.869C318.691 538.869 302.791 532.363 297.672 529.415C291.432 526.351 285.371 522.944 279.515 519.21C276.113 516.597 267.642 507.043 267.642 507.043C263.464 502.119 259.55 496.979 255.916 491.647C254.348 489.084 252.026 487.06 249.261 485.848C245.746 485.436 242.201 485.312 238.663 485.479C236.033 485.426 233.338 490.142 232.831 491.424C232.324 492.707 230.828 500.704 230.024 500.086C229.22 499.469 220.536 490.44 220.11 489.719C219.683 488.998 211.217 478.17 209.629 476.656C207.552 474.564 205.201 472.759 202.639 471.288C199.085 470.123 195.287 469.881 191.608 470.586C187.711 471.686 184.226 473.901 181.587 476.953C179.426 479.719 181.485 484.938 182.875 487.087C183.905 488.951 184.598 490.981 184.921 493.084C184.921 493.084 178.215 491.278 176.814 490.792C170.628 488.423 164.314 486.397 157.899 484.725C155.917 484.337 153.871 484.384 151.907 484.863C149.943 485.342 148.107 486.242 146.529 487.498C142.287 491.109 139.477 496.099 138.603 501.572C138.126 503.112 138.032 504.743 138.33 506.325C138.629 507.908 139.31 509.394 140.316 510.656C143.516 512.801 147.019 514.464 150.712 515.591C155.657 516.432 160.648 516.981 165.659 517.235L180.421 518.736L175.776 523.922C174.475 525.071 173.495 526.532 172.93 528.166C172.365 529.799 172.234 531.549 172.551 533.246C173.358 536.52 177.096 538.703 183.315 541.511C189.533 544.32 193.385 542.557 198.232 541.166C203.08 539.775 221.73 529.709 222.547 529.55C218.951 534.126 216.673 539.582 215.956 545.336C215.474 550.768 219.982 552.853 225.197 554.792C230.407 556.575 236.117 556.266 241.11 553.932C248.936 549.707 256.527 545.064 263.85 540.025C268.043 537.383 272.493 535.167 277.133 533.409C282.605 531.219 308.28 540.414 311.88 541.506L317.397 543.186C317.892 543.566 321.066 544.824 322.35 543.941C323.633 543.058 322.003 540.331 322.003 540.331Z" fill="#005F40"/>
<g clip-path="url(#clip2_6488_27234)">
<path d="M721.528 426.368C721.503 425.608 715.078 408.669 710.873 404.328C703.628 397.459 694.992 392.199 685.538 388.896C674.16 386.913 662.491 387.291 651.267 390.004C643.534 392.314 624.717 406.263 623.97 406.869L623.577 407.285C622.375 409.159 611.539 425.581 610.875 432.855C611.492 445.34 615.643 457.401 622.853 467.655C631.734 476.027 642.443 482.253 654.147 485.849C659.698 486.963 665.369 487.381 671.025 487.094C676.659 487.018 682.26 486.236 687.696 484.765C698.864 481.18 720.837 463.01 722.584 454.359C723.313 445.019 722.959 435.627 721.528 426.368ZM719.479 453.295C718.082 460.234 697.71 477.681 686.902 481.209C676.218 484.543 664.802 484.817 653.968 481.999C643.134 479.181 633.322 473.386 625.664 465.281C619.005 455.7 615.124 444.491 614.442 432.874C614.769 427.715 622.858 414.247 626.257 409.168C628.46 407.53 645.522 395.114 652.224 393.018C662.862 390.479 673.91 390.122 684.691 391.968C693.512 395.1 701.577 400.024 708.369 406.424C712.388 412.945 715.646 419.899 718.078 427.151C719.467 435.793 719.936 444.556 719.479 453.295V453.295Z" fill="#CF2B4A"/>
<path d="M719.477 453.294C718.08 460.233 697.708 477.68 686.9 481.208C676.216 484.542 664.8 484.816 653.966 481.998C643.132 479.18 633.32 473.385 625.662 465.28C619.003 455.699 615.122 444.49 614.44 432.873C614.767 427.714 622.856 414.246 626.255 409.167C628.458 407.529 645.52 395.114 652.222 393.017C662.86 390.478 673.908 390.121 684.689 391.967C693.51 395.099 701.575 400.023 708.367 406.423C712.386 412.944 715.644 419.898 718.076 427.15C719.465 435.792 719.934 444.555 719.477 453.294V453.294Z" fill="white"/>
</g>
<path d="M663.036 569.276C663.481 569.521 675.399 571.665 679.325 570.77C685.738 569.02 691.701 565.935 696.818 561.722C701.832 555.972 705.589 549.254 707.852 541.991C709.159 536.836 707.554 521.456 707.46 520.827L707.355 520.464C706.688 519.146 700.944 507.43 696.992 504.576C689.609 500.669 681.267 498.903 672.922 499.48C665.088 501.643 657.864 505.569 651.813 510.953C649.283 513.708 647.111 516.768 645.35 520.06C643.475 523.267 642.017 526.698 641.011 530.268C639.267 537.797 642.222 556.398 646.597 560.333C651.714 563.928 657.229 566.929 663.036 569.276ZM648.265 558.942C644.755 555.788 641.67 538.338 643.324 531.032C645.047 523.862 648.777 517.322 654.086 512.164C659.394 507.006 666.064 503.44 673.328 501.877C681.1 501.382 688.861 503.01 695.766 506.584C698.619 508.527 703.601 517.685 705.361 521.336C705.551 523.138 706.873 537.004 705.795 541.504C703.631 548.376 700.074 554.737 695.342 560.197C690.539 564.111 684.964 566.987 678.974 568.642C673.859 568.689 668.755 568.159 663.761 567.061C658.324 564.9 653.13 562.179 648.265 558.942V558.942Z" fill="#CF2B4A"/>
<path d="M648.266 558.943C644.755 555.789 641.67 538.338 643.324 531.032C645.047 523.862 648.778 517.322 654.086 512.164C659.394 507.006 666.064 503.44 673.329 501.877C681.1 501.382 688.861 503.011 695.767 506.584C698.619 508.527 703.601 517.685 705.361 521.336C705.552 523.138 706.874 537.005 705.796 541.504C703.631 548.377 700.074 554.738 695.342 560.197C690.539 564.111 684.964 566.987 678.975 568.642C673.86 568.69 668.756 568.159 663.761 567.061C658.324 564.9 653.13 562.179 648.266 558.943V558.943Z" fill="white"/>
<path d="M1214.06 299.136C1218.39 303.951 1221.75 309.555 1223.93 315.634C1225.35 319.498 1228.17 330.962 1231.07 341.396L1273.32 340.123L1337.45 335.395L1369.92 332.886C1370.84 332.752 1371.71 332.393 1372.45 331.842C1373.19 331.291 1373.78 330.566 1374.17 329.73C1374.17 329.73 1371.16 300.76 1371.89 298.497C1372.62 296.234 1367.07 293.574 1367.07 293.574C1367.07 293.574 1348.15 294.607 1332.7 295.126C1324.13 295.459 1316.7 295.657 1313.94 295.369C1308.35 294.822 1240.74 298.06 1235.85 297.442C1234.08 298.349 1225 298.776 1214.06 299.136Z" fill="#005F40"/>
<path d="M1183.63 315.268C1184.66 324.567 1185.18 333.914 1185.19 343.265L1224.87 342.079C1222.72 334.208 1220.52 326.176 1219.11 321.585C1216.91 315.554 1213.47 306.145 1210.71 299.855L1181.6 301.717L1183.63 315.268Z" fill="#005F40"/>
<path d="M1082.28 345.44C1084.79 345.634 1087.3 345.739 1089.81 345.753L1094.09 345.952C1106.46 346.262 1118.15 346.453 1127.34 345.807L1138.46 345.199C1145.56 344.845 1149.8 344.423 1149.8 344.423L1289.79 343.298C1289.5 329.743 1289.51 311.253 1289.33 301.756L1171.87 302.468L1138.59 305.266L1126.58 306.193L1096.96 308.502L1086.52 309.23L1085.96 313.709L1082.28 345.44Z" fill="#005F40"/>
<path d="M744.18 393.455C744.18 393.455 793.474 403.148 897.69 401.392L1020.74 398.09L1090.25 392.992L1098.33 288.715C1098.33 288.715 917.241 311.959 894.907 315.941C870.766 320.204 846.91 325.909 823.47 333.025C813.422 336.318 803.746 340.634 794.598 345.905C794.598 345.905 756.769 373.83 744.18 393.455Z" fill="#9D9D9C"/>
<path d="M1093.18 360.721C1100.1 373.011 1110.59 382.945 1123.27 389.215C1128.44 389.827 1131.82 365.299 1129.15 355.234C1128.32 352.978 1128.01 349.628 1127.39 345.933C1125.55 334.241 1124.51 322.441 1124.27 310.615C1124.64 308.935 1125.42 307.373 1126.54 306.068C1130.16 301.229 1134.21 296.73 1138.65 292.629L1138.62 305.302L1138.52 345.324L1138.48 346.976C1138.03 348.526 1137.99 350.166 1138.36 351.74C1138.73 353.313 1139.49 354.77 1140.58 355.972C1150.77 363.219 1162.3 368.384 1174.5 371.164L1186.66 371.641C1182.87 368.483 1179.99 364.394 1178.3 359.785C1177.71 358.174 1177.78 351.863 1177.65 343.987C1177.35 330.429 1177.36 311.935 1177.19 302.435L1176.99 296.401C1176.59 292.809 1175.83 284.704 1175.83 284.704C1178.7 286.316 1180.78 295.502 1180.78 295.502C1180.78 295.502 1181.21 298.172 1181.72 302.087L1183.76 315.659C1184.79 324.974 1185.31 334.335 1185.32 343.702L1185.36 346.327C1186.02 355.527 1189.26 364.372 1194.7 371.862C1207.81 372.182 1224.84 372.465 1239.05 372.3C1235.53 370.68 1232.75 367.806 1231.26 364.248C1230.49 362.154 1227.86 352.44 1225.13 342.485C1222.98 334.601 1220.77 326.556 1219.37 321.958C1217.16 315.917 1213.71 306.493 1210.95 300.193C1209.39 295.924 1207.82 293.117 1207.82 293.117C1208.91 294.365 1211.45 296.554 1214.32 299.899C1218.66 304.716 1222.01 310.322 1224.2 316.404C1225.61 320.271 1228.43 331.74 1231.33 342.179C1232.83 348.474 1234.84 354.64 1237.34 360.615C1240.26 364.99 1243.87 368.866 1248.03 372.092C1253.49 372.055 1258.93 371.631 1264.31 370.823C1279.35 367.904 1335.12 347.77 1336.77 342.263C1337.51 340.472 1337.87 338.546 1337.81 336.607L1320.02 336.503L1284.66 328.384C1280.66 327.448 1283.24 314.229 1285.33 309.93C1288.35 307.039 1291.94 304.816 1295.89 303.404C1299.84 301.993 1304.04 301.425 1308.23 301.738C1316.72 301.599 1325.13 300.097 1333.14 297.291C1344.72 294.442 1355.65 289.45 1365.36 282.575L1424.35 231.961L1541.85 175.447L1505.93 70.4329C1505.93 70.4329 1415.06 128.715 1404.21 136.33C1393.37 143.946 1351.15 152.854 1351.15 152.854C1351.15 152.854 1187.69 188.01 1181.13 190.354C1170.32 193.561 1160.58 199.592 1152.93 207.82C1145.61 216.816 1101.1 270.265 1088.56 289.508C1087.11 291.4 1086 293.522 1085.27 295.784C1085.06 301.779 1085.3 307.783 1085.98 313.747C1086.83 323.827 1088.23 336.169 1089.86 345.879C1090.55 350.907 1091.67 355.871 1093.18 360.721Z" fill="#BD906F"/>
</g>
<defs>
<clipPath id="clip0_6488_27234">
<rect width="1455.5" height="812.955" fill="white" transform="translate(0.25 0.263916)"/>
</clipPath>
<clipPath id="clip1_6488_27234">
<rect width="83.6518" height="75.4814" fill="white" transform="matrix(0.289188 0.954853 -0.959987 0.288159 592.242 489.44)"/>
</clipPath>
<clipPath id="clip2_6488_27234">
<rect width="111.799" height="99.4228" fill="white" transform="matrix(0.999478 -0.0323091 0.0328493 0.99946 609.582 389.381)"/>
</clipPath>
</defs>
</svg>
