<svg width="917" height="1236" viewBox="0 0 917 1236" fill="none" xmlns="http://www.w3.org/2000/svg">
<rect width="917" height="1236" fill="#00421E" style="fill:#00421E;fill:color(display-p3 0.0000 0.2588 0.1176);fill-opacity:1;"/>
<path d="M196.669 565.04C196.669 565.211 196.647 565.467 196.605 565.808C196.562 566.107 196.455 566.384 196.285 566.64C194.962 566.811 193.81 567.237 192.829 567.92C191.89 568.603 191.143 569.691 190.589 571.184L176.637 609.072C176.466 609.584 176.082 609.84 175.485 609.84H174.909L159.869 571.184C159.271 569.605 158.695 568.539 158.141 567.984C157.629 567.429 156.967 567.109 156.157 567.024C155.858 566.981 155.495 566.96 155.069 566.96C154.642 566.96 154.215 566.96 153.789 566.96C153.789 566.747 153.81 566.469 153.853 566.128C153.895 565.787 153.938 565.509 153.981 565.296C154.109 564.827 154.258 564.571 154.429 564.528C154.642 564.443 154.77 564.4 154.813 564.4H166.589C167.015 564.4 167.229 564.613 167.229 565.04C167.229 565.211 167.207 565.467 167.165 565.808C167.122 566.107 167.015 566.384 166.845 566.64C165.821 566.768 165.031 567.003 164.477 567.344C163.922 567.685 163.645 568.24 163.645 569.008C163.645 569.52 163.815 570.245 164.157 571.184L176.061 602.096C176.274 602.608 176.487 602.608 176.701 602.096L187.645 571.184C187.858 570.501 188.029 569.925 188.157 569.456C188.327 568.944 188.413 568.539 188.413 568.24C188.413 567.643 188.114 567.28 187.517 567.152C186.962 567.024 186.045 566.96 184.765 566.96C184.765 566.747 184.786 566.469 184.829 566.128C184.871 565.787 184.914 565.509 184.957 565.296C185.085 564.827 185.234 564.571 185.405 564.528C185.618 564.443 185.746 564.4 185.789 564.4H196.029C196.455 564.4 196.669 564.613 196.669 565.04ZM193.796 608.88C193.37 608.88 193.156 608.667 193.156 608.24C193.156 608.069 193.178 607.835 193.22 607.536C193.263 607.195 193.37 606.896 193.54 606.64C194.906 606.469 195.93 606.043 196.612 605.36C197.295 604.677 197.956 603.589 198.596 602.096L214.404 564.208C214.618 563.696 215.002 563.44 215.556 563.44H216.132L231.236 602.096C231.834 603.675 232.346 604.741 232.772 605.296C233.199 605.851 233.818 606.171 234.628 606.256C234.927 606.299 235.29 606.32 235.716 606.32C236.143 606.32 236.57 606.32 236.996 606.32C236.996 606.533 236.975 606.811 236.932 607.152C236.932 607.493 236.89 607.771 236.804 607.984C236.676 608.411 236.527 608.667 236.356 608.752C236.186 608.837 236.058 608.88 235.972 608.88H224.516C224.09 608.88 223.876 608.667 223.876 608.24C223.876 608.069 223.898 607.835 223.94 607.536C223.983 607.195 224.09 606.896 224.26 606.64C225.284 606.512 226.074 606.277 226.628 605.936C227.183 605.595 227.46 605.04 227.46 604.272C227.46 603.76 227.29 603.035 226.948 602.096L223.94 594.224H204.804L201.54 602.096C201.071 603.291 200.836 604.165 200.836 604.72C200.836 605.232 200.964 605.595 201.22 605.808C201.519 606.021 201.903 606.171 202.372 606.256C202.671 606.299 203.076 606.32 203.588 606.32C204.143 606.32 204.634 606.32 205.06 606.32C205.06 606.533 205.039 606.811 204.996 607.152C204.996 607.493 204.954 607.771 204.868 607.984C204.74 608.411 204.591 608.667 204.42 608.752C204.25 608.837 204.122 608.88 204.036 608.88H193.796ZM205.956 591.344H222.852L215.044 570.864C214.831 570.352 214.618 570.352 214.404 570.864L205.956 591.344ZM215.172 561.2C213.338 561.2 211.823 560.603 210.628 559.408C209.434 558.171 208.836 556.741 208.836 555.12C208.836 553.499 209.434 552.091 210.628 550.896C211.823 549.659 213.338 549.04 215.172 549.04C217.007 549.04 218.543 549.659 219.78 550.896C221.018 552.091 221.636 553.499 221.636 555.12C221.636 556.741 221.018 558.171 219.78 559.408C218.543 560.603 217.007 561.2 215.172 561.2ZM215.172 558.384C216.154 558.384 216.986 558.085 217.668 557.488C218.351 556.848 218.692 556.059 218.692 555.12C218.692 554.181 218.351 553.413 217.668 552.816C216.986 552.176 216.154 551.856 215.172 551.856C214.234 551.856 213.423 552.176 212.74 552.816C212.1 553.413 211.78 554.181 211.78 555.12C211.78 556.059 212.1 556.848 212.74 557.488C213.423 558.085 214.234 558.384 215.172 558.384ZM239.536 608.88C239.11 608.88 238.896 608.667 238.896 608.24C238.896 608.069 238.918 607.835 238.96 607.536C239.003 607.195 239.11 606.896 239.28 606.64C240.688 606.469 241.712 606.085 242.352 605.488C243.035 604.848 243.376 603.717 243.376 602.096V570.608C243.376 569.499 243.291 568.688 243.12 568.176C242.992 567.664 242.63 567.344 242.032 567.216C241.478 567.045 240.539 566.96 239.216 566.96C239.216 566.747 239.238 566.469 239.28 566.128C239.323 565.787 239.366 565.509 239.408 565.296C239.536 564.699 239.814 564.4 240.24 564.4H254.512C257.115 564.4 259.547 564.763 261.808 565.488C264.07 566.171 265.904 567.323 267.312 568.944C268.72 570.523 269.424 572.656 269.424 575.344C269.424 578.501 268.528 581.211 266.736 583.472C264.987 585.733 262.534 587.397 259.376 588.464C261.766 592.389 263.728 595.525 265.264 597.872C266.843 600.219 268.187 601.989 269.296 603.184C270.406 604.336 271.43 605.104 272.368 605.488C273.35 605.872 274.459 606.064 275.696 606.064C275.696 606.875 275.547 607.664 275.248 608.432C274.736 608.731 274.16 608.944 273.52 609.072C272.923 609.157 272.283 609.2 271.6 609.2C270.534 609.2 269.467 608.837 268.4 608.112C267.334 607.387 266.16 606 264.88 603.952L255.728 589.36C254.064 589.659 252.272 589.808 250.352 589.808C249.84 589.808 249.307 589.787 248.752 589.744C248.24 589.701 247.728 589.659 247.216 589.616V602.16C247.216 603.739 247.302 604.805 247.472 605.36C247.686 605.872 248.198 606.171 249.008 606.256C249.307 606.299 249.712 606.32 250.224 606.32C250.779 606.32 251.27 606.32 251.696 606.32C251.696 606.533 251.675 606.811 251.632 607.152C251.632 607.493 251.59 607.771 251.504 607.984C251.376 608.411 251.227 608.667 251.056 608.752C250.886 608.837 250.758 608.88 250.672 608.88H239.536ZM247.216 586.416C248.923 586.715 250.587 586.864 252.208 586.864C254.726 586.864 256.966 586.501 258.928 585.776C260.891 585.008 262.448 583.856 263.6 582.32C264.752 580.741 265.328 578.736 265.328 576.304C265.328 573.061 264.112 570.693 261.68 569.2C259.291 567.707 256.24 566.96 252.528 566.96C251.419 566.96 250.288 567.024 249.136 567.152C247.856 567.28 247.216 567.92 247.216 569.072V586.416ZM296.484 608.88C296.057 608.88 295.844 608.667 295.844 608.24C295.844 608.069 295.865 607.835 295.908 607.536C295.95 607.195 296.057 606.896 296.228 606.64C297.593 606.469 298.617 606.043 299.3 605.36C299.982 604.677 300.644 603.589 301.284 602.096L317.092 564.208C317.305 563.696 317.689 563.44 318.244 563.44H318.82L333.924 602.096C334.521 603.675 335.033 604.741 335.46 605.296C335.886 605.851 336.505 606.171 337.316 606.256C337.614 606.299 337.977 606.32 338.404 606.32C338.83 606.32 339.257 606.32 339.684 606.32C339.684 606.533 339.662 606.811 339.62 607.152C339.62 607.493 339.577 607.771 339.492 607.984C339.364 608.411 339.214 608.667 339.044 608.752C338.873 608.837 338.745 608.88 338.66 608.88H327.204C326.777 608.88 326.564 608.667 326.564 608.24C326.564 608.069 326.585 607.835 326.628 607.536C326.67 607.195 326.777 606.896 326.948 606.64C327.972 606.512 328.761 606.277 329.316 605.936C329.87 605.595 330.148 605.04 330.148 604.272C330.148 603.76 329.977 603.035 329.636 602.096L326.628 594.224H307.492L304.228 602.096C303.758 603.291 303.524 604.165 303.524 604.72C303.524 605.232 303.652 605.595 303.908 605.808C304.206 606.021 304.59 606.171 305.06 606.256C305.358 606.299 305.764 606.32 306.276 606.32C306.83 606.32 307.321 606.32 307.748 606.32C307.748 606.533 307.726 606.811 307.684 607.152C307.684 607.493 307.641 607.771 307.556 607.984C307.428 608.411 307.278 608.667 307.108 608.752C306.937 608.837 306.809 608.88 306.724 608.88H296.484ZM308.644 591.344H325.54L317.732 570.864C317.518 570.352 317.305 570.352 317.092 570.864L308.644 591.344ZM342.224 608.88C341.797 608.88 341.584 608.667 341.584 608.24C341.584 608.069 341.605 607.835 341.648 607.536C341.69 607.195 341.797 606.896 341.968 606.64C343.376 606.469 344.4 606.085 345.04 605.488C345.722 604.848 346.064 603.739 346.064 602.16V570.608C346.064 569.499 345.978 568.688 345.808 568.176C345.68 567.664 345.317 567.344 344.72 567.216C344.165 567.045 343.226 566.96 341.904 566.96C341.904 566.747 341.925 566.469 341.968 566.128C342.01 565.787 342.053 565.509 342.096 565.296C342.224 564.827 342.373 564.571 342.544 564.528C342.757 564.443 342.885 564.4 342.928 564.4L369.104 564.336C369.786 564.336 370.149 564.592 370.192 565.104L370.704 572.144C370.533 572.315 370.234 572.443 369.808 572.528C369.424 572.613 369.104 572.656 368.848 572.656C368.464 572.656 368.229 572.464 368.144 572.08L367.76 570.096C367.589 569.115 367.29 568.389 366.864 567.92C366.437 567.408 365.754 567.152 364.816 567.152L352.144 567.088C351.29 567.088 350.693 567.259 350.352 567.6C350.053 567.899 349.904 568.496 349.904 569.392V583.664H359.888C361.338 583.664 362.298 583.493 362.768 583.152C363.28 582.811 363.6 581.915 363.728 580.464C363.984 580.293 364.24 580.187 364.496 580.144C364.752 580.101 364.965 580.08 365.136 580.08C365.562 580.08 365.776 580.293 365.776 580.72L365.648 590.704C365.648 591.003 365.498 591.173 365.2 591.216C364.986 591.259 364.709 591.301 364.368 591.344C364.069 591.387 363.813 591.408 363.6 591.408C363.472 589.915 363.216 588.72 362.832 587.824C362.49 586.885 361.509 586.416 359.888 586.416H349.904V602.16C349.904 603.739 350.117 604.784 350.544 605.296C351.013 605.808 351.653 606.107 352.464 606.192C352.762 606.235 353.317 606.277 354.128 606.32C354.981 606.32 355.621 606.32 356.048 606.32C356.048 606.533 356.026 606.811 355.984 607.152C355.984 607.493 355.941 607.771 355.856 607.984C355.728 608.411 355.578 608.667 355.408 608.752C355.237 608.837 355.109 608.88 355.024 608.88H342.224ZM375.161 608.88C374.735 608.88 374.521 608.667 374.521 608.24C374.521 608.069 374.543 607.835 374.585 607.536C374.628 607.195 374.735 606.896 374.905 606.64C376.313 606.469 377.337 606.085 377.977 605.488C378.66 604.848 379.001 603.739 379.001 602.16V570.608C379.001 569.499 378.916 568.688 378.745 568.176C378.617 567.664 378.255 567.344 377.657 567.216C377.103 567.045 376.164 566.96 374.841 566.96C374.841 566.747 374.863 566.469 374.905 566.128C374.948 565.787 374.991 565.509 375.033 565.296C375.161 564.827 375.311 564.571 375.481 564.528C375.695 564.443 375.823 564.4 375.865 564.4L402.041 564.336C402.724 564.336 403.087 564.592 403.129 565.104L403.641 572.144C403.471 572.315 403.172 572.443 402.745 572.528C402.361 572.613 402.041 572.656 401.785 572.656C401.401 572.656 401.167 572.464 401.081 572.08L400.697 570.096C400.527 569.115 400.228 568.389 399.801 567.92C399.375 567.408 398.692 567.152 397.753 567.152L385.081 567.088C384.228 567.088 383.631 567.259 383.289 567.6C382.991 567.899 382.841 568.496 382.841 569.392V583.664H392.825C394.276 583.664 395.236 583.493 395.705 583.152C396.217 582.811 396.537 581.915 396.665 580.464C396.921 580.293 397.177 580.187 397.433 580.144C397.689 580.101 397.903 580.08 398.073 580.08C398.5 580.08 398.713 580.293 398.713 580.72L398.585 590.704C398.585 591.003 398.436 591.173 398.137 591.216C397.924 591.259 397.647 591.301 397.305 591.344C397.007 591.387 396.751 591.408 396.537 591.408C396.409 589.915 396.153 588.72 395.769 587.824C395.428 586.885 394.447 586.416 392.825 586.416H382.841V602.16C382.841 603.739 383.055 604.784 383.481 605.296C383.951 605.808 384.591 606.107 385.401 606.192C385.7 606.235 386.255 606.277 387.065 606.32C387.919 606.32 388.559 606.32 388.985 606.32C388.985 606.533 388.964 606.811 388.921 607.152C388.921 607.493 388.879 607.771 388.793 607.984C388.665 608.411 388.516 608.667 388.345 608.752C388.175 608.837 388.047 608.88 387.961 608.88H375.161ZM403.296 608.88C402.87 608.88 402.656 608.667 402.656 608.24C402.656 608.069 402.678 607.835 402.72 607.536C402.763 607.195 402.87 606.896 403.04 606.64C404.406 606.469 405.43 606.043 406.112 605.36C406.795 604.677 407.456 603.589 408.096 602.096L423.904 564.208C424.118 563.696 424.502 563.44 425.056 563.44H425.632L440.736 602.096C441.334 603.675 441.846 604.741 442.272 605.296C442.699 605.851 443.318 606.171 444.128 606.256C444.427 606.299 444.79 606.32 445.216 606.32C445.643 606.32 446.07 606.32 446.496 606.32C446.496 606.533 446.475 606.811 446.432 607.152C446.432 607.493 446.39 607.771 446.304 607.984C446.176 608.411 446.027 608.667 445.856 608.752C445.686 608.837 445.558 608.88 445.472 608.88H434.016C433.59 608.88 433.376 608.667 433.376 608.24C433.376 608.069 433.398 607.835 433.44 607.536C433.483 607.195 433.59 606.896 433.76 606.64C434.784 606.512 435.574 606.277 436.128 605.936C436.683 605.595 436.96 605.04 436.96 604.272C436.96 603.76 436.79 603.035 436.448 602.096L433.44 594.224H414.304L411.04 602.096C410.571 603.291 410.336 604.165 410.336 604.72C410.336 605.232 410.464 605.595 410.72 605.808C411.019 606.021 411.403 606.171 411.872 606.256C412.171 606.299 412.576 606.32 413.088 606.32C413.643 606.32 414.134 606.32 414.56 606.32C414.56 606.533 414.539 606.811 414.496 607.152C414.496 607.493 414.454 607.771 414.368 607.984C414.24 608.411 414.091 608.667 413.92 608.752C413.75 608.837 413.622 608.88 413.536 608.88H403.296ZM415.456 591.344H432.352L424.544 570.864C424.331 570.352 424.118 570.352 423.904 570.864L415.456 591.344ZM418.208 557.68C417.27 557.68 416.459 557.36 415.776 556.72C415.136 556.08 414.816 555.312 414.816 554.416C414.816 553.435 415.136 552.624 415.776 551.984C416.459 551.301 417.27 550.96 418.208 550.96C419.19 550.96 419.979 551.301 420.576 551.984C421.216 552.624 421.536 553.435 421.536 554.416C421.536 555.312 421.216 556.08 420.576 556.72C419.979 557.36 419.19 557.68 418.208 557.68ZM431.328 557.68C430.39 557.68 429.579 557.36 428.896 556.72C428.256 556.08 427.936 555.312 427.936 554.416C427.936 553.435 428.256 552.624 428.896 551.984C429.579 551.301 430.39 550.96 431.328 550.96C432.31 550.96 433.099 551.301 433.696 551.984C434.336 552.624 434.656 553.435 434.656 554.416C434.656 555.312 434.336 556.08 433.696 556.72C433.099 557.36 432.31 557.68 431.328 557.68ZM449.036 608.88C448.61 608.88 448.396 608.667 448.396 608.24C448.396 608.069 448.418 607.835 448.46 607.536C448.503 607.195 448.61 606.896 448.78 606.64C450.188 606.469 451.212 606.085 451.852 605.488C452.535 604.848 452.876 603.717 452.876 602.096V570.608C452.876 569.499 452.791 568.688 452.62 568.176C452.492 567.664 452.13 567.344 451.532 567.216C450.978 567.045 450.039 566.96 448.716 566.96C448.716 566.747 448.738 566.469 448.78 566.128C448.823 565.787 448.866 565.509 448.908 565.296C449.036 564.699 449.314 564.4 449.74 564.4H464.012C466.615 564.4 469.047 564.763 471.308 565.488C473.57 566.171 475.404 567.323 476.812 568.944C478.22 570.523 478.924 572.656 478.924 575.344C478.924 578.501 478.028 581.211 476.236 583.472C474.487 585.733 472.034 587.397 468.876 588.464C471.266 592.389 473.228 595.525 474.764 597.872C476.343 600.219 477.687 601.989 478.796 603.184C479.906 604.336 480.93 605.104 481.868 605.488C482.85 605.872 483.959 606.064 485.196 606.064C485.196 606.875 485.047 607.664 484.748 608.432C484.236 608.731 483.66 608.944 483.02 609.072C482.423 609.157 481.783 609.2 481.1 609.2C480.034 609.2 478.967 608.837 477.9 608.112C476.834 607.387 475.66 606 474.38 603.952L465.228 589.36C463.564 589.659 461.772 589.808 459.852 589.808C459.34 589.808 458.807 589.787 458.252 589.744C457.74 589.701 457.228 589.659 456.716 589.616V602.16C456.716 603.739 456.802 604.805 456.972 605.36C457.186 605.872 457.698 606.171 458.508 606.256C458.807 606.299 459.212 606.32 459.724 606.32C460.279 606.32 460.77 606.32 461.196 606.32C461.196 606.533 461.175 606.811 461.132 607.152C461.132 607.493 461.09 607.771 461.004 607.984C460.876 608.411 460.727 608.667 460.556 608.752C460.386 608.837 460.258 608.88 460.172 608.88H449.036ZM456.716 586.416C458.423 586.715 460.087 586.864 461.708 586.864C464.226 586.864 466.466 586.501 468.428 585.776C470.391 585.008 471.948 583.856 473.1 582.32C474.252 580.741 474.828 578.736 474.828 576.304C474.828 573.061 473.612 570.693 471.18 569.2C468.791 567.707 465.74 566.96 462.028 566.96C460.919 566.96 459.788 567.024 458.636 567.152C457.356 567.28 456.716 567.92 456.716 569.072V586.416ZM488.091 595.696C488.433 595.611 488.774 595.568 489.115 595.568C489.457 595.525 489.691 595.504 489.819 595.504C490.161 595.504 490.374 595.611 490.459 595.824C490.545 595.995 490.609 596.187 490.651 596.4L491.995 602.736C493.403 603.931 495.089 604.912 497.051 605.68C499.014 606.405 500.955 606.768 502.875 606.768C504.625 606.768 506.246 606.448 507.739 605.808C509.233 605.168 510.427 604.187 511.323 602.864C512.219 601.541 512.667 599.877 512.667 597.872C512.667 595.611 512.07 593.776 510.875 592.368C509.723 590.917 508.23 589.744 506.395 588.848C504.561 587.909 502.641 587.099 500.635 586.416C497.137 585.179 494.406 583.728 492.443 582.064C490.481 580.357 489.499 578.011 489.499 575.024C489.499 572.592 490.075 570.523 491.227 568.816C492.422 567.067 493.979 565.744 495.899 564.848C497.862 563.909 499.995 563.44 502.299 563.44C503.409 563.44 504.859 563.589 506.651 563.888C508.443 564.187 510.193 564.763 511.899 565.616L513.563 565.808C513.905 565.851 514.097 566.043 514.139 566.384L514.779 574.512C514.139 574.683 513.627 574.768 513.243 574.768C512.731 574.768 512.39 574.491 512.219 573.936L511.515 571.632C511.174 570.395 510.47 569.392 509.403 568.624C508.337 567.813 507.121 567.195 505.755 566.768C504.39 566.341 503.025 566.128 501.659 566.128C498.801 566.085 496.646 566.853 495.195 568.432C493.787 569.968 493.083 571.739 493.083 573.744C493.083 575.451 493.531 576.859 494.427 577.968C495.366 579.077 496.582 580.016 498.075 580.784C499.569 581.552 501.147 582.256 502.811 582.896L502.939 582.96C504.561 583.557 506.182 584.219 507.803 584.944C509.425 585.669 510.897 586.544 512.219 587.568C513.585 588.592 514.651 589.872 515.419 591.408C516.23 592.901 516.614 594.736 516.571 596.912C516.529 599.728 515.825 602.096 514.459 604.016C513.094 605.936 511.323 607.387 509.147 608.368C506.971 609.349 504.646 609.84 502.171 609.84C500.635 609.84 498.95 609.627 497.115 609.2C495.323 608.773 493.638 608.219 492.059 607.536C490.481 606.853 489.307 606.128 488.539 605.36L488.091 595.696ZM522.341 608.88C521.915 608.88 521.701 608.667 521.701 608.24C521.701 608.069 521.723 607.835 521.765 607.536C521.808 607.195 521.915 606.896 522.085 606.64C523.835 606.427 525.051 605.957 525.733 605.232C526.459 604.507 526.821 603.355 526.821 601.776V570.608C526.821 569.499 526.693 568.688 526.437 568.176C526.181 567.664 525.712 567.344 525.029 567.216C524.347 567.045 523.344 566.96 522.021 566.96C522.021 566.747 522.043 566.469 522.085 566.128C522.128 565.787 522.171 565.509 522.213 565.296C522.341 564.827 522.491 564.571 522.661 564.528C522.875 564.443 523.003 564.4 523.045 564.4H535.141C535.568 564.4 535.781 564.613 535.781 565.04C535.781 565.211 535.739 565.467 535.653 565.808C535.568 566.107 535.44 566.384 535.269 566.64C533.691 566.853 532.517 567.237 531.749 567.792C531.024 568.304 530.661 569.307 530.661 570.8V601.776C530.661 603.397 530.747 604.528 530.917 605.168C531.131 605.808 531.643 606.171 532.453 606.256C532.752 606.299 533.264 606.32 533.989 606.32C534.757 606.32 535.355 606.32 535.781 606.32C535.781 606.533 535.76 606.811 535.717 607.152C535.717 607.493 535.675 607.771 535.589 607.984C535.461 608.411 535.312 608.667 535.141 608.752C534.971 608.837 534.843 608.88 534.757 608.88H522.341ZM539.959 608.24C539.959 608.069 539.98 607.835 540.023 607.536C540.065 607.195 540.172 606.896 540.343 606.64C541.751 606.469 542.775 606.043 543.415 605.36C544.097 604.677 544.439 603.483 544.439 601.776V570.608C544.439 569.499 544.353 568.688 544.183 568.176C544.055 567.664 543.692 567.344 543.095 567.216C542.54 567.045 541.601 566.96 540.279 566.96C540.279 566.747 540.3 566.469 540.343 566.128C540.385 565.787 540.428 565.509 540.471 565.296C540.599 564.827 540.748 564.571 540.919 564.528C541.132 564.443 541.26 564.4 541.303 564.4H553.975C562.124 564.315 568.268 566.107 572.407 569.776C576.588 573.403 578.679 578.651 578.679 585.52C578.679 590.683 577.633 594.992 575.543 598.448C573.452 601.904 570.593 604.507 566.967 606.256C563.34 608.005 559.201 608.88 554.551 608.88H540.599C540.172 608.88 539.959 608.667 539.959 608.24ZM548.279 601.712C548.279 603.419 548.62 604.592 549.303 605.232C549.985 605.829 551.308 606.128 553.271 606.128C557.58 606.128 561.121 605.573 563.895 604.464C566.711 603.312 568.887 601.776 570.423 599.856C572.001 597.936 573.089 595.803 573.687 593.456C574.327 591.109 574.647 588.72 574.647 586.288C574.647 583.173 574.241 580.528 573.431 578.352C572.663 576.176 571.617 574.384 570.295 572.976C568.972 571.568 567.521 570.48 565.943 569.712C564.364 568.901 562.785 568.325 561.207 567.984C559.628 567.6 558.177 567.365 556.855 567.28C555.532 567.195 554.465 567.152 553.655 567.152H550.519C549.665 567.152 549.068 567.323 548.727 567.664C548.428 567.963 548.279 568.56 548.279 569.456V601.712ZM611.939 608.944L584.099 608.88C583.672 608.88 583.459 608.667 583.459 608.24C583.459 608.069 583.48 607.835 583.523 607.536C583.565 607.195 583.672 606.896 583.843 606.64C585.251 606.469 586.275 606.043 586.915 605.36C587.597 604.677 587.939 603.483 587.939 601.776V570.608C587.939 569.499 587.853 568.688 587.683 568.176C587.555 567.664 587.192 567.344 586.595 567.216C586.04 567.045 585.101 566.96 583.779 566.96C583.779 566.747 583.8 566.469 583.843 566.128C583.885 565.787 583.928 565.509 583.971 565.296C584.099 564.827 584.248 564.571 584.419 564.528C584.632 564.443 584.76 564.4 584.803 564.4L610.979 564.336C611.661 564.336 612.024 564.592 612.067 565.104L612.579 572.144C612.408 572.315 612.109 572.443 611.683 572.528C611.299 572.613 610.979 572.656 610.723 572.656C610.339 572.656 610.104 572.464 610.019 572.08L609.635 570.096C609.464 569.115 609.165 568.389 608.739 567.92C608.312 567.408 607.629 567.152 606.691 567.152L594.019 567.088C593.165 567.088 592.568 567.259 592.227 567.6C591.928 567.899 591.779 568.496 591.779 569.392V583.664H602.083C603.533 583.664 604.493 583.493 604.963 583.152C605.475 582.811 605.795 581.915 605.923 580.464C606.179 580.293 606.435 580.187 606.691 580.144C606.947 580.101 607.16 580.08 607.331 580.08C607.757 580.08 607.971 580.293 607.971 580.72L607.843 590.704C607.843 591.003 607.693 591.173 607.395 591.216C607.181 591.259 606.904 591.301 606.563 591.344C606.264 591.387 606.008 591.408 605.795 591.408C605.667 589.915 605.411 588.72 605.027 587.824C604.685 586.885 603.704 586.416 602.083 586.416H591.779V601.776C591.779 603.397 591.992 604.549 592.419 605.232C592.845 605.872 593.549 606.192 594.531 606.192L606.691 606.128C607.928 606.128 608.867 605.915 609.507 605.488C610.189 605.061 610.723 604.357 611.107 603.376L612.067 600.88C612.195 600.496 612.472 600.304 612.899 600.304C613.539 600.304 614.072 600.475 614.499 600.816L612.963 608.176C612.835 608.688 612.493 608.944 611.939 608.944ZM604.963 554.736L592.611 560.24L591.459 558.448L604.387 549.36C605.069 549.787 605.603 550.341 605.987 551.024C606.371 551.707 606.541 552.325 606.499 552.88C606.499 553.648 605.987 554.267 604.963 554.736ZM639.099 608.88C638.672 608.88 638.459 608.667 638.459 608.24C638.459 608.069 638.48 607.835 638.523 607.536C638.565 607.195 638.672 606.896 638.843 606.64C640.251 606.469 641.275 606.085 641.915 605.488C642.597 604.848 642.939 603.717 642.939 602.096V570.608C642.939 569.499 642.853 568.688 642.683 568.176C642.555 567.664 642.192 567.344 641.595 567.216C641.04 567.045 640.101 566.96 638.779 566.96C638.779 566.747 638.8 566.469 638.843 566.128C638.885 565.787 638.928 565.509 638.971 565.296C639.099 564.827 639.248 564.571 639.419 564.528C639.632 564.443 639.76 564.4 639.803 564.4H650.619C651.045 564.4 651.259 564.613 651.259 565.04C651.259 565.211 651.216 565.467 651.131 565.808C651.045 566.107 650.917 566.384 650.747 566.64C649.296 566.853 648.272 567.237 647.675 567.792C647.077 568.304 646.779 569.307 646.779 570.8V583.984H671.099V570.608C671.099 569.499 671.013 568.688 670.843 568.176C670.715 567.664 670.352 567.344 669.755 567.216C669.2 567.045 668.261 566.96 666.939 566.96C666.939 566.747 666.96 566.469 667.003 566.128C667.045 565.787 667.088 565.509 667.131 565.296C667.259 564.827 667.408 564.571 667.579 564.528C667.792 564.443 667.92 564.4 667.963 564.4H678.779C679.205 564.4 679.419 564.613 679.419 565.04C679.419 565.211 679.376 565.467 679.291 565.808C679.205 566.107 679.077 566.384 678.907 566.64C677.456 566.853 676.432 567.237 675.835 567.792C675.237 568.304 674.939 569.307 674.939 570.8V602.096C674.939 603.717 675.024 604.805 675.195 605.36C675.408 605.872 675.92 606.171 676.731 606.256C677.029 606.299 677.435 606.32 677.947 606.32C678.501 606.32 678.992 606.32 679.419 606.32C679.419 606.533 679.397 606.811 679.355 607.152C679.355 607.493 679.312 607.771 679.227 607.984C679.099 608.411 678.949 608.667 678.779 608.752C678.608 608.837 678.48 608.88 678.395 608.88H667.259C666.832 608.88 666.619 608.667 666.619 608.24C666.619 608.069 666.64 607.835 666.683 607.536C666.725 607.195 666.832 606.896 667.003 606.64C668.411 606.469 669.435 606.085 670.075 605.488C670.757 604.848 671.099 603.717 671.099 602.096V586.864H646.779V602.096C646.779 603.717 646.864 604.805 647.035 605.36C647.248 605.872 647.76 606.171 648.571 606.256C648.869 606.299 649.275 606.32 649.787 606.32C650.341 606.32 650.832 606.32 651.259 606.32C651.259 606.533 651.237 606.811 651.195 607.152C651.195 607.493 651.152 607.771 651.067 607.984C650.939 608.411 650.789 608.667 650.619 608.752C650.448 608.837 650.32 608.88 650.235 608.88H639.099ZM682.296 608.88C681.87 608.88 681.656 608.667 681.656 608.24C681.656 608.069 681.678 607.835 681.72 607.536C681.763 607.195 681.87 606.896 682.04 606.64C683.406 606.469 684.43 606.043 685.112 605.36C685.795 604.677 686.456 603.589 687.096 602.096L702.904 564.208C703.118 563.696 703.502 563.44 704.056 563.44H704.632L719.736 602.096C720.334 603.675 720.846 604.741 721.272 605.296C721.699 605.851 722.318 606.171 723.128 606.256C723.427 606.299 723.79 606.32 724.216 606.32C724.643 606.32 725.07 606.32 725.496 606.32C725.496 606.533 725.475 606.811 725.432 607.152C725.432 607.493 725.39 607.771 725.304 607.984C725.176 608.411 725.027 608.667 724.856 608.752C724.686 608.837 724.558 608.88 724.472 608.88H713.016C712.59 608.88 712.376 608.667 712.376 608.24C712.376 608.069 712.398 607.835 712.44 607.536C712.483 607.195 712.59 606.896 712.76 606.64C713.784 606.512 714.574 606.277 715.128 605.936C715.683 605.595 715.96 605.04 715.96 604.272C715.96 603.76 715.79 603.035 715.448 602.096L712.44 594.224H693.304L690.04 602.096C689.571 603.291 689.336 604.165 689.336 604.72C689.336 605.232 689.464 605.595 689.72 605.808C690.019 606.021 690.403 606.171 690.872 606.256C691.171 606.299 691.576 606.32 692.088 606.32C692.643 606.32 693.134 606.32 693.56 606.32C693.56 606.533 693.539 606.811 693.496 607.152C693.496 607.493 693.454 607.771 693.368 607.984C693.24 608.411 693.091 608.667 692.92 608.752C692.75 608.837 692.622 608.88 692.536 608.88H682.296ZM694.456 591.344H711.352L703.544 570.864C703.331 570.352 703.118 570.352 702.904 570.864L694.456 591.344ZM728.036 608.88C727.61 608.88 727.396 608.667 727.396 608.24C727.396 608.069 727.418 607.835 727.46 607.536C727.503 607.195 727.61 606.896 727.78 606.64C729.188 606.469 730.212 606.085 730.852 605.488C731.535 604.848 731.876 603.717 731.876 602.096V570.608C731.876 569.499 731.791 568.688 731.62 568.176C731.492 567.664 731.13 567.344 730.532 567.216C729.978 567.045 729.039 566.96 727.716 566.96C727.716 566.747 727.738 566.469 727.78 566.128C727.823 565.787 727.866 565.509 727.908 565.296C728.036 564.699 728.314 564.4 728.74 564.4H743.012C745.615 564.4 748.047 564.763 750.308 565.488C752.57 566.171 754.404 567.323 755.812 568.944C757.22 570.523 757.924 572.656 757.924 575.344C757.924 578.501 757.028 581.211 755.236 583.472C753.487 585.733 751.034 587.397 747.876 588.464C750.266 592.389 752.228 595.525 753.764 597.872C755.343 600.219 756.687 601.989 757.796 603.184C758.906 604.336 759.93 605.104 760.868 605.488C761.85 605.872 762.959 606.064 764.196 606.064C764.196 606.875 764.047 607.664 763.748 608.432C763.236 608.731 762.66 608.944 762.02 609.072C761.423 609.157 760.783 609.2 760.1 609.2C759.034 609.2 757.967 608.837 756.9 608.112C755.834 607.387 754.66 606 753.38 603.952L744.228 589.36C742.564 589.659 740.772 589.808 738.852 589.808C738.34 589.808 737.807 589.787 737.252 589.744C736.74 589.701 736.228 589.659 735.716 589.616V602.16C735.716 603.739 735.802 604.805 735.972 605.36C736.186 605.872 736.698 606.171 737.508 606.256C737.807 606.299 738.212 606.32 738.724 606.32C739.279 606.32 739.77 606.32 740.196 606.32C740.196 606.533 740.175 606.811 740.132 607.152C740.132 607.493 740.09 607.771 740.004 607.984C739.876 608.411 739.727 608.667 739.556 608.752C739.386 608.837 739.258 608.88 739.172 608.88H728.036ZM735.716 586.416C737.423 586.715 739.087 586.864 740.708 586.864C743.226 586.864 745.466 586.501 747.428 585.776C749.391 585.008 750.948 583.856 752.1 582.32C753.252 580.741 753.828 578.736 753.828 576.304C753.828 573.061 752.612 570.693 750.18 569.2C747.791 567.707 744.74 566.96 741.028 566.96C739.919 566.96 738.788 567.024 737.636 567.152C736.356 567.28 735.716 567.92 735.716 569.072V586.416ZM179.668 646.904C180.862 646.477 182.185 645.901 183.635 645.176C185.129 644.408 186.494 643.64 187.732 642.872C188.969 642.104 189.822 641.507 190.292 641.08H193.748V679.096C193.748 680.717 193.833 681.805 194.003 682.36C194.217 682.915 194.729 683.213 195.54 683.256C196.521 683.299 197.396 683.32 198.164 683.32C198.974 683.32 199.636 683.32 200.148 683.32C200.446 683.32 200.66 683.32 200.788 683.32C200.788 683.533 200.766 683.811 200.724 684.152C200.724 684.493 200.681 684.771 200.596 684.984C200.468 685.411 200.318 685.667 200.148 685.752C199.977 685.837 199.849 685.88 199.764 685.88H182.612C182.185 685.88 181.972 685.667 181.972 685.24C181.972 685.069 181.993 684.835 182.036 684.536C182.078 684.195 182.185 683.896 182.356 683.64C182.697 683.64 183.273 683.619 184.084 683.576C184.937 683.533 185.513 683.491 185.812 683.448C187.433 683.277 188.521 682.787 189.076 681.976C189.63 681.165 189.908 680.099 189.908 678.776V645.88C188.628 646.52 187.284 647.139 185.876 647.736C184.468 648.291 183.23 648.717 182.164 649.016C181.097 649.315 180.436 649.101 180.18 648.376L179.668 646.904ZM220.576 686.84C216.395 686.84 213.109 684.877 210.72 680.952C208.373 676.984 207.2 671.48 207.2 664.44C207.2 656.931 208.501 651.064 211.104 646.84C213.707 642.573 217.333 640.44 221.984 640.44C226.165 640.44 229.429 642.403 231.776 646.328C234.165 650.253 235.36 655.715 235.36 662.712C235.36 670.307 234.059 676.237 231.456 680.504C228.853 684.728 225.227 686.84 220.576 686.84ZM221.792 683.704C228.149 683.704 231.328 677.155 231.328 664.056C231.328 650.445 227.829 643.64 220.832 643.64C214.432 643.64 211.232 650.061 211.232 662.904C211.232 676.771 214.752 683.704 221.792 683.704ZM255.139 686.84C250.957 686.84 247.672 684.877 245.283 680.952C242.936 676.984 241.763 671.48 241.763 664.44C241.763 656.931 243.064 651.064 245.667 646.84C248.269 642.573 251.896 640.44 256.547 640.44C260.728 640.44 263.992 642.403 266.339 646.328C268.728 650.253 269.923 655.715 269.923 662.712C269.923 670.307 268.621 676.237 266.019 680.504C263.416 684.728 259.789 686.84 255.139 686.84ZM256.355 683.704C262.712 683.704 265.891 677.155 265.891 664.056C265.891 650.445 262.392 643.64 255.395 643.64C248.995 643.64 245.795 650.061 245.795 662.904C245.795 676.771 249.315 683.704 256.355 683.704ZM293.578 685.88C293.151 685.88 292.938 685.667 292.938 685.24C292.938 685.069 292.959 684.835 293.002 684.536C293.044 684.195 293.151 683.896 293.322 683.64C294.687 683.469 295.711 683.043 296.394 682.36C297.076 681.677 297.738 680.589 298.378 679.096L314.186 641.208C314.399 640.696 314.783 640.44 315.338 640.44H315.914L331.018 679.096C331.615 680.675 332.127 681.741 332.554 682.296C332.98 682.851 333.599 683.171 334.41 683.256C334.708 683.299 335.071 683.32 335.498 683.32C335.924 683.32 336.351 683.32 336.778 683.32C336.778 683.533 336.756 683.811 336.714 684.152C336.714 684.493 336.671 684.771 336.586 684.984C336.458 685.411 336.308 685.667 336.138 685.752C335.967 685.837 335.839 685.88 335.754 685.88H324.298C323.871 685.88 323.658 685.667 323.658 685.24C323.658 685.069 323.679 684.835 323.722 684.536C323.764 684.195 323.871 683.896 324.042 683.64C325.066 683.512 325.855 683.277 326.41 682.936C326.964 682.595 327.242 682.04 327.242 681.272C327.242 680.76 327.071 680.035 326.729 679.096L323.722 671.224H304.586L301.322 679.096C300.852 680.291 300.618 681.165 300.618 681.72C300.618 682.232 300.746 682.595 301.002 682.808C301.3 683.021 301.684 683.171 302.154 683.256C302.452 683.299 302.858 683.32 303.37 683.32C303.924 683.32 304.415 683.32 304.842 683.32C304.842 683.533 304.82 683.811 304.778 684.152C304.778 684.493 304.735 684.771 304.65 684.984C304.522 685.411 304.372 685.667 304.202 685.752C304.031 685.837 303.903 685.88 303.818 685.88H293.578ZM305.738 668.344H322.634L314.826 647.864C314.612 647.352 314.399 647.352 314.186 647.864L305.738 668.344ZM314.954 638.2C313.119 638.2 311.604 637.603 310.41 636.408C309.215 635.171 308.618 633.741 308.618 632.12C308.618 630.499 309.215 629.091 310.41 627.896C311.604 626.659 313.119 626.04 314.954 626.04C316.788 626.04 318.324 626.659 319.562 627.896C320.799 629.091 321.418 630.499 321.418 632.12C321.418 633.741 320.799 635.171 319.562 636.408C318.324 637.603 316.788 638.2 314.954 638.2ZM314.954 635.384C315.935 635.384 316.767 635.085 317.45 634.488C318.132 633.848 318.474 633.059 318.474 632.12C318.474 631.181 318.132 630.413 317.45 629.816C316.767 629.176 315.935 628.856 314.954 628.856C314.015 628.856 313.204 629.176 312.522 629.816C311.882 630.413 311.562 631.181 311.562 632.12C311.562 633.059 311.882 633.848 312.522 634.488C313.204 635.085 314.015 635.384 314.954 635.384ZM339.318 685.88C338.891 685.88 338.678 685.667 338.678 685.24C338.678 685.069 338.699 684.835 338.742 684.536C338.784 684.195 338.891 683.896 339.062 683.64C340.47 683.469 341.494 683.085 342.134 682.488C342.816 681.848 343.158 680.717 343.158 679.096V647.608C343.158 646.499 343.072 645.688 342.902 645.176C342.774 644.664 342.411 644.344 341.814 644.216C341.259 644.045 340.32 643.96 338.998 643.96C338.998 643.747 339.019 643.469 339.062 643.128C339.104 642.787 339.147 642.509 339.19 642.296C339.318 641.699 339.595 641.4 340.022 641.4H354.294C356.896 641.4 359.328 641.763 361.59 642.488C363.851 643.171 365.686 644.323 367.094 645.944C368.502 647.523 369.206 649.656 369.206 652.344C369.206 655.501 368.31 658.211 366.518 660.472C364.768 662.733 362.315 664.397 359.158 665.464C361.547 669.389 363.51 672.525 365.046 674.872C366.624 677.219 367.968 678.989 369.078 680.184C370.187 681.336 371.211 682.104 372.15 682.488C373.131 682.872 374.24 683.064 375.478 683.064C375.478 683.875 375.328 684.664 375.03 685.432C374.518 685.731 373.942 685.944 373.302 686.072C372.704 686.157 372.064 686.2 371.382 686.2C370.315 686.2 369.248 685.837 368.182 685.112C367.115 684.387 365.942 683 364.662 680.952L355.51 666.36C353.846 666.659 352.054 666.808 350.134 666.808C349.622 666.808 349.088 666.787 348.534 666.744C348.022 666.701 347.51 666.659 346.998 666.616V679.16C346.998 680.739 347.083 681.805 347.254 682.36C347.467 682.872 347.979 683.171 348.79 683.256C349.088 683.299 349.494 683.32 350.006 683.32C350.56 683.32 351.051 683.32 351.478 683.32C351.478 683.533 351.456 683.811 351.414 684.152C351.414 684.493 351.371 684.771 351.286 684.984C351.158 685.411 351.008 685.667 350.838 685.752C350.667 685.837 350.539 685.88 350.454 685.88H339.318ZM346.998 663.416C348.704 663.715 350.368 663.864 351.99 663.864C354.507 663.864 356.747 663.501 358.71 662.776C360.672 662.008 362.23 660.856 363.382 659.32C364.534 657.741 365.11 655.736 365.11 653.304C365.11 650.061 363.894 647.693 361.462 646.2C359.072 644.707 356.022 643.96 352.31 643.96C351.2 643.96 350.07 644.024 348.918 644.152C347.638 644.28 346.998 644.92 346.998 646.072V663.416ZM398.505 685.88C398.078 685.88 397.865 685.667 397.865 685.24C397.865 685.069 397.886 684.835 397.929 684.536C397.972 684.195 398.078 683.896 398.249 683.64C399.657 683.469 400.681 683.085 401.321 682.488C402.004 681.848 402.345 680.739 402.345 679.16V647.608C402.345 646.499 402.26 645.688 402.089 645.176C401.961 644.664 401.598 644.344 401.001 644.216C400.446 644.045 399.508 643.96 398.185 643.96C398.185 643.747 398.206 643.469 398.249 643.128C398.292 642.787 398.334 642.509 398.377 642.296C398.505 641.699 398.782 641.4 399.209 641.4H413.801C416.745 641.4 419.39 641.805 421.737 642.616C424.126 643.384 426.025 644.621 427.433 646.328C428.841 647.992 429.545 650.211 429.545 652.984C429.545 656.312 428.628 659.107 426.793 661.368C424.958 663.587 422.548 665.251 419.561 666.36C416.617 667.469 413.417 668.024 409.961 668.024C408.766 668.024 407.508 667.96 406.185 667.832V679.16C406.185 680.739 406.398 681.784 406.825 682.296C407.294 682.808 407.934 683.107 408.745 683.192C409.044 683.235 409.598 683.277 410.409 683.32C411.262 683.32 411.902 683.32 412.329 683.32C412.329 683.533 412.308 683.811 412.265 684.152C412.265 684.493 412.222 684.771 412.137 684.984C412.009 685.411 411.86 685.667 411.689 685.752C411.518 685.837 411.39 685.88 411.305 685.88H398.505ZM406.185 664.376C408.233 664.803 410.217 665.016 412.137 665.016C414.526 665.016 416.724 664.611 418.729 663.8C420.734 662.989 422.356 661.752 423.593 660.088C424.83 658.424 425.449 656.333 425.449 653.816C425.449 651.512 424.852 649.635 423.657 648.184C422.505 646.733 420.905 645.667 418.857 644.984C416.852 644.301 414.548 643.96 411.945 643.96C410.75 643.96 409.47 644.024 408.105 644.152C407.508 644.195 407.038 644.408 406.697 644.792C406.356 645.133 406.185 645.56 406.185 646.072V664.376ZM430.203 685.88C429.776 685.88 429.562 685.667 429.562 685.24C429.562 685.069 429.584 684.835 429.627 684.536C429.669 684.195 429.776 683.896 429.947 683.64C431.312 683.469 432.336 683.043 433.019 682.36C433.701 681.677 434.363 680.589 435.003 679.096L450.811 641.208C451.024 640.696 451.408 640.44 451.963 640.44H452.539L467.643 679.096C468.24 680.675 468.752 681.741 469.179 682.296C469.605 682.851 470.224 683.171 471.035 683.256C471.333 683.299 471.696 683.32 472.123 683.32C472.549 683.32 472.976 683.32 473.403 683.32C473.403 683.533 473.381 683.811 473.339 684.152C473.339 684.493 473.296 684.771 473.211 684.984C473.083 685.411 472.933 685.667 472.763 685.752C472.592 685.837 472.464 685.88 472.379 685.88H460.923C460.496 685.88 460.283 685.667 460.283 685.24C460.283 685.069 460.304 684.835 460.347 684.536C460.389 684.195 460.496 683.896 460.667 683.64C461.691 683.512 462.48 683.277 463.035 682.936C463.589 682.595 463.867 682.04 463.867 681.272C463.867 680.76 463.696 680.035 463.354 679.096L460.347 671.224H441.211L437.947 679.096C437.477 680.291 437.243 681.165 437.243 681.72C437.243 682.232 437.371 682.595 437.627 682.808C437.925 683.021 438.309 683.171 438.779 683.256C439.077 683.299 439.483 683.32 439.995 683.32C440.549 683.32 441.04 683.32 441.467 683.32C441.467 683.533 441.445 683.811 441.403 684.152C441.403 684.493 441.36 684.771 441.275 684.984C441.147 685.411 440.997 685.667 440.827 685.752C440.656 685.837 440.528 685.88 440.443 685.88H430.203ZM442.363 668.344H459.259L451.451 647.864C451.237 647.352 451.024 647.352 450.811 647.864L442.363 668.344ZM451.579 638.2C449.744 638.2 448.229 637.603 447.035 636.408C445.84 635.171 445.243 633.741 445.243 632.12C445.243 630.499 445.84 629.091 447.035 627.896C448.229 626.659 449.744 626.04 451.579 626.04C453.413 626.04 454.949 626.659 456.187 627.896C457.424 629.091 458.043 630.499 458.043 632.12C458.043 633.741 457.424 635.171 456.187 636.408C454.949 637.603 453.413 638.2 451.579 638.2ZM451.579 635.384C452.56 635.384 453.392 635.085 454.075 634.488C454.757 633.848 455.099 633.059 455.099 632.12C455.099 631.181 454.757 630.413 454.075 629.816C453.392 629.176 452.56 628.856 451.579 628.856C450.64 628.856 449.829 629.176 449.147 629.816C448.507 630.413 448.187 631.181 448.187 632.12C448.187 633.059 448.507 633.848 449.147 634.488C449.829 635.085 450.64 635.384 451.579 635.384ZM495.115 685.24C495.115 685.069 495.136 684.835 495.179 684.536C495.222 684.195 495.328 683.896 495.499 683.64C496.907 683.469 497.931 683.085 498.571 682.488C499.254 681.848 499.595 680.717 499.595 679.096V647.608C499.595 646.499 499.51 645.688 499.339 645.176C499.211 644.664 498.848 644.344 498.251 644.216C497.696 644.045 496.758 643.96 495.435 643.96C495.435 643.747 495.456 643.469 495.499 643.128C495.542 642.787 495.584 642.509 495.627 642.296C495.755 641.827 495.904 641.571 496.075 641.528C496.288 641.443 496.416 641.4 496.459 641.4H501.451C502.475 641.4 503.243 641.805 503.755 642.616L528.011 678.072C528.096 678.2 528.182 678.243 528.267 678.2C528.352 678.157 528.395 678.072 528.395 677.944V647.608C528.395 646.499 528.267 645.688 528.011 645.176C527.755 644.664 527.286 644.344 526.603 644.216C525.92 644.045 524.918 643.96 523.595 643.96C523.595 643.747 523.616 643.469 523.659 643.128C523.702 642.787 523.744 642.509 523.787 642.296C523.915 641.827 524.064 641.571 524.235 641.528C524.448 641.443 524.576 641.4 524.619 641.4H535.115C535.542 641.4 535.755 641.613 535.755 642.04C535.755 642.211 535.712 642.467 535.627 642.808C535.542 643.107 535.414 643.384 535.243 643.64C533.792 643.853 532.768 644.237 532.171 644.792C531.574 645.304 531.275 646.307 531.275 647.8V685.88H529.419C528.779 685.88 528.267 685.603 527.883 685.048L502.923 648.632C502.838 648.504 502.752 648.461 502.667 648.504C502.582 648.547 502.539 648.632 502.539 648.76L502.475 679.096C502.475 680.717 502.624 681.805 502.923 682.36C503.222 682.872 503.776 683.171 504.587 683.256C505.056 683.299 505.568 683.32 506.123 683.32C506.678 683.32 507.168 683.32 507.595 683.32C507.595 683.533 507.574 683.811 507.531 684.152C507.531 684.493 507.488 684.771 507.403 684.984C507.275 685.411 507.126 685.667 506.955 685.752C506.784 685.837 506.656 685.88 506.571 685.88H495.755C495.328 685.88 495.115 685.667 495.115 685.24ZM538.64 685.88C538.213 685.88 538 685.667 538 685.24C538 685.069 538.021 684.835 538.064 684.536C538.107 684.195 538.213 683.896 538.384 683.64C539.749 683.469 540.773 683.043 541.456 682.36C542.139 681.677 542.8 680.589 543.44 679.096L559.248 641.208C559.461 640.696 559.845 640.44 560.4 640.44H560.976L576.08 679.096C576.677 680.675 577.189 681.741 577.616 682.296C578.043 682.851 578.661 683.171 579.472 683.256C579.771 683.299 580.133 683.32 580.56 683.32C580.987 683.32 581.413 683.32 581.84 683.32C581.84 683.533 581.819 683.811 581.776 684.152C581.776 684.493 581.733 684.771 581.648 684.984C581.52 685.411 581.371 685.667 581.2 685.752C581.029 685.837 580.901 685.88 580.816 685.88H569.36C568.933 685.88 568.72 685.667 568.72 685.24C568.72 685.069 568.741 684.835 568.784 684.536C568.827 684.195 568.933 683.896 569.104 683.64C570.128 683.512 570.917 683.277 571.472 682.936C572.027 682.595 572.304 682.04 572.304 681.272C572.304 680.76 572.133 680.035 571.792 679.096L568.784 671.224H549.648L546.384 679.096C545.915 680.291 545.68 681.165 545.68 681.72C545.68 682.232 545.808 682.595 546.064 682.808C546.363 683.021 546.747 683.171 547.216 683.256C547.515 683.299 547.92 683.32 548.432 683.32C548.987 683.32 549.477 683.32 549.904 683.32C549.904 683.533 549.883 683.811 549.84 684.152C549.84 684.493 549.797 684.771 549.712 684.984C549.584 685.411 549.435 685.667 549.264 685.752C549.093 685.837 548.965 685.88 548.88 685.88H538.64ZM550.8 668.344H567.696L559.888 647.864C559.675 647.352 559.461 647.352 559.248 647.864L550.8 668.344ZM582.81 664.248C582.81 660.835 583.343 657.677 584.41 654.776C585.477 651.875 586.991 649.357 588.954 647.224C590.959 645.091 593.285 643.427 595.93 642.232C598.618 641.037 601.541 640.44 604.698 640.44C606.575 640.44 608.453 640.675 610.33 641.144C612.207 641.571 613.914 642.275 615.45 643.256L617.434 643.384C617.775 643.427 617.967 643.491 618.01 643.576C618.095 643.661 618.159 643.875 618.202 644.216L619.098 653.368C618.373 653.581 617.818 653.688 617.434 653.688C616.837 653.688 616.453 653.411 616.282 652.856L615.514 650.296C615.002 648.547 614.127 647.203 612.89 646.264C611.653 645.283 610.223 644.6 608.602 644.216C607.023 643.789 605.423 643.576 603.802 643.576C600.303 643.576 597.253 644.408 594.65 646.072C592.09 647.736 590.106 650.04 588.698 652.984C587.333 655.885 586.65 659.235 586.65 663.032C586.65 667.128 587.461 670.691 589.082 673.72C590.703 676.707 592.858 679.032 595.546 680.696C598.277 682.317 601.242 683.128 604.442 683.128C606.746 683.128 609.114 682.68 611.546 681.784C613.978 680.888 616.346 679.459 618.65 677.496L620.25 679.736C618.757 681.272 617.029 682.573 615.066 683.64C613.146 684.707 611.162 685.517 609.114 686.072C607.066 686.584 605.125 686.84 603.29 686.84C600.602 686.84 598.021 686.328 595.546 685.304C593.114 684.237 590.938 682.723 589.018 680.76C587.141 678.797 585.626 676.429 584.474 673.656C583.365 670.883 582.81 667.747 582.81 664.248ZM625.693 685.88C625.266 685.88 625.053 685.667 625.053 685.24C625.053 685.069 625.074 684.835 625.117 684.536C625.159 684.195 625.266 683.896 625.437 683.64C626.845 683.469 627.869 683.085 628.509 682.488C629.191 681.848 629.533 680.717 629.533 679.096V647.608C629.533 646.499 629.447 645.688 629.277 645.176C629.149 644.664 628.786 644.344 628.189 644.216C627.634 644.045 626.695 643.96 625.373 643.96C625.373 643.747 625.394 643.469 625.437 643.128C625.479 642.787 625.522 642.509 625.565 642.296C625.693 641.827 625.842 641.571 626.013 641.528C626.226 641.443 626.354 641.4 626.397 641.4H637.213C637.639 641.4 637.853 641.613 637.853 642.04C637.853 642.211 637.81 642.467 637.725 642.808C637.639 643.107 637.511 643.384 637.341 643.64C635.89 643.853 634.866 644.237 634.269 644.792C633.671 645.304 633.373 646.307 633.373 647.8V665.144L649.245 647.16C650.141 646.221 650.589 645.475 650.589 644.92C650.589 644.28 649.757 643.875 648.093 643.704C648.093 643.491 648.114 643.235 648.157 642.936C648.242 642.637 648.349 642.339 648.477 642.04C648.647 641.699 648.797 641.507 648.925 641.464C649.095 641.421 649.266 641.4 649.437 641.4H660.189C660.402 641.4 660.551 641.443 660.637 641.528C660.765 641.571 660.829 641.741 660.829 642.04C660.829 642.637 660.701 643.192 660.444 643.704C659.378 643.789 658.418 643.981 657.565 644.28C656.754 644.536 655.922 644.984 655.069 645.624C654.258 646.264 653.298 647.181 652.189 648.376L639.773 662.072L649.245 673.848C650.909 675.939 652.338 677.603 653.533 678.84C654.727 680.035 655.773 680.952 656.669 681.592C657.607 682.189 658.482 682.595 659.293 682.808C660.103 682.979 660.957 683.064 661.853 683.064C661.853 683.875 661.703 684.664 661.405 685.432C660.893 685.731 660.317 685.944 659.677 686.072C659.079 686.157 658.439 686.2 657.757 686.2C656.775 686.2 655.602 685.752 654.237 684.856C652.914 683.917 651.378 682.381 649.629 680.248L637.405 664.696L633.373 669.176V679.096C633.373 680.717 633.458 681.805 633.629 682.36C633.842 682.872 634.354 683.171 635.165 683.256C635.463 683.299 635.869 683.32 636.381 683.32C636.935 683.32 637.426 683.32 637.853 683.32C637.853 683.533 637.831 683.811 637.789 684.152C637.789 684.493 637.746 684.771 637.661 684.984C637.533 685.411 637.383 685.667 637.213 685.752C637.042 685.837 636.914 685.88 636.829 685.88H625.693ZM693.22 685.944L665.38 685.88C664.953 685.88 664.74 685.667 664.74 685.24C664.74 685.069 664.761 684.835 664.804 684.536C664.847 684.195 664.953 683.896 665.124 683.64C666.532 683.469 667.556 683.043 668.196 682.36C668.879 681.677 669.22 680.483 669.22 678.776V647.608C669.22 646.499 669.135 645.688 668.964 645.176C668.836 644.664 668.473 644.344 667.876 644.216C667.321 644.045 666.383 643.96 665.06 643.96C665.06 643.747 665.081 643.469 665.124 643.128C665.167 642.787 665.209 642.509 665.252 642.296C665.38 641.827 665.529 641.571 665.7 641.528C665.913 641.443 666.041 641.4 666.084 641.4L692.26 641.336C692.943 641.336 693.305 641.592 693.348 642.104L693.86 649.144C693.689 649.315 693.391 649.443 692.964 649.528C692.58 649.613 692.26 649.656 692.004 649.656C691.62 649.656 691.385 649.464 691.3 649.08L690.916 647.096C690.745 646.115 690.447 645.389 690.02 644.92C689.593 644.408 688.911 644.152 687.972 644.152L675.3 644.088C674.447 644.088 673.849 644.259 673.508 644.6C673.209 644.899 673.06 645.496 673.06 646.392V660.664H683.364C684.815 660.664 685.775 660.493 686.244 660.152C686.756 659.811 687.076 658.915 687.204 657.464C687.46 657.293 687.716 657.187 687.972 657.144C688.228 657.101 688.441 657.08 688.612 657.08C689.039 657.08 689.252 657.293 689.252 657.72L689.124 667.704C689.124 668.003 688.975 668.173 688.676 668.216C688.463 668.259 688.185 668.301 687.844 668.344C687.545 668.387 687.289 668.408 687.076 668.408C686.948 666.915 686.692 665.72 686.308 664.824C685.967 663.885 684.985 663.416 683.364 663.416H673.06V678.776C673.06 680.397 673.273 681.549 673.7 682.232C674.127 682.872 674.831 683.192 675.812 683.192L687.972 683.128C689.209 683.128 690.148 682.915 690.788 682.488C691.471 682.061 692.004 681.357 692.388 680.376L693.348 677.88C693.476 677.496 693.753 677.304 694.18 677.304C694.82 677.304 695.353 677.475 695.78 677.816L694.244 685.176C694.116 685.688 693.775 685.944 693.22 685.944ZM699.928 685.24C699.928 685.069 699.949 684.835 699.992 684.536C700.034 684.195 700.141 683.896 700.312 683.64C701.72 683.469 702.744 683.085 703.384 682.488C704.066 681.848 704.408 680.717 704.408 679.096V647.608C704.408 646.499 704.322 645.688 704.152 645.176C704.024 644.664 703.661 644.344 703.064 644.216C702.509 644.045 701.57 643.96 700.248 643.96C700.248 643.747 700.269 643.469 700.312 643.128C700.354 642.787 700.397 642.509 700.44 642.296C700.568 641.827 700.717 641.571 700.888 641.528C701.101 641.443 701.229 641.4 701.272 641.4H706.264C707.288 641.4 708.056 641.805 708.568 642.616L732.824 678.072C732.909 678.2 732.994 678.243 733.08 678.2C733.165 678.157 733.208 678.072 733.208 677.944V647.608C733.208 646.499 733.08 645.688 732.824 645.176C732.568 644.664 732.098 644.344 731.416 644.216C730.733 644.045 729.73 643.96 728.408 643.96C728.408 643.747 728.429 643.469 728.472 643.128C728.514 642.787 728.557 642.509 728.6 642.296C728.728 641.827 728.877 641.571 729.048 641.528C729.261 641.443 729.389 641.4 729.432 641.4H739.928C740.354 641.4 740.568 641.613 740.568 642.04C740.568 642.211 740.525 642.467 740.44 642.808C740.354 643.107 740.226 643.384 740.056 643.64C738.605 643.853 737.581 644.237 736.984 644.792C736.386 645.304 736.088 646.307 736.088 647.8V685.88H734.232C733.592 685.88 733.08 685.603 732.696 685.048L707.736 648.632C707.65 648.504 707.565 648.461 707.48 648.504C707.394 648.547 707.352 648.632 707.352 648.76L707.288 679.096C707.288 680.717 707.437 681.805 707.736 682.36C708.034 682.872 708.589 683.171 709.4 683.256C709.869 683.299 710.381 683.32 710.936 683.32C711.49 683.32 711.981 683.32 712.408 683.32C712.408 683.533 712.386 683.811 712.344 684.152C712.344 684.493 712.301 684.771 712.216 684.984C712.088 685.411 711.938 685.667 711.768 685.752C711.597 685.837 711.469 685.88 711.384 685.88H700.568C700.141 685.88 699.928 685.667 699.928 685.24Z" fill="white" style="fill:white;fill-opacity:1;"/>
</svg>
