<svg width="917" height="1236" viewBox="0 0 917 1236" fill="none" xmlns="http://www.w3.org/2000/svg">
<rect width="917" height="1236" fill="white" style="fill:white;fill-opacity:1;"/>
<path d="M614.439 680.259C613.739 680.259 613.139 680.859 613.139 681.559V687.259C613.139 687.959 613.739 688.559 614.439 688.559C615.139 688.559 615.739 687.959 615.739 687.259V681.559C615.739 680.859 615.139 680.259 614.439 680.259Z" fill="#121212" style="fill:#121212;fill:color(display-p3 0.0706 0.0706 0.0706);fill-opacity:1;"/>
<path d="M624.839 702.958C624.839 702.858 624.839 702.758 624.839 702.658C624.839 693.558 624.839 683.658 624.439 682.058C624.239 680.958 623.539 679.958 622.639 679.158L620.039 660.358C620.439 660.058 620.539 659.458 620.339 659.058C620.239 658.658 620.139 658.158 620.039 657.658C619.839 656.658 619.739 655.658 619.039 654.858C618.039 653.758 616.539 653.358 615.239 653.158H614.939C613.639 652.758 612.139 652.758 610.739 652.758H610.539C605.439 652.758 587.239 652.658 582.139 652.758C580.739 652.758 579.739 653.158 579.039 653.758C578.239 654.558 577.639 655.958 577.639 657.158C577.439 664.458 577.339 694.058 577.239 707.758C577.239 708.058 577.339 708.258 577.539 708.558H561.339C561.539 708.058 561.739 707.458 561.739 706.658V641.458C561.739 640.458 561.739 639.458 561.339 638.658C561.039 637.758 560.339 637.058 559.539 636.658C558.539 636.158 557.239 636.058 556.739 636.058C555.839 636.058 551.739 636.058 545.239 636.058L545.539 589.058C545.539 588.858 545.539 588.658 545.339 588.458C545.739 587.158 545.839 585.858 545.839 584.758C545.839 582.858 545.039 580.958 543.739 579.358C543.539 579.058 543.039 578.558 542.439 577.958C534.139 566.158 525.439 551.358 517.739 538.158C511.339 527.258 505.839 517.858 502.139 512.858C501.239 511.658 499.839 510.058 498.139 508.958C496.339 507.858 494.639 507.258 493.039 507.158C484.539 506.858 455.739 507.058 448.139 507.158C446.739 507.158 445.039 507.458 443.839 507.858C442.539 508.358 441.539 508.958 440.839 509.858C440.039 510.758 439.339 512.158 439.039 513.558C438.739 514.858 438.939 516.758 439.039 517.658C439.039 517.758 439.039 517.858 439.039 517.958C438.739 518.458 438.539 519.058 438.539 519.658V522.558C438.539 523.058 438.639 523.558 438.839 523.958C438.839 523.958 438.739 524.158 438.639 524.258L434.539 539.158C432.839 539.458 431.439 540.958 431.439 542.758V544.558C431.039 544.758 430.639 544.958 430.339 545.258C429.839 545.658 429.439 546.258 429.139 547.058C428.839 547.658 428.639 548.358 428.539 549.058C428.539 549.358 428.539 549.958 428.539 550.458C427.539 550.458 426.539 550.658 425.639 550.858C424.539 551.158 423.439 551.758 422.639 552.458C421.939 553.058 421.339 553.958 420.739 555.158C420.239 556.158 419.939 557.258 419.839 558.258C419.739 559.358 419.839 561.958 419.839 562.958C419.839 563.158 419.839 563.258 419.839 563.458C419.839 564.058 420.439 564.558 421.039 564.558H439.239C439.139 564.658 438.939 564.858 438.939 565.058L434.539 578.058C434.339 578.758 434.639 579.458 435.339 579.658C435.439 579.658 435.639 579.658 435.739 579.658C436.239 579.658 436.739 579.358 436.939 578.758L440.239 569.058L443.739 578.458C443.939 579.158 444.739 579.458 445.339 579.158C446.039 578.958 446.339 578.158 446.039 577.558L441.239 564.758C441.239 564.558 441.039 564.458 440.939 564.358H463.739C464.339 564.358 464.839 563.858 464.939 563.258C464.939 563.158 464.939 562.958 464.939 562.858C464.939 561.958 465.039 559.258 464.939 558.058C464.839 557.058 464.539 555.958 464.039 554.958C463.439 553.758 462.839 552.858 462.139 552.258C461.339 551.558 460.239 550.958 459.139 550.658C458.239 550.458 457.139 550.258 456.139 550.258C456.139 549.758 456.139 549.258 456.139 548.858C456.139 548.158 455.839 547.558 455.539 546.858C455.139 546.058 454.739 545.458 454.339 545.058C453.839 544.558 453.139 544.258 452.339 544.058C451.939 543.958 451.539 543.858 451.039 543.858V542.658C451.039 540.858 449.839 539.458 448.139 539.058L444.939 524.358C445.339 523.758 445.539 523.158 445.539 522.358V519.458C445.539 519.058 445.539 518.758 445.339 518.458C457.039 518.458 478.839 518.258 486.039 518.458C486.739 518.458 487.439 518.758 487.739 519.258C491.439 524.058 497.239 533.958 503.939 545.458C511.339 558.158 519.539 572.258 527.539 583.958C527.539 585.558 527.739 587.358 528.339 588.758L527.739 635.758C521.239 635.758 513.939 635.758 506.139 635.758L498.239 616.358C498.039 615.958 497.639 615.658 497.139 615.558C496.639 615.558 496.239 615.758 495.939 616.158L487.139 630.058L478.339 603.158C478.139 602.658 477.739 602.258 477.139 602.258C476.639 602.258 476.139 602.558 475.939 603.158L467.239 628.758L459.639 610.958C459.439 610.558 459.039 610.258 458.539 610.158C458.039 610.158 457.639 610.358 457.339 610.858L451.939 620.958L447.539 606.558C447.339 605.858 446.639 605.558 445.939 605.758C445.239 605.958 444.939 606.658 445.139 607.358L450.339 624.658C450.439 625.158 450.939 625.458 451.439 625.558C451.939 625.558 452.439 625.358 452.639 624.858L458.239 614.458L466.039 632.858C466.239 633.358 466.739 633.658 467.239 633.658C467.739 633.658 468.239 633.258 468.339 632.758L476.839 607.658L485.239 633.458C485.439 633.958 485.839 634.258 486.239 634.358C486.739 634.358 487.239 634.158 487.439 633.758L496.339 619.658L502.939 635.858C456.839 635.858 392.139 635.858 355.339 635.858L363.439 613.858L371.439 628.958C371.639 629.358 372.139 629.658 372.639 629.658C373.139 629.658 373.539 629.358 373.739 628.858L385.339 599.958L394.639 627.858C394.839 628.358 395.339 628.758 395.839 628.758C396.339 628.758 396.839 628.358 397.039 627.858L411.039 585.058L426.939 627.458C427.139 627.958 427.639 628.258 428.139 628.258C428.639 628.258 429.139 627.858 429.339 627.358L434.839 606.558C435.039 605.858 434.639 605.158 433.939 605.058C433.239 604.858 432.539 605.258 432.439 605.958L427.939 622.958L412.239 580.858C412.039 580.358 411.639 580.058 411.039 580.058C410.539 580.058 410.039 580.458 409.839 580.958L395.939 623.558L386.739 596.058C386.539 595.558 386.139 595.258 385.539 595.158C384.939 595.158 384.539 595.458 384.339 595.958L372.439 625.558L364.439 610.358C364.239 609.958 363.739 609.658 363.239 609.658C362.739 609.658 362.339 610.058 362.139 610.458L352.639 635.958C341.039 635.958 332.539 635.958 328.839 635.958C328.239 635.958 327.139 635.958 326.339 636.658C325.739 637.258 325.039 638.458 325.039 639.558C324.939 651.258 325.039 695.858 325.239 707.658C325.239 708.058 325.339 708.358 325.539 708.758V715.858C325.539 716.558 326.139 717.158 326.839 717.158H336.939C337.139 717.358 337.439 717.458 337.639 717.458H340.539C340.939 723.458 345.939 728.258 352.139 728.258C358.339 728.258 363.039 723.758 363.739 717.858H366.939C367.239 717.858 367.439 717.758 367.739 717.558C367.839 717.558 367.939 717.558 368.139 717.558H371.139C371.639 723.458 376.639 728.158 382.739 728.158C388.839 728.158 392.939 724.258 394.039 719.158H397.439C398.039 719.158 398.639 718.658 398.639 718.058C398.639 717.858 398.939 715.658 398.739 714.358C398.639 713.458 398.439 712.258 398.039 710.958C432.939 710.958 473.439 710.858 505.139 710.758C508.939 710.758 512.639 710.758 516.239 710.758C515.539 713.158 515.639 718.458 515.639 718.958C515.639 719.658 516.239 720.158 516.939 720.158H520.539C522.139 724.658 526.439 727.958 531.539 727.958C536.639 727.958 541.739 724.058 542.839 718.958H546.239C546.539 718.958 546.839 718.858 547.139 718.658H577.339C577.439 719.158 577.939 719.658 578.539 719.658H582.139C583.739 724.158 588.039 727.458 593.139 727.458C598.239 727.458 603.339 723.558 604.439 718.458H607.339C607.339 718.458 607.439 718.458 607.539 718.458C607.539 718.458 608.639 718.458 609.139 718.458C610.039 718.458 611.839 718.458 613.939 718.458C618.139 718.458 623.139 718.458 623.139 718.458C623.839 718.458 624.439 717.858 624.439 717.158V703.158C624.439 703.158 624.439 703.058 624.439 702.958H624.839ZM337.039 714.358H328.639V710.658C329.139 710.858 329.839 710.858 330.539 710.858C332.039 710.858 333.739 710.858 335.539 710.858C337.339 710.858 336.839 710.858 337.539 710.858C337.239 711.758 337.039 713.158 337.039 714.258V714.358ZM352.839 721.158C350.139 721.158 348.039 718.958 348.039 716.358C348.039 713.758 350.239 711.558 352.839 711.558C355.439 711.558 357.639 713.758 357.639 716.358C357.639 718.958 355.439 721.158 352.839 721.158ZM366.439 715.058H364.339C364.339 714.658 364.339 714.358 364.139 713.958C364.139 713.958 364.139 713.958 364.139 713.858C364.139 713.558 364.039 713.258 363.939 712.858C363.739 712.158 363.439 711.558 363.139 710.858C361.139 707.158 357.339 704.658 352.839 704.658C348.339 704.658 344.539 707.158 342.539 710.858C342.239 711.458 342.039 711.958 341.739 712.658C341.739 712.658 341.739 712.758 341.739 712.858C341.739 713.058 341.539 713.358 341.539 713.658C341.539 713.958 341.439 714.358 341.339 714.658H339.639C339.639 713.558 339.839 712.358 340.039 711.758C340.439 710.658 341.539 707.958 343.139 706.358C344.539 704.858 346.539 703.658 348.439 702.958C350.139 702.458 352.539 702.258 354.939 702.558C356.639 702.758 359.039 703.158 360.739 704.458C362.339 705.558 364.039 707.958 365.139 709.758C365.339 710.058 365.539 710.558 365.639 710.958C365.939 711.758 366.139 712.658 366.239 713.458C366.239 713.658 366.239 713.958 366.339 714.158V714.758C366.439 714.758 366.439 714.958 366.439 715.158V715.058ZM383.139 721.158C380.439 721.158 378.339 718.958 378.339 716.358C378.339 713.758 380.539 711.558 383.139 711.558C385.739 711.558 387.939 713.758 387.939 716.358C387.939 718.958 385.739 721.158 383.139 721.158ZM396.839 716.458H394.839C394.839 715.958 394.839 715.558 394.839 715.058C394.839 714.958 394.839 714.758 394.839 714.658C394.839 714.358 394.739 714.058 394.639 713.758C394.639 713.658 394.639 713.458 394.539 713.358C394.539 713.058 394.339 712.758 394.239 712.458C394.239 712.358 394.239 712.258 394.139 712.058C393.939 711.658 393.839 711.258 393.639 710.858C391.639 707.258 387.839 704.758 383.439 704.758C379.039 704.758 375.139 707.258 373.239 710.858C372.739 711.758 372.339 712.758 372.139 713.758C372.139 714.058 372.039 714.458 371.939 714.758H370.239C370.239 713.558 370.439 712.158 370.639 711.358C370.639 711.158 370.839 710.958 370.939 710.758C371.639 708.958 372.739 707.358 373.739 706.258C375.239 704.758 377.239 703.458 379.139 702.858C380.839 702.358 383.239 702.158 385.639 702.458C387.239 702.658 389.639 703.058 391.439 704.358C393.139 705.558 394.839 707.958 395.839 709.658C396.139 710.258 396.439 710.958 396.639 711.658C396.839 712.258 396.939 712.958 397.039 713.558C397.039 713.558 397.039 713.558 397.039 713.658C397.039 713.958 397.039 714.158 397.139 714.358C397.139 714.758 397.139 715.558 397.139 716.158L396.839 716.458ZM538.539 578.058C538.539 578.058 538.639 578.058 538.739 578.058C538.839 578.058 539.039 578.158 539.139 578.258C539.139 578.258 539.239 578.258 539.339 578.358C539.439 578.358 539.639 578.558 539.739 578.658C539.739 578.658 539.839 578.658 539.939 578.758C540.639 579.258 541.339 579.958 541.839 580.558C542.539 581.358 543.039 582.458 543.239 583.458C543.239 583.758 543.339 584.058 543.339 584.358C543.339 585.858 542.939 588.058 542.139 589.058C541.539 589.858 540.139 590.458 538.339 590.858C538.039 590.858 537.739 590.858 537.439 590.858C537.239 590.858 537.039 590.858 536.939 590.858C536.839 590.858 536.639 590.858 536.539 590.858C536.239 590.858 536.039 590.858 535.739 590.858C535.739 590.858 535.739 590.858 535.639 590.858C535.139 590.858 534.639 590.658 534.139 590.458C532.639 589.858 531.539 589.058 531.039 588.158C530.439 586.958 529.939 584.758 530.339 583.158C530.539 582.358 530.839 581.458 531.339 580.658C531.439 580.458 531.539 580.358 531.639 580.158C531.639 580.158 531.639 580.158 531.639 580.058C531.639 579.958 531.839 579.858 531.939 579.658C531.939 579.658 532.039 579.558 532.139 579.458C532.139 579.458 532.239 579.358 532.339 579.258C532.439 579.158 532.639 579.058 532.739 578.958C533.839 578.258 535.639 577.658 537.039 577.658C538.439 577.658 537.539 577.658 537.739 577.658C537.939 577.658 538.139 577.658 538.339 577.858L538.539 578.058ZM543.039 591.858L542.739 635.758C539.139 635.758 535.039 635.758 530.439 635.758L530.939 591.758C531.739 592.258 532.539 592.658 533.239 592.958C534.439 593.358 535.739 593.658 537.039 593.658C538.339 593.658 538.239 593.658 538.839 593.458C540.139 593.258 541.739 592.758 543.039 591.858ZM441.139 519.558C441.139 518.958 441.639 518.458 442.239 518.458C442.839 518.458 443.339 518.958 443.339 519.558V522.458C443.339 523.058 442.839 523.558 442.239 523.558C441.639 523.558 441.139 523.058 441.139 522.458V519.558ZM436.339 543.858C435.839 543.858 435.339 543.858 435.039 543.858C434.739 543.858 434.439 543.858 434.139 543.858V542.658C434.139 542.158 434.539 541.658 435.039 541.558C435.039 541.558 435.239 541.658 435.339 541.658C435.439 541.658 435.539 541.658 435.639 541.658C435.739 541.658 435.839 541.658 435.839 541.658C436.139 541.858 436.339 542.158 436.339 542.558V543.658V543.858ZM446.539 542.758C446.539 542.158 447.039 541.658 447.639 541.658C448.239 541.658 448.739 542.158 448.739 542.758V543.858C448.139 543.858 447.339 543.858 446.439 543.858V542.758H446.539ZM445.939 539.558C444.839 540.158 444.039 541.358 444.039 542.758V543.858C443.539 543.858 443.039 543.858 442.539 543.858C441.339 543.858 440.139 543.858 438.939 543.858V542.758C438.939 541.458 438.239 540.358 437.239 539.658L441.039 525.858C441.439 525.958 441.839 526.058 442.339 526.058C442.839 526.058 442.839 526.058 443.139 526.058L446.139 539.658L445.939 539.558ZM506.339 544.158C499.639 532.558 493.839 522.658 489.939 517.658C489.139 516.658 487.739 515.958 486.339 515.958C479.139 515.758 457.239 515.958 445.539 515.958H445.039C444.639 515.958 444.339 516.158 444.039 516.458C443.439 516.158 442.839 515.858 442.139 515.858C441.439 515.858 441.639 515.858 441.339 515.858C441.339 515.158 441.339 514.358 441.339 513.758C441.539 512.858 442.039 511.758 442.539 511.158C442.939 510.658 443.639 510.258 444.539 509.958C445.539 509.658 446.939 509.358 448.039 509.358C456.139 509.258 484.739 509.058 492.839 509.358C494.039 509.358 495.339 509.858 496.739 510.758C497.839 511.458 498.939 512.558 500.039 513.958C503.639 518.758 509.139 528.158 515.539 538.958C522.539 550.858 530.239 563.958 537.739 575.158C535.639 574.958 533.039 575.658 531.339 576.858C530.139 577.758 529.139 579.158 528.539 580.458C521.039 569.258 513.239 555.958 506.239 543.958L506.339 544.158ZM531.939 721.258C529.239 721.258 527.139 719.058 527.139 716.458C527.139 713.858 529.339 711.658 531.939 711.658C534.539 711.658 536.739 713.858 536.739 716.458C536.739 719.058 534.539 721.258 531.939 721.258ZM545.639 716.158H543.639C543.439 709.858 538.339 704.758 532.039 704.758C525.739 704.758 520.439 709.958 520.439 716.358C520.439 722.758 520.439 717.258 520.439 717.658H518.739C518.739 715.758 518.839 712.758 519.239 711.358C519.239 711.058 519.439 710.858 519.539 710.658C519.639 710.258 519.839 709.958 520.039 709.558C520.039 709.558 520.039 709.558 520.039 709.458C520.239 709.158 520.439 708.858 520.639 708.458C520.639 708.358 520.839 708.158 520.939 708.058C521.139 707.858 521.239 707.558 521.439 707.358C521.739 706.958 522.039 706.658 522.339 706.358C523.839 704.858 525.839 703.558 527.739 702.958C529.439 702.458 531.839 702.258 534.239 702.558C535.839 702.758 538.239 703.158 540.039 704.458C541.639 705.558 543.339 707.858 544.339 709.658C544.339 710.058 544.539 710.358 544.739 710.558C545.339 711.858 545.539 713.558 545.739 714.658C545.739 714.958 545.739 715.558 545.739 716.158H545.639ZM577.739 716.158H548.139C548.139 715.458 548.139 714.758 548.139 714.258C548.039 713.358 547.839 712.058 547.439 710.858H578.239C577.939 712.358 577.839 714.558 577.839 716.158H577.739ZM619.839 677.658C619.639 677.658 619.539 677.658 619.339 677.558C616.139 676.958 608.939 676.158 602.039 675.458C599.239 675.158 596.439 674.858 593.939 674.658V660.658C601.239 660.658 611.339 660.658 617.439 660.758L619.739 677.658H619.839ZM593.539 720.658C590.839 720.658 588.739 718.458 588.739 715.858C588.739 713.258 590.939 711.058 593.539 711.058C596.139 711.058 598.339 713.258 598.339 715.858C598.339 718.458 596.139 720.658 593.539 720.658ZM605.139 715.858C605.139 709.458 599.939 704.258 593.539 704.258C587.139 704.258 581.939 709.458 581.939 715.858C581.939 722.258 581.939 716.758 581.939 717.158H580.239C580.239 715.258 580.339 712.258 580.739 710.858C581.239 709.058 582.339 707.258 583.839 705.858C585.339 704.358 587.339 703.058 589.239 702.458C590.939 701.858 593.339 701.758 595.739 702.058C597.439 702.258 599.739 702.658 601.539 703.858C602.839 704.758 604.139 706.458 605.139 707.958C605.439 708.758 605.739 709.458 605.839 710.158C606.239 711.658 606.539 714.258 606.739 715.958H605.239L605.139 715.858ZM604.439 701.958C604.139 701.958 603.739 702.058 603.539 702.358C603.339 702.158 603.139 702.058 602.939 701.858C600.739 700.258 597.839 699.758 595.939 699.558C594.339 699.358 591.239 699.158 588.439 700.058C586.239 700.758 583.839 702.258 582.039 704.058C581.139 704.958 580.339 705.958 579.739 707.058C579.739 693.158 579.939 664.258 580.139 657.058C580.139 656.458 580.539 655.758 580.839 655.458C581.039 655.258 581.439 655.158 582.239 655.158C587.339 655.058 605.539 655.158 610.639 655.158H610.839C612.139 655.158 613.439 655.158 614.539 655.458H614.839C615.739 655.758 616.839 655.958 617.239 656.458C617.439 656.758 617.539 657.458 617.639 658.058C617.639 658.058 617.639 658.258 617.639 658.358C608.439 658.258 592.639 658.058 587.039 658.358C585.439 658.358 583.839 659.458 582.939 660.758C582.239 661.858 582.239 663.358 582.239 664.658V665.658C582.239 668.258 582.239 670.858 582.539 672.358C582.739 673.158 583.639 675.758 585.839 676.158C588.739 676.758 595.139 677.358 601.839 678.058C608.639 678.758 615.739 679.458 618.839 680.058C620.139 680.358 621.639 681.358 621.839 682.458C622.139 684.058 622.139 696.058 622.239 701.958H604.339H604.439ZM591.539 660.658V674.358C589.239 674.058 587.439 673.858 586.239 673.658C585.739 673.658 585.239 672.658 584.939 671.658C584.539 670.358 584.639 667.258 584.639 665.658V664.658C584.639 663.758 584.639 662.558 584.939 662.058C585.339 661.458 586.239 660.858 587.039 660.858C588.139 660.858 589.639 660.858 591.539 660.758V660.658Z" fill="#121212" style="fill:#121212;fill:color(display-p3 0.0706 0.0706 0.0706);fill-opacity:1;"/>
</svg>
