<svg width="1854" height="1236" viewBox="0 0 1854 1236" fill="none" xmlns="http://www.w3.org/2000/svg">
<g clip-path="url(#clip0_14_2513)">
<rect width="1854" height="1236" fill="#00421E" style="fill:#00421E;fill:color(display-p3 0.0000 0.2588 0.1176);fill-opacity:1;"/>
<circle cx="960" cy="2487" r="2017" fill="white" style="fill:white;fill-opacity:1;"/>
<path d="M623.46 444.352L620.525 467.442L618.738 478.916H631L638.5 459.5L660.448 488.451L673.827 480.5L660.448 428.531L673.827 395.306L695 399L691.928 437.5L677.762 470.457H691.928L717.898 410.336L735.212 368.41V340.723L764.33 272.692L780.857 258.453H802.892L923.343 289.229L953.045 384.855L914.649 449.331L913 475L1103 488.451L1089.24 446.433L1065.74 410.336L1013.9 285.607L977.676 217.509L961.076 199.123L754.886 162.734L729.916 184.184L672.253 340.723L650.228 395.306L623.46 444.352Z" fill="#FAFAF5" style="fill:#FAFAF5;fill:color(display-p3 0.9804 0.9804 0.9608);fill-opacity:1;"/>
<path d="M637.435 463.665C636.979 464.646 636.399 465.432 636.251 466.291C635.659 469.985 635.178 473.691 634.722 477.397C633.858 484.319 628.863 488.111 623.053 486.209C619.279 484.969 617.342 481.594 617.761 477.655C618.539 470.402 619.18 463.137 619.747 455.872C620.204 449.969 621.092 444.213 624.126 438.997C627.567 433.094 631.194 427.277 634.425 421.263C636.288 417.79 637.472 413.949 639.088 410.329C643.257 401.038 647.488 391.773 651.706 382.507C657.886 368.909 664.46 355.483 670.109 341.677C674.488 330.963 677.658 319.771 681.482 308.836C683.566 302.884 685.898 297.018 688.069 291.09C691.3 282.266 693.965 273.185 697.862 264.668C701.526 256.666 704.215 248.468 706.595 240.061C707.705 236.146 709.58 232.44 710.986 228.599C714.514 218.941 718.227 209.356 721.397 199.575C725.159 187.953 731.585 178.061 741.107 170.636C750.531 163.298 761.262 159.113 773.757 161.837C778.814 162.942 784.032 163.31 789.163 164.107C797.045 165.322 804.914 166.648 812.808 167.875C819.395 168.894 826.006 169.741 832.581 170.821C841.782 172.33 850.947 174.085 860.148 175.545C868.474 176.871 876.837 177.889 885.175 179.153C888.432 179.644 891.626 180.467 894.858 181.092C907.92 183.608 920.995 186.051 934.033 188.628C941.951 190.199 949.895 191.684 957.703 193.709C966.201 195.918 972.134 201.636 976.772 208.889C982.039 217.1 986.973 225.408 990.414 234.625C992.116 239.178 995.336 243.154 997.704 247.486C999.283 250.382 1000.58 253.438 1001.98 256.42C1007.66 268.411 1013.32 280.413 1018.99 292.403C1024.78 304.602 1030.5 316.813 1036.4 328.95C1040.73 337.872 1045.46 346.598 1049.73 355.557C1052.52 361.411 1054.78 367.523 1057.29 373.511C1057.64 374.321 1058.02 375.119 1058.41 375.905C1063.93 386.974 1069.49 398.032 1074.93 409.138C1077.99 415.397 1080.39 422.024 1083.89 428.013C1092.16 442.212 1098.3 457.344 1104.31 472.525C1108.38 482.822 1110.69 493.658 1109.94 504.912C1109.75 507.747 1110.05 510.619 1109.86 513.466C1109.06 525.64 1103.92 535.691 1094.74 543.766C1091.94 546.233 1089.2 548.786 1085.82 551.842C1088.87 551.842 1091.22 551.842 1093.57 551.842C1103.57 551.879 1113.57 551.915 1123.58 551.964C1131.25 552.001 1138.93 552.087 1146.61 552.124C1151.98 552.148 1157.36 552.063 1162.74 552.124C1165.61 552.161 1166.82 550.664 1166.8 548.025C1166.75 539.618 1166.6 531.199 1166.56 522.793C1166.55 518.706 1166.54 514.607 1166.82 510.533C1167.03 507.379 1166.28 505.342 1162.75 505.022C1160.48 504.814 1159.03 503.182 1159.62 501.193C1160.05 499.733 1161.9 497.696 1163.2 497.634C1171.05 497.266 1178.94 497.364 1186.81 497.389C1189.17 497.389 1190.95 498.604 1191.43 500.96C1191.96 503.587 1190.02 504.924 1187.96 505.526C1185.67 506.188 1185.07 507.452 1185.15 509.612C1185.4 516.104 1185.68 522.609 1185.66 529.101C1185.63 533.715 1185.12 538.33 1184.84 542.956C1184.79 543.84 1184.79 544.748 1184.93 545.607C1185.76 550.872 1184.5 552.566 1192 551.78C1198.45 551.105 1205.07 552.247 1211.62 552.418C1215.51 552.517 1219.39 552.173 1223.28 552.21C1230.59 552.296 1234.66 555.487 1235.66 562.617C1236.39 567.845 1236.45 573.196 1236.48 578.497C1236.53 588.07 1236.37 597.655 1236.24 607.227C1236.09 618.469 1235.63 629.722 1235.79 640.964C1235.88 647.628 1226.79 653.347 1220.43 653.212C1207.55 652.929 1194.66 653.482 1181.77 653.568C1175 653.617 1168.22 653.384 1161.45 653.31C1158.21 653.273 1154.99 653.273 1151.76 653.261C1149.51 653.261 1148.22 654.169 1148.24 656.623C1148.31 667.092 1148.33 677.572 1148.35 688.041C1148.35 693.244 1148.27 698.435 1148.21 703.639C1148.16 707.321 1148.65 707.885 1152.42 707.799C1160.06 707.615 1167.72 706.867 1175.33 707.272C1182.82 707.664 1190.31 708.941 1197.71 710.266C1204.92 711.555 1212.09 713.273 1219.21 715.028C1234.08 718.697 1248.95 722.391 1263.75 726.318C1269.41 727.828 1275.05 729.656 1280.41 731.964C1290.51 736.296 1295.36 744.604 1295.83 755.22C1296.14 762.252 1296.11 769.444 1295.02 776.378C1293.75 784.379 1288.99 790.736 1281.42 794.136C1276.19 796.492 1270.62 798.443 1264.99 799.462C1259.42 800.481 1253.58 800.149 1247.86 800.321C1240.21 800.554 1232.55 800.738 1224.91 800.849C1216.9 800.971 1208.9 800.971 1200.89 801.045C1188.04 801.168 1175.19 801.327 1162.33 801.425C1150.59 801.524 1138.84 801.511 1127.09 801.646C1120.12 801.72 1113.14 802.076 1106.17 802.125C1093.41 802.199 1080.63 802.064 1067.86 802.137C1055.85 802.211 1043.84 802.567 1031.82 802.604C1023.15 802.628 1014.47 802.321 1005.8 802.211C998.148 802.113 990.488 802.186 982.841 802.015C977.191 801.892 971.554 801.462 965.905 801.254C964.474 801.205 963.031 801.573 961.6 801.573C950.29 801.622 938.966 801.61 927.656 801.671C922.105 801.708 916.555 801.978 911.016 801.941C904.035 801.892 897.054 801.524 890.085 801.499C886.557 801.487 883.041 802.113 879.514 802.137C868.968 802.211 858.409 802.272 847.863 802.051C840.536 801.892 833.099 801.953 825.945 800.652C815.645 798.787 804.84 796.836 797.883 787.999C794.874 784.183 792.95 779.028 791.975 774.193C790.125 765.05 791.013 755.76 793.172 746.678C794.602 740.677 799.253 737.02 803.878 733.608C810.662 728.601 819.013 727.447 826.87 725.214C837.12 722.305 847.444 719.593 857.867 717.347C872.742 714.144 887.642 710.683 902.703 708.818C913.779 707.443 925.139 708.45 936.376 708.425C945.948 708.401 955.532 708.388 965.103 708.401C967.546 708.401 970 708.487 972.443 708.634C975.699 708.83 977.697 707.026 976.636 704.056C975.008 699.503 975.958 695.134 976.402 690.63C976.673 687.918 976.057 685.132 976.081 682.383C976.106 678.1 976.538 673.817 976.427 669.546C976.316 665.055 975.909 660.551 975.329 656.096C975.243 655.433 973.54 654.537 972.554 654.5C964.228 654.181 955.89 653.997 947.551 653.862C939.904 653.739 932.244 653.936 924.597 653.592C921.562 653.457 918.392 652.623 915.617 651.383C911.362 649.469 909.672 645.554 909.536 641.074C909.339 634.337 909.314 627.599 909.228 620.862C909.141 614.689 909.067 608.503 908.981 602.33C908.895 595.556 909.129 589.027 916.074 584.94C917.43 584.143 918.442 581.7 918.503 579.982C918.775 573.232 918.577 566.47 918.639 559.708C918.664 557.291 918.01 555.83 915.272 555.315C911.781 554.652 910.202 552.124 910.202 547.755C910.202 542.011 910.449 536.268 910.486 530.525C910.548 521.382 910.572 512.239 910.523 503.096C910.498 498.039 910.178 492.983 910.202 487.939C910.239 477.152 910.202 466.352 910.671 455.577C910.807 452.533 912.237 449.379 913.668 446.569C919.86 434.321 926.003 422.024 932.701 410.046C937.042 402.266 942.396 395.037 947.07 387.441C947.934 386.042 948.378 383.82 947.921 382.311C946.343 377.132 943.37 372.223 942.593 366.983C941.125 357.005 936.586 348.12 933.86 338.609C931.245 329.49 928.618 320.372 925.941 311.278C924.325 305.792 922.413 300.38 920.97 294.845C919.651 289.789 915.864 287.703 911.448 286.611C896.363 282.892 881.204 279.456 866.106 275.799C856.954 273.577 847.937 270.767 838.723 268.926C825.242 266.238 811.624 264.189 798.068 261.869C789.755 260.446 782.305 262.532 776.976 268.902C773.116 273.516 770.131 279.026 767.553 284.512C763.31 293.495 759.782 302.822 755.81 311.941C752.011 320.667 747.645 329.171 744.277 338.044C742.859 341.787 743.032 346.267 743.118 350.39C743.377 362.528 742.575 374.297 737.148 385.587C730.746 398.903 725.245 412.648 719.176 426.123C715.143 435.07 710.826 443.894 706.62 452.754C703.919 458.461 701.082 464.106 698.504 469.862C695.124 477.434 691.991 479.165 683.826 477.643C683.209 477.532 682.555 477.545 682.444 477.532C682.444 484.38 682.197 491.081 682.493 497.757C682.974 508.569 683.776 519.357 684.504 530.156C685.121 539.41 685.91 548.663 686.44 557.929C686.798 564.077 686.847 570.25 687.033 576.423C687.057 577.086 686.946 577.773 687.094 578.399C689.721 589.923 688.759 601.619 688.673 613.265C688.661 615.253 687.612 617.29 686.773 619.193C685.935 621.107 684.122 622.506 682.259 621.242C680.853 620.297 679.151 617.855 679.496 616.591C683.653 601.201 679.286 585.984 678.941 570.704C678.731 561.635 678.25 552.566 677.893 543.496C677.856 542.527 677.782 541.557 677.177 540.502C677.004 541.263 676.708 542.011 676.671 542.772C676.055 554.259 675.413 565.734 674.883 577.221C674.538 584.719 675.105 592.353 673.859 599.704C672.86 605.558 673.983 610.798 675.216 616.223C675.759 618.604 674.883 620.174 672.774 621.033C670.455 621.978 668.395 621.156 667.47 618.959C666.495 616.64 665.607 614.087 665.583 611.621C665.533 606.466 666.15 601.312 666.36 596.157C666.532 591.972 666.483 587.775 666.631 583.59C667.038 571.662 667.384 559.745 667.939 547.829C668.555 534.403 669.308 520.977 670.146 507.563C670.504 501.758 671.257 495.99 671.762 490.197C671.824 489.51 671.565 488.295 671.195 488.197C670.504 488.001 669.456 488.197 668.864 488.627C661.673 494.088 657.084 493.339 652.237 485.792C647.697 478.723 643.183 471.642 638.632 464.573C638.471 464.327 638.138 464.192 637.484 463.689L637.435 463.665ZM797.032 253.426C803.261 254.396 808.134 255.071 812.969 255.942C820.517 257.28 828.054 258.679 835.566 260.188C841.289 261.342 847 262.594 852.661 264.029C858.804 265.588 864.823 267.662 871.003 269.061C878.996 270.877 887.174 271.921 895.129 273.896C902.962 275.848 910.56 278.67 918.343 280.855C924.153 282.487 927.187 286.697 928.938 291.839C931.467 299.276 933.379 306.921 935.698 314.432C940.089 328.705 944.677 342.916 948.995 357.214C951.313 364.884 953.213 372.677 955.322 380.409C955.988 382.826 957.086 384.606 960.12 384.508C965.757 384.323 971.419 384.397 977.056 384.299C984.925 384.164 992.782 383.82 1000.65 383.857C1012.88 383.906 1025.09 384.139 1037.3 384.409C1043.12 384.532 1046.04 388.189 1046.06 394.264C1046.1 410.942 1046.36 427.633 1046.54 444.311C1046.59 449.6 1046.54 454.902 1046.65 460.191C1046.75 464.929 1047.18 469.653 1047.17 474.391C1047.13 489.891 1046.88 505.378 1046.83 520.878C1046.81 530.402 1047.03 539.925 1047.02 549.449C1047.02 551.915 1047.81 552.774 1050.36 552.603C1056.87 552.136 1063.42 552.013 1069.94 551.51C1071.67 551.375 1073.62 550.7 1074.99 549.657C1079.64 546.098 1084.35 542.527 1088.52 538.453C1092.05 535.004 1095.79 531.261 1097.85 526.916C1103.78 514.374 1103.13 500.973 1100.32 487.853C1097.03 472.55 1089.92 458.571 1083.29 444.483C1080.95 439.5 1078.08 434.763 1075.71 429.793C1070.29 418.404 1065.1 406.917 1059.7 395.528C1053.2 381.832 1046.62 368.161 1039.95 354.551C1037.47 349.482 1034.41 344.684 1031.98 339.578C1027.75 330.693 1023.84 321.673 1019.73 312.739C1018.67 310.431 1017.25 308.296 1016.13 306.013C1012.51 298.576 1008.89 291.127 1005.38 283.628C1003.78 280.229 1002.6 276.621 1000.92 273.27C995.644 262.679 990.13 252.211 984.913 241.595C982.791 237.263 981.447 232.551 979.301 228.219C977.389 224.365 974.897 220.806 972.64 217.124C967.496 208.742 961.724 201.133 950.869 199.882C949.439 199.722 947.983 199.661 946.565 199.391C935.871 197.353 925.201 195.243 914.507 193.193C904.368 191.254 894.229 189.29 884.065 187.486C876.097 186.075 868.067 184.958 860.074 183.621C846.593 181.362 833.136 179.018 819.666 176.76C816.287 176.196 812.87 175.84 809.034 175.324C817.717 188.382 822.812 201.538 819.901 216.781C817.076 231.532 809.379 243.412 797.032 253.463V253.426ZM1056.19 560.027C1056.19 560.027 1056.19 560.027 1056.19 560.04C1052.63 560.04 1049.05 560.224 1045.51 559.991C1040.07 559.635 1035.5 561.525 1031.25 564.654C1021.61 571.772 1011.86 578.767 1002.34 586.057C999.788 588.008 997.334 590.512 995.866 593.31C994.793 595.36 995.299 598.293 995.299 600.833C995.299 605.902 995.508 610.97 995.459 616.039C995.397 623.218 994.966 630.41 995.101 637.589C995.225 644.142 998.629 646.266 1005.09 644.646C1006.84 644.204 1009.03 643.86 1010.58 644.498C1014.24 646.02 1017.65 645.701 1021.52 645.333C1030.13 644.511 1038.85 644.658 1047.54 644.695C1062.55 644.768 1077.55 645.1 1092.56 645.222C1100.34 645.284 1108.12 645.087 1115.89 645.063C1128.24 645.038 1140.59 645.063 1152.92 645.063C1175.82 645.051 1198.72 645.026 1221.61 645.001C1224.86 645.001 1227.25 642.94 1227.37 639.761C1227.66 632.128 1227.82 624.494 1227.92 616.861C1227.99 611.24 1227.92 605.619 1227.87 599.999C1227.78 588.278 1227.79 576.571 1227.5 564.85C1227.39 560.653 1225.26 559.414 1221.03 559.61C1214.15 559.929 1207.26 560.15 1200.36 560.113C1187.36 560.052 1174.35 559.671 1161.35 559.647C1148.67 559.622 1135.99 559.966 1123.32 560.003C1100.94 560.064 1078.57 560.015 1056.19 560.015V560.027ZM1139.85 657.703C1140.22 655.408 1140.58 653.359 1137.65 653.273C1130.49 653.04 1123.32 652.758 1116.15 652.733C1110.16 652.721 1104.16 653.163 1098.17 653.199C1086.85 653.285 1075.54 653.224 1064.21 653.224C1051.77 653.224 1039.31 653.064 1026.86 653.298C1021.03 653.408 1015.17 655.224 1009.47 652.488C1009.03 652.279 1008.35 652.377 1007.83 652.512C1001.05 654.243 994.213 654.427 987.33 653.187C984.876 652.745 983.457 653.69 983.544 656.39C983.852 666 984.148 675.597 984.407 685.206C984.469 687.501 984.333 689.796 984.308 692.091C984.284 695.257 984.21 698.435 984.296 701.602C984.395 705.013 984.913 708.438 984.777 711.849C984.629 715.617 984.666 715.948 988.527 715.114C996.026 713.506 1003.48 711.641 1010.99 710.057C1020.91 707.959 1030.96 706.989 1041.11 707.21C1046.5 707.333 1051.89 707.578 1057.28 707.566C1067.43 707.542 1077.59 707.296 1087.75 707.296C1093.17 707.296 1098.59 707.726 1104.02 707.763C1114.72 707.836 1125.44 707.848 1136.15 707.664C1137.42 707.64 1139.7 706.265 1139.76 705.394C1140.24 698.583 1140.45 691.735 1140.43 684.911C1140.39 675.732 1140.06 666.552 1139.86 657.716L1139.85 657.703ZM1026.07 778.169H1243.85C1242.56 775.236 1240.81 772.733 1240.36 770.008C1238.76 760.252 1238.46 750.581 1245.25 742.199C1245.67 741.683 1245.86 740.775 1245.75 740.125C1245.7 739.818 1244.68 739.462 1244.1 739.474C1238.24 739.597 1232.38 739.806 1226.52 739.978C1220.77 740.137 1215.03 740.37 1209.28 740.419C1200.21 740.493 1191.13 740.383 1182.07 740.444C1171.98 740.505 1161.89 740.775 1151.81 740.763C1138.82 740.763 1125.84 740.567 1112.83 740.481C1101.65 740.419 1090.44 740.788 1079.27 740.248C1070.19 739.806 1061.25 741.757 1052.07 740.567C1043.12 739.413 1033.92 740.076 1024.83 740.027C1024.09 740.027 1023.36 740.628 1022.76 740.886C1031.24 752.569 1030.39 764.67 1026.05 778.169H1026.07ZM812.673 206.742C812.192 204.508 811.365 200.09 810.267 195.733C806.999 182.835 798.599 174.772 786.092 171.962C782.515 171.164 778.888 170.489 775.237 170.084C768.33 169.311 761.299 167.654 754.811 171.827C752.665 173.201 750.457 174.49 748.372 175.95C737.395 183.621 730.413 193.647 728.538 207.233C727.416 215.345 728.773 222.794 733.139 229.36C737.839 236.441 743.106 243.252 752.307 245.302C759.017 246.799 765.567 249.339 772.351 250.162C780.714 251.18 789.077 250.162 795.663 243.927C798.118 241.595 800.338 238.969 802.41 236.294C808.627 228.292 811.933 219.174 812.685 206.742H812.673ZM721.717 224.61C721.051 225.703 720.731 226.132 720.509 226.599C714.699 239.62 712.318 253.868 705.732 266.643C703.067 271.81 701.526 277.554 699.552 283.052C697.246 289.482 694.951 295.938 692.756 302.405C689.351 312.456 686.07 322.556 682.617 332.583C681.889 334.694 682.074 335.725 684.529 335.811C691.362 336.044 698.171 337.836 705.041 335.749C706.632 335.271 708.556 335.872 710.32 335.933C712.072 336.007 713.836 336.081 715.599 336.068C721.162 336.044 726.75 335.663 732.276 336.068C735.211 336.277 736.618 335.418 737.629 332.939C739.306 328.852 741.12 324.827 742.871 320.777C745.819 313.99 748.742 307.191 751.715 300.417C755.082 292.722 758.018 284.794 762.039 277.455C765.345 271.405 769.97 266.067 773.991 260.409C774.152 260.176 774.115 259.808 774.139 259.636C765.443 257.23 756.822 254.948 748.261 252.42C742.39 250.689 737.345 247.449 733.398 242.774C730.635 239.497 728.057 236.036 725.677 232.465C724.184 230.219 723.21 227.629 721.705 224.598L721.717 224.61ZM666.557 478.404C667.038 478.146 667.519 477.876 668 477.618C667.692 476.317 667.495 474.98 667.063 473.728C664.682 466.733 662.203 459.774 659.872 452.754C659.255 450.889 658.737 448.864 658.786 446.937C658.922 441.353 659.292 435.782 659.736 430.21C660.131 425.289 659.674 419.938 661.5 415.557C664.473 408.39 668.999 401.848 672.848 395.037C674.982 391.27 678.263 389.981 682.432 390.595C684.529 390.901 686.638 391.184 688.673 391.699C694.705 393.221 698.565 396.829 698.664 402.266C698.787 408.647 698.208 415.066 697.591 421.435C697.172 425.804 696.148 430.124 695.395 434.456C694.248 441.096 692.965 447.649 689.869 453.81C687.908 457.7 686.872 462.081 685.762 466.34C685.528 467.211 686.773 468.475 687.341 469.555C688.315 468.843 689.697 468.353 690.202 467.395C694.631 458.964 699.009 450.521 703.178 441.967C706.324 435.499 709.173 428.885 712.059 422.294C717.906 408.917 723.161 395.258 729.624 382.2C735.236 370.861 735.606 359.067 735.261 347.015C735.236 346.046 733.398 344.303 732.399 344.291C722.963 344.193 713.527 344.426 704.091 344.487C696.444 344.536 688.784 344.512 681.137 344.45C678.805 344.426 677.51 345.395 676.647 347.568C674.439 353.102 672.157 358.625 669.641 364.037C663.362 377.574 656.899 391.036 650.621 404.573C650.004 405.898 649.745 407.567 649.868 409.04C650.214 413.164 650.978 417.263 651.349 421.386C651.879 427.326 652.002 433.303 652.681 439.23C653.544 446.765 653.988 454.362 658.207 461.21C661.204 466.082 663.239 471.531 665.706 476.722C665.977 477.299 666.298 477.864 666.594 478.428L666.557 478.404ZM970.124 645.468C970.124 645.689 970.136 645.897 970.148 646.118C974.922 645.836 979.683 645.529 984.456 645.296C986.381 645.198 987.17 644.437 987.17 642.424C987.219 626.617 987.318 610.798 987.54 594.991C987.577 592.058 986.196 591.236 983.679 591.396C981.805 591.518 979.93 591.96 978.067 591.948C966.978 591.85 955.902 591.641 944.813 591.518C942.605 591.494 940.385 591.825 938.177 591.788C933.293 591.69 928.396 591.383 923.511 591.334C920.674 591.31 918.158 592.77 917.702 595.458C916.974 599.741 916.789 604.171 916.863 608.54C916.999 617.008 917.492 625.464 917.776 633.919C917.8 634.668 917.467 635.429 917.258 636.165C915.876 640.866 918.38 644.682 923.289 645.026C927.446 645.321 931.627 645.443 935.796 645.456C947.243 645.517 958.689 645.48 970.136 645.48L970.124 645.468ZM932.738 459.173C932.738 459.087 932.738 459.001 932.738 458.903C929.296 458.903 925.843 458.903 922.401 458.903C920.6 458.903 918.849 459.173 918.75 461.37C918.516 466.414 918.281 471.482 918.368 476.526C918.528 485.767 919.071 494.996 919.157 504.237C919.219 511.269 918.812 518.301 918.639 525.333C918.565 528.082 918.454 530.831 918.528 533.58C918.627 537.066 919.169 540.551 918.984 544.012C918.861 546.393 919.527 547.325 921.797 547.35C932.33 547.46 942.877 547.669 953.41 547.645C956.63 547.645 957.629 546.025 957.431 542.846C957.222 539.594 957.185 536.317 957.185 533.053C957.185 524.658 957.271 516.276 957.271 507.882C957.271 504.679 957.061 501.488 957.061 498.285C957.061 491.584 957.16 484.896 957.209 478.195C957.246 473.482 957.074 468.745 957.357 464.045C957.579 460.412 956.815 459.197 953.028 459.173C946.256 459.124 939.497 459.161 932.725 459.161L932.738 459.173ZM1017.81 392.57C1017.81 392.497 1017.81 392.423 1017.81 392.362C1012.36 392.362 1006.91 392.423 1001.45 392.337C997.728 392.276 994.953 393.785 993.263 397.025C988.922 405.334 984.543 413.618 980.423 422.024C975.415 432.259 970.654 442.617 965.819 452.938C965.461 453.712 965.227 454.607 965.227 455.454C965.264 466.487 965.412 477.532 965.387 488.565C965.387 494.763 965.005 500.948 964.98 507.146C964.918 519.308 964.98 531.457 964.98 543.619C964.98 546.172 966.103 547.559 968.804 547.522C973.812 547.46 978.807 547.436 983.815 547.436C995.471 547.436 1007.13 547.448 1018.78 547.51C1024.21 547.534 1029.65 547.755 1035.08 547.718C1038.05 547.706 1039.23 546.135 1039.16 543.03C1038.96 535.433 1039.1 527.825 1039.1 520.228C1039.1 511.208 1039.16 502.188 1039.06 493.155C1039.04 490.296 1038.28 487.436 1038.4 484.589C1038.72 476.501 1039 468.475 1038.73 460.339C1038.42 451.061 1037.87 441.721 1038.01 432.394C1038.2 420.38 1037.79 408.353 1037.95 396.326C1038 393.172 1036.9 392.485 1034.13 392.546C1028.69 392.656 1023.24 392.583 1017.78 392.583L1017.81 392.57ZM1016.51 731.718C1016.98 732.037 1017.14 732.234 1017.3 732.246C1025.75 732.491 1034.2 732.749 1042.65 732.933C1043.86 732.958 1045.07 732.577 1046.28 732.504C1048.79 732.381 1051.31 732.246 1053.84 732.283C1057.79 732.344 1061.73 732.688 1065.68 732.651C1068 732.626 1070.33 731.829 1072.64 731.878C1079.49 732.05 1086.34 732.651 1093.19 732.774C1104.26 732.97 1115.35 733.044 1126.44 732.958C1136.79 732.884 1147.14 732.442 1157.49 732.332C1171.03 732.185 1184.57 732.234 1198.12 732.16C1214.57 732.062 1231.02 731.939 1247.48 731.804C1248.54 731.804 1249.6 731.62 1250.66 731.534C1250.66 731.227 1250.65 730.921 1250.64 730.614C1244.93 729.423 1239.18 728.38 1233.5 727.018C1227.79 725.643 1222.21 723.778 1216.48 722.477C1210.33 721.066 1204.07 720.072 1197.86 718.881C1192.31 717.814 1186.79 716.23 1181.19 715.776C1174.71 715.249 1168.13 715.69 1161.59 715.74C1155.51 715.776 1149.44 715.789 1143.36 715.911C1136.41 716.059 1129.46 716.378 1122.51 716.525C1117.41 716.635 1112.3 716.55 1107.21 716.599C1103.44 716.635 1099.66 716.635 1095.9 716.832C1089.37 717.163 1082.81 717.225 1076.36 718.145C1070.12 719.041 1064.01 720.919 1057.83 722.281C1046.99 724.686 1036.13 727.018 1025.27 729.436C1022.41 730.074 1019.6 730.921 1016.51 731.731V731.718ZM1029.06 556.419C1028.23 555.965 1027.96 555.683 1027.69 555.683C1016.6 555.622 1005.5 555.56 994.41 555.548C982.31 555.523 970.198 555.499 958.097 555.572C948.871 555.622 939.645 555.916 930.419 555.916C927.68 555.916 926.706 556.824 926.743 559.586C926.842 565.66 926.706 571.747 926.558 577.822C926.435 582.928 926.977 583.394 932.257 583.37C948.501 583.271 964.746 583.001 980.978 583.32C988.724 583.468 995.336 581.651 1001.38 576.804C1008.56 571.036 1016.03 565.636 1023.41 560.126C1025.11 558.862 1026.96 557.794 1029.05 556.432L1029.06 556.419ZM920.378 450.312C921.772 450.607 922.586 450.913 923.413 450.926C932.195 450.987 941.039 450.361 949.747 451.208C956.395 451.858 959.134 449.269 961.391 443.587C965.005 434.493 969.297 425.657 973.639 416.87C977.056 409.936 981.003 403.272 984.654 396.449C986.788 392.46 986.43 391.896 982.014 391.957C973.244 392.092 964.45 392.08 955.692 392.546C953.817 392.644 951.301 394.043 950.327 395.602C946.429 401.898 943 408.476 939.435 414.98C935.71 421.754 932.01 428.553 928.334 435.352C925.732 440.187 923.178 445.047 920.378 450.312ZM1275.32 788.846C1275.21 788.454 1275.1 788.061 1274.99 787.668C1273.73 787.815 1272.48 788.061 1271.22 788.098C1266.94 788.208 1262.16 789.497 1258.48 788.049C1251.98 785.484 1245.53 786.907 1239.1 786.429C1233.92 786.036 1228.67 786.834 1223.45 786.797C1214.16 786.735 1204.88 786.306 1195.59 786.269C1182.03 786.208 1168.48 786.416 1154.92 786.404C1141.01 786.404 1127.09 786.208 1113.18 786.183C1098.03 786.159 1082.9 786.257 1067.75 786.257C1053.51 786.257 1039.26 786.146 1025.01 786.159C1021.83 786.159 1018.61 786.183 1015.49 786.686C1010.94 787.41 1006.45 788.576 1001.93 789.534C1000.98 789.73 1000.01 789.853 999.036 790C999.751 790.994 1000.43 791.35 1001.15 791.424C1005.86 791.902 1010.57 792.467 1015.31 792.749C1026.15 793.375 1036.99 794.013 1047.84 794.332C1055.58 794.565 1063.34 794.332 1071.07 794.222C1081.16 794.074 1091.25 793.706 1101.34 793.669C1130.57 793.534 1159.82 793.743 1189.05 793.35C1204.22 793.154 1219.39 793.448 1234.58 792.344C1241.13 791.865 1247.76 792.786 1254.39 791.779C1260.48 790.859 1266.66 790.528 1272.79 789.853C1273.65 789.754 1274.48 789.202 1275.32 788.859V788.846ZM1001.5 781.642C1012.88 782.219 1020.42 773.825 1021.05 767.382C1021.79 759.896 1021.6 752.238 1016.16 745.709C1008.08 736.001 993.325 736.738 986.504 747.402C982.902 753.023 982.804 759.037 983.47 765.32C984.518 775.101 991.672 781.655 1001.5 781.642ZM863.454 761C863.454 762.215 863.392 763.442 863.454 764.645C863.8 770.818 866.686 775.997 871.669 779.163C878.922 783.766 886.841 782.747 893.76 778.28C900.137 774.168 902.592 767.713 901.247 760.08C901.075 759.11 900.927 758.104 900.976 757.122C901.321 750.213 893.785 740.248 887.038 738.775C886.606 738.677 886.162 738.542 885.73 738.566C879.255 738.959 873.186 740.8 868.548 745.353C864.293 749.513 863.318 755.183 863.442 760.988L863.454 761ZM1285.83 761.712C1284.87 756.165 1284.61 749.918 1278.96 744.702C1271.86 738.174 1260.2 737.818 1253.44 744.948C1249.54 749.059 1248.8 753.931 1247.69 759.037C1245.72 768.143 1252.1 778.881 1261.36 780.452C1264.41 780.967 1267.76 780.292 1270.89 779.752C1280.05 778.169 1285.38 771.923 1285.83 761.712ZM680.68 452.632L681.593 452.73C681.827 452.374 682.111 452.043 682.271 451.65C686.588 441.795 687.81 431.216 689.487 420.748C690.227 416.084 690.955 411.396 691.202 406.696C691.448 402.033 689.512 399.885 685.182 398.891C680.939 397.909 679.545 398.682 677.128 403.26C676.659 404.143 676.055 404.941 675.586 405.812C672.342 411.814 667.865 417.348 667.667 424.565C667.519 429.866 667.581 435.18 667.865 440.47C668.136 445.489 668.666 450.496 669.382 455.479C669.739 458.007 670.751 460.449 671.454 462.928C671.762 462.867 672.071 462.805 672.379 462.744C672.379 461.37 672.391 459.995 672.379 458.621C672.28 451.871 672.009 445.121 672.157 438.371C672.231 434.873 674.513 433.143 677.609 433.573C680.816 434.014 680.767 436.346 680.705 438.825C680.594 443.415 680.668 448.017 680.668 452.607L680.68 452.632ZM893.181 731.559C898.904 737.351 901.038 738.321 907.846 738.198C910.733 738.149 913.631 737.486 916.468 737.683C919.49 737.904 921.698 736.897 924.128 735.265C927.976 732.675 931.923 729.816 936.278 728.503C947.44 725.153 958.85 722.6 970.148 719.691C972.233 719.151 974.28 718.489 976.353 717.887V716.856C975.539 716.513 974.712 715.85 973.898 715.875C946.281 716.93 920.28 725.864 893.168 731.546L893.181 731.559ZM924.757 793.473C921.538 789.03 919.626 788.073 915.691 788.134C908.253 788.245 900.803 788.257 893.366 788.368C892.28 788.38 891.207 788.699 890.122 788.846C887.975 789.141 885.841 789.546 883.695 789.681C881.278 789.828 878.835 789.718 876.405 789.718C876.405 790.049 876.405 790.38 876.405 790.724C892.095 794.725 908.105 793.105 924.782 793.485L924.757 793.473ZM904.158 780.219C907.131 780.219 909.265 780.292 911.399 780.206C914.976 780.059 915.494 779.016 914.766 775.592C912.941 767.087 912.706 758.546 914.704 750.004C914.988 748.777 914.692 746.298 914.347 746.237C912.484 745.917 910.437 745.905 908.648 746.421C908.142 746.568 907.883 748.961 908.167 750.164C910.054 758.227 910.881 766.228 907.661 774.144C906.934 775.936 905.737 777.531 904.183 780.231L904.158 780.219ZM659.724 482.503C659.921 482.355 660.131 482.208 660.328 482.061C660.291 481.766 660.328 481.423 660.205 481.177C656.085 473.507 651.928 465.861 647.858 458.166C647.142 456.816 646.452 455.319 646.291 453.822C645.354 445.244 644.602 436.653 643.738 428.075C643.565 426.369 643.195 424.687 642.912 422.982C642.431 423.018 641.95 423.067 641.456 423.104C641.456 425.117 641.32 427.13 641.481 429.13C641.826 433.192 642.307 437.254 642.764 441.316C643.442 447.232 644.096 453.135 644.885 459.038C645.021 460.081 645.712 461.075 646.279 462.02C649.301 467.052 652.298 472.096 655.456 477.041C656.689 478.98 658.293 480.686 659.724 482.503ZM1174.73 551.277C1175.33 551.363 1175.93 551.461 1176.53 551.547C1176.73 550.332 1177.11 549.117 1177.11 547.902C1177.11 544.061 1176.9 540.22 1176.93 536.378C1176.99 527.432 1177.18 518.485 1177.22 509.526C1177.22 508.508 1176.64 507.477 1176.33 506.458C1175.84 506.52 1175.36 506.569 1174.87 506.63C1174.4 521.517 1174.99 536.403 1174.72 551.277H1174.73ZM634.82 438.801C634.376 438.752 633.932 438.702 633.488 438.653C631.872 442.151 629.109 444.974 629.085 449.392C629.048 453.748 627.962 458.093 627.419 462.462C626.975 465.972 626.642 469.494 626.223 473.384C627.123 473.028 627.284 473.004 627.296 472.942C627.469 472.427 627.691 471.912 627.752 471.384C628.863 462.707 630.207 454.166 634.66 446.324C635.758 444.397 634.82 441.329 634.82 438.788V438.801Z" fill="#121212" style="fill:#121212;fill:color(display-p3 0.0706 0.0706 0.0706);fill-opacity:1;"/>
<path d="M520.329 783.288C520.329 788.7 520.341 794.1 520.329 799.512C520.304 805.857 517.961 807.784 511.485 807.489C505.577 807.219 499.656 807.367 493.735 807.33C492.181 807.33 490.615 807.416 489.073 807.244C483.892 806.655 482.462 804.434 482.696 799.328C483.017 792.051 482.906 784.761 482.807 777.471C482.745 772.354 484.608 769.948 489.788 769.887C497.978 769.801 506.169 769.936 514.359 770.23C518.676 770.39 519.934 771.949 520.07 776.318C520.131 778.637 520.07 780.969 520.07 783.288C520.156 783.288 520.242 783.288 520.329 783.288Z" fill="#121212" style="fill:#121212;fill:color(display-p3 0.0706 0.0706 0.0706);fill-opacity:1;"/>
<path d="M520.2 742.537C520.2 746.292 520.126 750.06 520.212 753.815C520.348 759.596 518.399 761.621 512.515 761.694C505.053 761.792 497.578 761.927 490.116 762.026C484.948 762.099 482.69 759.952 482.715 754.92C482.752 747.176 482.789 739.432 482.925 731.688C483.036 725.172 485.046 723.883 491.423 724.595C496.332 725.135 501.353 724.656 506.323 724.681C509.419 724.693 512.528 724.717 515.624 724.902C518.707 725.086 520.2 726.927 520.237 729.921C520.286 734.118 520.237 738.328 520.237 742.537C520.225 742.537 520.2 742.537 520.188 742.537H520.2Z" fill="#121212" style="fill:#121212;fill:color(display-p3 0.0706 0.0706 0.0706);fill-opacity:1;"/>
<path d="M550.105 761.728C545.11 761.728 540.114 761.888 535.131 761.691C530.086 761.495 527.483 757.776 528.298 752.757C528.729 750.094 528.853 747.357 528.828 744.645C528.791 739.81 528.483 734.962 528.409 730.127C528.359 726.592 531.936 724.039 536.623 724.211C541.286 724.383 545.948 724.702 550.611 724.837C554.028 724.948 557.444 724.874 560.861 724.874C563.932 724.874 565.671 726.138 565.659 729.427C565.622 736.705 565.659 743.982 565.696 751.26C565.696 752.364 565.733 753.469 565.844 754.573C566.325 759.188 564.438 761.483 559.775 761.654C556.556 761.777 553.324 761.679 550.093 761.679V761.728H550.105Z" fill="#121212" style="fill:#121212;fill:color(display-p3 0.0706 0.0706 0.0706);fill-opacity:1;"/>
<path d="M565.878 778.932C565.878 786.32 565.903 793.695 565.878 801.083C565.854 805.428 563.436 807.109 559.119 806.962C551.052 806.692 542.961 806.802 534.881 806.913C530.108 806.986 528.394 805.023 528.64 800.322C528.924 794.874 528.64 789.4 528.665 783.927C528.69 780.515 528.714 777.091 528.998 773.704C529.232 770.942 531.662 769.691 535.289 769.74C543.035 769.838 550.781 769.875 558.527 769.752C563.917 769.678 566.273 772.354 565.891 778.919L565.878 778.932Z" fill="#121212" style="fill:#121212;fill:color(display-p3 0.0706 0.0706 0.0706);fill-opacity:1;"/>
<path d="M576.352 798.232C576.352 790.967 576.328 783.689 576.352 776.424C576.377 771.662 577.475 770.276 582.125 770.214C591.08 770.092 600.035 770.214 609.002 770.362C611.95 770.411 613.615 772.693 613.615 776.191C613.627 784.659 613.64 793.127 613.615 801.607C613.615 805.731 611.518 807.375 607.374 807.179C603.649 807.007 599.911 807.375 596.186 807.363C594.422 807.363 592.671 806.958 590.907 806.811C589.378 806.688 587.786 806.393 586.294 806.639C578.116 808.001 576.377 806.577 576.34 798.244L576.352 798.232Z" fill="#121212" style="fill:#121212;fill:color(display-p3 0.0706 0.0706 0.0706);fill-opacity:1;"/>
<path d="M613.587 730.55C613.587 739.153 613.6 747.744 613.587 756.347C613.587 759.206 611.17 761.587 607.802 761.6C601.487 761.624 595.172 761.342 588.869 761.28C586.772 761.256 584.675 761.624 582.566 761.649C578.717 761.71 576.658 760.274 576.559 756.519C576.3 747.339 576.349 738.159 576.51 728.98C576.559 726.23 579.223 724.341 582.122 724.39C590.559 724.525 598.996 724.647 607.432 724.844C611.651 724.942 613.624 726.82 613.6 730.55H613.587Z" fill="#121212" style="fill:#121212;fill:color(display-p3 0.0706 0.0706 0.0706);fill-opacity:1;"/>
<path d="M679.292 767.426C691.824 767.647 698.04 776.655 698.484 785.945C698.978 796.487 689.246 805.642 679.477 805.617C667.845 805.581 659.581 795.726 659.828 785.982C660.099 775.341 668.77 767.119 679.292 767.438V767.426Z" fill="#121212" style="fill:#121212;fill:color(display-p3 0.0706 0.0706 0.0706);fill-opacity:1;"/>
<path d="M679.357 628.593C688.916 627.955 698.229 637.356 698.562 645.284C699.154 659.066 691.901 665.521 680.714 666.576C668.589 667.718 660.719 658.747 660.189 649.15C659.585 638.227 666.899 628.912 679.357 628.593Z" fill="#121212" style="fill:#121212;fill:color(display-p3 0.0706 0.0706 0.0706);fill-opacity:1;"/>
<path d="M722.895 767.513C732.38 766.776 741.779 777.809 741.557 784.571C741.101 798.365 732.343 805.753 723.647 805.569C710.437 805.287 703.085 797.433 703.098 786.547C703.098 775.379 711.732 766.629 722.895 767.513Z" fill="#121212" style="fill:#121212;fill:color(display-p3 0.0706 0.0706 0.0706);fill-opacity:1;"/>
<path d="M741.599 745.634C741.649 756.569 732.274 764.263 722.616 764.362C714.377 764.448 703.226 754.691 703.029 747.413C702.696 735.227 711.145 726.379 722.912 726.133C733.779 725.9 741.969 735.509 741.612 745.634H741.599Z" fill="#121212" style="fill:#121212;fill:color(display-p3 0.0706 0.0706 0.0706);fill-opacity:1;"/>
<path d="M639.261 767.501C648.426 765.795 657.849 776.521 658.256 784.903C658.861 797.176 649.918 805.226 639.496 805.46C630.047 805.668 620.981 798.82 620.451 789.088C619.736 776.006 626.964 767.967 639.261 767.501Z" fill="#121212" style="fill:#121212;fill:color(display-p3 0.0706 0.0706 0.0706);fill-opacity:1;"/>
<path d="M620.56 744.435C618.919 736.556 629.687 725.977 638.001 726.063C648.103 726.173 659.019 734.801 658.92 743.195C658.748 757.112 650.952 763.212 640.209 763.972C628.454 764.807 620.572 756.094 620.56 744.435Z" fill="#121212" style="fill:#121212;fill:color(display-p3 0.0706 0.0706 0.0706);fill-opacity:1;"/>
<path d="M1214.65 596.584C1204.09 596.584 1192.8 596.608 1181.52 596.571C1178.31 596.571 1175.08 596.633 1171.91 596.228C1169.69 595.946 1167.05 595.467 1167.1 592.252C1167.13 589.797 1169.43 588.042 1172.15 588.054C1180.92 588.091 1189.69 588.067 1198.46 588.054C1204.14 588.054 1209.8 588.03 1215.47 587.981C1218.79 587.956 1221.02 589.601 1221.13 592.288C1221.23 594.583 1218.42 596.694 1214.65 596.596V596.584Z" fill="#121212" style="fill:#121212;fill:color(display-p3 0.0706 0.0706 0.0706);fill-opacity:1;"/>
<path d="M1194.37 599.261C1201.5 599.261 1208.63 599.237 1215.74 599.261C1218.75 599.274 1221.52 601.262 1221.29 603.446C1221 606.33 1218.63 607.214 1216.22 607.312C1210.13 607.558 1204.03 607.582 1197.92 607.631C1189.94 607.705 1181.96 607.729 1173.97 607.778C1173.63 607.778 1173.3 607.828 1172.97 607.84C1169.97 607.963 1167.16 605.913 1167.14 603.606C1167.13 601.519 1169.85 599.274 1172.66 599.249C1178 599.2 1183.34 599.274 1188.69 599.286C1190.58 599.286 1192.48 599.286 1194.37 599.286C1194.37 599.286 1194.37 599.261 1194.37 599.249V599.261Z" fill="#121212" style="fill:#121212;fill:color(display-p3 0.0706 0.0706 0.0706);fill-opacity:1;"/>
<path d="M1204.23 618.711C1193.83 618.711 1183.44 618.711 1173.05 618.698C1172.28 618.698 1171.48 618.6 1170.75 618.392C1168.51 617.741 1166.99 616.318 1167.1 613.863C1167.22 611.151 1169.48 610.844 1171.47 610.795C1177.7 610.611 1183.93 610.574 1190.15 610.55C1198.05 610.525 1205.94 610.574 1213.82 610.611C1214.93 610.611 1216.21 610.378 1217.12 610.844C1218.62 611.605 1220.87 612.697 1221.05 613.912C1221.44 616.453 1219.61 618.367 1216.88 618.49C1212.68 618.674 1208.46 618.539 1204.24 618.539C1204.24 618.6 1204.24 618.662 1204.24 618.723L1204.23 618.711Z" fill="#121212" style="fill:#121212;fill:color(display-p3 0.0706 0.0706 0.0706);fill-opacity:1;"/>
<path d="M1179.46 577.143C1191.22 577.143 1202.99 577.119 1214.76 577.168C1217.15 577.168 1219.96 576.812 1220.68 580.101C1221.28 582.887 1218.74 585.317 1215.19 585.354C1210.42 585.39 1205.63 585.194 1200.86 585.231C1193.53 585.28 1186.22 585.476 1178.89 585.538C1176.46 585.562 1173.98 585.55 1171.59 585.169C1169.1 584.777 1167.17 583.427 1167.34 580.506C1167.53 577.511 1169.65 577.094 1172.09 577.131C1174.55 577.168 1176.99 577.131 1179.44 577.131L1179.46 577.143Z" fill="#121212" style="fill:#121212;fill:color(display-p3 0.0706 0.0706 0.0706);fill-opacity:1;"/>
<path d="M1025.76 463.19V506.726C1023.27 512.688 1024.4 519.993 1018.82 524.826C1015.13 528.021 1010.93 529.893 1006.03 529.822C1002.18 529.771 998.22 529.924 994.493 529.13C983.19 526.739 977.983 520.034 977.462 508.313C977.237 503.195 976.461 498.108 976.257 492.991C976.094 488.992 976.431 484.983 976.522 480.975C976.553 479.52 976.41 478.055 976.492 476.6C976.88 469.793 976.829 462.915 977.921 456.23C978.616 451.998 980.913 447.989 982.73 443.98C986.365 435.973 990.276 428.078 993.86 420.05C996.106 415.024 999.027 410.72 1004.9 410.018C1008.8 409.56 1012.83 409.733 1016.76 410.069C1023.03 410.608 1025.78 413.854 1025.78 420.203C1025.79 434.528 1025.78 448.854 1025.78 463.18C1025.77 463.18 1025.76 463.18 1025.75 463.18L1025.76 463.19Z" fill="#121212" style="fill:#121212;fill:color(display-p3 0.0706 0.0706 0.0706);fill-opacity:1;"/>
<path fill-rule="evenodd" clip-rule="evenodd" d="M913.272 1018.74L910.849 1026.33H905.386L896.173 1052.56H883.632L878.227 1030.44L873.283 1044.82H879.515L877.15 1052.56H856.799L859.127 1044.82H863.358L869.975 1026.33H865.916L868.417 1018.74H885.997L891.576 1040.64L896.673 1026.33H890.268L893.172 1018.74H913.272ZM1061.4 1026.31H1055.01L1052.8 1032.57H1058.82C1060.3 1032.57 1061.11 1032.55 1061.88 1031.62C1061.88 1031.62 1062.8 1031.03 1062.99 1028.7C1063.13 1027.59 1062.84 1026.33 1061.38 1026.31H1061.4ZM1043.18 1026.31H1036.95L1039.28 1018.74C1039.28 1018.74 1072.82 1018.81 1073.07 1018.79C1073.5 1018.79 1074.04 1018.9 1074.19 1018.94C1074.34 1018.96 1074.71 1019.11 1074.88 1019.2C1075.06 1019.29 1075.42 1019.66 1075.42 1019.66C1076.13 1020.75 1076.38 1021.96 1076.09 1023.07C1074.92 1027.68 1073.55 1031.62 1071.3 1036.23C1069.92 1038.38 1068.25 1038.73 1066.25 1039.01L1067.94 1044.77H1074.59L1071.73 1052.51H1059.88L1055.78 1039.01H1050.82L1048.76 1044.77H1054.94L1052.44 1052.51H1029.05L1031.45 1044.77H1037.3L1043.18 1026.29V1026.31ZM931.218 1026.25H937.508C938.277 1026.25 938.854 1026.57 938.893 1027.73C938.893 1029.03 933.892 1042.77 933.892 1042.77C933.18 1044.97 932.045 1044.9 930.564 1044.88H924.544L931.218 1026.22V1026.25ZM948.972 1018.74H916.042L913.599 1026.33H919.927L913.542 1044.88H906.656L904.117 1052.51H936.469C939.162 1052.56 941.22 1052.66 942.49 1048.69C942.49 1048.69 951.511 1023.77 951.472 1021.4C951.376 1019.31 950.318 1018.74 948.953 1018.74H948.972ZM978.67 1026.31H972.284L970.072 1032.57H976.093C977.574 1032.57 978.382 1032.55 979.151 1031.62C979.151 1031.62 980.074 1031.03 980.286 1028.7C980.421 1027.59 980.151 1026.33 978.67 1026.31ZM974.862 1038.53H968.476L966.264 1044.79H972.284C973.785 1044.79 974.573 1044.77 975.343 1043.84C975.343 1043.84 976.266 1043.25 976.477 1040.92C976.612 1039.81 976.323 1038.55 974.862 1038.53ZM991.134 1018.74C992.865 1018.74 993.942 1019.61 993.846 1021.09C993.635 1025.49 990.23 1032.62 990.23 1032.62C989.115 1034.81 987.23 1035.2 985.864 1035.36C987.326 1036.18 988.307 1036.47 988.095 1038.88C988.095 1039.9 986.018 1052.51 977.67 1052.58H945.336L948.068 1044.79H954.742L960.743 1026.36H954.8L957.377 1018.77H991.153L991.134 1018.74ZM733.063 1011.22H760.337L758.76 1016.01L756.279 1023.4H750.451L743.334 1043.27H750.181L753.682 1033.81H766.031L758.799 1055.17H718.444L722.08 1043.27H728.215L735.275 1023.4H728.869L733.043 1011.24L733.063 1011.22ZM783.265 1035.44L757.991 1072.34C757.317 1073.54 756.144 1074.58 754.586 1074.3C754.201 1074.19 753.682 1074.06 753.817 1073.54C754.798 1070.65 755.009 1069.73 755.99 1067.08C756.798 1064.52 757.548 1062.38 757.548 1062.38C741.064 1062.43 725.273 1062.36 709 1062.38L728.408 1004.5H776.11C778.149 998.871 779.284 995.392 780.995 990C783.804 990.087 783.323 993.37 783.304 997.784L783.246 1035.44H783.265ZM863.454 1018.74L861.204 1026.33H854.703L848.394 1044.82H855.145L852.76 1052.56H827.37L829.967 1044.82H836.564C838.507 1038.58 842.431 1026.33 842.431 1026.33H835.353L837.872 1018.74H863.435H863.454ZM826.774 1018.74L824.023 1026.33H817.58L811.309 1044.82H815.637L817.83 1038.71H828.543L823.831 1052.56H790.709L792.998 1044.79H799.499L805.481 1026.31H799.057L801.711 1018.72H826.755L826.774 1018.74ZM1117.97 1018.27L1114.16 1028.59H1108.81C1108.62 1027.81 1108.33 1026.94 1107.75 1026.38L1107.18 1025.96L1106.29 1025.7C1097.16 1025.51 1095.44 1025.33 1093.81 1029.2C1092.25 1033.47 1090.69 1037.86 1089.42 1042.14C1089.31 1043.68 1090.52 1044.45 1091.67 1044.88C1093.87 1045.29 1097.27 1045.66 1098.68 1042.16L1099.87 1039.03H1093.85L1095.96 1032.12H1112.97L1105.52 1052.53H1095.06L1095.25 1049.82C1092.98 1053.06 1090.75 1052.66 1087.71 1052.66C1083.33 1052.51 1074.38 1053.67 1076.52 1048.12L1085.9 1021.48C1086.62 1019.38 1087.92 1018.2 1090.77 1018.2H1108.29C1110.58 1018.2 1110.97 1020.68 1110.97 1020.68L1111.75 1018.27H1117.97ZM1128.85 1044.64C1131.45 1044.62 1134.91 1045.1 1135.72 1043.21C1136.41 1041.47 1137.88 1038.68 1135.95 1038.71L1120.62 1038.75H1120.35H1119.91C1118.6 1038.75 1117.45 1037.05 1117.79 1035.75C1119.91 1029.38 1122.97 1021.03 1123.47 1019.85C1124.01 1018.57 1124.83 1018.27 1126.97 1018.27C1127.33 1018.27 1140.47 1018.27 1140.47 1018.27C1141.28 1018.27 1141.7 1018.74 1142.16 1019.53C1142.61 1020.4 1142.8 1021.05 1142.8 1021.05L1143.88 1018.29H1154.19L1151.07 1028.62H1140.84C1140.65 1027.29 1139.88 1026.09 1138.7 1025.99C1136.11 1026.01 1132.64 1025.53 1131.84 1027.42C1131.14 1029.16 1129.68 1031.62 1131.61 1031.62L1146.94 1031.57C1148.55 1031.57 1149.3 1032.94 1149.28 1034.44C1149.26 1037.03 1145.99 1049.14 1143.09 1050.99C1140.82 1052.88 1134.45 1053.36 1127.1 1052.58C1125.91 1052.38 1124.95 1051.32 1124.57 1050.1L1123.62 1052.58H1112.1L1115.89 1041.92H1126.58C1126.58 1041.92 1126.24 1044.14 1127.51 1044.58C1127.62 1044.58 1127.82 1044.64 1127.99 1044.64H1128.89H1128.85ZM1035.03 1018.74L1030.32 1032.23H1019.54L1021.7 1026.33H1015.25L1013.04 1032.53H1016.83L1014.81 1038.55H1011.29L1009.04 1044.82H1015.29L1017.27 1039.29H1028.14L1023.87 1052.58H988.172L991.019 1044.84H997.347L1003.83 1026.36H997.366L999.944 1018.77H1035.01L1035.03 1018.74Z" fill="#00421E" style="fill:#00421E;fill:color(display-p3 0.0000 0.2588 0.1176);fill-opacity:1;"/>
</g>
<defs>
<clipPath id="clip0_14_2513">
<rect width="1854" height="1236" fill="white" style="fill:white;fill-opacity:1;"/>
</clipPath>
</defs>
</svg>
