<svg width="1854" height="1236" viewBox="0 0 1854 1236" fill="none" xmlns="http://www.w3.org/2000/svg">
<rect width="1854" height="1236" fill="white" style="fill:white;fill-opacity:1;"/>
<path d="M82.8 162.8C82.5333 162.8 82.4 162.667 82.4 162.4C82.4 162.293 82.4133 162.147 82.44 161.96C82.4667 161.747 82.5333 161.56 82.64 161.4C83.52 161.293 84.16 161.053 84.56 160.68C84.9867 160.28 85.2 159.587 85.2 158.6V138.88C85.2 138.187 85.1467 137.68 85.04 137.36C84.96 137.04 84.7333 136.84 84.36 136.76C84.0133 136.653 83.4267 136.6 82.6 136.6C82.6 136.467 82.6133 136.293 82.64 136.08C82.6667 135.867 82.6933 135.693 82.72 135.56C82.8 135.187 82.9733 135 83.24 135H92.36C94.2 135 95.8533 135.253 97.32 135.76C98.8133 136.24 100 137.013 100.88 138.08C101.76 139.12 102.2 140.507 102.2 142.24C102.2 144.32 101.627 146.067 100.48 147.48C99.3333 148.867 97.8267 149.907 95.96 150.6C94.12 151.293 92.12 151.64 89.96 151.64C89.2133 151.64 88.4267 151.6 87.6 151.52V158.6C87.6 159.587 87.7333 160.24 88 160.56C88.2933 160.88 88.6933 161.067 89.2 161.12C89.3867 161.147 89.7333 161.173 90.24 161.2C90.7733 161.2 91.1733 161.2 91.44 161.2C91.44 161.333 91.4267 161.507 91.4 161.72C91.4 161.933 91.3733 162.107 91.32 162.24C91.24 162.507 91.1467 162.667 91.04 162.72C90.9333 162.773 90.8533 162.8 90.8 162.8H82.8ZM87.6 149.36C88.88 149.627 90.12 149.76 91.32 149.76C92.8133 149.76 94.1867 149.507 95.44 149C96.6933 148.493 97.7067 147.72 98.48 146.68C99.2533 145.64 99.64 144.333 99.64 142.76C99.64 141.32 99.2667 140.147 98.52 139.24C97.8 138.333 96.8 137.667 95.52 137.24C94.2667 136.813 92.8267 136.6 91.2 136.6C90.4533 136.6 89.6533 136.64 88.8 136.72C88.4267 136.747 88.1333 136.88 87.92 137.12C87.7067 137.333 87.6 137.6 87.6 137.92V149.36ZM105.502 162.8C105.235 162.8 105.102 162.667 105.102 162.4C105.102 162.293 105.115 162.147 105.142 161.96C105.169 161.747 105.235 161.56 105.342 161.4C106.275 161.293 106.902 161.067 107.222 160.72C107.542 160.373 107.729 159.867 107.782 159.2C107.809 158.853 107.835 158.307 107.862 157.56C107.889 156.813 107.902 155.96 107.902 155C107.929 154.013 107.942 153.04 107.942 152.08C107.942 151.173 107.929 150.36 107.902 149.64C107.902 148.893 107.889 148.347 107.862 148C107.835 147.467 107.729 147.08 107.542 146.84C107.382 146.573 107.075 146.427 106.622 146.4L105.102 146.24C104.915 146.24 104.822 146.133 104.822 145.92C104.822 145.52 104.955 145.16 105.222 144.84C105.649 144.707 106.182 144.6 106.822 144.52C107.462 144.44 108.022 144.4 108.502 144.4C109.595 144.4 110.129 145 110.102 146.2C110.075 146.707 110.062 147.32 110.062 148.04C110.515 146.813 111.169 145.8 112.022 145C112.902 144.2 113.955 143.8 115.182 143.8C115.715 143.8 116.222 143.867 116.702 144C117.182 144.133 117.515 144.307 117.702 144.52C117.782 144.6 117.822 144.72 117.822 144.88C117.822 145.28 117.715 145.707 117.502 146.16C117.315 146.587 117.129 146.867 116.942 147C116.435 146.76 115.915 146.573 115.382 146.44C114.875 146.28 114.395 146.2 113.942 146.2C112.689 146.2 111.729 146.853 111.062 148.16C110.422 149.467 110.075 151.187 110.022 153.32C110.022 153.533 110.022 153.747 110.022 153.96C110.022 154.147 110.022 154.347 110.022 154.56C110.022 155.76 110.022 156.773 110.022 157.6C110.049 158.427 110.075 159.187 110.102 159.88C110.155 160.573 110.449 160.96 110.982 161.04C111.115 161.04 111.355 161.053 111.702 161.08C112.075 161.107 112.449 161.133 112.822 161.16C113.222 161.187 113.489 161.2 113.622 161.2C113.622 161.333 113.609 161.507 113.582 161.72C113.582 161.933 113.555 162.107 113.502 162.24C113.422 162.507 113.329 162.667 113.222 162.72C113.115 162.773 113.035 162.8 112.982 162.8H105.502ZM120.027 162.8C119.76 162.8 119.627 162.667 119.627 162.4C119.627 162.293 119.64 162.147 119.667 161.96C119.693 161.747 119.76 161.56 119.867 161.4C120.827 161.293 121.533 161.067 121.987 160.72C122.44 160.373 122.693 159.867 122.747 159.2C122.773 158.853 122.8 158.307 122.827 157.56C122.853 156.787 122.867 155.92 122.867 154.96C122.893 153.973 122.907 153 122.907 152.04C122.907 151.16 122.893 150.36 122.867 149.64C122.867 148.893 122.853 148.347 122.827 148C122.8 147.467 122.693 147.08 122.507 146.84C122.347 146.6 122.04 146.453 121.587 146.4L120.107 146.24C119.92 146.24 119.827 146.133 119.827 145.92C119.827 145.52 119.96 145.16 120.227 144.84C120.653 144.707 121.187 144.6 121.827 144.52C122.467 144.44 123.027 144.4 123.507 144.4C124.093 144.4 124.507 144.547 124.747 144.84C124.987 145.107 125.107 145.56 125.107 146.2C125.08 147.267 125.053 148.573 125.027 150.12C125.027 151.64 125.027 153.107 125.027 154.52C125.027 155.72 125.027 156.76 125.027 157.64C125.053 158.52 125.08 159.307 125.107 160C125.16 160.64 125.427 161 125.907 161.08C126.04 161.107 126.253 161.133 126.547 161.16C126.867 161.16 127.187 161.173 127.507 161.2C127.853 161.2 128.093 161.2 128.227 161.2C128.227 161.333 128.213 161.507 128.187 161.72C128.187 161.933 128.16 162.107 128.107 162.24C128.027 162.507 127.933 162.667 127.827 162.72C127.72 162.773 127.64 162.8 127.587 162.8H120.027ZM123.267 139.8C122.627 139.8 122.093 139.6 121.667 139.2C121.24 138.8 121.027 138.32 121.027 137.76C121.027 137.147 121.24 136.64 121.667 136.24C122.093 135.813 122.627 135.6 123.267 135.6C123.88 135.6 124.387 135.813 124.787 136.24C125.213 136.64 125.427 137.147 125.427 137.76C125.427 138.32 125.213 138.8 124.787 139.2C124.387 139.6 123.88 139.8 123.267 139.8ZM154.168 162.8C153.901 162.8 153.768 162.667 153.768 162.4C153.768 162.293 153.781 162.147 153.808 161.96C153.834 161.747 153.901 161.56 154.008 161.4C154.941 161.293 155.568 161.067 155.888 160.72C156.234 160.373 156.448 159.867 156.528 159.2C156.581 158.88 156.608 158.253 156.608 157.32C156.634 156.387 156.648 155.373 156.648 154.28C156.648 153.453 156.634 152.68 156.608 151.96C156.608 151.24 156.594 150.693 156.568 150.32C156.488 148.827 156.034 147.72 155.208 147C154.381 146.28 153.421 145.907 152.328 145.88C151.208 145.853 150.181 146.213 149.248 146.96C148.314 147.68 147.621 148.64 147.168 149.84C147.168 150 147.168 150.147 147.168 150.28V154.92C147.168 156.093 147.168 157.093 147.168 157.92C147.194 158.72 147.221 159.44 147.248 160.08C147.274 160.453 147.354 160.707 147.488 160.84C147.621 160.947 147.768 161.027 147.928 161.08C148.114 161.107 148.408 161.133 148.808 161.16C149.234 161.187 149.621 161.2 149.968 161.2C149.968 161.333 149.954 161.533 149.928 161.8C149.901 162.067 149.861 162.267 149.808 162.4C149.728 162.667 149.581 162.8 149.368 162.8H142.528C142.261 162.8 142.128 162.667 142.128 162.4C142.128 162.293 142.141 162.147 142.168 161.96C142.194 161.747 142.261 161.56 142.368 161.4C143.301 161.293 143.928 161.067 144.248 160.72C144.594 160.373 144.808 159.867 144.888 159.2C144.941 158.88 144.968 158.253 144.968 157.32C144.994 156.387 145.008 155.373 145.008 154.28C145.008 153.453 144.994 152.68 144.968 151.96C144.968 151.24 144.954 150.693 144.928 150.32C144.848 148.827 144.394 147.72 143.568 147C142.768 146.28 141.821 145.907 140.728 145.88C139.661 145.853 138.661 146.213 137.728 146.96C136.794 147.68 136.101 148.653 135.648 149.88C135.621 150.627 135.608 151.413 135.608 152.24C135.608 153.04 135.608 153.813 135.608 154.56C135.608 155.76 135.608 156.813 135.608 157.72C135.634 158.627 135.661 159.427 135.688 160.12C135.714 160.68 135.941 161 136.368 161.08C136.554 161.107 136.888 161.133 137.368 161.16C137.848 161.187 138.194 161.2 138.408 161.2C138.408 161.333 138.394 161.507 138.368 161.72C138.368 161.933 138.341 162.107 138.288 162.24C138.208 162.507 138.114 162.667 138.008 162.72C137.901 162.773 137.821 162.8 137.768 162.8H131.088C130.821 162.8 130.688 162.667 130.688 162.4C130.688 162.293 130.701 162.147 130.728 161.96C130.754 161.747 130.821 161.56 130.928 161.4C131.861 161.293 132.474 161.067 132.768 160.72C133.088 160.373 133.274 159.867 133.328 159.2C133.354 158.853 133.381 158.307 133.408 157.56C133.434 156.813 133.448 155.96 133.448 155C133.474 154.013 133.488 153.04 133.488 152.08C133.488 151.173 133.474 150.36 133.448 149.64C133.448 148.893 133.434 148.347 133.408 148C133.381 147.467 133.274 147.08 133.088 146.84C132.928 146.6 132.621 146.453 132.168 146.4L130.688 146.24C130.501 146.24 130.408 146.133 130.408 145.92C130.408 145.52 130.541 145.16 130.808 144.84C131.234 144.707 131.768 144.6 132.408 144.52C133.048 144.44 133.608 144.4 134.088 144.4C134.674 144.4 135.088 144.547 135.328 144.84C135.568 145.107 135.688 145.56 135.688 146.2C135.688 146.44 135.688 146.68 135.688 146.92C136.408 145.987 137.288 145.24 138.328 144.68C139.368 144.093 140.474 143.8 141.648 143.8C142.874 143.8 143.928 144.107 144.808 144.72C145.714 145.307 146.368 146.213 146.768 147.44C147.514 146.347 148.448 145.467 149.568 144.8C150.714 144.133 151.941 143.8 153.248 143.8C154.901 143.8 156.234 144.333 157.248 145.4C158.288 146.44 158.808 148.04 158.808 150.2V154.92C158.808 156.093 158.808 157.093 158.808 157.92C158.834 158.72 158.861 159.44 158.888 160.08C158.914 160.453 158.994 160.707 159.128 160.84C159.261 160.947 159.408 161.027 159.568 161.08C159.754 161.107 160.048 161.133 160.448 161.16C160.874 161.187 161.261 161.2 161.608 161.2C161.608 161.333 161.594 161.533 161.568 161.8C161.541 162.067 161.501 162.267 161.448 162.4C161.368 162.667 161.221 162.8 161.008 162.8H154.168ZM178.437 163.2C177.904 163.2 177.477 162.973 177.157 162.52C176.837 162.04 176.65 161.44 176.597 160.72C175.637 161.627 174.544 162.307 173.317 162.76C172.09 163.187 170.917 163.4 169.797 163.4C168.33 163.4 167.064 162.947 165.997 162.04C164.93 161.107 164.397 159.8 164.397 158.12C164.397 156.653 164.81 155.493 165.637 154.64C166.464 153.76 167.77 153.107 169.557 152.68C171.37 152.227 173.717 151.92 176.597 151.76V150.88C176.597 150.32 176.57 149.72 176.517 149.08C176.464 148.44 176.29 147.84 175.997 147.28C175.73 146.72 175.277 146.267 174.637 145.92C173.997 145.547 173.104 145.36 171.957 145.36C170.65 145.36 169.677 145.653 169.037 146.24C168.397 146.8 168.024 147.653 167.917 148.8C167.81 148.8 167.69 148.813 167.557 148.84C167.424 148.84 167.29 148.84 167.157 148.84C166.677 148.84 166.224 148.773 165.797 148.64C165.37 148.507 165.157 148.227 165.157 147.8C165.157 147.373 165.397 146.933 165.877 146.48C166.357 146 166.997 145.56 167.797 145.16C168.597 144.76 169.477 144.44 170.437 144.2C171.397 143.933 172.344 143.8 173.277 143.8C174.237 143.8 175.144 143.973 175.997 144.32C176.877 144.64 177.584 145.2 178.117 146C178.65 146.8 178.89 147.907 178.837 149.32C178.81 150.067 178.784 151.013 178.757 152.16C178.757 153.28 178.757 154.4 178.757 155.52C178.757 156.347 178.757 157.12 178.757 157.84C178.784 158.56 178.797 159.173 178.797 159.68C178.824 160.4 178.904 160.827 179.037 160.96C179.197 161.067 179.424 161.107 179.717 161.08C179.744 161.08 179.757 161.08 179.757 161.08L181.757 160.96C181.917 160.96 181.997 161.053 181.997 161.24C181.997 161.373 181.957 161.573 181.877 161.84C181.824 162.107 181.73 162.307 181.597 162.44C181.437 162.52 181.144 162.627 180.717 162.76C180.317 162.867 179.89 162.973 179.437 163.08C179.01 163.16 178.677 163.2 178.437 163.2ZM176.557 159.2L176.597 153.68C175.477 153.573 174.477 153.52 173.597 153.52C171.837 153.52 170.477 153.693 169.517 154.04C168.557 154.387 167.89 154.88 167.517 155.52C167.144 156.133 166.957 156.867 166.957 157.72C166.957 158.973 167.357 159.893 168.157 160.48C168.957 161.04 169.904 161.32 170.997 161.32C171.957 161.32 172.93 161.133 173.917 160.76C174.93 160.387 175.81 159.867 176.557 159.2ZM168.917 139.8C168.33 139.8 167.824 139.6 167.397 139.2C166.997 138.8 166.797 138.32 166.797 137.76C166.797 137.147 166.997 136.64 167.397 136.24C167.824 135.813 168.33 135.6 168.917 135.6C169.53 135.6 170.024 135.813 170.397 136.24C170.797 136.64 170.997 137.147 170.997 137.76C170.997 138.32 170.797 138.8 170.397 139.2C170.024 139.6 169.53 139.8 168.917 139.8ZM175.917 139.8C175.33 139.8 174.824 139.6 174.397 139.2C173.997 138.8 173.797 138.32 173.797 137.76C173.797 137.147 173.997 136.64 174.397 136.24C174.824 135.813 175.33 135.6 175.917 135.6C176.53 135.6 177.024 135.813 177.397 136.24C177.797 136.64 177.997 137.147 177.997 137.76C177.997 138.32 177.797 138.8 177.397 139.2C177.024 139.6 176.53 139.8 175.917 139.8ZM184.682 162.8C184.415 162.8 184.282 162.667 184.282 162.4C184.282 162.293 184.295 162.147 184.322 161.96C184.348 161.747 184.415 161.56 184.522 161.4C185.455 161.293 186.082 161.067 186.402 160.72C186.722 160.373 186.908 159.867 186.962 159.2C186.988 158.853 187.015 158.307 187.042 157.56C187.068 156.813 187.082 155.96 187.082 155C187.108 154.013 187.122 153.04 187.122 152.08C187.122 151.173 187.108 150.36 187.082 149.64C187.082 148.893 187.068 148.347 187.042 148C187.015 147.467 186.908 147.08 186.722 146.84C186.562 146.573 186.255 146.427 185.802 146.4L184.282 146.24C184.095 146.24 184.002 146.133 184.002 145.92C184.002 145.52 184.135 145.16 184.402 144.84C184.828 144.707 185.362 144.6 186.002 144.52C186.642 144.44 187.202 144.4 187.682 144.4C188.775 144.4 189.308 145 189.282 146.2C189.255 146.707 189.242 147.32 189.242 148.04C189.695 146.813 190.348 145.8 191.202 145C192.082 144.2 193.135 143.8 194.362 143.8C194.895 143.8 195.402 143.867 195.882 144C196.362 144.133 196.695 144.307 196.882 144.52C196.962 144.6 197.002 144.72 197.002 144.88C197.002 145.28 196.895 145.707 196.682 146.16C196.495 146.587 196.308 146.867 196.122 147C195.615 146.76 195.095 146.573 194.562 146.44C194.055 146.28 193.575 146.2 193.122 146.2C191.868 146.2 190.908 146.853 190.242 148.16C189.602 149.467 189.255 151.187 189.202 153.32C189.202 153.533 189.202 153.747 189.202 153.96C189.202 154.147 189.202 154.347 189.202 154.56C189.202 155.76 189.202 156.773 189.202 157.6C189.228 158.427 189.255 159.187 189.282 159.88C189.335 160.573 189.628 160.96 190.162 161.04C190.295 161.04 190.535 161.053 190.882 161.08C191.255 161.107 191.628 161.133 192.002 161.16C192.402 161.187 192.668 161.2 192.802 161.2C192.802 161.333 192.788 161.507 192.762 161.72C192.762 161.933 192.735 162.107 192.682 162.24C192.602 162.507 192.508 162.667 192.402 162.72C192.295 162.773 192.215 162.8 192.162 162.8H184.682ZM213.046 163.2C212.513 163.2 212.086 162.973 211.766 162.52C211.446 162.04 211.26 161.44 211.206 160.72C210.246 161.627 209.153 162.307 207.926 162.76C206.7 163.187 205.526 163.4 204.406 163.4C202.94 163.4 201.673 162.947 200.606 162.04C199.54 161.107 199.006 159.8 199.006 158.12C199.006 156.653 199.42 155.493 200.246 154.64C201.073 153.76 202.38 153.107 204.166 152.68C205.98 152.227 208.326 151.92 211.206 151.76V150.88C211.206 150.32 211.18 149.72 211.126 149.08C211.073 148.44 210.9 147.84 210.606 147.28C210.34 146.72 209.886 146.267 209.246 145.92C208.606 145.547 207.713 145.36 206.566 145.36C205.26 145.36 204.286 145.653 203.646 146.24C203.006 146.8 202.633 147.653 202.526 148.8C202.42 148.8 202.3 148.813 202.166 148.84C202.033 148.84 201.9 148.84 201.766 148.84C201.286 148.84 200.833 148.773 200.406 148.64C199.98 148.507 199.766 148.227 199.766 147.8C199.766 147.373 200.006 146.933 200.486 146.48C200.966 146 201.606 145.56 202.406 145.16C203.206 144.76 204.086 144.44 205.046 144.2C206.006 143.933 206.953 143.8 207.886 143.8C208.846 143.8 209.753 143.973 210.606 144.32C211.486 144.64 212.193 145.2 212.726 146C213.26 146.8 213.5 147.907 213.446 149.32C213.42 150.067 213.393 151.013 213.366 152.16C213.366 153.28 213.366 154.4 213.366 155.52C213.366 156.347 213.366 157.12 213.366 157.84C213.393 158.56 213.406 159.173 213.406 159.68C213.433 160.4 213.513 160.827 213.646 160.96C213.806 161.067 214.033 161.107 214.326 161.08C214.353 161.08 214.366 161.08 214.366 161.08L216.366 160.96C216.526 160.96 216.606 161.053 216.606 161.24C216.606 161.373 216.566 161.573 216.486 161.84C216.433 162.107 216.34 162.307 216.206 162.44C216.046 162.52 215.753 162.627 215.326 162.76C214.926 162.867 214.5 162.973 214.046 163.08C213.62 163.16 213.286 163.2 213.046 163.2ZM211.166 159.2L211.206 153.68C210.086 153.573 209.086 153.52 208.206 153.52C206.446 153.52 205.086 153.693 204.126 154.04C203.166 154.387 202.5 154.88 202.126 155.52C201.753 156.133 201.566 156.867 201.566 157.72C201.566 158.973 201.966 159.893 202.766 160.48C203.566 161.04 204.513 161.32 205.606 161.32C206.566 161.32 207.54 161.133 208.526 160.76C209.54 160.387 210.42 159.867 211.166 159.2ZM230.674 162.24C230.674 162.187 230.687 162.107 230.714 162C230.74 161.867 230.807 161.667 230.914 161.4C231.714 161.32 232.314 161.08 232.714 160.68C233.114 160.28 233.327 159.667 233.354 158.84C233.407 157.027 233.434 155.013 233.434 152.8C233.434 150.587 233.42 148.44 233.394 146.36H230.594C230.327 146.36 230.194 146.227 230.194 145.96C230.194 145.853 230.247 145.613 230.354 145.24C230.487 144.84 230.607 144.56 230.714 144.4H233.394V142.8C233.394 139.947 233.967 137.707 235.114 136.08C236.287 134.427 238.1 133.6 240.554 133.6C240.927 133.6 241.34 133.613 241.794 133.64C242.274 133.667 242.714 133.747 243.114 133.88C243.3 133.933 243.394 134.08 243.394 134.32C243.394 134.747 243.287 135.2 243.074 135.68C242.887 136.16 242.66 136.48 242.394 136.64C241.7 136.4 241.114 136.24 240.634 136.16C240.18 136.08 239.767 136.04 239.394 136.04C237.847 136.04 236.807 136.533 236.274 137.52C235.74 138.507 235.474 139.987 235.474 141.96C235.474 142.707 235.5 143.52 235.554 144.4H238.994C239.607 144.4 240.234 144.387 240.874 144.36C241.514 144.333 242.02 144.293 242.394 144.24C242.34 144.613 242.274 144.973 242.194 145.32C242.14 145.64 242.087 145.84 242.034 145.92C241.9 146.213 241.594 146.36 241.114 146.36H235.594C235.594 147.347 235.58 148.267 235.554 149.12C235.554 149.973 235.554 150.773 235.554 151.52C235.554 153.28 235.567 154.813 235.594 156.12C235.62 157.4 235.66 158.693 235.714 160C235.74 160.427 235.847 160.72 236.034 160.88C236.22 161.04 236.487 161.133 236.834 161.16C236.994 161.16 237.234 161.173 237.554 161.2C237.9 161.2 238.22 161.2 238.514 161.2C238.834 161.2 239.007 161.2 239.034 161.2C239.034 161.333 239.02 161.507 238.994 161.72C238.994 161.933 238.967 162.107 238.914 162.24C238.834 162.507 238.74 162.667 238.634 162.72C238.527 162.773 238.447 162.8 238.394 162.8H231.074C230.967 162.8 230.874 162.773 230.794 162.72C230.714 162.667 230.674 162.507 230.674 162.24ZM258.828 163.2C258.294 163.2 257.868 162.973 257.548 162.52C257.228 162.04 257.041 161.44 256.988 160.72C256.028 161.627 254.934 162.307 253.708 162.76C252.481 163.187 251.308 163.4 250.188 163.4C248.721 163.4 247.454 162.947 246.388 162.04C245.321 161.107 244.788 159.8 244.788 158.12C244.788 156.653 245.201 155.493 246.028 154.64C246.854 153.76 248.161 153.107 249.948 152.68C251.761 152.227 254.108 151.92 256.988 151.76V150.88C256.988 150.32 256.961 149.72 256.908 149.08C256.854 148.44 256.681 147.84 256.388 147.28C256.121 146.72 255.668 146.267 255.028 145.92C254.388 145.547 253.494 145.36 252.348 145.36C251.041 145.36 250.068 145.653 249.428 146.24C248.788 146.8 248.414 147.653 248.308 148.8C248.201 148.8 248.081 148.813 247.948 148.84C247.814 148.84 247.681 148.84 247.548 148.84C247.068 148.84 246.614 148.773 246.188 148.64C245.761 148.507 245.548 148.227 245.548 147.8C245.548 147.373 245.788 146.933 246.268 146.48C246.748 146 247.388 145.56 248.188 145.16C248.988 144.76 249.868 144.44 250.828 144.2C251.788 143.933 252.734 143.8 253.668 143.8C254.628 143.8 255.534 143.973 256.388 144.32C257.268 144.64 257.974 145.2 258.508 146C259.041 146.8 259.281 147.907 259.228 149.32C259.201 150.067 259.174 151.013 259.148 152.16C259.148 153.28 259.148 154.4 259.148 155.52C259.148 156.347 259.148 157.12 259.148 157.84C259.174 158.56 259.188 159.173 259.188 159.68C259.214 160.4 259.294 160.827 259.428 160.96C259.588 161.067 259.814 161.107 260.108 161.08C260.134 161.08 260.148 161.08 260.148 161.08L262.148 160.96C262.308 160.96 262.388 161.053 262.388 161.24C262.388 161.373 262.348 161.573 262.268 161.84C262.214 162.107 262.121 162.307 261.988 162.44C261.828 162.52 261.534 162.627 261.108 162.76C260.708 162.867 260.281 162.973 259.828 163.08C259.401 163.16 259.068 163.2 258.828 163.2ZM256.948 159.2L256.988 153.68C255.868 153.573 254.868 153.52 253.988 153.52C252.228 153.52 250.868 153.693 249.908 154.04C248.948 154.387 248.281 154.88 247.908 155.52C247.534 156.133 247.348 156.867 247.348 157.72C247.348 158.973 247.748 159.893 248.548 160.48C249.348 161.04 250.294 161.32 251.388 161.32C252.348 161.32 253.321 161.133 254.308 160.76C255.321 160.387 256.201 159.867 256.948 159.2ZM249.308 139.8C248.721 139.8 248.214 139.6 247.788 139.2C247.388 138.8 247.188 138.32 247.188 137.76C247.188 137.147 247.388 136.64 247.788 136.24C248.214 135.813 248.721 135.6 249.308 135.6C249.921 135.6 250.414 135.813 250.788 136.24C251.188 136.64 251.388 137.147 251.388 137.76C251.388 138.32 251.188 138.8 250.788 139.2C250.414 139.6 249.921 139.8 249.308 139.8ZM256.308 139.8C255.721 139.8 255.214 139.6 254.788 139.2C254.388 138.8 254.188 138.32 254.188 137.76C254.188 137.147 254.388 136.64 254.788 136.24C255.214 135.813 255.721 135.6 256.308 135.6C256.921 135.6 257.414 135.813 257.788 136.24C258.188 136.64 258.388 137.147 258.388 137.76C258.388 138.32 258.188 138.8 257.788 139.2C257.414 139.6 256.921 139.8 256.308 139.8ZM265.072 162.8C264.806 162.8 264.672 162.667 264.672 162.4C264.672 162.293 264.686 162.147 264.712 161.96C264.739 161.747 264.806 161.56 264.912 161.4C265.846 161.293 266.472 161.067 266.792 160.72C267.112 160.373 267.299 159.867 267.352 159.2C267.379 158.853 267.406 158.307 267.432 157.56C267.459 156.813 267.472 155.96 267.472 155C267.499 154.013 267.512 153.04 267.512 152.08C267.512 151.173 267.499 150.36 267.472 149.64C267.472 148.893 267.459 148.347 267.432 148C267.406 147.467 267.299 147.08 267.112 146.84C266.952 146.573 266.646 146.427 266.192 146.4L264.672 146.24C264.486 146.24 264.392 146.133 264.392 145.92C264.392 145.52 264.526 145.16 264.792 144.84C265.219 144.707 265.752 144.6 266.392 144.52C267.032 144.44 267.592 144.4 268.072 144.4C269.166 144.4 269.699 145 269.672 146.2C269.646 146.707 269.632 147.32 269.632 148.04C270.086 146.813 270.739 145.8 271.592 145C272.472 144.2 273.526 143.8 274.752 143.8C275.286 143.8 275.792 143.867 276.272 144C276.752 144.133 277.086 144.307 277.272 144.52C277.352 144.6 277.392 144.72 277.392 144.88C277.392 145.28 277.286 145.707 277.072 146.16C276.886 146.587 276.699 146.867 276.512 147C276.006 146.76 275.486 146.573 274.952 146.44C274.446 146.28 273.966 146.2 273.512 146.2C272.259 146.2 271.299 146.853 270.632 148.16C269.992 149.467 269.646 151.187 269.592 153.32C269.592 153.533 269.592 153.747 269.592 153.96C269.592 154.147 269.592 154.347 269.592 154.56C269.592 155.76 269.592 156.773 269.592 157.6C269.619 158.427 269.646 159.187 269.672 159.88C269.726 160.573 270.019 160.96 270.552 161.04C270.686 161.04 270.926 161.053 271.272 161.08C271.646 161.107 272.019 161.133 272.392 161.16C272.792 161.187 273.059 161.2 273.192 161.2C273.192 161.333 273.179 161.507 273.152 161.72C273.152 161.933 273.126 162.107 273.072 162.24C272.992 162.507 272.899 162.667 272.792 162.72C272.686 162.773 272.606 162.8 272.552 162.8H265.072ZM281.757 162.84C281.57 163.16 281.45 163.493 281.397 163.84C281.344 164.187 281.317 164.48 281.317 164.72C281.317 165.52 281.597 166.2 282.157 166.76C282.717 167.32 283.45 167.733 284.357 168C285.264 168.293 286.237 168.453 287.277 168.48C288.344 168.48 289.357 168.347 290.317 168.08C291.304 167.84 292.104 167.427 292.717 166.84C293.357 166.28 293.69 165.56 293.717 164.68C293.744 163.827 293.41 163.08 292.717 162.44C292.05 161.773 290.944 161.467 289.397 161.52L285.597 161.64C284.797 161.667 284.024 161.573 283.277 161.36C282.557 161.12 281.97 160.773 281.517 160.32C281.09 159.84 280.89 159.253 280.917 158.56C280.944 158.027 281.09 157.48 281.357 156.92C281.65 156.36 282.104 155.827 282.717 155.32C281.784 154.787 281.064 154.067 280.557 153.16C280.05 152.227 279.797 151.2 279.797 150.08C279.824 148.88 280.144 147.813 280.757 146.88C281.37 145.92 282.224 145.173 283.317 144.64C284.41 144.08 285.677 143.8 287.117 143.8C288.29 143.8 289.37 144.04 290.357 144.52L292.997 144.4C293.61 144.373 294.237 144.32 294.877 144.24C295.517 144.133 296.024 144.027 296.397 143.92C296.397 144.293 296.357 144.667 296.277 145.04C296.224 145.413 296.17 145.64 296.117 145.72C296.01 145.96 295.864 146.107 295.677 146.16C295.517 146.213 295.33 146.24 295.117 146.24C294.664 146.24 294.197 146.213 293.717 146.16C293.264 146.107 292.81 146.04 292.357 145.96C292.837 146.467 293.21 147.053 293.477 147.72C293.77 148.387 293.917 149.107 293.917 149.88C293.917 151.133 293.584 152.253 292.917 153.24C292.277 154.2 291.41 154.96 290.317 155.52C289.224 156.053 287.997 156.32 286.637 156.32C285.677 156.32 284.77 156.173 283.917 155.88C283.677 156.173 283.504 156.493 283.397 156.84C283.29 157.187 283.224 157.547 283.197 157.92C283.17 158.373 283.344 158.773 283.717 159.12C284.117 159.467 284.77 159.627 285.677 159.6L289.757 159.44C291.277 159.387 292.49 159.573 293.397 160C294.33 160.427 294.997 160.987 295.397 161.68C295.824 162.373 296.024 163.107 295.997 163.88C295.97 165.16 295.544 166.293 294.717 167.28C293.89 168.267 292.77 169.04 291.357 169.6C289.944 170.16 288.344 170.427 286.557 170.4C284.37 170.347 282.597 169.893 281.237 169.04C279.877 168.213 279.197 167.013 279.197 165.44C279.197 165.013 279.277 164.56 279.437 164.08C279.597 163.6 279.85 163.187 280.197 162.84C280.544 162.493 280.904 162.413 281.277 162.6L281.757 162.84ZM287.317 154.6C288.41 154.6 289.37 154.24 290.197 153.52C291.05 152.8 291.477 151.733 291.477 150.32C291.477 149.493 291.277 148.72 290.877 148C290.504 147.253 289.944 146.64 289.197 146.16C288.477 145.68 287.57 145.44 286.477 145.44C285.064 145.44 283.997 145.853 283.277 146.68C282.584 147.507 282.237 148.52 282.237 149.72C282.237 151.187 282.717 152.373 283.677 153.28C284.637 154.16 285.85 154.6 287.317 154.6ZM301.797 153.44C301.93 156.08 302.664 158.067 303.997 159.4C305.33 160.707 306.984 161.36 308.957 161.36C310.85 161.36 312.69 160.747 314.477 159.52C314.53 159.573 314.624 159.747 314.757 160.04C314.917 160.333 314.997 160.587 314.997 160.8C314.997 160.987 314.944 161.133 314.837 161.24C314.73 161.347 314.637 161.427 314.557 161.48C313.677 162.12 312.677 162.6 311.557 162.92C310.464 163.24 309.344 163.4 308.197 163.4C305.504 163.4 303.37 162.573 301.797 160.92C300.25 159.24 299.45 156.973 299.397 154.12C299.37 151.96 299.744 150.107 300.517 148.56C301.317 147.013 302.384 145.827 303.717 145C305.05 144.173 306.544 143.773 308.197 143.8C309.824 143.8 311.13 144.147 312.117 144.84C313.104 145.533 313.824 146.413 314.277 147.48C314.73 148.547 314.97 149.693 314.997 150.92C315.024 151.64 314.917 152.147 314.677 152.44C314.437 152.733 314.01 152.907 313.397 152.96L301.797 153.44ZM307.717 145.56C306.09 145.56 304.744 146.12 303.677 147.24C302.637 148.36 302.024 149.827 301.837 151.64L312.557 151.04C312.69 149.28 312.33 147.933 311.477 147C310.624 146.04 309.37 145.56 307.717 145.56ZM318.861 162.8C318.595 162.8 318.461 162.667 318.461 162.4C318.461 162.293 318.475 162.147 318.501 161.96C318.528 161.747 318.595 161.56 318.701 161.4C319.635 161.293 320.261 161.067 320.581 160.72C320.901 160.373 321.088 159.867 321.141 159.2C321.168 158.853 321.195 158.307 321.221 157.56C321.248 156.813 321.261 155.96 321.261 155C321.288 154.013 321.301 153.04 321.301 152.08C321.301 151.173 321.288 150.36 321.261 149.64C321.261 148.893 321.248 148.347 321.221 148C321.195 147.467 321.088 147.08 320.901 146.84C320.741 146.573 320.435 146.427 319.981 146.4L318.461 146.24C318.275 146.24 318.181 146.133 318.181 145.92C318.181 145.52 318.315 145.16 318.581 144.84C319.008 144.707 319.541 144.6 320.181 144.52C320.821 144.44 321.381 144.4 321.861 144.4C322.955 144.4 323.488 145 323.461 146.2C323.435 146.707 323.421 147.32 323.421 148.04C323.875 146.813 324.528 145.8 325.381 145C326.261 144.2 327.315 143.8 328.541 143.8C329.075 143.8 329.581 143.867 330.061 144C330.541 144.133 330.875 144.307 331.061 144.52C331.141 144.6 331.181 144.72 331.181 144.88C331.181 145.28 331.075 145.707 330.861 146.16C330.675 146.587 330.488 146.867 330.301 147C329.795 146.76 329.275 146.573 328.741 146.44C328.235 146.28 327.755 146.2 327.301 146.2C326.048 146.2 325.088 146.853 324.421 148.16C323.781 149.467 323.435 151.187 323.381 153.32C323.381 153.533 323.381 153.747 323.381 153.96C323.381 154.147 323.381 154.347 323.381 154.56C323.381 155.76 323.381 156.773 323.381 157.6C323.408 158.427 323.435 159.187 323.461 159.88C323.515 160.573 323.808 160.96 324.341 161.04C324.475 161.04 324.715 161.053 325.061 161.08C325.435 161.107 325.808 161.133 326.181 161.16C326.581 161.187 326.848 161.2 326.981 161.2C326.981 161.333 326.968 161.507 326.941 161.72C326.941 161.933 326.915 162.107 326.861 162.24C326.781 162.507 326.688 162.667 326.581 162.72C326.475 162.773 326.395 162.8 326.341 162.8H318.861Z" fill="#121212" style="fill:#121212;fill:color(display-p3 0.0706 0.0706 0.0706);fill-opacity:1;"/>
<g clip-path="url(#clip0_96_2627)">
<rect width="377.278" height="601" transform="translate(81 208)" fill="#00421E" style="fill:#00421E;fill:color(display-p3 0.0000 0.2588 0.1176);fill-opacity:1;"/>
<mask id="path-3-inside-1_96_2627" fill="white">
<path d="M458.277 208H836.395V809H458.277V208Z"/>
</mask>
<path d="M458.277 208H836.395V809H458.277V208Z" fill="#FAFAF5" style="fill:#FAFAF5;fill:color(display-p3 0.9804 0.9804 0.9608);fill-opacity:1;"/>
<path d="M458.277 208.84H836.395V207.16H458.277V208.84ZM836.395 808.16H458.277V809.84H836.395V808.16Z" fill="#BEB8A3" style="fill:#BEB8A3;fill:color(display-p3 0.7453 0.7224 0.6409);fill-opacity:1;" mask="url(#path-3-inside-1_96_2627)"/>
<rect width="234.151" height="601" transform="translate(836.396 208)" fill="#B0C6A7" style="fill:#B0C6A7;fill:color(display-p3 0.6902 0.7765 0.6549);fill-opacity:1;"/>
<rect width="234.151" height="601" transform="translate(1070.55 208)" fill="#F6F3E4" style="fill:#F6F3E4;fill:color(display-p3 0.9647 0.9529 0.8941);fill-opacity:1;"/>
<mask id="path-5-inside-2_96_2627" fill="white">
<path d="M1304.7 208H1538.85V809H1304.7V208Z"/>
</mask>
<path d="M1304.7 208H1538.85V809H1304.7V208Z" fill="white" style="fill:white;fill-opacity:1;"/>
<path d="M1304.7 208.84H1538.85V207.16H1304.7V208.84ZM1538.85 808.16H1304.7V809.84H1538.85V808.16Z" fill="#BEB8A3" style="fill:#BEB8A3;fill:color(display-p3 0.7453 0.7224 0.6409);fill-opacity:1;" mask="url(#path-5-inside-2_96_2627)"/>
<rect width="234.151" height="601" transform="translate(1538.85 208)" fill="#121212" style="fill:#121212;fill:color(display-p3 0.0706 0.0706 0.0706);fill-opacity:1;"/>
</g>
<path d="M81.4 971.8C81.1333 971.8 81 971.667 81 971.4C81 971.293 81.0133 971.147 81.04 970.96C81.0667 970.747 81.1333 970.56 81.24 970.4C82.0933 970.293 82.7333 970.027 83.16 969.6C83.5867 969.173 84 968.493 84.4 967.56L94.28 943.88C94.4133 943.56 94.6533 943.4 95 943.4H95.36L104.8 967.56C105.173 968.547 105.493 969.213 105.76 969.56C106.027 969.907 106.413 970.107 106.92 970.16C107.107 970.187 107.333 970.2 107.6 970.2C107.867 970.2 108.133 970.2 108.4 970.2C108.4 970.333 108.387 970.507 108.36 970.72C108.36 970.933 108.333 971.107 108.28 971.24C108.2 971.507 108.107 971.667 108 971.72C107.893 971.773 107.813 971.8 107.76 971.8H100.6C100.333 971.8 100.2 971.667 100.2 971.4C100.2 971.293 100.213 971.147 100.24 970.96C100.267 970.747 100.333 970.56 100.44 970.4C101.08 970.32 101.573 970.173 101.92 969.96C102.267 969.747 102.44 969.4 102.44 968.92C102.44 968.6 102.333 968.147 102.12 967.56L100.24 962.64H88.28L86.24 967.56C85.9467 968.307 85.8 968.853 85.8 969.2C85.8 969.52 85.88 969.747 86.04 969.88C86.2267 970.013 86.4667 970.107 86.76 970.16C86.9467 970.187 87.2 970.2 87.52 970.2C87.8667 970.2 88.1733 970.2 88.44 970.2C88.44 970.333 88.4267 970.507 88.4 970.72C88.4 970.933 88.3733 971.107 88.32 971.24C88.24 971.507 88.1467 971.667 88.04 971.72C87.9333 971.773 87.8533 971.8 87.8 971.8H81.4ZM89 960.84H99.56L94.68 948.04C94.5467 947.72 94.4133 947.72 94.28 948.04L89 960.84ZM109.788 963.12C109.788 961.013 110.228 959.187 111.108 957.64C112.014 956.093 113.201 954.907 114.668 954.08C116.134 953.227 117.694 952.8 119.348 952.8C120.654 952.8 121.681 952.973 122.428 953.32C123.174 953.667 123.708 954.067 124.028 954.52C124.374 954.947 124.548 955.28 124.548 955.52C124.548 955.813 124.334 956.147 123.908 956.52C123.481 956.867 123.028 957.147 122.548 957.36C122.468 957.12 122.281 956.8 121.988 956.4C121.694 955.973 121.254 955.587 120.668 955.24C120.081 954.893 119.281 954.72 118.268 954.72C117.201 954.72 116.201 955 115.268 955.56C114.361 956.093 113.628 956.907 113.068 958C112.508 959.093 112.214 960.467 112.188 962.12C112.188 963.8 112.508 965.253 113.148 966.48C113.788 967.707 114.654 968.667 115.748 969.36C116.841 970.027 118.028 970.36 119.308 970.36C120.214 970.36 121.121 970.187 122.028 969.84C122.934 969.467 123.828 968.907 124.708 968.16C124.841 968.32 124.988 968.52 125.148 968.76C125.308 969 125.388 969.2 125.388 969.36C125.388 969.467 125.348 969.6 125.268 969.76C125.214 969.893 125.081 970.027 124.868 970.16C122.708 971.653 120.574 972.4 118.467 972.4C116.841 972.4 115.374 972 114.067 971.2C112.761 970.4 111.721 969.307 110.948 967.92C110.201 966.507 109.814 964.907 109.788 963.12ZM128.381 963.12C128.381 961.013 128.821 959.187 129.701 957.64C130.608 956.093 131.795 954.907 133.261 954.08C134.728 953.227 136.288 952.8 137.941 952.8C139.248 952.8 140.275 952.973 141.021 953.32C141.768 953.667 142.301 954.067 142.621 954.52C142.968 954.947 143.141 955.28 143.141 955.52C143.141 955.813 142.928 956.147 142.501 956.52C142.075 956.867 141.621 957.147 141.141 957.36C141.061 957.12 140.875 956.8 140.581 956.4C140.288 955.973 139.848 955.587 139.261 955.24C138.675 954.893 137.875 954.72 136.861 954.72C135.795 954.72 134.795 955 133.861 955.56C132.955 956.093 132.221 956.907 131.661 958C131.101 959.093 130.808 960.467 130.781 962.12C130.781 963.8 131.101 965.253 131.741 966.48C132.381 967.707 133.248 968.667 134.341 969.36C135.435 970.027 136.621 970.36 137.901 970.36C138.808 970.36 139.715 970.187 140.621 969.84C141.528 969.467 142.421 968.907 143.301 968.16C143.435 968.32 143.581 968.52 143.741 968.76C143.901 969 143.981 969.2 143.981 969.36C143.981 969.467 143.941 969.6 143.861 969.76C143.808 969.893 143.675 970.027 143.461 970.16C141.301 971.653 139.168 972.4 137.061 972.4C135.435 972.4 133.968 972 132.661 971.2C131.355 970.4 130.315 969.307 129.541 967.92C128.795 966.507 128.408 964.907 128.381 963.12ZM149.375 962.44C149.508 965.08 150.242 967.067 151.575 968.4C152.908 969.707 154.562 970.36 156.535 970.36C158.428 970.36 160.268 969.747 162.055 968.52C162.108 968.573 162.202 968.747 162.335 969.04C162.495 969.333 162.575 969.587 162.575 969.8C162.575 969.987 162.522 970.133 162.415 970.24C162.308 970.347 162.215 970.427 162.135 970.48C161.255 971.12 160.255 971.6 159.135 971.92C158.042 972.24 156.922 972.4 155.775 972.4C153.082 972.4 150.948 971.573 149.375 969.92C147.828 968.24 147.028 965.973 146.975 963.12C146.948 960.96 147.322 959.107 148.095 957.56C148.895 956.013 149.962 954.827 151.295 954C152.628 953.173 154.122 952.773 155.775 952.8C157.402 952.8 158.708 953.147 159.695 953.84C160.682 954.533 161.402 955.413 161.855 956.48C162.308 957.547 162.548 958.693 162.575 959.92C162.602 960.64 162.495 961.147 162.255 961.44C162.015 961.733 161.588 961.907 160.975 961.96L149.375 962.44ZM155.295 954.56C153.668 954.56 152.322 955.12 151.255 956.24C150.215 957.36 149.602 958.827 149.415 960.64L160.135 960.04C160.268 958.28 159.908 956.933 159.055 956C158.202 955.04 156.948 954.56 155.295 954.56ZM166.439 971.8C166.173 971.8 166.039 971.667 166.039 971.4C166.039 971.293 166.053 971.147 166.079 970.96C166.106 970.747 166.173 970.56 166.279 970.4C167.213 970.293 167.826 970.067 168.119 969.72C168.439 969.373 168.626 968.867 168.679 968.2C168.706 967.853 168.733 967.307 168.759 966.56C168.786 965.813 168.799 964.96 168.799 964C168.826 963.013 168.839 962.04 168.839 961.08C168.839 960.173 168.826 959.36 168.799 958.64C168.799 957.893 168.786 957.347 168.759 957C168.733 956.467 168.626 956.08 168.439 955.84C168.279 955.6 167.973 955.453 167.519 955.4L166.039 955.24C165.853 955.24 165.759 955.133 165.759 954.92C165.759 954.52 165.893 954.16 166.159 953.84C166.586 953.707 167.119 953.6 167.759 953.52C168.399 953.44 168.959 953.4 169.439 953.4C170.026 953.4 170.439 953.547 170.679 953.84C170.919 954.107 171.039 954.56 171.039 955.2C171.039 955.467 171.039 955.76 171.039 956.08C171.813 955.093 172.773 954.307 173.919 953.72C175.066 953.107 176.266 952.8 177.519 952.8C179.226 952.8 180.586 953.307 181.599 954.32C182.639 955.333 183.159 956.92 183.159 959.08V963.92C183.159 965.093 183.159 966.093 183.159 966.92C183.186 967.72 183.213 968.44 183.239 969.08C183.266 969.453 183.346 969.707 183.479 969.84C183.613 969.947 183.759 970.027 183.919 970.08C184.106 970.107 184.399 970.133 184.799 970.16C185.226 970.187 185.613 970.2 185.959 970.2C185.959 970.333 185.946 970.533 185.919 970.8C185.893 971.067 185.853 971.267 185.799 971.4C185.719 971.667 185.573 971.8 185.359 971.8H178.519C178.253 971.8 178.119 971.667 178.119 971.4C178.119 971.293 178.133 971.147 178.159 970.96C178.186 970.747 178.253 970.56 178.359 970.4C179.266 970.293 179.893 970.067 180.239 969.72C180.586 969.373 180.799 968.867 180.879 968.2C180.933 967.88 180.959 967.253 180.959 966.32C180.986 965.387 180.999 964.373 180.999 963.28C180.999 962.453 180.986 961.68 180.959 960.96C180.959 960.24 180.946 959.693 180.919 959.32C180.839 957.827 180.413 956.72 179.639 956C178.866 955.28 177.893 954.907 176.719 954.88C175.439 954.853 174.253 955.267 173.159 956.12C172.093 956.973 171.373 958.053 170.999 959.36C170.973 960.053 170.959 960.76 170.959 961.48C170.959 962.2 170.959 962.893 170.959 963.56C170.959 964.76 170.959 965.813 170.959 966.72C170.986 967.627 171.013 968.427 171.039 969.12C171.066 969.68 171.293 970 171.719 970.08C171.906 970.107 172.239 970.133 172.719 970.16C173.199 970.187 173.546 970.2 173.759 970.2C173.759 970.333 173.746 970.507 173.719 970.72C173.719 970.933 173.693 971.107 173.639 971.24C173.559 971.507 173.466 971.667 173.359 971.72C173.253 971.773 173.173 971.8 173.119 971.8H166.439ZM195.852 972.4C194.412 972.4 193.252 971.933 192.372 971C191.492 970.04 191.065 968.627 191.092 966.76L191.172 955.36H188.172C187.905 955.36 187.772 955.227 187.772 954.96C187.772 954.853 187.825 954.613 187.932 954.24C188.065 953.84 188.185 953.56 188.292 953.4H191.172V950.04C191.172 949.667 191.332 949.427 191.652 949.32C191.919 949.213 192.279 949.107 192.732 949C193.212 948.893 193.625 948.827 193.972 948.8C193.919 949.12 193.852 949.693 193.772 950.52C193.719 951.32 193.665 952.28 193.612 953.4H196.892C198.172 953.4 199.239 953.333 200.092 953.2C200.039 953.573 199.972 953.933 199.892 954.28C199.839 954.627 199.785 954.84 199.732 954.92C199.599 955.213 199.292 955.36 198.812 955.36H193.532C193.505 956.507 193.479 957.72 193.452 959C193.425 960.253 193.412 961.507 193.412 962.76C193.412 963.4 193.412 964.027 193.412 964.64C193.412 965.253 193.425 965.853 193.452 966.44C193.505 967.747 193.839 968.693 194.452 969.28C195.065 969.867 195.892 970.16 196.932 970.16C198.132 970.16 199.412 969.747 200.772 968.92C200.852 969 200.932 969.2 201.012 969.52C201.119 969.813 201.172 970.053 201.172 970.24C201.172 970.507 201.012 970.733 200.692 970.92C200.025 971.347 199.265 971.707 198.412 972C197.559 972.267 196.705 972.4 195.852 972.4ZM202.666 971.24C202.666 971.187 202.679 971.107 202.706 971C202.733 970.867 202.799 970.667 202.906 970.4C203.706 970.32 204.306 970.08 204.706 969.68C205.106 969.28 205.319 968.667 205.346 967.84C205.399 966.027 205.426 964.013 205.426 961.8C205.426 959.587 205.413 957.44 205.386 955.36H202.586C202.319 955.36 202.186 955.227 202.186 954.96C202.186 954.853 202.239 954.613 202.346 954.24C202.479 953.84 202.599 953.56 202.706 953.4H205.386V951.8C205.386 948.947 205.959 946.707 207.106 945.08C208.279 943.427 210.093 942.6 212.546 942.6C212.919 942.6 213.333 942.613 213.786 942.64C214.266 942.667 214.706 942.747 215.106 942.88C215.293 942.933 215.386 943.08 215.386 943.32C215.386 943.747 215.279 944.2 215.066 944.68C214.879 945.16 214.653 945.48 214.386 945.64C213.693 945.4 213.106 945.24 212.626 945.16C212.173 945.08 211.759 945.04 211.386 945.04C209.839 945.04 208.799 945.533 208.266 946.52C207.733 947.507 207.466 948.987 207.466 950.96C207.466 951.707 207.493 952.52 207.546 953.4H210.986C211.599 953.4 212.226 953.387 212.866 953.36C213.506 953.333 214.013 953.293 214.386 953.24C214.333 953.613 214.266 953.973 214.186 954.32C214.133 954.64 214.079 954.84 214.026 954.92C213.893 955.213 213.586 955.36 213.106 955.36H207.586C207.586 956.347 207.573 957.267 207.546 958.12C207.546 958.973 207.546 959.773 207.546 960.52C207.546 962.28 207.559 963.813 207.586 965.12C207.613 966.4 207.653 967.693 207.706 969C207.733 969.427 207.839 969.72 208.026 969.88C208.213 970.04 208.479 970.133 208.826 970.16C208.986 970.16 209.226 970.173 209.546 970.2C209.893 970.2 210.213 970.2 210.506 970.2C210.826 970.2 210.999 970.2 211.026 970.2C211.026 970.333 211.013 970.507 210.986 970.72C210.986 970.933 210.959 971.107 210.906 971.24C210.826 971.507 210.733 971.667 210.626 971.72C210.519 971.773 210.439 971.8 210.386 971.8H203.066C202.959 971.8 202.866 971.773 202.786 971.72C202.706 971.667 202.666 971.507 202.666 971.24ZM230.82 972.2C230.286 972.2 229.86 971.973 229.54 971.52C229.22 971.04 229.033 970.44 228.98 969.72C228.02 970.627 226.926 971.307 225.7 971.76C224.473 972.187 223.3 972.4 222.18 972.4C220.713 972.4 219.446 971.947 218.38 971.04C217.313 970.107 216.78 968.8 216.78 967.12C216.78 965.653 217.193 964.493 218.02 963.64C218.846 962.76 220.153 962.107 221.94 961.68C223.753 961.227 226.1 960.92 228.98 960.76V959.88C228.98 959.32 228.953 958.72 228.9 958.08C228.846 957.44 228.673 956.84 228.38 956.28C228.113 955.72 227.66 955.267 227.02 954.92C226.38 954.547 225.486 954.36 224.34 954.36C223.033 954.36 222.06 954.653 221.42 955.24C220.78 955.8 220.406 956.653 220.3 957.8C220.193 957.8 220.073 957.813 219.94 957.84C219.806 957.84 219.673 957.84 219.54 957.84C219.06 957.84 218.606 957.773 218.18 957.64C217.753 957.507 217.54 957.227 217.54 956.8C217.54 956.373 217.78 955.933 218.26 955.48C218.74 955 219.38 954.56 220.18 954.16C220.98 953.76 221.86 953.44 222.82 953.2C223.78 952.933 224.726 952.8 225.66 952.8C226.62 952.8 227.526 952.973 228.38 953.32C229.26 953.64 229.966 954.2 230.5 955C231.033 955.8 231.273 956.907 231.22 958.32C231.193 959.067 231.166 960.013 231.14 961.16C231.14 962.28 231.14 963.4 231.14 964.52C231.14 965.347 231.14 966.12 231.14 966.84C231.166 967.56 231.18 968.173 231.18 968.68C231.206 969.4 231.286 969.827 231.42 969.96C231.58 970.067 231.806 970.107 232.1 970.08C232.126 970.08 232.14 970.08 232.14 970.08L234.14 969.96C234.3 969.96 234.38 970.053 234.38 970.24C234.38 970.373 234.34 970.573 234.26 970.84C234.206 971.107 234.113 971.307 233.98 971.44C233.82 971.52 233.526 971.627 233.1 971.76C232.7 971.867 232.273 971.973 231.82 972.08C231.393 972.16 231.06 972.2 230.82 972.2ZM228.94 968.2L228.98 962.68C227.86 962.573 226.86 962.52 225.98 962.52C224.22 962.52 222.86 962.693 221.9 963.04C220.94 963.387 220.273 963.88 219.9 964.52C219.526 965.133 219.34 965.867 219.34 966.72C219.34 967.973 219.74 968.893 220.54 969.48C221.34 970.04 222.286 970.32 223.38 970.32C224.34 970.32 225.313 970.133 226.3 969.76C227.313 969.387 228.193 968.867 228.94 968.2ZM221.3 948.8C220.713 948.8 220.206 948.6 219.78 948.2C219.38 947.8 219.18 947.32 219.18 946.76C219.18 946.147 219.38 945.64 219.78 945.24C220.206 944.813 220.713 944.6 221.3 944.6C221.913 944.6 222.406 944.813 222.78 945.24C223.18 945.64 223.38 946.147 223.38 946.76C223.38 947.32 223.18 947.8 222.78 948.2C222.406 948.6 221.913 948.8 221.3 948.8ZM228.3 948.8C227.713 948.8 227.206 948.6 226.78 948.2C226.38 947.8 226.18 947.32 226.18 946.76C226.18 946.147 226.38 945.64 226.78 945.24C227.206 944.813 227.713 944.6 228.3 944.6C228.913 944.6 229.406 944.813 229.78 945.24C230.18 945.64 230.38 946.147 230.38 946.76C230.38 947.32 230.18 947.8 229.78 948.2C229.406 948.6 228.913 948.8 228.3 948.8ZM237.064 971.8C236.798 971.8 236.664 971.667 236.664 971.4C236.664 971.293 236.678 971.147 236.704 970.96C236.731 970.747 236.798 970.56 236.904 970.4C237.838 970.293 238.464 970.067 238.784 969.72C239.104 969.373 239.291 968.867 239.344 968.2C239.371 967.853 239.398 967.307 239.424 966.56C239.451 965.813 239.464 964.96 239.464 964C239.491 963.013 239.504 962.04 239.504 961.08C239.504 960.173 239.491 959.36 239.464 958.64C239.464 957.893 239.451 957.347 239.424 957C239.398 956.467 239.291 956.08 239.104 955.84C238.944 955.573 238.638 955.427 238.184 955.4L236.664 955.24C236.478 955.24 236.384 955.133 236.384 954.92C236.384 954.52 236.518 954.16 236.784 953.84C237.211 953.707 237.744 953.6 238.384 953.52C239.024 953.44 239.584 953.4 240.064 953.4C241.158 953.4 241.691 954 241.664 955.2C241.638 955.707 241.624 956.32 241.624 957.04C242.078 955.813 242.731 954.8 243.584 954C244.464 953.2 245.518 952.8 246.744 952.8C247.278 952.8 247.784 952.867 248.264 953C248.744 953.133 249.078 953.307 249.264 953.52C249.344 953.6 249.384 953.72 249.384 953.88C249.384 954.28 249.278 954.707 249.064 955.16C248.878 955.587 248.691 955.867 248.504 956C247.998 955.76 247.478 955.573 246.944 955.44C246.438 955.28 245.958 955.2 245.504 955.2C244.251 955.2 243.291 955.853 242.624 957.16C241.984 958.467 241.638 960.187 241.584 962.32C241.584 962.533 241.584 962.747 241.584 962.96C241.584 963.147 241.584 963.347 241.584 963.56C241.584 964.76 241.584 965.773 241.584 966.6C241.611 967.427 241.638 968.187 241.664 968.88C241.718 969.573 242.011 969.96 242.544 970.04C242.678 970.04 242.918 970.053 243.264 970.08C243.638 970.107 244.011 970.133 244.384 970.16C244.784 970.187 245.051 970.2 245.184 970.2C245.184 970.333 245.171 970.507 245.144 970.72C245.144 970.933 245.118 971.107 245.064 971.24C244.984 971.507 244.891 971.667 244.784 971.72C244.678 971.773 244.598 971.8 244.544 971.8H237.064ZM253.749 971.84C253.562 972.16 253.442 972.493 253.389 972.84C253.336 973.187 253.309 973.48 253.309 973.72C253.309 974.52 253.589 975.2 254.149 975.76C254.709 976.32 255.442 976.733 256.349 977C257.256 977.293 258.229 977.453 259.269 977.48C260.336 977.48 261.349 977.347 262.309 977.08C263.296 976.84 264.096 976.427 264.709 975.84C265.349 975.28 265.682 974.56 265.709 973.68C265.736 972.827 265.402 972.08 264.709 971.44C264.042 970.773 262.936 970.467 261.389 970.52L257.589 970.64C256.789 970.667 256.016 970.573 255.269 970.36C254.549 970.12 253.962 969.773 253.509 969.32C253.082 968.84 252.882 968.253 252.909 967.56C252.936 967.027 253.082 966.48 253.349 965.92C253.642 965.36 254.096 964.827 254.709 964.32C253.776 963.787 253.056 963.067 252.549 962.16C252.042 961.227 251.789 960.2 251.789 959.08C251.816 957.88 252.136 956.813 252.749 955.88C253.362 954.92 254.216 954.173 255.309 953.64C256.402 953.08 257.669 952.8 259.109 952.8C260.282 952.8 261.362 953.04 262.349 953.52L264.989 953.4C265.602 953.373 266.229 953.32 266.869 953.24C267.509 953.133 268.016 953.027 268.389 952.92C268.389 953.293 268.349 953.667 268.269 954.04C268.216 954.413 268.162 954.64 268.109 954.72C268.002 954.96 267.856 955.107 267.669 955.16C267.509 955.213 267.322 955.24 267.109 955.24C266.656 955.24 266.189 955.213 265.709 955.16C265.256 955.107 264.802 955.04 264.349 954.96C264.829 955.467 265.202 956.053 265.469 956.72C265.762 957.387 265.909 958.107 265.909 958.88C265.909 960.133 265.576 961.253 264.909 962.24C264.269 963.2 263.402 963.96 262.309 964.52C261.216 965.053 259.989 965.32 258.629 965.32C257.669 965.32 256.762 965.173 255.909 964.88C255.669 965.173 255.496 965.493 255.389 965.84C255.282 966.187 255.216 966.547 255.189 966.92C255.162 967.373 255.336 967.773 255.709 968.12C256.109 968.467 256.762 968.627 257.669 968.6L261.749 968.44C263.269 968.387 264.482 968.573 265.389 969C266.322 969.427 266.989 969.987 267.389 970.68C267.816 971.373 268.016 972.107 267.989 972.88C267.962 974.16 267.536 975.293 266.709 976.28C265.882 977.267 264.762 978.04 263.349 978.6C261.936 979.16 260.336 979.427 258.549 979.4C256.362 979.347 254.589 978.893 253.229 978.04C251.869 977.213 251.189 976.013 251.189 974.44C251.189 974.013 251.269 973.56 251.429 973.08C251.589 972.6 251.842 972.187 252.189 971.84C252.536 971.493 252.896 971.413 253.269 971.6L253.749 971.84ZM259.309 963.6C260.402 963.6 261.362 963.24 262.189 962.52C263.042 961.8 263.469 960.733 263.469 959.32C263.469 958.493 263.269 957.72 262.869 957C262.496 956.253 261.936 955.64 261.189 955.16C260.469 954.68 259.562 954.44 258.469 954.44C257.056 954.44 255.989 954.853 255.269 955.68C254.576 956.507 254.229 957.52 254.229 958.72C254.229 960.187 254.709 961.373 255.669 962.28C256.629 963.16 257.842 963.6 259.309 963.6ZM273.789 962.44C273.922 965.08 274.656 967.067 275.989 968.4C277.322 969.707 278.976 970.36 280.949 970.36C282.842 970.36 284.682 969.747 286.469 968.52C286.522 968.573 286.616 968.747 286.749 969.04C286.909 969.333 286.989 969.587 286.989 969.8C286.989 969.987 286.936 970.133 286.829 970.24C286.722 970.347 286.629 970.427 286.549 970.48C285.669 971.12 284.669 971.6 283.549 971.92C282.456 972.24 281.336 972.4 280.189 972.4C277.496 972.4 275.362 971.573 273.789 969.92C272.242 968.24 271.442 965.973 271.389 963.12C271.362 960.96 271.736 959.107 272.509 957.56C273.309 956.013 274.376 954.827 275.709 954C277.042 953.173 278.536 952.773 280.189 952.8C281.816 952.8 283.122 953.147 284.109 953.84C285.096 954.533 285.816 955.413 286.269 956.48C286.722 957.547 286.962 958.693 286.989 959.92C287.016 960.64 286.909 961.147 286.669 961.44C286.429 961.733 286.002 961.907 285.389 961.96L273.789 962.44ZM279.709 954.56C278.082 954.56 276.736 955.12 275.669 956.24C274.629 957.36 274.016 958.827 273.829 960.64L284.549 960.04C284.682 958.28 284.322 956.933 283.469 956C282.616 955.04 281.362 954.56 279.709 954.56ZM290.853 971.8C290.587 971.8 290.453 971.667 290.453 971.4C290.453 971.293 290.467 971.147 290.493 970.96C290.52 970.747 290.587 970.56 290.693 970.4C291.627 970.293 292.253 970.067 292.573 969.72C292.893 969.373 293.08 968.867 293.133 968.2C293.16 967.853 293.187 967.307 293.213 966.56C293.24 965.813 293.253 964.96 293.253 964C293.28 963.013 293.293 962.04 293.293 961.08C293.293 960.173 293.28 959.36 293.253 958.64C293.253 957.893 293.24 957.347 293.213 957C293.187 956.467 293.08 956.08 292.893 955.84C292.733 955.573 292.427 955.427 291.973 955.4L290.453 955.24C290.267 955.24 290.173 955.133 290.173 954.92C290.173 954.52 290.307 954.16 290.573 953.84C291 953.707 291.533 953.6 292.173 953.52C292.813 953.44 293.373 953.4 293.853 953.4C294.947 953.4 295.48 954 295.453 955.2C295.427 955.707 295.413 956.32 295.413 957.04C295.867 955.813 296.52 954.8 297.373 954C298.253 953.2 299.307 952.8 300.533 952.8C301.067 952.8 301.573 952.867 302.053 953C302.533 953.133 302.867 953.307 303.053 953.52C303.133 953.6 303.173 953.72 303.173 953.88C303.173 954.28 303.067 954.707 302.853 955.16C302.667 955.587 302.48 955.867 302.293 956C301.787 955.76 301.267 955.573 300.733 955.44C300.227 955.28 299.747 955.2 299.293 955.2C298.04 955.2 297.08 955.853 296.413 957.16C295.773 958.467 295.427 960.187 295.373 962.32C295.373 962.533 295.373 962.747 295.373 962.96C295.373 963.147 295.373 963.347 295.373 963.56C295.373 964.76 295.373 965.773 295.373 966.6C295.4 967.427 295.427 968.187 295.453 968.88C295.507 969.573 295.8 969.96 296.333 970.04C296.467 970.04 296.707 970.053 297.053 970.08C297.427 970.107 297.8 970.133 298.173 970.16C298.573 970.187 298.84 970.2 298.973 970.2C298.973 970.333 298.96 970.507 298.933 970.72C298.933 970.933 298.907 971.107 298.853 971.24C298.773 971.507 298.68 971.667 298.573 971.72C298.467 971.773 298.387 971.8 298.333 971.8H290.853Z" fill="#121212" style="fill:#121212;fill:color(display-p3 0.0706 0.0706 0.0706);fill-opacity:1;"/>
<g clip-path="url(#clip1_96_2627)">
<rect width="282" height="44" transform="translate(81 1017)" fill="#5D7352" style="fill:#5D7352;fill:color(display-p3 0.3631 0.4513 0.3216);fill-opacity:1;"/>
<rect width="282" height="44" transform="translate(363 1017)" fill="#DBEABD" style="fill:#DBEABD;fill:color(display-p3 0.8588 0.9176 0.7412);fill-opacity:1;"/>
<rect width="282" height="44" transform="translate(645 1017)" fill="#4D3A23" style="fill:#4D3A23;fill:color(display-p3 0.3020 0.2275 0.1373);fill-opacity:1;"/>
<rect width="282" height="44" transform="translate(927 1017)" fill="#BEB8A3" style="fill:#BEB8A3;fill:color(display-p3 0.7453 0.7224 0.6409);fill-opacity:1;"/>
<rect width="282" height="44" transform="translate(1209 1017)" fill="#56160C" style="fill:#56160C;fill:color(display-p3 0.3373 0.0863 0.0471);fill-opacity:1;"/>
<rect width="282" height="44" transform="translate(1491 1017)" fill="#DE591F" style="fill:#DE591F;fill:color(display-p3 0.8706 0.3490 0.1216);fill-opacity:1;"/>
</g>
<defs>
<clipPath id="clip0_96_2627">
<rect x="81" y="208" width="1692" height="601" rx="20" fill="white" style="fill:white;fill-opacity:1;"/>
</clipPath>
<clipPath id="clip1_96_2627">
<rect x="81" y="1017" width="1692" height="44" rx="22" fill="white" style="fill:white;fill-opacity:1;"/>
</clipPath>
</defs>
</svg>
