<svg width="860" height="1097" viewBox="0 0 860 1097" fill="none" xmlns="http://www.w3.org/2000/svg">
<g clip-path="url(#clip0_3211_300)">
<rect width="860" height="1096" transform="translate(0 0.439453)" fill="#FFFCFA"/>
<path d="M22.923 838.641L37.3799 800.996H42.7467L58.1537 838.641H52.4788L48.0878 827.239H32.3469L28.2127 838.641H22.923ZM33.7849 823.182H46.5471L42.6183 812.757C41.42 809.59 40.5298 806.988 39.9478 804.951C39.4684 807.364 38.7922 809.761 37.9192 812.141L33.7849 823.182ZM71.6349 834.506L72.3026 838.589C71.0015 838.863 69.8374 839 68.8103 839C67.1326 839 65.8316 838.735 64.9072 838.204C63.9827 837.673 63.3322 836.98 62.9556 836.124C62.579 835.251 62.3907 833.428 62.3907 830.655V814.965H59.0011V811.37H62.3907V804.617L66.9871 801.843V811.37H71.6349V814.965H66.9871V830.911C66.9871 832.23 67.0642 833.077 67.2182 833.454C67.3894 833.83 67.6548 834.13 68.0143 834.352C68.3909 834.575 68.9216 834.686 69.6063 834.686C70.1199 834.686 70.7961 834.626 71.6349 834.506ZM91.2019 838.641V800.996H105.325C108.201 800.996 110.503 801.381 112.232 802.152C113.979 802.905 115.34 804.077 116.315 805.67C117.308 807.244 117.805 808.896 117.805 810.625C117.805 812.235 117.368 813.75 116.495 815.171C115.622 816.591 114.304 817.738 112.541 818.611C114.817 819.279 116.564 820.418 117.779 822.027C119.012 823.636 119.628 825.536 119.628 827.727C119.628 829.491 119.251 831.134 118.498 832.658C117.762 834.164 116.846 835.328 115.75 836.15C114.655 836.972 113.277 837.596 111.616 838.024C109.973 838.435 107.953 838.641 105.556 838.641H91.2019ZM96.1835 816.814H104.324C106.532 816.814 108.115 816.668 109.074 816.377C110.341 816.001 111.291 815.376 111.924 814.503C112.575 813.63 112.9 812.534 112.9 811.216C112.9 809.966 112.601 808.871 112.001 807.929C111.402 806.971 110.546 806.32 109.434 805.978C108.321 805.618 106.412 805.438 103.707 805.438H96.1835V816.814ZM96.1835 834.198H105.556C107.165 834.198 108.295 834.138 108.946 834.019C110.093 833.813 111.051 833.471 111.822 832.991C112.592 832.512 113.225 831.819 113.722 830.911C114.218 829.987 114.467 828.926 114.467 827.727C114.467 826.324 114.107 825.108 113.388 824.081C112.669 823.037 111.668 822.309 110.384 821.898C109.117 821.47 107.285 821.256 104.888 821.256H96.1835V834.198ZM143.689 835.277C141.977 836.732 140.325 837.759 138.733 838.358C137.158 838.957 135.463 839.257 133.648 839.257C130.652 839.257 128.35 838.529 126.741 837.074C125.132 835.602 124.327 833.727 124.327 831.451C124.327 830.115 124.627 828.9 125.226 827.804C125.842 826.692 126.638 825.801 127.614 825.134C128.607 824.466 129.719 823.961 130.952 823.619C131.859 823.379 133.229 823.148 135.061 822.925C138.793 822.48 141.54 821.95 143.303 821.333C143.32 820.7 143.329 820.298 143.329 820.126C143.329 818.243 142.893 816.917 142.019 816.146C140.838 815.102 139.084 814.58 136.755 814.58C134.581 814.58 132.972 814.965 131.928 815.735C130.901 816.489 130.139 817.833 129.642 819.767L125.123 819.151C125.534 817.216 126.21 815.658 127.152 814.477C128.093 813.279 129.454 812.363 131.235 811.73C133.015 811.079 135.078 810.754 137.423 810.754C139.751 810.754 141.643 811.028 143.098 811.576C144.553 812.123 145.623 812.817 146.308 813.656C146.993 814.477 147.472 815.521 147.746 816.788C147.9 817.576 147.977 818.997 147.977 821.051V827.214C147.977 831.511 148.071 834.232 148.259 835.379C148.465 836.509 148.858 837.596 149.441 838.641H144.613C144.134 837.682 143.825 836.561 143.689 835.277ZM143.303 824.954C141.626 825.639 139.109 826.221 135.754 826.7C133.854 826.974 132.51 827.282 131.722 827.625C130.935 827.967 130.327 828.472 129.899 829.14C129.471 829.79 129.257 830.518 129.257 831.322C129.257 832.555 129.719 833.582 130.644 834.404C131.585 835.225 132.955 835.636 134.752 835.636C136.533 835.636 138.116 835.251 139.503 834.481C140.89 833.693 141.908 832.623 142.559 831.271C143.055 830.227 143.303 828.686 143.303 826.649V824.954ZM172.962 828.652L177.507 829.242C177.011 832.375 175.735 834.832 173.681 836.612C171.644 838.375 169.136 839.257 166.157 839.257C162.425 839.257 159.421 838.041 157.144 835.611C154.884 833.163 153.754 829.662 153.754 825.108C153.754 822.164 154.242 819.587 155.218 817.379C156.194 815.171 157.675 813.519 159.661 812.423C161.663 811.31 163.838 810.754 166.183 810.754C169.144 810.754 171.567 811.507 173.45 813.014C175.333 814.503 176.54 816.626 177.07 819.382L172.577 820.075C172.149 818.243 171.387 816.865 170.291 815.941C169.213 815.016 167.903 814.554 166.363 814.554C164.034 814.554 162.143 815.393 160.688 817.071C159.233 818.731 158.505 821.368 158.505 824.98C158.505 828.643 159.207 831.305 160.611 832.966C162.014 834.626 163.846 835.457 166.106 835.457C167.92 835.457 169.435 834.9 170.651 833.787C171.866 832.675 172.637 830.963 172.962 828.652ZM181.487 838.641V800.996H186.109V822.463L197.048 811.37H203.031L192.606 821.487L204.084 838.641H198.384L189.37 824.697L186.109 827.83V838.641H181.487ZM208.86 838.641V814.965H204.777V811.37H208.86V808.468C208.86 806.637 209.023 805.276 209.348 804.386C209.793 803.187 210.572 802.22 211.685 801.484C212.815 800.731 214.39 800.354 216.41 800.354C217.711 800.354 219.149 800.508 220.724 800.816L220.03 804.848C219.072 804.677 218.164 804.591 217.309 804.591C215.905 804.591 214.912 804.891 214.33 805.49C213.748 806.089 213.457 807.21 213.457 808.854V811.37H218.772V814.965H213.457V838.641H208.86ZM240.188 835.277C238.476 836.732 236.824 837.759 235.232 838.358C233.657 838.957 231.962 839.257 230.148 839.257C227.152 839.257 224.849 838.529 223.24 837.074C221.631 835.602 220.827 833.727 220.827 831.451C220.827 830.115 221.126 828.9 221.725 827.804C222.342 826.692 223.138 825.801 224.113 825.134C225.106 824.466 226.219 823.961 227.452 823.619C228.359 823.379 229.728 823.148 231.56 822.925C235.292 822.48 238.04 821.95 239.803 821.333C239.82 820.7 239.829 820.298 239.829 820.126C239.829 818.243 239.392 816.917 238.519 816.146C237.338 815.102 235.583 814.58 233.255 814.58C231.081 814.58 229.472 814.965 228.427 815.735C227.4 816.489 226.638 817.833 226.142 819.767L221.623 819.151C222.033 817.216 222.71 815.658 223.651 814.477C224.593 813.279 225.954 812.363 227.734 811.73C229.514 811.079 231.577 810.754 233.922 810.754C236.251 810.754 238.142 811.028 239.597 811.576C241.053 812.123 242.122 812.817 242.807 813.656C243.492 814.477 243.971 815.521 244.245 816.788C244.399 817.576 244.476 818.997 244.476 821.051V827.214C244.476 831.511 244.57 834.232 244.759 835.379C244.964 836.509 245.358 837.596 245.94 838.641H241.112C240.633 837.682 240.325 836.561 240.188 835.277ZM239.803 824.954C238.125 825.639 235.609 826.221 232.253 826.7C230.353 826.974 229.009 827.282 228.222 827.625C227.434 827.967 226.827 828.472 226.399 829.14C225.971 829.79 225.757 830.518 225.757 831.322C225.757 832.555 226.219 833.582 227.143 834.404C228.085 835.225 229.454 835.636 231.252 835.636C233.032 835.636 234.616 835.251 236.002 834.481C237.389 833.693 238.408 832.623 239.058 831.271C239.555 830.227 239.803 828.686 239.803 826.649V824.954ZM255.929 838.641H251.641V800.996H256.263V814.426C258.214 811.978 260.705 810.754 263.735 810.754C265.413 810.754 266.996 811.096 268.486 811.781C269.992 812.449 271.225 813.399 272.183 814.631C273.159 815.847 273.921 817.319 274.469 819.048C275.017 820.777 275.29 822.626 275.29 824.595C275.29 829.268 274.135 832.88 271.824 835.431C269.513 837.982 266.74 839.257 263.504 839.257C260.286 839.257 257.761 837.913 255.929 835.225V838.641ZM255.878 824.8C255.878 828.07 256.323 830.432 257.213 831.887C258.668 834.267 260.637 835.457 263.119 835.457C265.139 835.457 266.885 834.583 268.357 832.837C269.829 831.074 270.566 828.455 270.566 824.98C270.566 821.419 269.855 818.791 268.434 817.096C267.031 815.402 265.327 814.554 263.324 814.554C261.304 814.554 259.558 815.436 258.086 817.199C256.614 818.945 255.878 821.479 255.878 824.8ZM280.888 838.641V811.37H285.048V815.504C286.11 813.57 287.085 812.295 287.976 811.678C288.883 811.062 289.876 810.754 290.954 810.754C292.512 810.754 294.096 811.25 295.705 812.243L294.113 816.532C292.983 815.864 291.853 815.53 290.723 815.53C289.713 815.53 288.806 815.838 288.001 816.454C287.197 817.054 286.623 817.892 286.281 818.971C285.767 820.614 285.51 822.412 285.51 824.363V838.641H280.888ZM298.478 806.312V800.996H303.1V806.312H298.478ZM298.478 838.641V811.37H303.1V838.641H298.478ZM310.187 838.641V800.996H314.81V822.463L325.749 811.37H331.732L321.306 821.487L332.784 838.641H327.084L318.071 824.697L314.81 827.83V838.641H310.187ZM337.663 838.641V833.377H342.927V838.641C342.927 840.575 342.585 842.133 341.9 843.314C341.215 844.512 340.128 845.437 338.639 846.087L337.355 844.11C338.331 843.682 339.05 843.049 339.512 842.21C339.974 841.388 340.231 840.198 340.282 838.641H337.663ZM370.763 838.641L362.417 811.37H367.193L371.533 827.111L373.151 832.966C373.219 832.675 373.69 830.8 374.563 827.342L378.903 811.37H383.653L387.736 827.188L389.097 832.401L390.664 827.137L395.337 811.37H399.831L391.305 838.641H386.504L382.164 822.309L381.111 817.661L375.59 838.641H370.763ZM422.402 829.859L427.178 830.449C426.425 833.24 425.03 835.405 422.993 836.946C420.955 838.487 418.353 839.257 415.186 839.257C411.198 839.257 408.031 838.033 405.685 835.585C403.357 833.12 402.193 829.67 402.193 825.236C402.193 820.649 403.374 817.088 405.737 814.554C408.099 812.021 411.163 810.754 414.93 810.754C418.576 810.754 421.555 811.995 423.866 814.477C426.177 816.959 427.332 820.452 427.332 824.954C427.332 825.228 427.324 825.639 427.307 826.187H406.969C407.14 829.182 407.988 831.476 409.511 833.068C411.035 834.66 412.935 835.457 415.212 835.457C416.907 835.457 418.353 835.011 419.552 834.121C420.75 833.231 421.7 831.81 422.402 829.859ZM407.226 822.386H422.453C422.248 820.092 421.666 818.372 420.707 817.225C419.235 815.444 417.326 814.554 414.981 814.554C412.858 814.554 411.069 815.265 409.614 816.686C408.176 818.106 407.38 820.007 407.226 822.386ZM465.439 835.277C463.727 836.732 462.075 837.759 460.483 838.358C458.908 838.957 457.213 839.257 455.399 839.257C452.403 839.257 450.1 838.529 448.491 837.074C446.882 835.602 446.078 833.727 446.078 831.451C446.078 830.115 446.377 828.9 446.976 827.804C447.593 826.692 448.389 825.801 449.364 825.134C450.357 824.466 451.47 823.961 452.703 823.619C453.61 823.379 454.979 823.148 456.811 822.925C460.543 822.48 463.291 821.95 465.054 821.333C465.071 820.7 465.08 820.298 465.08 820.126C465.08 818.243 464.643 816.917 463.77 816.146C462.589 815.102 460.834 814.58 458.506 814.58C456.332 814.58 454.723 814.965 453.678 815.735C452.651 816.489 451.889 817.833 451.393 819.767L446.874 819.151C447.284 817.216 447.961 815.658 448.902 814.477C449.844 813.279 451.205 812.363 452.985 811.73C454.765 811.079 456.828 810.754 459.174 810.754C461.502 810.754 463.393 811.028 464.848 811.576C466.304 812.123 467.374 812.817 468.058 813.656C468.743 814.477 469.222 815.521 469.496 816.788C469.65 817.576 469.727 818.997 469.727 821.051V827.214C469.727 831.511 469.822 834.232 470.01 835.379C470.215 836.509 470.609 837.596 471.191 838.641H466.363C465.884 837.682 465.576 836.561 465.439 835.277ZM465.054 824.954C463.376 825.639 460.86 826.221 457.504 826.7C455.604 826.974 454.26 827.282 453.473 827.625C452.685 827.967 452.078 828.472 451.65 829.14C451.222 829.79 451.008 830.518 451.008 831.322C451.008 832.555 451.47 833.582 452.394 834.404C453.336 835.225 454.705 835.636 456.503 835.636C458.283 835.636 459.867 835.251 461.253 834.481C462.64 833.693 463.659 832.623 464.309 831.271C464.806 830.227 465.054 828.686 465.054 826.649V824.954ZM476.866 838.641V811.37H481.026V815.504C482.087 813.57 483.063 812.295 483.953 811.678C484.861 811.062 485.853 810.754 486.932 810.754C488.49 810.754 490.073 811.25 491.682 812.243L490.09 816.532C488.961 815.864 487.831 815.53 486.701 815.53C485.691 815.53 484.783 815.838 483.979 816.454C483.174 817.054 482.601 817.892 482.258 818.971C481.745 820.614 481.488 822.412 481.488 824.363V838.641H476.866ZM513.098 829.859L517.874 830.449C517.121 833.24 515.726 835.405 513.689 836.946C511.652 838.487 509.05 839.257 505.883 839.257C501.894 839.257 498.727 838.033 496.382 835.585C494.053 833.12 492.889 829.67 492.889 825.236C492.889 820.649 494.07 817.088 496.433 814.554C498.795 812.021 501.86 810.754 505.626 810.754C509.272 810.754 512.251 811.995 514.562 814.477C516.873 816.959 518.028 820.452 518.028 824.954C518.028 825.228 518.02 825.639 518.003 826.187H497.665C497.837 829.182 498.684 831.476 500.208 833.068C501.731 834.66 503.631 835.457 505.908 835.457C507.603 835.457 509.05 835.011 510.248 834.121C511.446 833.231 512.396 831.81 513.098 829.859ZM497.922 822.386H513.15C512.944 820.092 512.362 818.372 511.403 817.225C509.931 815.444 508.022 814.554 505.677 814.554C503.554 814.554 501.765 815.265 500.31 816.686C498.872 818.106 498.076 820.007 497.922 822.386ZM538.366 806.312V800.996H542.988V806.312H538.366ZM538.366 838.641V811.37H542.988V838.641H538.366ZM550.049 838.641V811.37H554.209V815.248C556.212 812.252 559.105 810.754 562.889 810.754C564.532 810.754 566.039 811.053 567.408 811.653C568.795 812.235 569.83 813.005 570.515 813.964C571.2 814.922 571.679 816.061 571.953 817.379C572.124 818.235 572.21 819.733 572.21 821.873V838.641H567.588V822.052C567.588 820.169 567.408 818.766 567.049 817.841C566.689 816.9 566.047 816.155 565.123 815.607C564.215 815.042 563.145 814.76 561.913 814.76C559.944 814.76 558.241 815.385 556.803 816.634C555.382 817.884 554.672 820.255 554.672 823.747V838.641H550.049ZM577.474 830.501L582.045 829.782C582.302 831.613 583.012 833.017 584.176 833.993C585.357 834.969 587.001 835.457 589.106 835.457C591.229 835.457 592.804 835.029 593.831 834.173C594.858 833.3 595.372 832.281 595.372 831.117C595.372 830.073 594.918 829.251 594.011 828.652C593.377 828.241 591.803 827.719 589.286 827.085C585.897 826.229 583.543 825.493 582.225 824.877C580.923 824.244 579.931 823.379 579.246 822.283C578.578 821.171 578.244 819.947 578.244 818.611C578.244 817.396 578.518 816.275 579.066 815.248C579.631 814.203 580.393 813.339 581.351 812.654C582.07 812.123 583.046 811.678 584.279 811.319C585.528 810.942 586.864 810.754 588.285 810.754C590.424 810.754 592.299 811.062 593.908 811.678C595.534 812.295 596.733 813.133 597.503 814.195C598.274 815.239 598.804 816.643 599.095 818.406L594.576 819.022C594.37 817.619 593.771 816.523 592.778 815.735C591.803 814.948 590.416 814.554 588.618 814.554C586.496 814.554 584.981 814.905 584.073 815.607C583.166 816.309 582.712 817.131 582.712 818.072C582.712 818.671 582.901 819.211 583.277 819.69C583.654 820.186 584.245 820.597 585.049 820.923C585.511 821.094 586.872 821.487 589.132 822.104C592.402 822.977 594.679 823.696 595.962 824.261C597.263 824.809 598.282 825.613 599.018 826.674C599.754 827.736 600.122 829.054 600.122 830.629C600.122 832.17 599.669 833.625 598.761 834.994C597.871 836.347 596.579 837.4 594.884 838.153C593.189 838.889 591.272 839.257 589.132 839.257C585.588 839.257 582.884 838.521 581.018 837.049C579.169 835.576 577.988 833.394 577.474 830.501ZM605.618 849.092V811.37H609.829V814.914C610.822 813.527 611.943 812.491 613.193 811.807C614.442 811.105 615.957 810.754 617.738 810.754C620.066 810.754 622.12 811.353 623.901 812.551C625.681 813.75 627.025 815.444 627.932 817.636C628.839 819.81 629.293 822.198 629.293 824.8C629.293 827.59 628.788 830.107 627.778 832.349C626.785 834.575 625.33 836.287 623.413 837.485C621.512 838.666 619.51 839.257 617.404 839.257C615.863 839.257 614.477 838.932 613.244 838.281C612.029 837.631 611.027 836.809 610.24 835.816V849.092H605.618ZM609.803 825.159C609.803 828.669 610.514 831.262 611.934 832.94C613.355 834.618 615.076 835.457 617.096 835.457C619.15 835.457 620.905 834.592 622.36 832.863C623.832 831.117 624.568 828.421 624.568 824.774C624.568 821.299 623.849 818.697 622.411 816.968C620.99 815.239 619.287 814.375 617.301 814.375C615.333 814.375 613.586 815.299 612.063 817.148C610.556 818.98 609.803 821.65 609.803 825.159ZM634.917 806.312V800.996H639.539V806.312H634.917ZM634.917 838.641V811.37H639.539V838.641H634.917ZM646.549 838.641V811.37H650.709V815.504C651.77 813.57 652.746 812.295 653.636 811.678C654.543 811.062 655.536 810.754 656.615 810.754C658.173 810.754 659.756 811.25 661.365 812.243L659.773 816.532C658.643 815.864 657.514 815.53 656.384 815.53C655.374 815.53 654.466 815.838 653.662 816.454C652.857 817.054 652.284 817.892 651.941 818.971C651.428 820.614 651.171 822.412 651.171 824.363V838.641H646.549ZM682.781 829.859L687.557 830.449C686.804 833.24 685.409 835.405 683.372 836.946C681.335 838.487 678.733 839.257 675.566 839.257C671.577 839.257 668.41 838.033 666.065 835.585C663.736 833.12 662.572 829.67 662.572 825.236C662.572 820.649 663.753 817.088 666.116 814.554C668.478 812.021 671.543 810.754 675.309 810.754C678.955 810.754 681.934 811.995 684.245 814.477C686.556 816.959 687.711 820.452 687.711 824.954C687.711 825.228 687.703 825.639 687.686 826.187H667.348C667.52 829.182 668.367 831.476 669.891 833.068C671.414 834.66 673.314 835.457 675.591 835.457C677.286 835.457 678.733 835.011 679.931 834.121C681.129 833.231 682.079 831.81 682.781 829.859ZM667.605 822.386H682.833C682.627 820.092 682.045 818.372 681.086 817.225C679.614 815.444 677.705 814.554 675.36 814.554C673.237 814.554 671.448 815.265 669.993 816.686C668.555 818.106 667.759 820.007 667.605 822.386ZM711.079 838.641V835.2C709.35 837.905 706.808 839.257 703.452 839.257C701.278 839.257 699.275 838.658 697.444 837.459C695.629 836.261 694.217 834.592 693.207 832.452C692.214 830.295 691.717 827.821 691.717 825.031C691.717 822.309 692.171 819.844 693.078 817.636C693.985 815.41 695.346 813.707 697.161 812.526C698.976 811.344 701.004 810.754 703.247 810.754C704.89 810.754 706.354 811.105 707.638 811.807C708.922 812.491 709.966 813.39 710.771 814.503V800.996H715.367V838.641H711.079ZM696.468 825.031C696.468 828.523 697.204 831.134 698.676 832.863C700.148 834.592 701.886 835.457 703.889 835.457C705.909 835.457 707.621 834.635 709.024 832.991C710.445 831.331 711.156 828.806 711.156 825.416C711.156 821.684 710.437 818.945 708.999 817.199C707.561 815.453 705.789 814.58 703.683 814.58C701.629 814.58 699.909 815.419 698.522 817.096C697.152 818.774 696.468 821.419 696.468 825.031ZM747.388 834.506L748.056 838.589C746.755 838.863 745.591 839 744.563 839C742.886 839 741.585 838.735 740.66 838.204C739.736 837.673 739.085 836.98 738.709 836.124C738.332 835.251 738.144 833.428 738.144 830.655V814.965H734.754V811.37H738.144V804.617L742.74 801.843V811.37H747.388V814.965H742.74V830.911C742.74 832.23 742.817 833.077 742.971 833.454C743.143 833.83 743.408 834.13 743.767 834.352C744.144 834.575 744.675 834.686 745.359 834.686C745.873 834.686 746.549 834.626 747.388 834.506ZM750.213 825.005C750.213 819.955 751.616 816.215 754.424 813.784C756.769 811.764 759.628 810.754 763.001 810.754C766.75 810.754 769.814 811.986 772.193 814.452C774.573 816.9 775.763 820.289 775.763 824.62C775.763 828.13 775.232 830.894 774.171 832.914C773.126 834.917 771.594 836.475 769.574 837.588C767.571 838.701 765.38 839.257 763.001 839.257C759.183 839.257 756.093 838.033 753.731 835.585C751.385 833.137 750.213 829.61 750.213 825.005ZM754.963 825.005C754.963 828.498 755.725 831.117 757.249 832.863C758.772 834.592 760.689 835.457 763.001 835.457C765.294 835.457 767.203 834.583 768.727 832.837C770.25 831.091 771.012 828.429 771.012 824.851C771.012 821.479 770.242 818.928 768.701 817.199C767.178 815.453 765.277 814.58 763.001 814.58C760.689 814.58 758.772 815.444 757.249 817.173C755.725 818.902 754.963 821.513 754.963 825.005ZM800.106 838.641H795.818V800.996H800.44V814.426C802.391 811.978 804.882 810.754 807.912 810.754C809.59 810.754 811.173 811.096 812.663 811.781C814.169 812.449 815.402 813.399 816.36 814.631C817.336 815.847 818.098 817.319 818.646 819.048C819.193 820.777 819.467 822.626 819.467 824.595C819.467 829.268 818.312 832.88 816.001 835.431C813.69 837.982 810.916 839.257 807.681 839.257C804.463 839.257 801.938 837.913 800.106 835.225V838.641ZM800.054 824.8C800.054 828.07 800.5 830.432 801.39 831.887C802.845 834.267 804.814 835.457 807.296 835.457C809.316 835.457 811.062 834.583 812.534 832.837C814.006 831.074 814.743 828.455 814.743 824.98C814.743 821.419 814.032 818.791 812.611 817.096C811.207 815.402 809.504 814.554 807.501 814.554C805.481 814.554 803.735 815.436 802.263 817.199C800.791 818.945 800.054 821.479 800.054 824.8ZM843.785 829.859L848.561 830.449C847.808 833.24 846.413 835.405 844.375 836.946C842.338 838.487 839.736 839.257 836.569 839.257C832.58 839.257 829.413 838.033 827.068 835.585C824.74 833.12 823.576 829.67 823.576 825.236C823.576 820.649 824.757 817.088 827.12 814.554C829.482 812.021 832.546 810.754 836.312 810.754C839.959 810.754 842.937 811.995 845.248 814.477C847.56 816.959 848.715 820.452 848.715 824.954C848.715 825.228 848.707 825.639 848.689 826.187H828.352C828.523 829.182 829.371 831.476 830.894 833.068C832.418 834.66 834.318 835.457 836.595 835.457C838.29 835.457 839.736 835.011 840.935 834.121C842.133 833.231 843.083 831.81 843.785 829.859ZM828.609 822.386H843.836C843.631 820.092 843.049 818.372 842.09 817.225C840.618 815.444 838.709 814.554 836.364 814.554C834.241 814.554 832.452 815.265 830.997 816.686C829.559 818.106 828.763 820.007 828.609 822.386ZM36.5582 902.506L37.2258 906.589C35.9248 906.863 34.7607 907 33.7336 907C32.0559 907 30.7549 906.735 29.8305 906.204C28.906 905.673 28.2555 904.98 27.8789 904.124C27.5023 903.251 27.314 901.428 27.314 898.655V882.965H23.9244V879.37H27.314V872.617L31.9104 869.843V879.37H36.5582V882.965H31.9104V898.911C31.9104 900.23 31.9874 901.077 32.1415 901.454C32.3127 901.83 32.578 902.13 32.9375 902.352C33.3142 902.575 33.8448 902.686 34.5296 902.686C35.0432 902.686 35.7194 902.626 36.5582 902.506ZM41.1033 906.641V868.996H45.7254V882.503C47.8824 880.004 50.6043 878.754 53.8911 878.754C55.9112 878.754 57.6659 879.156 59.1552 879.961C60.6446 880.748 61.7059 881.844 62.3393 883.248C62.9898 884.651 63.3151 886.688 63.3151 889.359V906.641H58.693V889.359C58.693 887.048 58.188 885.37 57.178 884.326C56.1851 883.265 54.7728 882.734 52.941 882.734C51.5715 882.734 50.279 883.094 49.0636 883.813C47.8653 884.514 47.0093 885.473 46.4957 886.688C45.9822 887.904 45.7254 889.582 45.7254 891.721V906.641H41.1033ZM88.1718 903.277C86.4599 904.732 84.8079 905.759 83.2159 906.358C81.6409 906.957 79.9462 907.257 78.1316 907.257C75.1357 907.257 72.8332 906.529 71.2241 905.074C69.6149 903.602 68.8103 901.727 68.8103 899.451C68.8103 898.115 69.1099 896.9 69.709 895.804C70.3253 894.692 71.1213 893.801 72.0971 893.134C73.09 892.466 74.2028 891.961 75.4353 891.619C76.3426 891.379 77.7121 891.148 79.5439 890.925C83.2758 890.48 86.0234 889.95 87.7866 889.333C87.8038 888.7 87.8123 888.298 87.8123 888.126C87.8123 886.243 87.3758 884.917 86.5027 884.146C85.3215 883.102 83.5668 882.58 81.2386 882.58C79.0645 882.58 77.4554 882.965 76.4111 883.735C75.384 884.489 74.6222 885.833 74.1257 887.767L69.6063 887.151C70.0172 885.216 70.6934 883.658 71.6349 882.477C72.5765 881.279 73.9374 880.363 75.7178 879.73C77.4982 879.079 79.561 878.754 81.9063 878.754C84.2345 878.754 86.1261 879.028 87.5812 879.576C89.0363 880.123 90.1063 880.817 90.791 881.656C91.4758 882.477 91.9551 883.521 92.229 884.788C92.3831 885.576 92.4601 886.997 92.4601 889.051V895.214C92.4601 899.511 92.5543 902.232 92.7426 903.379C92.948 904.509 93.3417 905.596 93.9238 906.641H89.0962C88.6169 905.682 88.3088 904.561 88.1718 903.277ZM87.7866 892.954C86.109 893.639 83.5925 894.221 80.2372 894.7C78.337 894.974 76.9931 895.282 76.2057 895.625C75.4182 895.967 74.8105 896.472 74.3825 897.14C73.9545 897.79 73.7405 898.518 73.7405 899.322C73.7405 900.555 74.2028 901.582 75.1272 902.404C76.0687 903.225 77.4382 903.636 79.2357 903.636C81.0161 903.636 82.5996 903.251 83.9862 902.481C85.3729 901.693 86.3914 900.623 87.042 899.271C87.5384 898.227 87.7866 896.686 87.7866 894.649V892.954ZM109.742 902.506L110.409 906.589C109.108 906.863 107.944 907 106.917 907C105.239 907 103.938 906.735 103.014 906.204C102.09 905.673 101.439 904.98 101.062 904.124C100.686 903.251 100.497 901.428 100.497 898.655V882.965H97.1079V879.37H100.497V872.617L105.094 869.843V879.37H109.742V882.965H105.094V898.911C105.094 900.23 105.171 901.077 105.325 901.454C105.496 901.83 105.762 902.13 106.121 902.352C106.498 902.575 107.028 902.686 107.713 902.686C108.227 902.686 108.903 902.626 109.742 902.506ZM128.821 906.641V868.996H133.443V906.641H128.821ZM140.658 874.312V868.996H145.281V874.312H140.658ZM140.658 906.641V879.37H145.281V906.641H140.658ZM151.495 908.9L155.989 909.568C156.177 910.955 156.699 911.965 157.555 912.598C158.702 913.454 160.268 913.882 162.254 913.882C164.394 913.882 166.046 913.454 167.21 912.598C168.374 911.742 169.162 910.544 169.572 909.003C169.812 908.061 169.923 906.084 169.906 903.071C167.886 905.451 165.37 906.641 162.357 906.641C158.608 906.641 155.706 905.288 153.652 902.583C151.597 899.879 150.57 896.635 150.57 892.851C150.57 890.249 151.041 887.853 151.983 885.661C152.924 883.453 154.285 881.75 156.066 880.551C157.863 879.353 159.969 878.754 162.382 878.754C165.601 878.754 168.254 880.055 170.343 882.657V879.37H174.605V902.943C174.605 907.188 174.169 910.193 173.296 911.956C172.44 913.736 171.07 915.14 169.187 916.167C167.321 917.194 165.019 917.708 162.28 917.708C159.027 917.708 156.399 916.972 154.396 915.5C152.394 914.045 151.426 911.845 151.495 908.9ZM155.321 892.517C155.321 896.095 156.031 898.706 157.452 900.349C158.873 901.993 160.653 902.815 162.793 902.815C164.916 902.815 166.696 902.001 168.134 900.375C169.572 898.732 170.291 896.164 170.291 892.672C170.291 889.333 169.547 886.817 168.057 885.122C166.585 883.427 164.805 882.58 162.716 882.58C160.662 882.58 158.916 883.419 157.478 885.096C156.04 886.757 155.321 889.231 155.321 892.517ZM181.616 906.641V868.996H186.238V882.503C188.395 880.004 191.117 878.754 194.403 878.754C196.423 878.754 198.178 879.156 199.667 879.961C201.157 880.748 202.218 881.844 202.852 883.248C203.502 884.651 203.827 886.688 203.827 889.359V906.641H199.205V889.359C199.205 887.048 198.7 885.37 197.69 884.326C196.697 883.265 195.285 882.734 193.453 882.734C192.084 882.734 190.791 883.094 189.576 883.813C188.378 884.514 187.522 885.473 187.008 886.688C186.494 887.904 186.238 889.582 186.238 891.721V906.641H181.616ZM220.981 902.506L221.648 906.589C220.347 906.863 219.183 907 218.156 907C216.478 907 215.177 906.735 214.253 906.204C213.328 905.673 212.678 904.98 212.301 904.124C211.925 903.251 211.736 901.428 211.736 898.655V882.965H208.347V879.37H211.736V872.617L216.333 869.843V879.37H220.981V882.965H216.333V898.911C216.333 900.23 216.41 901.077 216.564 901.454C216.735 901.83 217 902.13 217.36 902.352C217.737 902.575 218.267 902.686 218.952 902.686C219.466 902.686 220.142 902.626 220.981 902.506ZM225.526 906.641V868.996H230.148V882.503C232.305 880.004 235.027 878.754 238.314 878.754C240.334 878.754 242.088 879.156 243.578 879.961C245.067 880.748 246.128 881.844 246.762 883.248C247.412 884.651 247.737 886.688 247.737 889.359V906.641H243.115V889.359C243.115 887.048 242.61 885.37 241.6 884.326C240.607 883.265 239.195 882.734 237.363 882.734C235.994 882.734 234.701 883.094 233.486 883.813C232.288 884.514 231.432 885.473 230.918 886.688C230.405 887.904 230.148 889.582 230.148 891.721V906.641H225.526ZM253.079 893.005C253.079 887.955 254.482 884.215 257.29 881.784C259.635 879.764 262.494 878.754 265.866 878.754C269.615 878.754 272.68 879.986 275.059 882.452C277.439 884.9 278.629 888.289 278.629 892.62C278.629 896.13 278.098 898.894 277.037 900.914C275.992 902.917 274.46 904.475 272.44 905.588C270.437 906.701 268.246 907.257 265.866 907.257C262.049 907.257 258.959 906.033 256.597 903.585C254.251 901.137 253.079 897.61 253.079 893.005ZM257.829 893.005C257.829 896.498 258.591 899.117 260.114 900.863C261.638 902.592 263.555 903.457 265.866 903.457C268.16 903.457 270.069 902.583 271.593 900.837C273.116 899.091 273.878 896.429 273.878 892.851C273.878 889.479 273.108 886.928 271.567 885.199C270.043 883.453 268.143 882.58 265.866 882.58C263.555 882.58 261.638 883.444 260.114 885.173C258.591 886.902 257.829 889.513 257.829 893.005ZM301.945 906.641V902.635C299.822 905.716 296.937 907.257 293.291 907.257C291.682 907.257 290.175 906.949 288.772 906.332C287.385 905.716 286.349 904.946 285.664 904.021C284.997 903.08 284.526 901.933 284.252 900.581C284.064 899.673 283.97 898.235 283.97 896.267V879.37H288.592V894.495C288.592 896.909 288.686 898.535 288.874 899.374C289.165 900.589 289.782 901.548 290.723 902.25C291.665 902.934 292.829 903.277 294.215 903.277C295.602 903.277 296.903 902.926 298.119 902.224C299.334 901.505 300.19 900.538 300.686 899.322C301.2 898.09 301.457 896.309 301.457 893.981V879.37H306.079V906.641H301.945ZM311.497 898.501L316.068 897.782C316.325 899.613 317.035 901.017 318.199 901.993C319.38 902.969 321.024 903.457 323.129 903.457C325.252 903.457 326.827 903.029 327.854 902.173C328.881 901.3 329.395 900.281 329.395 899.117C329.395 898.073 328.941 897.251 328.034 896.652C327.4 896.241 325.826 895.719 323.309 895.085C319.92 894.229 317.566 893.493 316.247 892.877C314.946 892.244 313.954 891.379 313.269 890.283C312.601 889.171 312.267 887.947 312.267 886.611C312.267 885.396 312.541 884.275 313.089 883.248C313.654 882.203 314.416 881.339 315.374 880.654C316.093 880.123 317.069 879.678 318.302 879.319C319.551 878.942 320.887 878.754 322.308 878.754C324.447 878.754 326.322 879.062 327.931 879.678C329.557 880.295 330.756 881.133 331.526 882.195C332.296 883.239 332.827 884.643 333.118 886.406L328.599 887.022C328.393 885.619 327.794 884.523 326.801 883.735C325.826 882.948 324.439 882.554 322.641 882.554C320.519 882.554 319.004 882.905 318.096 883.607C317.189 884.309 316.735 885.131 316.735 886.072C316.735 886.671 316.924 887.211 317.3 887.69C317.677 888.186 318.268 888.597 319.072 888.923C319.534 889.094 320.895 889.487 323.155 890.104C326.425 890.977 328.702 891.696 329.985 892.261C331.286 892.809 332.305 893.613 333.041 894.674C333.777 895.736 334.145 897.054 334.145 898.629C334.145 900.17 333.692 901.625 332.784 902.994C331.894 904.347 330.602 905.4 328.907 906.153C327.212 906.889 325.295 907.257 323.155 907.257C319.611 907.257 316.907 906.521 315.041 905.049C313.192 903.576 312.011 901.394 311.497 898.501ZM358.309 897.859L363.085 898.449C362.332 901.24 360.936 903.405 358.899 904.946C356.862 906.487 354.26 907.257 351.093 907.257C347.104 907.257 343.937 906.033 341.592 903.585C339.264 901.12 338.1 897.67 338.1 893.236C338.1 888.649 339.281 885.088 341.643 882.554C344.006 880.021 347.07 878.754 350.836 878.754C354.483 878.754 357.461 879.995 359.772 882.477C362.083 884.959 363.239 888.452 363.239 892.954C363.239 893.228 363.23 893.639 363.213 894.187H342.876C343.047 897.182 343.895 899.476 345.418 901.068C346.942 902.66 348.842 903.457 351.119 903.457C352.814 903.457 354.26 903.011 355.458 902.121C356.657 901.231 357.607 899.81 358.309 897.859ZM343.133 890.386H358.36C358.155 888.092 357.573 886.372 356.614 885.225C355.142 883.444 353.233 882.554 350.888 882.554C348.765 882.554 346.976 883.265 345.521 884.686C344.083 886.106 343.287 888.007 343.133 890.386ZM381.753 895.342V890.694H395.953V895.342H381.753ZM413.851 898.501L418.422 897.782C418.679 899.613 419.389 901.017 420.553 901.993C421.734 902.969 423.378 903.457 425.483 903.457C427.606 903.457 429.181 903.029 430.208 902.173C431.235 901.3 431.749 900.281 431.749 899.117C431.749 898.073 431.295 897.251 430.388 896.652C429.755 896.241 428.18 895.719 425.663 895.085C422.274 894.229 419.92 893.493 418.602 892.877C417.301 892.244 416.308 891.379 415.623 890.283C414.955 889.171 414.621 887.947 414.621 886.611C414.621 885.396 414.895 884.275 415.443 883.248C416.008 882.203 416.77 881.339 417.729 880.654C418.448 880.123 419.423 879.678 420.656 879.319C421.906 878.942 423.241 878.754 424.662 878.754C426.802 878.754 428.676 879.062 430.285 879.678C431.912 880.295 433.11 881.133 433.88 882.195C434.651 883.239 435.181 884.643 435.472 886.406L430.953 887.022C430.748 885.619 430.148 884.523 429.155 883.735C428.18 882.948 426.793 882.554 424.996 882.554C422.873 882.554 421.358 882.905 420.45 883.607C419.543 884.309 419.09 885.131 419.09 886.072C419.09 886.671 419.278 887.211 419.654 887.69C420.031 888.186 420.622 888.597 421.426 888.923C421.888 889.094 423.249 889.487 425.509 890.104C428.779 890.977 431.056 891.696 432.34 892.261C433.641 892.809 434.659 893.613 435.395 894.674C436.131 895.736 436.499 897.054 436.499 898.629C436.499 900.17 436.046 901.625 435.139 902.994C434.248 904.347 432.956 905.4 431.261 906.153C429.566 906.889 427.649 907.257 425.509 907.257C421.966 907.257 419.261 906.521 417.395 905.049C415.546 903.576 414.365 901.394 413.851 898.501ZM452.086 902.506L452.754 906.589C451.453 906.863 450.289 907 449.262 907C447.584 907 446.283 906.735 445.359 906.204C444.434 905.673 443.784 904.98 443.407 904.124C443.03 903.251 442.842 901.428 442.842 898.655V882.965H439.452V879.37H442.842V872.617L447.438 869.843V879.37H452.086V882.965H447.438V898.911C447.438 900.23 447.516 901.077 447.67 901.454C447.841 901.83 448.106 902.13 448.466 902.352C448.842 902.575 449.373 902.686 450.058 902.686C450.571 902.686 451.247 902.626 452.086 902.506ZM456.58 906.641V879.37H460.74V883.504C461.801 881.57 462.777 880.295 463.667 879.678C464.575 879.062 465.567 878.754 466.646 878.754C468.204 878.754 469.787 879.25 471.396 880.243L469.804 884.532C468.675 883.864 467.545 883.53 466.415 883.53C465.405 883.53 464.498 883.838 463.693 884.454C462.888 885.054 462.315 885.892 461.972 886.971C461.459 888.614 461.202 890.412 461.202 892.363V906.641H456.58ZM472.424 893.005C472.424 887.955 473.827 884.215 476.635 881.784C478.98 879.764 481.839 878.754 485.211 878.754C488.96 878.754 492.025 879.986 494.404 882.452C496.784 884.9 497.974 888.289 497.974 892.62C497.974 896.13 497.443 898.894 496.382 900.914C495.337 902.917 493.805 904.475 491.785 905.588C489.782 906.701 487.591 907.257 485.211 907.257C481.394 907.257 478.304 906.033 475.942 903.585C473.596 901.137 472.424 897.61 472.424 893.005ZM477.174 893.005C477.174 896.498 477.936 899.117 479.459 900.863C480.983 902.592 482.9 903.457 485.211 903.457C487.505 903.457 489.414 902.583 490.938 900.837C492.461 899.091 493.223 896.429 493.223 892.851C493.223 889.479 492.453 886.928 490.912 885.199C489.388 883.453 487.488 882.58 485.211 882.58C482.9 882.58 480.983 883.444 479.459 885.173C477.936 886.902 477.174 889.513 477.174 893.005ZM503.417 906.641V879.37H507.577V883.248C509.58 880.252 512.473 878.754 516.257 878.754C517.9 878.754 519.407 879.053 520.776 879.653C522.163 880.235 523.198 881.005 523.883 881.964C524.568 882.922 525.047 884.061 525.321 885.379C525.492 886.235 525.578 887.733 525.578 889.873V906.641H520.956V890.052C520.956 888.169 520.776 886.766 520.417 885.841C520.057 884.9 519.415 884.155 518.491 883.607C517.583 883.042 516.513 882.76 515.281 882.76C513.312 882.76 511.609 883.385 510.171 884.634C508.75 885.884 508.04 888.255 508.04 891.747V906.641H503.417ZM531.843 908.9L536.337 909.568C536.525 910.955 537.048 911.965 537.904 912.598C539.051 913.454 540.617 913.882 542.603 913.882C544.743 913.882 546.395 913.454 547.559 912.598C548.723 911.742 549.51 910.544 549.921 909.003C550.161 908.061 550.272 906.084 550.255 903.071C548.235 905.451 545.718 906.641 542.705 906.641C538.956 906.641 536.055 905.288 534 902.583C531.946 899.879 530.919 896.635 530.919 892.851C530.919 890.249 531.39 887.853 532.331 885.661C533.273 883.453 534.634 881.75 536.414 880.551C538.212 879.353 540.317 878.754 542.731 878.754C545.949 878.754 548.603 880.055 550.691 882.657V879.37H554.954V902.943C554.954 907.188 554.517 910.193 553.644 911.956C552.788 913.736 551.419 915.14 549.536 916.167C547.67 917.194 545.367 917.708 542.628 917.708C539.376 917.708 536.748 916.972 534.745 915.5C532.742 914.045 531.775 911.845 531.843 908.9ZM535.67 892.517C535.67 896.095 536.38 898.706 537.801 900.349C539.222 901.993 541.002 902.815 543.142 902.815C545.265 902.815 547.045 902.001 548.483 900.375C549.921 898.732 550.64 896.164 550.64 892.672C550.64 889.333 549.895 886.817 548.406 885.122C546.934 883.427 545.153 882.58 543.065 882.58C541.011 882.58 539.265 883.419 537.827 885.096C536.389 886.757 535.67 889.231 535.67 892.517ZM563.171 906.641V901.377H568.435V906.641C568.435 908.575 568.093 910.133 567.408 911.314C566.723 912.512 565.636 913.437 564.147 914.087L562.863 912.11C563.839 911.682 564.558 911.049 565.02 910.21C565.482 909.388 565.739 908.198 565.79 906.641H563.171ZM589.389 898.501L593.96 897.782C594.216 899.613 594.927 901.017 596.091 901.993C597.272 902.969 598.915 903.457 601.021 903.457C603.144 903.457 604.719 903.029 605.746 902.173C606.773 901.3 607.287 900.281 607.287 899.117C607.287 898.073 606.833 897.251 605.926 896.652C605.292 896.241 603.717 895.719 601.201 895.085C597.811 894.229 595.457 893.493 594.139 892.877C592.838 892.244 591.845 891.379 591.161 890.283C590.493 889.171 590.159 887.947 590.159 886.611C590.159 885.396 590.433 884.275 590.981 883.248C591.546 882.203 592.308 881.339 593.266 880.654C593.985 880.123 594.961 879.678 596.194 879.319C597.443 878.942 598.779 878.754 600.199 878.754C602.339 878.754 604.214 879.062 605.823 879.678C607.449 880.295 608.648 881.133 609.418 882.195C610.188 883.239 610.719 884.643 611.01 886.406L606.491 887.022C606.285 885.619 605.686 884.523 604.693 883.735C603.717 882.948 602.331 882.554 600.533 882.554C598.41 882.554 596.895 882.905 595.988 883.607C595.081 884.309 594.627 885.131 594.627 886.072C594.627 886.671 594.816 887.211 595.192 887.69C595.569 888.186 596.159 888.597 596.964 888.923C597.426 889.094 598.787 889.487 601.047 890.104C604.317 890.977 606.593 891.696 607.877 892.261C609.178 892.809 610.197 893.613 610.933 894.674C611.669 895.736 612.037 897.054 612.037 898.629C612.037 900.17 611.584 901.625 610.676 902.994C609.786 904.347 608.494 905.4 606.799 906.153C605.104 906.889 603.187 907.257 601.047 907.257C597.503 907.257 594.798 906.521 592.932 905.049C591.084 903.576 589.902 901.394 589.389 898.501ZM627.624 902.506L628.292 906.589C626.991 906.863 625.826 907 624.799 907C623.122 907 621.821 906.735 620.896 906.204C619.972 905.673 619.321 904.98 618.945 904.124C618.568 903.251 618.38 901.428 618.38 898.655V882.965H614.99V879.37H618.38V872.617L622.976 869.843V879.37H627.624V882.965H622.976V898.911C622.976 900.23 623.053 901.077 623.207 901.454C623.378 901.83 623.644 902.13 624.003 902.352C624.38 902.575 624.911 902.686 625.595 902.686C626.109 902.686 626.785 902.626 627.624 902.506ZM649.964 903.277C648.252 904.732 646.6 905.759 645.008 906.358C643.433 906.957 641.738 907.257 639.924 907.257C636.928 907.257 634.626 906.529 633.016 905.074C631.407 903.602 630.603 901.727 630.603 899.451C630.603 898.115 630.902 896.9 631.501 895.804C632.118 894.692 632.914 893.801 633.889 893.134C634.882 892.466 635.995 891.961 637.228 891.619C638.135 891.379 639.504 891.148 641.336 890.925C645.068 890.48 647.816 889.95 649.579 889.333C649.596 888.7 649.605 888.298 649.605 888.126C649.605 886.243 649.168 884.917 648.295 884.146C647.114 883.102 645.359 882.58 643.031 882.58C640.857 882.58 639.248 882.965 638.203 883.735C637.176 884.489 636.414 885.833 635.918 887.767L631.399 887.151C631.809 885.216 632.486 883.658 633.427 882.477C634.369 881.279 635.73 880.363 637.51 879.73C639.29 879.079 641.353 878.754 643.699 878.754C646.027 878.754 647.918 879.028 649.374 879.576C650.829 880.123 651.899 880.817 652.583 881.656C653.268 882.477 653.747 883.521 654.021 884.788C654.175 885.576 654.252 886.997 654.252 889.051V895.214C654.252 899.511 654.347 902.232 654.535 903.379C654.74 904.509 655.134 905.596 655.716 906.641H650.889C650.409 905.682 650.101 904.561 649.964 903.277ZM649.579 892.954C647.901 893.639 645.385 894.221 642.029 894.7C640.129 894.974 638.785 895.282 637.998 895.625C637.211 895.967 636.603 896.472 636.175 897.14C635.747 897.79 635.533 898.518 635.533 899.322C635.533 900.555 635.995 901.582 636.919 902.404C637.861 903.225 639.231 903.636 641.028 903.636C642.808 903.636 644.392 903.251 645.779 902.481C647.165 901.693 648.184 900.623 648.834 899.271C649.331 898.227 649.579 896.686 649.579 894.649V892.954ZM665.705 906.641H661.417V868.996H666.039V882.426C667.99 879.978 670.481 878.754 673.511 878.754C675.189 878.754 676.772 879.096 678.262 879.781C679.768 880.449 681.001 881.399 681.959 882.631C682.935 883.847 683.697 885.319 684.245 887.048C684.793 888.777 685.067 890.626 685.067 892.595C685.067 897.268 683.911 900.88 681.6 903.431C679.289 905.982 676.516 907.257 673.28 907.257C670.062 907.257 667.537 905.913 665.705 903.225V906.641ZM665.654 892.8C665.654 896.07 666.099 898.432 666.989 899.887C668.444 902.267 670.413 903.457 672.895 903.457C674.915 903.457 676.661 902.583 678.133 900.837C679.606 899.074 680.342 896.455 680.342 892.98C680.342 889.419 679.631 886.791 678.21 885.096C676.807 883.402 675.103 882.554 673.1 882.554C671.08 882.554 669.334 883.436 667.862 885.199C666.39 886.945 665.654 889.479 665.654 892.8ZM690.613 906.641V868.996H695.235V906.641H690.613ZM721.093 897.859L725.87 898.449C725.116 901.24 723.721 903.405 721.684 904.946C719.647 906.487 717.045 907.257 713.878 907.257C709.889 907.257 706.722 906.033 704.377 903.585C702.049 901.12 700.884 897.67 700.884 893.236C700.884 888.649 702.066 885.088 704.428 882.554C706.79 880.021 709.855 878.754 713.621 878.754C717.267 878.754 720.246 879.995 722.557 882.477C724.868 884.959 726.024 888.452 726.024 892.954C726.024 893.228 726.015 893.639 725.998 894.187H705.661C705.832 897.182 706.679 899.476 708.203 901.068C709.726 902.66 711.627 903.457 713.903 903.457C715.598 903.457 717.045 903.011 718.243 902.121C719.441 901.231 720.391 899.81 721.093 897.859ZM705.917 890.386H721.145C720.939 888.092 720.357 886.372 719.399 885.225C717.926 883.444 716.018 882.554 713.672 882.554C711.55 882.554 709.761 883.265 708.305 884.686C706.868 886.106 706.071 888.007 705.917 890.386ZM732.905 906.641V901.377H738.169V906.641C738.169 908.575 737.827 910.133 737.142 911.314C736.458 912.512 735.371 913.437 733.881 914.087L732.597 912.11C733.573 911.682 734.292 911.049 734.754 910.21C735.216 909.388 735.473 908.198 735.525 906.641H732.905ZM778.767 903.277C777.055 904.732 775.403 905.759 773.811 906.358C772.236 906.957 770.541 907.257 768.727 907.257C765.731 907.257 763.429 906.529 761.819 905.074C760.21 903.602 759.406 901.727 759.406 899.451C759.406 898.115 759.705 896.9 760.304 895.804C760.921 894.692 761.717 893.801 762.692 893.134C763.685 892.466 764.798 891.961 766.031 891.619C766.938 891.379 768.307 891.148 770.139 890.925C773.871 890.48 776.619 889.95 778.382 889.333C778.399 888.7 778.408 888.298 778.408 888.126C778.408 886.243 777.971 884.917 777.098 884.146C775.917 883.102 774.162 882.58 771.834 882.58C769.66 882.58 768.051 882.965 767.006 883.735C765.979 884.489 765.217 885.833 764.721 887.767L760.202 887.151C760.612 885.216 761.289 883.658 762.23 882.477C763.172 881.279 764.533 880.363 766.313 879.73C768.093 879.079 770.156 878.754 772.502 878.754C774.83 878.754 776.721 879.028 778.176 879.576C779.632 880.123 780.702 880.817 781.386 881.656C782.071 882.477 782.55 883.521 782.824 884.788C782.978 885.576 783.055 886.997 783.055 889.051V895.214C783.055 899.511 783.15 902.232 783.338 903.379C783.543 904.509 783.937 905.596 784.519 906.641H779.692C779.212 905.682 778.904 904.561 778.767 903.277ZM778.382 892.954C776.704 893.639 774.188 894.221 770.832 894.7C768.932 894.974 767.588 895.282 766.801 895.625C766.013 895.967 765.406 896.472 764.978 897.14C764.55 897.79 764.336 898.518 764.336 899.322C764.336 900.555 764.798 901.582 765.722 902.404C766.664 903.225 768.034 903.636 769.831 903.636C771.611 903.636 773.195 903.251 774.582 902.481C775.968 901.693 776.987 900.623 777.637 899.271C778.134 898.227 778.382 896.686 778.382 894.649V892.954ZM790.245 906.641V879.37H794.405V883.248C796.408 880.252 799.301 878.754 803.085 878.754C804.728 878.754 806.234 879.053 807.604 879.653C808.991 880.235 810.026 881.005 810.711 881.964C811.396 882.922 811.875 884.061 812.149 885.379C812.32 886.235 812.406 887.733 812.406 889.873V906.641H807.784V890.052C807.784 888.169 807.604 886.766 807.244 885.841C806.885 884.9 806.243 884.155 805.319 883.607C804.411 883.042 803.341 882.76 802.109 882.76C800.14 882.76 798.437 883.385 796.999 884.634C795.578 885.884 794.867 888.255 794.867 891.747V906.641H790.245ZM837.211 906.641V903.2C835.482 905.905 832.94 907.257 829.585 907.257C827.411 907.257 825.408 906.658 823.576 905.459C821.761 904.261 820.349 902.592 819.339 900.452C818.346 898.295 817.85 895.821 817.85 893.031C817.85 890.309 818.303 887.844 819.211 885.636C820.118 883.41 821.479 881.707 823.293 880.526C825.108 879.344 827.137 878.754 829.379 878.754C831.023 878.754 832.486 879.105 833.77 879.807C835.054 880.491 836.098 881.39 836.903 882.503V868.996H841.499V906.641H837.211ZM822.6 893.031C822.6 896.523 823.336 899.134 824.808 900.863C826.281 902.592 828.018 903.457 830.021 903.457C832.041 903.457 833.753 902.635 835.157 900.991C836.578 899.331 837.288 896.806 837.288 893.416C837.288 889.684 836.569 886.945 835.131 885.199C833.693 883.453 831.921 882.58 829.816 882.58C827.761 882.58 826.041 883.419 824.654 885.096C823.285 886.774 822.6 889.419 822.6 893.031ZM44.2617 964.652L48.8068 965.242C48.3104 968.375 47.035 970.832 44.9807 972.612C42.9436 974.375 40.4356 975.257 37.4569 975.257C33.725 975.257 30.7206 974.041 28.4438 971.611C26.1841 969.163 25.0543 965.662 25.0543 961.108C25.0543 958.164 25.5422 955.587 26.5179 953.379C27.4937 951.171 28.9745 949.519 30.9603 948.423C32.9632 947.31 35.1373 946.754 37.4826 946.754C40.4442 946.754 42.8665 947.507 44.7496 949.014C46.6327 950.503 47.8396 952.626 48.3703 955.382L43.8765 956.075C43.4486 954.243 42.6868 952.865 41.5912 951.941C40.5127 951.016 39.2031 950.554 37.6624 950.554C35.3342 950.554 33.4426 951.393 31.9874 953.071C30.5323 954.731 29.8048 957.368 29.8048 960.98C29.8048 964.643 30.5067 967.305 31.9104 968.966C33.3142 970.626 35.1459 971.457 37.4056 971.457C39.2202 971.457 40.7352 970.9 41.9507 969.787C43.1661 968.675 43.9365 966.963 44.2617 964.652ZM70.5564 971.277C68.8445 972.732 67.1925 973.759 65.6005 974.358C64.0255 974.957 62.3308 975.257 60.5162 975.257C57.5203 975.257 55.2178 974.529 53.6087 973.074C51.9995 971.602 51.1949 969.727 51.1949 967.451C51.1949 966.115 51.4945 964.9 52.0936 963.804C52.7099 962.692 53.506 961.801 54.4817 961.134C55.4746 960.466 56.5874 959.961 57.8199 959.619C58.7272 959.379 60.0967 959.148 61.9285 958.925C65.6604 958.48 68.408 957.95 70.1712 957.333C70.1884 956.7 70.1969 956.298 70.1969 956.126C70.1969 954.243 69.7604 952.917 68.8873 952.146C67.7061 951.102 65.9514 950.58 63.6232 950.58C61.4491 950.58 59.84 950.965 58.7957 951.735C57.7686 952.489 57.0068 953.833 56.5103 955.767L51.9909 955.151C52.4018 953.216 53.078 951.658 54.0195 950.477C54.9611 949.279 56.322 948.363 58.1024 947.73C59.8828 947.079 61.9456 946.754 64.2909 946.754C66.6191 946.754 68.5107 947.028 69.9658 947.576C71.4209 948.123 72.4909 948.817 73.1756 949.656C73.8604 950.477 74.3397 951.521 74.6136 952.788C74.7677 953.576 74.8447 954.997 74.8447 957.051V963.214C74.8447 967.511 74.9389 970.232 75.1272 971.379C75.3326 972.509 75.7263 973.596 76.3084 974.641H71.4808C71.0015 973.682 70.6934 972.561 70.5564 971.277ZM70.1712 960.954C68.4936 961.639 65.9771 962.221 62.6218 962.7C60.7216 962.974 59.3778 963.282 58.5903 963.625C57.8028 963.967 57.1951 964.472 56.7671 965.14C56.3391 965.79 56.1252 966.518 56.1252 967.322C56.1252 968.555 56.5874 969.582 57.5118 970.404C58.4533 971.225 59.8228 971.636 61.6203 971.636C63.4007 971.636 64.9842 971.251 66.3708 970.481C67.7575 969.693 68.7761 968.623 69.4266 967.271C69.923 966.227 70.1712 964.686 70.1712 962.649V960.954ZM81.932 974.641V936.996H86.5541V974.641H81.932ZM93.744 974.641V947.37H97.8783V951.196C98.7342 949.861 99.8726 948.791 101.293 947.986C102.714 947.165 104.332 946.754 106.147 946.754C108.167 946.754 109.819 947.173 111.103 948.012C112.404 948.851 113.32 950.024 113.85 951.53C116.007 948.346 118.815 946.754 122.273 946.754C124.978 946.754 127.057 947.507 128.513 949.014C129.968 950.503 130.695 952.805 130.695 955.921V974.641H126.099V957.462C126.099 955.613 125.945 954.286 125.637 953.482C125.346 952.66 124.806 952.001 124.019 951.504C123.231 951.008 122.307 950.76 121.246 950.76C119.328 950.76 117.736 951.402 116.469 952.686C115.203 953.952 114.569 955.99 114.569 958.797V974.641H109.947V956.923C109.947 954.868 109.57 953.328 108.817 952.3C108.064 951.273 106.831 950.76 105.12 950.76C103.819 950.76 102.612 951.102 101.499 951.787C100.403 952.472 99.6073 953.473 99.1108 954.791C98.6144 956.109 98.3661 958.01 98.3661 960.492V974.641H93.744ZM138.861 974.641V969.377H144.125V974.641H138.861ZM173.989 974.641L164 936.996H169.11L174.836 961.673C175.453 964.258 175.983 966.826 176.429 969.377C177.387 965.354 177.952 963.034 178.123 962.418L185.288 936.996H191.296L196.689 956.049C198.041 960.774 199.017 965.217 199.616 969.377C200.095 966.997 200.72 964.267 201.491 961.185L207.397 936.996H212.404L202.081 974.641H197.279L189.345 945.958C188.677 943.561 188.283 942.089 188.164 941.541C187.77 943.27 187.402 944.742 187.059 945.958L179.073 974.641H173.989ZM234.179 965.859L238.955 966.449C238.202 969.24 236.807 971.405 234.77 972.946C232.733 974.487 230.131 975.257 226.964 975.257C222.975 975.257 219.808 974.033 217.463 971.585C215.134 969.12 213.97 965.67 213.97 961.236C213.97 956.649 215.152 953.088 217.514 950.554C219.876 948.021 222.941 946.754 226.707 946.754C230.353 946.754 233.332 947.995 235.643 950.477C237.954 952.959 239.11 956.452 239.11 960.954C239.11 961.228 239.101 961.639 239.084 962.187H218.747C218.918 965.182 219.765 967.476 221.289 969.068C222.812 970.66 224.712 971.457 226.989 971.457C228.684 971.457 230.131 971.011 231.329 970.121C232.527 969.231 233.477 967.81 234.179 965.859ZM219.003 958.386H234.231C234.025 956.092 233.443 954.372 232.484 953.225C231.012 951.444 229.104 950.554 226.758 950.554C224.635 950.554 222.847 951.265 221.391 952.686C219.953 954.106 219.157 956.007 219.003 958.386ZM264.454 974.641L256.109 947.37H260.885L265.224 963.111L266.842 968.966C266.911 968.675 267.381 966.8 268.255 963.342L272.594 947.37H277.345L281.428 963.188L282.789 968.401L284.355 963.137L289.028 947.37H293.522L284.997 974.641H280.195L275.855 958.309L274.803 953.661L269.282 974.641H264.454ZM315.22 971.277C313.508 972.732 311.856 973.759 310.264 974.358C308.689 974.957 306.995 975.257 305.18 975.257C302.184 975.257 299.882 974.529 298.273 973.074C296.663 971.602 295.859 969.727 295.859 967.451C295.859 966.115 296.158 964.9 296.758 963.804C297.374 962.692 298.17 961.801 299.146 961.134C300.139 960.466 301.251 959.961 302.484 959.619C303.391 959.379 304.761 959.148 306.592 958.925C310.324 958.48 313.072 957.95 314.835 957.333C314.852 956.7 314.861 956.298 314.861 956.126C314.861 954.243 314.424 952.917 313.551 952.146C312.37 951.102 310.615 950.58 308.287 950.58C306.113 950.58 304.504 950.965 303.46 951.735C302.432 952.489 301.671 953.833 301.174 955.767L296.655 955.151C297.066 953.216 297.742 951.658 298.683 950.477C299.625 949.279 300.986 948.363 302.766 947.73C304.547 947.079 306.61 946.754 308.955 946.754C311.283 946.754 313.175 947.028 314.63 947.576C316.085 948.123 317.155 948.817 317.84 949.656C318.524 950.477 319.004 951.521 319.278 952.788C319.432 953.576 319.509 954.997 319.509 957.051V963.214C319.509 967.511 319.603 970.232 319.791 971.379C319.997 972.509 320.39 973.596 320.972 974.641H316.145C315.665 973.682 315.357 972.561 315.22 971.277ZM314.835 960.954C313.158 961.639 310.641 962.221 307.286 962.7C305.386 962.974 304.042 963.282 303.254 963.625C302.467 963.967 301.859 964.472 301.431 965.14C301.003 965.79 300.789 966.518 300.789 967.322C300.789 968.555 301.251 969.582 302.176 970.404C303.117 971.225 304.487 971.636 306.284 971.636C308.065 971.636 309.648 971.251 311.035 970.481C312.421 969.693 313.44 968.623 314.09 967.271C314.587 966.227 314.835 964.686 314.835 962.649V960.954ZM326.699 974.641V947.37H330.858V951.248C332.861 948.252 335.755 946.754 339.538 946.754C341.181 946.754 342.688 947.053 344.057 947.653C345.444 948.235 346.48 949.005 347.164 949.964C347.849 950.922 348.328 952.061 348.602 953.379C348.773 954.235 348.859 955.733 348.859 957.873V974.641H344.237V958.052C344.237 956.169 344.057 954.766 343.698 953.841C343.338 952.9 342.696 952.155 341.772 951.607C340.865 951.042 339.795 950.76 338.562 950.76C336.593 950.76 334.89 951.385 333.452 952.634C332.031 953.884 331.321 956.255 331.321 959.747V974.641H326.699ZM366.064 970.506L366.731 974.589C365.43 974.863 364.266 975 363.239 975C361.561 975 360.26 974.735 359.336 974.204C358.411 973.673 357.761 972.98 357.384 972.124C357.008 971.251 356.819 969.428 356.819 966.655V950.965H353.43V947.37H356.819V940.617L361.416 937.843V947.37H366.064V950.965H361.416V966.911C361.416 968.23 361.493 969.077 361.647 969.454C361.818 969.83 362.083 970.13 362.443 970.352C362.82 970.575 363.35 970.686 364.035 970.686C364.549 970.686 365.225 970.626 366.064 970.506ZM395.337 970.506L396.005 974.589C394.704 974.863 393.54 975 392.512 975C390.835 975 389.534 974.735 388.609 974.204C387.685 973.673 387.034 972.98 386.658 972.124C386.281 971.251 386.093 969.428 386.093 966.655V950.965H382.703V947.37H386.093V940.617L390.689 937.843V947.37H395.337V950.965H390.689V966.911C390.689 968.23 390.766 969.077 390.92 969.454C391.092 969.83 391.357 970.13 391.716 970.352C392.093 970.575 392.624 970.686 393.308 970.686C393.822 970.686 394.498 970.626 395.337 970.506ZM398.162 961.005C398.162 955.955 399.565 952.215 402.373 949.784C404.718 947.764 407.577 946.754 410.949 946.754C414.699 946.754 417.763 947.986 420.142 950.452C422.522 952.9 423.712 956.289 423.712 960.62C423.712 964.13 423.181 966.894 422.12 968.914C421.075 970.917 419.543 972.475 417.523 973.588C415.52 974.701 413.329 975.257 410.949 975.257C407.132 975.257 404.042 974.033 401.68 971.585C399.334 969.137 398.162 965.61 398.162 961.005ZM402.912 961.005C402.912 964.498 403.674 967.117 405.198 968.863C406.721 970.592 408.638 971.457 410.949 971.457C413.243 971.457 415.152 970.583 416.676 968.837C418.199 967.091 418.961 964.429 418.961 960.851C418.961 957.479 418.191 954.928 416.65 953.199C415.127 951.453 413.226 950.58 410.949 950.58C408.638 950.58 406.721 951.444 405.198 953.173C403.674 954.902 402.912 957.513 402.912 961.005ZM443.792 985.092V947.37H448.003V950.914C448.996 949.527 450.118 948.491 451.367 947.807C452.617 947.105 454.132 946.754 455.912 946.754C458.241 946.754 460.295 947.353 462.075 948.551C463.856 949.75 465.199 951.444 466.107 953.636C467.014 955.81 467.468 958.198 467.468 960.8C467.468 963.59 466.963 966.107 465.953 968.349C464.96 970.575 463.505 972.287 461.587 973.485C459.687 974.666 457.684 975.257 455.579 975.257C454.038 975.257 452.651 974.932 451.419 974.281C450.203 973.631 449.202 972.809 448.414 971.816V985.092H443.792ZM447.978 961.159C447.978 964.669 448.688 967.262 450.109 968.94C451.53 970.618 453.25 971.457 455.27 971.457C457.325 971.457 459.079 970.592 460.534 968.863C462.007 967.117 462.743 964.421 462.743 960.774C462.743 957.299 462.024 954.697 460.586 952.968C459.165 951.239 457.462 950.375 455.476 950.375C453.507 950.375 451.761 951.299 450.237 953.148C448.731 954.98 447.978 957.65 447.978 961.159ZM473.014 974.641V947.37H477.174V951.504C478.235 949.57 479.211 948.295 480.101 947.678C481.009 947.062 482.002 946.754 483.08 946.754C484.638 946.754 486.221 947.25 487.831 948.243L486.239 952.532C485.109 951.864 483.979 951.53 482.849 951.53C481.839 951.53 480.932 951.838 480.127 952.454C479.323 953.054 478.749 953.892 478.407 954.971C477.893 956.614 477.636 958.412 477.636 960.363V974.641H473.014ZM488.858 961.005C488.858 955.955 490.262 952.215 493.069 949.784C495.414 947.764 498.273 946.754 501.646 946.754C505.395 946.754 508.459 947.986 510.838 950.452C513.218 952.9 514.408 956.289 514.408 960.62C514.408 964.13 513.877 966.894 512.816 968.914C511.771 970.917 510.239 972.475 508.219 973.588C506.216 974.701 504.025 975.257 501.646 975.257C497.828 975.257 494.738 974.033 492.376 971.585C490.03 969.137 488.858 965.61 488.858 961.005ZM493.608 961.005C493.608 964.498 494.37 967.117 495.894 968.863C497.417 970.592 499.335 971.457 501.646 971.457C503.94 971.457 505.848 970.583 507.372 968.837C508.895 967.091 509.657 964.429 509.657 960.851C509.657 957.479 508.887 954.928 507.346 953.199C505.823 951.453 503.922 950.58 501.646 950.58C499.335 950.58 497.417 951.444 495.894 953.173C494.37 954.902 493.608 957.513 493.608 961.005ZM527.427 974.641L517.053 947.37H521.932L527.786 963.702C528.42 965.465 529.002 967.297 529.532 969.197C529.943 967.759 530.517 966.03 531.253 964.01L537.313 947.37H542.063L531.741 974.641H527.427ZM546.172 942.312V936.996H550.794V942.312H546.172ZM546.172 974.641V947.37H550.794V974.641H546.172ZM575.548 974.641V971.2C573.819 973.905 571.277 975.257 567.922 975.257C565.748 975.257 563.745 974.658 561.913 973.459C560.098 972.261 558.686 970.592 557.676 968.452C556.683 966.295 556.187 963.821 556.187 961.031C556.187 958.309 556.64 955.844 557.548 953.636C558.455 951.41 559.816 949.707 561.63 948.526C563.445 947.344 565.474 946.754 567.716 946.754C569.36 946.754 570.823 947.105 572.107 947.807C573.391 948.491 574.435 949.39 575.24 950.503V936.996H579.836V974.641H575.548ZM560.937 961.031C560.937 964.523 561.673 967.134 563.145 968.863C564.618 970.592 566.355 971.457 568.358 971.457C570.378 971.457 572.09 970.635 573.494 968.991C574.915 967.331 575.625 964.806 575.625 961.416C575.625 957.684 574.906 954.945 573.468 953.199C572.03 951.453 570.258 950.58 568.153 950.58C566.098 950.58 564.378 951.419 562.991 953.096C561.622 954.774 560.937 957.419 560.937 961.031ZM605.797 965.859L610.573 966.449C609.82 969.24 608.425 971.405 606.388 972.946C604.351 974.487 601.749 975.257 598.582 975.257C594.593 975.257 591.426 974.033 589.081 971.585C586.752 969.12 585.588 965.67 585.588 961.236C585.588 956.649 586.77 953.088 589.132 950.554C591.494 948.021 594.559 946.754 598.325 946.754C601.971 946.754 604.95 947.995 607.261 950.477C609.572 952.959 610.728 956.452 610.728 960.954C610.728 961.228 610.719 961.639 610.702 962.187H590.365C590.536 965.182 591.383 967.476 592.907 969.068C594.43 970.66 596.33 971.457 598.607 971.457C600.302 971.457 601.749 971.011 602.947 970.121C604.145 969.231 605.095 967.81 605.797 965.859ZM590.621 958.386H605.849C605.643 956.092 605.061 954.372 604.102 953.225C602.63 951.444 600.722 950.554 598.376 950.554C596.253 950.554 594.465 951.265 593.009 952.686C591.571 954.106 590.775 956.007 590.621 958.386ZM648.834 971.277C647.122 972.732 645.47 973.759 643.878 974.358C642.303 974.957 640.609 975.257 638.794 975.257C635.798 975.257 633.496 974.529 631.887 973.074C630.277 971.602 629.473 969.727 629.473 967.451C629.473 966.115 629.772 964.9 630.372 963.804C630.988 962.692 631.784 961.801 632.76 961.134C633.753 960.466 634.865 959.961 636.098 959.619C637.005 959.379 638.375 959.148 640.206 958.925C643.938 958.48 646.686 957.95 648.449 957.333C648.466 956.7 648.475 956.298 648.475 956.126C648.475 954.243 648.038 952.917 647.165 952.146C645.984 951.102 644.229 950.58 641.901 950.58C639.727 950.58 638.118 950.965 637.074 951.735C636.046 952.489 635.285 953.833 634.788 955.767L630.269 955.151C630.68 953.216 631.356 951.658 632.297 950.477C633.239 949.279 634.6 948.363 636.38 947.73C638.161 947.079 640.223 946.754 642.569 946.754C644.897 946.754 646.789 947.028 648.244 947.576C649.699 948.123 650.769 948.817 651.453 949.656C652.138 950.477 652.618 951.521 652.891 952.788C653.046 953.576 653.123 954.997 653.123 957.051V963.214C653.123 967.511 653.217 970.232 653.405 971.379C653.61 972.509 654.004 973.596 654.586 974.641H649.759C649.279 973.682 648.971 972.561 648.834 971.277ZM648.449 960.954C646.771 961.639 644.255 962.221 640.9 962.7C638.999 962.974 637.656 963.282 636.868 963.625C636.081 963.967 635.473 964.472 635.045 965.14C634.617 965.79 634.403 966.518 634.403 967.322C634.403 968.555 634.865 969.582 635.79 970.404C636.731 971.225 638.101 971.636 639.898 971.636C641.679 971.636 643.262 971.251 644.649 970.481C646.035 969.693 647.054 968.623 647.704 967.271C648.201 966.227 648.449 964.686 648.449 962.649V960.954ZM673.1 966.501L677.671 965.782C677.928 967.613 678.638 969.017 679.802 969.993C680.984 970.969 682.627 971.457 684.733 971.457C686.855 971.457 688.43 971.029 689.458 970.173C690.485 969.3 690.998 968.281 690.998 967.117C690.998 966.073 690.545 965.251 689.637 964.652C689.004 964.241 687.429 963.719 684.912 963.085C681.523 962.229 679.169 961.493 677.851 960.877C676.55 960.244 675.557 959.379 674.872 958.283C674.205 957.171 673.871 955.947 673.871 954.611C673.871 953.396 674.145 952.275 674.692 951.248C675.257 950.203 676.019 949.339 676.978 948.654C677.697 948.123 678.673 947.678 679.905 947.319C681.155 946.942 682.49 946.754 683.911 946.754C686.051 946.754 687.925 947.062 689.535 947.678C691.161 948.295 692.359 949.133 693.13 950.195C693.9 951.239 694.431 952.643 694.722 954.406L690.202 955.022C689.997 953.619 689.398 952.523 688.405 951.735C687.429 950.948 686.042 950.554 684.245 950.554C682.122 950.554 680.607 950.905 679.7 951.607C678.792 952.309 678.339 953.131 678.339 954.072C678.339 954.671 678.527 955.211 678.904 955.69C679.28 956.186 679.871 956.597 680.676 956.923C681.138 957.094 682.499 957.487 684.758 958.104C688.028 958.977 690.305 959.696 691.589 960.261C692.89 960.809 693.908 961.613 694.645 962.674C695.381 963.736 695.749 965.054 695.749 966.629C695.749 968.17 695.295 969.625 694.388 970.994C693.498 972.347 692.205 973.4 690.51 974.153C688.816 974.889 686.898 975.257 684.758 975.257C681.215 975.257 678.51 974.521 676.644 973.049C674.795 971.576 673.614 969.394 673.1 966.501ZM719.039 971.277C717.327 972.732 715.675 973.759 714.083 974.358C712.508 974.957 710.813 975.257 708.999 975.257C706.003 975.257 703.7 974.529 702.091 973.074C700.482 971.602 699.678 969.727 699.678 967.451C699.678 966.115 699.977 964.9 700.576 963.804C701.193 962.692 701.989 961.801 702.964 961.134C703.957 960.466 705.07 959.961 706.303 959.619C707.21 959.379 708.579 959.148 710.411 958.925C714.143 958.48 716.891 957.95 718.654 957.333C718.671 956.7 718.68 956.298 718.68 956.126C718.68 954.243 718.243 952.917 717.37 952.146C716.189 951.102 714.434 950.58 712.106 950.58C709.932 950.58 708.323 950.965 707.278 951.735C706.251 952.489 705.489 953.833 704.993 955.767L700.474 955.151C700.884 953.216 701.561 951.658 702.502 950.477C703.444 949.279 704.805 948.363 706.585 947.73C708.365 947.079 710.428 946.754 712.774 946.754C715.102 946.754 716.993 947.028 718.448 947.576C719.904 948.123 720.974 948.817 721.658 949.656C722.343 950.477 722.822 951.521 723.096 952.788C723.25 953.576 723.327 954.997 723.327 957.051V963.214C723.327 967.511 723.422 970.232 723.61 971.379C723.815 972.509 724.209 973.596 724.791 974.641H719.963C719.484 973.682 719.176 972.561 719.039 971.277ZM718.654 960.954C716.976 961.639 714.46 962.221 711.104 962.7C709.204 962.974 707.86 963.282 707.073 963.625C706.285 963.967 705.678 964.472 705.25 965.14C704.822 965.79 704.608 966.518 704.608 967.322C704.608 968.555 705.07 969.582 705.994 970.404C706.936 971.225 708.305 971.636 710.103 971.636C711.883 971.636 713.467 971.251 714.853 970.481C716.24 969.693 717.259 968.623 717.909 967.271C718.406 966.227 718.654 964.686 718.654 962.649V960.954ZM731.621 974.641V950.965H727.539V947.37H731.621V944.468C731.621 942.637 731.784 941.276 732.109 940.386C732.554 939.187 733.333 938.22 734.446 937.484C735.576 936.731 737.151 936.354 739.171 936.354C740.472 936.354 741.91 936.508 743.485 936.816L742.792 940.848C741.833 940.677 740.926 940.591 740.07 940.591C738.666 940.591 737.673 940.891 737.091 941.49C736.509 942.089 736.218 943.21 736.218 944.854V947.37H741.533V950.965H736.218V974.641H731.621ZM763.822 965.859L768.598 966.449C767.845 969.24 766.45 971.405 764.413 972.946C762.376 974.487 759.774 975.257 756.607 975.257C752.618 975.257 749.451 974.033 747.106 971.585C744.777 969.12 743.613 965.67 743.613 961.236C743.613 956.649 744.795 953.088 747.157 950.554C749.519 948.021 752.584 946.754 756.35 946.754C759.996 946.754 762.975 947.995 765.286 950.477C767.597 952.959 768.752 956.452 768.752 960.954C768.752 961.228 768.744 961.639 768.727 962.187H748.39C748.561 965.182 749.408 967.476 750.932 969.068C752.455 970.66 754.355 971.457 756.632 971.457C758.327 971.457 759.774 971.011 760.972 970.121C762.17 969.231 763.12 967.81 763.822 965.859ZM748.646 958.386H763.874C763.668 956.092 763.086 954.372 762.127 953.225C760.655 951.444 758.746 950.554 756.401 950.554C754.278 950.554 752.489 951.265 751.034 952.686C749.596 954.106 748.8 956.007 748.646 958.386ZM26.4666 1042.64V1005H31.0887V1018.5C33.2457 1016 35.9676 1014.75 39.2544 1014.75C41.2745 1014.75 43.0292 1015.16 44.5185 1015.96C46.0079 1016.75 47.0692 1017.84 47.7026 1019.25C48.3532 1020.65 48.6784 1022.69 48.6784 1025.36V1042.64H44.0563V1025.36C44.0563 1023.05 43.5513 1021.37 42.5413 1020.33C41.5484 1019.26 40.1361 1018.73 38.3043 1018.73C36.9348 1018.73 35.6423 1019.09 34.4269 1019.81C33.2286 1020.51 32.3726 1021.47 31.8591 1022.69C31.3455 1023.9 31.0887 1025.58 31.0887 1027.72V1042.64H26.4666ZM73.5351 1039.28C71.8232 1040.73 70.1712 1041.76 68.5792 1042.36C67.0042 1042.96 65.3095 1043.26 63.4949 1043.26C60.499 1043.26 58.1965 1042.53 56.5874 1041.07C54.9782 1039.6 54.1736 1037.73 54.1736 1035.45C54.1736 1034.12 54.4732 1032.9 55.0723 1031.8C55.6886 1030.69 56.4847 1029.8 57.4604 1029.13C58.4533 1028.47 59.5661 1027.96 60.7986 1027.62C61.7059 1027.38 63.0754 1027.15 64.9072 1026.93C68.6391 1026.48 71.3867 1025.95 73.1499 1025.33C73.1671 1024.7 73.1756 1024.3 73.1756 1024.13C73.1756 1022.24 72.7391 1020.92 71.866 1020.15C70.6848 1019.1 68.9301 1018.58 66.6019 1018.58C64.4278 1018.58 62.8187 1018.97 61.7744 1019.74C60.7473 1020.49 59.9855 1021.83 59.489 1023.77L54.9696 1023.15C55.3805 1021.22 56.0567 1019.66 56.9982 1018.48C57.9398 1017.28 59.3007 1016.36 61.0811 1015.73C62.8615 1015.08 64.9243 1014.75 67.2696 1014.75C69.5978 1014.75 71.4894 1015.03 72.9445 1015.58C74.3996 1016.12 75.4696 1016.82 76.1543 1017.66C76.8391 1018.48 77.3184 1019.52 77.5923 1020.79C77.7464 1021.58 77.8234 1023 77.8234 1025.05V1031.21C77.8234 1035.51 77.9176 1038.23 78.1059 1039.38C78.3113 1040.51 78.705 1041.6 79.2871 1042.64H74.4595C73.9802 1041.68 73.6721 1040.56 73.5351 1039.28ZM73.1499 1028.95C71.4723 1029.64 68.9558 1030.22 65.6005 1030.7C63.7003 1030.97 62.3564 1031.28 61.569 1031.62C60.7815 1031.97 60.1738 1032.47 59.7458 1033.14C59.3178 1033.79 59.1038 1034.52 59.1038 1035.32C59.1038 1036.55 59.5661 1037.58 60.4905 1038.4C61.432 1039.23 62.8015 1039.64 64.599 1039.64C66.3794 1039.64 67.9629 1039.25 69.3495 1038.48C70.7362 1037.69 71.7547 1036.62 72.4053 1035.27C72.9017 1034.23 73.1499 1032.69 73.1499 1030.65V1028.95ZM84.962 1042.64V1015.37H89.1219V1019.5C90.1833 1017.57 91.1591 1016.29 92.0493 1015.68C92.9566 1015.06 93.9495 1014.75 95.028 1014.75C96.5858 1014.75 98.1693 1015.25 99.7785 1016.24L98.1864 1020.53C97.0565 1019.86 95.9267 1019.53 94.7968 1019.53C93.7868 1019.53 92.8795 1019.84 92.0749 1020.45C91.2703 1021.05 90.6969 1021.89 90.3545 1022.97C89.8409 1024.61 89.5841 1026.41 89.5841 1028.36V1042.64H84.962ZM106.789 1042.64H102.5V1005H107.122V1018.43C109.074 1015.98 111.565 1014.75 114.595 1014.75C116.273 1014.75 117.856 1015.1 119.345 1015.78C120.852 1016.45 122.084 1017.4 123.043 1018.63C124.019 1019.85 124.781 1021.32 125.328 1023.05C125.876 1024.78 126.15 1026.63 126.15 1028.59C126.15 1033.27 124.995 1036.88 122.684 1039.43C120.373 1041.98 117.599 1043.26 114.364 1043.26C111.145 1043.26 108.62 1041.91 106.789 1039.23V1042.64ZM106.737 1028.8C106.737 1032.07 107.182 1034.43 108.073 1035.89C109.528 1038.27 111.496 1039.46 113.979 1039.46C115.999 1039.46 117.745 1038.58 119.217 1036.84C120.689 1035.07 121.425 1032.45 121.425 1028.98C121.425 1025.42 120.715 1022.79 119.294 1021.1C117.89 1019.4 116.187 1018.55 114.184 1018.55C112.164 1018.55 110.418 1019.44 108.946 1021.2C107.473 1022.95 106.737 1025.48 106.737 1028.8ZM130.079 1029.01C130.079 1023.96 131.483 1020.21 134.29 1017.78C136.636 1015.76 139.494 1014.75 142.867 1014.75C146.616 1014.75 149.68 1015.99 152.06 1018.45C154.439 1020.9 155.629 1024.29 155.629 1028.62C155.629 1032.13 155.098 1034.89 154.037 1036.91C152.993 1038.92 151.461 1040.48 149.441 1041.59C147.438 1042.7 145.246 1043.26 142.867 1043.26C139.049 1043.26 135.959 1042.03 133.597 1039.58C131.252 1037.14 130.079 1033.61 130.079 1029.01ZM134.829 1029.01C134.829 1032.5 135.591 1035.12 137.115 1036.86C138.638 1038.59 140.556 1039.46 142.867 1039.46C145.161 1039.46 147.07 1038.58 148.593 1036.84C150.117 1035.09 150.879 1032.43 150.879 1028.85C150.879 1025.48 150.108 1022.93 148.567 1021.2C147.044 1019.45 145.144 1018.58 142.867 1018.58C140.556 1018.58 138.638 1019.44 137.115 1021.17C135.591 1022.9 134.829 1025.51 134.829 1029.01ZM161.021 1042.64V1015.37H165.181V1019.5C166.243 1017.57 167.219 1016.29 168.109 1015.68C169.016 1015.06 170.009 1014.75 171.087 1014.75C172.645 1014.75 174.229 1015.25 175.838 1016.24L174.246 1020.53C173.116 1019.86 171.986 1019.53 170.856 1019.53C169.846 1019.53 168.939 1019.84 168.134 1020.45C167.33 1021.05 166.756 1021.89 166.414 1022.97C165.9 1024.61 165.644 1026.41 165.644 1028.36V1042.64H161.021ZM194.326 1042.64V1018.97H190.244V1015.37H194.326V1012.47C194.326 1010.64 194.489 1009.28 194.814 1008.39C195.259 1007.19 196.038 1006.22 197.151 1005.48C198.281 1004.73 199.856 1004.35 201.876 1004.35C203.177 1004.35 204.615 1004.51 206.19 1004.82L205.496 1008.85C204.538 1008.68 203.631 1008.59 202.775 1008.59C201.371 1008.59 200.378 1008.89 199.796 1009.49C199.214 1010.09 198.923 1011.21 198.923 1012.85V1015.37H204.238V1018.97H198.923V1042.64H194.326ZM206.138 1029.01C206.138 1023.96 207.542 1020.21 210.35 1017.78C212.695 1015.76 215.554 1014.75 218.926 1014.75C222.675 1014.75 225.74 1015.99 228.119 1018.45C230.499 1020.9 231.688 1024.29 231.688 1028.62C231.688 1032.13 231.158 1034.89 230.096 1036.91C229.052 1038.92 227.52 1040.48 225.5 1041.59C223.497 1042.7 221.306 1043.26 218.926 1043.26C215.109 1043.26 212.019 1042.03 209.656 1039.58C207.311 1037.14 206.138 1033.61 206.138 1029.01ZM210.889 1029.01C210.889 1032.5 211.651 1035.12 213.174 1036.86C214.698 1038.59 216.615 1039.46 218.926 1039.46C221.22 1039.46 223.129 1038.58 224.653 1036.84C226.176 1035.09 226.938 1032.43 226.938 1028.85C226.938 1025.48 226.168 1022.93 224.627 1021.2C223.103 1019.45 221.203 1018.58 218.926 1018.58C216.615 1018.58 214.698 1019.44 213.174 1021.17C211.651 1022.9 210.889 1025.51 210.889 1029.01ZM237.081 1042.64V1015.37H241.241V1019.5C242.302 1017.57 243.278 1016.29 244.168 1015.68C245.075 1015.06 246.068 1014.75 247.147 1014.75C248.705 1014.75 250.288 1015.25 251.897 1016.24L250.305 1020.53C249.175 1019.86 248.046 1019.53 246.916 1019.53C245.906 1019.53 244.998 1019.84 244.194 1020.45C243.389 1021.05 242.816 1021.89 242.473 1022.97C241.96 1024.61 241.703 1026.41 241.703 1028.36V1042.64H237.081ZM267.561 1029.01C267.561 1023.96 268.965 1020.21 271.772 1017.78C274.118 1015.76 276.977 1014.75 280.349 1014.75C284.098 1014.75 287.162 1015.99 289.542 1018.45C291.921 1020.9 293.111 1024.29 293.111 1028.62C293.111 1032.13 292.581 1034.89 291.519 1036.91C290.475 1038.92 288.943 1040.48 286.923 1041.59C284.92 1042.7 282.729 1043.26 280.349 1043.26C276.532 1043.26 273.442 1042.03 271.079 1039.58C268.734 1037.14 267.561 1033.61 267.561 1029.01ZM272.312 1029.01C272.312 1032.5 273.074 1035.12 274.597 1036.86C276.121 1038.59 278.038 1039.46 280.349 1039.46C282.643 1039.46 284.552 1038.58 286.075 1036.84C287.599 1035.09 288.361 1032.43 288.361 1028.85C288.361 1025.48 287.59 1022.93 286.05 1021.2C284.526 1019.45 282.626 1018.58 280.349 1018.58C278.038 1018.58 276.121 1019.44 274.597 1021.17C273.074 1022.9 272.312 1025.51 272.312 1029.01ZM316.427 1042.64V1038.63C314.304 1041.72 311.42 1043.26 307.774 1043.26C306.164 1043.26 304.658 1042.95 303.254 1042.33C301.868 1041.72 300.832 1040.95 300.147 1040.02C299.479 1039.08 299.009 1037.93 298.735 1036.58C298.546 1035.67 298.452 1034.24 298.452 1032.27V1015.37H303.074V1030.49C303.074 1032.91 303.169 1034.53 303.357 1035.37C303.648 1036.59 304.264 1037.55 305.206 1038.25C306.147 1038.93 307.311 1039.28 308.698 1039.28C310.085 1039.28 311.386 1038.93 312.601 1038.22C313.817 1037.5 314.673 1036.54 315.169 1035.32C315.683 1034.09 315.939 1032.31 315.939 1029.98V1015.37H320.561V1042.64H316.427ZM327.777 1042.64V1015.37H331.937V1019.5C332.998 1017.57 333.974 1016.29 334.864 1015.68C335.772 1015.06 336.765 1014.75 337.843 1014.75C339.401 1014.75 340.984 1015.25 342.594 1016.24L341.001 1020.53C339.872 1019.86 338.742 1019.53 337.612 1019.53C336.602 1019.53 335.695 1019.84 334.89 1020.45C334.085 1021.05 333.512 1021.89 333.17 1022.97C332.656 1024.61 332.399 1026.41 332.399 1028.36V1042.64H327.777ZM370.069 1038.51L370.737 1042.59C369.436 1042.86 368.272 1043 367.245 1043C365.567 1043 364.266 1042.73 363.342 1042.2C362.417 1041.67 361.767 1040.98 361.39 1040.12C361.014 1039.25 360.825 1037.43 360.825 1034.65V1018.97H357.436V1015.37H360.825V1008.62L365.422 1005.84V1015.37H370.069V1018.97H365.422V1034.91C365.422 1036.23 365.499 1037.08 365.653 1037.45C365.824 1037.83 366.089 1038.13 366.449 1038.35C366.825 1038.57 367.356 1038.69 368.041 1038.69C368.554 1038.69 369.231 1038.63 370.069 1038.51ZM393.283 1033.86L398.059 1034.45C397.306 1037.24 395.91 1039.41 393.873 1040.95C391.836 1042.49 389.234 1043.26 386.067 1043.26C382.078 1043.26 378.911 1042.03 376.566 1039.58C374.238 1037.12 373.074 1033.67 373.074 1029.24C373.074 1024.65 374.255 1021.09 376.617 1018.55C378.98 1016.02 382.044 1014.75 385.81 1014.75C389.457 1014.75 392.435 1015.99 394.746 1018.48C397.057 1020.96 398.213 1024.45 398.213 1028.95C398.213 1029.23 398.204 1029.64 398.187 1030.19H377.85C378.021 1033.18 378.869 1035.48 380.392 1037.07C381.916 1038.66 383.816 1039.46 386.093 1039.46C387.788 1039.46 389.234 1039.01 390.432 1038.12C391.631 1037.23 392.581 1035.81 393.283 1033.86ZM378.107 1026.39H393.334C393.129 1024.09 392.547 1022.37 391.588 1021.22C390.116 1019.44 388.207 1018.55 385.862 1018.55C383.739 1018.55 381.95 1019.26 380.495 1020.69C379.057 1022.11 378.261 1024.01 378.107 1026.39ZM403.888 1042.64V1015.37H408.048V1019.25C410.051 1016.25 412.944 1014.75 416.727 1014.75C418.371 1014.75 419.877 1015.05 421.247 1015.65C422.633 1016.23 423.669 1017.01 424.354 1017.96C425.038 1018.92 425.518 1020.06 425.792 1021.38C425.963 1022.23 426.048 1023.73 426.048 1025.87V1042.64H421.426V1026.05C421.426 1024.17 421.247 1022.77 420.887 1021.84C420.528 1020.9 419.886 1020.15 418.961 1019.61C418.054 1019.04 416.984 1018.76 415.751 1018.76C413.783 1018.76 412.079 1019.38 410.641 1020.63C409.22 1021.88 408.51 1024.25 408.51 1027.75V1042.64H403.888ZM450.956 1039.28C449.245 1040.73 447.593 1041.76 446 1042.36C444.426 1042.96 442.731 1043.26 440.916 1043.26C437.92 1043.26 435.618 1042.53 434.009 1041.07C432.399 1039.6 431.595 1037.73 431.595 1035.45C431.595 1034.12 431.894 1032.9 432.494 1031.8C433.11 1030.69 433.906 1029.8 434.882 1029.13C435.875 1028.47 436.987 1027.96 438.22 1027.62C439.127 1027.38 440.497 1027.15 442.328 1026.93C446.06 1026.48 448.808 1025.95 450.571 1025.33C450.588 1024.7 450.597 1024.3 450.597 1024.13C450.597 1022.24 450.16 1020.92 449.287 1020.15C448.106 1019.1 446.351 1018.58 444.023 1018.58C441.849 1018.58 440.24 1018.97 439.196 1019.74C438.169 1020.49 437.407 1021.83 436.91 1023.77L432.391 1023.15C432.802 1021.22 433.478 1019.66 434.42 1018.48C435.361 1017.28 436.722 1016.36 438.502 1015.73C440.283 1015.08 442.346 1014.75 444.691 1014.75C447.019 1014.75 448.911 1015.03 450.366 1015.58C451.821 1016.12 452.891 1016.82 453.576 1017.66C454.26 1018.48 454.74 1019.52 455.014 1020.79C455.168 1021.58 455.245 1023 455.245 1025.05V1031.21C455.245 1035.51 455.339 1038.23 455.527 1039.38C455.733 1040.51 456.126 1041.6 456.708 1042.64H451.881C451.402 1041.68 451.093 1040.56 450.956 1039.28ZM450.571 1028.95C448.894 1029.64 446.377 1030.22 443.022 1030.7C441.122 1030.97 439.778 1031.28 438.99 1031.62C438.203 1031.97 437.595 1032.47 437.167 1033.14C436.739 1033.79 436.525 1034.52 436.525 1035.32C436.525 1036.55 436.987 1037.58 437.912 1038.4C438.853 1039.23 440.223 1039.64 442.02 1039.64C443.801 1039.64 445.384 1039.25 446.771 1038.48C448.157 1037.69 449.176 1036.62 449.827 1035.27C450.323 1034.23 450.571 1032.69 450.571 1030.65V1028.95ZM462.435 1042.64V1015.37H466.595V1019.25C468.598 1016.25 471.491 1014.75 475.274 1014.75C476.917 1014.75 478.424 1015.05 479.793 1015.65C481.18 1016.23 482.216 1017.01 482.9 1017.96C483.585 1018.92 484.064 1020.06 484.338 1021.38C484.51 1022.23 484.595 1023.73 484.595 1025.87V1042.64H479.973V1026.05C479.973 1024.17 479.793 1022.77 479.434 1021.84C479.074 1020.9 478.432 1020.15 477.508 1019.61C476.601 1019.04 475.531 1018.76 474.298 1018.76C472.329 1018.76 470.626 1019.38 469.188 1020.63C467.767 1021.88 467.057 1024.25 467.057 1027.75V1042.64H462.435ZM501.8 1038.51L502.467 1042.59C501.166 1042.86 500.002 1043 498.975 1043C497.297 1043 495.996 1042.73 495.072 1042.2C494.148 1041.67 493.497 1040.98 493.12 1040.12C492.744 1039.25 492.555 1037.43 492.555 1034.65V1018.97H489.166V1015.37H492.555V1008.62L497.152 1005.84V1015.37H501.8V1018.97H497.152V1034.91C497.152 1036.23 497.229 1037.08 497.383 1037.45C497.554 1037.83 497.82 1038.13 498.179 1038.35C498.556 1038.57 499.086 1038.69 499.771 1038.69C500.285 1038.69 500.961 1038.63 501.8 1038.51ZM504.496 1034.5L509.067 1033.78C509.323 1035.61 510.034 1037.02 511.198 1037.99C512.379 1038.97 514.023 1039.46 516.128 1039.46C518.251 1039.46 519.826 1039.03 520.853 1038.17C521.88 1037.3 522.394 1036.28 522.394 1035.12C522.394 1034.07 521.94 1033.25 521.033 1032.65C520.399 1032.24 518.824 1031.72 516.308 1031.09C512.918 1030.23 510.565 1029.49 509.246 1028.88C507.945 1028.24 506.953 1027.38 506.268 1026.28C505.6 1025.17 505.266 1023.95 505.266 1022.61C505.266 1021.4 505.54 1020.27 506.088 1019.25C506.653 1018.2 507.415 1017.34 508.373 1016.65C509.092 1016.12 510.068 1015.68 511.301 1015.32C512.55 1014.94 513.886 1014.75 515.307 1014.75C517.446 1014.75 519.321 1015.06 520.93 1015.68C522.556 1016.29 523.755 1017.13 524.525 1018.19C525.295 1019.24 525.826 1020.64 526.117 1022.41L521.598 1023.02C521.392 1021.62 520.793 1020.52 519.8 1019.74C518.824 1018.95 517.438 1018.55 515.64 1018.55C513.518 1018.55 512.003 1018.91 511.095 1019.61C510.188 1020.31 509.734 1021.13 509.734 1022.07C509.734 1022.67 509.923 1023.21 510.299 1023.69C510.676 1024.19 511.266 1024.6 512.071 1024.92C512.533 1025.09 513.894 1025.49 516.154 1026.1C519.424 1026.98 521.7 1027.7 522.984 1028.26C524.285 1028.81 525.304 1029.61 526.04 1030.67C526.776 1031.74 527.144 1033.05 527.144 1034.63C527.144 1036.17 526.691 1037.62 525.783 1038.99C524.893 1040.35 523.601 1041.4 521.906 1042.15C520.211 1042.89 518.294 1043.26 516.154 1043.26C512.61 1043.26 509.906 1042.52 508.04 1041.05C506.191 1039.58 505.01 1037.39 504.496 1034.5ZM533.846 1042.64V1037.38H539.11V1042.64C539.11 1044.58 538.768 1046.13 538.083 1047.31C537.399 1048.51 536.311 1049.44 534.822 1050.09L533.538 1048.11C534.514 1047.68 535.233 1047.05 535.695 1046.21C536.157 1045.39 536.414 1044.2 536.466 1042.64H533.846ZM572.004 1038.51L572.672 1042.59C571.371 1042.86 570.207 1043 569.18 1043C567.502 1043 566.201 1042.73 565.277 1042.2C564.352 1041.67 563.702 1040.98 563.325 1040.12C562.949 1039.25 562.76 1037.43 562.76 1034.65V1018.97H559.371V1015.37H562.76V1008.62L567.357 1005.84V1015.37H572.004V1018.97H567.357V1034.91C567.357 1036.23 567.434 1037.08 567.588 1037.45C567.759 1037.83 568.024 1038.13 568.384 1038.35C568.76 1038.57 569.291 1038.69 569.976 1038.69C570.489 1038.69 571.166 1038.63 572.004 1038.51ZM576.55 1042.64V1005H581.172V1018.5C583.329 1016 586.051 1014.75 589.337 1014.75C591.357 1014.75 593.112 1015.16 594.602 1015.96C596.091 1016.75 597.152 1017.84 597.786 1019.25C598.436 1020.65 598.761 1022.69 598.761 1025.36V1042.64H594.139V1025.36C594.139 1023.05 593.634 1021.37 592.624 1020.33C591.631 1019.26 590.219 1018.73 588.387 1018.73C587.018 1018.73 585.725 1019.09 584.51 1019.81C583.312 1020.51 582.456 1021.47 581.942 1022.69C581.428 1023.9 581.172 1025.58 581.172 1027.72V1042.64H576.55ZM624.491 1033.86L629.267 1034.45C628.514 1037.24 627.119 1039.41 625.082 1040.95C623.045 1042.49 620.443 1043.26 617.276 1043.26C613.287 1043.26 610.12 1042.03 607.775 1039.58C605.446 1037.12 604.282 1033.67 604.282 1029.24C604.282 1024.65 605.463 1021.09 607.826 1018.55C610.188 1016.02 613.253 1014.75 617.019 1014.75C620.665 1014.75 623.644 1015.99 625.955 1018.48C628.266 1020.96 629.421 1024.45 629.421 1028.95C629.421 1029.23 629.413 1029.64 629.396 1030.19H609.058C609.23 1033.18 610.077 1035.48 611.601 1037.07C613.124 1038.66 615.024 1039.46 617.301 1039.46C618.996 1039.46 620.443 1039.01 621.641 1038.12C622.839 1037.23 623.789 1035.81 624.491 1033.86ZM609.315 1026.39H624.543C624.337 1024.09 623.755 1022.37 622.796 1021.22C621.324 1019.44 619.415 1018.55 617.07 1018.55C614.947 1018.55 613.158 1019.26 611.703 1020.69C610.265 1022.11 609.469 1024.01 609.315 1026.39ZM653.996 1042.64H649.707V1005H654.33V1018.43C656.281 1015.98 658.772 1014.75 661.802 1014.75C663.48 1014.75 665.063 1015.1 666.552 1015.78C668.059 1016.45 669.291 1017.4 670.25 1018.63C671.226 1019.85 671.988 1021.32 672.535 1023.05C673.083 1024.78 673.357 1026.63 673.357 1028.59C673.357 1033.27 672.202 1036.88 669.891 1039.43C667.58 1041.98 664.806 1043.26 661.571 1043.26C658.352 1043.26 655.827 1041.91 653.996 1039.23V1042.64ZM653.944 1028.8C653.944 1032.07 654.389 1034.43 655.28 1035.89C656.735 1038.27 658.703 1039.46 661.186 1039.46C663.206 1039.46 664.952 1038.58 666.424 1036.84C667.896 1035.07 668.632 1032.45 668.632 1028.98C668.632 1025.42 667.922 1022.79 666.501 1021.1C665.097 1019.4 663.394 1018.55 661.391 1018.55C659.371 1018.55 657.625 1019.44 656.153 1021.2C654.68 1022.95 653.944 1025.48 653.944 1028.8ZM678.955 1042.64V1015.37H683.115V1019.5C684.176 1017.57 685.152 1016.29 686.042 1015.68C686.95 1015.06 687.943 1014.75 689.021 1014.75C690.579 1014.75 692.162 1015.25 693.772 1016.24L692.179 1020.53C691.05 1019.86 689.92 1019.53 688.79 1019.53C687.78 1019.53 686.873 1019.84 686.068 1020.45C685.263 1021.05 684.69 1021.89 684.348 1022.97C683.834 1024.61 683.577 1026.41 683.577 1028.36V1042.64H678.955ZM714.314 1039.28C712.602 1040.73 710.95 1041.76 709.358 1042.36C707.783 1042.96 706.089 1043.26 704.274 1043.26C701.278 1043.26 698.976 1042.53 697.367 1041.07C695.757 1039.6 694.953 1037.73 694.953 1035.45C694.953 1034.12 695.252 1032.9 695.851 1031.8C696.468 1030.69 697.264 1029.8 698.24 1029.13C699.232 1028.47 700.345 1027.96 701.578 1027.62C702.485 1027.38 703.855 1027.15 705.686 1026.93C709.418 1026.48 712.166 1025.95 713.929 1025.33C713.946 1024.7 713.955 1024.3 713.955 1024.13C713.955 1022.24 713.518 1020.92 712.645 1020.15C711.464 1019.1 709.709 1018.58 707.381 1018.58C705.207 1018.58 703.598 1018.97 702.554 1019.74C701.526 1020.49 700.765 1021.83 700.268 1023.77L695.749 1023.15C696.16 1021.22 696.836 1019.66 697.777 1018.48C698.719 1017.28 700.08 1016.36 701.86 1015.73C703.641 1015.08 705.703 1014.75 708.049 1014.75C710.377 1014.75 712.269 1015.03 713.724 1015.58C715.179 1016.12 716.249 1016.82 716.933 1017.66C717.618 1018.48 718.098 1019.52 718.371 1020.79C718.526 1021.58 718.603 1023 718.603 1025.05V1031.21C718.603 1035.51 718.697 1038.23 718.885 1039.38C719.09 1040.51 719.484 1041.6 720.066 1042.64H715.239C714.759 1041.68 714.451 1040.56 714.314 1039.28ZM713.929 1028.95C712.251 1029.64 709.735 1030.22 706.38 1030.7C704.479 1030.97 703.136 1031.28 702.348 1031.62C701.561 1031.97 700.953 1032.47 700.525 1033.14C700.097 1033.79 699.883 1034.52 699.883 1035.32C699.883 1036.55 700.345 1037.58 701.27 1038.4C702.211 1039.23 703.581 1039.64 705.378 1039.64C707.159 1039.64 708.742 1039.25 710.129 1038.48C711.515 1037.69 712.534 1036.62 713.184 1035.27C713.681 1034.23 713.929 1032.69 713.929 1030.65V1028.95ZM733.368 1042.64L722.994 1015.37H727.872L733.727 1031.7C734.361 1033.46 734.943 1035.3 735.473 1037.2C735.884 1035.76 736.458 1034.03 737.194 1032.01L743.254 1015.37H748.004L737.682 1042.64H733.368ZM770.755 1033.86L775.532 1034.45C774.778 1037.24 773.383 1039.41 771.346 1040.95C769.309 1042.49 766.707 1043.26 763.54 1043.26C759.551 1043.26 756.384 1042.03 754.039 1039.58C751.711 1037.12 750.546 1033.67 750.546 1029.24C750.546 1024.65 751.728 1021.09 754.09 1018.55C756.453 1016.02 759.517 1014.75 763.283 1014.75C766.929 1014.75 769.908 1015.99 772.219 1018.48C774.53 1020.96 775.686 1024.45 775.686 1028.95C775.686 1029.23 775.677 1029.64 775.66 1030.19H755.323C755.494 1033.18 756.341 1035.48 757.865 1037.07C759.388 1038.66 761.289 1039.46 763.565 1039.46C765.26 1039.46 766.707 1039.01 767.905 1038.12C769.103 1037.23 770.054 1035.81 770.755 1033.86ZM755.579 1026.39H770.807C770.601 1024.09 770.019 1022.37 769.061 1021.22C767.588 1019.44 765.68 1018.55 763.334 1018.55C761.212 1018.55 759.423 1019.26 757.968 1020.69C756.53 1022.11 755.734 1024.01 755.579 1026.39ZM794.277 1029.01C794.277 1023.96 795.681 1020.21 798.488 1017.78C800.833 1015.76 803.692 1014.75 807.065 1014.75C810.814 1014.75 813.878 1015.99 816.258 1018.45C818.637 1020.9 819.827 1024.29 819.827 1028.62C819.827 1032.13 819.296 1034.89 818.235 1036.91C817.191 1038.92 815.658 1040.48 813.638 1041.59C811.635 1042.7 809.444 1043.26 807.065 1043.26C803.247 1043.26 800.157 1042.03 797.795 1039.58C795.449 1037.14 794.277 1033.61 794.277 1029.01ZM799.027 1029.01C799.027 1032.5 799.789 1035.12 801.313 1036.86C802.836 1038.59 804.754 1039.46 807.065 1039.46C809.359 1039.46 811.267 1038.58 812.791 1036.84C814.315 1035.09 815.076 1032.43 815.076 1028.85C815.076 1025.48 814.306 1022.93 812.765 1021.2C811.242 1019.45 809.342 1018.58 807.065 1018.58C804.754 1018.58 802.836 1019.44 801.313 1021.17C799.789 1022.9 799.027 1025.51 799.027 1029.01ZM825.271 1042.64V1015.37H829.431V1019.25C831.433 1016.25 834.327 1014.75 838.11 1014.75C839.753 1014.75 841.26 1015.05 842.629 1015.65C844.016 1016.23 845.052 1017.01 845.736 1017.96C846.421 1018.92 846.9 1020.06 847.174 1021.38C847.346 1022.23 847.431 1023.73 847.431 1025.87V1042.64H842.809V1026.05C842.809 1024.17 842.629 1022.77 842.27 1021.84C841.91 1020.9 841.268 1020.15 840.344 1019.61C839.437 1019.04 838.367 1018.76 837.134 1018.76C835.165 1018.76 833.462 1019.38 832.024 1020.63C830.603 1021.88 829.893 1024.25 829.893 1027.75V1042.64H825.271Z" fill="black"/>
<path d="M35.9 92.6406V61.3656H48.77C57.455 61.3656 62.63 65.6406 62.63 73.1106C62.63 80.5356 57.635 84.5406 48.77 84.5406H42.65V92.6406H35.9ZM42.65 78.5556H49.085C53.54 78.5556 55.745 76.5306 55.745 73.0206C55.745 69.4206 53.63 67.6656 49.085 67.6656H42.65V78.5556ZM75.9293 93.1806C68.8643 93.1806 64.1393 88.3206 64.1393 81.0306C64.1393 73.2006 69.1793 68.0706 76.8743 68.0706C83.8043 68.0706 88.7093 72.7506 89.1593 79.8606L89.4743 85.9356L89.7893 92.6406H83.8493L83.7593 89.5806C82.2743 91.9656 79.5293 93.1806 75.9293 93.1806ZM76.7393 87.2406C80.2943 87.2406 82.6793 84.9456 82.6793 80.7156C82.6793 76.8006 80.2943 74.1456 76.7393 74.1456C73.1393 74.1456 70.6643 76.8006 70.6643 80.7156C70.6643 84.7206 73.0043 87.2406 76.7393 87.2406ZM92.7406 79.9956C92.7406 72.5706 96.4756 68.7906 103.766 68.7906H105.791V74.8656H104.306C100.481 74.8656 99.2656 76.2156 99.2656 79.9956V92.6406H92.7406V79.9956ZM118.18 93.1806C111.115 93.1806 106.39 88.3206 106.39 81.0306C106.39 73.2006 111.43 68.0706 119.125 68.0706C126.055 68.0706 130.96 72.7506 131.41 79.8606L131.725 85.9356L132.04 92.6406H126.1L126.01 89.5806C124.525 91.9656 121.78 93.1806 118.18 93.1806ZM118.99 87.2406C122.545 87.2406 124.93 84.9456 124.93 80.7156C124.93 76.8006 122.545 74.1456 118.99 74.1456C115.39 74.1456 112.915 76.8006 112.915 80.7156C112.915 84.7206 115.255 87.2406 118.99 87.2406ZM145.583 99.7956C143.243 99.7956 140.723 99.4806 138.653 99.1206L138.158 92.8656C140.453 93.4506 142.748 93.7656 144.998 93.7656C150.218 93.7656 152.243 92.1006 152.378 88.2306C150.758 89.9406 148.328 90.5706 145.493 90.5706C138.473 90.5706 134.063 86.1606 134.063 79.9956C134.063 73.0206 139.148 68.0706 146.303 68.0706C153.638 68.0706 158.543 73.0206 158.543 80.2656V86.0706C158.543 95.3856 154.808 99.7956 145.583 99.7956ZM146.303 84.7206C149.723 84.7206 152.108 82.5156 152.108 79.4106C152.108 76.3056 149.723 74.0106 146.303 74.0106C142.883 74.0106 140.498 76.2156 140.498 79.4106C140.498 82.6506 142.748 84.7206 146.303 84.7206ZM161.61 79.9956C161.61 72.5706 165.345 68.7906 172.635 68.7906H174.66V74.8656H173.175C169.35 74.8656 168.135 76.2156 168.135 79.9956V92.6406H161.61V79.9956ZM187.049 93.1806C179.984 93.1806 175.259 88.3206 175.259 81.0306C175.259 73.2006 180.299 68.0706 187.994 68.0706C194.924 68.0706 199.829 72.7506 200.279 79.8606L200.594 85.9356L200.909 92.6406H194.969L194.879 89.5806C193.394 91.9656 190.649 93.1806 187.049 93.1806ZM187.859 87.2406C191.414 87.2406 193.799 84.9456 193.799 80.7156C193.799 76.8006 191.414 74.1456 187.859 74.1456C184.259 74.1456 181.784 76.8006 181.784 80.7156C181.784 84.7206 184.124 87.2406 187.859 87.2406ZM203.861 84.4956C203.861 82.6956 203.906 81.5256 203.996 80.1756C204.401 72.7506 209.126 68.0706 216.236 68.0706C224.201 68.0706 228.881 73.5606 228.881 80.9856C228.881 87.8256 223.841 93.0006 217.271 93.0006C214.211 93.0006 211.781 91.9206 210.341 90.0306V99.8406H203.861V84.4956ZM216.371 86.9706C219.971 86.9706 222.401 84.4056 222.401 80.5806C222.401 76.8456 219.971 74.1456 216.371 74.1456C212.816 74.1456 210.386 76.8456 210.386 80.5806C210.386 84.4956 212.726 86.9706 216.371 86.9706ZM231.803 92.6406V60.0156H238.328L238.238 70.5906C239.723 68.9706 241.928 68.0706 245.033 68.0706C250.928 68.0706 255.023 72.2556 255.023 78.3306V92.6406H248.498V79.4556C248.498 75.8556 247.283 73.9656 243.638 73.9656C239.993 73.9656 238.328 76.1706 238.328 79.9056V92.6406H231.803ZM267.836 95.7906L279.311 57.0906H286.106L274.631 95.7906H267.836ZM298.176 92.6406L309.471 61.3656H318.786L330.126 92.6406H322.836L320.631 86.1156H307.671L305.466 92.6406H298.176ZM309.606 80.5356H318.696L314.151 67.7106L309.606 80.5356ZM332.503 79.9956C332.503 72.5706 336.238 68.7906 343.528 68.7906H345.553V74.8656H344.068C340.243 74.8656 339.028 76.2156 339.028 79.9956V92.6406H332.503V79.9956ZM348.047 92.6406V68.7906H354.572V92.6406H348.047ZM348.047 66.9006V61.3656H354.572V66.9006H348.047ZM369.268 93.1806C362.203 93.1806 357.478 88.3206 357.478 81.0306C357.478 73.2006 362.518 68.0706 370.213 68.0706C377.143 68.0706 382.048 72.7506 382.498 79.8606L382.813 85.9356L383.128 92.6406H377.188L377.098 89.5806C375.613 91.9656 372.868 93.1806 369.268 93.1806ZM370.078 87.2406C373.633 87.2406 376.018 84.9456 376.018 80.7156C376.018 76.8006 373.633 74.1456 370.078 74.1456C366.478 74.1456 364.003 76.8006 364.003 80.7156C364.003 84.7206 366.343 87.2406 370.078 87.2406ZM386.04 92.6406V60.0156H392.565V92.6406H386.04Z" fill="black"/>
</g>
<defs>
<clipPath id="clip0_3211_300">
<rect width="860" height="1096" fill="white" transform="translate(0 0.439453)"/>
</clipPath>
</defs>
</svg>
