<svg width="860" height="1097" viewBox="0 0 860 1097" fill="none" xmlns="http://www.w3.org/2000/svg">
<g clip-path="url(#clip0_3211_297)">
<rect width="860" height="1096" transform="translate(0 0.439453)" fill="#FFFCFA"/>
<path d="M36.98 1030.64V788.086H89.33V981.781H189.493V1030.64H36.98ZM200.574 1030.64V845.671H251.179V1030.64H200.574ZM200.574 831.013V788.086H251.179V831.013H200.574ZM351.565 1086.13C333.417 1086.13 313.873 1083.69 297.819 1080.9L293.98 1032.39C311.779 1036.92 329.578 1039.37 347.028 1039.37C387.512 1039.37 403.217 1026.45 404.264 996.439C391.7 1009.7 372.854 1014.59 350.867 1014.59C296.423 1014.59 262.221 980.385 262.221 932.572C262.221 878.477 301.658 840.087 357.149 840.087C414.036 840.087 452.077 878.477 452.077 934.666V979.687C452.077 1051.93 423.11 1086.13 351.565 1086.13ZM357.149 969.217C383.673 969.217 402.17 952.116 402.17 928.035C402.17 903.954 383.673 886.155 357.149 886.155C330.625 886.155 312.128 903.256 312.128 928.035C312.128 953.163 329.578 969.217 357.149 969.217ZM465.773 1030.64V777.616H516.378L515.68 859.631C527.197 847.067 544.298 840.087 568.379 840.087C614.098 840.087 645.857 872.544 645.857 919.659V1030.64H595.252V928.384C595.252 900.464 585.829 885.806 557.56 885.806C529.291 885.806 516.378 902.907 516.378 931.874V1030.64H465.773ZM739.58 1030.64C688.975 1030.64 657.914 1003.07 657.914 935.015V799.254H708.519V845.671H770.641V891.041H708.519V941.646C708.519 976.895 723.526 983.875 750.05 983.875C767.151 983.875 770.292 983.526 772.037 983.526L766.453 1030.64H739.58ZM783.417 1030.64V777.616H834.022L833.324 859.631C844.841 847.067 861.942 840.087 886.023 840.087C931.742 840.087 963.501 872.544 963.501 919.659V1030.64H912.896V928.384C912.896 900.464 903.473 885.806 875.204 885.806C846.935 885.806 834.022 902.907 834.022 931.874V1030.64H783.417Z" fill="black"/>
<path d="M57.5 92.6406V80.4006H42.65V92.6406H35.9V61.3656H42.65V74.2806H57.5V61.3656H64.25V92.6406H57.5ZM79.9515 93.1806C71.9865 93.1806 67.1715 88.1856 67.1715 80.7606C67.1715 73.3806 72.3015 68.0706 79.6815 68.0706C86.7465 68.0706 91.3815 73.0656 91.3815 80.7606L91.2915 82.5156H73.6965C74.2365 85.8456 76.2615 87.3756 80.0415 87.3756C82.6965 87.3756 84.6765 86.5206 86.0715 84.5856L91.2015 87.6456C88.6365 91.4256 85.0365 93.1806 79.9515 93.1806ZM73.9665 77.6106H84.6315C84.2715 75.3606 82.5615 73.9206 79.5465 73.9206C76.6665 73.9206 74.7765 75.2256 73.9665 77.6106ZM105.536 93.1806C98.4711 93.1806 93.7461 88.3206 93.7461 81.0306C93.7461 73.2006 98.7861 68.0706 106.481 68.0706C113.411 68.0706 118.316 72.7506 118.766 79.8606L119.081 85.9356L119.396 92.6406H113.456L113.366 89.5806C111.881 91.9656 109.136 93.1806 105.536 93.1806ZM106.346 87.2406C109.901 87.2406 112.286 84.9456 112.286 80.7156C112.286 76.8006 109.901 74.1456 106.346 74.1456C102.746 74.1456 100.271 76.8006 100.271 80.7156C100.271 84.7206 102.611 87.2406 106.346 87.2406ZM132.846 93.1806C126.501 93.1806 121.551 88.1406 121.551 80.7156C121.551 73.2006 126.636 68.0706 133.611 68.0706C136.311 68.0706 138.561 68.8806 140.226 70.2756L140.181 60.0156H146.571V92.6406H140.811L140.721 89.6706C139.686 91.3806 137.481 93.1806 132.846 93.1806ZM134.061 87.1056C137.706 87.1056 140.046 84.8106 140.046 80.7156C140.046 76.7556 137.616 74.1006 134.061 74.1006C130.461 74.1006 128.031 76.7556 128.031 80.7156C128.031 84.7656 130.236 87.1056 134.061 87.1056ZM150.158 92.6406V60.0156H156.683V92.6406H150.158ZM159.94 92.6406V68.7906H166.465V92.6406H159.94ZM159.94 66.9006V61.3656H166.465V66.9006H159.94ZM169.596 79.3656C169.596 72.0756 174.141 68.0706 181.071 68.0706C188.001 68.0706 192.546 72.0756 192.546 79.3656V92.6406H186.021V79.0956C186.021 75.9006 184.266 74.1456 181.071 74.1456C177.876 74.1456 176.121 75.9006 176.121 79.0956V92.6406H169.596V79.3656ZM208.066 93.1806C200.101 93.1806 195.286 88.1856 195.286 80.7606C195.286 73.3806 200.416 68.0706 207.796 68.0706C214.861 68.0706 219.496 73.0656 219.496 80.7606L219.406 82.5156H201.811C202.351 85.8456 204.376 87.3756 208.156 87.3756C210.811 87.3756 212.791 86.5206 214.186 84.5856L219.316 87.6456C216.751 91.4256 213.151 93.1806 208.066 93.1806ZM202.081 77.6106H212.746C212.386 75.3606 210.676 73.9206 207.661 73.9206C204.781 73.9206 202.891 75.2256 202.081 77.6106ZM232.265 93.1806C225.56 93.1806 221.645 90.0306 221.465 85.2156H227.72C227.9 86.6556 229.25 87.6906 232.715 87.6906C235.46 87.6906 236.9 87.1056 236.9 85.7106C236.9 84.2706 235.46 83.8206 230.555 83.1456C224.66 82.3806 221.78 80.2206 221.78 75.8556C221.78 70.6806 225.875 68.0706 232.4 68.0706C238.61 68.0706 242.48 71.1756 242.705 75.9906H236.45C236.27 74.5506 234.965 73.5606 231.95 73.5606C229.115 73.5606 228.08 74.4606 228.08 75.4956C228.08 76.9806 229.88 77.2056 233.66 77.7006C240.005 78.5106 243.2 80.7606 243.2 85.3956C243.2 90.3906 238.925 93.1806 232.265 93.1806ZM255.62 95.7906L267.095 57.0906H273.89L262.415 95.7906H255.62ZM286.724 92.6406V61.3656H302.384C309.404 61.3656 313.949 65.4606 313.949 71.8056C313.949 76.7556 311.564 80.2656 306.974 81.6606L315.119 92.6406H307.109L299.729 82.3806H293.474V92.6406H286.724ZM293.474 76.5306H301.304C305.219 76.5306 306.974 75.2706 306.974 72.1656C306.974 69.0156 305.219 67.6656 301.304 67.6656H293.474V76.5306ZM327.739 93.1806C320.359 93.1806 315.139 88.0056 315.139 80.6256C315.139 73.2456 320.359 68.0706 327.739 68.0706C335.119 68.0706 340.339 73.2456 340.339 80.6256C340.339 88.0056 335.119 93.1806 327.739 93.1806ZM327.694 87.1056C331.294 87.1056 333.814 84.4506 333.814 80.6256C333.814 76.8006 331.294 74.1006 327.739 74.1006C324.184 74.1006 321.664 76.8006 321.664 80.6256C321.664 84.4506 324.139 87.1056 327.694 87.1056ZM367.292 69.0156L356.042 79.9506L367.382 92.4156V92.6406H358.742L349.787 82.1556V92.6406H343.262V60.0156H349.787V78.4656L358.562 68.7906H367.292V69.0156ZM377.153 93.1806C369.773 93.1806 364.553 88.0056 364.553 80.6256C364.553 73.2456 369.773 68.0706 377.153 68.0706C384.533 68.0706 389.753 73.2456 389.753 80.6256C389.753 88.0056 384.533 93.1806 377.153 93.1806ZM377.108 87.1056C380.708 87.1056 383.228 84.4506 383.228 80.6256C383.228 76.8006 380.708 74.1006 377.153 74.1006C373.598 74.1006 371.078 76.8006 371.078 80.6256C371.078 84.4506 373.553 87.1056 377.108 87.1056Z" fill="black"/>
</g>
<defs>
<clipPath id="clip0_3211_297">
<rect width="860" height="1096" fill="white" transform="translate(0 0.439453)"/>
</clipPath>
</defs>
</svg>
