<svg width="1856" height="1437" viewBox="0 0 1856 1437" fill="none" xmlns="http://www.w3.org/2000/svg">
<rect width="1856" height="1436.36" transform="translate(0 0.359863)" fill="#F8F3E8"/>
<path d="M214 638.532H283.999C316.683 638.532 335.662 653.842 335.662 680.175C335.662 693.452 330.818 702.823 321.099 708.541C339.863 713.115 351.33 728.679 351.33 749.485C351.33 778.518 330.358 797.513 298.134 797.513H214V638.532ZM284.213 702.124C296.784 702.124 304.082 696.184 304.082 685.892C304.082 675.601 297.03 669.184 284.213 669.184H246.01V702.124H284.213ZM317.787 748.087C317.787 735.731 310.275 729.791 294.393 729.791H246.041V766.86H294.393C310.275 766.86 317.787 760.92 317.787 748.119V748.087Z" fill="black"/>
<path d="M411.848 638.532H457.564L513.213 797.481H477.432L466.609 764.319H403.018L392.195 797.481H356.414L411.848 638.532ZM457.104 735.953L434.814 670.773L412.523 735.953H457.135H457.104Z" fill="black"/>
<path d="M514.164 718.393C514.164 670.365 546.174 636.282 591.644 636.282C626.751 636.282 653.916 659.851 658.332 694.157H624.114C620.588 678.147 607.986 668.999 590.571 668.999C564.755 668.999 548.412 687.518 548.412 718.393C548.412 749.268 564.295 767.342 589.253 767.342C607.588 767.342 621.477 757.05 626.352 738.532H659.466C654.622 775.124 626.567 800.282 590.356 800.282C545.99 800.282 514.195 766.198 514.195 718.393H514.164Z" fill="black"/>
<path d="M746.119 719.944L815.658 796.782V797.481H771.936L712.331 728.647V797.481H679.217V638.532H712.331V715.37L773.04 638.532H815.873V638.976L746.119 719.944Z" fill="black"/>
<path d="M836.237 638.532H955.907V670.328H869.351V706.921H942.661V738.494H869.351V797.513H836.237V638.532Z" fill="black"/>
<path d="M1003.41 638.532H1049.13L1104.78 797.481H1069L1058.17 764.319H994.582L983.758 797.481H947.977L1003.41 638.532ZM1048.67 735.953L1026.38 670.773L1004.09 735.953H1048.7H1048.67Z" fill="black"/>
<path d="M1121.79 638.532H1191.79C1224.48 638.532 1243.46 653.842 1243.46 680.175C1243.46 693.452 1238.61 702.823 1228.89 708.541C1247.66 713.115 1259.13 728.679 1259.13 749.485C1259.13 778.518 1238.15 797.513 1205.93 797.513H1121.83V638.532H1121.79ZM1192.01 702.124C1204.58 702.124 1211.88 696.184 1211.88 685.892C1211.88 675.601 1204.82 669.184 1192.01 669.184H1153.8V702.124H1192.01ZM1225.58 748.087C1225.58 735.731 1218.07 729.791 1202.19 729.791H1153.84V766.86H1202.19C1218.07 766.86 1225.58 760.92 1225.58 748.119V748.087Z" fill="black"/>
<path d="M1282.47 638.532H1359.3C1393.73 638.532 1416.06 659.337 1416.06 691.61C1416.06 716.768 1404.34 734.619 1381.84 741.703L1421.79 797.513H1382.48L1346.27 745.356H1315.58V797.513H1282.47V638.532ZM1354 715.624C1373.19 715.624 1381.81 709.208 1381.81 693.452C1381.81 677.697 1373.19 670.582 1354 670.582H1315.58V715.656H1354V715.624Z" fill="black"/>
<path d="M1441.68 638.532H1474.79V797.481H1441.68V638.532Z" fill="black"/>
<path d="M1572.12 719.944L1641.66 796.782V797.481H1597.93L1538.33 728.647V797.481H1505.22V638.532H1538.33V715.37L1599.07 638.532H1641.9V638.976L1572.15 719.944H1572.12Z" fill="black"/>
</svg>
