<svg width="1856" height="890" viewBox="0 0 1856 890" fill="none" xmlns="http://www.w3.org/2000/svg">
<g clip-path="url(#clip0_3211_665)">
<rect width="1856" height="889" transform="translate(0 0.878906)" fill="#FFFCFA"/>
<g clip-path="url(#clip1_3211_665)">
<path d="M344.955 496.879V476.489H598.01V969.9L344.955 933.442V496.879Z" fill="#D64224"/>
<path d="M598.021 476.489H648.472V960.25L598.021 969.9V476.489Z" fill="#772313"/>
<path d="M240.518 456.12V496.878H-104V905.168L290.397 949.531V496.878H318.352V456.12H240.518Z" fill="#D64224"/>
<path d="M318.352 456.12V496.878H290.397V949.531L344.955 933.441V496.878V476.489H424.098V456.12H318.352Z" fill="#772313"/>
<path d="M779.449 518.328H731.129V394.37H694.639V439.314H683.9V518.328H673.162V394.37H616.265V476.489H648.461V518.328V1026.77L779.48 1071.81L922.641 1056.8V567.666V518.328H779.449Z" fill="#D64224"/>
<path d="M730.609 394.37H740.797V197.08L715.025 202.98V394.38H730.609V394.37Z" fill="#F8F3E8"/>
<path d="M740.797 197.08L854.59 203.52V394.37H740.797V197.08Z" fill="#EFE5CD"/>
<path d="M1806.83 524.404L1535.75 530.668L1452.56 458.593V439.314H1159.12V460.774L1125.13 660.452L1129.78 688.165V1125.08L1597.85 1044.99L1880.53 997.789V646.69L1892 631.67L1806.83 524.404Z" fill="#772313"/>
<path d="M1015.63 439.314L1022.07 460.774H1022.06L1002.39 567.666L953.901 647.043L965.534 670.289L965.565 1062.96L1129.78 1125.08V688.165L1125.13 660.452L1159.13 460.774V439.314H1015.63Z" fill="#D64224"/>
<path d="M888.407 439.314V518.328H922.641V567.666V1056.8L943.318 1065.01V567.666L970.534 439.314H888.407Z" fill="#D64224"/>
<path d="M1022.06 460.774L1015.63 439.314H970.534L943.317 567.666V1065.01L965.564 1062.96L965.523 670.289L953.9 647.043L1002.39 567.666L1022.06 460.774Z" fill="#772313"/>
<path d="M673.151 394.37H694.629V439.314H683.89V518.328H673.141V394.37H673.151Z" fill="#772313"/>
<path d="M888.407 518.328V439.314H876.598V394.37H731.129V518.328H779.449L779.48 1071.81L922.641 1056.8V567.666V518.328H888.407Z" fill="#772313"/>
</g>
</g>
<defs>
<clipPath id="clip0_3211_665">
<rect width="1856" height="889" fill="white" transform="translate(0 0.878906)"/>
</clipPath>
<clipPath id="clip1_3211_665">
<rect width="1996" height="928" fill="white" transform="translate(-104 197.08)"/>
</clipPath>
</defs>
</svg>
