<svg width="1856" height="1437" viewBox="0 0 1856 1437" fill="none" xmlns="http://www.w3.org/2000/svg">
<g clip-path="url(#clip0_3211_264)">
<rect y="718.26" width="718.18" height="618.667" transform="rotate(-90 0 718.26)" fill="#772313"/>
<rect x="618.667" y="718.26" width="718.18" height="618.667" transform="rotate(-90 618.667 718.26)" fill="#D64224"/>
<rect x="1237.33" y="718.26" width="718.18" height="618.667" transform="rotate(-90 1237.33 718.26)" fill="#DF7330"/>
<path d="M34.64 679.328V657.12H42.736C50.352 657.12 54.896 660.384 54.896 668.16C54.896 676.064 50.352 679.328 42.736 679.328H34.64ZM39.44 674.848H42.608C48.08 674.848 49.968 673.12 49.968 668.16C49.968 663.296 48.016 661.6 42.384 661.6H39.44V674.848ZM65.199 679.744C60.175 679.744 56.815 676.288 56.815 671.104C56.815 665.536 60.399 661.888 65.871 661.888C70.799 661.888 74.287 665.216 74.607 670.272L74.831 674.592L75.055 679.36H70.831L70.767 677.184C69.711 678.88 67.759 679.744 65.199 679.744ZM65.775 675.52C68.303 675.52 69.999 673.888 69.999 670.88C69.999 668.096 68.303 666.208 65.775 666.208C63.215 666.208 61.455 668.096 61.455 670.88C61.455 673.728 63.119 675.52 65.775 675.52ZM77.1537 670.368C77.1537 665.088 79.8097 662.4 84.9937 662.4H86.4337V666.72H85.3777C82.6577 666.72 81.7937 667.68 81.7937 670.368V679.36H77.1537V670.368ZM105.456 662.56L97.4555 670.336L105.52 679.2V679.36H99.3755L93.0075 671.904V679.36H88.3675V656.16H93.0075V669.28L99.2475 662.4H105.456V662.56ZM114.659 679.36V657.12H125.795C130.787 657.12 134.019 660.032 134.019 664.544C134.019 668.064 132.323 670.56 129.059 671.552L134.851 679.36H129.155L123.907 672.064H119.459V679.36H114.659ZM119.459 667.904H125.027C127.811 667.904 129.059 667.008 129.059 664.8C129.059 662.56 127.811 661.6 125.027 661.6H119.459V667.904ZM143.953 679.744C138.289 679.744 134.865 676.192 134.865 670.912C134.865 665.664 138.513 661.888 143.761 661.888C148.785 661.888 152.081 665.44 152.081 670.912L152.017 672.16H139.505C139.889 674.528 141.329 675.616 144.017 675.616C145.905 675.616 147.313 675.008 148.305 673.632L151.953 675.808C150.129 678.496 147.569 679.744 143.953 679.744ZM139.697 668.672H147.281C147.025 667.072 145.809 666.048 143.665 666.048C141.617 666.048 140.273 666.976 139.697 668.672ZM161.795 679.744C157.283 679.744 153.763 676.16 153.763 670.88C153.763 665.536 157.379 661.888 162.339 661.888C164.259 661.888 165.859 662.464 167.043 663.456L167.011 656.16H171.555V679.36H167.459L167.395 677.248C166.659 678.464 165.091 679.744 161.795 679.744ZM162.659 675.424C165.251 675.424 166.915 673.792 166.915 670.88C166.915 668.064 165.187 666.176 162.659 666.176C160.099 666.176 158.371 668.064 158.371 670.88C158.371 673.76 159.939 675.424 162.659 675.424Z" fill="#FFFCFA"/>
<path d="M652.64 679.36V657.12H662.784C667.52 657.12 670.272 659.264 670.272 662.944C670.272 664.8 669.568 666.112 668.16 666.912C670.88 667.552 672.544 669.728 672.544 672.64C672.544 676.704 669.504 679.36 664.832 679.36H652.64ZM664.288 675.072C666.592 675.072 667.68 674.24 667.68 672.448C667.68 670.72 666.592 669.888 664.288 669.888H657.28V675.072H664.288ZM657.28 666.016H662.816C664.64 666.016 665.696 665.184 665.696 663.744C665.696 662.24 664.672 661.408 662.816 661.408H657.28V666.016ZM674.631 670.368C674.631 665.088 677.287 662.4 682.471 662.4H683.911V666.72H682.855C680.135 666.72 679.271 667.68 679.271 670.368V679.36H674.631V670.368ZM692.722 679.744C687.698 679.744 684.338 676.288 684.338 671.104C684.338 665.536 687.922 661.888 693.394 661.888C698.322 661.888 701.81 665.216 702.13 670.272L702.354 674.592L702.578 679.36H698.354L698.29 677.184C697.234 678.88 695.282 679.744 692.722 679.744ZM693.298 675.52C695.826 675.52 697.522 673.888 697.522 670.88C697.522 668.096 695.826 666.208 693.298 666.208C690.738 666.208 688.978 668.096 688.978 670.88C688.978 673.728 690.642 675.52 693.298 675.52ZM707.766 679.36L701.974 662.4H706.838L710.934 675.392L714.998 662.4H719.862L714.102 679.36H707.766ZM728.564 679.744C722.9 679.744 719.476 676.192 719.476 670.912C719.476 665.664 723.124 661.888 728.372 661.888C733.396 661.888 736.692 665.44 736.692 670.912L736.628 672.16H724.116C724.5 674.528 725.94 675.616 728.628 675.616C730.516 675.616 731.924 675.008 732.916 673.632L736.564 675.808C734.74 678.496 732.18 679.744 728.564 679.744ZM724.308 668.672H731.892C731.636 667.072 730.42 666.048 728.276 666.048C726.228 666.048 724.884 666.976 724.308 668.672ZM746.244 679.36V657.12H757.38C762.372 657.12 765.604 660.032 765.604 664.544C765.604 668.064 763.908 670.56 760.644 671.552L766.436 679.36H760.74L755.492 672.064H751.044V679.36H746.244ZM751.044 667.904H756.612C759.396 667.904 760.644 667.008 760.644 664.8C760.644 662.56 759.396 661.6 756.612 661.6H751.044V667.904ZM775.538 679.744C769.874 679.744 766.45 676.192 766.45 670.912C766.45 665.664 770.098 661.888 775.346 661.888C780.37 661.888 783.666 665.44 783.666 670.912L783.602 672.16H771.09C771.474 674.528 772.914 675.616 775.602 675.616C777.49 675.616 778.898 675.008 779.89 673.632L783.538 675.808C781.714 678.496 779.154 679.744 775.538 679.744ZM771.282 668.672H778.866C778.61 667.072 777.394 666.048 775.25 666.048C773.202 666.048 771.858 666.976 771.282 668.672ZM793.379 679.744C788.867 679.744 785.347 676.16 785.347 670.88C785.347 665.536 788.963 661.888 793.923 661.888C795.843 661.888 797.443 662.464 798.627 663.456L798.595 656.16H803.139V679.36H799.043L798.979 677.248C798.243 678.464 796.675 679.744 793.379 679.744ZM794.243 675.424C796.835 675.424 798.499 673.792 798.499 670.88C798.499 668.064 796.771 666.176 794.243 666.176C791.683 666.176 789.955 668.064 789.955 670.88C789.955 673.76 791.523 675.424 794.243 675.424Z" fill="black"/>
<path d="M1281.09 679.36L1276.1 657.12H1280.99L1284.54 674.688L1289.34 657.12H1293.02L1297.73 674.624L1301.34 657.12H1306.24L1301.25 679.36H1294.59L1291.17 666.4L1287.71 679.36H1281.09ZM1314.23 679.744C1309.21 679.744 1305.85 676.288 1305.85 671.104C1305.85 665.536 1309.43 661.888 1314.9 661.888C1319.83 661.888 1323.32 665.216 1323.64 670.272L1323.86 674.592L1324.09 679.36H1319.86L1319.8 677.184C1318.74 678.88 1316.79 679.744 1314.23 679.744ZM1314.81 675.52C1317.33 675.52 1319.03 673.888 1319.03 670.88C1319.03 668.096 1317.33 666.208 1314.81 666.208C1312.25 666.208 1310.49 668.096 1310.49 670.88C1310.49 673.728 1312.15 675.52 1314.81 675.52ZM1326.18 670.368C1326.18 665.088 1328.84 662.4 1334.02 662.4H1335.46V666.72H1334.41C1331.69 666.72 1330.82 667.68 1330.82 670.368V679.36H1326.18V670.368ZM1336.21 669.92C1336.21 664.96 1339.18 661.888 1343.7 661.888C1346.22 661.888 1348.24 662.848 1349.46 664.576C1350.7 662.848 1352.69 661.888 1355.22 661.888C1359.7 661.888 1362.67 664.96 1362.67 669.92V679.36H1358.03V670.208C1358.03 667.424 1357.07 666.304 1354.96 666.304C1352.69 666.304 1351.76 667.424 1351.76 670.208V679.36H1347.18V670.208C1347.18 667.424 1346.26 666.304 1343.92 666.304C1341.81 666.304 1340.85 667.424 1340.85 670.208V679.36H1336.21V669.92ZM1383.16 679.744C1376.73 679.712 1372.12 674.944 1372.12 668.288C1372.12 661.6 1376.73 656.8 1383.16 656.8C1389.6 656.8 1394.2 661.6 1394.2 668.288C1394.2 674.944 1389.6 679.712 1383.16 679.744ZM1383.16 675.136C1386.84 675.136 1389.24 672.512 1389.24 668.288C1389.24 664.032 1386.84 661.376 1383.16 661.376C1379.52 661.376 1377.08 664.032 1377.08 668.288C1377.08 672.512 1379.52 675.136 1383.16 675.136ZM1396.18 670.368C1396.18 665.088 1398.84 662.4 1404.02 662.4H1405.46V666.72H1404.41C1401.69 666.72 1400.82 667.68 1400.82 670.368V679.36H1396.18V670.368ZM1414.27 679.744C1409.25 679.744 1405.89 676.288 1405.89 671.104C1405.89 665.536 1409.47 661.888 1414.94 661.888C1419.87 661.888 1423.36 665.216 1423.68 670.272L1423.9 674.592L1424.13 679.36H1419.9L1419.84 677.184C1418.78 678.88 1416.83 679.744 1414.27 679.744ZM1414.85 675.52C1417.38 675.52 1419.07 673.888 1419.07 670.88C1419.07 668.096 1417.38 666.208 1414.85 666.208C1412.29 666.208 1410.53 668.096 1410.53 670.88C1410.53 673.728 1412.19 675.52 1414.85 675.52ZM1426.23 669.92C1426.23 664.736 1429.46 661.888 1434.39 661.888C1439.31 661.888 1442.55 664.736 1442.55 669.92V679.36H1437.91V669.728C1437.91 667.456 1436.66 666.208 1434.39 666.208C1432.11 666.208 1430.87 667.456 1430.87 669.728V679.36H1426.23V669.92ZM1452.53 684.448C1450.87 684.448 1449.07 684.224 1447.6 683.968L1447.25 679.52C1448.88 679.936 1450.51 680.16 1452.11 680.16C1455.83 680.16 1457.27 678.976 1457.36 676.224C1456.21 677.44 1454.48 677.888 1452.47 677.888C1447.47 677.888 1444.34 674.752 1444.34 670.368C1444.34 665.408 1447.95 661.888 1453.04 661.888C1458.26 661.888 1461.75 665.408 1461.75 670.56V674.688C1461.75 681.312 1459.09 684.448 1452.53 684.448ZM1453.04 673.728C1455.47 673.728 1457.17 672.16 1457.17 669.952C1457.17 667.744 1455.47 666.112 1453.04 666.112C1450.61 666.112 1448.91 667.68 1448.91 669.952C1448.91 672.256 1450.51 673.728 1453.04 673.728ZM1472.73 679.744C1467.07 679.744 1463.64 676.192 1463.64 670.912C1463.64 665.664 1467.29 661.888 1472.54 661.888C1477.56 661.888 1480.86 665.44 1480.86 670.912L1480.79 672.16H1468.28C1468.67 674.528 1470.11 675.616 1472.79 675.616C1474.68 675.616 1476.09 675.008 1477.08 673.632L1480.73 675.808C1478.91 678.496 1476.35 679.744 1472.73 679.744ZM1468.47 668.672H1476.06C1475.8 667.072 1474.59 666.048 1472.44 666.048C1470.39 666.048 1469.05 666.976 1468.47 668.672Z" fill="black"/>
<rect y="1436.44" width="718.18" height="618.667" transform="rotate(-90 0 1436.44)" fill="#EFE5CD"/>
<rect x="618.667" y="1436.44" width="718.18" height="618.667" transform="rotate(-90 618.667 1436.44)" fill="#BACBD4"/>
<rect x="1237.33" y="1077.35" width="359.09" height="618.667" transform="rotate(-90 1237.33 1077.35)" fill="#FFFCFA"/>
<rect x="1237.33" y="1436.44" width="359.09" height="618.667" transform="rotate(-90 1237.33 1436.44)" fill="black"/>
<path d="M1276.64 1397.36V1375.12H1286.78C1291.52 1375.12 1294.27 1377.26 1294.27 1380.94C1294.27 1382.8 1293.57 1384.11 1292.16 1384.91C1294.88 1385.55 1296.54 1387.73 1296.54 1390.64C1296.54 1394.7 1293.5 1397.36 1288.83 1397.36H1276.64ZM1288.29 1393.07C1290.59 1393.07 1291.68 1392.24 1291.68 1390.45C1291.68 1388.72 1290.59 1387.89 1288.29 1387.89H1281.28V1393.07H1288.29ZM1281.28 1384.02H1286.82C1288.64 1384.02 1289.7 1383.18 1289.7 1381.74C1289.7 1380.24 1288.67 1379.41 1286.82 1379.41H1281.28V1384.02ZM1298.57 1397.36V1374.16H1303.21V1397.36H1298.57ZM1313.69 1397.74C1308.67 1397.74 1305.31 1394.29 1305.31 1389.1C1305.31 1383.54 1308.89 1379.89 1314.36 1379.89C1319.29 1379.89 1322.78 1383.22 1323.1 1388.27L1323.32 1392.59L1323.55 1397.36H1319.32L1319.26 1395.18C1318.2 1396.88 1316.25 1397.74 1313.69 1397.74ZM1314.27 1393.52C1316.79 1393.52 1318.49 1391.89 1318.49 1388.88C1318.49 1386.1 1316.79 1384.21 1314.27 1384.21C1311.71 1384.21 1309.95 1386.1 1309.95 1388.88C1309.95 1391.73 1311.61 1393.52 1314.27 1393.52ZM1333.53 1397.74C1328.28 1397.74 1325.08 1394.06 1325.08 1388.82C1325.08 1383.47 1328.63 1379.89 1333.78 1379.89C1337.88 1379.89 1341.4 1382.22 1341.56 1386.61H1336.92C1336.79 1385.04 1335.38 1384.18 1333.75 1384.18C1331.25 1384.18 1329.72 1385.97 1329.72 1388.82C1329.72 1391.63 1331.13 1393.42 1333.72 1393.42C1335.19 1393.42 1336.69 1392.78 1336.98 1391.18H1341.65C1341.27 1395.47 1338.04 1397.74 1333.53 1397.74ZM1360.54 1380.56L1352.54 1388.34L1360.6 1397.2V1397.36H1354.46L1348.09 1389.9V1397.36H1343.45V1374.16H1348.09V1387.28L1354.33 1380.4H1360.54V1380.56Z" fill="#FFFCFA"/>
<path d="M1281.09 1036.36L1276.1 1014.12H1280.99L1284.54 1031.69L1289.34 1014.12H1293.02L1297.73 1031.62L1301.34 1014.12H1306.24L1301.25 1036.36H1294.59L1291.17 1023.4L1287.71 1036.36H1281.09ZM1308.01 1036.36V1013.16H1312.65L1312.59 1020.68C1313.64 1019.53 1315.21 1018.89 1317.42 1018.89C1321.61 1018.89 1324.52 1021.86 1324.52 1026.18V1036.36H1319.88V1026.98C1319.88 1024.42 1319.02 1023.08 1316.43 1023.08C1313.83 1023.08 1312.65 1024.65 1312.65 1027.3V1036.36H1308.01ZM1326.75 1036.36V1019.4H1331.39V1036.36H1326.75ZM1326.75 1018.06V1014.12H1331.39V1018.06H1326.75ZM1341.04 1036.36C1336.4 1036.36 1333.55 1033.83 1333.55 1027.59V1015.14H1338.19V1019.4H1343.88V1023.56H1338.19V1028.2C1338.19 1031.43 1339.56 1032.07 1342 1032.07C1343.56 1032.07 1343.85 1032.04 1344.01 1032.04L1343.5 1036.36H1341.04ZM1353.81 1036.74C1348.15 1036.74 1344.73 1033.19 1344.73 1027.91C1344.73 1022.66 1348.37 1018.89 1353.62 1018.89C1358.65 1018.89 1361.94 1022.44 1361.94 1027.91L1361.88 1029.16H1349.37C1349.75 1031.53 1351.19 1032.62 1353.88 1032.62C1355.77 1032.62 1357.17 1032.01 1358.17 1030.63L1361.81 1032.81C1359.99 1035.5 1357.43 1036.74 1353.81 1036.74ZM1349.56 1025.67H1357.14C1356.89 1024.07 1355.67 1023.05 1353.53 1023.05C1351.48 1023.05 1350.13 1023.98 1349.56 1025.67Z" fill="black"/>
<path d="M44.112 1397.74C37.84 1397.74 34.928 1395.5 34.704 1390.48H39.472C39.696 1392.66 40.784 1393.39 44.272 1393.39C47.76 1393.39 48.784 1392.62 48.784 1391.09C48.784 1389.52 47.824 1388.94 43.504 1388.46C37.68 1387.82 35.12 1385.68 35.12 1381.94C35.12 1377.42 38.256 1374.8 44.048 1374.8C50.448 1374.8 52.848 1377.65 53.04 1382.06H48.272C48.048 1379.89 46.96 1379.15 43.952 1379.15C41.328 1379.15 40.016 1379.86 40.016 1381.55C40.016 1382.99 40.912 1383.5 45.392 1384.02C51.312 1384.69 53.68 1386.8 53.68 1390.61C53.68 1395.06 50.512 1397.74 44.112 1397.74ZM63.8865 1397.74C58.8625 1397.74 55.5025 1394.29 55.5025 1389.1C55.5025 1383.54 59.0865 1379.89 64.5585 1379.89C69.4865 1379.89 72.9745 1383.22 73.2945 1388.27L73.5185 1392.59L73.7425 1397.36H69.5185L69.4545 1395.18C68.3985 1396.88 66.4465 1397.74 63.8865 1397.74ZM64.4625 1393.52C66.9905 1393.52 68.6865 1391.89 68.6865 1388.88C68.6865 1386.1 66.9905 1384.21 64.4625 1384.21C61.9025 1384.21 60.1425 1386.1 60.1425 1388.88C60.1425 1391.73 61.8065 1393.52 64.4625 1393.52ZM75.8412 1387.92C75.8412 1382.74 79.0732 1379.89 84.0012 1379.89C88.9292 1379.89 92.1612 1382.74 92.1612 1387.92V1397.36H87.5212V1387.73C87.5212 1385.46 86.2732 1384.21 84.0012 1384.21C81.7292 1384.21 80.4812 1385.46 80.4812 1387.73V1397.36H75.8412V1387.92ZM102.142 1397.74C97.63 1397.74 94.11 1394.16 94.11 1388.88C94.11 1383.54 97.726 1379.89 102.686 1379.89C104.606 1379.89 106.206 1380.46 107.39 1381.46L107.358 1374.16H111.902V1397.36H107.806L107.742 1395.25C107.006 1396.46 105.438 1397.74 102.142 1397.74ZM103.006 1393.42C105.598 1393.42 107.262 1391.79 107.262 1388.88C107.262 1386.06 105.534 1384.18 103.006 1384.18C100.446 1384.18 98.718 1386.06 98.718 1388.88C98.718 1391.76 100.286 1393.42 103.006 1393.42Z" fill="black"/>
<path d="M652.64 1397.36V1375.12H662.784C667.52 1375.12 670.272 1377.26 670.272 1380.94C670.272 1382.8 669.568 1384.11 668.16 1384.91C670.88 1385.55 672.544 1387.73 672.544 1390.64C672.544 1394.7 669.504 1397.36 664.832 1397.36H652.64ZM664.288 1393.07C666.592 1393.07 667.68 1392.24 667.68 1390.45C667.68 1388.72 666.592 1387.89 664.288 1387.89H657.28V1393.07H664.288ZM657.28 1384.02H662.816C664.64 1384.02 665.696 1383.18 665.696 1381.74C665.696 1380.24 664.672 1379.41 662.816 1379.41H657.28V1384.02ZM674.572 1397.36V1374.16H679.212V1397.36H674.572ZM689.657 1397.74C684.825 1397.74 681.529 1394.83 681.529 1390.54V1380.4H686.169V1389.94C686.169 1392.37 687.449 1393.36 689.657 1393.36C691.961 1393.36 693.209 1392.37 693.209 1389.94V1380.4H697.849V1390.54C697.849 1394.83 694.521 1397.74 689.657 1397.74ZM708.886 1397.74C703.222 1397.74 699.798 1394.19 699.798 1388.91C699.798 1383.66 703.446 1379.89 708.694 1379.89C713.718 1379.89 717.014 1383.44 717.014 1388.91L716.95 1390.16H704.438C704.822 1392.53 706.262 1393.62 708.95 1393.62C710.838 1393.62 712.246 1393.01 713.238 1391.63L716.886 1393.81C715.062 1396.5 712.502 1397.74 708.886 1397.74ZM704.63 1386.67H712.214C711.958 1385.07 710.742 1384.05 708.598 1384.05C706.55 1384.05 705.206 1384.98 704.63 1386.67Z" fill="black"/>
</g>
<defs>
<clipPath id="clip0_3211_264">
<rect width="1856" height="1436.36" fill="white" transform="translate(0 0.0795898)"/>
</clipPath>
</defs>
</svg>
